%
T1C.00591F0S0
X154897Y153913
X155143Y154123
X155132Y154392
X153981Y154431
X154973Y154468
X154462Y154807
X154701Y154907
X154369Y154937
X154557Y155099
X154849Y155123
X154804Y155289
X154938Y155618
X15509Y155662
X154833Y155749
X154835Y155926
X153351Y156791
X153917Y156885
X153881Y157172
X153282Y157303
X152755Y157423
X152799Y157656
X153688Y157714
X154279Y157792
X154925Y157852
X15366Y157869
X15422Y157974
X155035Y157982
X153694Y158023
X152729Y158092
X152892Y158092
X152663Y158468
X152665Y158809
X154553Y159052
X154348Y159055
X154559Y159289
X154357Y159289
X152689Y159359
X154357Y15951
X154569Y159516
X152838Y159543
X153614Y160144
X153467Y160379
X152776Y160975
X154282Y161224
X153908Y161241
X155148Y161383
X154877Y161525
X154161Y161697
X154507Y161717
X155089Y161934
X1549Y162098
X154511Y162106
X154129Y16211
X157344Y162211
X156001Y162186
X157046Y162167
X15551Y162087
X156373Y162087
X155205Y162036
X156752Y16203
X155241Y161724
X155945Y161261
X156471Y160967
X156529Y160782
X156503Y160596
X155647Y160435
X156535Y160432
X155917Y160375
X155957Y159903
X15592Y159672
X156616Y159558
X155922Y159502
X156361Y159387
X156591Y159385
X155921Y15933
X15749Y159078
X155925Y158944
X157493Y158694
X155385Y158683
X155386Y158524
X155966Y15828
X155806Y158078
X155958Y157985
X155663Y157961
X157021Y157804
X156229Y157754
X155658Y157751
X155529Y157657
X155792Y157624
X156636Y157512
X156302Y157174
X156981Y157133
X155987Y157085
X155806Y156991
X156341Y156991
X155738Y156846
X156264Y156807
X156994Y156739
X155606Y156711
X157171Y156705
X1566Y156701
X155823Y156687
X156302Y156618
X157164Y15637
X156345Y156343
X156998Y156251
X155602Y155982
X157282Y155835
X155218Y155567
X157533Y155189
X156015Y154945
X157304Y154937
X157565Y154925
X15629Y154923
X156006Y154685
X157208Y15468
X157556Y154671
X157032Y154431
X157553Y154422
X156013Y154421
X156294Y154416
X157315Y154415
X156278Y154187
X155404Y154187
X157054Y154175
X156032Y154175
X157556Y154169
X157306Y154155
X156788Y154035
X157289Y153919
X157553Y153911
X156257Y153911
X157066Y153909
X155389Y153789
X156312Y153691
X156498Y153624
X15758Y153397
X157389Y153342
X157212Y153337
X157017Y153336
X156795Y153257
X155184Y153246
X156319Y153182
X155431Y153097
X158999Y153337
X158804Y153537
X159125Y153679
X157922Y153946
X157789Y154166
X158052Y154439
X160139Y154468
X158215Y154485
X158912Y154521
X157938Y15491
X15866Y156994
X159092Y157034
X159076Y158867
X158255Y159319
X159638Y159375
X158123Y159633
X158443Y159644
X158738Y159719
X158899Y159738
X159095Y159867
X159156Y160033
X15938Y161789
X159396Y162155
X159046Y162203
X159638Y162211
X16205Y161815
X160427Y156166
X161447Y155104
X161323Y154785
X160287Y154782
X160288Y154629
X160607Y154469
X160454Y154466
X160291Y154466
X160819Y152871
T2C.00787F0S0
X154888Y153127
X154884Y153316
X154712Y153369
X154878Y153507
X154037Y154982
X153898Y155128
X153902Y155464
X154141Y155469
X155133Y156443
X155127Y156649
X153984Y157904
X153724Y158276
X154168Y159517
X155005Y15996
X154386Y160423
X154021Y160459
X154503Y161016
X156633Y161663
X156828Y161663
X156633Y161482
X156827Y161482
X156022Y16101
X155651Y160089
X156866Y159976
X156872Y159791
X157472Y159781
X156872Y159592
X15747Y159591
X15714Y158664
X157136Y158268
X157128Y157556
X155621Y15703
X157522Y155412
X160046Y155166
X159871Y155223
X159482Y155683
X159676Y15569
X158533Y155908
X15806Y15591
X158278Y156291
X157974Y156326
X159986Y156573
X158698Y156683
X158239Y156693
X157993Y156718
X159985Y156757
X159771Y156811
X159906Y156933
X159279Y156956
X159757Y157014
X157984Y157091
X158295Y157096
X15928Y157135
X159388Y157359
X159606Y157378
X159036Y157477
X158656Y157487
X158264Y157494
X157968Y157865
X160143Y157929
X158354Y158227
X157938Y15828
X159042Y158305
X159987Y158432
X158967Y158628
X157892Y158657
X158664Y158672
X158267Y158792
X159548Y158907
X157876Y159054
X159792Y159148
X16007Y15963
X159867Y159734
X160075Y15981
X159883Y159925
X159702Y159979
X160305Y162107
X161723Y162013
X161477Y161998
X161303Y161997
X160307Y161912
X160308Y161715
X161859Y161578
X161867Y161052
X162057Y161042
X162058Y16087
X161867Y160869
X162058Y160682
X161867Y16068
X162238Y16002
X162066Y160017
X161894Y160015
X162239Y159839
X162064Y159835
X161893Y159835
X162247Y159645
X161887Y159644
X162067Y159643
X160255Y159622
X160504Y159463
X161416Y15905
X161904Y158972
X162194Y158848
X162019Y158843
X162021Y158672
X162194Y158672
X160974Y158656
X160766Y158655
X16098Y158458
X160764Y158455
X160548Y158238
X160765Y158237
X160763Y158025
X160535Y158018
X160541Y157803
X16076Y157803
X161712Y157692
X161321Y157529
X161499Y157525
X161679Y157525
X161038Y15699
X160678Y156955
X160268Y156882
X16096Y156823
X161136Y15682
X160511Y15678
X160712Y156776
X16202Y156502
X162202Y156499
X161776Y156484
X161151Y156467
X161333Y156466
X160965Y156465
X16202Y15631
X16221Y156309
X16202Y156121
X162209Y15611
X160963Y155885
X16116Y155883
X160205Y155224
X161535Y15437
X161736Y154365
X161149Y154362
X161322Y154361
X160311Y154188
X161745Y154186
X16154Y154183
X160315Y153994
X16045Y153811
X160653Y153808
X160252Y153804
T3C.08661F074S55
X1533Y153283
X1533Y161641
X161699Y153283
M30
