*
*
G04 PADS 9.5 Build Number: 522968 generated Gerber (RS-274-X) file*
G04 PC Version=2.1*
*
%IN "VAE1701B01_201712_BKP.p"*%
*
%MOIN*%
*
%FSLAX35Y35*%
*
*
*
*
G04 PC Standard Apertures*
*
*
G04 Thermal Relief Aperture macro.*
%AMTER*
1,1,$1,0,0*
1,0,$1-$2,0,0*
21,0,$3,$4,0,0,45*
21,0,$3,$4,0,0,135*
%
*
*
G04 Annular Aperture macro.*
%AMANN*
1,1,$1,0,0*
1,0,$2,0,0*
%
*
*
G04 Odd Aperture macro.*
%AMODD*
1,1,$1,0,0*
1,0,$1-0.005,0,0*
%
*
*
G04 PC Custom Aperture Macros*
*
*
*
*
*
*
G04 PC Aperture Table*
*
%ADD010C,0.00394*%
%ADD021C,0.00197*%
%ADD022C,0.00394*%
%ADD028C,0.001*%
%ADD049R,0.042X0.042*%
%ADD050R,0.03X0.03*%
%ADD051C,0.03362*%
%ADD052C,0.045*%
%ADD053R,0.06X0.06*%
%ADD054C,0.1478*%
%ADD055R,0.07299X0.06512*%
%ADD056R,0.02654X0.04071*%
%ADD057R,0.02772X0.02575*%
%ADD058R,0.06315X0.06709*%
*
*
*
*
G04 PC Circuitry*
G04 Layer Name VAE1701B01_201712_BKP.p - circuitry*
%LPD*%
*
*
G04 PC Custom Flashes*
G04 Layer Name VAE1701B01_201712_BKP.p - flashes*
%LPD*%
*
*
G04 PC Circuitry*
G04 Layer Name VAE1701B01_201712_BKP.p - circuitry*
%LPD*%
*
G54D10*
G01X1500000Y1623956D02*
X1525586D01*
Y1525599*
X1500000*
Y1623956*
X1624089Y1624035D02*
X1649606D01*
Y1525644*
X1624071*
X1624071D02*
X1624089Y1624035D01*
X1500000Y1649606D02*
X1649606D01*
Y1624004*
X1500000*
Y1649606*
Y1525591D02*
X1649606D01*
Y1500000*
X1500000*
Y1525591*
X1512598Y1507874D02*
G75*
G03X1512598I-4724J0D01*
G01Y1641732D02*
G03X1512598I-4724J0D01*
G01X1646457D02*
G03X1646457I-4725J0D01*
G01Y1507874D02*
G03X1646457I-4725J0D01*
G01X1518573Y1538321D02*
G03X1518573I-4725J0D01*
G01Y1611204D02*
G03X1518573I-4725J0D01*
G01X1644640Y1538321D02*
G03X1644640I-4725J0D01*
G01Y1611204D02*
G03X1644640I-4725J0D01*
G54D21*
G01X1611033Y1572454D02*
X1611039Y1572240D01*
X1611056Y1572027*
X1611085Y1571816*
X1611126Y1571606*
X1611177Y1571399*
X1611240Y1571194*
X1611314Y1570994*
X1611398Y1570798*
X1611493Y1570606*
X1611598Y1570420*
X1611713Y1570240*
X1611838Y1570067*
X1611972Y1569901*
X1612114Y1569742*
X1612266Y1569591*
X1612425Y1569448*
X1612591Y1569314*
X1612765Y1569190*
X1612945Y1569075*
X1613131Y1568970*
X1613322Y1568875*
X1613518Y1568791*
X1613719Y1568717*
X1613923Y1568655*
X1614131Y1568603*
X1614340Y1568563*
X1614552Y1568534*
X1614765Y1568517*
X1614978Y1568511*
X1619388*
X1619408Y1568512*
X1619630Y1568529*
X1619851Y1568559*
X1620070Y1568600*
X1620287Y1568654*
X1620500Y1568719*
X1620710Y1568795*
X1620914Y1568883*
X1621114Y1568982*
X1621308Y1569091*
X1621496Y1569211*
X1621678Y1569341*
X1621851Y1569481*
X1622017Y1569630*
X1622175Y1569787*
X1622324Y1569953*
X1622463Y1570127*
X1622593Y1570308*
X1622713Y1570496*
X1622823Y1570690*
X1622922Y1570890*
X1623009Y1571095*
X1623086Y1571304*
X1623086D02*
X1623151Y1571518D01*
X1623204Y1571734*
X1623246Y1571953*
X1623275Y1572174*
X1623293Y1572396*
Y1572417*
Y1574464*
X1623287Y1574534*
X1623269Y1574602*
X1623239Y1574665*
X1623199Y1574722*
X1623150Y1574772*
X1623092Y1574812*
X1623029Y1574842*
X1622961Y1574860*
X1622892Y1574866*
X1611435*
X1611365Y1574860*
X1611298Y1574842*
X1611234Y1574812*
X1611177Y1574772*
X1611127Y1574722*
X1611087Y1574665*
X1611057Y1574602*
X1611039Y1574534*
X1611033Y1574464*
Y1572454*
X1611061Y1571995D02*
Y1574609D01*
X1611159Y1571470D02*
Y1574754D01*
X1611258Y1571146D02*
Y1574823D01*
X1611356Y1570895D02*
Y1574857D01*
X1611455Y1570684D02*
Y1574866D01*
X1611553Y1570500D02*
Y1574866D01*
X1611651Y1570337D02*
Y1574866D01*
X1611750Y1570190D02*
Y1574866D01*
X1611848Y1570054D02*
Y1574866D01*
X1611947Y1569932D02*
Y1574866D01*
X1612045Y1569819D02*
Y1574866D01*
X1612144Y1569713D02*
Y1574866D01*
X1612242Y1569614D02*
Y1574866D01*
X1612340Y1569524D02*
Y1574866D01*
X1612439Y1569437D02*
Y1574866D01*
X1612537Y1569358D02*
Y1574866D01*
X1612636Y1569282D02*
Y1574866D01*
X1612734Y1569212D02*
Y1574866D01*
X1612832Y1569146D02*
Y1574866D01*
X1612931Y1569084D02*
Y1574866D01*
X1613029Y1569027D02*
Y1574866D01*
X1613128Y1568971D02*
Y1574866D01*
X1613226Y1568922D02*
Y1574866D01*
X1613325Y1568874D02*
Y1574866D01*
X1613423Y1568832D02*
Y1574866D01*
X1613521Y1568790D02*
Y1574866D01*
X1613620Y1568753D02*
Y1574866D01*
X1613718Y1568717D02*
Y1574866D01*
X1613817Y1568687D02*
Y1574866D01*
X1613915Y1568657D02*
Y1574866D01*
X1614014Y1568632D02*
Y1574866D01*
X1614112Y1568608D02*
Y1574866D01*
X1614210Y1568588D02*
Y1574866D01*
X1614309Y1568569D02*
Y1574866D01*
X1614407Y1568554D02*
Y1574866D01*
X1614506Y1568541D02*
Y1574866D01*
X1614604Y1568530D02*
Y1574866D01*
X1614703Y1568522D02*
Y1574866D01*
X1614801Y1568516D02*
Y1574866D01*
X1614899Y1568514D02*
Y1574866D01*
X1614998Y1568511D02*
Y1574866D01*
X1615096Y1568511D02*
Y1574866D01*
X1615195Y1568511D02*
Y1574866D01*
X1615293Y1568511D02*
Y1574866D01*
X1615392Y1568511D02*
Y1574866D01*
X1615490Y1568511D02*
Y1574866D01*
X1615588Y1568511D02*
Y1574866D01*
X1615687Y1568511D02*
Y1574866D01*
X1615785Y1568511D02*
Y1574866D01*
X1615884Y1568511D02*
Y1574866D01*
X1615982Y1568511D02*
Y1574866D01*
X1616081Y1568511D02*
Y1574866D01*
X1616179Y1568511D02*
Y1574866D01*
X1616277Y1568511D02*
Y1574866D01*
X1616376Y1568511D02*
Y1574866D01*
X1616474Y1568511D02*
Y1574866D01*
X1616573Y1568511D02*
Y1574866D01*
X1616671Y1568511D02*
Y1574866D01*
X1616769Y1568511D02*
Y1574866D01*
X1616868Y1568511D02*
Y1574866D01*
X1616966Y1568511D02*
Y1574866D01*
X1617065Y1568511D02*
Y1574866D01*
X1617163Y1568511D02*
Y1574866D01*
X1617262Y1568511D02*
Y1574866D01*
X1617360Y1568511D02*
Y1574866D01*
X1617458Y1568511D02*
Y1574866D01*
X1617557Y1568511D02*
Y1574866D01*
X1617655Y1568511D02*
Y1574866D01*
X1617754Y1568511D02*
Y1574866D01*
X1617852Y1568511D02*
Y1574866D01*
X1617951Y1568511D02*
Y1574866D01*
X1618049Y1568511D02*
Y1574866D01*
X1618147Y1568511D02*
Y1574866D01*
X1618246Y1568511D02*
Y1574866D01*
X1618344Y1568511D02*
Y1574866D01*
X1618443Y1568511D02*
Y1574866D01*
X1618541Y1568511D02*
Y1574866D01*
X1618640Y1568511D02*
Y1574866D01*
X1618738Y1568511D02*
Y1574866D01*
X1618836Y1568511D02*
Y1574866D01*
X1618935Y1568511D02*
Y1574866D01*
X1619033Y1568511D02*
Y1574866D01*
X1619132Y1568511D02*
Y1574866D01*
X1619230Y1568511D02*
Y1574866D01*
X1619329Y1568511D02*
Y1574866D01*
X1619427Y1568513D02*
Y1574866D01*
X1619525Y1568521D02*
Y1574866D01*
X1619624Y1568529D02*
Y1574866D01*
X1619722Y1568542D02*
Y1574866D01*
X1619821Y1568555D02*
Y1574866D01*
X1619919Y1568572D02*
Y1574866D01*
X1620018Y1568590D02*
Y1574866D01*
X1620116Y1568612D02*
Y1574866D01*
X1620214Y1568636D02*
Y1574866D01*
X1620313Y1568662D02*
Y1574866D01*
X1620411Y1568692D02*
Y1574866D01*
X1620510Y1568722D02*
Y1574866D01*
X1620608Y1568758D02*
Y1574866D01*
X1620707Y1568794D02*
Y1574866D01*
X1620805Y1568836D02*
Y1574866D01*
X1620903Y1568878D02*
Y1574866D01*
X1621002Y1568926D02*
Y1574866D01*
X1621100Y1568975D02*
Y1574866D01*
X1621199Y1569029D02*
Y1574866D01*
X1621297Y1569085D02*
Y1574866D01*
X1621395Y1569147D02*
Y1574866D01*
X1621494Y1569210D02*
Y1574866D01*
X1621592Y1569280D02*
Y1574866D01*
X1621691Y1569352D02*
Y1574866D01*
X1621789Y1569431D02*
Y1574866D01*
X1621888Y1569513D02*
Y1574866D01*
X1621986Y1569602D02*
Y1574866D01*
X1622084Y1569697D02*
Y1574866D01*
X1622183Y1569796D02*
Y1574866D01*
X1622281Y1569906D02*
Y1574866D01*
X1622380Y1570023D02*
Y1574866D01*
X1622478Y1570148D02*
Y1574866D01*
X1622577Y1570285D02*
Y1574866D01*
X1622675Y1570436D02*
Y1574866D01*
X1622773Y1570603D02*
Y1574866D01*
X1622872Y1570790D02*
Y1574866D01*
X1622970Y1571004D02*
Y1574857D01*
X1623069Y1571258D02*
Y1574823D01*
X1623167Y1571584D02*
Y1574754D01*
X1623266Y1572102D02*
Y1574609D01*
X1611014Y1579346D02*
X1611020Y1579276D01*
X1611038Y1579209*
X1611067Y1579145*
X1611108Y1579088*
X1611157Y1579039*
X1611214Y1578998*
X1611278Y1578969*
X1611345Y1578951*
X1611415Y1578945*
X1622931*
X1623001Y1578951*
X1623068Y1578969*
X1623132Y1578998*
X1623189Y1579039*
X1623239Y1579088*
X1623279Y1579145*
X1623308Y1579209*
X1623326Y1579276*
X1623332Y1579346*
Y1581551*
X1623329Y1581606*
X1623292Y1581831*
X1623243Y1582055*
X1623183Y1582276*
X1623111Y1582493*
X1623028Y1582707*
X1622935Y1582915*
X1622830Y1583119*
X1622715Y1583317*
X1622590Y1583509*
X1622456Y1583694*
X1622311Y1583871*
X1622158Y1584041*
X1621996Y1584203*
X1621826Y1584356*
X1621649Y1584501*
X1621464Y1584635*
X1621272Y1584760*
X1621074Y1584875*
X1620870Y1584980*
X1620661Y1585074*
X1620448Y1585156*
X1620231Y1585228*
X1620010Y1585288*
X1619786Y1585337*
X1619560Y1585374*
X1619506Y1585378*
X1614703*
X1614664Y1585376*
X1614625Y1585370*
X1614396Y1585319*
X1614169Y1585256*
X1613946Y1585181*
X1613728Y1585095*
X1613514Y1584998*
X1613305Y1584890*
X1613102Y1584772*
X1612905Y1584643*
X1612716Y1584504*
X1612533Y1584356*
X1612359Y1584198*
X1612193Y1584032*
X1612035Y1583858*
X1611887Y1583676*
X1611748Y1583486*
X1611620Y1583289*
X1611501Y1583086*
X1611393Y1582878*
X1611296Y1582664*
X1611210Y1582445*
X1611136Y1582222*
X1611073Y1581996*
X1611021Y1581766*
X1611015Y1581728*
X1611014Y1581689*
Y1579346*
X1611061Y1579159D02*
Y1581943D01*
X1611159Y1579037D02*
Y1582293D01*
X1611258Y1578978D02*
Y1582566D01*
X1611356Y1578950D02*
Y1582796D01*
X1611455Y1578945D02*
Y1582996D01*
X1611553Y1578945D02*
Y1583175D01*
X1611651Y1578945D02*
Y1583338D01*
X1611750Y1578945D02*
Y1583488D01*
X1611848Y1578945D02*
Y1583622D01*
X1611947Y1578945D02*
Y1583749D01*
X1612045Y1578945D02*
Y1583869D01*
X1612144Y1578945D02*
Y1583978D01*
X1612242Y1578945D02*
Y1584082D01*
X1612340Y1578945D02*
Y1584180D01*
X1612439Y1578945D02*
Y1584271D01*
X1612537Y1578945D02*
Y1584359D01*
X1612636Y1578945D02*
Y1584439D01*
X1612734Y1578945D02*
Y1584518D01*
X1612832Y1578945D02*
Y1584590D01*
X1612931Y1578945D02*
Y1584660D01*
X1613029Y1578945D02*
Y1584724D01*
X1613128Y1578945D02*
Y1584787D01*
X1613226Y1578945D02*
Y1584844D01*
X1613325Y1578945D02*
Y1584900D01*
X1613423Y1578945D02*
Y1584951D01*
X1613521Y1578945D02*
Y1585002D01*
X1613620Y1578945D02*
Y1585046D01*
X1613718Y1578945D02*
Y1585091D01*
X1613817Y1578945D02*
Y1585130D01*
X1613915Y1578945D02*
Y1585169D01*
X1614014Y1578945D02*
Y1585204D01*
X1614112Y1578945D02*
Y1585236D01*
X1614210Y1578945D02*
Y1585267D01*
X1614309Y1578945D02*
Y1585295D01*
X1614407Y1578945D02*
Y1585321D01*
X1614506Y1578945D02*
Y1585343D01*
X1614604Y1578945D02*
Y1585365D01*
X1614703Y1578945D02*
Y1585378D01*
X1614801Y1578945D02*
Y1585378D01*
X1614899Y1578945D02*
Y1585378D01*
X1614998Y1578945D02*
Y1585378D01*
X1615096Y1578945D02*
Y1585378D01*
X1615195Y1578945D02*
Y1585378D01*
X1615293Y1578945D02*
Y1585378D01*
X1615392Y1578945D02*
Y1585378D01*
X1615490Y1578945D02*
Y1585378D01*
X1615588Y1578945D02*
Y1585378D01*
X1615687Y1578945D02*
Y1585378D01*
X1615785Y1578945D02*
Y1585378D01*
X1615884Y1578945D02*
Y1585378D01*
X1615982Y1578945D02*
Y1585378D01*
X1616081Y1578945D02*
Y1585378D01*
X1616179Y1578945D02*
Y1585378D01*
X1616277Y1578945D02*
Y1585378D01*
X1616376Y1578945D02*
Y1585378D01*
X1616474Y1578945D02*
Y1585378D01*
X1616573Y1578945D02*
Y1585378D01*
X1616671Y1578945D02*
Y1585378D01*
X1616769Y1578945D02*
Y1585378D01*
X1616868Y1578945D02*
Y1585378D01*
X1616966Y1578945D02*
Y1585378D01*
X1617065Y1578945D02*
Y1585378D01*
X1617163Y1578945D02*
Y1585378D01*
X1617262Y1578945D02*
Y1585378D01*
X1617360Y1578945D02*
Y1585378D01*
X1617458Y1578945D02*
Y1585378D01*
X1617557Y1578945D02*
Y1585378D01*
X1617655Y1578945D02*
Y1585378D01*
X1617754Y1578945D02*
Y1585378D01*
X1617852Y1578945D02*
Y1585378D01*
X1617951Y1578945D02*
Y1585378D01*
X1618049Y1578945D02*
Y1585378D01*
X1618147Y1578945D02*
Y1585378D01*
X1618246Y1578945D02*
Y1585378D01*
X1618344Y1578945D02*
Y1585378D01*
X1618443Y1578945D02*
Y1585378D01*
X1618541Y1578945D02*
Y1585378D01*
X1618640Y1578945D02*
Y1585378D01*
X1618738Y1578945D02*
Y1585378D01*
X1618836Y1578945D02*
Y1585378D01*
X1618935Y1578945D02*
Y1585378D01*
X1619033Y1578945D02*
Y1585378D01*
X1619132Y1578945D02*
Y1585378D01*
X1619230Y1578945D02*
Y1585378D01*
X1619329Y1578945D02*
Y1585378D01*
X1619427Y1578945D02*
Y1585378D01*
X1619525Y1578945D02*
Y1585376D01*
X1619624Y1578945D02*
Y1585363D01*
X1619722Y1578945D02*
Y1585347D01*
X1619821Y1578945D02*
Y1585329D01*
X1619919Y1578945D02*
Y1585308D01*
X1620018Y1578945D02*
Y1585286D01*
X1620116Y1578945D02*
Y1585259D01*
X1620214Y1578945D02*
Y1585232D01*
X1620313Y1578945D02*
Y1585201D01*
X1620411Y1578945D02*
Y1585168D01*
X1620510Y1578945D02*
Y1585132D01*
X1620608Y1578945D02*
Y1585094D01*
X1620707Y1578945D02*
Y1585053D01*
X1620805Y1578945D02*
Y1585009D01*
X1620903Y1578945D02*
Y1584963D01*
X1621002Y1578945D02*
Y1584912D01*
X1621100Y1578945D02*
Y1584860D01*
X1621199Y1578945D02*
Y1584803D01*
X1621297Y1578945D02*
Y1584744D01*
X1621395Y1578945D02*
Y1584680D01*
X1621494Y1578945D02*
Y1584613D01*
X1621592Y1578945D02*
Y1584542D01*
X1621691Y1578945D02*
Y1584466D01*
X1621789Y1578945D02*
Y1584387D01*
X1621888Y1578945D02*
Y1584301D01*
X1621986Y1578945D02*
Y1584212D01*
X1622084Y1578945D02*
Y1584115D01*
X1622183Y1578945D02*
Y1584014D01*
X1622281Y1578945D02*
Y1583905D01*
X1622380Y1578945D02*
Y1583787D01*
X1622478Y1578945D02*
Y1583663D01*
X1622577Y1578945D02*
Y1583528D01*
X1622675Y1578945D02*
Y1583379D01*
X1622773Y1578945D02*
Y1583217D01*
X1622872Y1578945D02*
Y1583038D01*
X1622970Y1578948D02*
Y1582836D01*
X1623069Y1578969D02*
Y1582603D01*
X1623167Y1579023D02*
Y1582323D01*
X1623266Y1579127D02*
Y1581952D01*
G54D22*
X1614675Y1567378D02*
X1614685Y1567299D01*
X1614716Y1567226*
X1614764Y1567163*
X1614827Y1567115*
X1614900Y1567085*
X1614978Y1567075*
X1619230*
X1619309Y1567085*
X1619382Y1567115*
X1619444Y1567163*
X1619493Y1567226*
X1619523Y1567299*
X1619533Y1567378*
Y1569661*
X1619523Y1569740*
X1619493Y1569813*
X1619444Y1569875*
X1619382Y1569924*
X1619309Y1569954*
X1619230Y1569964*
X1614978*
X1614900Y1569954*
X1614827Y1569924*
X1614764Y1569875*
X1614716Y1569813*
X1614685Y1569740*
X1614675Y1569661*
Y1567378*
X1614701Y1567262D02*
Y1569776D01*
X1614898Y1567086D02*
Y1569953D01*
X1615095Y1567075D02*
Y1569964D01*
X1615292Y1567075D02*
Y1569964D01*
X1615489Y1567075D02*
Y1569964D01*
X1615686Y1567075D02*
Y1569964D01*
X1615883Y1567075D02*
Y1569964D01*
X1616080Y1567075D02*
Y1569964D01*
X1616277Y1567075D02*
Y1569964D01*
X1616474Y1567075D02*
Y1569964D01*
X1616671Y1567075D02*
Y1569964D01*
X1616868Y1567075D02*
Y1569964D01*
X1617065Y1567075D02*
Y1569964D01*
X1617262Y1567075D02*
Y1569964D01*
X1617459Y1567075D02*
Y1569964D01*
X1617656Y1567075D02*
Y1569964D01*
X1617853Y1567075D02*
Y1569964D01*
X1618050Y1567075D02*
Y1569964D01*
X1618247Y1567075D02*
Y1569964D01*
X1618444Y1567075D02*
Y1569964D01*
X1618641Y1567075D02*
Y1569964D01*
X1618838Y1567075D02*
Y1569964D01*
X1619035Y1567075D02*
Y1569964D01*
X1619232Y1567075D02*
Y1569964D01*
X1619429Y1567151D02*
Y1569887D01*
X1614793Y1584504D02*
X1614804Y1584425D01*
X1614834Y1584352*
X1614882Y1584289*
X1614945Y1584241*
X1615018Y1584211*
X1615096Y1584201*
X1619427*
X1619505Y1584211*
X1619578Y1584241*
X1619641Y1584289*
X1619689Y1584352*
X1619720Y1584425*
X1619730Y1584504*
Y1586590*
X1619720Y1586669*
X1619689Y1586742*
X1619641Y1586804*
X1619578Y1586853*
X1619505Y1586883*
X1619427Y1586893*
X1615096*
X1615018Y1586883*
X1614945Y1586853*
X1614882Y1586804*
X1614834Y1586742*
X1614804Y1586669*
X1614793Y1586590*
Y1584504*
X1614898Y1584277D02*
Y1586817D01*
X1615095Y1584201D02*
Y1586893D01*
X1615292Y1584201D02*
Y1586893D01*
X1615489Y1584201D02*
Y1586893D01*
X1615686Y1584201D02*
Y1586893D01*
X1615883Y1584201D02*
Y1586893D01*
X1616080Y1584201D02*
Y1586893D01*
X1616277Y1584201D02*
Y1586893D01*
X1616474Y1584201D02*
Y1586893D01*
X1616671Y1584201D02*
Y1586893D01*
X1616868Y1584201D02*
Y1586893D01*
X1617065Y1584201D02*
Y1586893D01*
X1617262Y1584201D02*
Y1586893D01*
X1617459Y1584201D02*
Y1586893D01*
X1617656Y1584201D02*
Y1586893D01*
X1617853Y1584201D02*
Y1586893D01*
X1618050Y1584201D02*
Y1586893D01*
X1618247Y1584201D02*
Y1586893D01*
X1618444Y1584201D02*
Y1586893D01*
X1618641Y1584201D02*
Y1586893D01*
X1618838Y1584201D02*
Y1586893D01*
X1619035Y1584201D02*
Y1586893D01*
X1619232Y1584201D02*
Y1586893D01*
X1619429Y1584201D02*
Y1586893D01*
X1619626Y1584278D02*
Y1586816D01*
G54D28*
X1725756Y1493830D02*
X1725865Y1493831D01*
Y1493811*
X1725851Y1493812*
X1725840Y1493796*
X1725849Y1493751*
X1725868Y1493687*
X1725891Y1493626*
X1725918*
X1725931Y1493651*
X1725943Y1493681*
X1725957Y1493713*
X1725969Y1493750*
X1725983Y1493780*
Y1493803*
X1725973Y1493811*
X1725942*
X1725941Y1493831*
X1726043Y1493830*
Y1493812*
X1726023Y1493803*
X1726009Y1493799*
X1725996Y1493781*
X1725984Y1493743*
X1725971Y1493702*
X1725950Y1493657*
X1725936Y1493612*
X1725916Y1493568*
X1725906Y1493545*
X1725903Y1493539*
X1725874*
X1725875Y1493581*
X1725853Y1493643*
X1725824Y1493709*
X1725798Y1493774*
X1725783Y1493809*
X1725752*
X1725753Y1493826*
X1726172Y1493650D02*
X1726092D01*
X1726101Y1493662*
X1726144Y1493666*
X1726172Y1493667*
Y1493688*
X1726161Y1493708*
X1726146Y1493710*
X1726127Y1493707*
X1726104Y1493696*
X1726088Y1493681*
X1726082Y1493664*
X1726081Y1493633*
X1726086Y1493609*
X1726098Y1493589*
X1726122Y1493571*
X1726149Y1493566*
X1726177*
X1726202Y1493585*
X1726216Y1493597*
X1726226Y1493598*
X1726228Y1493590*
X1726226Y1493582*
X1726210Y1493577*
X1726199Y1493566*
X1726191Y1493558*
X1726180Y1493545*
X1726163Y1493542*
X1726132Y1493539*
X1726113Y1493540*
X1726099Y1493554*
X1726087Y1493564*
X1726072Y1493576*
X1726060Y1493591*
X1726050Y1493609*
Y1493676*
X1726072Y1493699*
X1726089Y1493715*
X1726110Y1493729*
X1726122Y1493738*
X1726172Y1493737*
X1726194Y1493717*
X1726207Y1493697*
X1726221Y1493689*
Y1493654*
Y1493649*
X1726205*
X1726180*
X1726172*
X1726169Y1493651*
X1726257Y1493844D02*
X1726277Y1493831D01*
X1726280Y1493733*
X1726282Y1493622*
Y1493555*
X1726271Y1493553*
X1726262Y1493551*
Y1493540*
X1726299Y1493539*
X1726353*
X1726357Y1493553*
X1726340*
X1726328Y1493568*
X1726316Y1493583*
X1726315Y1493638*
X1726325Y1493674*
X1726332Y1493694*
X1726347Y1493701*
X1726363Y1493706*
X1726376*
X1726392Y1493697*
X1726398Y1493686*
X1726404Y1493671*
Y1493650*
Y1493613*
X1726402Y1493579*
X1726395Y1493565*
X1726386Y1493559*
X1726377Y1493555*
X1726378Y1493542*
X1726415*
X1726463*
X1726485*
X1726484Y1493552*
X1726469*
X1726461Y1493561*
X1726456Y1493573*
X1726452Y1493591*
Y1493686*
X1726442Y1493716*
X1726430Y1493736*
X1726415Y1493739*
X1726396*
X1726372*
X1726354Y1493736*
X1726348Y1493730*
X1726338Y1493722*
X1726332Y1493710*
X1726325Y1493703*
X1726320Y1493700*
X1726318Y1493710*
Y1493737*
X1726317Y1493761*
Y1493849*
X1726260*
X1726256*
Y1493843*
X1726546Y1493844D02*
X1726530Y1493831D01*
X1726521Y1493818*
X1726530Y1493800*
X1726534Y1493790*
X1726555Y1493786*
X1726569*
X1726572Y1493797*
X1726580Y1493809*
Y1493823*
Y1493833*
X1726575Y1493840*
X1726565Y1493844*
X1726558*
X1726551*
X1726547*
X1726493Y1493724D02*
X1726523Y1493721D01*
X1726540Y1493730*
X1726546Y1493737*
X1726568Y1493739*
X1726579*
X1726580Y1493725*
X1726579Y1493559*
X1726599Y1493557*
Y1493536*
X1726498*
X1726499Y1493555*
X1726524*
X1726544Y1493574*
Y1493692*
X1726530Y1493690*
X1726524Y1493704*
X1726491Y1493706*
Y1493722*
X1726772Y1493661D02*
X1726771Y1493702D01*
X1726752Y1493736*
X1726746Y1493739*
X1726680*
X1726650Y1493719*
X1726630Y1493701*
X1726616Y1493674*
X1726617Y1493601*
X1726640Y1493559*
X1726671Y1493536*
X1726703*
X1726745*
X1726772Y1493554*
X1726797Y1493586*
X1726794Y1493598*
X1726778Y1493601*
X1726769Y1493594*
X1726766Y1493585*
X1726752Y1493578*
X1726738Y1493572*
X1726704Y1493569*
X1726692Y1493572*
X1726662Y1493600*
X1726661Y1493681*
X1726687Y1493710*
X1726700Y1493716*
X1726720Y1493723*
X1726731Y1493722*
X1726730Y1493698*
X1726731Y1493661*
X1726750Y1493657*
X1726768Y1493659*
X1726815Y1493737D02*
X1726884D01*
X1726883Y1493595*
X1726895Y1493571*
X1726910Y1493565*
X1726935Y1493564*
X1726961Y1493586*
X1726965Y1493607*
Y1493711*
X1726946Y1493712*
X1726931Y1493721*
Y1493738*
X1727003Y1493739*
X1727000Y1493698*
Y1493611*
Y1493576*
X1727002Y1493566*
X1727016Y1493559*
X1727031Y1493553*
X1727029Y1493537*
X1726978Y1493536*
X1726960*
X1726867Y1493539*
X1726851Y1493554*
X1726838Y1493582*
X1726839Y1493702*
X1726813Y1493718*
X1726805Y1493730*
X1726807Y1493735*
X1726813*
X1727041Y1493851D02*
X1727123D01*
Y1493571*
X1727134Y1493557*
X1727163Y1493553*
Y1493540*
X1727164Y1493537*
X1727046Y1493539*
Y1493555*
X1727083*
X1727082Y1493826*
X1727065Y1493839*
X1727040Y1493841*
X1727039Y1493851*
X1727219Y1493689D02*
X1727228Y1493706D01*
X1727212Y1493676*
X1727189Y1493675*
X1727187Y1493699*
X1727188Y1493706*
X1727204Y1493725*
X1727218Y1493739*
X1727234*
X1727297*
X1727318Y1493720*
X1727333Y1493698*
X1727335Y1493669*
X1727332Y1493610*
Y1493573*
X1727359Y1493552*
X1727360Y1493536*
X1727304Y1493539*
X1727298Y1493557*
X1727262*
X1727251Y1493540*
X1727216*
X1727204*
X1727178Y1493572*
X1727176Y1493604*
X1727187Y1493628*
X1727219Y1493647*
X1727242Y1493650*
X1727265Y1493662*
X1727279Y1493670*
X1727292Y1493682*
X1727291Y1493698*
X1727283Y1493714*
X1727276Y1493721*
X1727259Y1493725*
X1727248Y1493724*
X1727244Y1493720*
X1727232Y1493715*
X1727226Y1493702*
X1727215Y1493675D02*
X1727223Y1493693D01*
X1727283Y1493648D02*
X1727252Y1493638D01*
X1727227Y1493624*
X1727214Y1493608*
X1727216Y1493584*
X1727223Y1493572*
X1727236Y1493566*
X1727250*
X1727263Y1493574*
X1727284Y1493582*
X1727296Y1493590*
X1727295Y1493636*
X1727293Y1493647*
X1727285Y1493648*
X1727388Y1493739D02*
X1727447Y1493740D01*
X1727448Y1493718*
X1727477Y1493717*
X1727491Y1493726*
X1727504Y1493739*
X1727531*
X1727534Y1493721*
X1727535Y1493704*
Y1493689*
X1727530Y1493684*
X1727513*
X1727500*
X1727494Y1493699*
X1727482Y1493701*
X1727460Y1493702*
X1727449Y1493700*
X1727448Y1493698*
Y1493563*
Y1493555*
X1727495*
Y1493537*
X1727387*
Y1493555*
X1727402*
X1727406Y1493554*
Y1493722*
X1727388*
X1727387Y1493738*
G54D49*
X1566943Y1547264D03*
Y1553264D03*
X1600296Y1541053D03*
X1594296D03*
X1600384Y1546892D03*
X1594384D03*
X1601570Y1581935D03*
Y1575935D03*
X1595698Y1581935D03*
Y1575935D03*
X1581888Y1607772D03*
Y1613772D03*
X1575892Y1607822D03*
Y1613822D03*
X1605861Y1556180D03*
Y1550180D03*
X1577143Y1596150D03*
X1571143D03*
X1599420Y1563350D03*
Y1557350D03*
G54D50*
X1578108Y1551051D03*
X1582108D03*
X1578151Y1547028D03*
X1582151D03*
X1576928Y1555161D03*
X1580928D03*
X1571298Y1549611D03*
Y1553611D03*
X1562833Y1546397D03*
Y1550397D03*
X1558074Y1543843D03*
Y1547843D03*
X1554111Y1543853D03*
Y1547853D03*
X1568079Y1538803D03*
Y1534803D03*
X1594700Y1566752D03*
Y1570752D03*
X1594756Y1596147D03*
Y1600147D03*
X1610577Y1556476D03*
X1614577D03*
X1610577Y1549272D03*
X1614577D03*
X1594692Y1563165D03*
Y1559165D03*
X1610577Y1552831D03*
X1614577D03*
X1542716Y1601928D03*
Y1605928D03*
X1554057Y1562966D03*
Y1566966D03*
X1528522Y1605057D03*
X1532522D03*
X1554803Y1554099D03*
Y1558099D03*
X1550517Y1539137D03*
Y1535137D03*
X1546946Y1531905D03*
X1542946D03*
X1546539Y1541397D03*
X1542539D03*
X1558173Y1539640D03*
X1554173D03*
X1558100Y1536169D03*
X1554100D03*
X1554012Y1570609D03*
Y1574609D03*
X1613529Y1601093D03*
X1609529D03*
X1604629Y1591357D03*
X1600629D03*
X1538275Y1601972D03*
Y1605972D03*
G54D51*
X1564968Y1588601D03*
X1568905D03*
X1572842D03*
X1576779D03*
X1580716D03*
X1584653D03*
X1588590D03*
X1561031Y1584664D03*
X1564968D03*
X1568905D03*
X1572842D03*
X1576779D03*
X1580716D03*
X1584653D03*
X1588590D03*
X1561031Y1580727D03*
X1564968D03*
X1568905D03*
X1572842D03*
X1576779D03*
X1580716D03*
X1584653D03*
X1588590D03*
X1561031Y1576790D03*
X1564968D03*
X1568905D03*
X1572842D03*
X1576779D03*
X1580716D03*
X1584653D03*
X1588590D03*
X1561031Y1572853D03*
X1564968D03*
X1568905D03*
X1572842D03*
X1576779D03*
X1580716D03*
X1584653D03*
X1588590D03*
X1561031Y1568916D03*
X1564968D03*
X1568905D03*
X1572842D03*
X1576779D03*
X1580716D03*
X1584653D03*
X1588590D03*
X1561031Y1564979D03*
X1564968D03*
X1568905D03*
X1572842D03*
X1576779D03*
X1580716D03*
X1584653D03*
X1588590D03*
X1561031Y1561042D03*
X1564968D03*
X1568905D03*
X1572842D03*
X1576779D03*
X1580716D03*
X1584653D03*
X1588590D03*
G54D52*
X1537970Y1543688D03*
X1555794Y1605593D03*
X1560150Y1605141D03*
X1555771Y1600649D03*
X1537334Y1582939D03*
X1558762Y1541923D03*
X1558428Y1617923D03*
X1539777Y1577674D03*
X1571255Y1599526D03*
G54D53*
X1589082Y1608866D03*
Y1618066D03*
X1615231Y1606981D03*
Y1616181D03*
X1619380Y1593049D03*
X1610180D03*
X1597480Y1608932D03*
Y1618132D03*
G54D54*
X1532997Y1616411D03*
Y1532828D03*
X1616988D03*
G54D55*
X1617065Y1571787D03*
Y1582023D03*
G54D56*
X1570247Y1616627D03*
Y1607415D03*
G54D57*
X1541195Y1537697D03*
Y1535138D03*
X1547809D03*
Y1537697D03*
G54D58*
X1606744Y1606446D03*
Y1619044D03*
G74*
X0Y0D02*
M02*
