*
*
G04 PADS 9.5 Build Number: 522968 generated Gerber (RS-274-X) file*
G04 PC Version=2.1*
*
%IN "VAE1701B01_201712_BKP.p"*%
*
%MOIN*%
*
%FSLAX35Y35*%
*
*
*
*
G04 PC Standard Apertures*
*
*
G04 Thermal Relief Aperture macro.*
%AMTER*
1,1,$1,0,0*
1,0,$1-$2,0,0*
21,0,$3,$4,0,0,45*
21,0,$3,$4,0,0,135*
%
*
*
G04 Annular Aperture macro.*
%AMANN*
1,1,$1,0,0*
1,0,$2,0,0*
%
*
*
G04 Odd Aperture macro.*
%AMODD*
1,1,$1,0,0*
1,0,$1-0.005,0,0*
%
*
*
G04 PC Custom Aperture Macros*
*
*
*
*
*
*
G04 PC Aperture Table*
*
%ADD010C,0.00394*%
%ADD011R,0.032X0.032*%
%ADD012R,0.02X0.02*%
%ADD014C,0.035*%
%ADD021C,0.00197*%
%ADD022C,0.00394*%
%ADD028C,0.001*%
%ADD029C,0.01299*%
%ADD030R,0.01181X0.03543*%
%ADD031R,0.014X0.038*%
%ADD032R,0.038X0.014*%
%ADD033R,0.126X0.126*%
%ADD034R,0.05315X0.04724*%
%ADD035R,0.06693X0.0315*%
%ADD037R,0.03071X0.01654*%
%ADD038R,0.05512X0.06299*%
%ADD039C,0.005*%
%ADD040C,0.00039*%
*
*
*
*
G04 PC Circuitry*
G04 Layer Name VAE1701B01_201712_BKP.p - circuitry*
%LPD*%
*
*
G04 PC Custom Flashes*
G04 Layer Name VAE1701B01_201712_BKP.p - flashes*
%LPD*%
*
*
G04 PC Circuitry*
G04 Layer Name VAE1701B01_201712_BKP.p - circuitry*
%LPD*%
*
G54D10*
G01X1500000Y1623956D02*
X1525586D01*
Y1525599*
X1500000*
Y1623956*
X1624089Y1624035D02*
X1649606D01*
Y1525644*
X1624071*
X1624071D02*
X1624089Y1624035D01*
X1500000Y1649606D02*
X1649606D01*
Y1624004*
X1500000*
Y1649606*
Y1525591D02*
X1649606D01*
Y1500000*
X1500000*
Y1525591*
X1512598Y1507874D02*
G75*
G03X1512598I-4724J0D01*
G01Y1641732D02*
G03X1512598I-4724J0D01*
G01X1646457D02*
G03X1646457I-4725J0D01*
G01Y1507874D02*
G03X1646457I-4725J0D01*
G01X1518573Y1538321D02*
G03X1518573I-4725J0D01*
G01Y1611204D02*
G03X1518573I-4725J0D01*
G01X1644640Y1538321D02*
G03X1644640I-4725J0D01*
G01Y1611204D02*
G03X1644640I-4725J0D01*
G54D11*
G01X1611801Y1541355D03*
X1605801D03*
X1605559Y1552968D03*
Y1546968D03*
X1597062Y1565492D03*
Y1559492D03*
X1617712Y1562128D03*
X1611712D03*
X1617560Y1556024D03*
Y1550024D03*
X1611490Y1556024D03*
Y1550024D03*
X1605513Y1559492D03*
Y1565492D03*
X1533174Y1564473D03*
Y1570473D03*
X1541667Y1552301D03*
Y1558301D03*
X1541598Y1564473D03*
Y1570473D03*
X1531604Y1552281D03*
Y1558281D03*
X1569718Y1593101D03*
X1575718D03*
X1608410Y1600078D03*
X1614410D03*
X1591487Y1559492D03*
Y1565492D03*
G54D12*
X1596407Y1554422D03*
X1600407D03*
X1581066Y1554455D03*
X1585066D03*
X1588713Y1554473D03*
X1592713D03*
X1581423Y1546275D03*
Y1550275D03*
X1565776Y1580824D03*
Y1584824D03*
X1592034Y1595454D03*
X1596034D03*
X1590075Y1577346D03*
Y1581346D03*
X1577968Y1563913D03*
X1573968D03*
X1577968Y1560342D03*
X1573968D03*
X1586376Y1577388D03*
X1582376D03*
X1577968Y1574759D03*
X1573968D03*
X1586557Y1584955D03*
Y1580955D03*
X1582231Y1584955D03*
Y1580955D03*
X1577968Y1578383D03*
X1573968D03*
X1577968Y1581355D03*
X1573968D03*
X1577968Y1584976D03*
X1573968D03*
X1577968Y1571130D03*
X1573968D03*
X1577968Y1567533D03*
X1573968D03*
X1586064Y1571924D03*
X1590064D03*
X1587921Y1590323D03*
Y1594323D03*
X1567942Y1577303D03*
X1563942D03*
X1542687Y1606212D03*
Y1610212D03*
X1532506Y1605088D03*
X1528506D03*
X1562226Y1610213D03*
Y1606213D03*
X1541676Y1575302D03*
X1537676D03*
X1532506Y1579088D03*
X1528506D03*
X1532506Y1582814D03*
X1528506D03*
X1562039Y1580833D03*
Y1584833D03*
X1569452Y1588389D03*
X1573452D03*
X1569433Y1580780D03*
Y1584780D03*
X1565196Y1598865D03*
X1561196D03*
X1561158Y1602512D03*
X1565158D03*
X1558262Y1610213D03*
Y1606213D03*
X1564668Y1591377D03*
Y1595377D03*
X1550533Y1610282D03*
X1554533D03*
X1528506Y1586557D03*
X1532506D03*
Y1590118D03*
X1528506D03*
Y1593630D03*
X1532506D03*
X1528506Y1597253D03*
X1532506D03*
X1528506Y1600935D03*
X1532506D03*
X1539502Y1606348D03*
X1535502D03*
X1546728Y1610213D03*
Y1606213D03*
X1550385Y1606581D03*
X1554385D03*
X1584845Y1564198D03*
Y1568198D03*
X1584384Y1590327D03*
Y1594327D03*
X1580731Y1590327D03*
Y1594327D03*
X1587141Y1531384D03*
X1591141D03*
G54D14*
X1533042Y1561666D03*
G54D21*
X1610654Y1614829D02*
X1610854Y1614823D01*
X1611054Y1614806*
X1611252Y1614777*
X1611448Y1614736*
X1611641Y1614684*
X1611832Y1614621*
X1612018Y1614547*
X1612199Y1614462*
X1612376Y1614367*
X1612546Y1614262*
X1612710Y1614147*
X1612867Y1614023*
X1613017Y1613890*
X1613158Y1613748*
X1613292Y1613598*
X1613416Y1613441*
X1613531Y1613277*
X1613636Y1613106*
X1613731Y1612930*
X1613815Y1612748*
X1613889Y1612562*
X1613952Y1612372*
X1614004Y1612178*
X1614044Y1611982*
X1614073Y1611784*
X1614090Y1611584*
X1614096Y1611384*
Y1606977*
X1614080Y1606775*
X1614052Y1606574*
X1614013Y1606374*
X1613963Y1606177*
X1613902Y1605984*
X1613830Y1605794*
X1613747Y1605608*
X1613655Y1605428*
X1613552Y1605253*
X1613439Y1605084*
X1613317Y1604921*
X1613186Y1604766*
X1613047Y1604619*
X1612899Y1604479*
X1612744Y1604348*
X1612581Y1604226*
X1612412Y1604114*
X1612412D02*
X1612237Y1604011D01*
X1612057Y1603918*
X1611871Y1603835*
X1611681Y1603763*
X1611488Y1603702*
X1611291Y1603652*
X1611092Y1603613*
X1610890Y1603585*
X1610688Y1603569*
X1608742*
Y1614829*
X1610654*
X1608761Y1603569D02*
Y1614829D01*
X1608860Y1603569D02*
Y1614829D01*
X1608958Y1603569D02*
Y1614829D01*
X1609057Y1603569D02*
Y1614829D01*
X1609155Y1603569D02*
Y1614829D01*
X1609253Y1603569D02*
Y1614829D01*
X1609352Y1603569D02*
Y1614829D01*
X1609450Y1603569D02*
Y1614829D01*
X1609549Y1603569D02*
Y1614829D01*
X1609647Y1603569D02*
Y1614829D01*
X1609746Y1603569D02*
Y1614829D01*
X1609844Y1603569D02*
Y1614829D01*
X1609942Y1603569D02*
Y1614829D01*
X1610041Y1603569D02*
Y1614829D01*
X1610139Y1603569D02*
Y1614829D01*
X1610238Y1603569D02*
Y1614829D01*
X1610336Y1603569D02*
Y1614829D01*
X1610435Y1603569D02*
Y1614829D01*
X1610533Y1603569D02*
Y1614829D01*
X1610631Y1603569D02*
Y1614829D01*
X1610730Y1603572D02*
Y1614827D01*
X1610828Y1603580D02*
Y1614824D01*
X1610927Y1603590D02*
Y1614817D01*
X1611025Y1603604D02*
Y1614808D01*
X1611124Y1603619D02*
Y1614795D01*
X1611222Y1603638D02*
Y1614781D01*
X1611320Y1603659D02*
Y1614762D01*
X1611419Y1603685D02*
Y1614742D01*
X1611517Y1603711D02*
Y1614718D01*
X1611616Y1603742D02*
Y1614691D01*
X1611714Y1603776D02*
Y1614660D01*
X1611813Y1603813D02*
Y1614628D01*
X1611911Y1603853D02*
Y1614590D01*
X1612009Y1603897D02*
Y1614551D01*
X1612108Y1603944D02*
Y1614505D01*
X1612206Y1603995D02*
Y1614459D01*
X1612305Y1604050D02*
Y1614406D01*
X1612403Y1604108D02*
Y1614350D01*
X1612502Y1604173D02*
Y1614290D01*
X1612600Y1604240D02*
Y1614224D01*
X1612698Y1604314D02*
Y1614155D01*
X1612797Y1604393D02*
Y1614079D01*
X1612895Y1604476D02*
Y1613998D01*
X1612994Y1604569D02*
Y1613910D01*
X1613092Y1604667D02*
Y1613814D01*
X1613190Y1604771D02*
Y1613712D01*
X1613289Y1604888D02*
Y1613601D01*
X1613387Y1605015D02*
Y1613477D01*
X1613486Y1605154D02*
Y1613341D01*
X1613584Y1605308D02*
Y1613190D01*
X1613683Y1605482D02*
Y1613019D01*
X1613781Y1605684D02*
Y1612822D01*
X1613879Y1605924D02*
Y1612586D01*
X1613978Y1606236D02*
Y1612275D01*
X1614076Y1606750D02*
Y1611746D01*
X1603663Y1614849D02*
Y1603530D01*
X1601563*
X1601355Y1603564*
X1601150Y1603610*
X1600947Y1603667*
X1600747Y1603735*
X1600551Y1603813*
X1600360Y1603902*
X1600174Y1604001*
X1599993Y1604110*
X1599819Y1604228*
X1599651Y1604356*
X1599491Y1604493*
X1599338Y1604638*
X1599193Y1604791*
X1599056Y1604951*
X1598928Y1605119*
X1598810Y1605293*
X1598701Y1605474*
X1598602Y1605660*
X1598513Y1605851*
X1598435Y1606047*
X1598367Y1606247*
X1598310Y1606450*
X1598265Y1606655*
X1598230Y1606863*
Y1611650*
X1598278Y1611863*
X1598338Y1612072*
X1598409Y1612278*
X1598490Y1612480*
X1598583Y1612678*
X1598686Y1612870*
X1598798Y1613056*
X1598921Y1613237*
X1599053Y1613410*
X1599195Y1613576*
X1599345Y1613734*
X1599503Y1613884*
X1599669Y1614025*
X1599842Y1614157*
X1600022Y1614280*
X1600209Y1614393*
X1600401Y1614496*
X1600598Y1614588*
X1600800Y1614670*
X1601006Y1614741*
X1601216Y1614800*
X1601429Y1614849*
X1601429D02*
X1603663D01*
X1598230Y1606863D02*
Y1611650D01*
X1598328Y1606386D02*
Y1612039D01*
X1598427Y1606071D02*
Y1612323D01*
X1598525Y1605826D02*
Y1612555D01*
X1598624Y1605620D02*
Y1612754D01*
X1598722Y1605439D02*
Y1612930D01*
X1598820Y1605278D02*
Y1613089D01*
X1598919Y1605133D02*
Y1613233D01*
X1599017Y1605002D02*
Y1613362D01*
X1599116Y1604881D02*
Y1613483D01*
X1599214Y1604768D02*
Y1613596D01*
X1599313Y1604664D02*
Y1613700D01*
X1599411Y1604568D02*
Y1613797D01*
X1599509Y1604477D02*
Y1613890D01*
X1599608Y1604393D02*
Y1613973D01*
X1599706Y1604314D02*
Y1614054D01*
X1599805Y1604239D02*
Y1614129D01*
X1599903Y1604171D02*
Y1614199D01*
X1600002Y1604105D02*
Y1614266D01*
X1600100Y1604046D02*
Y1614327D01*
X1600198Y1603988D02*
Y1614387D01*
X1600297Y1603936D02*
Y1614440D01*
X1600395Y1603886D02*
Y1614493D01*
X1600494Y1603840D02*
Y1614539D01*
X1600592Y1603797D02*
Y1614585D01*
X1600690Y1603757D02*
Y1614626D01*
X1600789Y1603721D02*
Y1614665D01*
X1600887Y1603687D02*
Y1614700D01*
X1600986Y1603656D02*
Y1614734D01*
X1601084Y1603629D02*
Y1614763D01*
X1601183Y1603603D02*
Y1614791D01*
X1601281Y1603581D02*
Y1614815D01*
X1601379Y1603560D02*
Y1614838D01*
X1601478Y1603544D02*
Y1614849D01*
X1601576Y1603530D02*
Y1614849D01*
X1601675Y1603530D02*
Y1614849D01*
X1601773Y1603530D02*
Y1614849D01*
X1601872Y1603530D02*
Y1614849D01*
X1601970Y1603530D02*
Y1614849D01*
X1602068Y1603530D02*
Y1614849D01*
X1602167Y1603530D02*
Y1614849D01*
X1602265Y1603530D02*
Y1614849D01*
X1602364Y1603530D02*
Y1614849D01*
X1602462Y1603530D02*
Y1614849D01*
X1602561Y1603530D02*
Y1614849D01*
X1602659Y1603530D02*
Y1614849D01*
X1602757Y1603530D02*
Y1614849D01*
X1602856Y1603530D02*
Y1614849D01*
X1602954Y1603530D02*
Y1614849D01*
X1603053Y1603530D02*
Y1614849D01*
X1603151Y1603530D02*
Y1614849D01*
X1603250Y1603530D02*
Y1614849D01*
X1603348Y1603530D02*
Y1614849D01*
X1603446Y1603530D02*
Y1614849D01*
X1603545Y1603530D02*
Y1614849D01*
X1603643Y1603530D02*
Y1614849D01*
G54D22*
X1615533Y1611187D02*
Y1607329D01*
X1613643*
Y1611187*
X1615533*
X1613688Y1607329D02*
Y1611187D01*
X1613885Y1607329D02*
Y1611187D01*
X1614082Y1607329D02*
Y1611187D01*
X1614279Y1607329D02*
Y1611187D01*
X1614476Y1607329D02*
Y1611187D01*
X1614673Y1607329D02*
Y1611187D01*
X1614870Y1607329D02*
Y1611187D01*
X1615067Y1607329D02*
Y1611187D01*
X1615264Y1607329D02*
Y1611187D01*
X1615461Y1607329D02*
Y1611187D01*
X1598407Y1611069D02*
Y1607132D01*
X1596714*
Y1611069*
X1598407*
X1596746Y1607132D02*
Y1611069D01*
X1596943Y1607132D02*
Y1611069D01*
X1597140Y1607132D02*
Y1611069D01*
X1597337Y1607132D02*
Y1611069D01*
X1597534Y1607132D02*
Y1611069D01*
X1597731Y1607132D02*
Y1611069D01*
X1597928Y1607132D02*
Y1611069D01*
X1598125Y1607132D02*
Y1611069D01*
X1598322Y1607132D02*
Y1611069D01*
G54D28*
X1725756Y1493830D02*
X1725865Y1493831D01*
Y1493811*
X1725851Y1493812*
X1725840Y1493796*
X1725849Y1493751*
X1725868Y1493687*
X1725891Y1493626*
X1725918*
X1725931Y1493651*
X1725943Y1493681*
X1725957Y1493713*
X1725969Y1493750*
X1725983Y1493780*
Y1493803*
X1725973Y1493811*
X1725942*
X1725941Y1493831*
X1726043Y1493830*
Y1493812*
X1726023Y1493803*
X1726009Y1493799*
X1725996Y1493781*
X1725984Y1493743*
X1725971Y1493702*
X1725950Y1493657*
X1725936Y1493612*
X1725916Y1493568*
X1725906Y1493545*
X1725903Y1493539*
X1725874*
X1725875Y1493581*
X1725853Y1493643*
X1725824Y1493709*
X1725798Y1493774*
X1725783Y1493809*
X1725752*
X1725753Y1493826*
X1726172Y1493650D02*
X1726092D01*
X1726101Y1493662*
X1726144Y1493666*
X1726172Y1493667*
Y1493688*
X1726161Y1493708*
X1726146Y1493710*
X1726127Y1493707*
X1726104Y1493696*
X1726088Y1493681*
X1726082Y1493664*
X1726081Y1493633*
X1726086Y1493609*
X1726098Y1493589*
X1726122Y1493571*
X1726149Y1493566*
X1726177*
X1726202Y1493585*
X1726216Y1493597*
X1726226Y1493598*
X1726228Y1493590*
X1726226Y1493582*
X1726210Y1493577*
X1726199Y1493566*
X1726191Y1493558*
X1726180Y1493545*
X1726163Y1493542*
X1726132Y1493539*
X1726113Y1493540*
X1726099Y1493554*
X1726087Y1493564*
X1726072Y1493576*
X1726060Y1493591*
X1726050Y1493609*
Y1493676*
X1726072Y1493699*
X1726089Y1493715*
X1726110Y1493729*
X1726122Y1493738*
X1726172Y1493737*
X1726194Y1493717*
X1726207Y1493697*
X1726221Y1493689*
Y1493654*
Y1493649*
X1726205*
X1726180*
X1726172*
X1726169Y1493651*
X1726257Y1493844D02*
X1726277Y1493831D01*
X1726280Y1493733*
X1726282Y1493622*
Y1493555*
X1726271Y1493553*
X1726262Y1493551*
Y1493540*
X1726299Y1493539*
X1726353*
X1726357Y1493553*
X1726340*
X1726328Y1493568*
X1726316Y1493583*
X1726315Y1493638*
X1726325Y1493674*
X1726332Y1493694*
X1726347Y1493701*
X1726363Y1493706*
X1726376*
X1726392Y1493697*
X1726398Y1493686*
X1726404Y1493671*
Y1493650*
Y1493613*
X1726402Y1493579*
X1726395Y1493565*
X1726386Y1493559*
X1726377Y1493555*
X1726378Y1493542*
X1726415*
X1726463*
X1726485*
X1726484Y1493552*
X1726469*
X1726461Y1493561*
X1726456Y1493573*
X1726452Y1493591*
Y1493686*
X1726442Y1493716*
X1726430Y1493736*
X1726415Y1493739*
X1726396*
X1726372*
X1726354Y1493736*
X1726348Y1493730*
X1726338Y1493722*
X1726332Y1493710*
X1726325Y1493703*
X1726320Y1493700*
X1726318Y1493710*
Y1493737*
X1726317Y1493761*
Y1493849*
X1726260*
X1726256*
Y1493843*
X1726546Y1493844D02*
X1726530Y1493831D01*
X1726521Y1493818*
X1726530Y1493800*
X1726534Y1493790*
X1726555Y1493786*
X1726569*
X1726572Y1493797*
X1726580Y1493809*
Y1493823*
Y1493833*
X1726575Y1493840*
X1726565Y1493844*
X1726558*
X1726551*
X1726547*
X1726493Y1493724D02*
X1726523Y1493721D01*
X1726540Y1493730*
X1726546Y1493737*
X1726568Y1493739*
X1726579*
X1726580Y1493725*
X1726579Y1493559*
X1726599Y1493557*
Y1493536*
X1726498*
X1726499Y1493555*
X1726524*
X1726544Y1493574*
Y1493692*
X1726530Y1493690*
X1726524Y1493704*
X1726491Y1493706*
Y1493722*
X1726772Y1493661D02*
X1726771Y1493702D01*
X1726752Y1493736*
X1726746Y1493739*
X1726680*
X1726650Y1493719*
X1726630Y1493701*
X1726616Y1493674*
X1726617Y1493601*
X1726640Y1493559*
X1726671Y1493536*
X1726703*
X1726745*
X1726772Y1493554*
X1726797Y1493586*
X1726794Y1493598*
X1726778Y1493601*
X1726769Y1493594*
X1726766Y1493585*
X1726752Y1493578*
X1726738Y1493572*
X1726704Y1493569*
X1726692Y1493572*
X1726662Y1493600*
X1726661Y1493681*
X1726687Y1493710*
X1726700Y1493716*
X1726720Y1493723*
X1726731Y1493722*
X1726730Y1493698*
X1726731Y1493661*
X1726750Y1493657*
X1726768Y1493659*
X1726815Y1493737D02*
X1726884D01*
X1726883Y1493595*
X1726895Y1493571*
X1726910Y1493565*
X1726935Y1493564*
X1726961Y1493586*
X1726965Y1493607*
Y1493711*
X1726946Y1493712*
X1726931Y1493721*
Y1493738*
X1727003Y1493739*
X1727000Y1493698*
Y1493611*
Y1493576*
X1727002Y1493566*
X1727016Y1493559*
X1727031Y1493553*
X1727029Y1493537*
X1726978Y1493536*
X1726960*
X1726867Y1493539*
X1726851Y1493554*
X1726838Y1493582*
X1726839Y1493702*
X1726813Y1493718*
X1726805Y1493730*
X1726807Y1493735*
X1726813*
X1727041Y1493851D02*
X1727123D01*
Y1493571*
X1727134Y1493557*
X1727163Y1493553*
Y1493540*
X1727164Y1493537*
X1727046Y1493539*
Y1493555*
X1727083*
X1727082Y1493826*
X1727065Y1493839*
X1727040Y1493841*
X1727039Y1493851*
X1727219Y1493689D02*
X1727228Y1493706D01*
X1727212Y1493676*
X1727189Y1493675*
X1727187Y1493699*
X1727188Y1493706*
X1727204Y1493725*
X1727218Y1493739*
X1727234*
X1727297*
X1727318Y1493720*
X1727333Y1493698*
X1727335Y1493669*
X1727332Y1493610*
Y1493573*
X1727359Y1493552*
X1727360Y1493536*
X1727304Y1493539*
X1727298Y1493557*
X1727262*
X1727251Y1493540*
X1727216*
X1727204*
X1727178Y1493572*
X1727176Y1493604*
X1727187Y1493628*
X1727219Y1493647*
X1727242Y1493650*
X1727265Y1493662*
X1727279Y1493670*
X1727292Y1493682*
X1727291Y1493698*
X1727283Y1493714*
X1727276Y1493721*
X1727259Y1493725*
X1727248Y1493724*
X1727244Y1493720*
X1727232Y1493715*
X1727226Y1493702*
X1727215Y1493675D02*
X1727223Y1493693D01*
X1727283Y1493648D02*
X1727252Y1493638D01*
X1727227Y1493624*
X1727214Y1493608*
X1727216Y1493584*
X1727223Y1493572*
X1727236Y1493566*
X1727250*
X1727263Y1493574*
X1727284Y1493582*
X1727296Y1493590*
X1727295Y1493636*
X1727293Y1493647*
X1727285Y1493648*
X1727388Y1493739D02*
X1727447Y1493740D01*
X1727448Y1493718*
X1727477Y1493717*
X1727491Y1493726*
X1727504Y1493739*
X1727531*
X1727534Y1493721*
X1727535Y1493704*
Y1493689*
X1727530Y1493684*
X1727513*
X1727500*
X1727494Y1493699*
X1727482Y1493701*
X1727460Y1493702*
X1727449Y1493700*
X1727448Y1493698*
Y1493563*
Y1493555*
X1727495*
Y1493537*
X1727387*
Y1493555*
X1727402*
X1727406Y1493554*
Y1493722*
X1727388*
X1727387Y1493738*
G54D29*
X1576839Y1555707D03*
X1574280D03*
X1571721D03*
X1569162D03*
X1566603D03*
X1564044D03*
X1561485D03*
X1558926D03*
X1556367D03*
X1576839Y1553148D03*
X1574280D03*
X1571721D03*
X1569162D03*
X1566603D03*
X1564044D03*
X1561485D03*
X1558926D03*
X1556367D03*
X1576839Y1550589D03*
X1574280D03*
X1571721D03*
X1569162D03*
X1566603D03*
X1564044D03*
X1561485D03*
X1558926D03*
X1556367D03*
X1576839Y1548030D03*
X1574280D03*
X1571721D03*
X1569162D03*
X1566603D03*
X1564044D03*
X1561485D03*
X1558926D03*
X1556367D03*
X1576839Y1545471D03*
X1574280D03*
X1571721D03*
X1569162D03*
X1566603D03*
X1564044D03*
X1561485D03*
X1558926D03*
X1556367D03*
X1576839Y1542912D03*
X1574280D03*
X1571721D03*
X1569162D03*
X1566603D03*
X1564044D03*
X1561485D03*
X1558926D03*
X1556367D03*
X1576839Y1540353D03*
X1574280D03*
X1571721D03*
X1569162D03*
X1566603D03*
X1564044D03*
X1561485D03*
X1558926D03*
X1556367D03*
X1576839Y1537794D03*
X1574280D03*
X1571721D03*
X1569162D03*
X1566603D03*
X1564044D03*
X1561485D03*
X1558926D03*
X1556367D03*
X1576839Y1535235D03*
X1574280D03*
X1571721D03*
X1569162D03*
X1566603D03*
X1564044D03*
X1561485D03*
X1558926D03*
X1556367D03*
G54D30*
X1552011Y1573256D03*
X1553980D03*
X1555948D03*
X1557917D03*
Y1562233D03*
X1555948D03*
X1553980D03*
X1552011D03*
G54D31*
X1599946Y1591479D03*
X1602546D03*
X1605146D03*
X1607746D03*
X1610346D03*
Y1572779D03*
X1607746D03*
X1605146D03*
X1602546D03*
X1599946D03*
G54D32*
X1614496Y1587329D03*
Y1584729D03*
Y1582129D03*
Y1579529D03*
Y1576929D03*
X1595796D03*
Y1579529D03*
Y1582129D03*
Y1584729D03*
Y1587329D03*
G54D33*
X1605146Y1582129D03*
G54D34*
X1587224Y1548960D03*
X1597066D03*
Y1541479D03*
X1587224D03*
G54D35*
X1573192Y1610071D03*
X1587444Y1604332D03*
G54D37*
X1551594Y1615420D03*
X1560806D03*
G54D38*
X1611320Y1609297D03*
X1601084D03*
G54D39*
X1581552Y1597738D02*
X1580928Y1597753D01*
X1580306Y1597800*
X1579687Y1597876*
X1579072Y1597984*
X1578463Y1598121*
X1577862Y1598288*
X1577270Y1598485*
X1576688Y1598711*
X1576118Y1598965*
X1575561Y1599247*
X1575019Y1599556*
X1574493Y1599891*
X1573984Y1600252*
X1573493Y1600638*
X1573022Y1601047*
X1572572Y1601479*
X1572144Y1601933*
X1571738Y1602407*
X1571357Y1602901*
X1571000Y1603413*
X1570669Y1603941*
Y1605664*
X1581811*
X1581819*
X1582001Y1605669*
X1582364Y1605711*
X1582723Y1605782*
X1583074Y1605883*
X1583415Y1606012*
X1583745Y1606170*
X1584060Y1606355*
X1584359Y1606565*
X1584639Y1606799*
X1584899Y1607056*
X1585137Y1607333*
X1585351Y1607630*
X1585539Y1607943*
X1585700Y1608270*
X1585834Y1608610*
X1585939Y1608960*
X1586015Y1609318*
X1586060Y1609680*
X1586076Y1610045*
X1586060Y1610410*
X1586015Y1610773*
X1585939Y1611130*
X1585834Y1611480*
X1585700Y1611820*
X1585539Y1612148*
X1585351Y1612461*
X1585137Y1612757*
X1584899Y1613035*
X1584639Y1613291*
X1584359Y1613526*
X1584060Y1613736*
X1583745Y1613920*
X1583415Y1614078*
X1583074Y1614208*
X1582723Y1614308*
X1582364Y1614380*
X1582001Y1614421*
X1581819Y1614426*
X1581811*
X1570669*
Y1616119*
X1570975Y1616652*
X1571307Y1617170*
X1571665Y1617671*
X1572048Y1618153*
X1572453Y1618616*
X1572882Y1619058*
X1573331Y1619478*
X1573801Y1619875*
X1574290Y1620248*
X1574797Y1620597*
X1575321Y1620920*
X1575860Y1621217*
X1576414Y1621486*
X1576980Y1621728*
X1577557Y1621941*
X1578144Y1622125*
X1578740Y1622280*
X1579342Y1622405*
X1579950Y1622500*
X1580562Y1622564*
X1581177Y1622599*
X1581792Y1622602*
X1582407Y1622575*
X1583020Y1622517*
X1583629Y1622430*
X1584233Y1622311*
X1584830Y1622163*
X1585419Y1621986*
X1585999Y1621779*
X1586568Y1621544*
X1587124Y1621281*
X1587666Y1620991*
X1588194Y1620674*
X1588705Y1620331*
X1589198Y1619963*
X1589673Y1619572*
X1590127Y1619157*
X1590561Y1618720*
X1590972Y1618262*
X1591359Y1617784*
X1591723Y1617287*
X1592061Y1616773*
Y1603348*
X1591704Y1602841*
X1591322Y1602353*
X1590916Y1601884*
X1590488Y1601435*
X1590039Y1601008*
X1589569Y1600603*
X1589080Y1600222*
X1588572Y1599865*
X1588048Y1599534*
X1587509Y1599228*
X1586954Y1598950*
X1586387Y1598699*
X1585809Y1598476*
X1585220Y1598282*
X1584622Y1598116*
X1584017Y1597981*
X1583406Y1597875*
X1582790Y1597799*
X1582172Y1597753*
X1581552Y1597738*
X1570891Y1603586D02*
Y1605664D01*
Y1614426D02*
Y1616506D01*
X1571141Y1603210D02*
Y1605664D01*
Y1614426D02*
Y1616911D01*
X1571391Y1602856D02*
Y1605664D01*
Y1614426D02*
Y1617287D01*
X1571641Y1602532D02*
Y1605664D01*
Y1614426D02*
Y1617637D01*
X1571891Y1602228D02*
Y1605664D01*
Y1614426D02*
Y1617956D01*
X1572141Y1601935D02*
Y1605664D01*
Y1614426D02*
Y1618260D01*
X1572391Y1601670D02*
Y1605664D01*
Y1614426D02*
Y1618545D01*
X1572641Y1601413D02*
Y1605664D01*
Y1614426D02*
Y1618810D01*
X1572891Y1601173D02*
Y1605664D01*
Y1614426D02*
Y1619067D01*
X1573141Y1600944D02*
Y1605664D01*
Y1614426D02*
Y1619300D01*
X1573391Y1600726D02*
Y1605664D01*
Y1614426D02*
Y1619529D01*
X1573641Y1600521D02*
Y1605664D01*
Y1614426D02*
Y1619740D01*
X1573891Y1600325D02*
Y1605664D01*
Y1614426D02*
Y1619944D01*
X1574141Y1600140D02*
Y1605664D01*
Y1614426D02*
Y1620135D01*
X1574391Y1599963D02*
Y1605664D01*
Y1614426D02*
Y1620318D01*
X1574641Y1599797D02*
Y1605664D01*
Y1614426D02*
Y1620490D01*
X1574891Y1599637D02*
Y1605664D01*
Y1614426D02*
Y1620655D01*
X1575141Y1599486D02*
Y1605664D01*
Y1614426D02*
Y1620809D01*
X1575391Y1599344D02*
Y1605664D01*
Y1614426D02*
Y1620959D01*
X1575641Y1599206D02*
Y1605664D01*
Y1614426D02*
Y1621096D01*
X1575891Y1599080D02*
Y1605664D01*
Y1614426D02*
Y1621232D01*
X1576141Y1598954D02*
Y1605664D01*
Y1614426D02*
Y1621353D01*
X1576391Y1598843D02*
Y1605664D01*
Y1614426D02*
Y1621475D01*
X1576641Y1598732D02*
Y1605664D01*
Y1614426D02*
Y1621583D01*
X1576891Y1598632D02*
Y1605664D01*
Y1614426D02*
Y1621690D01*
X1577141Y1598535D02*
Y1605664D01*
Y1614426D02*
Y1621787D01*
X1577391Y1598445D02*
Y1605664D01*
Y1614426D02*
Y1621880D01*
X1577641Y1598362D02*
Y1605664D01*
Y1614426D02*
Y1621967D01*
X1577891Y1598280D02*
Y1605664D01*
Y1614426D02*
Y1622046D01*
X1578141Y1598211D02*
Y1605664D01*
Y1614426D02*
Y1622124D01*
X1578391Y1598141D02*
Y1605664D01*
Y1614426D02*
Y1622189D01*
X1578641Y1598081D02*
Y1605664D01*
Y1614426D02*
Y1622254D01*
X1578891Y1598024D02*
Y1605664D01*
Y1614426D02*
Y1622311D01*
X1579141Y1597972D02*
Y1605664D01*
Y1614426D02*
Y1622363D01*
X1579391Y1597928D02*
Y1605664D01*
Y1614426D02*
Y1622413D01*
X1579641Y1597884D02*
Y1605664D01*
Y1614426D02*
Y1622452D01*
X1579891Y1597851D02*
Y1605664D01*
Y1614426D02*
Y1622491D01*
X1580141Y1597820D02*
Y1605664D01*
Y1614426D02*
Y1622520D01*
X1580391Y1597793D02*
Y1605664D01*
Y1614426D02*
Y1622546D01*
X1580641Y1597775D02*
Y1605664D01*
Y1614426D02*
Y1622569D01*
X1580891Y1597756D02*
Y1605664D01*
Y1614426D02*
Y1622583D01*
X1581141Y1597748D02*
Y1605664D01*
Y1614426D02*
Y1622597D01*
X1581391Y1597742D02*
Y1605664D01*
Y1614426D02*
Y1622600D01*
X1581641Y1597740D02*
Y1605664D01*
Y1614426D02*
Y1622601D01*
X1581891Y1597746D02*
Y1605666D01*
Y1614424D02*
Y1622598D01*
X1582141Y1597753D02*
Y1605685D01*
Y1614405D02*
Y1622587D01*
X1582391Y1597769D02*
Y1605716D01*
Y1614374D02*
Y1622576D01*
X1582641Y1597788D02*
Y1605766D01*
Y1614325D02*
Y1622553D01*
X1582891Y1597811D02*
Y1605830D01*
Y1614260D02*
Y1622530D01*
X1583141Y1597842D02*
Y1605908D01*
Y1614182D02*
Y1622500D01*
X1583391Y1597873D02*
Y1606003D01*
Y1614087D02*
Y1622464D01*
X1583641Y1597915D02*
Y1606120D01*
Y1613970D02*
Y1622427D01*
X1583891Y1597959D02*
Y1606256D01*
Y1613835D02*
Y1622378D01*
X1584141Y1598008D02*
Y1606412D01*
Y1613679D02*
Y1622329D01*
X1584391Y1598065D02*
Y1606592D01*
Y1613499D02*
Y1622272D01*
X1584641Y1598122D02*
Y1606801D01*
Y1613290D02*
Y1622210D01*
X1584891Y1598191D02*
Y1607048D01*
Y1613043D02*
Y1622145D01*
X1585141Y1598260D02*
Y1607339D01*
Y1612751D02*
Y1622070D01*
X1585391Y1598338D02*
Y1607697D01*
Y1612393D02*
Y1621994D01*
X1585641Y1598421D02*
Y1608150D01*
Y1611940D02*
Y1621907D01*
X1585891Y1598508D02*
Y1608800D01*
Y1611290D02*
Y1621818D01*
X1586141Y1598604D02*
Y1621721D01*
X1586391Y1598700D02*
Y1621617D01*
X1586641Y1598811D02*
Y1621510D01*
X1586891Y1598922D02*
Y1621391D01*
X1587141Y1599044D02*
Y1621272D01*
X1587391Y1599169D02*
Y1621138D01*
X1587641Y1599303D02*
Y1621004D01*
X1587891Y1599445D02*
Y1620856D01*
X1588141Y1599593D02*
Y1620706D01*
X1588391Y1599751D02*
Y1620542D01*
X1588641Y1599914D02*
Y1620374D01*
X1588891Y1600089D02*
Y1620192D01*
X1589141Y1600270D02*
Y1620006D01*
X1589391Y1600465D02*
Y1619804D01*
X1589641Y1600665D02*
Y1619598D01*
X1589891Y1600881D02*
Y1619372D01*
X1590141Y1601105D02*
Y1619143D01*
X1590391Y1601343D02*
Y1618891D01*
X1590641Y1601595D02*
Y1618630D01*
X1590891Y1601858D02*
Y1618351D01*
X1591141Y1602144D02*
Y1618053D01*
X1591391Y1602442D02*
Y1617740D01*
X1591641Y1602761D02*
Y1617399D01*
X1591891Y1603107D02*
Y1617032D01*
G54D40*
X1553987Y1584213D02*
X1554024Y1584212D01*
X1554061Y1584208*
X1554098Y1584202*
X1554135Y1584194*
X1554170Y1584183*
X1554205Y1584170*
X1554239Y1584154*
X1554272Y1584137*
X1554304Y1584117*
X1554334Y1584095*
X1554363Y1584071*
X1554391Y1584046*
X1554416Y1584019*
X1554440Y1583990*
X1554462Y1583959*
X1554481Y1583928*
X1554499Y1583895*
X1554514Y1583861*
X1554527Y1583826*
X1554538Y1583790*
X1554547Y1583754*
X1554553Y1583717*
X1554557Y1583680*
X1554558Y1583642*
Y1580906*
X1553416*
Y1583642*
X1553417Y1583680*
X1553421Y1583717*
X1553427Y1583754*
X1553435Y1583790*
X1553446Y1583826*
X1553459Y1583861*
X1553475Y1583895*
X1553492Y1583928*
X1553512Y1583959*
X1553534Y1583990*
X1553558Y1584019*
X1553583Y1584046*
X1553610Y1584071*
X1553639Y1584095*
X1553670Y1584117*
X1553701Y1584137*
X1553734Y1584154*
X1553768Y1584170*
X1553803Y1584183*
X1553839Y1584194*
X1553875Y1584202*
X1553912Y1584208*
X1553950Y1584212*
X1553987Y1584213*
X1553416Y1580906D02*
Y1583642D01*
X1553436Y1580906D02*
Y1583791D01*
X1553455Y1580906D02*
Y1583850D01*
X1553475Y1580906D02*
Y1583895D01*
X1553495Y1580906D02*
Y1583931D01*
X1553514Y1580906D02*
Y1583963D01*
X1553534Y1580906D02*
Y1583990D01*
X1553554Y1580906D02*
Y1584014D01*
X1553573Y1580906D02*
Y1584036D01*
X1553593Y1580906D02*
Y1584055D01*
X1553613Y1580906D02*
Y1584073D01*
X1553633Y1580906D02*
Y1584090D01*
X1553652Y1580906D02*
Y1584104D01*
X1553672Y1580906D02*
Y1584118D01*
X1553692Y1580906D02*
Y1584131D01*
X1553711Y1580906D02*
Y1584142D01*
X1553731Y1580906D02*
Y1584152D01*
X1553751Y1580906D02*
Y1584162D01*
X1553770Y1580906D02*
Y1584170D01*
X1553790Y1580906D02*
Y1584178D01*
X1553810Y1580906D02*
Y1584185D01*
X1553829Y1580906D02*
Y1584191D01*
X1553849Y1580906D02*
Y1584196D01*
X1553869Y1580906D02*
Y1584201D01*
X1553888Y1580906D02*
Y1584204D01*
X1553908Y1580906D02*
Y1584208D01*
X1553928Y1580906D02*
Y1584210D01*
X1553947Y1580906D02*
Y1584212D01*
X1553967Y1580906D02*
Y1584213D01*
X1553987Y1580906D02*
Y1584213D01*
X1554007Y1580906D02*
Y1584213D01*
X1554026Y1580906D02*
Y1584212D01*
X1554046Y1580906D02*
Y1584210D01*
X1554066Y1580906D02*
Y1584208D01*
X1554085Y1580906D02*
Y1584204D01*
X1554105Y1580906D02*
Y1584201D01*
X1554125Y1580906D02*
Y1584196D01*
X1554144Y1580906D02*
Y1584191D01*
X1554164Y1580906D02*
Y1584185D01*
X1554184Y1580906D02*
Y1584178D01*
X1554203Y1580906D02*
Y1584170D01*
X1554223Y1580906D02*
Y1584162D01*
X1554243Y1580906D02*
Y1584152D01*
X1554262Y1580906D02*
Y1584142D01*
X1554282Y1580906D02*
Y1584131D01*
X1554302Y1580906D02*
Y1584118D01*
X1554322Y1580906D02*
Y1584104D01*
X1554341Y1580906D02*
Y1584090D01*
X1554361Y1580906D02*
Y1584073D01*
X1554381Y1580906D02*
Y1584055D01*
X1554400Y1580906D02*
Y1584036D01*
X1554420Y1580906D02*
Y1584014D01*
X1554440Y1580906D02*
Y1583990D01*
X1554459Y1580906D02*
Y1583963D01*
X1554479Y1580906D02*
Y1583931D01*
X1554499Y1580906D02*
Y1583895D01*
X1554518Y1580906D02*
Y1583850D01*
X1554538Y1580906D02*
Y1583791D01*
X1552018Y1584213D02*
X1552056Y1584212D01*
X1552093Y1584208*
X1552130Y1584202*
X1552166Y1584194*
X1552202Y1584183*
X1552237Y1584170*
X1552271Y1584154*
X1552304Y1584137*
X1552336Y1584117*
X1552366Y1584095*
X1552395Y1584071*
X1552422Y1584046*
X1552448Y1584019*
X1552471Y1583990*
X1552493Y1583959*
X1552513Y1583928*
X1552530Y1583895*
X1552546Y1583861*
X1552559Y1583826*
X1552570Y1583790*
X1552578Y1583754*
X1552584Y1583717*
X1552588Y1583680*
X1552589Y1583642*
Y1580906*
X1551447*
Y1583642*
X1551449Y1583680*
X1551452Y1583717*
X1551458Y1583754*
X1551467Y1583790*
X1551478Y1583826*
X1551491Y1583861*
X1551506Y1583895*
X1551524Y1583928*
X1551544Y1583959*
X1551565Y1583990*
X1551589Y1584019*
X1551615Y1584046*
X1551642Y1584071*
X1551671Y1584095*
X1551701Y1584117*
X1551733Y1584137*
X1551766Y1584154*
X1551800Y1584170*
X1551835Y1584183*
X1551871Y1584194*
X1551907Y1584202*
X1551944Y1584208*
X1551981Y1584212*
X1552018Y1584213*
X1551447Y1580906D02*
Y1583642D01*
X1551467Y1580906D02*
Y1583791D01*
X1551487Y1580906D02*
Y1583850D01*
X1551507Y1580906D02*
Y1583895D01*
X1551526Y1580906D02*
Y1583931D01*
X1551546Y1580906D02*
Y1583963D01*
X1551566Y1580906D02*
Y1583990D01*
X1551585Y1580906D02*
Y1584014D01*
X1551605Y1580906D02*
Y1584036D01*
X1551625Y1580906D02*
Y1584055D01*
X1551644Y1580906D02*
Y1584073D01*
X1551664Y1580906D02*
Y1584090D01*
X1551684Y1580906D02*
Y1584104D01*
X1551703Y1580906D02*
Y1584118D01*
X1551723Y1580906D02*
Y1584131D01*
X1551743Y1580906D02*
Y1584142D01*
X1551762Y1580906D02*
Y1584152D01*
X1551782Y1580906D02*
Y1584162D01*
X1551802Y1580906D02*
Y1584170D01*
X1551822Y1580906D02*
Y1584178D01*
X1551841Y1580906D02*
Y1584185D01*
X1551861Y1580906D02*
Y1584191D01*
X1551881Y1580906D02*
Y1584196D01*
X1551900Y1580906D02*
Y1584201D01*
X1551920Y1580906D02*
Y1584204D01*
X1551940Y1580906D02*
Y1584208D01*
X1551959Y1580906D02*
Y1584210D01*
X1551979Y1580906D02*
Y1584212D01*
X1551999Y1580906D02*
Y1584213D01*
X1552018Y1580906D02*
Y1584213D01*
X1552038Y1580906D02*
Y1584213D01*
X1552058Y1580906D02*
Y1584212D01*
X1552077Y1580906D02*
Y1584210D01*
X1552097Y1580906D02*
Y1584208D01*
X1552117Y1580906D02*
Y1584204D01*
X1552136Y1580906D02*
Y1584201D01*
X1552156Y1580906D02*
Y1584196D01*
X1552176Y1580906D02*
Y1584191D01*
X1552196Y1580906D02*
Y1584185D01*
X1552215Y1580906D02*
Y1584178D01*
X1552235Y1580906D02*
Y1584170D01*
X1552255Y1580906D02*
Y1584162D01*
X1552274Y1580906D02*
Y1584152D01*
X1552294Y1580906D02*
Y1584142D01*
X1552314Y1580906D02*
Y1584131D01*
X1552333Y1580906D02*
Y1584118D01*
X1552353Y1580906D02*
Y1584104D01*
X1552373Y1580906D02*
Y1584090D01*
X1552392Y1580906D02*
Y1584073D01*
X1552412Y1580906D02*
Y1584055D01*
X1552432Y1580906D02*
Y1584036D01*
X1552451Y1580906D02*
Y1584014D01*
X1552471Y1580906D02*
Y1583990D01*
X1552491Y1580906D02*
Y1583963D01*
X1552510Y1580906D02*
Y1583931D01*
X1552530Y1580906D02*
Y1583895D01*
X1552550Y1580906D02*
Y1583850D01*
X1552570Y1580906D02*
Y1583791D01*
X1550050Y1584213D02*
X1550087Y1584212D01*
X1550124Y1584208*
X1550161Y1584202*
X1550198Y1584194*
X1550233Y1584183*
X1550268Y1584170*
X1550302Y1584154*
X1550335Y1584137*
X1550367Y1584117*
X1550397Y1584095*
X1550426Y1584071*
X1550454Y1584046*
X1550479Y1584019*
X1550503Y1583990*
X1550525Y1583959*
X1550544Y1583928*
X1550562Y1583895*
X1550577Y1583861*
X1550590Y1583826*
X1550601Y1583790*
X1550610Y1583754*
X1550616Y1583717*
X1550620Y1583680*
X1550620D02*
X1550621Y1583642D01*
Y1580906*
X1549479*
Y1583642*
X1549480Y1583680*
X1549484Y1583717*
X1549490Y1583754*
X1549498Y1583790*
X1549509Y1583826*
X1549522Y1583861*
X1549538Y1583895*
X1549555Y1583928*
X1549575Y1583959*
X1549597Y1583990*
X1549621Y1584019*
X1549646Y1584046*
X1549673Y1584071*
X1549702Y1584095*
X1549733Y1584117*
X1549764Y1584137*
X1549797Y1584154*
X1549831Y1584170*
X1549866Y1584183*
X1549902Y1584194*
X1549938Y1584202*
X1549975Y1584208*
X1550013Y1584212*
X1550050Y1584213*
X1549479Y1580906D02*
Y1583642D01*
X1549499Y1580906D02*
Y1583791D01*
X1549518Y1580906D02*
Y1583850D01*
X1549538Y1580906D02*
Y1583895D01*
X1549558Y1580906D02*
Y1583931D01*
X1549577Y1580906D02*
Y1583963D01*
X1549597Y1580906D02*
Y1583990D01*
X1549617Y1580906D02*
Y1584014D01*
X1549636Y1580906D02*
Y1584036D01*
X1549656Y1580906D02*
Y1584055D01*
X1549676Y1580906D02*
Y1584073D01*
X1549696Y1580906D02*
Y1584090D01*
X1549715Y1580906D02*
Y1584104D01*
X1549735Y1580906D02*
Y1584118D01*
X1549755Y1580906D02*
Y1584131D01*
X1549774Y1580906D02*
Y1584142D01*
X1549794Y1580906D02*
Y1584152D01*
X1549814Y1580906D02*
Y1584162D01*
X1549833Y1580906D02*
Y1584170D01*
X1549853Y1580906D02*
Y1584178D01*
X1549873Y1580906D02*
Y1584185D01*
X1549892Y1580906D02*
Y1584191D01*
X1549912Y1580906D02*
Y1584196D01*
X1549932Y1580906D02*
Y1584201D01*
X1549951Y1580906D02*
Y1584204D01*
X1549971Y1580906D02*
Y1584208D01*
X1549991Y1580906D02*
Y1584210D01*
X1550010Y1580906D02*
Y1584212D01*
X1550030Y1580906D02*
Y1584213D01*
X1550050Y1580906D02*
Y1584213D01*
X1550070Y1580906D02*
Y1584213D01*
X1550089Y1580906D02*
Y1584212D01*
X1550109Y1580906D02*
Y1584210D01*
X1550129Y1580906D02*
Y1584208D01*
X1550148Y1580906D02*
Y1584204D01*
X1550168Y1580906D02*
Y1584201D01*
X1550188Y1580906D02*
Y1584196D01*
X1550207Y1580906D02*
Y1584191D01*
X1550227Y1580906D02*
Y1584185D01*
X1550247Y1580906D02*
Y1584178D01*
X1550266Y1580906D02*
Y1584170D01*
X1550286Y1580906D02*
Y1584162D01*
X1550306Y1580906D02*
Y1584152D01*
X1550325Y1580906D02*
Y1584142D01*
X1550345Y1580906D02*
Y1584131D01*
X1550365Y1580906D02*
Y1584118D01*
X1550385Y1580906D02*
Y1584104D01*
X1550404Y1580906D02*
Y1584090D01*
X1550424Y1580906D02*
Y1584073D01*
X1550444Y1580906D02*
Y1584055D01*
X1550463Y1580906D02*
Y1584036D01*
X1550483Y1580906D02*
Y1584014D01*
X1550503Y1580906D02*
Y1583990D01*
X1550522Y1580906D02*
Y1583963D01*
X1550542Y1580906D02*
Y1583931D01*
X1550562Y1580906D02*
Y1583895D01*
X1550581Y1580906D02*
Y1583850D01*
X1550601Y1580906D02*
Y1583791D01*
X1548081Y1584213D02*
X1548119Y1584212D01*
X1548156Y1584208*
X1548193Y1584202*
X1548229Y1584194*
X1548265Y1584183*
X1548300Y1584170*
X1548334Y1584154*
X1548367Y1584137*
X1548399Y1584117*
X1548429Y1584095*
X1548458Y1584071*
X1548485Y1584046*
X1548511Y1584019*
X1548534Y1583990*
X1548556Y1583959*
X1548576Y1583928*
X1548593Y1583895*
X1548609Y1583861*
X1548622Y1583826*
X1548633Y1583790*
X1548641Y1583754*
X1548647Y1583717*
X1548651Y1583680*
X1548652Y1583642*
Y1580906*
X1547510*
Y1583642*
X1547512Y1583680*
X1547515Y1583717*
X1547521Y1583754*
X1547530Y1583790*
X1547541Y1583826*
X1547554Y1583861*
X1547569Y1583895*
X1547587Y1583928*
X1547607Y1583959*
X1547628Y1583990*
X1547652Y1584019*
X1547678Y1584046*
X1547705Y1584071*
X1547734Y1584095*
X1547764Y1584117*
X1547796Y1584137*
X1547829Y1584154*
X1547863Y1584170*
X1547898Y1584183*
X1547934Y1584194*
X1547970Y1584202*
X1548007Y1584208*
X1548044Y1584212*
X1548081Y1584213*
X1547510Y1580906D02*
Y1583642D01*
X1547530Y1580906D02*
Y1583791D01*
X1547550Y1580906D02*
Y1583850D01*
X1547570Y1580906D02*
Y1583895D01*
X1547589Y1580906D02*
Y1583931D01*
X1547609Y1580906D02*
Y1583963D01*
X1547629Y1580906D02*
Y1583990D01*
X1547648Y1580906D02*
Y1584014D01*
X1547668Y1580906D02*
Y1584036D01*
X1547688Y1580906D02*
Y1584055D01*
X1547707Y1580906D02*
Y1584073D01*
X1547727Y1580906D02*
Y1584090D01*
X1547747Y1580906D02*
Y1584104D01*
X1547766Y1580906D02*
Y1584118D01*
X1547786Y1580906D02*
Y1584131D01*
X1547806Y1580906D02*
Y1584142D01*
X1547825Y1580906D02*
Y1584152D01*
X1547845Y1580906D02*
Y1584162D01*
X1547865Y1580906D02*
Y1584170D01*
X1547885Y1580906D02*
Y1584178D01*
X1547904Y1580906D02*
Y1584185D01*
X1547924Y1580906D02*
Y1584191D01*
X1547944Y1580906D02*
Y1584196D01*
X1547963Y1580906D02*
Y1584201D01*
X1547983Y1580906D02*
Y1584204D01*
X1548003Y1580906D02*
Y1584208D01*
X1548022Y1580906D02*
Y1584210D01*
X1548042Y1580906D02*
Y1584212D01*
X1548062Y1580906D02*
Y1584213D01*
X1548081Y1580906D02*
Y1584213D01*
X1548101Y1580906D02*
Y1584213D01*
X1548121Y1580906D02*
Y1584212D01*
X1548140Y1580906D02*
Y1584210D01*
X1548160Y1580906D02*
Y1584208D01*
X1548180Y1580906D02*
Y1584204D01*
X1548199Y1580906D02*
Y1584201D01*
X1548219Y1580906D02*
Y1584196D01*
X1548239Y1580906D02*
Y1584191D01*
X1548259Y1580906D02*
Y1584185D01*
X1548278Y1580906D02*
Y1584178D01*
X1548298Y1580906D02*
Y1584170D01*
X1548318Y1580906D02*
Y1584162D01*
X1548337Y1580906D02*
Y1584152D01*
X1548357Y1580906D02*
Y1584142D01*
X1548377Y1580906D02*
Y1584131D01*
X1548396Y1580906D02*
Y1584118D01*
X1548416Y1580906D02*
Y1584104D01*
X1548436Y1580906D02*
Y1584090D01*
X1548455Y1580906D02*
Y1584073D01*
X1548475Y1580906D02*
Y1584055D01*
X1548495Y1580906D02*
Y1584036D01*
X1548514Y1580906D02*
Y1584014D01*
X1548534Y1580906D02*
Y1583990D01*
X1548554Y1580906D02*
Y1583963D01*
X1548573Y1580906D02*
Y1583931D01*
X1548593Y1580906D02*
Y1583895D01*
X1548613Y1580906D02*
Y1583850D01*
X1548633Y1580906D02*
Y1583791D01*
X1546113Y1584213D02*
X1546150Y1584212D01*
X1546187Y1584208*
X1546224Y1584202*
X1546261Y1584194*
X1546296Y1584183*
X1546331Y1584170*
X1546365Y1584154*
X1546398Y1584137*
X1546430Y1584117*
X1546460Y1584095*
X1546489Y1584071*
X1546517Y1584046*
X1546542Y1584019*
X1546566Y1583990*
X1546588Y1583959*
X1546607Y1583928*
X1546625Y1583895*
X1546640Y1583861*
X1546653Y1583826*
X1546664Y1583790*
X1546673Y1583754*
X1546679Y1583717*
X1546682Y1583680*
X1546684Y1583642*
Y1580906*
X1545542*
Y1583642*
X1545543Y1583680*
X1545547Y1583717*
X1545553Y1583754*
X1545561Y1583790*
X1545572Y1583826*
X1545585Y1583861*
X1545601Y1583895*
X1545618Y1583928*
X1545638Y1583959*
X1545660Y1583990*
X1545684Y1584019*
X1545709Y1584046*
X1545736Y1584071*
X1545765Y1584095*
X1545796Y1584117*
X1545827Y1584137*
X1545860Y1584154*
X1545894Y1584170*
X1545929Y1584183*
X1545965Y1584194*
X1546001Y1584202*
X1546038Y1584208*
X1546076Y1584212*
X1546113Y1584213*
X1545542Y1580906D02*
Y1583642D01*
X1545562Y1580906D02*
Y1583791D01*
X1545581Y1580906D02*
Y1583850D01*
X1545601Y1580906D02*
Y1583895D01*
X1545621Y1580906D02*
Y1583931D01*
X1545640Y1580906D02*
Y1583963D01*
X1545660Y1580906D02*
Y1583990D01*
X1545680Y1580906D02*
Y1584014D01*
X1545699Y1580906D02*
Y1584036D01*
X1545719Y1580906D02*
Y1584055D01*
X1545739Y1580906D02*
Y1584073D01*
X1545759Y1580906D02*
Y1584090D01*
X1545778Y1580906D02*
Y1584104D01*
X1545798Y1580906D02*
Y1584118D01*
X1545818Y1580906D02*
Y1584131D01*
X1545837Y1580906D02*
Y1584142D01*
X1545857Y1580906D02*
Y1584152D01*
X1545877Y1580906D02*
Y1584162D01*
X1545896Y1580906D02*
Y1584170D01*
X1545916Y1580906D02*
Y1584178D01*
X1545936Y1580906D02*
Y1584185D01*
X1545955Y1580906D02*
Y1584191D01*
X1545975Y1580906D02*
Y1584196D01*
X1545995Y1580906D02*
Y1584201D01*
X1546014Y1580906D02*
Y1584204D01*
X1546034Y1580906D02*
Y1584208D01*
X1546054Y1580906D02*
Y1584210D01*
X1546073Y1580906D02*
Y1584212D01*
X1546093Y1580906D02*
Y1584213D01*
X1546113Y1580906D02*
Y1584213D01*
X1546133Y1580906D02*
Y1584213D01*
X1546152Y1580906D02*
Y1584212D01*
X1546172Y1580906D02*
Y1584210D01*
X1546192Y1580906D02*
Y1584208D01*
X1546211Y1580906D02*
Y1584204D01*
X1546231Y1580906D02*
Y1584201D01*
X1546251Y1580906D02*
Y1584196D01*
X1546270Y1580906D02*
Y1584191D01*
X1546290Y1580906D02*
Y1584185D01*
X1546310Y1580906D02*
Y1584178D01*
X1546329Y1580906D02*
Y1584170D01*
X1546349Y1580906D02*
Y1584162D01*
X1546369Y1580906D02*
Y1584152D01*
X1546388Y1580906D02*
Y1584142D01*
X1546408Y1580906D02*
Y1584131D01*
X1546428Y1580906D02*
Y1584118D01*
X1546447Y1580906D02*
Y1584104D01*
X1546467Y1580906D02*
Y1584090D01*
X1546487Y1580906D02*
Y1584073D01*
X1546507Y1580906D02*
Y1584055D01*
X1546526Y1580906D02*
Y1584036D01*
X1546546Y1580906D02*
Y1584014D01*
X1546566Y1580906D02*
Y1583990D01*
X1546585Y1580906D02*
Y1583963D01*
X1546605Y1580906D02*
Y1583931D01*
X1546625Y1580906D02*
Y1583895D01*
X1546644Y1580906D02*
Y1583850D01*
X1546664Y1580906D02*
Y1583791D01*
X1544144Y1584213D02*
X1544182Y1584212D01*
X1544219Y1584208*
X1544256Y1584202*
X1544292Y1584194*
X1544328Y1584183*
X1544363Y1584170*
X1544397Y1584154*
X1544430Y1584137*
X1544462Y1584117*
X1544492Y1584095*
X1544521Y1584071*
X1544548Y1584046*
X1544574Y1584019*
X1544597Y1583990*
X1544619Y1583959*
X1544639Y1583928*
X1544656Y1583895*
X1544672Y1583861*
X1544685Y1583826*
X1544696Y1583790*
X1544704Y1583754*
X1544710Y1583717*
X1544714Y1583680*
X1544715Y1583642*
Y1580906*
X1543573*
Y1583642*
X1543575Y1583680*
X1543578Y1583717*
X1543584Y1583754*
X1543593Y1583790*
X1543604Y1583826*
X1543617Y1583861*
X1543632Y1583895*
X1543650Y1583928*
X1543670Y1583959*
X1543691Y1583990*
X1543715Y1584019*
X1543741Y1584046*
X1543768Y1584071*
X1543797Y1584095*
X1543827Y1584117*
X1543859Y1584137*
X1543892Y1584154*
X1543926Y1584170*
X1543961Y1584183*
X1543997Y1584194*
X1544033Y1584202*
X1544070Y1584208*
X1544107Y1584212*
X1544144Y1584213*
X1543573Y1580906D02*
Y1583642D01*
X1543593Y1580906D02*
Y1583791D01*
X1543613Y1580906D02*
Y1583850D01*
X1543633Y1580906D02*
Y1583895D01*
X1543652Y1580906D02*
Y1583931D01*
X1543672Y1580906D02*
Y1583963D01*
X1543692Y1580906D02*
Y1583990D01*
X1543711Y1580906D02*
Y1584014D01*
X1543731Y1580906D02*
Y1584036D01*
X1543751Y1580906D02*
Y1584055D01*
X1543770Y1580906D02*
Y1584073D01*
X1543790Y1580906D02*
Y1584090D01*
X1543810Y1580906D02*
Y1584104D01*
X1543829Y1580906D02*
Y1584118D01*
X1543849Y1580906D02*
Y1584131D01*
X1543869Y1580906D02*
Y1584142D01*
X1543888Y1580906D02*
Y1584152D01*
X1543908Y1580906D02*
Y1584162D01*
X1543928Y1580906D02*
Y1584170D01*
X1543947Y1580906D02*
Y1584178D01*
X1543967Y1580906D02*
Y1584185D01*
X1543987Y1580906D02*
Y1584191D01*
X1544007Y1580906D02*
Y1584196D01*
X1544026Y1580906D02*
Y1584201D01*
X1544046Y1580906D02*
Y1584204D01*
X1544066Y1580906D02*
Y1584208D01*
X1544085Y1580906D02*
Y1584210D01*
X1544105Y1580906D02*
Y1584212D01*
X1544125Y1580906D02*
Y1584213D01*
X1544144Y1580906D02*
Y1584213D01*
X1544164Y1580906D02*
Y1584213D01*
X1544184Y1580906D02*
Y1584212D01*
X1544203Y1580906D02*
Y1584210D01*
X1544223Y1580906D02*
Y1584208D01*
X1544243Y1580906D02*
Y1584204D01*
X1544262Y1580906D02*
Y1584201D01*
X1544282Y1580906D02*
Y1584196D01*
X1544302Y1580906D02*
Y1584191D01*
X1544322Y1580906D02*
Y1584185D01*
X1544341Y1580906D02*
Y1584178D01*
X1544361Y1580906D02*
Y1584170D01*
X1544381Y1580906D02*
Y1584162D01*
X1544400Y1580906D02*
Y1584152D01*
X1544420Y1580906D02*
Y1584142D01*
X1544440Y1580906D02*
Y1584131D01*
X1544459Y1580906D02*
Y1584118D01*
X1544479Y1580906D02*
Y1584104D01*
X1544499Y1580906D02*
Y1584090D01*
X1544518Y1580906D02*
Y1584073D01*
X1544538Y1580906D02*
Y1584055D01*
X1544558Y1580906D02*
Y1584036D01*
X1544577Y1580906D02*
Y1584014D01*
X1544597Y1580906D02*
Y1583990D01*
X1544617Y1580906D02*
Y1583963D01*
X1544636Y1580906D02*
Y1583931D01*
X1544656Y1580906D02*
Y1583895D01*
X1544676Y1580906D02*
Y1583850D01*
X1544696Y1580906D02*
Y1583791D01*
X1542176Y1584213D02*
X1542213Y1584212D01*
X1542250Y1584208*
X1542287Y1584202*
X1542324Y1584194*
X1542359Y1584183*
X1542394Y1584170*
X1542428Y1584154*
X1542461Y1584137*
X1542493Y1584117*
X1542523Y1584095*
X1542552Y1584071*
X1542580Y1584046*
X1542605Y1584019*
X1542629Y1583990*
X1542651Y1583959*
X1542651D02*
X1542670Y1583928D01*
X1542688Y1583895*
X1542703Y1583861*
X1542716Y1583826*
X1542727Y1583790*
X1542736Y1583754*
X1542742Y1583717*
X1542745Y1583680*
X1542747Y1583642*
Y1580906*
X1541605*
Y1583642*
X1541606Y1583680*
X1541610Y1583717*
X1541616Y1583754*
X1541624Y1583790*
X1541635Y1583826*
X1541648Y1583861*
X1541664Y1583895*
X1541681Y1583928*
X1541701Y1583959*
X1541723Y1583990*
X1541747Y1584019*
X1541772Y1584046*
X1541799Y1584071*
X1541828Y1584095*
X1541859Y1584117*
X1541890Y1584137*
X1541923Y1584154*
X1541957Y1584170*
X1541992Y1584183*
X1542028Y1584194*
X1542064Y1584202*
X1542101Y1584208*
X1542139Y1584212*
X1542176Y1584213*
X1541605Y1580906D02*
Y1583642D01*
X1541625Y1580906D02*
Y1583791D01*
X1541644Y1580906D02*
Y1583850D01*
X1541664Y1580906D02*
Y1583895D01*
X1541684Y1580906D02*
Y1583931D01*
X1541703Y1580906D02*
Y1583963D01*
X1541723Y1580906D02*
Y1583990D01*
X1541743Y1580906D02*
Y1584014D01*
X1541762Y1580906D02*
Y1584036D01*
X1541782Y1580906D02*
Y1584055D01*
X1541802Y1580906D02*
Y1584073D01*
X1541822Y1580906D02*
Y1584090D01*
X1541841Y1580906D02*
Y1584104D01*
X1541861Y1580906D02*
Y1584118D01*
X1541881Y1580906D02*
Y1584131D01*
X1541900Y1580906D02*
Y1584142D01*
X1541920Y1580906D02*
Y1584152D01*
X1541940Y1580906D02*
Y1584162D01*
X1541959Y1580906D02*
Y1584170D01*
X1541979Y1580906D02*
Y1584178D01*
X1541999Y1580906D02*
Y1584185D01*
X1542018Y1580906D02*
Y1584191D01*
X1542038Y1580906D02*
Y1584196D01*
X1542058Y1580906D02*
Y1584201D01*
X1542077Y1580906D02*
Y1584204D01*
X1542097Y1580906D02*
Y1584208D01*
X1542117Y1580906D02*
Y1584210D01*
X1542136Y1580906D02*
Y1584212D01*
X1542156Y1580906D02*
Y1584213D01*
X1542176Y1580906D02*
Y1584213D01*
X1542196Y1580906D02*
Y1584213D01*
X1542215Y1580906D02*
Y1584212D01*
X1542235Y1580906D02*
Y1584210D01*
X1542255Y1580906D02*
Y1584208D01*
X1542274Y1580906D02*
Y1584204D01*
X1542294Y1580906D02*
Y1584201D01*
X1542314Y1580906D02*
Y1584196D01*
X1542333Y1580906D02*
Y1584191D01*
X1542353Y1580906D02*
Y1584185D01*
X1542373Y1580906D02*
Y1584178D01*
X1542392Y1580906D02*
Y1584170D01*
X1542412Y1580906D02*
Y1584162D01*
X1542432Y1580906D02*
Y1584152D01*
X1542451Y1580906D02*
Y1584142D01*
X1542471Y1580906D02*
Y1584131D01*
X1542491Y1580906D02*
Y1584118D01*
X1542510Y1580906D02*
Y1584104D01*
X1542530Y1580906D02*
Y1584090D01*
X1542550Y1580906D02*
Y1584073D01*
X1542570Y1580906D02*
Y1584055D01*
X1542589Y1580906D02*
Y1584036D01*
X1542609Y1580906D02*
Y1584014D01*
X1542629Y1580906D02*
Y1583990D01*
X1542648Y1580906D02*
Y1583963D01*
X1542668Y1580906D02*
Y1583931D01*
X1542688Y1580906D02*
Y1583895D01*
X1542707Y1580906D02*
Y1583850D01*
X1542727Y1580906D02*
Y1583791D01*
X1540207Y1584213D02*
X1540245Y1584212D01*
X1540282Y1584208*
X1540319Y1584202*
X1540355Y1584194*
X1540391Y1584183*
X1540426Y1584170*
X1540460Y1584154*
X1540493Y1584137*
X1540524Y1584117*
X1540555Y1584095*
X1540584Y1584071*
X1540611Y1584046*
X1540637Y1584019*
X1540660Y1583990*
X1540682Y1583959*
X1540702Y1583928*
X1540719Y1583895*
X1540735Y1583861*
X1540748Y1583826*
X1540759Y1583790*
X1540767Y1583754*
X1540773Y1583717*
X1540777Y1583680*
X1540778Y1583642*
Y1580906*
X1539636*
Y1583642*
X1539638Y1583680*
X1539641Y1583717*
X1539647Y1583754*
X1539656Y1583790*
X1539667Y1583826*
X1539680Y1583861*
X1539695Y1583895*
X1539713Y1583928*
X1539733Y1583959*
X1539754Y1583990*
X1539778Y1584019*
X1539804Y1584046*
X1539831Y1584071*
X1539860Y1584095*
X1539890Y1584117*
X1539922Y1584137*
X1539955Y1584154*
X1539989Y1584170*
X1540024Y1584183*
X1540060Y1584194*
X1540096Y1584202*
X1540133Y1584208*
X1540170Y1584212*
X1540207Y1584213*
X1539636Y1580906D02*
Y1583642D01*
X1539656Y1580906D02*
Y1583791D01*
X1539676Y1580906D02*
Y1583850D01*
X1539696Y1580906D02*
Y1583895D01*
X1539715Y1580906D02*
Y1583931D01*
X1539735Y1580906D02*
Y1583963D01*
X1539755Y1580906D02*
Y1583990D01*
X1539774Y1580906D02*
Y1584014D01*
X1539794Y1580906D02*
Y1584036D01*
X1539814Y1580906D02*
Y1584055D01*
X1539833Y1580906D02*
Y1584073D01*
X1539853Y1580906D02*
Y1584090D01*
X1539873Y1580906D02*
Y1584104D01*
X1539892Y1580906D02*
Y1584118D01*
X1539912Y1580906D02*
Y1584131D01*
X1539932Y1580906D02*
Y1584142D01*
X1539951Y1580906D02*
Y1584152D01*
X1539971Y1580906D02*
Y1584162D01*
X1539991Y1580906D02*
Y1584170D01*
X1540010Y1580906D02*
Y1584178D01*
X1540030Y1580906D02*
Y1584185D01*
X1540050Y1580906D02*
Y1584191D01*
X1540070Y1580906D02*
Y1584196D01*
X1540089Y1580906D02*
Y1584201D01*
X1540109Y1580906D02*
Y1584204D01*
X1540129Y1580906D02*
Y1584208D01*
X1540148Y1580906D02*
Y1584210D01*
X1540168Y1580906D02*
Y1584212D01*
X1540188Y1580906D02*
Y1584213D01*
X1540207Y1580906D02*
Y1584213D01*
X1540227Y1580906D02*
Y1584213D01*
X1540247Y1580906D02*
Y1584212D01*
X1540266Y1580906D02*
Y1584210D01*
X1540286Y1580906D02*
Y1584208D01*
X1540306Y1580906D02*
Y1584204D01*
X1540325Y1580906D02*
Y1584201D01*
X1540345Y1580906D02*
Y1584196D01*
X1540365Y1580906D02*
Y1584191D01*
X1540385Y1580906D02*
Y1584185D01*
X1540404Y1580906D02*
Y1584178D01*
X1540424Y1580906D02*
Y1584170D01*
X1540444Y1580906D02*
Y1584162D01*
X1540463Y1580906D02*
Y1584152D01*
X1540483Y1580906D02*
Y1584142D01*
X1540503Y1580906D02*
Y1584131D01*
X1540522Y1580906D02*
Y1584118D01*
X1540542Y1580906D02*
Y1584104D01*
X1540562Y1580906D02*
Y1584090D01*
X1540581Y1580906D02*
Y1584073D01*
X1540601Y1580906D02*
Y1584055D01*
X1540621Y1580906D02*
Y1584036D01*
X1540640Y1580906D02*
Y1584014D01*
X1540660Y1580906D02*
Y1583990D01*
X1540680Y1580906D02*
Y1583963D01*
X1540699Y1580906D02*
Y1583931D01*
X1540719Y1580906D02*
Y1583895D01*
X1540739Y1580906D02*
Y1583850D01*
X1540759Y1580906D02*
Y1583791D01*
X1538731Y1585690D02*
X1538768Y1585688D01*
X1538805Y1585685*
X1538842Y1585679*
X1538879Y1585670*
X1538914Y1585659*
X1538949Y1585646*
X1538983Y1585631*
X1539016Y1585613*
X1539048Y1585593*
X1539078Y1585572*
X1539107Y1585548*
X1539135Y1585522*
X1539160Y1585495*
X1539184Y1585466*
X1539206Y1585436*
X1539225Y1585404*
X1539243Y1585371*
X1539258Y1585337*
X1539272Y1585302*
X1539282Y1585266*
X1539291Y1585230*
X1539297Y1585193*
X1539301Y1585156*
X1539302Y1585119*
X1539301Y1585081*
X1539297Y1585044*
X1539291Y1585007*
X1539282Y1584971*
X1539272Y1584935*
X1539258Y1584900*
X1539243Y1584866*
X1539225Y1584833*
X1539206Y1584802*
X1539184Y1584771*
X1539160Y1584742*
X1539135Y1584715*
X1539107Y1584689*
X1539078Y1584666*
X1539048Y1584644*
X1539016Y1584624*
X1538983Y1584607*
X1538949Y1584591*
X1538914Y1584578*
X1538879Y1584567*
X1538842Y1584559*
X1538805Y1584553*
X1538768Y1584549*
X1538731Y1584548*
X1535995*
Y1585690*
X1538731*
X1535995Y1584548D02*
Y1585690D01*
X1536014Y1584548D02*
Y1585690D01*
X1536034Y1584548D02*
Y1585690D01*
X1536054Y1584548D02*
Y1585690D01*
X1536073Y1584548D02*
Y1585690D01*
X1536093Y1584548D02*
Y1585690D01*
X1536113Y1584548D02*
Y1585690D01*
X1536133Y1584548D02*
Y1585690D01*
X1536152Y1584548D02*
Y1585690D01*
X1536172Y1584548D02*
Y1585690D01*
X1536192Y1584548D02*
Y1585690D01*
X1536211Y1584548D02*
Y1585690D01*
X1536231Y1584548D02*
Y1585690D01*
X1536251Y1584548D02*
Y1585690D01*
X1536270Y1584548D02*
Y1585690D01*
X1536290Y1584548D02*
Y1585690D01*
X1536310Y1584548D02*
Y1585690D01*
X1536329Y1584548D02*
Y1585690D01*
X1536349Y1584548D02*
Y1585690D01*
X1536369Y1584548D02*
Y1585690D01*
X1536388Y1584548D02*
Y1585690D01*
X1536408Y1584548D02*
Y1585690D01*
X1536428Y1584548D02*
Y1585690D01*
X1536447Y1584548D02*
Y1585690D01*
X1536467Y1584548D02*
Y1585690D01*
X1536487Y1584548D02*
Y1585690D01*
X1536507Y1584548D02*
Y1585690D01*
X1536526Y1584548D02*
Y1585690D01*
X1536546Y1584548D02*
Y1585690D01*
X1536566Y1584548D02*
Y1585690D01*
X1536585Y1584548D02*
Y1585690D01*
X1536605Y1584548D02*
Y1585690D01*
X1536625Y1584548D02*
Y1585690D01*
X1536644Y1584548D02*
Y1585690D01*
X1536664Y1584548D02*
Y1585690D01*
X1536684Y1584548D02*
Y1585690D01*
X1536703Y1584548D02*
Y1585690D01*
X1536723Y1584548D02*
Y1585690D01*
X1536743Y1584548D02*
Y1585690D01*
X1536762Y1584548D02*
Y1585690D01*
X1536782Y1584548D02*
Y1585690D01*
X1536802Y1584548D02*
Y1585690D01*
X1536822Y1584548D02*
Y1585690D01*
X1536841Y1584548D02*
Y1585690D01*
X1536861Y1584548D02*
Y1585690D01*
X1536881Y1584548D02*
Y1585690D01*
X1536900Y1584548D02*
Y1585690D01*
X1536920Y1584548D02*
Y1585690D01*
X1536940Y1584548D02*
Y1585690D01*
X1536959Y1584548D02*
Y1585690D01*
X1536979Y1584548D02*
Y1585690D01*
X1536999Y1584548D02*
Y1585690D01*
X1537018Y1584548D02*
Y1585690D01*
X1537038Y1584548D02*
Y1585690D01*
X1537058Y1584548D02*
Y1585690D01*
X1537077Y1584548D02*
Y1585690D01*
X1537097Y1584548D02*
Y1585690D01*
X1537117Y1584548D02*
Y1585690D01*
X1537136Y1584548D02*
Y1585690D01*
X1537156Y1584548D02*
Y1585690D01*
X1537176Y1584548D02*
Y1585690D01*
X1537196Y1584548D02*
Y1585690D01*
X1537215Y1584548D02*
Y1585690D01*
X1537235Y1584548D02*
Y1585690D01*
X1537255Y1584548D02*
Y1585690D01*
X1537274Y1584548D02*
Y1585690D01*
X1537294Y1584548D02*
Y1585690D01*
X1537314Y1584548D02*
Y1585690D01*
X1537333Y1584548D02*
Y1585690D01*
X1537353Y1584548D02*
Y1585690D01*
X1537373Y1584548D02*
Y1585690D01*
X1537392Y1584548D02*
Y1585690D01*
X1537412Y1584548D02*
Y1585690D01*
X1537432Y1584548D02*
Y1585690D01*
X1537451Y1584548D02*
Y1585690D01*
X1537471Y1584548D02*
Y1585690D01*
X1537491Y1584548D02*
Y1585690D01*
X1537510Y1584548D02*
Y1585690D01*
X1537530Y1584548D02*
Y1585690D01*
X1537550Y1584548D02*
Y1585690D01*
X1537570Y1584548D02*
Y1585690D01*
X1537589Y1584548D02*
Y1585690D01*
X1537609Y1584548D02*
Y1585690D01*
X1537629Y1584548D02*
Y1585690D01*
X1537648Y1584548D02*
Y1585690D01*
X1537668Y1584548D02*
Y1585690D01*
X1537688Y1584548D02*
Y1585690D01*
X1537707Y1584548D02*
Y1585690D01*
X1537727Y1584548D02*
Y1585690D01*
X1537747Y1584548D02*
Y1585690D01*
X1537766Y1584548D02*
Y1585690D01*
X1537786Y1584548D02*
Y1585690D01*
X1537806Y1584548D02*
Y1585690D01*
X1537825Y1584548D02*
Y1585690D01*
X1537845Y1584548D02*
Y1585690D01*
X1537865Y1584548D02*
Y1585690D01*
X1537885Y1584548D02*
Y1585690D01*
X1537904Y1584548D02*
Y1585690D01*
X1537924Y1584548D02*
Y1585690D01*
X1537944Y1584548D02*
Y1585690D01*
X1537963Y1584548D02*
Y1585690D01*
X1537983Y1584548D02*
Y1585690D01*
X1538003Y1584548D02*
Y1585690D01*
X1538022Y1584548D02*
Y1585690D01*
X1538042Y1584548D02*
Y1585690D01*
X1538062Y1584548D02*
Y1585690D01*
X1538081Y1584548D02*
Y1585690D01*
X1538101Y1584548D02*
Y1585690D01*
X1538121Y1584548D02*
Y1585690D01*
X1538140Y1584548D02*
Y1585690D01*
X1538160Y1584548D02*
Y1585690D01*
X1538180Y1584548D02*
Y1585690D01*
X1538199Y1584548D02*
Y1585690D01*
X1538219Y1584548D02*
Y1585690D01*
X1538239Y1584548D02*
Y1585690D01*
X1538259Y1584548D02*
Y1585690D01*
X1538278Y1584548D02*
Y1585690D01*
X1538298Y1584548D02*
Y1585690D01*
X1538318Y1584548D02*
Y1585690D01*
X1538337Y1584548D02*
Y1585690D01*
X1538357Y1584548D02*
Y1585690D01*
X1538377Y1584548D02*
Y1585690D01*
X1538396Y1584548D02*
Y1585690D01*
X1538416Y1584548D02*
Y1585690D01*
X1538436Y1584548D02*
Y1585690D01*
X1538455Y1584548D02*
Y1585690D01*
X1538475Y1584548D02*
Y1585690D01*
X1538495Y1584548D02*
Y1585690D01*
X1538514Y1584548D02*
Y1585690D01*
X1538534Y1584548D02*
Y1585690D01*
X1538554Y1584548D02*
Y1585690D01*
X1538573Y1584548D02*
Y1585690D01*
X1538593Y1584548D02*
Y1585690D01*
X1538613Y1584548D02*
Y1585690D01*
X1538633Y1584548D02*
Y1585690D01*
X1538652Y1584548D02*
Y1585690D01*
X1538672Y1584548D02*
Y1585690D01*
X1538692Y1584548D02*
Y1585690D01*
X1538711Y1584548D02*
Y1585690D01*
X1538731Y1584548D02*
Y1585690D01*
X1538751Y1584548D02*
Y1585689D01*
X1538770Y1584549D02*
Y1585688D01*
X1538790Y1584551D02*
Y1585686D01*
X1538810Y1584553D02*
Y1585684D01*
X1538829Y1584557D02*
Y1585681D01*
X1538849Y1584560D02*
Y1585677D01*
X1538869Y1584565D02*
Y1585672D01*
X1538888Y1584570D02*
Y1585667D01*
X1538908Y1584576D02*
Y1585661D01*
X1538928Y1584583D02*
Y1585654D01*
X1538947Y1584591D02*
Y1585647D01*
X1538967Y1584599D02*
Y1585638D01*
X1538987Y1584608D02*
Y1585629D01*
X1539007Y1584619D02*
Y1585618D01*
X1539026Y1584630D02*
Y1585607D01*
X1539046Y1584643D02*
Y1585595D01*
X1539066Y1584657D02*
Y1585581D01*
X1539085Y1584671D02*
Y1585566D01*
X1539105Y1584688D02*
Y1585550D01*
X1539125Y1584706D02*
Y1585532D01*
X1539144Y1584725D02*
Y1585512D01*
X1539164Y1584747D02*
Y1585490D01*
X1539184Y1584771D02*
Y1585466D01*
X1539203Y1584798D02*
Y1585439D01*
X1539223Y1584830D02*
Y1585408D01*
X1539243Y1584866D02*
Y1585371D01*
X1539262Y1584911D02*
Y1585326D01*
X1539282Y1584970D02*
Y1585267D01*
X1538731Y1587658D02*
X1538768Y1587657D01*
X1538805Y1587653*
X1538842Y1587647*
X1538879Y1587639*
X1538914Y1587628*
X1538949Y1587615*
X1538983Y1587599*
X1539016Y1587582*
X1539048Y1587562*
X1539078Y1587540*
X1539107Y1587516*
X1539135Y1587491*
X1539160Y1587464*
X1539184Y1587435*
X1539206Y1587404*
X1539225Y1587373*
X1539243Y1587340*
X1539258Y1587306*
X1539272Y1587271*
X1539282Y1587235*
X1539291Y1587199*
X1539297Y1587162*
X1539301Y1587125*
X1539302Y1587087*
X1539301Y1587050*
X1539297Y1587013*
X1539291Y1586976*
X1539282Y1586939*
X1539272Y1586904*
X1539258Y1586869*
X1539243Y1586835*
X1539225Y1586802*
X1539206Y1586770*
X1539184Y1586740*
X1539160Y1586711*
X1539135Y1586684*
X1539107Y1586658*
X1539078Y1586634*
X1539048Y1586613*
X1539016Y1586593*
X1538983Y1586575*
X1538949Y1586560*
X1538914Y1586547*
X1538879Y1586536*
X1538842Y1586527*
X1538805Y1586521*
X1538768Y1586518*
X1538731Y1586516*
X1535995*
Y1587658*
X1538731*
X1535995Y1586516D02*
Y1587658D01*
X1536014Y1586516D02*
Y1587658D01*
X1536034Y1586516D02*
Y1587658D01*
X1536054Y1586516D02*
Y1587658D01*
X1536073Y1586516D02*
Y1587658D01*
X1536093Y1586516D02*
Y1587658D01*
X1536113Y1586516D02*
Y1587658D01*
X1536133Y1586516D02*
Y1587658D01*
X1536152Y1586516D02*
Y1587658D01*
X1536172Y1586516D02*
Y1587658D01*
X1536192Y1586516D02*
Y1587658D01*
X1536211Y1586516D02*
Y1587658D01*
X1536231Y1586516D02*
Y1587658D01*
X1536251Y1586516D02*
Y1587658D01*
X1536270Y1586516D02*
Y1587658D01*
X1536290Y1586516D02*
Y1587658D01*
X1536310Y1586516D02*
Y1587658D01*
X1536329Y1586516D02*
Y1587658D01*
X1536349Y1586516D02*
Y1587658D01*
X1536369Y1586516D02*
Y1587658D01*
X1536388Y1586516D02*
Y1587658D01*
X1536408Y1586516D02*
Y1587658D01*
X1536428Y1586516D02*
Y1587658D01*
X1536447Y1586516D02*
Y1587658D01*
X1536467Y1586516D02*
Y1587658D01*
X1536487Y1586516D02*
Y1587658D01*
X1536507Y1586516D02*
Y1587658D01*
X1536526Y1586516D02*
Y1587658D01*
X1536546Y1586516D02*
Y1587658D01*
X1536566Y1586516D02*
Y1587658D01*
X1536585Y1586516D02*
Y1587658D01*
X1536605Y1586516D02*
Y1587658D01*
X1536625Y1586516D02*
Y1587658D01*
X1536644Y1586516D02*
Y1587658D01*
X1536664Y1586516D02*
Y1587658D01*
X1536684Y1586516D02*
Y1587658D01*
X1536703Y1586516D02*
Y1587658D01*
X1536723Y1586516D02*
Y1587658D01*
X1536743Y1586516D02*
Y1587658D01*
X1536762Y1586516D02*
Y1587658D01*
X1536782Y1586516D02*
Y1587658D01*
X1536802Y1586516D02*
Y1587658D01*
X1536822Y1586516D02*
Y1587658D01*
X1536841Y1586516D02*
Y1587658D01*
X1536861Y1586516D02*
Y1587658D01*
X1536881Y1586516D02*
Y1587658D01*
X1536900Y1586516D02*
Y1587658D01*
X1536920Y1586516D02*
Y1587658D01*
X1536940Y1586516D02*
Y1587658D01*
X1536959Y1586516D02*
Y1587658D01*
X1536979Y1586516D02*
Y1587658D01*
X1536999Y1586516D02*
Y1587658D01*
X1537018Y1586516D02*
Y1587658D01*
X1537038Y1586516D02*
Y1587658D01*
X1537058Y1586516D02*
Y1587658D01*
X1537077Y1586516D02*
Y1587658D01*
X1537097Y1586516D02*
Y1587658D01*
X1537117Y1586516D02*
Y1587658D01*
X1537136Y1586516D02*
Y1587658D01*
X1537156Y1586516D02*
Y1587658D01*
X1537176Y1586516D02*
Y1587658D01*
X1537196Y1586516D02*
Y1587658D01*
X1537215Y1586516D02*
Y1587658D01*
X1537235Y1586516D02*
Y1587658D01*
X1537255Y1586516D02*
Y1587658D01*
X1537274Y1586516D02*
Y1587658D01*
X1537294Y1586516D02*
Y1587658D01*
X1537314Y1586516D02*
Y1587658D01*
X1537333Y1586516D02*
Y1587658D01*
X1537353Y1586516D02*
Y1587658D01*
X1537373Y1586516D02*
Y1587658D01*
X1537392Y1586516D02*
Y1587658D01*
X1537412Y1586516D02*
Y1587658D01*
X1537432Y1586516D02*
Y1587658D01*
X1537451Y1586516D02*
Y1587658D01*
X1537471Y1586516D02*
Y1587658D01*
X1537491Y1586516D02*
Y1587658D01*
X1537510Y1586516D02*
Y1587658D01*
X1537530Y1586516D02*
Y1587658D01*
X1537550Y1586516D02*
Y1587658D01*
X1537570Y1586516D02*
Y1587658D01*
X1537589Y1586516D02*
Y1587658D01*
X1537609Y1586516D02*
Y1587658D01*
X1537629Y1586516D02*
Y1587658D01*
X1537648Y1586516D02*
Y1587658D01*
X1537668Y1586516D02*
Y1587658D01*
X1537688Y1586516D02*
Y1587658D01*
X1537707Y1586516D02*
Y1587658D01*
X1537727Y1586516D02*
Y1587658D01*
X1537747Y1586516D02*
Y1587658D01*
X1537766Y1586516D02*
Y1587658D01*
X1537786Y1586516D02*
Y1587658D01*
X1537806Y1586516D02*
Y1587658D01*
X1537825Y1586516D02*
Y1587658D01*
X1537845Y1586516D02*
Y1587658D01*
X1537865Y1586516D02*
Y1587658D01*
X1537885Y1586516D02*
Y1587658D01*
X1537904Y1586516D02*
Y1587658D01*
X1537924Y1586516D02*
Y1587658D01*
X1537944Y1586516D02*
Y1587658D01*
X1537963Y1586516D02*
Y1587658D01*
X1537983Y1586516D02*
Y1587658D01*
X1538003Y1586516D02*
Y1587658D01*
X1538022Y1586516D02*
Y1587658D01*
X1538042Y1586516D02*
Y1587658D01*
X1538062Y1586516D02*
Y1587658D01*
X1538081Y1586516D02*
Y1587658D01*
X1538101Y1586516D02*
Y1587658D01*
X1538121Y1586516D02*
Y1587658D01*
X1538140Y1586516D02*
Y1587658D01*
X1538160Y1586516D02*
Y1587658D01*
X1538180Y1586516D02*
Y1587658D01*
X1538199Y1586516D02*
Y1587658D01*
X1538219Y1586516D02*
Y1587658D01*
X1538239Y1586516D02*
Y1587658D01*
X1538259Y1586516D02*
Y1587658D01*
X1538278Y1586516D02*
Y1587658D01*
X1538298Y1586516D02*
Y1587658D01*
X1538318Y1586516D02*
Y1587658D01*
X1538337Y1586516D02*
Y1587658D01*
X1538357Y1586516D02*
Y1587658D01*
X1538377Y1586516D02*
Y1587658D01*
X1538396Y1586516D02*
Y1587658D01*
X1538416Y1586516D02*
Y1587658D01*
X1538436Y1586516D02*
Y1587658D01*
X1538455Y1586516D02*
Y1587658D01*
X1538475Y1586516D02*
Y1587658D01*
X1538495Y1586516D02*
Y1587658D01*
X1538514Y1586516D02*
Y1587658D01*
X1538534Y1586516D02*
Y1587658D01*
X1538554Y1586516D02*
Y1587658D01*
X1538573Y1586516D02*
Y1587658D01*
X1538593Y1586516D02*
Y1587658D01*
X1538613Y1586516D02*
Y1587658D01*
X1538633Y1586516D02*
Y1587658D01*
X1538652Y1586516D02*
Y1587658D01*
X1538672Y1586516D02*
Y1587658D01*
X1538692Y1586516D02*
Y1587658D01*
X1538711Y1586516D02*
Y1587658D01*
X1538731Y1586516D02*
Y1587658D01*
X1538751Y1586517D02*
Y1587657D01*
X1538770Y1586518D02*
Y1587657D01*
X1538790Y1586520D02*
Y1587655D01*
X1538810Y1586522D02*
Y1587652D01*
X1538829Y1586525D02*
Y1587649D01*
X1538849Y1586529D02*
Y1587645D01*
X1538869Y1586533D02*
Y1587641D01*
X1538888Y1586539D02*
Y1587636D01*
X1538908Y1586545D02*
Y1587630D01*
X1538928Y1586552D02*
Y1587623D01*
X1538947Y1586559D02*
Y1587615D01*
X1538967Y1586568D02*
Y1587607D01*
X1538987Y1586577D02*
Y1587597D01*
X1539007Y1586588D02*
Y1587587D01*
X1539026Y1586599D02*
Y1587575D01*
X1539046Y1586611D02*
Y1587563D01*
X1539066Y1586625D02*
Y1587549D01*
X1539085Y1586640D02*
Y1587534D01*
X1539105Y1586656D02*
Y1587518D01*
X1539125Y1586674D02*
Y1587500D01*
X1539144Y1586694D02*
Y1587480D01*
X1539164Y1586715D02*
Y1587459D01*
X1539184Y1586739D02*
Y1587435D01*
X1539203Y1586767D02*
Y1587407D01*
X1539223Y1586798D02*
Y1587376D01*
X1539243Y1586834D02*
Y1587340D01*
X1539262Y1586880D02*
Y1587295D01*
X1539282Y1586939D02*
Y1587236D01*
X1538731Y1589627D02*
X1538768Y1589625D01*
X1538805Y1589622*
X1538842Y1589616*
X1538879Y1589607*
X1538914Y1589596*
X1538949Y1589583*
X1538983Y1589568*
X1539016Y1589550*
X1539048Y1589530*
X1539078Y1589509*
X1539107Y1589485*
X1539135Y1589459*
X1539160Y1589432*
X1539184Y1589403*
X1539206Y1589373*
X1539225Y1589341*
X1539243Y1589308*
X1539258Y1589274*
X1539272Y1589239*
X1539282Y1589203*
X1539291Y1589167*
X1539297Y1589130*
X1539301Y1589093*
X1539302Y1589056*
X1539301Y1589018*
X1539297Y1588981*
X1539291Y1588944*
X1539282Y1588908*
X1539272Y1588872*
X1539258Y1588837*
X1539243Y1588803*
X1539225Y1588770*
X1539206Y1588739*
X1539184Y1588708*
X1539160Y1588679*
X1539135Y1588652*
X1539107Y1588626*
X1539078Y1588603*
X1539048Y1588581*
X1539016Y1588561*
X1538983Y1588544*
X1538949Y1588528*
X1538914Y1588515*
X1538879Y1588504*
X1538842Y1588496*
X1538805Y1588490*
X1538768Y1588486*
X1538731Y1588485*
X1535995*
Y1589627*
X1538731*
X1535995Y1588485D02*
Y1589627D01*
X1536014Y1588485D02*
Y1589627D01*
X1536034Y1588485D02*
Y1589627D01*
X1536054Y1588485D02*
Y1589627D01*
X1536073Y1588485D02*
Y1589627D01*
X1536093Y1588485D02*
Y1589627D01*
X1536113Y1588485D02*
Y1589627D01*
X1536133Y1588485D02*
Y1589627D01*
X1536152Y1588485D02*
Y1589627D01*
X1536172Y1588485D02*
Y1589627D01*
X1536192Y1588485D02*
Y1589627D01*
X1536211Y1588485D02*
Y1589627D01*
X1536231Y1588485D02*
Y1589627D01*
X1536251Y1588485D02*
Y1589627D01*
X1536270Y1588485D02*
Y1589627D01*
X1536290Y1588485D02*
Y1589627D01*
X1536310Y1588485D02*
Y1589627D01*
X1536329Y1588485D02*
Y1589627D01*
X1536349Y1588485D02*
Y1589627D01*
X1536369Y1588485D02*
Y1589627D01*
X1536388Y1588485D02*
Y1589627D01*
X1536408Y1588485D02*
Y1589627D01*
X1536428Y1588485D02*
Y1589627D01*
X1536447Y1588485D02*
Y1589627D01*
X1536467Y1588485D02*
Y1589627D01*
X1536487Y1588485D02*
Y1589627D01*
X1536507Y1588485D02*
Y1589627D01*
X1536526Y1588485D02*
Y1589627D01*
X1536546Y1588485D02*
Y1589627D01*
X1536566Y1588485D02*
Y1589627D01*
X1536585Y1588485D02*
Y1589627D01*
X1536605Y1588485D02*
Y1589627D01*
X1536625Y1588485D02*
Y1589627D01*
X1536644Y1588485D02*
Y1589627D01*
X1536664Y1588485D02*
Y1589627D01*
X1536684Y1588485D02*
Y1589627D01*
X1536703Y1588485D02*
Y1589627D01*
X1536723Y1588485D02*
Y1589627D01*
X1536743Y1588485D02*
Y1589627D01*
X1536762Y1588485D02*
Y1589627D01*
X1536782Y1588485D02*
Y1589627D01*
X1536802Y1588485D02*
Y1589627D01*
X1536822Y1588485D02*
Y1589627D01*
X1536841Y1588485D02*
Y1589627D01*
X1536861Y1588485D02*
Y1589627D01*
X1536881Y1588485D02*
Y1589627D01*
X1536900Y1588485D02*
Y1589627D01*
X1536920Y1588485D02*
Y1589627D01*
X1536940Y1588485D02*
Y1589627D01*
X1536959Y1588485D02*
Y1589627D01*
X1536979Y1588485D02*
Y1589627D01*
X1536999Y1588485D02*
Y1589627D01*
X1537018Y1588485D02*
Y1589627D01*
X1537038Y1588485D02*
Y1589627D01*
X1537058Y1588485D02*
Y1589627D01*
X1537077Y1588485D02*
Y1589627D01*
X1537097Y1588485D02*
Y1589627D01*
X1537117Y1588485D02*
Y1589627D01*
X1537136Y1588485D02*
Y1589627D01*
X1537156Y1588485D02*
Y1589627D01*
X1537176Y1588485D02*
Y1589627D01*
X1537196Y1588485D02*
Y1589627D01*
X1537215Y1588485D02*
Y1589627D01*
X1537235Y1588485D02*
Y1589627D01*
X1537255Y1588485D02*
Y1589627D01*
X1537274Y1588485D02*
Y1589627D01*
X1537294Y1588485D02*
Y1589627D01*
X1537314Y1588485D02*
Y1589627D01*
X1537333Y1588485D02*
Y1589627D01*
X1537353Y1588485D02*
Y1589627D01*
X1537373Y1588485D02*
Y1589627D01*
X1537392Y1588485D02*
Y1589627D01*
X1537412Y1588485D02*
Y1589627D01*
X1537432Y1588485D02*
Y1589627D01*
X1537451Y1588485D02*
Y1589627D01*
X1537471Y1588485D02*
Y1589627D01*
X1537491Y1588485D02*
Y1589627D01*
X1537510Y1588485D02*
Y1589627D01*
X1537530Y1588485D02*
Y1589627D01*
X1537550Y1588485D02*
Y1589627D01*
X1537570Y1588485D02*
Y1589627D01*
X1537589Y1588485D02*
Y1589627D01*
X1537609Y1588485D02*
Y1589627D01*
X1537629Y1588485D02*
Y1589627D01*
X1537648Y1588485D02*
Y1589627D01*
X1537668Y1588485D02*
Y1589627D01*
X1537688Y1588485D02*
Y1589627D01*
X1537707Y1588485D02*
Y1589627D01*
X1537727Y1588485D02*
Y1589627D01*
X1537747Y1588485D02*
Y1589627D01*
X1537766Y1588485D02*
Y1589627D01*
X1537786Y1588485D02*
Y1589627D01*
X1537806Y1588485D02*
Y1589627D01*
X1537825Y1588485D02*
Y1589627D01*
X1537845Y1588485D02*
Y1589627D01*
X1537865Y1588485D02*
Y1589627D01*
X1537885Y1588485D02*
Y1589627D01*
X1537904Y1588485D02*
Y1589627D01*
X1537924Y1588485D02*
Y1589627D01*
X1537944Y1588485D02*
Y1589627D01*
X1537963Y1588485D02*
Y1589627D01*
X1537983Y1588485D02*
Y1589627D01*
X1538003Y1588485D02*
Y1589627D01*
X1538022Y1588485D02*
Y1589627D01*
X1538042Y1588485D02*
Y1589627D01*
X1538062Y1588485D02*
Y1589627D01*
X1538081Y1588485D02*
Y1589627D01*
X1538101Y1588485D02*
Y1589627D01*
X1538121Y1588485D02*
Y1589627D01*
X1538140Y1588485D02*
Y1589627D01*
X1538160Y1588485D02*
Y1589627D01*
X1538180Y1588485D02*
Y1589627D01*
X1538199Y1588485D02*
Y1589627D01*
X1538219Y1588485D02*
Y1589627D01*
X1538239Y1588485D02*
Y1589627D01*
X1538259Y1588485D02*
Y1589627D01*
X1538278Y1588485D02*
Y1589627D01*
X1538298Y1588485D02*
Y1589627D01*
X1538318Y1588485D02*
Y1589627D01*
X1538337Y1588485D02*
Y1589627D01*
X1538357Y1588485D02*
Y1589627D01*
X1538377Y1588485D02*
Y1589627D01*
X1538396Y1588485D02*
Y1589627D01*
X1538416Y1588485D02*
Y1589627D01*
X1538436Y1588485D02*
Y1589627D01*
X1538455Y1588485D02*
Y1589627D01*
X1538475Y1588485D02*
Y1589627D01*
X1538495Y1588485D02*
Y1589627D01*
X1538514Y1588485D02*
Y1589627D01*
X1538534Y1588485D02*
Y1589627D01*
X1538554Y1588485D02*
Y1589627D01*
X1538573Y1588485D02*
Y1589627D01*
X1538593Y1588485D02*
Y1589627D01*
X1538613Y1588485D02*
Y1589627D01*
X1538633Y1588485D02*
Y1589627D01*
X1538652Y1588485D02*
Y1589627D01*
X1538672Y1588485D02*
Y1589627D01*
X1538692Y1588485D02*
Y1589627D01*
X1538711Y1588485D02*
Y1589627D01*
X1538731Y1588485D02*
Y1589627D01*
X1538751Y1588485D02*
Y1589626D01*
X1538770Y1588486D02*
Y1589625D01*
X1538790Y1588488D02*
Y1589623D01*
X1538810Y1588490D02*
Y1589621D01*
X1538829Y1588494D02*
Y1589618D01*
X1538849Y1588497D02*
Y1589614D01*
X1538869Y1588502D02*
Y1589609D01*
X1538888Y1588507D02*
Y1589604D01*
X1538908Y1588513D02*
Y1589598D01*
X1538928Y1588520D02*
Y1589591D01*
X1538947Y1588528D02*
Y1589584D01*
X1538967Y1588536D02*
Y1589575D01*
X1538987Y1588546D02*
Y1589566D01*
X1539007Y1588556D02*
Y1589555D01*
X1539026Y1588567D02*
Y1589544D01*
X1539046Y1588580D02*
Y1589532D01*
X1539066Y1588594D02*
Y1589518D01*
X1539085Y1588608D02*
Y1589503D01*
X1539105Y1588625D02*
Y1589487D01*
X1539125Y1588643D02*
Y1589469D01*
X1539144Y1588662D02*
Y1589449D01*
X1539164Y1588684D02*
Y1589427D01*
X1539184Y1588708D02*
Y1589403D01*
X1539203Y1588735D02*
Y1589376D01*
X1539223Y1588767D02*
Y1589345D01*
X1539243Y1588803D02*
Y1589309D01*
X1539262Y1588848D02*
Y1589263D01*
X1539282Y1588907D02*
Y1589204D01*
X1538731Y1591595D02*
X1538768Y1591594D01*
X1538805Y1591590*
X1538842Y1591584*
X1538879Y1591576*
X1538914Y1591565*
X1538949Y1591552*
X1538983Y1591536*
X1539016Y1591519*
X1539048Y1591499*
X1539078Y1591477*
X1539107Y1591453*
X1539135Y1591428*
X1539160Y1591401*
X1539184Y1591372*
X1539206Y1591341*
X1539225Y1591310*
X1539243Y1591277*
X1539258Y1591243*
X1539272Y1591208*
X1539282Y1591172*
X1539291Y1591136*
X1539297Y1591099*
X1539301Y1591062*
X1539302Y1591024*
X1539301Y1590987*
X1539297Y1590950*
X1539291Y1590913*
X1539282Y1590876*
X1539272Y1590841*
X1539258Y1590806*
X1539243Y1590772*
X1539225Y1590739*
X1539206Y1590707*
X1539184Y1590677*
X1539160Y1590648*
X1539135Y1590621*
X1539107Y1590595*
X1539078Y1590571*
X1539048Y1590550*
X1539016Y1590530*
X1538983Y1590512*
X1538949Y1590497*
X1538914Y1590484*
X1538879Y1590473*
X1538842Y1590464*
X1538805Y1590458*
X1538768Y1590455*
X1538731Y1590453*
X1535995*
Y1591595*
X1538731*
X1535995Y1590453D02*
Y1591595D01*
X1536014Y1590453D02*
Y1591595D01*
X1536034Y1590453D02*
Y1591595D01*
X1536054Y1590453D02*
Y1591595D01*
X1536073Y1590453D02*
Y1591595D01*
X1536093Y1590453D02*
Y1591595D01*
X1536113Y1590453D02*
Y1591595D01*
X1536133Y1590453D02*
Y1591595D01*
X1536152Y1590453D02*
Y1591595D01*
X1536172Y1590453D02*
Y1591595D01*
X1536192Y1590453D02*
Y1591595D01*
X1536211Y1590453D02*
Y1591595D01*
X1536231Y1590453D02*
Y1591595D01*
X1536251Y1590453D02*
Y1591595D01*
X1536270Y1590453D02*
Y1591595D01*
X1536290Y1590453D02*
Y1591595D01*
X1536310Y1590453D02*
Y1591595D01*
X1536329Y1590453D02*
Y1591595D01*
X1536349Y1590453D02*
Y1591595D01*
X1536369Y1590453D02*
Y1591595D01*
X1536388Y1590453D02*
Y1591595D01*
X1536408Y1590453D02*
Y1591595D01*
X1536428Y1590453D02*
Y1591595D01*
X1536447Y1590453D02*
Y1591595D01*
X1536467Y1590453D02*
Y1591595D01*
X1536487Y1590453D02*
Y1591595D01*
X1536507Y1590453D02*
Y1591595D01*
X1536526Y1590453D02*
Y1591595D01*
X1536546Y1590453D02*
Y1591595D01*
X1536566Y1590453D02*
Y1591595D01*
X1536585Y1590453D02*
Y1591595D01*
X1536605Y1590453D02*
Y1591595D01*
X1536625Y1590453D02*
Y1591595D01*
X1536644Y1590453D02*
Y1591595D01*
X1536664Y1590453D02*
Y1591595D01*
X1536684Y1590453D02*
Y1591595D01*
X1536703Y1590453D02*
Y1591595D01*
X1536723Y1590453D02*
Y1591595D01*
X1536743Y1590453D02*
Y1591595D01*
X1536762Y1590453D02*
Y1591595D01*
X1536782Y1590453D02*
Y1591595D01*
X1536802Y1590453D02*
Y1591595D01*
X1536822Y1590453D02*
Y1591595D01*
X1536841Y1590453D02*
Y1591595D01*
X1536861Y1590453D02*
Y1591595D01*
X1536881Y1590453D02*
Y1591595D01*
X1536900Y1590453D02*
Y1591595D01*
X1536920Y1590453D02*
Y1591595D01*
X1536940Y1590453D02*
Y1591595D01*
X1536959Y1590453D02*
Y1591595D01*
X1536979Y1590453D02*
Y1591595D01*
X1536999Y1590453D02*
Y1591595D01*
X1537018Y1590453D02*
Y1591595D01*
X1537038Y1590453D02*
Y1591595D01*
X1537058Y1590453D02*
Y1591595D01*
X1537077Y1590453D02*
Y1591595D01*
X1537097Y1590453D02*
Y1591595D01*
X1537117Y1590453D02*
Y1591595D01*
X1537136Y1590453D02*
Y1591595D01*
X1537156Y1590453D02*
Y1591595D01*
X1537176Y1590453D02*
Y1591595D01*
X1537196Y1590453D02*
Y1591595D01*
X1537215Y1590453D02*
Y1591595D01*
X1537235Y1590453D02*
Y1591595D01*
X1537255Y1590453D02*
Y1591595D01*
X1537274Y1590453D02*
Y1591595D01*
X1537294Y1590453D02*
Y1591595D01*
X1537314Y1590453D02*
Y1591595D01*
X1537333Y1590453D02*
Y1591595D01*
X1537353Y1590453D02*
Y1591595D01*
X1537373Y1590453D02*
Y1591595D01*
X1537392Y1590453D02*
Y1591595D01*
X1537412Y1590453D02*
Y1591595D01*
X1537432Y1590453D02*
Y1591595D01*
X1537451Y1590453D02*
Y1591595D01*
X1537471Y1590453D02*
Y1591595D01*
X1537491Y1590453D02*
Y1591595D01*
X1537510Y1590453D02*
Y1591595D01*
X1537530Y1590453D02*
Y1591595D01*
X1537550Y1590453D02*
Y1591595D01*
X1537570Y1590453D02*
Y1591595D01*
X1537589Y1590453D02*
Y1591595D01*
X1537609Y1590453D02*
Y1591595D01*
X1537629Y1590453D02*
Y1591595D01*
X1537648Y1590453D02*
Y1591595D01*
X1537668Y1590453D02*
Y1591595D01*
X1537688Y1590453D02*
Y1591595D01*
X1537707Y1590453D02*
Y1591595D01*
X1537727Y1590453D02*
Y1591595D01*
X1537747Y1590453D02*
Y1591595D01*
X1537766Y1590453D02*
Y1591595D01*
X1537786Y1590453D02*
Y1591595D01*
X1537806Y1590453D02*
Y1591595D01*
X1537825Y1590453D02*
Y1591595D01*
X1537845Y1590453D02*
Y1591595D01*
X1537865Y1590453D02*
Y1591595D01*
X1537885Y1590453D02*
Y1591595D01*
X1537904Y1590453D02*
Y1591595D01*
X1537924Y1590453D02*
Y1591595D01*
X1537944Y1590453D02*
Y1591595D01*
X1537963Y1590453D02*
Y1591595D01*
X1537983Y1590453D02*
Y1591595D01*
X1538003Y1590453D02*
Y1591595D01*
X1538022Y1590453D02*
Y1591595D01*
X1538042Y1590453D02*
Y1591595D01*
X1538062Y1590453D02*
Y1591595D01*
X1538081Y1590453D02*
Y1591595D01*
X1538101Y1590453D02*
Y1591595D01*
X1538121Y1590453D02*
Y1591595D01*
X1538140Y1590453D02*
Y1591595D01*
X1538160Y1590453D02*
Y1591595D01*
X1538180Y1590453D02*
Y1591595D01*
X1538199Y1590453D02*
Y1591595D01*
X1538219Y1590453D02*
Y1591595D01*
X1538239Y1590453D02*
Y1591595D01*
X1538259Y1590453D02*
Y1591595D01*
X1538278Y1590453D02*
Y1591595D01*
X1538298Y1590453D02*
Y1591595D01*
X1538318Y1590453D02*
Y1591595D01*
X1538337Y1590453D02*
Y1591595D01*
X1538357Y1590453D02*
Y1591595D01*
X1538377Y1590453D02*
Y1591595D01*
X1538396Y1590453D02*
Y1591595D01*
X1538416Y1590453D02*
Y1591595D01*
X1538436Y1590453D02*
Y1591595D01*
X1538455Y1590453D02*
Y1591595D01*
X1538475Y1590453D02*
Y1591595D01*
X1538495Y1590453D02*
Y1591595D01*
X1538514Y1590453D02*
Y1591595D01*
X1538534Y1590453D02*
Y1591595D01*
X1538554Y1590453D02*
Y1591595D01*
X1538573Y1590453D02*
Y1591595D01*
X1538593Y1590453D02*
Y1591595D01*
X1538613Y1590453D02*
Y1591595D01*
X1538633Y1590453D02*
Y1591595D01*
X1538652Y1590453D02*
Y1591595D01*
X1538672Y1590453D02*
Y1591595D01*
X1538692Y1590453D02*
Y1591595D01*
X1538711Y1590453D02*
Y1591595D01*
X1538731Y1590453D02*
Y1591595D01*
X1538751Y1590454D02*
Y1591594D01*
X1538770Y1590455D02*
Y1591594D01*
X1538790Y1590457D02*
Y1591592D01*
X1538810Y1590459D02*
Y1591589D01*
X1538829Y1590462D02*
Y1591586D01*
X1538849Y1590466D02*
Y1591583D01*
X1538869Y1590470D02*
Y1591578D01*
X1538888Y1590476D02*
Y1591573D01*
X1538908Y1590482D02*
Y1591567D01*
X1538928Y1590489D02*
Y1591560D01*
X1538947Y1590496D02*
Y1591552D01*
X1538967Y1590505D02*
Y1591544D01*
X1538987Y1590514D02*
Y1591534D01*
X1539007Y1590525D02*
Y1591524D01*
X1539026Y1590536D02*
Y1591512D01*
X1539046Y1590548D02*
Y1591500D01*
X1539066Y1590562D02*
Y1591486D01*
X1539085Y1590577D02*
Y1591471D01*
X1539105Y1590593D02*
Y1591455D01*
X1539125Y1590611D02*
Y1591437D01*
X1539144Y1590631D02*
Y1591417D01*
X1539164Y1590652D02*
Y1591396D01*
X1539184Y1590676D02*
Y1591372D01*
X1539203Y1590704D02*
Y1591344D01*
X1539223Y1590735D02*
Y1591313D01*
X1539243Y1590771D02*
Y1591277D01*
X1539262Y1590817D02*
Y1591232D01*
X1539282Y1590876D02*
Y1591173D01*
X1538731Y1593564D02*
X1538768Y1593562D01*
X1538805Y1593559*
X1538842Y1593553*
X1538879Y1593544*
X1538914Y1593533*
X1538949Y1593520*
X1538983Y1593505*
X1539016Y1593487*
X1539048Y1593467*
X1539078Y1593446*
X1539107Y1593422*
X1539135Y1593396*
X1539160Y1593369*
X1539184Y1593340*
X1539206Y1593310*
X1539225Y1593278*
X1539243Y1593245*
X1539258Y1593211*
X1539272Y1593176*
X1539282Y1593140*
X1539291Y1593104*
X1539297Y1593067*
X1539301Y1593030*
X1539302Y1592993*
X1539301Y1592955*
X1539297Y1592918*
X1539291Y1592881*
X1539282Y1592845*
X1539272Y1592809*
X1539258Y1592774*
X1539243Y1592740*
X1539225Y1592707*
X1539206Y1592676*
X1539184Y1592645*
X1539160Y1592616*
X1539135Y1592589*
X1539107Y1592563*
X1539078Y1592540*
X1539048Y1592518*
X1539016Y1592498*
X1538983Y1592481*
X1538949Y1592465*
X1538914Y1592452*
X1538879Y1592441*
X1538842Y1592433*
X1538805Y1592427*
X1538768Y1592423*
X1538731Y1592422*
X1535995*
Y1593564*
X1538731*
X1535995Y1592422D02*
Y1593564D01*
X1536014Y1592422D02*
Y1593564D01*
X1536034Y1592422D02*
Y1593564D01*
X1536054Y1592422D02*
Y1593564D01*
X1536073Y1592422D02*
Y1593564D01*
X1536093Y1592422D02*
Y1593564D01*
X1536113Y1592422D02*
Y1593564D01*
X1536133Y1592422D02*
Y1593564D01*
X1536152Y1592422D02*
Y1593564D01*
X1536172Y1592422D02*
Y1593564D01*
X1536192Y1592422D02*
Y1593564D01*
X1536211Y1592422D02*
Y1593564D01*
X1536231Y1592422D02*
Y1593564D01*
X1536251Y1592422D02*
Y1593564D01*
X1536270Y1592422D02*
Y1593564D01*
X1536290Y1592422D02*
Y1593564D01*
X1536310Y1592422D02*
Y1593564D01*
X1536329Y1592422D02*
Y1593564D01*
X1536349Y1592422D02*
Y1593564D01*
X1536369Y1592422D02*
Y1593564D01*
X1536388Y1592422D02*
Y1593564D01*
X1536408Y1592422D02*
Y1593564D01*
X1536428Y1592422D02*
Y1593564D01*
X1536447Y1592422D02*
Y1593564D01*
X1536467Y1592422D02*
Y1593564D01*
X1536487Y1592422D02*
Y1593564D01*
X1536507Y1592422D02*
Y1593564D01*
X1536526Y1592422D02*
Y1593564D01*
X1536546Y1592422D02*
Y1593564D01*
X1536566Y1592422D02*
Y1593564D01*
X1536585Y1592422D02*
Y1593564D01*
X1536605Y1592422D02*
Y1593564D01*
X1536625Y1592422D02*
Y1593564D01*
X1536644Y1592422D02*
Y1593564D01*
X1536664Y1592422D02*
Y1593564D01*
X1536684Y1592422D02*
Y1593564D01*
X1536703Y1592422D02*
Y1593564D01*
X1536723Y1592422D02*
Y1593564D01*
X1536743Y1592422D02*
Y1593564D01*
X1536762Y1592422D02*
Y1593564D01*
X1536782Y1592422D02*
Y1593564D01*
X1536802Y1592422D02*
Y1593564D01*
X1536822Y1592422D02*
Y1593564D01*
X1536841Y1592422D02*
Y1593564D01*
X1536861Y1592422D02*
Y1593564D01*
X1536881Y1592422D02*
Y1593564D01*
X1536900Y1592422D02*
Y1593564D01*
X1536920Y1592422D02*
Y1593564D01*
X1536940Y1592422D02*
Y1593564D01*
X1536959Y1592422D02*
Y1593564D01*
X1536979Y1592422D02*
Y1593564D01*
X1536999Y1592422D02*
Y1593564D01*
X1537018Y1592422D02*
Y1593564D01*
X1537038Y1592422D02*
Y1593564D01*
X1537058Y1592422D02*
Y1593564D01*
X1537077Y1592422D02*
Y1593564D01*
X1537097Y1592422D02*
Y1593564D01*
X1537117Y1592422D02*
Y1593564D01*
X1537136Y1592422D02*
Y1593564D01*
X1537156Y1592422D02*
Y1593564D01*
X1537176Y1592422D02*
Y1593564D01*
X1537196Y1592422D02*
Y1593564D01*
X1537215Y1592422D02*
Y1593564D01*
X1537235Y1592422D02*
Y1593564D01*
X1537255Y1592422D02*
Y1593564D01*
X1537274Y1592422D02*
Y1593564D01*
X1537294Y1592422D02*
Y1593564D01*
X1537314Y1592422D02*
Y1593564D01*
X1537333Y1592422D02*
Y1593564D01*
X1537353Y1592422D02*
Y1593564D01*
X1537373Y1592422D02*
Y1593564D01*
X1537392Y1592422D02*
Y1593564D01*
X1537412Y1592422D02*
Y1593564D01*
X1537432Y1592422D02*
Y1593564D01*
X1537451Y1592422D02*
Y1593564D01*
X1537471Y1592422D02*
Y1593564D01*
X1537491Y1592422D02*
Y1593564D01*
X1537510Y1592422D02*
Y1593564D01*
X1537530Y1592422D02*
Y1593564D01*
X1537550Y1592422D02*
Y1593564D01*
X1537570Y1592422D02*
Y1593564D01*
X1537589Y1592422D02*
Y1593564D01*
X1537609Y1592422D02*
Y1593564D01*
X1537629Y1592422D02*
Y1593564D01*
X1537648Y1592422D02*
Y1593564D01*
X1537668Y1592422D02*
Y1593564D01*
X1537688Y1592422D02*
Y1593564D01*
X1537707Y1592422D02*
Y1593564D01*
X1537727Y1592422D02*
Y1593564D01*
X1537747Y1592422D02*
Y1593564D01*
X1537766Y1592422D02*
Y1593564D01*
X1537786Y1592422D02*
Y1593564D01*
X1537806Y1592422D02*
Y1593564D01*
X1537825Y1592422D02*
Y1593564D01*
X1537845Y1592422D02*
Y1593564D01*
X1537865Y1592422D02*
Y1593564D01*
X1537885Y1592422D02*
Y1593564D01*
X1537904Y1592422D02*
Y1593564D01*
X1537924Y1592422D02*
Y1593564D01*
X1537944Y1592422D02*
Y1593564D01*
X1537963Y1592422D02*
Y1593564D01*
X1537983Y1592422D02*
Y1593564D01*
X1538003Y1592422D02*
Y1593564D01*
X1538022Y1592422D02*
Y1593564D01*
X1538042Y1592422D02*
Y1593564D01*
X1538062Y1592422D02*
Y1593564D01*
X1538081Y1592422D02*
Y1593564D01*
X1538101Y1592422D02*
Y1593564D01*
X1538121Y1592422D02*
Y1593564D01*
X1538140Y1592422D02*
Y1593564D01*
X1538160Y1592422D02*
Y1593564D01*
X1538180Y1592422D02*
Y1593564D01*
X1538199Y1592422D02*
Y1593564D01*
X1538219Y1592422D02*
Y1593564D01*
X1538239Y1592422D02*
Y1593564D01*
X1538259Y1592422D02*
Y1593564D01*
X1538278Y1592422D02*
Y1593564D01*
X1538298Y1592422D02*
Y1593564D01*
X1538318Y1592422D02*
Y1593564D01*
X1538337Y1592422D02*
Y1593564D01*
X1538357Y1592422D02*
Y1593564D01*
X1538377Y1592422D02*
Y1593564D01*
X1538396Y1592422D02*
Y1593564D01*
X1538416Y1592422D02*
Y1593564D01*
X1538436Y1592422D02*
Y1593564D01*
X1538455Y1592422D02*
Y1593564D01*
X1538475Y1592422D02*
Y1593564D01*
X1538495Y1592422D02*
Y1593564D01*
X1538514Y1592422D02*
Y1593564D01*
X1538534Y1592422D02*
Y1593564D01*
X1538554Y1592422D02*
Y1593564D01*
X1538573Y1592422D02*
Y1593564D01*
X1538593Y1592422D02*
Y1593564D01*
X1538613Y1592422D02*
Y1593564D01*
X1538633Y1592422D02*
Y1593564D01*
X1538652Y1592422D02*
Y1593564D01*
X1538672Y1592422D02*
Y1593564D01*
X1538692Y1592422D02*
Y1593564D01*
X1538711Y1592422D02*
Y1593564D01*
X1538731Y1592422D02*
Y1593564D01*
X1538751Y1592422D02*
Y1593563D01*
X1538770Y1592423D02*
Y1593562D01*
X1538790Y1592425D02*
Y1593560D01*
X1538810Y1592427D02*
Y1593558D01*
X1538829Y1592431D02*
Y1593555D01*
X1538849Y1592434D02*
Y1593551D01*
X1538869Y1592439D02*
Y1593546D01*
X1538888Y1592444D02*
Y1593541D01*
X1538908Y1592450D02*
Y1593535D01*
X1538928Y1592457D02*
Y1593528D01*
X1538947Y1592465D02*
Y1593521D01*
X1538967Y1592473D02*
Y1593512D01*
X1538987Y1592483D02*
Y1593503D01*
X1539007Y1592493D02*
Y1593492D01*
X1539026Y1592504D02*
Y1593481D01*
X1539046Y1592517D02*
Y1593469D01*
X1539066Y1592531D02*
Y1593455D01*
X1539085Y1592545D02*
Y1593440D01*
X1539105Y1592562D02*
Y1593424D01*
X1539125Y1592580D02*
Y1593406D01*
X1539144Y1592599D02*
Y1593386D01*
X1539164Y1592621D02*
Y1593364D01*
X1539184Y1592645D02*
Y1593340D01*
X1539203Y1592672D02*
Y1593313D01*
X1539223Y1592704D02*
Y1593282D01*
X1539243Y1592740D02*
Y1593246D01*
X1539262Y1592785D02*
Y1593200D01*
X1539282Y1592844D02*
Y1593141D01*
X1538731Y1595532D02*
X1538768Y1595531D01*
X1538805Y1595527*
X1538842Y1595521*
X1538879Y1595513*
X1538914Y1595502*
X1538949Y1595489*
X1538983Y1595473*
X1539016Y1595456*
X1539048Y1595436*
X1539078Y1595414*
X1539107Y1595390*
X1539135Y1595365*
X1539160Y1595338*
X1539184Y1595309*
X1539206Y1595278*
X1539225Y1595247*
X1539243Y1595214*
X1539258Y1595180*
X1539272Y1595145*
X1539282Y1595109*
X1539291Y1595073*
X1539297Y1595036*
X1539301Y1594999*
X1539302Y1594961*
X1539301Y1594924*
X1539297Y1594887*
X1539291Y1594850*
X1539282Y1594813*
X1539272Y1594778*
X1539258Y1594743*
X1539243Y1594709*
X1539225Y1594676*
X1539206Y1594644*
X1539184Y1594614*
X1539160Y1594585*
X1539135Y1594558*
X1539107Y1594532*
X1539078Y1594508*
X1539048Y1594487*
X1539016Y1594467*
X1538983Y1594449*
X1538949Y1594434*
X1538914Y1594421*
X1538879Y1594410*
X1538842Y1594401*
X1538805Y1594395*
X1538768Y1594392*
X1538731Y1594390*
X1535995*
Y1595532*
X1538731*
X1535995Y1594390D02*
Y1595532D01*
X1536014Y1594390D02*
Y1595532D01*
X1536034Y1594390D02*
Y1595532D01*
X1536054Y1594390D02*
Y1595532D01*
X1536073Y1594390D02*
Y1595532D01*
X1536093Y1594390D02*
Y1595532D01*
X1536113Y1594390D02*
Y1595532D01*
X1536133Y1594390D02*
Y1595532D01*
X1536152Y1594390D02*
Y1595532D01*
X1536172Y1594390D02*
Y1595532D01*
X1536192Y1594390D02*
Y1595532D01*
X1536211Y1594390D02*
Y1595532D01*
X1536231Y1594390D02*
Y1595532D01*
X1536251Y1594390D02*
Y1595532D01*
X1536270Y1594390D02*
Y1595532D01*
X1536290Y1594390D02*
Y1595532D01*
X1536310Y1594390D02*
Y1595532D01*
X1536329Y1594390D02*
Y1595532D01*
X1536349Y1594390D02*
Y1595532D01*
X1536369Y1594390D02*
Y1595532D01*
X1536388Y1594390D02*
Y1595532D01*
X1536408Y1594390D02*
Y1595532D01*
X1536428Y1594390D02*
Y1595532D01*
X1536447Y1594390D02*
Y1595532D01*
X1536467Y1594390D02*
Y1595532D01*
X1536487Y1594390D02*
Y1595532D01*
X1536507Y1594390D02*
Y1595532D01*
X1536526Y1594390D02*
Y1595532D01*
X1536546Y1594390D02*
Y1595532D01*
X1536566Y1594390D02*
Y1595532D01*
X1536585Y1594390D02*
Y1595532D01*
X1536605Y1594390D02*
Y1595532D01*
X1536625Y1594390D02*
Y1595532D01*
X1536644Y1594390D02*
Y1595532D01*
X1536664Y1594390D02*
Y1595532D01*
X1536684Y1594390D02*
Y1595532D01*
X1536703Y1594390D02*
Y1595532D01*
X1536723Y1594390D02*
Y1595532D01*
X1536743Y1594390D02*
Y1595532D01*
X1536762Y1594390D02*
Y1595532D01*
X1536782Y1594390D02*
Y1595532D01*
X1536802Y1594390D02*
Y1595532D01*
X1536822Y1594390D02*
Y1595532D01*
X1536841Y1594390D02*
Y1595532D01*
X1536861Y1594390D02*
Y1595532D01*
X1536881Y1594390D02*
Y1595532D01*
X1536900Y1594390D02*
Y1595532D01*
X1536920Y1594390D02*
Y1595532D01*
X1536940Y1594390D02*
Y1595532D01*
X1536959Y1594390D02*
Y1595532D01*
X1536979Y1594390D02*
Y1595532D01*
X1536999Y1594390D02*
Y1595532D01*
X1537018Y1594390D02*
Y1595532D01*
X1537038Y1594390D02*
Y1595532D01*
X1537058Y1594390D02*
Y1595532D01*
X1537077Y1594390D02*
Y1595532D01*
X1537097Y1594390D02*
Y1595532D01*
X1537117Y1594390D02*
Y1595532D01*
X1537136Y1594390D02*
Y1595532D01*
X1537156Y1594390D02*
Y1595532D01*
X1537176Y1594390D02*
Y1595532D01*
X1537196Y1594390D02*
Y1595532D01*
X1537215Y1594390D02*
Y1595532D01*
X1537235Y1594390D02*
Y1595532D01*
X1537255Y1594390D02*
Y1595532D01*
X1537274Y1594390D02*
Y1595532D01*
X1537294Y1594390D02*
Y1595532D01*
X1537314Y1594390D02*
Y1595532D01*
X1537333Y1594390D02*
Y1595532D01*
X1537353Y1594390D02*
Y1595532D01*
X1537373Y1594390D02*
Y1595532D01*
X1537392Y1594390D02*
Y1595532D01*
X1537412Y1594390D02*
Y1595532D01*
X1537432Y1594390D02*
Y1595532D01*
X1537451Y1594390D02*
Y1595532D01*
X1537471Y1594390D02*
Y1595532D01*
X1537491Y1594390D02*
Y1595532D01*
X1537510Y1594390D02*
Y1595532D01*
X1537530Y1594390D02*
Y1595532D01*
X1537550Y1594390D02*
Y1595532D01*
X1537570Y1594390D02*
Y1595532D01*
X1537589Y1594390D02*
Y1595532D01*
X1537609Y1594390D02*
Y1595532D01*
X1537629Y1594390D02*
Y1595532D01*
X1537648Y1594390D02*
Y1595532D01*
X1537668Y1594390D02*
Y1595532D01*
X1537688Y1594390D02*
Y1595532D01*
X1537707Y1594390D02*
Y1595532D01*
X1537727Y1594390D02*
Y1595532D01*
X1537747Y1594390D02*
Y1595532D01*
X1537766Y1594390D02*
Y1595532D01*
X1537786Y1594390D02*
Y1595532D01*
X1537806Y1594390D02*
Y1595532D01*
X1537825Y1594390D02*
Y1595532D01*
X1537845Y1594390D02*
Y1595532D01*
X1537865Y1594390D02*
Y1595532D01*
X1537885Y1594390D02*
Y1595532D01*
X1537904Y1594390D02*
Y1595532D01*
X1537924Y1594390D02*
Y1595532D01*
X1537944Y1594390D02*
Y1595532D01*
X1537963Y1594390D02*
Y1595532D01*
X1537983Y1594390D02*
Y1595532D01*
X1538003Y1594390D02*
Y1595532D01*
X1538022Y1594390D02*
Y1595532D01*
X1538042Y1594390D02*
Y1595532D01*
X1538062Y1594390D02*
Y1595532D01*
X1538081Y1594390D02*
Y1595532D01*
X1538101Y1594390D02*
Y1595532D01*
X1538121Y1594390D02*
Y1595532D01*
X1538140Y1594390D02*
Y1595532D01*
X1538160Y1594390D02*
Y1595532D01*
X1538180Y1594390D02*
Y1595532D01*
X1538199Y1594390D02*
Y1595532D01*
X1538219Y1594390D02*
Y1595532D01*
X1538239Y1594390D02*
Y1595532D01*
X1538259Y1594390D02*
Y1595532D01*
X1538278Y1594390D02*
Y1595532D01*
X1538298Y1594390D02*
Y1595532D01*
X1538318Y1594390D02*
Y1595532D01*
X1538337Y1594390D02*
Y1595532D01*
X1538357Y1594390D02*
Y1595532D01*
X1538377Y1594390D02*
Y1595532D01*
X1538396Y1594390D02*
Y1595532D01*
X1538416Y1594390D02*
Y1595532D01*
X1538436Y1594390D02*
Y1595532D01*
X1538455Y1594390D02*
Y1595532D01*
X1538475Y1594390D02*
Y1595532D01*
X1538495Y1594390D02*
Y1595532D01*
X1538514Y1594390D02*
Y1595532D01*
X1538534Y1594390D02*
Y1595532D01*
X1538554Y1594390D02*
Y1595532D01*
X1538573Y1594390D02*
Y1595532D01*
X1538593Y1594390D02*
Y1595532D01*
X1538613Y1594390D02*
Y1595532D01*
X1538633Y1594390D02*
Y1595532D01*
X1538652Y1594390D02*
Y1595532D01*
X1538672Y1594390D02*
Y1595532D01*
X1538692Y1594390D02*
Y1595532D01*
X1538711Y1594390D02*
Y1595532D01*
X1538731Y1594390D02*
Y1595532D01*
X1538751Y1594391D02*
Y1595531D01*
X1538770Y1594392D02*
Y1595531D01*
X1538790Y1594394D02*
Y1595529D01*
X1538810Y1594396D02*
Y1595526D01*
X1538829Y1594399D02*
Y1595523D01*
X1538849Y1594403D02*
Y1595520D01*
X1538869Y1594407D02*
Y1595515D01*
X1538888Y1594413D02*
Y1595510D01*
X1538908Y1594419D02*
Y1595504D01*
X1538928Y1594426D02*
Y1595497D01*
X1538947Y1594433D02*
Y1595489D01*
X1538967Y1594442D02*
Y1595481D01*
X1538987Y1594451D02*
Y1595471D01*
X1539007Y1594462D02*
Y1595461D01*
X1539026Y1594473D02*
Y1595449D01*
X1539046Y1594485D02*
Y1595437D01*
X1539066Y1594499D02*
Y1595423D01*
X1539085Y1594514D02*
Y1595408D01*
X1539105Y1594530D02*
Y1595392D01*
X1539125Y1594548D02*
Y1595374D01*
X1539144Y1594568D02*
Y1595354D01*
X1539164Y1594590D02*
Y1595333D01*
X1539184Y1594613D02*
Y1595309D01*
X1539203Y1594641D02*
Y1595281D01*
X1539223Y1594672D02*
Y1595250D01*
X1539243Y1594708D02*
Y1595214D01*
X1539262Y1594754D02*
Y1595169D01*
X1539282Y1594813D02*
Y1595110D01*
X1538731Y1597501D02*
X1538768Y1597499D01*
X1538805Y1597496*
X1538842Y1597490*
X1538879Y1597481*
X1538914Y1597470*
X1538949Y1597457*
X1538983Y1597442*
X1539016Y1597424*
X1539048Y1597404*
X1539078Y1597383*
X1539107Y1597359*
X1539135Y1597333*
X1539160Y1597306*
X1539184Y1597277*
X1539206Y1597247*
X1539225Y1597215*
X1539243Y1597182*
X1539258Y1597148*
X1539272Y1597113*
X1539282Y1597077*
X1539291Y1597041*
X1539297Y1597004*
X1539301Y1596967*
X1539302Y1596930*
X1539301Y1596892*
X1539297Y1596855*
X1539291Y1596818*
X1539282Y1596782*
X1539272Y1596746*
X1539258Y1596711*
X1539243Y1596677*
X1539225Y1596644*
X1539206Y1596613*
X1539184Y1596582*
X1539160Y1596553*
X1539135Y1596526*
X1539107Y1596500*
X1539078Y1596477*
X1539048Y1596455*
X1539016Y1596435*
X1538983Y1596418*
X1538949Y1596402*
X1538914Y1596389*
X1538879Y1596378*
X1538842Y1596370*
X1538805Y1596364*
X1538768Y1596360*
X1538731Y1596359*
X1535995*
Y1597501*
X1538731*
X1535995Y1596359D02*
Y1597501D01*
X1536014Y1596359D02*
Y1597501D01*
X1536034Y1596359D02*
Y1597501D01*
X1536054Y1596359D02*
Y1597501D01*
X1536073Y1596359D02*
Y1597501D01*
X1536093Y1596359D02*
Y1597501D01*
X1536113Y1596359D02*
Y1597501D01*
X1536133Y1596359D02*
Y1597501D01*
X1536152Y1596359D02*
Y1597501D01*
X1536172Y1596359D02*
Y1597501D01*
X1536192Y1596359D02*
Y1597501D01*
X1536211Y1596359D02*
Y1597501D01*
X1536231Y1596359D02*
Y1597501D01*
X1536251Y1596359D02*
Y1597501D01*
X1536270Y1596359D02*
Y1597501D01*
X1536290Y1596359D02*
Y1597501D01*
X1536310Y1596359D02*
Y1597501D01*
X1536329Y1596359D02*
Y1597501D01*
X1536349Y1596359D02*
Y1597501D01*
X1536369Y1596359D02*
Y1597501D01*
X1536388Y1596359D02*
Y1597501D01*
X1536408Y1596359D02*
Y1597501D01*
X1536428Y1596359D02*
Y1597501D01*
X1536447Y1596359D02*
Y1597501D01*
X1536467Y1596359D02*
Y1597501D01*
X1536487Y1596359D02*
Y1597501D01*
X1536507Y1596359D02*
Y1597501D01*
X1536526Y1596359D02*
Y1597501D01*
X1536546Y1596359D02*
Y1597501D01*
X1536566Y1596359D02*
Y1597501D01*
X1536585Y1596359D02*
Y1597501D01*
X1536605Y1596359D02*
Y1597501D01*
X1536625Y1596359D02*
Y1597501D01*
X1536644Y1596359D02*
Y1597501D01*
X1536664Y1596359D02*
Y1597501D01*
X1536684Y1596359D02*
Y1597501D01*
X1536703Y1596359D02*
Y1597501D01*
X1536723Y1596359D02*
Y1597501D01*
X1536743Y1596359D02*
Y1597501D01*
X1536762Y1596359D02*
Y1597501D01*
X1536782Y1596359D02*
Y1597501D01*
X1536802Y1596359D02*
Y1597501D01*
X1536822Y1596359D02*
Y1597501D01*
X1536841Y1596359D02*
Y1597501D01*
X1536861Y1596359D02*
Y1597501D01*
X1536881Y1596359D02*
Y1597501D01*
X1536900Y1596359D02*
Y1597501D01*
X1536920Y1596359D02*
Y1597501D01*
X1536940Y1596359D02*
Y1597501D01*
X1536959Y1596359D02*
Y1597501D01*
X1536979Y1596359D02*
Y1597501D01*
X1536999Y1596359D02*
Y1597501D01*
X1537018Y1596359D02*
Y1597501D01*
X1537038Y1596359D02*
Y1597501D01*
X1537058Y1596359D02*
Y1597501D01*
X1537077Y1596359D02*
Y1597501D01*
X1537097Y1596359D02*
Y1597501D01*
X1537117Y1596359D02*
Y1597501D01*
X1537136Y1596359D02*
Y1597501D01*
X1537156Y1596359D02*
Y1597501D01*
X1537176Y1596359D02*
Y1597501D01*
X1537196Y1596359D02*
Y1597501D01*
X1537215Y1596359D02*
Y1597501D01*
X1537235Y1596359D02*
Y1597501D01*
X1537255Y1596359D02*
Y1597501D01*
X1537274Y1596359D02*
Y1597501D01*
X1537294Y1596359D02*
Y1597501D01*
X1537314Y1596359D02*
Y1597501D01*
X1537333Y1596359D02*
Y1597501D01*
X1537353Y1596359D02*
Y1597501D01*
X1537373Y1596359D02*
Y1597501D01*
X1537392Y1596359D02*
Y1597501D01*
X1537412Y1596359D02*
Y1597501D01*
X1537432Y1596359D02*
Y1597501D01*
X1537451Y1596359D02*
Y1597501D01*
X1537471Y1596359D02*
Y1597501D01*
X1537491Y1596359D02*
Y1597501D01*
X1537510Y1596359D02*
Y1597501D01*
X1537530Y1596359D02*
Y1597501D01*
X1537550Y1596359D02*
Y1597501D01*
X1537570Y1596359D02*
Y1597501D01*
X1537589Y1596359D02*
Y1597501D01*
X1537609Y1596359D02*
Y1597501D01*
X1537629Y1596359D02*
Y1597501D01*
X1537648Y1596359D02*
Y1597501D01*
X1537668Y1596359D02*
Y1597501D01*
X1537688Y1596359D02*
Y1597501D01*
X1537707Y1596359D02*
Y1597501D01*
X1537727Y1596359D02*
Y1597501D01*
X1537747Y1596359D02*
Y1597501D01*
X1537766Y1596359D02*
Y1597501D01*
X1537786Y1596359D02*
Y1597501D01*
X1537806Y1596359D02*
Y1597501D01*
X1537825Y1596359D02*
Y1597501D01*
X1537845Y1596359D02*
Y1597501D01*
X1537865Y1596359D02*
Y1597501D01*
X1537885Y1596359D02*
Y1597501D01*
X1537904Y1596359D02*
Y1597501D01*
X1537924Y1596359D02*
Y1597501D01*
X1537944Y1596359D02*
Y1597501D01*
X1537963Y1596359D02*
Y1597501D01*
X1537983Y1596359D02*
Y1597501D01*
X1538003Y1596359D02*
Y1597501D01*
X1538022Y1596359D02*
Y1597501D01*
X1538042Y1596359D02*
Y1597501D01*
X1538062Y1596359D02*
Y1597501D01*
X1538081Y1596359D02*
Y1597501D01*
X1538101Y1596359D02*
Y1597501D01*
X1538121Y1596359D02*
Y1597501D01*
X1538140Y1596359D02*
Y1597501D01*
X1538160Y1596359D02*
Y1597501D01*
X1538180Y1596359D02*
Y1597501D01*
X1538199Y1596359D02*
Y1597501D01*
X1538219Y1596359D02*
Y1597501D01*
X1538239Y1596359D02*
Y1597501D01*
X1538259Y1596359D02*
Y1597501D01*
X1538278Y1596359D02*
Y1597501D01*
X1538298Y1596359D02*
Y1597501D01*
X1538318Y1596359D02*
Y1597501D01*
X1538337Y1596359D02*
Y1597501D01*
X1538357Y1596359D02*
Y1597501D01*
X1538377Y1596359D02*
Y1597501D01*
X1538396Y1596359D02*
Y1597501D01*
X1538416Y1596359D02*
Y1597501D01*
X1538436Y1596359D02*
Y1597501D01*
X1538455Y1596359D02*
Y1597501D01*
X1538475Y1596359D02*
Y1597501D01*
X1538495Y1596359D02*
Y1597501D01*
X1538514Y1596359D02*
Y1597501D01*
X1538534Y1596359D02*
Y1597501D01*
X1538554Y1596359D02*
Y1597501D01*
X1538573Y1596359D02*
Y1597501D01*
X1538593Y1596359D02*
Y1597501D01*
X1538613Y1596359D02*
Y1597501D01*
X1538633Y1596359D02*
Y1597501D01*
X1538652Y1596359D02*
Y1597501D01*
X1538672Y1596359D02*
Y1597501D01*
X1538692Y1596359D02*
Y1597501D01*
X1538711Y1596359D02*
Y1597501D01*
X1538731Y1596359D02*
Y1597501D01*
X1538751Y1596359D02*
Y1597500D01*
X1538770Y1596360D02*
Y1597499D01*
X1538790Y1596362D02*
Y1597497D01*
X1538810Y1596364D02*
Y1597495D01*
X1538829Y1596368D02*
Y1597492D01*
X1538849Y1596371D02*
Y1597488D01*
X1538869Y1596376D02*
Y1597483D01*
X1538888Y1596381D02*
Y1597478D01*
X1538908Y1596387D02*
Y1597472D01*
X1538928Y1596394D02*
Y1597465D01*
X1538947Y1596402D02*
Y1597458D01*
X1538967Y1596410D02*
Y1597449D01*
X1538987Y1596420D02*
Y1597440D01*
X1539007Y1596430D02*
Y1597429D01*
X1539026Y1596441D02*
Y1597418D01*
X1539046Y1596454D02*
Y1597406D01*
X1539066Y1596468D02*
Y1597392D01*
X1539085Y1596482D02*
Y1597377D01*
X1539105Y1596499D02*
Y1597361D01*
X1539125Y1596517D02*
Y1597343D01*
X1539144Y1596536D02*
Y1597323D01*
X1539164Y1596558D02*
Y1597301D01*
X1539184Y1596582D02*
Y1597277D01*
X1539203Y1596609D02*
Y1597250D01*
X1539223Y1596641D02*
Y1597219D01*
X1539243Y1596677D02*
Y1597183D01*
X1539262Y1596722D02*
Y1597137D01*
X1539282Y1596781D02*
Y1597078D01*
X1538731Y1599469D02*
X1538768Y1599468D01*
X1538805Y1599464*
X1538842Y1599458*
X1538879Y1599450*
X1538914Y1599439*
X1538949Y1599426*
X1538983Y1599410*
X1539016Y1599393*
X1539048Y1599373*
X1539078Y1599351*
X1539107Y1599327*
X1539135Y1599302*
X1539160Y1599275*
X1539184Y1599246*
X1539206Y1599215*
X1539225Y1599184*
X1539243Y1599151*
X1539258Y1599117*
X1539272Y1599082*
X1539282Y1599046*
X1539291Y1599010*
X1539297Y1598973*
X1539301Y1598936*
X1539302Y1598898*
X1539301Y1598861*
X1539297Y1598824*
X1539291Y1598787*
X1539282Y1598750*
X1539272Y1598715*
X1539258Y1598680*
X1539243Y1598646*
X1539225Y1598613*
X1539206Y1598581*
X1539184Y1598551*
X1539160Y1598522*
X1539135Y1598495*
X1539107Y1598469*
X1539078Y1598445*
X1539048Y1598424*
X1539016Y1598404*
X1538983Y1598386*
X1538949Y1598371*
X1538914Y1598358*
X1538879Y1598347*
X1538842Y1598338*
X1538805Y1598332*
X1538768Y1598329*
X1538731Y1598327*
X1535995*
Y1599469*
X1538731*
X1535995Y1598327D02*
Y1599469D01*
X1536014Y1598327D02*
Y1599469D01*
X1536034Y1598327D02*
Y1599469D01*
X1536054Y1598327D02*
Y1599469D01*
X1536073Y1598327D02*
Y1599469D01*
X1536093Y1598327D02*
Y1599469D01*
X1536113Y1598327D02*
Y1599469D01*
X1536133Y1598327D02*
Y1599469D01*
X1536152Y1598327D02*
Y1599469D01*
X1536172Y1598327D02*
Y1599469D01*
X1536192Y1598327D02*
Y1599469D01*
X1536211Y1598327D02*
Y1599469D01*
X1536231Y1598327D02*
Y1599469D01*
X1536251Y1598327D02*
Y1599469D01*
X1536270Y1598327D02*
Y1599469D01*
X1536290Y1598327D02*
Y1599469D01*
X1536310Y1598327D02*
Y1599469D01*
X1536329Y1598327D02*
Y1599469D01*
X1536349Y1598327D02*
Y1599469D01*
X1536369Y1598327D02*
Y1599469D01*
X1536388Y1598327D02*
Y1599469D01*
X1536408Y1598327D02*
Y1599469D01*
X1536428Y1598327D02*
Y1599469D01*
X1536447Y1598327D02*
Y1599469D01*
X1536467Y1598327D02*
Y1599469D01*
X1536487Y1598327D02*
Y1599469D01*
X1536507Y1598327D02*
Y1599469D01*
X1536526Y1598327D02*
Y1599469D01*
X1536546Y1598327D02*
Y1599469D01*
X1536566Y1598327D02*
Y1599469D01*
X1536585Y1598327D02*
Y1599469D01*
X1536605Y1598327D02*
Y1599469D01*
X1536625Y1598327D02*
Y1599469D01*
X1536644Y1598327D02*
Y1599469D01*
X1536664Y1598327D02*
Y1599469D01*
X1536684Y1598327D02*
Y1599469D01*
X1536703Y1598327D02*
Y1599469D01*
X1536723Y1598327D02*
Y1599469D01*
X1536743Y1598327D02*
Y1599469D01*
X1536762Y1598327D02*
Y1599469D01*
X1536782Y1598327D02*
Y1599469D01*
X1536802Y1598327D02*
Y1599469D01*
X1536822Y1598327D02*
Y1599469D01*
X1536841Y1598327D02*
Y1599469D01*
X1536861Y1598327D02*
Y1599469D01*
X1536881Y1598327D02*
Y1599469D01*
X1536900Y1598327D02*
Y1599469D01*
X1536920Y1598327D02*
Y1599469D01*
X1536940Y1598327D02*
Y1599469D01*
X1536959Y1598327D02*
Y1599469D01*
X1536979Y1598327D02*
Y1599469D01*
X1536999Y1598327D02*
Y1599469D01*
X1537018Y1598327D02*
Y1599469D01*
X1537038Y1598327D02*
Y1599469D01*
X1537058Y1598327D02*
Y1599469D01*
X1537077Y1598327D02*
Y1599469D01*
X1537097Y1598327D02*
Y1599469D01*
X1537117Y1598327D02*
Y1599469D01*
X1537136Y1598327D02*
Y1599469D01*
X1537156Y1598327D02*
Y1599469D01*
X1537176Y1598327D02*
Y1599469D01*
X1537196Y1598327D02*
Y1599469D01*
X1537215Y1598327D02*
Y1599469D01*
X1537235Y1598327D02*
Y1599469D01*
X1537255Y1598327D02*
Y1599469D01*
X1537274Y1598327D02*
Y1599469D01*
X1537294Y1598327D02*
Y1599469D01*
X1537314Y1598327D02*
Y1599469D01*
X1537333Y1598327D02*
Y1599469D01*
X1537353Y1598327D02*
Y1599469D01*
X1537373Y1598327D02*
Y1599469D01*
X1537392Y1598327D02*
Y1599469D01*
X1537412Y1598327D02*
Y1599469D01*
X1537432Y1598327D02*
Y1599469D01*
X1537451Y1598327D02*
Y1599469D01*
X1537471Y1598327D02*
Y1599469D01*
X1537491Y1598327D02*
Y1599469D01*
X1537510Y1598327D02*
Y1599469D01*
X1537530Y1598327D02*
Y1599469D01*
X1537550Y1598327D02*
Y1599469D01*
X1537570Y1598327D02*
Y1599469D01*
X1537589Y1598327D02*
Y1599469D01*
X1537609Y1598327D02*
Y1599469D01*
X1537629Y1598327D02*
Y1599469D01*
X1537648Y1598327D02*
Y1599469D01*
X1537668Y1598327D02*
Y1599469D01*
X1537688Y1598327D02*
Y1599469D01*
X1537707Y1598327D02*
Y1599469D01*
X1537727Y1598327D02*
Y1599469D01*
X1537747Y1598327D02*
Y1599469D01*
X1537766Y1598327D02*
Y1599469D01*
X1537786Y1598327D02*
Y1599469D01*
X1537806Y1598327D02*
Y1599469D01*
X1537825Y1598327D02*
Y1599469D01*
X1537845Y1598327D02*
Y1599469D01*
X1537865Y1598327D02*
Y1599469D01*
X1537885Y1598327D02*
Y1599469D01*
X1537904Y1598327D02*
Y1599469D01*
X1537924Y1598327D02*
Y1599469D01*
X1537944Y1598327D02*
Y1599469D01*
X1537963Y1598327D02*
Y1599469D01*
X1537983Y1598327D02*
Y1599469D01*
X1538003Y1598327D02*
Y1599469D01*
X1538022Y1598327D02*
Y1599469D01*
X1538042Y1598327D02*
Y1599469D01*
X1538062Y1598327D02*
Y1599469D01*
X1538081Y1598327D02*
Y1599469D01*
X1538101Y1598327D02*
Y1599469D01*
X1538121Y1598327D02*
Y1599469D01*
X1538140Y1598327D02*
Y1599469D01*
X1538160Y1598327D02*
Y1599469D01*
X1538180Y1598327D02*
Y1599469D01*
X1538199Y1598327D02*
Y1599469D01*
X1538219Y1598327D02*
Y1599469D01*
X1538239Y1598327D02*
Y1599469D01*
X1538259Y1598327D02*
Y1599469D01*
X1538278Y1598327D02*
Y1599469D01*
X1538298Y1598327D02*
Y1599469D01*
X1538318Y1598327D02*
Y1599469D01*
X1538337Y1598327D02*
Y1599469D01*
X1538357Y1598327D02*
Y1599469D01*
X1538377Y1598327D02*
Y1599469D01*
X1538396Y1598327D02*
Y1599469D01*
X1538416Y1598327D02*
Y1599469D01*
X1538436Y1598327D02*
Y1599469D01*
X1538455Y1598327D02*
Y1599469D01*
X1538475Y1598327D02*
Y1599469D01*
X1538495Y1598327D02*
Y1599469D01*
X1538514Y1598327D02*
Y1599469D01*
X1538534Y1598327D02*
Y1599469D01*
X1538554Y1598327D02*
Y1599469D01*
X1538573Y1598327D02*
Y1599469D01*
X1538593Y1598327D02*
Y1599469D01*
X1538613Y1598327D02*
Y1599469D01*
X1538633Y1598327D02*
Y1599469D01*
X1538652Y1598327D02*
Y1599469D01*
X1538672Y1598327D02*
Y1599469D01*
X1538692Y1598327D02*
Y1599469D01*
X1538711Y1598327D02*
Y1599469D01*
X1538731Y1598327D02*
Y1599469D01*
X1538751Y1598328D02*
Y1599468D01*
X1538770Y1598329D02*
Y1599468D01*
X1538790Y1598331D02*
Y1599466D01*
X1538810Y1598333D02*
Y1599463D01*
X1538829Y1598336D02*
Y1599460D01*
X1538849Y1598340D02*
Y1599457D01*
X1538869Y1598344D02*
Y1599452D01*
X1538888Y1598350D02*
Y1599447D01*
X1538908Y1598356D02*
Y1599441D01*
X1538928Y1598363D02*
Y1599434D01*
X1538947Y1598370D02*
Y1599426D01*
X1538967Y1598379D02*
Y1599418D01*
X1538987Y1598388D02*
Y1599408D01*
X1539007Y1598399D02*
Y1599398D01*
X1539026Y1598410D02*
Y1599386D01*
X1539046Y1598422D02*
Y1599374D01*
X1539066Y1598436D02*
Y1599360D01*
X1539085Y1598451D02*
Y1599346D01*
X1539105Y1598467D02*
Y1599329D01*
X1539125Y1598485D02*
Y1599311D01*
X1539144Y1598505D02*
Y1599291D01*
X1539164Y1598527D02*
Y1599270D01*
X1539184Y1598550D02*
Y1599246D01*
X1539203Y1598578D02*
Y1599218D01*
X1539223Y1598609D02*
Y1599187D01*
X1539243Y1598645D02*
Y1599151D01*
X1539262Y1598691D02*
Y1599106D01*
X1539282Y1598750D02*
Y1599047D01*
X1540778Y1603111D02*
Y1600375D01*
X1540777Y1600337*
X1540773Y1600300*
X1540767Y1600263*
X1540759Y1600227*
X1540748Y1600191*
X1540735Y1600156*
X1540719Y1600122*
X1540702Y1600089*
X1540682Y1600057*
X1540660Y1600027*
X1540637Y1599998*
X1540611Y1599971*
X1540584Y1599945*
X1540555Y1599922*
X1540524Y1599900*
X1540493Y1599880*
X1540460Y1599863*
X1540426Y1599847*
X1540391Y1599834*
X1540355Y1599823*
X1540319Y1599815*
X1540282Y1599809*
X1540245Y1599805*
X1540207Y1599804*
X1540170Y1599805*
X1540133Y1599809*
X1540096Y1599815*
X1540060Y1599823*
X1540024Y1599834*
X1539989Y1599847*
X1539955Y1599863*
X1539922Y1599880*
X1539890Y1599900*
X1539860Y1599922*
X1539831Y1599945*
X1539804Y1599971*
X1539778Y1599998*
X1539754Y1600027*
X1539733Y1600057*
X1539713Y1600089*
X1539695Y1600122*
X1539680Y1600156*
X1539667Y1600191*
X1539656Y1600227*
X1539647Y1600263*
X1539641Y1600300*
X1539638Y1600337*
X1539636Y1600375*
Y1603111*
X1540778*
X1539636Y1600375D02*
Y1603111D01*
X1539656Y1600226D02*
Y1603111D01*
X1539676Y1600167D02*
Y1603111D01*
X1539696Y1600122D02*
Y1603111D01*
X1539715Y1600086D02*
Y1603111D01*
X1539735Y1600054D02*
Y1603111D01*
X1539755Y1600027D02*
Y1603111D01*
X1539774Y1600003D02*
Y1603111D01*
X1539794Y1599981D02*
Y1603111D01*
X1539814Y1599962D02*
Y1603111D01*
X1539833Y1599943D02*
Y1603111D01*
X1539853Y1599927D02*
Y1603111D01*
X1539873Y1599912D02*
Y1603111D01*
X1539892Y1599899D02*
Y1603111D01*
X1539912Y1599886D02*
Y1603111D01*
X1539932Y1599875D02*
Y1603111D01*
X1539951Y1599864D02*
Y1603111D01*
X1539971Y1599855D02*
Y1603111D01*
X1539991Y1599846D02*
Y1603111D01*
X1540010Y1599839D02*
Y1603111D01*
X1540030Y1599832D02*
Y1603111D01*
X1540050Y1599826D02*
Y1603111D01*
X1540070Y1599821D02*
Y1603111D01*
X1540089Y1599816D02*
Y1603111D01*
X1540109Y1599813D02*
Y1603111D01*
X1540129Y1599809D02*
Y1603111D01*
X1540148Y1599807D02*
Y1603111D01*
X1540168Y1599805D02*
Y1603111D01*
X1540188Y1599804D02*
Y1603111D01*
X1540207Y1599804D02*
Y1603111D01*
X1540227Y1599804D02*
Y1603111D01*
X1540247Y1599805D02*
Y1603111D01*
X1540266Y1599807D02*
Y1603111D01*
X1540286Y1599809D02*
Y1603111D01*
X1540306Y1599813D02*
Y1603111D01*
X1540325Y1599816D02*
Y1603111D01*
X1540345Y1599821D02*
Y1603111D01*
X1540365Y1599826D02*
Y1603111D01*
X1540385Y1599832D02*
Y1603111D01*
X1540404Y1599839D02*
Y1603111D01*
X1540424Y1599846D02*
Y1603111D01*
X1540444Y1599855D02*
Y1603111D01*
X1540463Y1599864D02*
Y1603111D01*
X1540483Y1599875D02*
Y1603111D01*
X1540503Y1599886D02*
Y1603111D01*
X1540522Y1599899D02*
Y1603111D01*
X1540542Y1599912D02*
Y1603111D01*
X1540562Y1599927D02*
Y1603111D01*
X1540581Y1599943D02*
Y1603111D01*
X1540601Y1599962D02*
Y1603111D01*
X1540621Y1599981D02*
Y1603111D01*
X1540640Y1600003D02*
Y1603111D01*
X1540660Y1600027D02*
Y1603111D01*
X1540680Y1600054D02*
Y1603111D01*
X1540699Y1600086D02*
Y1603111D01*
X1540719Y1600122D02*
Y1603111D01*
X1540739Y1600167D02*
Y1603111D01*
X1540759Y1600226D02*
Y1603111D01*
X1542747D02*
Y1600375D01*
X1542745Y1600337*
X1542742Y1600300*
X1542736Y1600263*
X1542727Y1600227*
X1542716Y1600191*
X1542703Y1600156*
X1542688Y1600122*
X1542670Y1600089*
X1542651Y1600057*
X1542651D02*
X1542629Y1600027D01*
X1542605Y1599998*
X1542580Y1599971*
X1542552Y1599945*
X1542523Y1599922*
X1542493Y1599900*
X1542461Y1599880*
X1542428Y1599863*
X1542394Y1599847*
X1542359Y1599834*
X1542324Y1599823*
X1542287Y1599815*
X1542250Y1599809*
X1542213Y1599805*
X1542176Y1599804*
X1542139Y1599805*
X1542101Y1599809*
X1542064Y1599815*
X1542028Y1599823*
X1541992Y1599834*
X1541957Y1599847*
X1541923Y1599863*
X1541890Y1599880*
X1541859Y1599900*
X1541828Y1599922*
X1541799Y1599945*
X1541772Y1599971*
X1541747Y1599998*
X1541723Y1600027*
X1541701Y1600057*
X1541681Y1600089*
X1541664Y1600122*
X1541648Y1600156*
X1541635Y1600191*
X1541624Y1600227*
X1541616Y1600263*
X1541610Y1600300*
X1541606Y1600337*
X1541605Y1600375*
Y1603111*
X1542747*
X1541605Y1600375D02*
Y1603111D01*
X1541625Y1600226D02*
Y1603111D01*
X1541644Y1600167D02*
Y1603111D01*
X1541664Y1600122D02*
Y1603111D01*
X1541684Y1600086D02*
Y1603111D01*
X1541703Y1600054D02*
Y1603111D01*
X1541723Y1600027D02*
Y1603111D01*
X1541743Y1600003D02*
Y1603111D01*
X1541762Y1599981D02*
Y1603111D01*
X1541782Y1599962D02*
Y1603111D01*
X1541802Y1599943D02*
Y1603111D01*
X1541822Y1599927D02*
Y1603111D01*
X1541841Y1599912D02*
Y1603111D01*
X1541861Y1599899D02*
Y1603111D01*
X1541881Y1599886D02*
Y1603111D01*
X1541900Y1599875D02*
Y1603111D01*
X1541920Y1599864D02*
Y1603111D01*
X1541940Y1599855D02*
Y1603111D01*
X1541959Y1599846D02*
Y1603111D01*
X1541979Y1599839D02*
Y1603111D01*
X1541999Y1599832D02*
Y1603111D01*
X1542018Y1599826D02*
Y1603111D01*
X1542038Y1599821D02*
Y1603111D01*
X1542058Y1599816D02*
Y1603111D01*
X1542077Y1599813D02*
Y1603111D01*
X1542097Y1599809D02*
Y1603111D01*
X1542117Y1599807D02*
Y1603111D01*
X1542136Y1599805D02*
Y1603111D01*
X1542156Y1599804D02*
Y1603111D01*
X1542176Y1599804D02*
Y1603111D01*
X1542196Y1599804D02*
Y1603111D01*
X1542215Y1599805D02*
Y1603111D01*
X1542235Y1599807D02*
Y1603111D01*
X1542255Y1599809D02*
Y1603111D01*
X1542274Y1599813D02*
Y1603111D01*
X1542294Y1599816D02*
Y1603111D01*
X1542314Y1599821D02*
Y1603111D01*
X1542333Y1599826D02*
Y1603111D01*
X1542353Y1599832D02*
Y1603111D01*
X1542373Y1599839D02*
Y1603111D01*
X1542392Y1599846D02*
Y1603111D01*
X1542412Y1599855D02*
Y1603111D01*
X1542432Y1599864D02*
Y1603111D01*
X1542451Y1599875D02*
Y1603111D01*
X1542471Y1599886D02*
Y1603111D01*
X1542491Y1599899D02*
Y1603111D01*
X1542510Y1599912D02*
Y1603111D01*
X1542530Y1599927D02*
Y1603111D01*
X1542550Y1599943D02*
Y1603111D01*
X1542570Y1599962D02*
Y1603111D01*
X1542589Y1599981D02*
Y1603111D01*
X1542609Y1600003D02*
Y1603111D01*
X1542629Y1600027D02*
Y1603111D01*
X1542648Y1600054D02*
Y1603111D01*
X1542668Y1600086D02*
Y1603111D01*
X1542688Y1600122D02*
Y1603111D01*
X1542707Y1600167D02*
Y1603111D01*
X1542727Y1600226D02*
Y1603111D01*
X1544715D02*
Y1600375D01*
X1544714Y1600337*
X1544710Y1600300*
X1544704Y1600263*
X1544696Y1600227*
X1544685Y1600191*
X1544672Y1600156*
X1544656Y1600122*
X1544639Y1600089*
X1544619Y1600057*
X1544597Y1600027*
X1544574Y1599998*
X1544548Y1599971*
X1544521Y1599945*
X1544492Y1599922*
X1544462Y1599900*
X1544430Y1599880*
X1544397Y1599863*
X1544363Y1599847*
X1544328Y1599834*
X1544292Y1599823*
X1544256Y1599815*
X1544219Y1599809*
X1544182Y1599805*
X1544144Y1599804*
X1544107Y1599805*
X1544070Y1599809*
X1544033Y1599815*
X1543997Y1599823*
X1543961Y1599834*
X1543926Y1599847*
X1543892Y1599863*
X1543859Y1599880*
X1543827Y1599900*
X1543797Y1599922*
X1543768Y1599945*
X1543741Y1599971*
X1543715Y1599998*
X1543691Y1600027*
X1543670Y1600057*
X1543650Y1600089*
X1543632Y1600122*
X1543617Y1600156*
X1543604Y1600191*
X1543593Y1600227*
X1543584Y1600263*
X1543578Y1600300*
X1543575Y1600337*
X1543573Y1600375*
Y1603111*
X1544715*
X1543573Y1600375D02*
Y1603111D01*
X1543593Y1600226D02*
Y1603111D01*
X1543613Y1600167D02*
Y1603111D01*
X1543633Y1600122D02*
Y1603111D01*
X1543652Y1600086D02*
Y1603111D01*
X1543672Y1600054D02*
Y1603111D01*
X1543692Y1600027D02*
Y1603111D01*
X1543711Y1600003D02*
Y1603111D01*
X1543731Y1599981D02*
Y1603111D01*
X1543751Y1599962D02*
Y1603111D01*
X1543770Y1599943D02*
Y1603111D01*
X1543790Y1599927D02*
Y1603111D01*
X1543810Y1599912D02*
Y1603111D01*
X1543829Y1599899D02*
Y1603111D01*
X1543849Y1599886D02*
Y1603111D01*
X1543869Y1599875D02*
Y1603111D01*
X1543888Y1599864D02*
Y1603111D01*
X1543908Y1599855D02*
Y1603111D01*
X1543928Y1599846D02*
Y1603111D01*
X1543947Y1599839D02*
Y1603111D01*
X1543967Y1599832D02*
Y1603111D01*
X1543987Y1599826D02*
Y1603111D01*
X1544007Y1599821D02*
Y1603111D01*
X1544026Y1599816D02*
Y1603111D01*
X1544046Y1599813D02*
Y1603111D01*
X1544066Y1599809D02*
Y1603111D01*
X1544085Y1599807D02*
Y1603111D01*
X1544105Y1599805D02*
Y1603111D01*
X1544125Y1599804D02*
Y1603111D01*
X1544144Y1599804D02*
Y1603111D01*
X1544164Y1599804D02*
Y1603111D01*
X1544184Y1599805D02*
Y1603111D01*
X1544203Y1599807D02*
Y1603111D01*
X1544223Y1599809D02*
Y1603111D01*
X1544243Y1599813D02*
Y1603111D01*
X1544262Y1599816D02*
Y1603111D01*
X1544282Y1599821D02*
Y1603111D01*
X1544302Y1599826D02*
Y1603111D01*
X1544322Y1599832D02*
Y1603111D01*
X1544341Y1599839D02*
Y1603111D01*
X1544361Y1599846D02*
Y1603111D01*
X1544381Y1599855D02*
Y1603111D01*
X1544400Y1599864D02*
Y1603111D01*
X1544420Y1599875D02*
Y1603111D01*
X1544440Y1599886D02*
Y1603111D01*
X1544459Y1599899D02*
Y1603111D01*
X1544479Y1599912D02*
Y1603111D01*
X1544499Y1599927D02*
Y1603111D01*
X1544518Y1599943D02*
Y1603111D01*
X1544538Y1599962D02*
Y1603111D01*
X1544558Y1599981D02*
Y1603111D01*
X1544577Y1600003D02*
Y1603111D01*
X1544597Y1600027D02*
Y1603111D01*
X1544617Y1600054D02*
Y1603111D01*
X1544636Y1600086D02*
Y1603111D01*
X1544656Y1600122D02*
Y1603111D01*
X1544676Y1600167D02*
Y1603111D01*
X1544696Y1600226D02*
Y1603111D01*
X1546684D02*
Y1600375D01*
X1546682Y1600337*
X1546679Y1600300*
X1546673Y1600263*
X1546664Y1600227*
X1546653Y1600191*
X1546640Y1600156*
X1546625Y1600122*
X1546607Y1600089*
X1546588Y1600057*
X1546566Y1600027*
X1546542Y1599998*
X1546517Y1599971*
X1546489Y1599945*
X1546460Y1599922*
X1546430Y1599900*
X1546398Y1599880*
X1546365Y1599863*
X1546331Y1599847*
X1546296Y1599834*
X1546261Y1599823*
X1546224Y1599815*
X1546187Y1599809*
X1546150Y1599805*
X1546113Y1599804*
X1546076Y1599805*
X1546038Y1599809*
X1546001Y1599815*
X1545965Y1599823*
X1545929Y1599834*
X1545894Y1599847*
X1545860Y1599863*
X1545827Y1599880*
X1545796Y1599900*
X1545765Y1599922*
X1545736Y1599945*
X1545709Y1599971*
X1545684Y1599998*
X1545660Y1600027*
X1545638Y1600057*
X1545618Y1600089*
X1545601Y1600122*
X1545585Y1600156*
X1545572Y1600191*
X1545561Y1600227*
X1545553Y1600263*
X1545547Y1600300*
X1545543Y1600337*
X1545542Y1600375*
Y1603111*
X1546684*
X1545542Y1600375D02*
Y1603111D01*
X1545562Y1600226D02*
Y1603111D01*
X1545581Y1600167D02*
Y1603111D01*
X1545601Y1600122D02*
Y1603111D01*
X1545621Y1600086D02*
Y1603111D01*
X1545640Y1600054D02*
Y1603111D01*
X1545660Y1600027D02*
Y1603111D01*
X1545680Y1600003D02*
Y1603111D01*
X1545699Y1599981D02*
Y1603111D01*
X1545719Y1599962D02*
Y1603111D01*
X1545739Y1599943D02*
Y1603111D01*
X1545759Y1599927D02*
Y1603111D01*
X1545778Y1599912D02*
Y1603111D01*
X1545798Y1599899D02*
Y1603111D01*
X1545818Y1599886D02*
Y1603111D01*
X1545837Y1599875D02*
Y1603111D01*
X1545857Y1599864D02*
Y1603111D01*
X1545877Y1599855D02*
Y1603111D01*
X1545896Y1599846D02*
Y1603111D01*
X1545916Y1599839D02*
Y1603111D01*
X1545936Y1599832D02*
Y1603111D01*
X1545955Y1599826D02*
Y1603111D01*
X1545975Y1599821D02*
Y1603111D01*
X1545995Y1599816D02*
Y1603111D01*
X1546014Y1599813D02*
Y1603111D01*
X1546034Y1599809D02*
Y1603111D01*
X1546054Y1599807D02*
Y1603111D01*
X1546073Y1599805D02*
Y1603111D01*
X1546093Y1599804D02*
Y1603111D01*
X1546113Y1599804D02*
Y1603111D01*
X1546133Y1599804D02*
Y1603111D01*
X1546152Y1599805D02*
Y1603111D01*
X1546172Y1599807D02*
Y1603111D01*
X1546192Y1599809D02*
Y1603111D01*
X1546211Y1599813D02*
Y1603111D01*
X1546231Y1599816D02*
Y1603111D01*
X1546251Y1599821D02*
Y1603111D01*
X1546270Y1599826D02*
Y1603111D01*
X1546290Y1599832D02*
Y1603111D01*
X1546310Y1599839D02*
Y1603111D01*
X1546329Y1599846D02*
Y1603111D01*
X1546349Y1599855D02*
Y1603111D01*
X1546369Y1599864D02*
Y1603111D01*
X1546388Y1599875D02*
Y1603111D01*
X1546408Y1599886D02*
Y1603111D01*
X1546428Y1599899D02*
Y1603111D01*
X1546447Y1599912D02*
Y1603111D01*
X1546467Y1599927D02*
Y1603111D01*
X1546487Y1599943D02*
Y1603111D01*
X1546507Y1599962D02*
Y1603111D01*
X1546526Y1599981D02*
Y1603111D01*
X1546546Y1600003D02*
Y1603111D01*
X1546566Y1600027D02*
Y1603111D01*
X1546585Y1600054D02*
Y1603111D01*
X1546605Y1600086D02*
Y1603111D01*
X1546625Y1600122D02*
Y1603111D01*
X1546644Y1600167D02*
Y1603111D01*
X1546664Y1600226D02*
Y1603111D01*
X1548652D02*
Y1600375D01*
X1548651Y1600337*
X1548647Y1600300*
X1548641Y1600263*
X1548633Y1600227*
X1548622Y1600191*
X1548609Y1600156*
X1548593Y1600122*
X1548576Y1600089*
X1548556Y1600057*
X1548534Y1600027*
X1548511Y1599998*
X1548485Y1599971*
X1548458Y1599945*
X1548429Y1599922*
X1548399Y1599900*
X1548367Y1599880*
X1548334Y1599863*
X1548300Y1599847*
X1548265Y1599834*
X1548229Y1599823*
X1548193Y1599815*
X1548156Y1599809*
X1548119Y1599805*
X1548081Y1599804*
X1548044Y1599805*
X1548007Y1599809*
X1547970Y1599815*
X1547934Y1599823*
X1547898Y1599834*
X1547863Y1599847*
X1547829Y1599863*
X1547796Y1599880*
X1547764Y1599900*
X1547734Y1599922*
X1547705Y1599945*
X1547678Y1599971*
X1547652Y1599998*
X1547628Y1600027*
X1547607Y1600057*
X1547587Y1600089*
X1547569Y1600122*
X1547554Y1600156*
X1547541Y1600191*
X1547530Y1600227*
X1547521Y1600263*
X1547515Y1600300*
X1547512Y1600337*
X1547510Y1600375*
Y1603111*
X1548652*
X1547510Y1600375D02*
Y1603111D01*
X1547530Y1600226D02*
Y1603111D01*
X1547550Y1600167D02*
Y1603111D01*
X1547570Y1600122D02*
Y1603111D01*
X1547589Y1600086D02*
Y1603111D01*
X1547609Y1600054D02*
Y1603111D01*
X1547629Y1600027D02*
Y1603111D01*
X1547648Y1600003D02*
Y1603111D01*
X1547668Y1599981D02*
Y1603111D01*
X1547688Y1599962D02*
Y1603111D01*
X1547707Y1599943D02*
Y1603111D01*
X1547727Y1599927D02*
Y1603111D01*
X1547747Y1599912D02*
Y1603111D01*
X1547766Y1599899D02*
Y1603111D01*
X1547786Y1599886D02*
Y1603111D01*
X1547806Y1599875D02*
Y1603111D01*
X1547825Y1599864D02*
Y1603111D01*
X1547845Y1599855D02*
Y1603111D01*
X1547865Y1599846D02*
Y1603111D01*
X1547885Y1599839D02*
Y1603111D01*
X1547904Y1599832D02*
Y1603111D01*
X1547924Y1599826D02*
Y1603111D01*
X1547944Y1599821D02*
Y1603111D01*
X1547963Y1599816D02*
Y1603111D01*
X1547983Y1599813D02*
Y1603111D01*
X1548003Y1599809D02*
Y1603111D01*
X1548022Y1599807D02*
Y1603111D01*
X1548042Y1599805D02*
Y1603111D01*
X1548062Y1599804D02*
Y1603111D01*
X1548081Y1599804D02*
Y1603111D01*
X1548101Y1599804D02*
Y1603111D01*
X1548121Y1599805D02*
Y1603111D01*
X1548140Y1599807D02*
Y1603111D01*
X1548160Y1599809D02*
Y1603111D01*
X1548180Y1599813D02*
Y1603111D01*
X1548199Y1599816D02*
Y1603111D01*
X1548219Y1599821D02*
Y1603111D01*
X1548239Y1599826D02*
Y1603111D01*
X1548259Y1599832D02*
Y1603111D01*
X1548278Y1599839D02*
Y1603111D01*
X1548298Y1599846D02*
Y1603111D01*
X1548318Y1599855D02*
Y1603111D01*
X1548337Y1599864D02*
Y1603111D01*
X1548357Y1599875D02*
Y1603111D01*
X1548377Y1599886D02*
Y1603111D01*
X1548396Y1599899D02*
Y1603111D01*
X1548416Y1599912D02*
Y1603111D01*
X1548436Y1599927D02*
Y1603111D01*
X1548455Y1599943D02*
Y1603111D01*
X1548475Y1599962D02*
Y1603111D01*
X1548495Y1599981D02*
Y1603111D01*
X1548514Y1600003D02*
Y1603111D01*
X1548534Y1600027D02*
Y1603111D01*
X1548554Y1600054D02*
Y1603111D01*
X1548573Y1600086D02*
Y1603111D01*
X1548593Y1600122D02*
Y1603111D01*
X1548613Y1600167D02*
Y1603111D01*
X1548633Y1600226D02*
Y1603111D01*
X1550621D02*
Y1600375D01*
X1550620Y1600337*
X1550620D02*
X1550616Y1600300D01*
X1550610Y1600263*
X1550601Y1600227*
X1550590Y1600191*
X1550577Y1600156*
X1550562Y1600122*
X1550544Y1600089*
X1550525Y1600057*
X1550503Y1600027*
X1550479Y1599998*
X1550454Y1599971*
X1550426Y1599945*
X1550397Y1599922*
X1550367Y1599900*
X1550335Y1599880*
X1550302Y1599863*
X1550268Y1599847*
X1550233Y1599834*
X1550198Y1599823*
X1550161Y1599815*
X1550124Y1599809*
X1550087Y1599805*
X1550050Y1599804*
X1550013Y1599805*
X1549975Y1599809*
X1549938Y1599815*
X1549902Y1599823*
X1549866Y1599834*
X1549831Y1599847*
X1549797Y1599863*
X1549764Y1599880*
X1549733Y1599900*
X1549702Y1599922*
X1549673Y1599945*
X1549646Y1599971*
X1549621Y1599998*
X1549597Y1600027*
X1549575Y1600057*
X1549555Y1600089*
X1549538Y1600122*
X1549522Y1600156*
X1549509Y1600191*
X1549498Y1600227*
X1549490Y1600263*
X1549484Y1600300*
X1549480Y1600337*
X1549479Y1600375*
Y1603111*
X1550621*
X1549479Y1600375D02*
Y1603111D01*
X1549499Y1600226D02*
Y1603111D01*
X1549518Y1600167D02*
Y1603111D01*
X1549538Y1600122D02*
Y1603111D01*
X1549558Y1600086D02*
Y1603111D01*
X1549577Y1600054D02*
Y1603111D01*
X1549597Y1600027D02*
Y1603111D01*
X1549617Y1600003D02*
Y1603111D01*
X1549636Y1599981D02*
Y1603111D01*
X1549656Y1599962D02*
Y1603111D01*
X1549676Y1599943D02*
Y1603111D01*
X1549696Y1599927D02*
Y1603111D01*
X1549715Y1599912D02*
Y1603111D01*
X1549735Y1599899D02*
Y1603111D01*
X1549755Y1599886D02*
Y1603111D01*
X1549774Y1599875D02*
Y1603111D01*
X1549794Y1599864D02*
Y1603111D01*
X1549814Y1599855D02*
Y1603111D01*
X1549833Y1599846D02*
Y1603111D01*
X1549853Y1599839D02*
Y1603111D01*
X1549873Y1599832D02*
Y1603111D01*
X1549892Y1599826D02*
Y1603111D01*
X1549912Y1599821D02*
Y1603111D01*
X1549932Y1599816D02*
Y1603111D01*
X1549951Y1599813D02*
Y1603111D01*
X1549971Y1599809D02*
Y1603111D01*
X1549991Y1599807D02*
Y1603111D01*
X1550010Y1599805D02*
Y1603111D01*
X1550030Y1599804D02*
Y1603111D01*
X1550050Y1599804D02*
Y1603111D01*
X1550070Y1599804D02*
Y1603111D01*
X1550089Y1599805D02*
Y1603111D01*
X1550109Y1599807D02*
Y1603111D01*
X1550129Y1599809D02*
Y1603111D01*
X1550148Y1599813D02*
Y1603111D01*
X1550168Y1599816D02*
Y1603111D01*
X1550188Y1599821D02*
Y1603111D01*
X1550207Y1599826D02*
Y1603111D01*
X1550227Y1599832D02*
Y1603111D01*
X1550247Y1599839D02*
Y1603111D01*
X1550266Y1599846D02*
Y1603111D01*
X1550286Y1599855D02*
Y1603111D01*
X1550306Y1599864D02*
Y1603111D01*
X1550325Y1599875D02*
Y1603111D01*
X1550345Y1599886D02*
Y1603111D01*
X1550365Y1599899D02*
Y1603111D01*
X1550385Y1599912D02*
Y1603111D01*
X1550404Y1599927D02*
Y1603111D01*
X1550424Y1599943D02*
Y1603111D01*
X1550444Y1599962D02*
Y1603111D01*
X1550463Y1599981D02*
Y1603111D01*
X1550483Y1600003D02*
Y1603111D01*
X1550503Y1600027D02*
Y1603111D01*
X1550522Y1600054D02*
Y1603111D01*
X1550542Y1600086D02*
Y1603111D01*
X1550562Y1600122D02*
Y1603111D01*
X1550581Y1600167D02*
Y1603111D01*
X1550601Y1600226D02*
Y1603111D01*
X1552589D02*
Y1600375D01*
X1552588Y1600337*
X1552584Y1600300*
X1552578Y1600263*
X1552570Y1600227*
X1552559Y1600191*
X1552546Y1600156*
X1552530Y1600122*
X1552513Y1600089*
X1552493Y1600057*
X1552471Y1600027*
X1552448Y1599998*
X1552422Y1599971*
X1552395Y1599945*
X1552366Y1599922*
X1552336Y1599900*
X1552304Y1599880*
X1552271Y1599863*
X1552237Y1599847*
X1552202Y1599834*
X1552166Y1599823*
X1552130Y1599815*
X1552093Y1599809*
X1552056Y1599805*
X1552018Y1599804*
X1551981Y1599805*
X1551944Y1599809*
X1551907Y1599815*
X1551871Y1599823*
X1551835Y1599834*
X1551800Y1599847*
X1551766Y1599863*
X1551733Y1599880*
X1551701Y1599900*
X1551671Y1599922*
X1551642Y1599945*
X1551615Y1599971*
X1551589Y1599998*
X1551565Y1600027*
X1551544Y1600057*
X1551524Y1600089*
X1551506Y1600122*
X1551491Y1600156*
X1551478Y1600191*
X1551467Y1600227*
X1551458Y1600263*
X1551452Y1600300*
X1551449Y1600337*
X1551447Y1600375*
Y1603111*
X1552589*
X1551447Y1600375D02*
Y1603111D01*
X1551467Y1600226D02*
Y1603111D01*
X1551487Y1600167D02*
Y1603111D01*
X1551507Y1600122D02*
Y1603111D01*
X1551526Y1600086D02*
Y1603111D01*
X1551546Y1600054D02*
Y1603111D01*
X1551566Y1600027D02*
Y1603111D01*
X1551585Y1600003D02*
Y1603111D01*
X1551605Y1599981D02*
Y1603111D01*
X1551625Y1599962D02*
Y1603111D01*
X1551644Y1599943D02*
Y1603111D01*
X1551664Y1599927D02*
Y1603111D01*
X1551684Y1599912D02*
Y1603111D01*
X1551703Y1599899D02*
Y1603111D01*
X1551723Y1599886D02*
Y1603111D01*
X1551743Y1599875D02*
Y1603111D01*
X1551762Y1599864D02*
Y1603111D01*
X1551782Y1599855D02*
Y1603111D01*
X1551802Y1599846D02*
Y1603111D01*
X1551822Y1599839D02*
Y1603111D01*
X1551841Y1599832D02*
Y1603111D01*
X1551861Y1599826D02*
Y1603111D01*
X1551881Y1599821D02*
Y1603111D01*
X1551900Y1599816D02*
Y1603111D01*
X1551920Y1599813D02*
Y1603111D01*
X1551940Y1599809D02*
Y1603111D01*
X1551959Y1599807D02*
Y1603111D01*
X1551979Y1599805D02*
Y1603111D01*
X1551999Y1599804D02*
Y1603111D01*
X1552018Y1599804D02*
Y1603111D01*
X1552038Y1599804D02*
Y1603111D01*
X1552058Y1599805D02*
Y1603111D01*
X1552077Y1599807D02*
Y1603111D01*
X1552097Y1599809D02*
Y1603111D01*
X1552117Y1599813D02*
Y1603111D01*
X1552136Y1599816D02*
Y1603111D01*
X1552156Y1599821D02*
Y1603111D01*
X1552176Y1599826D02*
Y1603111D01*
X1552196Y1599832D02*
Y1603111D01*
X1552215Y1599839D02*
Y1603111D01*
X1552235Y1599846D02*
Y1603111D01*
X1552255Y1599855D02*
Y1603111D01*
X1552274Y1599864D02*
Y1603111D01*
X1552294Y1599875D02*
Y1603111D01*
X1552314Y1599886D02*
Y1603111D01*
X1552333Y1599899D02*
Y1603111D01*
X1552353Y1599912D02*
Y1603111D01*
X1552373Y1599927D02*
Y1603111D01*
X1552392Y1599943D02*
Y1603111D01*
X1552412Y1599962D02*
Y1603111D01*
X1552432Y1599981D02*
Y1603111D01*
X1552451Y1600003D02*
Y1603111D01*
X1552471Y1600027D02*
Y1603111D01*
X1552491Y1600054D02*
Y1603111D01*
X1552510Y1600086D02*
Y1603111D01*
X1552530Y1600122D02*
Y1603111D01*
X1552550Y1600167D02*
Y1603111D01*
X1552570Y1600226D02*
Y1603111D01*
X1554558D02*
Y1600375D01*
X1554557Y1600337*
X1554553Y1600300*
X1554547Y1600263*
X1554538Y1600227*
X1554527Y1600191*
X1554514Y1600156*
X1554499Y1600122*
X1554481Y1600089*
X1554462Y1600057*
X1554440Y1600027*
X1554416Y1599998*
X1554391Y1599971*
X1554363Y1599945*
X1554334Y1599922*
X1554304Y1599900*
X1554272Y1599880*
X1554239Y1599863*
X1554205Y1599847*
X1554170Y1599834*
X1554135Y1599823*
X1554098Y1599815*
X1554061Y1599809*
X1554024Y1599805*
X1553987Y1599804*
X1553950Y1599805*
X1553912Y1599809*
X1553875Y1599815*
X1553839Y1599823*
X1553803Y1599834*
X1553768Y1599847*
X1553734Y1599863*
X1553701Y1599880*
X1553670Y1599900*
X1553639Y1599922*
X1553610Y1599945*
X1553583Y1599971*
X1553558Y1599998*
X1553534Y1600027*
X1553512Y1600057*
X1553492Y1600089*
X1553475Y1600122*
X1553459Y1600156*
X1553446Y1600191*
X1553435Y1600227*
X1553427Y1600263*
X1553421Y1600300*
X1553417Y1600337*
X1553416Y1600375*
Y1603111*
X1554558*
X1553416Y1600375D02*
Y1603111D01*
X1553436Y1600226D02*
Y1603111D01*
X1553455Y1600167D02*
Y1603111D01*
X1553475Y1600122D02*
Y1603111D01*
X1553495Y1600086D02*
Y1603111D01*
X1553514Y1600054D02*
Y1603111D01*
X1553534Y1600027D02*
Y1603111D01*
X1553554Y1600003D02*
Y1603111D01*
X1553573Y1599981D02*
Y1603111D01*
X1553593Y1599962D02*
Y1603111D01*
X1553613Y1599943D02*
Y1603111D01*
X1553633Y1599927D02*
Y1603111D01*
X1553652Y1599912D02*
Y1603111D01*
X1553672Y1599899D02*
Y1603111D01*
X1553692Y1599886D02*
Y1603111D01*
X1553711Y1599875D02*
Y1603111D01*
X1553731Y1599864D02*
Y1603111D01*
X1553751Y1599855D02*
Y1603111D01*
X1553770Y1599846D02*
Y1603111D01*
X1553790Y1599839D02*
Y1603111D01*
X1553810Y1599832D02*
Y1603111D01*
X1553829Y1599826D02*
Y1603111D01*
X1553849Y1599821D02*
Y1603111D01*
X1553869Y1599816D02*
Y1603111D01*
X1553888Y1599813D02*
Y1603111D01*
X1553908Y1599809D02*
Y1603111D01*
X1553928Y1599807D02*
Y1603111D01*
X1553947Y1599805D02*
Y1603111D01*
X1553967Y1599804D02*
Y1603111D01*
X1553987Y1599804D02*
Y1603111D01*
X1554007Y1599804D02*
Y1603111D01*
X1554026Y1599805D02*
Y1603111D01*
X1554046Y1599807D02*
Y1603111D01*
X1554066Y1599809D02*
Y1603111D01*
X1554085Y1599813D02*
Y1603111D01*
X1554105Y1599816D02*
Y1603111D01*
X1554125Y1599821D02*
Y1603111D01*
X1554144Y1599826D02*
Y1603111D01*
X1554164Y1599832D02*
Y1603111D01*
X1554184Y1599839D02*
Y1603111D01*
X1554203Y1599846D02*
Y1603111D01*
X1554223Y1599855D02*
Y1603111D01*
X1554243Y1599864D02*
Y1603111D01*
X1554262Y1599875D02*
Y1603111D01*
X1554282Y1599886D02*
Y1603111D01*
X1554302Y1599899D02*
Y1603111D01*
X1554322Y1599912D02*
Y1603111D01*
X1554341Y1599927D02*
Y1603111D01*
X1554361Y1599943D02*
Y1603111D01*
X1554381Y1599962D02*
Y1603111D01*
X1554400Y1599981D02*
Y1603111D01*
X1554420Y1600003D02*
Y1603111D01*
X1554440Y1600027D02*
Y1603111D01*
X1554459Y1600054D02*
Y1603111D01*
X1554479Y1600086D02*
Y1603111D01*
X1554499Y1600122D02*
Y1603111D01*
X1554518Y1600167D02*
Y1603111D01*
X1554538Y1600226D02*
Y1603111D01*
X1558199Y1599469D02*
Y1598327D01*
X1555463*
X1555426Y1598329*
X1555389Y1598332*
X1555352Y1598338*
X1555315Y1598347*
X1555280Y1598358*
X1555245Y1598371*
X1555211Y1598386*
X1555178Y1598404*
X1555146Y1598424*
X1555116Y1598445*
X1555087Y1598469*
X1555060Y1598495*
X1555034Y1598522*
X1555010Y1598551*
X1554989Y1598581*
X1554969Y1598613*
X1554951Y1598646*
X1554936Y1598680*
X1554923Y1598715*
X1554912Y1598750*
X1554903Y1598787*
X1554897Y1598824*
X1554894Y1598861*
X1554892Y1598898*
X1554894Y1598936*
X1554897Y1598973*
X1554903Y1599010*
X1554912Y1599046*
X1554923Y1599082*
X1554936Y1599117*
X1554951Y1599151*
X1554969Y1599184*
X1554989Y1599215*
X1555010Y1599246*
X1555034Y1599275*
X1555060Y1599302*
X1555087Y1599327*
X1555116Y1599351*
X1555146Y1599373*
X1555178Y1599393*
X1555211Y1599410*
X1555245Y1599426*
X1555280Y1599439*
X1555315Y1599450*
X1555352Y1599458*
X1555389Y1599464*
X1555426Y1599468*
X1555463Y1599469*
X1558199*
X1554892Y1598898D02*
X1554892D01*
X1554912Y1598750D02*
Y1599047D01*
X1554932Y1598691D02*
Y1599106D01*
X1554951Y1598645D02*
Y1599151D01*
X1554971Y1598609D02*
Y1599187D01*
X1554991Y1598578D02*
Y1599218D01*
X1555010Y1598550D02*
Y1599246D01*
X1555030Y1598527D02*
Y1599270D01*
X1555050Y1598505D02*
Y1599291D01*
X1555070Y1598485D02*
Y1599311D01*
X1555089Y1598467D02*
Y1599329D01*
X1555109Y1598451D02*
Y1599346D01*
X1555129Y1598436D02*
Y1599360D01*
X1555148Y1598422D02*
Y1599374D01*
X1555168Y1598410D02*
Y1599386D01*
X1555188Y1598399D02*
Y1599398D01*
X1555207Y1598388D02*
Y1599408D01*
X1555227Y1598379D02*
Y1599418D01*
X1555247Y1598370D02*
Y1599426D01*
X1555266Y1598363D02*
Y1599434D01*
X1555286Y1598356D02*
Y1599441D01*
X1555306Y1598350D02*
Y1599447D01*
X1555325Y1598344D02*
Y1599452D01*
X1555345Y1598340D02*
Y1599457D01*
X1555365Y1598336D02*
Y1599460D01*
X1555385Y1598333D02*
Y1599463D01*
X1555404Y1598331D02*
Y1599466D01*
X1555424Y1598329D02*
Y1599468D01*
X1555444Y1598328D02*
Y1599468D01*
X1555463Y1598327D02*
Y1599469D01*
X1555483Y1598327D02*
Y1599469D01*
X1555503Y1598327D02*
Y1599469D01*
X1555522Y1598327D02*
Y1599469D01*
X1555542Y1598327D02*
Y1599469D01*
X1555562Y1598327D02*
Y1599469D01*
X1555581Y1598327D02*
Y1599469D01*
X1555601Y1598327D02*
Y1599469D01*
X1555621Y1598327D02*
Y1599469D01*
X1555640Y1598327D02*
Y1599469D01*
X1555660Y1598327D02*
Y1599469D01*
X1555680Y1598327D02*
Y1599469D01*
X1555699Y1598327D02*
Y1599469D01*
X1555719Y1598327D02*
Y1599469D01*
X1555739Y1598327D02*
Y1599469D01*
X1555759Y1598327D02*
Y1599469D01*
X1555778Y1598327D02*
Y1599469D01*
X1555798Y1598327D02*
Y1599469D01*
X1555818Y1598327D02*
Y1599469D01*
X1555837Y1598327D02*
Y1599469D01*
X1555857Y1598327D02*
Y1599469D01*
X1555877Y1598327D02*
Y1599469D01*
X1555896Y1598327D02*
Y1599469D01*
X1555916Y1598327D02*
Y1599469D01*
X1555936Y1598327D02*
Y1599469D01*
X1555955Y1598327D02*
Y1599469D01*
X1555975Y1598327D02*
Y1599469D01*
X1555995Y1598327D02*
Y1599469D01*
X1556014Y1598327D02*
Y1599469D01*
X1556034Y1598327D02*
Y1599469D01*
X1556054Y1598327D02*
Y1599469D01*
X1556073Y1598327D02*
Y1599469D01*
X1556093Y1598327D02*
Y1599469D01*
X1556113Y1598327D02*
Y1599469D01*
X1556133Y1598327D02*
Y1599469D01*
X1556152Y1598327D02*
Y1599469D01*
X1556172Y1598327D02*
Y1599469D01*
X1556192Y1598327D02*
Y1599469D01*
X1556211Y1598327D02*
Y1599469D01*
X1556231Y1598327D02*
Y1599469D01*
X1556251Y1598327D02*
Y1599469D01*
X1556270Y1598327D02*
Y1599469D01*
X1556290Y1598327D02*
Y1599469D01*
X1556310Y1598327D02*
Y1599469D01*
X1556329Y1598327D02*
Y1599469D01*
X1556349Y1598327D02*
Y1599469D01*
X1556369Y1598327D02*
Y1599469D01*
X1556388Y1598327D02*
Y1599469D01*
X1556408Y1598327D02*
Y1599469D01*
X1556428Y1598327D02*
Y1599469D01*
X1556447Y1598327D02*
Y1599469D01*
X1556467Y1598327D02*
Y1599469D01*
X1556487Y1598327D02*
Y1599469D01*
X1556507Y1598327D02*
Y1599469D01*
X1556526Y1598327D02*
Y1599469D01*
X1556546Y1598327D02*
Y1599469D01*
X1556566Y1598327D02*
Y1599469D01*
X1556585Y1598327D02*
Y1599469D01*
X1556605Y1598327D02*
Y1599469D01*
X1556625Y1598327D02*
Y1599469D01*
X1556644Y1598327D02*
Y1599469D01*
X1556664Y1598327D02*
Y1599469D01*
X1556684Y1598327D02*
Y1599469D01*
X1556703Y1598327D02*
Y1599469D01*
X1556723Y1598327D02*
Y1599469D01*
X1556743Y1598327D02*
Y1599469D01*
X1556762Y1598327D02*
Y1599469D01*
X1556782Y1598327D02*
Y1599469D01*
X1556802Y1598327D02*
Y1599469D01*
X1556822Y1598327D02*
Y1599469D01*
X1556841Y1598327D02*
Y1599469D01*
X1556861Y1598327D02*
Y1599469D01*
X1556881Y1598327D02*
Y1599469D01*
X1556900Y1598327D02*
Y1599469D01*
X1556920Y1598327D02*
Y1599469D01*
X1556940Y1598327D02*
Y1599469D01*
X1556959Y1598327D02*
Y1599469D01*
X1556979Y1598327D02*
Y1599469D01*
X1556999Y1598327D02*
Y1599469D01*
X1557018Y1598327D02*
Y1599469D01*
X1557038Y1598327D02*
Y1599469D01*
X1557058Y1598327D02*
Y1599469D01*
X1557077Y1598327D02*
Y1599469D01*
X1557097Y1598327D02*
Y1599469D01*
X1557117Y1598327D02*
Y1599469D01*
X1557136Y1598327D02*
Y1599469D01*
X1557156Y1598327D02*
Y1599469D01*
X1557176Y1598327D02*
Y1599469D01*
X1557196Y1598327D02*
Y1599469D01*
X1557215Y1598327D02*
Y1599469D01*
X1557235Y1598327D02*
Y1599469D01*
X1557255Y1598327D02*
Y1599469D01*
X1557274Y1598327D02*
Y1599469D01*
X1557294Y1598327D02*
Y1599469D01*
X1557314Y1598327D02*
Y1599469D01*
X1557333Y1598327D02*
Y1599469D01*
X1557353Y1598327D02*
Y1599469D01*
X1557373Y1598327D02*
Y1599469D01*
X1557392Y1598327D02*
Y1599469D01*
X1557412Y1598327D02*
Y1599469D01*
X1557432Y1598327D02*
Y1599469D01*
X1557451Y1598327D02*
Y1599469D01*
X1557471Y1598327D02*
Y1599469D01*
X1557491Y1598327D02*
Y1599469D01*
X1557510Y1598327D02*
Y1599469D01*
X1557530Y1598327D02*
Y1599469D01*
X1557550Y1598327D02*
Y1599469D01*
X1557570Y1598327D02*
Y1599469D01*
X1557589Y1598327D02*
Y1599469D01*
X1557609Y1598327D02*
Y1599469D01*
X1557629Y1598327D02*
Y1599469D01*
X1557648Y1598327D02*
Y1599469D01*
X1557668Y1598327D02*
Y1599469D01*
X1557688Y1598327D02*
Y1599469D01*
X1557707Y1598327D02*
Y1599469D01*
X1557727Y1598327D02*
Y1599469D01*
X1557747Y1598327D02*
Y1599469D01*
X1557766Y1598327D02*
Y1599469D01*
X1557786Y1598327D02*
Y1599469D01*
X1557806Y1598327D02*
Y1599469D01*
X1557825Y1598327D02*
Y1599469D01*
X1557845Y1598327D02*
Y1599469D01*
X1557865Y1598327D02*
Y1599469D01*
X1557885Y1598327D02*
Y1599469D01*
X1557904Y1598327D02*
Y1599469D01*
X1557924Y1598327D02*
Y1599469D01*
X1557944Y1598327D02*
Y1599469D01*
X1557963Y1598327D02*
Y1599469D01*
X1557983Y1598327D02*
Y1599469D01*
X1558003Y1598327D02*
Y1599469D01*
X1558022Y1598327D02*
Y1599469D01*
X1558042Y1598327D02*
Y1599469D01*
X1558062Y1598327D02*
Y1599469D01*
X1558081Y1598327D02*
Y1599469D01*
X1558101Y1598327D02*
Y1599469D01*
X1558121Y1598327D02*
Y1599469D01*
X1558140Y1598327D02*
Y1599469D01*
X1558160Y1598327D02*
Y1599469D01*
X1558180Y1598327D02*
Y1599469D01*
X1558199Y1597501D02*
Y1596359D01*
X1555463*
X1555426Y1596360*
X1555389Y1596364*
X1555352Y1596370*
X1555315Y1596378*
X1555280Y1596389*
X1555245Y1596402*
X1555211Y1596418*
X1555178Y1596435*
X1555146Y1596455*
X1555116Y1596477*
X1555087Y1596500*
X1555060Y1596526*
X1555034Y1596553*
X1555010Y1596582*
X1554989Y1596613*
X1554969Y1596644*
X1554951Y1596677*
X1554936Y1596711*
X1554923Y1596746*
X1554912Y1596782*
X1554903Y1596818*
X1554897Y1596855*
X1554894Y1596892*
X1554892Y1596930*
X1554894Y1596967*
X1554897Y1597004*
X1554903Y1597041*
X1554912Y1597077*
X1554923Y1597113*
X1554936Y1597148*
X1554951Y1597182*
X1554969Y1597215*
X1554989Y1597247*
X1555010Y1597277*
X1555034Y1597306*
X1555060Y1597333*
X1555087Y1597359*
X1555116Y1597383*
X1555146Y1597404*
X1555178Y1597424*
X1555211Y1597442*
X1555245Y1597457*
X1555280Y1597470*
X1555315Y1597481*
X1555352Y1597490*
X1555389Y1597496*
X1555426Y1597499*
X1555463Y1597501*
X1558199*
X1554892Y1596930D02*
X1554892D01*
X1554912Y1596781D02*
Y1597078D01*
X1554932Y1596722D02*
Y1597137D01*
X1554951Y1596677D02*
Y1597183D01*
X1554971Y1596641D02*
Y1597219D01*
X1554991Y1596609D02*
Y1597250D01*
X1555010Y1596582D02*
Y1597277D01*
X1555030Y1596558D02*
Y1597301D01*
X1555050Y1596536D02*
Y1597323D01*
X1555070Y1596517D02*
Y1597343D01*
X1555089Y1596499D02*
Y1597361D01*
X1555109Y1596482D02*
Y1597377D01*
X1555129Y1596468D02*
Y1597392D01*
X1555148Y1596454D02*
Y1597406D01*
X1555168Y1596441D02*
Y1597418D01*
X1555188Y1596430D02*
Y1597429D01*
X1555207Y1596420D02*
Y1597440D01*
X1555227Y1596410D02*
Y1597449D01*
X1555247Y1596402D02*
Y1597458D01*
X1555266Y1596394D02*
Y1597465D01*
X1555286Y1596387D02*
Y1597472D01*
X1555306Y1596381D02*
Y1597478D01*
X1555325Y1596376D02*
Y1597483D01*
X1555345Y1596371D02*
Y1597488D01*
X1555365Y1596368D02*
Y1597492D01*
X1555385Y1596364D02*
Y1597495D01*
X1555404Y1596362D02*
Y1597497D01*
X1555424Y1596360D02*
Y1597499D01*
X1555444Y1596359D02*
Y1597500D01*
X1555463Y1596359D02*
Y1597501D01*
X1555483Y1596359D02*
Y1597501D01*
X1555503Y1596359D02*
Y1597501D01*
X1555522Y1596359D02*
Y1597501D01*
X1555542Y1596359D02*
Y1597501D01*
X1555562Y1596359D02*
Y1597501D01*
X1555581Y1596359D02*
Y1597501D01*
X1555601Y1596359D02*
Y1597501D01*
X1555621Y1596359D02*
Y1597501D01*
X1555640Y1596359D02*
Y1597501D01*
X1555660Y1596359D02*
Y1597501D01*
X1555680Y1596359D02*
Y1597501D01*
X1555699Y1596359D02*
Y1597501D01*
X1555719Y1596359D02*
Y1597501D01*
X1555739Y1596359D02*
Y1597501D01*
X1555759Y1596359D02*
Y1597501D01*
X1555778Y1596359D02*
Y1597501D01*
X1555798Y1596359D02*
Y1597501D01*
X1555818Y1596359D02*
Y1597501D01*
X1555837Y1596359D02*
Y1597501D01*
X1555857Y1596359D02*
Y1597501D01*
X1555877Y1596359D02*
Y1597501D01*
X1555896Y1596359D02*
Y1597501D01*
X1555916Y1596359D02*
Y1597501D01*
X1555936Y1596359D02*
Y1597501D01*
X1555955Y1596359D02*
Y1597501D01*
X1555975Y1596359D02*
Y1597501D01*
X1555995Y1596359D02*
Y1597501D01*
X1556014Y1596359D02*
Y1597501D01*
X1556034Y1596359D02*
Y1597501D01*
X1556054Y1596359D02*
Y1597501D01*
X1556073Y1596359D02*
Y1597501D01*
X1556093Y1596359D02*
Y1597501D01*
X1556113Y1596359D02*
Y1597501D01*
X1556133Y1596359D02*
Y1597501D01*
X1556152Y1596359D02*
Y1597501D01*
X1556172Y1596359D02*
Y1597501D01*
X1556192Y1596359D02*
Y1597501D01*
X1556211Y1596359D02*
Y1597501D01*
X1556231Y1596359D02*
Y1597501D01*
X1556251Y1596359D02*
Y1597501D01*
X1556270Y1596359D02*
Y1597501D01*
X1556290Y1596359D02*
Y1597501D01*
X1556310Y1596359D02*
Y1597501D01*
X1556329Y1596359D02*
Y1597501D01*
X1556349Y1596359D02*
Y1597501D01*
X1556369Y1596359D02*
Y1597501D01*
X1556388Y1596359D02*
Y1597501D01*
X1556408Y1596359D02*
Y1597501D01*
X1556428Y1596359D02*
Y1597501D01*
X1556447Y1596359D02*
Y1597501D01*
X1556467Y1596359D02*
Y1597501D01*
X1556487Y1596359D02*
Y1597501D01*
X1556507Y1596359D02*
Y1597501D01*
X1556526Y1596359D02*
Y1597501D01*
X1556546Y1596359D02*
Y1597501D01*
X1556566Y1596359D02*
Y1597501D01*
X1556585Y1596359D02*
Y1597501D01*
X1556605Y1596359D02*
Y1597501D01*
X1556625Y1596359D02*
Y1597501D01*
X1556644Y1596359D02*
Y1597501D01*
X1556664Y1596359D02*
Y1597501D01*
X1556684Y1596359D02*
Y1597501D01*
X1556703Y1596359D02*
Y1597501D01*
X1556723Y1596359D02*
Y1597501D01*
X1556743Y1596359D02*
Y1597501D01*
X1556762Y1596359D02*
Y1597501D01*
X1556782Y1596359D02*
Y1597501D01*
X1556802Y1596359D02*
Y1597501D01*
X1556822Y1596359D02*
Y1597501D01*
X1556841Y1596359D02*
Y1597501D01*
X1556861Y1596359D02*
Y1597501D01*
X1556881Y1596359D02*
Y1597501D01*
X1556900Y1596359D02*
Y1597501D01*
X1556920Y1596359D02*
Y1597501D01*
X1556940Y1596359D02*
Y1597501D01*
X1556959Y1596359D02*
Y1597501D01*
X1556979Y1596359D02*
Y1597501D01*
X1556999Y1596359D02*
Y1597501D01*
X1557018Y1596359D02*
Y1597501D01*
X1557038Y1596359D02*
Y1597501D01*
X1557058Y1596359D02*
Y1597501D01*
X1557077Y1596359D02*
Y1597501D01*
X1557097Y1596359D02*
Y1597501D01*
X1557117Y1596359D02*
Y1597501D01*
X1557136Y1596359D02*
Y1597501D01*
X1557156Y1596359D02*
Y1597501D01*
X1557176Y1596359D02*
Y1597501D01*
X1557196Y1596359D02*
Y1597501D01*
X1557215Y1596359D02*
Y1597501D01*
X1557235Y1596359D02*
Y1597501D01*
X1557255Y1596359D02*
Y1597501D01*
X1557274Y1596359D02*
Y1597501D01*
X1557294Y1596359D02*
Y1597501D01*
X1557314Y1596359D02*
Y1597501D01*
X1557333Y1596359D02*
Y1597501D01*
X1557353Y1596359D02*
Y1597501D01*
X1557373Y1596359D02*
Y1597501D01*
X1557392Y1596359D02*
Y1597501D01*
X1557412Y1596359D02*
Y1597501D01*
X1557432Y1596359D02*
Y1597501D01*
X1557451Y1596359D02*
Y1597501D01*
X1557471Y1596359D02*
Y1597501D01*
X1557491Y1596359D02*
Y1597501D01*
X1557510Y1596359D02*
Y1597501D01*
X1557530Y1596359D02*
Y1597501D01*
X1557550Y1596359D02*
Y1597501D01*
X1557570Y1596359D02*
Y1597501D01*
X1557589Y1596359D02*
Y1597501D01*
X1557609Y1596359D02*
Y1597501D01*
X1557629Y1596359D02*
Y1597501D01*
X1557648Y1596359D02*
Y1597501D01*
X1557668Y1596359D02*
Y1597501D01*
X1557688Y1596359D02*
Y1597501D01*
X1557707Y1596359D02*
Y1597501D01*
X1557727Y1596359D02*
Y1597501D01*
X1557747Y1596359D02*
Y1597501D01*
X1557766Y1596359D02*
Y1597501D01*
X1557786Y1596359D02*
Y1597501D01*
X1557806Y1596359D02*
Y1597501D01*
X1557825Y1596359D02*
Y1597501D01*
X1557845Y1596359D02*
Y1597501D01*
X1557865Y1596359D02*
Y1597501D01*
X1557885Y1596359D02*
Y1597501D01*
X1557904Y1596359D02*
Y1597501D01*
X1557924Y1596359D02*
Y1597501D01*
X1557944Y1596359D02*
Y1597501D01*
X1557963Y1596359D02*
Y1597501D01*
X1557983Y1596359D02*
Y1597501D01*
X1558003Y1596359D02*
Y1597501D01*
X1558022Y1596359D02*
Y1597501D01*
X1558042Y1596359D02*
Y1597501D01*
X1558062Y1596359D02*
Y1597501D01*
X1558081Y1596359D02*
Y1597501D01*
X1558101Y1596359D02*
Y1597501D01*
X1558121Y1596359D02*
Y1597501D01*
X1558140Y1596359D02*
Y1597501D01*
X1558160Y1596359D02*
Y1597501D01*
X1558180Y1596359D02*
Y1597501D01*
X1558199Y1595532D02*
Y1594390D01*
X1555463*
X1555426Y1594392*
X1555389Y1594395*
X1555352Y1594401*
X1555315Y1594410*
X1555280Y1594421*
X1555245Y1594434*
X1555211Y1594449*
X1555178Y1594467*
X1555146Y1594487*
X1555116Y1594508*
X1555087Y1594532*
X1555060Y1594558*
X1555034Y1594585*
X1555010Y1594614*
X1554989Y1594644*
X1554969Y1594676*
X1554951Y1594709*
X1554936Y1594743*
X1554923Y1594778*
X1554912Y1594813*
X1554903Y1594850*
X1554897Y1594887*
X1554894Y1594924*
X1554892Y1594961*
X1554894Y1594999*
X1554897Y1595036*
X1554903Y1595073*
X1554912Y1595109*
X1554923Y1595145*
X1554936Y1595180*
X1554951Y1595214*
X1554969Y1595247*
X1554989Y1595278*
X1555010Y1595309*
X1555034Y1595338*
X1555060Y1595365*
X1555087Y1595390*
X1555116Y1595414*
X1555146Y1595436*
X1555178Y1595456*
X1555211Y1595473*
X1555245Y1595489*
X1555280Y1595502*
X1555315Y1595513*
X1555352Y1595521*
X1555389Y1595527*
X1555426Y1595531*
X1555463Y1595532*
X1558199*
X1554892Y1594961D02*
X1554892D01*
X1554912Y1594813D02*
Y1595110D01*
X1554932Y1594754D02*
Y1595169D01*
X1554951Y1594708D02*
Y1595214D01*
X1554971Y1594672D02*
Y1595250D01*
X1554991Y1594641D02*
Y1595281D01*
X1555010Y1594613D02*
Y1595309D01*
X1555030Y1594590D02*
Y1595333D01*
X1555050Y1594568D02*
Y1595354D01*
X1555070Y1594548D02*
Y1595374D01*
X1555089Y1594530D02*
Y1595392D01*
X1555109Y1594514D02*
Y1595408D01*
X1555129Y1594499D02*
Y1595423D01*
X1555148Y1594485D02*
Y1595437D01*
X1555168Y1594473D02*
Y1595449D01*
X1555188Y1594462D02*
Y1595461D01*
X1555207Y1594451D02*
Y1595471D01*
X1555227Y1594442D02*
Y1595481D01*
X1555247Y1594433D02*
Y1595489D01*
X1555266Y1594426D02*
Y1595497D01*
X1555286Y1594419D02*
Y1595504D01*
X1555306Y1594413D02*
Y1595510D01*
X1555325Y1594407D02*
Y1595515D01*
X1555345Y1594403D02*
Y1595520D01*
X1555365Y1594399D02*
Y1595523D01*
X1555385Y1594396D02*
Y1595526D01*
X1555404Y1594394D02*
Y1595529D01*
X1555424Y1594392D02*
Y1595531D01*
X1555444Y1594391D02*
Y1595531D01*
X1555463Y1594390D02*
Y1595532D01*
X1555483Y1594390D02*
Y1595532D01*
X1555503Y1594390D02*
Y1595532D01*
X1555522Y1594390D02*
Y1595532D01*
X1555542Y1594390D02*
Y1595532D01*
X1555562Y1594390D02*
Y1595532D01*
X1555581Y1594390D02*
Y1595532D01*
X1555601Y1594390D02*
Y1595532D01*
X1555621Y1594390D02*
Y1595532D01*
X1555640Y1594390D02*
Y1595532D01*
X1555660Y1594390D02*
Y1595532D01*
X1555680Y1594390D02*
Y1595532D01*
X1555699Y1594390D02*
Y1595532D01*
X1555719Y1594390D02*
Y1595532D01*
X1555739Y1594390D02*
Y1595532D01*
X1555759Y1594390D02*
Y1595532D01*
X1555778Y1594390D02*
Y1595532D01*
X1555798Y1594390D02*
Y1595532D01*
X1555818Y1594390D02*
Y1595532D01*
X1555837Y1594390D02*
Y1595532D01*
X1555857Y1594390D02*
Y1595532D01*
X1555877Y1594390D02*
Y1595532D01*
X1555896Y1594390D02*
Y1595532D01*
X1555916Y1594390D02*
Y1595532D01*
X1555936Y1594390D02*
Y1595532D01*
X1555955Y1594390D02*
Y1595532D01*
X1555975Y1594390D02*
Y1595532D01*
X1555995Y1594390D02*
Y1595532D01*
X1556014Y1594390D02*
Y1595532D01*
X1556034Y1594390D02*
Y1595532D01*
X1556054Y1594390D02*
Y1595532D01*
X1556073Y1594390D02*
Y1595532D01*
X1556093Y1594390D02*
Y1595532D01*
X1556113Y1594390D02*
Y1595532D01*
X1556133Y1594390D02*
Y1595532D01*
X1556152Y1594390D02*
Y1595532D01*
X1556172Y1594390D02*
Y1595532D01*
X1556192Y1594390D02*
Y1595532D01*
X1556211Y1594390D02*
Y1595532D01*
X1556231Y1594390D02*
Y1595532D01*
X1556251Y1594390D02*
Y1595532D01*
X1556270Y1594390D02*
Y1595532D01*
X1556290Y1594390D02*
Y1595532D01*
X1556310Y1594390D02*
Y1595532D01*
X1556329Y1594390D02*
Y1595532D01*
X1556349Y1594390D02*
Y1595532D01*
X1556369Y1594390D02*
Y1595532D01*
X1556388Y1594390D02*
Y1595532D01*
X1556408Y1594390D02*
Y1595532D01*
X1556428Y1594390D02*
Y1595532D01*
X1556447Y1594390D02*
Y1595532D01*
X1556467Y1594390D02*
Y1595532D01*
X1556487Y1594390D02*
Y1595532D01*
X1556507Y1594390D02*
Y1595532D01*
X1556526Y1594390D02*
Y1595532D01*
X1556546Y1594390D02*
Y1595532D01*
X1556566Y1594390D02*
Y1595532D01*
X1556585Y1594390D02*
Y1595532D01*
X1556605Y1594390D02*
Y1595532D01*
X1556625Y1594390D02*
Y1595532D01*
X1556644Y1594390D02*
Y1595532D01*
X1556664Y1594390D02*
Y1595532D01*
X1556684Y1594390D02*
Y1595532D01*
X1556703Y1594390D02*
Y1595532D01*
X1556723Y1594390D02*
Y1595532D01*
X1556743Y1594390D02*
Y1595532D01*
X1556762Y1594390D02*
Y1595532D01*
X1556782Y1594390D02*
Y1595532D01*
X1556802Y1594390D02*
Y1595532D01*
X1556822Y1594390D02*
Y1595532D01*
X1556841Y1594390D02*
Y1595532D01*
X1556861Y1594390D02*
Y1595532D01*
X1556881Y1594390D02*
Y1595532D01*
X1556900Y1594390D02*
Y1595532D01*
X1556920Y1594390D02*
Y1595532D01*
X1556940Y1594390D02*
Y1595532D01*
X1556959Y1594390D02*
Y1595532D01*
X1556979Y1594390D02*
Y1595532D01*
X1556999Y1594390D02*
Y1595532D01*
X1557018Y1594390D02*
Y1595532D01*
X1557038Y1594390D02*
Y1595532D01*
X1557058Y1594390D02*
Y1595532D01*
X1557077Y1594390D02*
Y1595532D01*
X1557097Y1594390D02*
Y1595532D01*
X1557117Y1594390D02*
Y1595532D01*
X1557136Y1594390D02*
Y1595532D01*
X1557156Y1594390D02*
Y1595532D01*
X1557176Y1594390D02*
Y1595532D01*
X1557196Y1594390D02*
Y1595532D01*
X1557215Y1594390D02*
Y1595532D01*
X1557235Y1594390D02*
Y1595532D01*
X1557255Y1594390D02*
Y1595532D01*
X1557274Y1594390D02*
Y1595532D01*
X1557294Y1594390D02*
Y1595532D01*
X1557314Y1594390D02*
Y1595532D01*
X1557333Y1594390D02*
Y1595532D01*
X1557353Y1594390D02*
Y1595532D01*
X1557373Y1594390D02*
Y1595532D01*
X1557392Y1594390D02*
Y1595532D01*
X1557412Y1594390D02*
Y1595532D01*
X1557432Y1594390D02*
Y1595532D01*
X1557451Y1594390D02*
Y1595532D01*
X1557471Y1594390D02*
Y1595532D01*
X1557491Y1594390D02*
Y1595532D01*
X1557510Y1594390D02*
Y1595532D01*
X1557530Y1594390D02*
Y1595532D01*
X1557550Y1594390D02*
Y1595532D01*
X1557570Y1594390D02*
Y1595532D01*
X1557589Y1594390D02*
Y1595532D01*
X1557609Y1594390D02*
Y1595532D01*
X1557629Y1594390D02*
Y1595532D01*
X1557648Y1594390D02*
Y1595532D01*
X1557668Y1594390D02*
Y1595532D01*
X1557688Y1594390D02*
Y1595532D01*
X1557707Y1594390D02*
Y1595532D01*
X1557727Y1594390D02*
Y1595532D01*
X1557747Y1594390D02*
Y1595532D01*
X1557766Y1594390D02*
Y1595532D01*
X1557786Y1594390D02*
Y1595532D01*
X1557806Y1594390D02*
Y1595532D01*
X1557825Y1594390D02*
Y1595532D01*
X1557845Y1594390D02*
Y1595532D01*
X1557865Y1594390D02*
Y1595532D01*
X1557885Y1594390D02*
Y1595532D01*
X1557904Y1594390D02*
Y1595532D01*
X1557924Y1594390D02*
Y1595532D01*
X1557944Y1594390D02*
Y1595532D01*
X1557963Y1594390D02*
Y1595532D01*
X1557983Y1594390D02*
Y1595532D01*
X1558003Y1594390D02*
Y1595532D01*
X1558022Y1594390D02*
Y1595532D01*
X1558042Y1594390D02*
Y1595532D01*
X1558062Y1594390D02*
Y1595532D01*
X1558081Y1594390D02*
Y1595532D01*
X1558101Y1594390D02*
Y1595532D01*
X1558121Y1594390D02*
Y1595532D01*
X1558140Y1594390D02*
Y1595532D01*
X1558160Y1594390D02*
Y1595532D01*
X1558180Y1594390D02*
Y1595532D01*
X1558199Y1593564D02*
Y1592422D01*
X1555463*
X1555426Y1592423*
X1555389Y1592427*
X1555352Y1592433*
X1555315Y1592441*
X1555280Y1592452*
X1555245Y1592465*
X1555211Y1592481*
X1555178Y1592498*
X1555146Y1592518*
X1555116Y1592540*
X1555087Y1592563*
X1555060Y1592589*
X1555034Y1592616*
X1555010Y1592645*
X1554989Y1592676*
X1554969Y1592707*
X1554951Y1592740*
X1554936Y1592774*
X1554923Y1592809*
X1554912Y1592845*
X1554903Y1592881*
X1554897Y1592918*
X1554894Y1592955*
X1554892Y1592993*
X1554894Y1593030*
X1554897Y1593067*
X1554903Y1593104*
X1554912Y1593140*
X1554923Y1593176*
X1554936Y1593211*
X1554951Y1593245*
X1554969Y1593278*
X1554989Y1593310*
X1555010Y1593340*
X1555034Y1593369*
X1555060Y1593396*
X1555087Y1593422*
X1555116Y1593446*
X1555146Y1593467*
X1555178Y1593487*
X1555211Y1593505*
X1555245Y1593520*
X1555280Y1593533*
X1555315Y1593544*
X1555352Y1593553*
X1555389Y1593559*
X1555426Y1593562*
X1555463Y1593564*
X1558199*
X1554892Y1592993D02*
X1554892D01*
X1554912Y1592844D02*
Y1593141D01*
X1554932Y1592785D02*
Y1593200D01*
X1554951Y1592740D02*
Y1593246D01*
X1554971Y1592704D02*
Y1593282D01*
X1554991Y1592672D02*
Y1593313D01*
X1555010Y1592645D02*
Y1593340D01*
X1555030Y1592621D02*
Y1593364D01*
X1555050Y1592599D02*
Y1593386D01*
X1555070Y1592580D02*
Y1593406D01*
X1555089Y1592562D02*
Y1593424D01*
X1555109Y1592545D02*
Y1593440D01*
X1555129Y1592531D02*
Y1593455D01*
X1555148Y1592517D02*
Y1593469D01*
X1555168Y1592504D02*
Y1593481D01*
X1555188Y1592493D02*
Y1593492D01*
X1555207Y1592483D02*
Y1593503D01*
X1555227Y1592473D02*
Y1593512D01*
X1555247Y1592465D02*
Y1593521D01*
X1555266Y1592457D02*
Y1593528D01*
X1555286Y1592450D02*
Y1593535D01*
X1555306Y1592444D02*
Y1593541D01*
X1555325Y1592439D02*
Y1593546D01*
X1555345Y1592434D02*
Y1593551D01*
X1555365Y1592431D02*
Y1593555D01*
X1555385Y1592427D02*
Y1593558D01*
X1555404Y1592425D02*
Y1593560D01*
X1555424Y1592423D02*
Y1593562D01*
X1555444Y1592422D02*
Y1593563D01*
X1555463Y1592422D02*
Y1593564D01*
X1555483Y1592422D02*
Y1593564D01*
X1555503Y1592422D02*
Y1593564D01*
X1555522Y1592422D02*
Y1593564D01*
X1555542Y1592422D02*
Y1593564D01*
X1555562Y1592422D02*
Y1593564D01*
X1555581Y1592422D02*
Y1593564D01*
X1555601Y1592422D02*
Y1593564D01*
X1555621Y1592422D02*
Y1593564D01*
X1555640Y1592422D02*
Y1593564D01*
X1555660Y1592422D02*
Y1593564D01*
X1555680Y1592422D02*
Y1593564D01*
X1555699Y1592422D02*
Y1593564D01*
X1555719Y1592422D02*
Y1593564D01*
X1555739Y1592422D02*
Y1593564D01*
X1555759Y1592422D02*
Y1593564D01*
X1555778Y1592422D02*
Y1593564D01*
X1555798Y1592422D02*
Y1593564D01*
X1555818Y1592422D02*
Y1593564D01*
X1555837Y1592422D02*
Y1593564D01*
X1555857Y1592422D02*
Y1593564D01*
X1555877Y1592422D02*
Y1593564D01*
X1555896Y1592422D02*
Y1593564D01*
X1555916Y1592422D02*
Y1593564D01*
X1555936Y1592422D02*
Y1593564D01*
X1555955Y1592422D02*
Y1593564D01*
X1555975Y1592422D02*
Y1593564D01*
X1555995Y1592422D02*
Y1593564D01*
X1556014Y1592422D02*
Y1593564D01*
X1556034Y1592422D02*
Y1593564D01*
X1556054Y1592422D02*
Y1593564D01*
X1556073Y1592422D02*
Y1593564D01*
X1556093Y1592422D02*
Y1593564D01*
X1556113Y1592422D02*
Y1593564D01*
X1556133Y1592422D02*
Y1593564D01*
X1556152Y1592422D02*
Y1593564D01*
X1556172Y1592422D02*
Y1593564D01*
X1556192Y1592422D02*
Y1593564D01*
X1556211Y1592422D02*
Y1593564D01*
X1556231Y1592422D02*
Y1593564D01*
X1556251Y1592422D02*
Y1593564D01*
X1556270Y1592422D02*
Y1593564D01*
X1556290Y1592422D02*
Y1593564D01*
X1556310Y1592422D02*
Y1593564D01*
X1556329Y1592422D02*
Y1593564D01*
X1556349Y1592422D02*
Y1593564D01*
X1556369Y1592422D02*
Y1593564D01*
X1556388Y1592422D02*
Y1593564D01*
X1556408Y1592422D02*
Y1593564D01*
X1556428Y1592422D02*
Y1593564D01*
X1556447Y1592422D02*
Y1593564D01*
X1556467Y1592422D02*
Y1593564D01*
X1556487Y1592422D02*
Y1593564D01*
X1556507Y1592422D02*
Y1593564D01*
X1556526Y1592422D02*
Y1593564D01*
X1556546Y1592422D02*
Y1593564D01*
X1556566Y1592422D02*
Y1593564D01*
X1556585Y1592422D02*
Y1593564D01*
X1556605Y1592422D02*
Y1593564D01*
X1556625Y1592422D02*
Y1593564D01*
X1556644Y1592422D02*
Y1593564D01*
X1556664Y1592422D02*
Y1593564D01*
X1556684Y1592422D02*
Y1593564D01*
X1556703Y1592422D02*
Y1593564D01*
X1556723Y1592422D02*
Y1593564D01*
X1556743Y1592422D02*
Y1593564D01*
X1556762Y1592422D02*
Y1593564D01*
X1556782Y1592422D02*
Y1593564D01*
X1556802Y1592422D02*
Y1593564D01*
X1556822Y1592422D02*
Y1593564D01*
X1556841Y1592422D02*
Y1593564D01*
X1556861Y1592422D02*
Y1593564D01*
X1556881Y1592422D02*
Y1593564D01*
X1556900Y1592422D02*
Y1593564D01*
X1556920Y1592422D02*
Y1593564D01*
X1556940Y1592422D02*
Y1593564D01*
X1556959Y1592422D02*
Y1593564D01*
X1556979Y1592422D02*
Y1593564D01*
X1556999Y1592422D02*
Y1593564D01*
X1557018Y1592422D02*
Y1593564D01*
X1557038Y1592422D02*
Y1593564D01*
X1557058Y1592422D02*
Y1593564D01*
X1557077Y1592422D02*
Y1593564D01*
X1557097Y1592422D02*
Y1593564D01*
X1557117Y1592422D02*
Y1593564D01*
X1557136Y1592422D02*
Y1593564D01*
X1557156Y1592422D02*
Y1593564D01*
X1557176Y1592422D02*
Y1593564D01*
X1557196Y1592422D02*
Y1593564D01*
X1557215Y1592422D02*
Y1593564D01*
X1557235Y1592422D02*
Y1593564D01*
X1557255Y1592422D02*
Y1593564D01*
X1557274Y1592422D02*
Y1593564D01*
X1557294Y1592422D02*
Y1593564D01*
X1557314Y1592422D02*
Y1593564D01*
X1557333Y1592422D02*
Y1593564D01*
X1557353Y1592422D02*
Y1593564D01*
X1557373Y1592422D02*
Y1593564D01*
X1557392Y1592422D02*
Y1593564D01*
X1557412Y1592422D02*
Y1593564D01*
X1557432Y1592422D02*
Y1593564D01*
X1557451Y1592422D02*
Y1593564D01*
X1557471Y1592422D02*
Y1593564D01*
X1557491Y1592422D02*
Y1593564D01*
X1557510Y1592422D02*
Y1593564D01*
X1557530Y1592422D02*
Y1593564D01*
X1557550Y1592422D02*
Y1593564D01*
X1557570Y1592422D02*
Y1593564D01*
X1557589Y1592422D02*
Y1593564D01*
X1557609Y1592422D02*
Y1593564D01*
X1557629Y1592422D02*
Y1593564D01*
X1557648Y1592422D02*
Y1593564D01*
X1557668Y1592422D02*
Y1593564D01*
X1557688Y1592422D02*
Y1593564D01*
X1557707Y1592422D02*
Y1593564D01*
X1557727Y1592422D02*
Y1593564D01*
X1557747Y1592422D02*
Y1593564D01*
X1557766Y1592422D02*
Y1593564D01*
X1557786Y1592422D02*
Y1593564D01*
X1557806Y1592422D02*
Y1593564D01*
X1557825Y1592422D02*
Y1593564D01*
X1557845Y1592422D02*
Y1593564D01*
X1557865Y1592422D02*
Y1593564D01*
X1557885Y1592422D02*
Y1593564D01*
X1557904Y1592422D02*
Y1593564D01*
X1557924Y1592422D02*
Y1593564D01*
X1557944Y1592422D02*
Y1593564D01*
X1557963Y1592422D02*
Y1593564D01*
X1557983Y1592422D02*
Y1593564D01*
X1558003Y1592422D02*
Y1593564D01*
X1558022Y1592422D02*
Y1593564D01*
X1558042Y1592422D02*
Y1593564D01*
X1558062Y1592422D02*
Y1593564D01*
X1558081Y1592422D02*
Y1593564D01*
X1558101Y1592422D02*
Y1593564D01*
X1558121Y1592422D02*
Y1593564D01*
X1558140Y1592422D02*
Y1593564D01*
X1558160Y1592422D02*
Y1593564D01*
X1558180Y1592422D02*
Y1593564D01*
X1558199Y1591595D02*
Y1590453D01*
X1555463*
X1555426Y1590455*
X1555389Y1590458*
X1555352Y1590464*
X1555315Y1590473*
X1555280Y1590484*
X1555245Y1590497*
X1555211Y1590512*
X1555178Y1590530*
X1555146Y1590550*
X1555116Y1590571*
X1555087Y1590595*
X1555060Y1590621*
X1555034Y1590648*
X1555010Y1590677*
X1554989Y1590707*
X1554969Y1590739*
X1554951Y1590772*
X1554936Y1590806*
X1554923Y1590841*
X1554912Y1590876*
X1554903Y1590913*
X1554897Y1590950*
X1554894Y1590987*
X1554892Y1591024*
X1554894Y1591062*
X1554897Y1591099*
X1554903Y1591136*
X1554912Y1591172*
X1554923Y1591208*
X1554936Y1591243*
X1554951Y1591277*
X1554969Y1591310*
X1554989Y1591341*
X1555010Y1591372*
X1555034Y1591401*
X1555060Y1591428*
X1555087Y1591453*
X1555116Y1591477*
X1555146Y1591499*
X1555178Y1591519*
X1555211Y1591536*
X1555245Y1591552*
X1555280Y1591565*
X1555315Y1591576*
X1555352Y1591584*
X1555389Y1591590*
X1555426Y1591594*
X1555463Y1591595*
X1558199*
X1554892Y1591024D02*
X1554892D01*
X1554912Y1590876D02*
Y1591173D01*
X1554932Y1590817D02*
Y1591232D01*
X1554951Y1590771D02*
Y1591277D01*
X1554971Y1590735D02*
Y1591313D01*
X1554991Y1590704D02*
Y1591344D01*
X1555010Y1590676D02*
Y1591372D01*
X1555030Y1590652D02*
Y1591396D01*
X1555050Y1590631D02*
Y1591417D01*
X1555070Y1590611D02*
Y1591437D01*
X1555089Y1590593D02*
Y1591455D01*
X1555109Y1590577D02*
Y1591471D01*
X1555129Y1590562D02*
Y1591486D01*
X1555148Y1590548D02*
Y1591500D01*
X1555168Y1590536D02*
Y1591512D01*
X1555188Y1590525D02*
Y1591524D01*
X1555207Y1590514D02*
Y1591534D01*
X1555227Y1590505D02*
Y1591544D01*
X1555247Y1590496D02*
Y1591552D01*
X1555266Y1590489D02*
Y1591560D01*
X1555286Y1590482D02*
Y1591567D01*
X1555306Y1590476D02*
Y1591573D01*
X1555325Y1590470D02*
Y1591578D01*
X1555345Y1590466D02*
Y1591583D01*
X1555365Y1590462D02*
Y1591586D01*
X1555385Y1590459D02*
Y1591589D01*
X1555404Y1590457D02*
Y1591592D01*
X1555424Y1590455D02*
Y1591594D01*
X1555444Y1590454D02*
Y1591594D01*
X1555463Y1590453D02*
Y1591595D01*
X1555483Y1590453D02*
Y1591595D01*
X1555503Y1590453D02*
Y1591595D01*
X1555522Y1590453D02*
Y1591595D01*
X1555542Y1590453D02*
Y1591595D01*
X1555562Y1590453D02*
Y1591595D01*
X1555581Y1590453D02*
Y1591595D01*
X1555601Y1590453D02*
Y1591595D01*
X1555621Y1590453D02*
Y1591595D01*
X1555640Y1590453D02*
Y1591595D01*
X1555660Y1590453D02*
Y1591595D01*
X1555680Y1590453D02*
Y1591595D01*
X1555699Y1590453D02*
Y1591595D01*
X1555719Y1590453D02*
Y1591595D01*
X1555739Y1590453D02*
Y1591595D01*
X1555759Y1590453D02*
Y1591595D01*
X1555778Y1590453D02*
Y1591595D01*
X1555798Y1590453D02*
Y1591595D01*
X1555818Y1590453D02*
Y1591595D01*
X1555837Y1590453D02*
Y1591595D01*
X1555857Y1590453D02*
Y1591595D01*
X1555877Y1590453D02*
Y1591595D01*
X1555896Y1590453D02*
Y1591595D01*
X1555916Y1590453D02*
Y1591595D01*
X1555936Y1590453D02*
Y1591595D01*
X1555955Y1590453D02*
Y1591595D01*
X1555975Y1590453D02*
Y1591595D01*
X1555995Y1590453D02*
Y1591595D01*
X1556014Y1590453D02*
Y1591595D01*
X1556034Y1590453D02*
Y1591595D01*
X1556054Y1590453D02*
Y1591595D01*
X1556073Y1590453D02*
Y1591595D01*
X1556093Y1590453D02*
Y1591595D01*
X1556113Y1590453D02*
Y1591595D01*
X1556133Y1590453D02*
Y1591595D01*
X1556152Y1590453D02*
Y1591595D01*
X1556172Y1590453D02*
Y1591595D01*
X1556192Y1590453D02*
Y1591595D01*
X1556211Y1590453D02*
Y1591595D01*
X1556231Y1590453D02*
Y1591595D01*
X1556251Y1590453D02*
Y1591595D01*
X1556270Y1590453D02*
Y1591595D01*
X1556290Y1590453D02*
Y1591595D01*
X1556310Y1590453D02*
Y1591595D01*
X1556329Y1590453D02*
Y1591595D01*
X1556349Y1590453D02*
Y1591595D01*
X1556369Y1590453D02*
Y1591595D01*
X1556388Y1590453D02*
Y1591595D01*
X1556408Y1590453D02*
Y1591595D01*
X1556428Y1590453D02*
Y1591595D01*
X1556447Y1590453D02*
Y1591595D01*
X1556467Y1590453D02*
Y1591595D01*
X1556487Y1590453D02*
Y1591595D01*
X1556507Y1590453D02*
Y1591595D01*
X1556526Y1590453D02*
Y1591595D01*
X1556546Y1590453D02*
Y1591595D01*
X1556566Y1590453D02*
Y1591595D01*
X1556585Y1590453D02*
Y1591595D01*
X1556605Y1590453D02*
Y1591595D01*
X1556625Y1590453D02*
Y1591595D01*
X1556644Y1590453D02*
Y1591595D01*
X1556664Y1590453D02*
Y1591595D01*
X1556684Y1590453D02*
Y1591595D01*
X1556703Y1590453D02*
Y1591595D01*
X1556723Y1590453D02*
Y1591595D01*
X1556743Y1590453D02*
Y1591595D01*
X1556762Y1590453D02*
Y1591595D01*
X1556782Y1590453D02*
Y1591595D01*
X1556802Y1590453D02*
Y1591595D01*
X1556822Y1590453D02*
Y1591595D01*
X1556841Y1590453D02*
Y1591595D01*
X1556861Y1590453D02*
Y1591595D01*
X1556881Y1590453D02*
Y1591595D01*
X1556900Y1590453D02*
Y1591595D01*
X1556920Y1590453D02*
Y1591595D01*
X1556940Y1590453D02*
Y1591595D01*
X1556959Y1590453D02*
Y1591595D01*
X1556979Y1590453D02*
Y1591595D01*
X1556999Y1590453D02*
Y1591595D01*
X1557018Y1590453D02*
Y1591595D01*
X1557038Y1590453D02*
Y1591595D01*
X1557058Y1590453D02*
Y1591595D01*
X1557077Y1590453D02*
Y1591595D01*
X1557097Y1590453D02*
Y1591595D01*
X1557117Y1590453D02*
Y1591595D01*
X1557136Y1590453D02*
Y1591595D01*
X1557156Y1590453D02*
Y1591595D01*
X1557176Y1590453D02*
Y1591595D01*
X1557196Y1590453D02*
Y1591595D01*
X1557215Y1590453D02*
Y1591595D01*
X1557235Y1590453D02*
Y1591595D01*
X1557255Y1590453D02*
Y1591595D01*
X1557274Y1590453D02*
Y1591595D01*
X1557294Y1590453D02*
Y1591595D01*
X1557314Y1590453D02*
Y1591595D01*
X1557333Y1590453D02*
Y1591595D01*
X1557353Y1590453D02*
Y1591595D01*
X1557373Y1590453D02*
Y1591595D01*
X1557392Y1590453D02*
Y1591595D01*
X1557412Y1590453D02*
Y1591595D01*
X1557432Y1590453D02*
Y1591595D01*
X1557451Y1590453D02*
Y1591595D01*
X1557471Y1590453D02*
Y1591595D01*
X1557491Y1590453D02*
Y1591595D01*
X1557510Y1590453D02*
Y1591595D01*
X1557530Y1590453D02*
Y1591595D01*
X1557550Y1590453D02*
Y1591595D01*
X1557570Y1590453D02*
Y1591595D01*
X1557589Y1590453D02*
Y1591595D01*
X1557609Y1590453D02*
Y1591595D01*
X1557629Y1590453D02*
Y1591595D01*
X1557648Y1590453D02*
Y1591595D01*
X1557668Y1590453D02*
Y1591595D01*
X1557688Y1590453D02*
Y1591595D01*
X1557707Y1590453D02*
Y1591595D01*
X1557727Y1590453D02*
Y1591595D01*
X1557747Y1590453D02*
Y1591595D01*
X1557766Y1590453D02*
Y1591595D01*
X1557786Y1590453D02*
Y1591595D01*
X1557806Y1590453D02*
Y1591595D01*
X1557825Y1590453D02*
Y1591595D01*
X1557845Y1590453D02*
Y1591595D01*
X1557865Y1590453D02*
Y1591595D01*
X1557885Y1590453D02*
Y1591595D01*
X1557904Y1590453D02*
Y1591595D01*
X1557924Y1590453D02*
Y1591595D01*
X1557944Y1590453D02*
Y1591595D01*
X1557963Y1590453D02*
Y1591595D01*
X1557983Y1590453D02*
Y1591595D01*
X1558003Y1590453D02*
Y1591595D01*
X1558022Y1590453D02*
Y1591595D01*
X1558042Y1590453D02*
Y1591595D01*
X1558062Y1590453D02*
Y1591595D01*
X1558081Y1590453D02*
Y1591595D01*
X1558101Y1590453D02*
Y1591595D01*
X1558121Y1590453D02*
Y1591595D01*
X1558140Y1590453D02*
Y1591595D01*
X1558160Y1590453D02*
Y1591595D01*
X1558180Y1590453D02*
Y1591595D01*
X1558199Y1589627D02*
Y1588485D01*
X1555463*
X1555426Y1588486*
X1555389Y1588490*
X1555352Y1588496*
X1555315Y1588504*
X1555280Y1588515*
X1555245Y1588528*
X1555211Y1588544*
X1555178Y1588561*
X1555146Y1588581*
X1555116Y1588603*
X1555087Y1588626*
X1555060Y1588652*
X1555034Y1588679*
X1555010Y1588708*
X1554989Y1588739*
X1554969Y1588770*
X1554951Y1588803*
X1554936Y1588837*
X1554923Y1588872*
X1554912Y1588908*
X1554903Y1588944*
X1554897Y1588981*
X1554894Y1589018*
X1554892Y1589056*
X1554894Y1589093*
X1554897Y1589130*
X1554903Y1589167*
X1554912Y1589203*
X1554923Y1589239*
X1554936Y1589274*
X1554951Y1589308*
X1554969Y1589341*
X1554989Y1589373*
X1555010Y1589403*
X1555034Y1589432*
X1555060Y1589459*
X1555087Y1589485*
X1555116Y1589509*
X1555146Y1589530*
X1555178Y1589550*
X1555211Y1589568*
X1555245Y1589583*
X1555280Y1589596*
X1555315Y1589607*
X1555352Y1589616*
X1555389Y1589622*
X1555426Y1589625*
X1555463Y1589627*
X1558199*
X1554892Y1589056D02*
X1554892D01*
X1554912Y1588907D02*
Y1589204D01*
X1554932Y1588848D02*
Y1589263D01*
X1554951Y1588803D02*
Y1589309D01*
X1554971Y1588767D02*
Y1589345D01*
X1554991Y1588735D02*
Y1589376D01*
X1555010Y1588708D02*
Y1589403D01*
X1555030Y1588684D02*
Y1589427D01*
X1555050Y1588662D02*
Y1589449D01*
X1555070Y1588643D02*
Y1589469D01*
X1555089Y1588625D02*
Y1589487D01*
X1555109Y1588608D02*
Y1589503D01*
X1555129Y1588594D02*
Y1589518D01*
X1555148Y1588580D02*
Y1589532D01*
X1555168Y1588567D02*
Y1589544D01*
X1555188Y1588556D02*
Y1589555D01*
X1555207Y1588546D02*
Y1589566D01*
X1555227Y1588536D02*
Y1589575D01*
X1555247Y1588528D02*
Y1589584D01*
X1555266Y1588520D02*
Y1589591D01*
X1555286Y1588513D02*
Y1589598D01*
X1555306Y1588507D02*
Y1589604D01*
X1555325Y1588502D02*
Y1589609D01*
X1555345Y1588497D02*
Y1589614D01*
X1555365Y1588494D02*
Y1589618D01*
X1555385Y1588490D02*
Y1589621D01*
X1555404Y1588488D02*
Y1589623D01*
X1555424Y1588486D02*
Y1589625D01*
X1555444Y1588485D02*
Y1589626D01*
X1555463Y1588485D02*
Y1589627D01*
X1555483Y1588485D02*
Y1589627D01*
X1555503Y1588485D02*
Y1589627D01*
X1555522Y1588485D02*
Y1589627D01*
X1555542Y1588485D02*
Y1589627D01*
X1555562Y1588485D02*
Y1589627D01*
X1555581Y1588485D02*
Y1589627D01*
X1555601Y1588485D02*
Y1589627D01*
X1555621Y1588485D02*
Y1589627D01*
X1555640Y1588485D02*
Y1589627D01*
X1555660Y1588485D02*
Y1589627D01*
X1555680Y1588485D02*
Y1589627D01*
X1555699Y1588485D02*
Y1589627D01*
X1555719Y1588485D02*
Y1589627D01*
X1555739Y1588485D02*
Y1589627D01*
X1555759Y1588485D02*
Y1589627D01*
X1555778Y1588485D02*
Y1589627D01*
X1555798Y1588485D02*
Y1589627D01*
X1555818Y1588485D02*
Y1589627D01*
X1555837Y1588485D02*
Y1589627D01*
X1555857Y1588485D02*
Y1589627D01*
X1555877Y1588485D02*
Y1589627D01*
X1555896Y1588485D02*
Y1589627D01*
X1555916Y1588485D02*
Y1589627D01*
X1555936Y1588485D02*
Y1589627D01*
X1555955Y1588485D02*
Y1589627D01*
X1555975Y1588485D02*
Y1589627D01*
X1555995Y1588485D02*
Y1589627D01*
X1556014Y1588485D02*
Y1589627D01*
X1556034Y1588485D02*
Y1589627D01*
X1556054Y1588485D02*
Y1589627D01*
X1556073Y1588485D02*
Y1589627D01*
X1556093Y1588485D02*
Y1589627D01*
X1556113Y1588485D02*
Y1589627D01*
X1556133Y1588485D02*
Y1589627D01*
X1556152Y1588485D02*
Y1589627D01*
X1556172Y1588485D02*
Y1589627D01*
X1556192Y1588485D02*
Y1589627D01*
X1556211Y1588485D02*
Y1589627D01*
X1556231Y1588485D02*
Y1589627D01*
X1556251Y1588485D02*
Y1589627D01*
X1556270Y1588485D02*
Y1589627D01*
X1556290Y1588485D02*
Y1589627D01*
X1556310Y1588485D02*
Y1589627D01*
X1556329Y1588485D02*
Y1589627D01*
X1556349Y1588485D02*
Y1589627D01*
X1556369Y1588485D02*
Y1589627D01*
X1556388Y1588485D02*
Y1589627D01*
X1556408Y1588485D02*
Y1589627D01*
X1556428Y1588485D02*
Y1589627D01*
X1556447Y1588485D02*
Y1589627D01*
X1556467Y1588485D02*
Y1589627D01*
X1556487Y1588485D02*
Y1589627D01*
X1556507Y1588485D02*
Y1589627D01*
X1556526Y1588485D02*
Y1589627D01*
X1556546Y1588485D02*
Y1589627D01*
X1556566Y1588485D02*
Y1589627D01*
X1556585Y1588485D02*
Y1589627D01*
X1556605Y1588485D02*
Y1589627D01*
X1556625Y1588485D02*
Y1589627D01*
X1556644Y1588485D02*
Y1589627D01*
X1556664Y1588485D02*
Y1589627D01*
X1556684Y1588485D02*
Y1589627D01*
X1556703Y1588485D02*
Y1589627D01*
X1556723Y1588485D02*
Y1589627D01*
X1556743Y1588485D02*
Y1589627D01*
X1556762Y1588485D02*
Y1589627D01*
X1556782Y1588485D02*
Y1589627D01*
X1556802Y1588485D02*
Y1589627D01*
X1556822Y1588485D02*
Y1589627D01*
X1556841Y1588485D02*
Y1589627D01*
X1556861Y1588485D02*
Y1589627D01*
X1556881Y1588485D02*
Y1589627D01*
X1556900Y1588485D02*
Y1589627D01*
X1556920Y1588485D02*
Y1589627D01*
X1556940Y1588485D02*
Y1589627D01*
X1556959Y1588485D02*
Y1589627D01*
X1556979Y1588485D02*
Y1589627D01*
X1556999Y1588485D02*
Y1589627D01*
X1557018Y1588485D02*
Y1589627D01*
X1557038Y1588485D02*
Y1589627D01*
X1557058Y1588485D02*
Y1589627D01*
X1557077Y1588485D02*
Y1589627D01*
X1557097Y1588485D02*
Y1589627D01*
X1557117Y1588485D02*
Y1589627D01*
X1557136Y1588485D02*
Y1589627D01*
X1557156Y1588485D02*
Y1589627D01*
X1557176Y1588485D02*
Y1589627D01*
X1557196Y1588485D02*
Y1589627D01*
X1557215Y1588485D02*
Y1589627D01*
X1557235Y1588485D02*
Y1589627D01*
X1557255Y1588485D02*
Y1589627D01*
X1557274Y1588485D02*
Y1589627D01*
X1557294Y1588485D02*
Y1589627D01*
X1557314Y1588485D02*
Y1589627D01*
X1557333Y1588485D02*
Y1589627D01*
X1557353Y1588485D02*
Y1589627D01*
X1557373Y1588485D02*
Y1589627D01*
X1557392Y1588485D02*
Y1589627D01*
X1557412Y1588485D02*
Y1589627D01*
X1557432Y1588485D02*
Y1589627D01*
X1557451Y1588485D02*
Y1589627D01*
X1557471Y1588485D02*
Y1589627D01*
X1557491Y1588485D02*
Y1589627D01*
X1557510Y1588485D02*
Y1589627D01*
X1557530Y1588485D02*
Y1589627D01*
X1557550Y1588485D02*
Y1589627D01*
X1557570Y1588485D02*
Y1589627D01*
X1557589Y1588485D02*
Y1589627D01*
X1557609Y1588485D02*
Y1589627D01*
X1557629Y1588485D02*
Y1589627D01*
X1557648Y1588485D02*
Y1589627D01*
X1557668Y1588485D02*
Y1589627D01*
X1557688Y1588485D02*
Y1589627D01*
X1557707Y1588485D02*
Y1589627D01*
X1557727Y1588485D02*
Y1589627D01*
X1557747Y1588485D02*
Y1589627D01*
X1557766Y1588485D02*
Y1589627D01*
X1557786Y1588485D02*
Y1589627D01*
X1557806Y1588485D02*
Y1589627D01*
X1557825Y1588485D02*
Y1589627D01*
X1557845Y1588485D02*
Y1589627D01*
X1557865Y1588485D02*
Y1589627D01*
X1557885Y1588485D02*
Y1589627D01*
X1557904Y1588485D02*
Y1589627D01*
X1557924Y1588485D02*
Y1589627D01*
X1557944Y1588485D02*
Y1589627D01*
X1557963Y1588485D02*
Y1589627D01*
X1557983Y1588485D02*
Y1589627D01*
X1558003Y1588485D02*
Y1589627D01*
X1558022Y1588485D02*
Y1589627D01*
X1558042Y1588485D02*
Y1589627D01*
X1558062Y1588485D02*
Y1589627D01*
X1558081Y1588485D02*
Y1589627D01*
X1558101Y1588485D02*
Y1589627D01*
X1558121Y1588485D02*
Y1589627D01*
X1558140Y1588485D02*
Y1589627D01*
X1558160Y1588485D02*
Y1589627D01*
X1558180Y1588485D02*
Y1589627D01*
X1558199Y1587658D02*
Y1586516D01*
X1555463*
X1555426Y1586518*
X1555389Y1586521*
X1555352Y1586527*
X1555315Y1586536*
X1555280Y1586547*
X1555245Y1586560*
X1555211Y1586575*
X1555178Y1586593*
X1555146Y1586613*
X1555116Y1586634*
X1555087Y1586658*
X1555060Y1586684*
X1555034Y1586711*
X1555010Y1586740*
X1554989Y1586770*
X1554969Y1586802*
X1554951Y1586835*
X1554936Y1586869*
X1554923Y1586904*
X1554912Y1586939*
X1554903Y1586976*
X1554897Y1587013*
X1554894Y1587050*
X1554892Y1587087*
X1554894Y1587125*
X1554897Y1587162*
X1554903Y1587199*
X1554912Y1587235*
X1554923Y1587271*
X1554936Y1587306*
X1554951Y1587340*
X1554969Y1587373*
X1554989Y1587404*
X1555010Y1587435*
X1555034Y1587464*
X1555060Y1587491*
X1555087Y1587516*
X1555116Y1587540*
X1555146Y1587562*
X1555178Y1587582*
X1555211Y1587599*
X1555245Y1587615*
X1555280Y1587628*
X1555315Y1587639*
X1555352Y1587647*
X1555389Y1587653*
X1555426Y1587657*
X1555463Y1587658*
X1558199*
X1554892Y1587087D02*
X1554892D01*
X1554912Y1586939D02*
Y1587236D01*
X1554932Y1586880D02*
Y1587295D01*
X1554951Y1586834D02*
Y1587340D01*
X1554971Y1586798D02*
Y1587376D01*
X1554991Y1586767D02*
Y1587407D01*
X1555010Y1586739D02*
Y1587435D01*
X1555030Y1586715D02*
Y1587459D01*
X1555050Y1586694D02*
Y1587480D01*
X1555070Y1586674D02*
Y1587500D01*
X1555089Y1586656D02*
Y1587518D01*
X1555109Y1586640D02*
Y1587534D01*
X1555129Y1586625D02*
Y1587549D01*
X1555148Y1586611D02*
Y1587563D01*
X1555168Y1586599D02*
Y1587575D01*
X1555188Y1586588D02*
Y1587587D01*
X1555207Y1586577D02*
Y1587597D01*
X1555227Y1586568D02*
Y1587607D01*
X1555247Y1586559D02*
Y1587615D01*
X1555266Y1586552D02*
Y1587623D01*
X1555286Y1586545D02*
Y1587630D01*
X1555306Y1586539D02*
Y1587636D01*
X1555325Y1586533D02*
Y1587641D01*
X1555345Y1586529D02*
Y1587645D01*
X1555365Y1586525D02*
Y1587649D01*
X1555385Y1586522D02*
Y1587652D01*
X1555404Y1586520D02*
Y1587655D01*
X1555424Y1586518D02*
Y1587657D01*
X1555444Y1586517D02*
Y1587657D01*
X1555463Y1586516D02*
Y1587658D01*
X1555483Y1586516D02*
Y1587658D01*
X1555503Y1586516D02*
Y1587658D01*
X1555522Y1586516D02*
Y1587658D01*
X1555542Y1586516D02*
Y1587658D01*
X1555562Y1586516D02*
Y1587658D01*
X1555581Y1586516D02*
Y1587658D01*
X1555601Y1586516D02*
Y1587658D01*
X1555621Y1586516D02*
Y1587658D01*
X1555640Y1586516D02*
Y1587658D01*
X1555660Y1586516D02*
Y1587658D01*
X1555680Y1586516D02*
Y1587658D01*
X1555699Y1586516D02*
Y1587658D01*
X1555719Y1586516D02*
Y1587658D01*
X1555739Y1586516D02*
Y1587658D01*
X1555759Y1586516D02*
Y1587658D01*
X1555778Y1586516D02*
Y1587658D01*
X1555798Y1586516D02*
Y1587658D01*
X1555818Y1586516D02*
Y1587658D01*
X1555837Y1586516D02*
Y1587658D01*
X1555857Y1586516D02*
Y1587658D01*
X1555877Y1586516D02*
Y1587658D01*
X1555896Y1586516D02*
Y1587658D01*
X1555916Y1586516D02*
Y1587658D01*
X1555936Y1586516D02*
Y1587658D01*
X1555955Y1586516D02*
Y1587658D01*
X1555975Y1586516D02*
Y1587658D01*
X1555995Y1586516D02*
Y1587658D01*
X1556014Y1586516D02*
Y1587658D01*
X1556034Y1586516D02*
Y1587658D01*
X1556054Y1586516D02*
Y1587658D01*
X1556073Y1586516D02*
Y1587658D01*
X1556093Y1586516D02*
Y1587658D01*
X1556113Y1586516D02*
Y1587658D01*
X1556133Y1586516D02*
Y1587658D01*
X1556152Y1586516D02*
Y1587658D01*
X1556172Y1586516D02*
Y1587658D01*
X1556192Y1586516D02*
Y1587658D01*
X1556211Y1586516D02*
Y1587658D01*
X1556231Y1586516D02*
Y1587658D01*
X1556251Y1586516D02*
Y1587658D01*
X1556270Y1586516D02*
Y1587658D01*
X1556290Y1586516D02*
Y1587658D01*
X1556310Y1586516D02*
Y1587658D01*
X1556329Y1586516D02*
Y1587658D01*
X1556349Y1586516D02*
Y1587658D01*
X1556369Y1586516D02*
Y1587658D01*
X1556388Y1586516D02*
Y1587658D01*
X1556408Y1586516D02*
Y1587658D01*
X1556428Y1586516D02*
Y1587658D01*
X1556447Y1586516D02*
Y1587658D01*
X1556467Y1586516D02*
Y1587658D01*
X1556487Y1586516D02*
Y1587658D01*
X1556507Y1586516D02*
Y1587658D01*
X1556526Y1586516D02*
Y1587658D01*
X1556546Y1586516D02*
Y1587658D01*
X1556566Y1586516D02*
Y1587658D01*
X1556585Y1586516D02*
Y1587658D01*
X1556605Y1586516D02*
Y1587658D01*
X1556625Y1586516D02*
Y1587658D01*
X1556644Y1586516D02*
Y1587658D01*
X1556664Y1586516D02*
Y1587658D01*
X1556684Y1586516D02*
Y1587658D01*
X1556703Y1586516D02*
Y1587658D01*
X1556723Y1586516D02*
Y1587658D01*
X1556743Y1586516D02*
Y1587658D01*
X1556762Y1586516D02*
Y1587658D01*
X1556782Y1586516D02*
Y1587658D01*
X1556802Y1586516D02*
Y1587658D01*
X1556822Y1586516D02*
Y1587658D01*
X1556841Y1586516D02*
Y1587658D01*
X1556861Y1586516D02*
Y1587658D01*
X1556881Y1586516D02*
Y1587658D01*
X1556900Y1586516D02*
Y1587658D01*
X1556920Y1586516D02*
Y1587658D01*
X1556940Y1586516D02*
Y1587658D01*
X1556959Y1586516D02*
Y1587658D01*
X1556979Y1586516D02*
Y1587658D01*
X1556999Y1586516D02*
Y1587658D01*
X1557018Y1586516D02*
Y1587658D01*
X1557038Y1586516D02*
Y1587658D01*
X1557058Y1586516D02*
Y1587658D01*
X1557077Y1586516D02*
Y1587658D01*
X1557097Y1586516D02*
Y1587658D01*
X1557117Y1586516D02*
Y1587658D01*
X1557136Y1586516D02*
Y1587658D01*
X1557156Y1586516D02*
Y1587658D01*
X1557176Y1586516D02*
Y1587658D01*
X1557196Y1586516D02*
Y1587658D01*
X1557215Y1586516D02*
Y1587658D01*
X1557235Y1586516D02*
Y1587658D01*
X1557255Y1586516D02*
Y1587658D01*
X1557274Y1586516D02*
Y1587658D01*
X1557294Y1586516D02*
Y1587658D01*
X1557314Y1586516D02*
Y1587658D01*
X1557333Y1586516D02*
Y1587658D01*
X1557353Y1586516D02*
Y1587658D01*
X1557373Y1586516D02*
Y1587658D01*
X1557392Y1586516D02*
Y1587658D01*
X1557412Y1586516D02*
Y1587658D01*
X1557432Y1586516D02*
Y1587658D01*
X1557451Y1586516D02*
Y1587658D01*
X1557471Y1586516D02*
Y1587658D01*
X1557491Y1586516D02*
Y1587658D01*
X1557510Y1586516D02*
Y1587658D01*
X1557530Y1586516D02*
Y1587658D01*
X1557550Y1586516D02*
Y1587658D01*
X1557570Y1586516D02*
Y1587658D01*
X1557589Y1586516D02*
Y1587658D01*
X1557609Y1586516D02*
Y1587658D01*
X1557629Y1586516D02*
Y1587658D01*
X1557648Y1586516D02*
Y1587658D01*
X1557668Y1586516D02*
Y1587658D01*
X1557688Y1586516D02*
Y1587658D01*
X1557707Y1586516D02*
Y1587658D01*
X1557727Y1586516D02*
Y1587658D01*
X1557747Y1586516D02*
Y1587658D01*
X1557766Y1586516D02*
Y1587658D01*
X1557786Y1586516D02*
Y1587658D01*
X1557806Y1586516D02*
Y1587658D01*
X1557825Y1586516D02*
Y1587658D01*
X1557845Y1586516D02*
Y1587658D01*
X1557865Y1586516D02*
Y1587658D01*
X1557885Y1586516D02*
Y1587658D01*
X1557904Y1586516D02*
Y1587658D01*
X1557924Y1586516D02*
Y1587658D01*
X1557944Y1586516D02*
Y1587658D01*
X1557963Y1586516D02*
Y1587658D01*
X1557983Y1586516D02*
Y1587658D01*
X1558003Y1586516D02*
Y1587658D01*
X1558022Y1586516D02*
Y1587658D01*
X1558042Y1586516D02*
Y1587658D01*
X1558062Y1586516D02*
Y1587658D01*
X1558081Y1586516D02*
Y1587658D01*
X1558101Y1586516D02*
Y1587658D01*
X1558121Y1586516D02*
Y1587658D01*
X1558140Y1586516D02*
Y1587658D01*
X1558160Y1586516D02*
Y1587658D01*
X1558180Y1586516D02*
Y1587658D01*
X1558199Y1585690D02*
Y1584548D01*
X1555463*
X1555426Y1584549*
X1555389Y1584553*
X1555352Y1584559*
X1555315Y1584567*
X1555280Y1584578*
X1555245Y1584591*
X1555211Y1584607*
X1555178Y1584624*
X1555146Y1584644*
X1555116Y1584666*
X1555087Y1584689*
X1555060Y1584715*
X1555034Y1584742*
X1555010Y1584771*
X1554989Y1584802*
X1554969Y1584833*
X1554951Y1584866*
X1554936Y1584900*
X1554923Y1584935*
X1554912Y1584971*
X1554903Y1585007*
X1554897Y1585044*
X1554894Y1585081*
X1554892Y1585119*
X1554894Y1585156*
X1554897Y1585193*
X1554903Y1585230*
X1554912Y1585266*
X1554923Y1585302*
X1554936Y1585337*
X1554951Y1585371*
X1554969Y1585404*
X1554989Y1585436*
X1555010Y1585466*
X1555034Y1585495*
X1555060Y1585522*
X1555087Y1585548*
X1555116Y1585572*
X1555146Y1585593*
X1555178Y1585613*
X1555211Y1585631*
X1555245Y1585646*
X1555280Y1585659*
X1555315Y1585670*
X1555352Y1585679*
X1555389Y1585685*
X1555426Y1585688*
X1555463Y1585690*
X1558199*
X1554892Y1585119D02*
X1554892D01*
X1554912Y1584970D02*
Y1585267D01*
X1554932Y1584911D02*
Y1585326D01*
X1554951Y1584866D02*
Y1585371D01*
X1554971Y1584830D02*
Y1585408D01*
X1554991Y1584798D02*
Y1585439D01*
X1555010Y1584771D02*
Y1585466D01*
X1555030Y1584747D02*
Y1585490D01*
X1555050Y1584725D02*
Y1585512D01*
X1555070Y1584706D02*
Y1585532D01*
X1555089Y1584688D02*
Y1585550D01*
X1555109Y1584671D02*
Y1585566D01*
X1555129Y1584657D02*
Y1585581D01*
X1555148Y1584643D02*
Y1585595D01*
X1555168Y1584630D02*
Y1585607D01*
X1555188Y1584619D02*
Y1585618D01*
X1555207Y1584608D02*
Y1585629D01*
X1555227Y1584599D02*
Y1585638D01*
X1555247Y1584591D02*
Y1585647D01*
X1555266Y1584583D02*
Y1585654D01*
X1555286Y1584576D02*
Y1585661D01*
X1555306Y1584570D02*
Y1585667D01*
X1555325Y1584565D02*
Y1585672D01*
X1555345Y1584560D02*
Y1585677D01*
X1555365Y1584557D02*
Y1585681D01*
X1555385Y1584553D02*
Y1585684D01*
X1555404Y1584551D02*
Y1585686D01*
X1555424Y1584549D02*
Y1585688D01*
X1555444Y1584548D02*
Y1585689D01*
X1555463Y1584548D02*
Y1585690D01*
X1555483Y1584548D02*
Y1585690D01*
X1555503Y1584548D02*
Y1585690D01*
X1555522Y1584548D02*
Y1585690D01*
X1555542Y1584548D02*
Y1585690D01*
X1555562Y1584548D02*
Y1585690D01*
X1555581Y1584548D02*
Y1585690D01*
X1555601Y1584548D02*
Y1585690D01*
X1555621Y1584548D02*
Y1585690D01*
X1555640Y1584548D02*
Y1585690D01*
X1555660Y1584548D02*
Y1585690D01*
X1555680Y1584548D02*
Y1585690D01*
X1555699Y1584548D02*
Y1585690D01*
X1555719Y1584548D02*
Y1585690D01*
X1555739Y1584548D02*
Y1585690D01*
X1555759Y1584548D02*
Y1585690D01*
X1555778Y1584548D02*
Y1585690D01*
X1555798Y1584548D02*
Y1585690D01*
X1555818Y1584548D02*
Y1585690D01*
X1555837Y1584548D02*
Y1585690D01*
X1555857Y1584548D02*
Y1585690D01*
X1555877Y1584548D02*
Y1585690D01*
X1555896Y1584548D02*
Y1585690D01*
X1555916Y1584548D02*
Y1585690D01*
X1555936Y1584548D02*
Y1585690D01*
X1555955Y1584548D02*
Y1585690D01*
X1555975Y1584548D02*
Y1585690D01*
X1555995Y1584548D02*
Y1585690D01*
X1556014Y1584548D02*
Y1585690D01*
X1556034Y1584548D02*
Y1585690D01*
X1556054Y1584548D02*
Y1585690D01*
X1556073Y1584548D02*
Y1585690D01*
X1556093Y1584548D02*
Y1585690D01*
X1556113Y1584548D02*
Y1585690D01*
X1556133Y1584548D02*
Y1585690D01*
X1556152Y1584548D02*
Y1585690D01*
X1556172Y1584548D02*
Y1585690D01*
X1556192Y1584548D02*
Y1585690D01*
X1556211Y1584548D02*
Y1585690D01*
X1556231Y1584548D02*
Y1585690D01*
X1556251Y1584548D02*
Y1585690D01*
X1556270Y1584548D02*
Y1585690D01*
X1556290Y1584548D02*
Y1585690D01*
X1556310Y1584548D02*
Y1585690D01*
X1556329Y1584548D02*
Y1585690D01*
X1556349Y1584548D02*
Y1585690D01*
X1556369Y1584548D02*
Y1585690D01*
X1556388Y1584548D02*
Y1585690D01*
X1556408Y1584548D02*
Y1585690D01*
X1556428Y1584548D02*
Y1585690D01*
X1556447Y1584548D02*
Y1585690D01*
X1556467Y1584548D02*
Y1585690D01*
X1556487Y1584548D02*
Y1585690D01*
X1556507Y1584548D02*
Y1585690D01*
X1556526Y1584548D02*
Y1585690D01*
X1556546Y1584548D02*
Y1585690D01*
X1556566Y1584548D02*
Y1585690D01*
X1556585Y1584548D02*
Y1585690D01*
X1556605Y1584548D02*
Y1585690D01*
X1556625Y1584548D02*
Y1585690D01*
X1556644Y1584548D02*
Y1585690D01*
X1556664Y1584548D02*
Y1585690D01*
X1556684Y1584548D02*
Y1585690D01*
X1556703Y1584548D02*
Y1585690D01*
X1556723Y1584548D02*
Y1585690D01*
X1556743Y1584548D02*
Y1585690D01*
X1556762Y1584548D02*
Y1585690D01*
X1556782Y1584548D02*
Y1585690D01*
X1556802Y1584548D02*
Y1585690D01*
X1556822Y1584548D02*
Y1585690D01*
X1556841Y1584548D02*
Y1585690D01*
X1556861Y1584548D02*
Y1585690D01*
X1556881Y1584548D02*
Y1585690D01*
X1556900Y1584548D02*
Y1585690D01*
X1556920Y1584548D02*
Y1585690D01*
X1556940Y1584548D02*
Y1585690D01*
X1556959Y1584548D02*
Y1585690D01*
X1556979Y1584548D02*
Y1585690D01*
X1556999Y1584548D02*
Y1585690D01*
X1557018Y1584548D02*
Y1585690D01*
X1557038Y1584548D02*
Y1585690D01*
X1557058Y1584548D02*
Y1585690D01*
X1557077Y1584548D02*
Y1585690D01*
X1557097Y1584548D02*
Y1585690D01*
X1557117Y1584548D02*
Y1585690D01*
X1557136Y1584548D02*
Y1585690D01*
X1557156Y1584548D02*
Y1585690D01*
X1557176Y1584548D02*
Y1585690D01*
X1557196Y1584548D02*
Y1585690D01*
X1557215Y1584548D02*
Y1585690D01*
X1557235Y1584548D02*
Y1585690D01*
X1557255Y1584548D02*
Y1585690D01*
X1557274Y1584548D02*
Y1585690D01*
X1557294Y1584548D02*
Y1585690D01*
X1557314Y1584548D02*
Y1585690D01*
X1557333Y1584548D02*
Y1585690D01*
X1557353Y1584548D02*
Y1585690D01*
X1557373Y1584548D02*
Y1585690D01*
X1557392Y1584548D02*
Y1585690D01*
X1557412Y1584548D02*
Y1585690D01*
X1557432Y1584548D02*
Y1585690D01*
X1557451Y1584548D02*
Y1585690D01*
X1557471Y1584548D02*
Y1585690D01*
X1557491Y1584548D02*
Y1585690D01*
X1557510Y1584548D02*
Y1585690D01*
X1557530Y1584548D02*
Y1585690D01*
X1557550Y1584548D02*
Y1585690D01*
X1557570Y1584548D02*
Y1585690D01*
X1557589Y1584548D02*
Y1585690D01*
X1557609Y1584548D02*
Y1585690D01*
X1557629Y1584548D02*
Y1585690D01*
X1557648Y1584548D02*
Y1585690D01*
X1557668Y1584548D02*
Y1585690D01*
X1557688Y1584548D02*
Y1585690D01*
X1557707Y1584548D02*
Y1585690D01*
X1557727Y1584548D02*
Y1585690D01*
X1557747Y1584548D02*
Y1585690D01*
X1557766Y1584548D02*
Y1585690D01*
X1557786Y1584548D02*
Y1585690D01*
X1557806Y1584548D02*
Y1585690D01*
X1557825Y1584548D02*
Y1585690D01*
X1557845Y1584548D02*
Y1585690D01*
X1557865Y1584548D02*
Y1585690D01*
X1557885Y1584548D02*
Y1585690D01*
X1557904Y1584548D02*
Y1585690D01*
X1557924Y1584548D02*
Y1585690D01*
X1557944Y1584548D02*
Y1585690D01*
X1557963Y1584548D02*
Y1585690D01*
X1557983Y1584548D02*
Y1585690D01*
X1558003Y1584548D02*
Y1585690D01*
X1558022Y1584548D02*
Y1585690D01*
X1558042Y1584548D02*
Y1585690D01*
X1558062Y1584548D02*
Y1585690D01*
X1558081Y1584548D02*
Y1585690D01*
X1558101Y1584548D02*
Y1585690D01*
X1558121Y1584548D02*
Y1585690D01*
X1558140Y1584548D02*
Y1585690D01*
X1558160Y1584548D02*
Y1585690D01*
X1558180Y1584548D02*
Y1585690D01*
X1550999Y1595910D02*
Y1588107D01*
X1543196*
Y1595910*
X1550999*
X1543199Y1588107D02*
Y1595910D01*
X1543219Y1588107D02*
Y1595910D01*
X1543239Y1588107D02*
Y1595910D01*
X1543259Y1588107D02*
Y1595910D01*
X1543278Y1588107D02*
Y1595910D01*
X1543298Y1588107D02*
Y1595910D01*
X1543318Y1588107D02*
Y1595910D01*
X1543337Y1588107D02*
Y1595910D01*
X1543357Y1588107D02*
Y1595910D01*
X1543377Y1588107D02*
Y1595910D01*
X1543396Y1588107D02*
Y1595910D01*
X1543416Y1588107D02*
Y1595910D01*
X1543436Y1588107D02*
Y1595910D01*
X1543455Y1588107D02*
Y1595910D01*
X1543475Y1588107D02*
Y1595910D01*
X1543495Y1588107D02*
Y1595910D01*
X1543514Y1588107D02*
Y1595910D01*
X1543534Y1588107D02*
Y1595910D01*
X1543554Y1588107D02*
Y1595910D01*
X1543573Y1588107D02*
Y1595910D01*
X1543593Y1588107D02*
Y1595910D01*
X1543613Y1588107D02*
Y1595910D01*
X1543633Y1588107D02*
Y1595910D01*
X1543652Y1588107D02*
Y1595910D01*
X1543672Y1588107D02*
Y1595910D01*
X1543692Y1588107D02*
Y1595910D01*
X1543711Y1588107D02*
Y1595910D01*
X1543731Y1588107D02*
Y1595910D01*
X1543751Y1588107D02*
Y1595910D01*
X1543770Y1588107D02*
Y1595910D01*
X1543790Y1588107D02*
Y1595910D01*
X1543810Y1588107D02*
Y1595910D01*
X1543829Y1588107D02*
Y1595910D01*
X1543849Y1588107D02*
Y1595910D01*
X1543869Y1588107D02*
Y1595910D01*
X1543888Y1588107D02*
Y1595910D01*
X1543908Y1588107D02*
Y1595910D01*
X1543928Y1588107D02*
Y1595910D01*
X1543947Y1588107D02*
Y1595910D01*
X1543967Y1588107D02*
Y1595910D01*
X1543987Y1588107D02*
Y1595910D01*
X1544007Y1588107D02*
Y1595910D01*
X1544026Y1588107D02*
Y1595910D01*
X1544046Y1588107D02*
Y1595910D01*
X1544066Y1588107D02*
Y1595910D01*
X1544085Y1588107D02*
Y1595910D01*
X1544105Y1588107D02*
Y1595910D01*
X1544125Y1588107D02*
Y1595910D01*
X1544144Y1588107D02*
Y1595910D01*
X1544164Y1588107D02*
Y1595910D01*
X1544184Y1588107D02*
Y1595910D01*
X1544203Y1588107D02*
Y1595910D01*
X1544223Y1588107D02*
Y1595910D01*
X1544243Y1588107D02*
Y1595910D01*
X1544262Y1588107D02*
Y1595910D01*
X1544282Y1588107D02*
Y1595910D01*
X1544302Y1588107D02*
Y1595910D01*
X1544322Y1588107D02*
Y1595910D01*
X1544341Y1588107D02*
Y1595910D01*
X1544361Y1588107D02*
Y1595910D01*
X1544381Y1588107D02*
Y1595910D01*
X1544400Y1588107D02*
Y1595910D01*
X1544420Y1588107D02*
Y1595910D01*
X1544440Y1588107D02*
Y1595910D01*
X1544459Y1588107D02*
Y1595910D01*
X1544479Y1588107D02*
Y1595910D01*
X1544499Y1588107D02*
Y1595910D01*
X1544518Y1588107D02*
Y1595910D01*
X1544538Y1588107D02*
Y1595910D01*
X1544558Y1588107D02*
Y1595910D01*
X1544577Y1588107D02*
Y1595910D01*
X1544597Y1588107D02*
Y1595910D01*
X1544617Y1588107D02*
Y1595910D01*
X1544636Y1588107D02*
Y1595910D01*
X1544656Y1588107D02*
Y1595910D01*
X1544676Y1588107D02*
Y1595910D01*
X1544696Y1588107D02*
Y1595910D01*
X1544715Y1588107D02*
Y1595910D01*
X1544735Y1588107D02*
Y1595910D01*
X1544755Y1588107D02*
Y1595910D01*
X1544774Y1588107D02*
Y1595910D01*
X1544794Y1588107D02*
Y1595910D01*
X1544814Y1588107D02*
Y1595910D01*
X1544833Y1588107D02*
Y1595910D01*
X1544853Y1588107D02*
Y1595910D01*
X1544873Y1588107D02*
Y1595910D01*
X1544892Y1588107D02*
Y1595910D01*
X1544912Y1588107D02*
Y1595910D01*
X1544932Y1588107D02*
Y1595910D01*
X1544951Y1588107D02*
Y1595910D01*
X1544971Y1588107D02*
Y1595910D01*
X1544991Y1588107D02*
Y1595910D01*
X1545010Y1588107D02*
Y1595910D01*
X1545030Y1588107D02*
Y1595910D01*
X1545050Y1588107D02*
Y1595910D01*
X1545070Y1588107D02*
Y1595910D01*
X1545089Y1588107D02*
Y1595910D01*
X1545109Y1588107D02*
Y1595910D01*
X1545129Y1588107D02*
Y1595910D01*
X1545148Y1588107D02*
Y1595910D01*
X1545168Y1588107D02*
Y1595910D01*
X1545188Y1588107D02*
Y1595910D01*
X1545207Y1588107D02*
Y1595910D01*
X1545227Y1588107D02*
Y1595910D01*
X1545247Y1588107D02*
Y1595910D01*
X1545266Y1588107D02*
Y1595910D01*
X1545286Y1588107D02*
Y1595910D01*
X1545306Y1588107D02*
Y1595910D01*
X1545325Y1588107D02*
Y1595910D01*
X1545345Y1588107D02*
Y1595910D01*
X1545365Y1588107D02*
Y1595910D01*
X1545385Y1588107D02*
Y1595910D01*
X1545404Y1588107D02*
Y1595910D01*
X1545424Y1588107D02*
Y1595910D01*
X1545444Y1588107D02*
Y1595910D01*
X1545463Y1588107D02*
Y1595910D01*
X1545483Y1588107D02*
Y1595910D01*
X1545503Y1588107D02*
Y1595910D01*
X1545522Y1588107D02*
Y1595910D01*
X1545542Y1588107D02*
Y1595910D01*
X1545562Y1588107D02*
Y1595910D01*
X1545581Y1588107D02*
Y1595910D01*
X1545601Y1588107D02*
Y1595910D01*
X1545621Y1588107D02*
Y1595910D01*
X1545640Y1588107D02*
Y1595910D01*
X1545660Y1588107D02*
Y1595910D01*
X1545680Y1588107D02*
Y1595910D01*
X1545699Y1588107D02*
Y1595910D01*
X1545719Y1588107D02*
Y1595910D01*
X1545739Y1588107D02*
Y1595910D01*
X1545759Y1588107D02*
Y1595910D01*
X1545778Y1588107D02*
Y1595910D01*
X1545798Y1588107D02*
Y1595910D01*
X1545818Y1588107D02*
Y1595910D01*
X1545837Y1588107D02*
Y1595910D01*
X1545857Y1588107D02*
Y1595910D01*
X1545877Y1588107D02*
Y1595910D01*
X1545896Y1588107D02*
Y1595910D01*
X1545916Y1588107D02*
Y1595910D01*
X1545936Y1588107D02*
Y1595910D01*
X1545955Y1588107D02*
Y1595910D01*
X1545975Y1588107D02*
Y1595910D01*
X1545995Y1588107D02*
Y1595910D01*
X1546014Y1588107D02*
Y1595910D01*
X1546034Y1588107D02*
Y1595910D01*
X1546054Y1588107D02*
Y1595910D01*
X1546073Y1588107D02*
Y1595910D01*
X1546093Y1588107D02*
Y1595910D01*
X1546113Y1588107D02*
Y1595910D01*
X1546133Y1588107D02*
Y1595910D01*
X1546152Y1588107D02*
Y1595910D01*
X1546172Y1588107D02*
Y1595910D01*
X1546192Y1588107D02*
Y1595910D01*
X1546211Y1588107D02*
Y1595910D01*
X1546231Y1588107D02*
Y1595910D01*
X1546251Y1588107D02*
Y1595910D01*
X1546270Y1588107D02*
Y1595910D01*
X1546290Y1588107D02*
Y1595910D01*
X1546310Y1588107D02*
Y1595910D01*
X1546329Y1588107D02*
Y1595910D01*
X1546349Y1588107D02*
Y1595910D01*
X1546369Y1588107D02*
Y1595910D01*
X1546388Y1588107D02*
Y1595910D01*
X1546408Y1588107D02*
Y1595910D01*
X1546428Y1588107D02*
Y1595910D01*
X1546447Y1588107D02*
Y1595910D01*
X1546467Y1588107D02*
Y1595910D01*
X1546487Y1588107D02*
Y1595910D01*
X1546507Y1588107D02*
Y1595910D01*
X1546526Y1588107D02*
Y1595910D01*
X1546546Y1588107D02*
Y1595910D01*
X1546566Y1588107D02*
Y1595910D01*
X1546585Y1588107D02*
Y1595910D01*
X1546605Y1588107D02*
Y1595910D01*
X1546625Y1588107D02*
Y1595910D01*
X1546644Y1588107D02*
Y1595910D01*
X1546664Y1588107D02*
Y1595910D01*
X1546684Y1588107D02*
Y1595910D01*
X1546703Y1588107D02*
Y1595910D01*
X1546723Y1588107D02*
Y1595910D01*
X1546743Y1588107D02*
Y1595910D01*
X1546762Y1588107D02*
Y1595910D01*
X1546782Y1588107D02*
Y1595910D01*
X1546802Y1588107D02*
Y1595910D01*
X1546822Y1588107D02*
Y1595910D01*
X1546841Y1588107D02*
Y1595910D01*
X1546861Y1588107D02*
Y1595910D01*
X1546881Y1588107D02*
Y1595910D01*
X1546900Y1588107D02*
Y1595910D01*
X1546920Y1588107D02*
Y1595910D01*
X1546940Y1588107D02*
Y1595910D01*
X1546959Y1588107D02*
Y1595910D01*
X1546979Y1588107D02*
Y1595910D01*
X1546999Y1588107D02*
Y1595910D01*
X1547018Y1588107D02*
Y1595910D01*
X1547038Y1588107D02*
Y1595910D01*
X1547058Y1588107D02*
Y1595910D01*
X1547077Y1588107D02*
Y1595910D01*
X1547097Y1588107D02*
Y1595910D01*
X1547117Y1588107D02*
Y1595910D01*
X1547136Y1588107D02*
Y1595910D01*
X1547156Y1588107D02*
Y1595910D01*
X1547176Y1588107D02*
Y1595910D01*
X1547196Y1588107D02*
Y1595910D01*
X1547215Y1588107D02*
Y1595910D01*
X1547235Y1588107D02*
Y1595910D01*
X1547255Y1588107D02*
Y1595910D01*
X1547274Y1588107D02*
Y1595910D01*
X1547294Y1588107D02*
Y1595910D01*
X1547314Y1588107D02*
Y1595910D01*
X1547333Y1588107D02*
Y1595910D01*
X1547353Y1588107D02*
Y1595910D01*
X1547373Y1588107D02*
Y1595910D01*
X1547392Y1588107D02*
Y1595910D01*
X1547412Y1588107D02*
Y1595910D01*
X1547432Y1588107D02*
Y1595910D01*
X1547451Y1588107D02*
Y1595910D01*
X1547471Y1588107D02*
Y1595910D01*
X1547491Y1588107D02*
Y1595910D01*
X1547510Y1588107D02*
Y1595910D01*
X1547530Y1588107D02*
Y1595910D01*
X1547550Y1588107D02*
Y1595910D01*
X1547570Y1588107D02*
Y1595910D01*
X1547589Y1588107D02*
Y1595910D01*
X1547609Y1588107D02*
Y1595910D01*
X1547629Y1588107D02*
Y1595910D01*
X1547648Y1588107D02*
Y1595910D01*
X1547668Y1588107D02*
Y1595910D01*
X1547688Y1588107D02*
Y1595910D01*
X1547707Y1588107D02*
Y1595910D01*
X1547727Y1588107D02*
Y1595910D01*
X1547747Y1588107D02*
Y1595910D01*
X1547766Y1588107D02*
Y1595910D01*
X1547786Y1588107D02*
Y1595910D01*
X1547806Y1588107D02*
Y1595910D01*
X1547825Y1588107D02*
Y1595910D01*
X1547845Y1588107D02*
Y1595910D01*
X1547865Y1588107D02*
Y1595910D01*
X1547885Y1588107D02*
Y1595910D01*
X1547904Y1588107D02*
Y1595910D01*
X1547924Y1588107D02*
Y1595910D01*
X1547944Y1588107D02*
Y1595910D01*
X1547963Y1588107D02*
Y1595910D01*
X1547983Y1588107D02*
Y1595910D01*
X1548003Y1588107D02*
Y1595910D01*
X1548022Y1588107D02*
Y1595910D01*
X1548042Y1588107D02*
Y1595910D01*
X1548062Y1588107D02*
Y1595910D01*
X1548081Y1588107D02*
Y1595910D01*
X1548101Y1588107D02*
Y1595910D01*
X1548121Y1588107D02*
Y1595910D01*
X1548140Y1588107D02*
Y1595910D01*
X1548160Y1588107D02*
Y1595910D01*
X1548180Y1588107D02*
Y1595910D01*
X1548199Y1588107D02*
Y1595910D01*
X1548219Y1588107D02*
Y1595910D01*
X1548239Y1588107D02*
Y1595910D01*
X1548259Y1588107D02*
Y1595910D01*
X1548278Y1588107D02*
Y1595910D01*
X1548298Y1588107D02*
Y1595910D01*
X1548318Y1588107D02*
Y1595910D01*
X1548337Y1588107D02*
Y1595910D01*
X1548357Y1588107D02*
Y1595910D01*
X1548377Y1588107D02*
Y1595910D01*
X1548396Y1588107D02*
Y1595910D01*
X1548416Y1588107D02*
Y1595910D01*
X1548436Y1588107D02*
Y1595910D01*
X1548455Y1588107D02*
Y1595910D01*
X1548475Y1588107D02*
Y1595910D01*
X1548495Y1588107D02*
Y1595910D01*
X1548514Y1588107D02*
Y1595910D01*
X1548534Y1588107D02*
Y1595910D01*
X1548554Y1588107D02*
Y1595910D01*
X1548573Y1588107D02*
Y1595910D01*
X1548593Y1588107D02*
Y1595910D01*
X1548613Y1588107D02*
Y1595910D01*
X1548633Y1588107D02*
Y1595910D01*
X1548652Y1588107D02*
Y1595910D01*
X1548672Y1588107D02*
Y1595910D01*
X1548692Y1588107D02*
Y1595910D01*
X1548711Y1588107D02*
Y1595910D01*
X1548731Y1588107D02*
Y1595910D01*
X1548751Y1588107D02*
Y1595910D01*
X1548770Y1588107D02*
Y1595910D01*
X1548790Y1588107D02*
Y1595910D01*
X1548810Y1588107D02*
Y1595910D01*
X1548829Y1588107D02*
Y1595910D01*
X1548849Y1588107D02*
Y1595910D01*
X1548869Y1588107D02*
Y1595910D01*
X1548888Y1588107D02*
Y1595910D01*
X1548908Y1588107D02*
Y1595910D01*
X1548928Y1588107D02*
Y1595910D01*
X1548947Y1588107D02*
Y1595910D01*
X1548967Y1588107D02*
Y1595910D01*
X1548987Y1588107D02*
Y1595910D01*
X1549007Y1588107D02*
Y1595910D01*
X1549026Y1588107D02*
Y1595910D01*
X1549046Y1588107D02*
Y1595910D01*
X1549066Y1588107D02*
Y1595910D01*
X1549085Y1588107D02*
Y1595910D01*
X1549105Y1588107D02*
Y1595910D01*
X1549125Y1588107D02*
Y1595910D01*
X1549144Y1588107D02*
Y1595910D01*
X1549164Y1588107D02*
Y1595910D01*
X1549184Y1588107D02*
Y1595910D01*
X1549203Y1588107D02*
Y1595910D01*
X1549223Y1588107D02*
Y1595910D01*
X1549243Y1588107D02*
Y1595910D01*
X1549262Y1588107D02*
Y1595910D01*
X1549282Y1588107D02*
Y1595910D01*
X1549302Y1588107D02*
Y1595910D01*
X1549322Y1588107D02*
Y1595910D01*
X1549341Y1588107D02*
Y1595910D01*
X1549361Y1588107D02*
Y1595910D01*
X1549381Y1588107D02*
Y1595910D01*
X1549400Y1588107D02*
Y1595910D01*
X1549420Y1588107D02*
Y1595910D01*
X1549440Y1588107D02*
Y1595910D01*
X1549459Y1588107D02*
Y1595910D01*
X1549479Y1588107D02*
Y1595910D01*
X1549499Y1588107D02*
Y1595910D01*
X1549518Y1588107D02*
Y1595910D01*
X1549538Y1588107D02*
Y1595910D01*
X1549558Y1588107D02*
Y1595910D01*
X1549577Y1588107D02*
Y1595910D01*
X1549597Y1588107D02*
Y1595910D01*
X1549617Y1588107D02*
Y1595910D01*
X1549636Y1588107D02*
Y1595910D01*
X1549656Y1588107D02*
Y1595910D01*
X1549676Y1588107D02*
Y1595910D01*
X1549696Y1588107D02*
Y1595910D01*
X1549715Y1588107D02*
Y1595910D01*
X1549735Y1588107D02*
Y1595910D01*
X1549755Y1588107D02*
Y1595910D01*
X1549774Y1588107D02*
Y1595910D01*
X1549794Y1588107D02*
Y1595910D01*
X1549814Y1588107D02*
Y1595910D01*
X1549833Y1588107D02*
Y1595910D01*
X1549853Y1588107D02*
Y1595910D01*
X1549873Y1588107D02*
Y1595910D01*
X1549892Y1588107D02*
Y1595910D01*
X1549912Y1588107D02*
Y1595910D01*
X1549932Y1588107D02*
Y1595910D01*
X1549951Y1588107D02*
Y1595910D01*
X1549971Y1588107D02*
Y1595910D01*
X1549991Y1588107D02*
Y1595910D01*
X1550010Y1588107D02*
Y1595910D01*
X1550030Y1588107D02*
Y1595910D01*
X1550050Y1588107D02*
Y1595910D01*
X1550070Y1588107D02*
Y1595910D01*
X1550089Y1588107D02*
Y1595910D01*
X1550109Y1588107D02*
Y1595910D01*
X1550129Y1588107D02*
Y1595910D01*
X1550148Y1588107D02*
Y1595910D01*
X1550168Y1588107D02*
Y1595910D01*
X1550188Y1588107D02*
Y1595910D01*
X1550207Y1588107D02*
Y1595910D01*
X1550227Y1588107D02*
Y1595910D01*
X1550247Y1588107D02*
Y1595910D01*
X1550266Y1588107D02*
Y1595910D01*
X1550286Y1588107D02*
Y1595910D01*
X1550306Y1588107D02*
Y1595910D01*
X1550325Y1588107D02*
Y1595910D01*
X1550345Y1588107D02*
Y1595910D01*
X1550365Y1588107D02*
Y1595910D01*
X1550385Y1588107D02*
Y1595910D01*
X1550404Y1588107D02*
Y1595910D01*
X1550424Y1588107D02*
Y1595910D01*
X1550444Y1588107D02*
Y1595910D01*
X1550463Y1588107D02*
Y1595910D01*
X1550483Y1588107D02*
Y1595910D01*
X1550503Y1588107D02*
Y1595910D01*
X1550522Y1588107D02*
Y1595910D01*
X1550542Y1588107D02*
Y1595910D01*
X1550562Y1588107D02*
Y1595910D01*
X1550581Y1588107D02*
Y1595910D01*
X1550601Y1588107D02*
Y1595910D01*
X1550621Y1588107D02*
Y1595910D01*
X1550640Y1588107D02*
Y1595910D01*
X1550660Y1588107D02*
Y1595910D01*
X1550680Y1588107D02*
Y1595910D01*
X1550699Y1588107D02*
Y1595910D01*
X1550719Y1588107D02*
Y1595910D01*
X1550739Y1588107D02*
Y1595910D01*
X1550759Y1588107D02*
Y1595910D01*
X1550778Y1588107D02*
Y1595910D01*
X1550798Y1588107D02*
Y1595910D01*
X1550818Y1588107D02*
Y1595910D01*
X1550837Y1588107D02*
Y1595910D01*
X1550857Y1588107D02*
Y1595910D01*
X1550877Y1588107D02*
Y1595910D01*
X1550896Y1588107D02*
Y1595910D01*
X1550916Y1588107D02*
Y1595910D01*
X1550936Y1588107D02*
Y1595910D01*
X1550955Y1588107D02*
Y1595910D01*
X1550975Y1588107D02*
Y1595910D01*
X1550995Y1588107D02*
Y1595910D01*
G74*
X0Y0D02*
M02*
