*
*
G04 PADS 9.5 Build Number: 522968 generated Gerber (RS-274-X) file*
G04 PC Version=2.1*
*
%IN "VAE1701B01_201712_BKP.p"*%
*
%MOIN*%
*
%FSLAX35Y35*%
*
*
*
*
G04 PC Standard Apertures*
*
*
G04 Thermal Relief Aperture macro.*
%AMTER*
1,1,$1,0,0*
1,0,$1-$2,0,0*
21,0,$3,$4,0,0,45*
21,0,$3,$4,0,0,135*
%
*
*
G04 Annular Aperture macro.*
%AMANN*
1,1,$1,0,0*
1,0,$2,0,0*
%
*
*
G04 Odd Aperture macro.*
%AMODD*
1,1,$1,0,0*
1,0,$1-0.005,0,0*
%
*
*
G04 PC Custom Aperture Macros*
*
*
*
*
*
*
G04 PC Aperture Table*
*
%ADD010C,0.00394*%
%ADD022C,0.00394*%
%ADD025C,0.00984*%
%ADD026C,0.00787*%
%ADD028C,0.001*%
%ADD039C,0.005*%
%ADD042C,0.008*%
%ADD043C,0.006*%
%ADD044C,0.00004*%
%ADD046C,0.00787*%
%ADD047C,0.00984*%
*
*
*
*
G04 PC Circuitry*
G04 Layer Name VAE1701B01_201712_BKP.p - circuitry*
%LPD*%
*
*
G04 PC Custom Flashes*
G04 Layer Name VAE1701B01_201712_BKP.p - flashes*
%LPD*%
*
*
G04 PC Circuitry*
G04 Layer Name VAE1701B01_201712_BKP.p - circuitry*
%LPD*%
*
G54D10*
G01X1579398Y1532676D02*
Y1558266D01*
X1553808*
Y1532676*
X1579398*
X1579004Y1558266D02*
X1579398Y1557873D01*
X1578611Y1558266D02*
X1579398Y1557479D01*
X1578217Y1558266D02*
X1579398Y1557085D01*
X1577823Y1558266D02*
X1579398Y1556692D01*
X1577430Y1558266D02*
X1579398Y1556298D01*
X1577036Y1558266D02*
X1579398Y1555904D01*
X1576642Y1558266D02*
X1579398Y1555510D01*
X1576249Y1558266D02*
X1579398Y1555117D01*
X1575855Y1558266D02*
X1579398Y1554723D01*
X1575658Y1558463D02*
X1579595Y1554526D01*
X1534892Y1579804D02*
X1559302D01*
Y1604213*
X1534892*
Y1579804*
X1525591Y1624016D02*
X1624016D01*
Y1525591*
X1525591*
Y1624016*
X1583098Y1601396D02*
G75*
G03X1583098I-1277J0D01*
G01X1583746Y1618939D02*
G03X1583746I-1968J0D01*
G01X1537543Y1617967D02*
G03X1537543I-5905J0D01*
G01X1500000Y1623956D02*
X1525586D01*
Y1525599*
X1500000*
Y1623956*
X1624089Y1624035D02*
X1649606D01*
Y1525644*
X1624071*
X1624071D02*
X1624089Y1624035D01*
X1500000Y1649606D02*
X1649606D01*
Y1624004*
X1500000*
Y1649606*
Y1525591D02*
X1649606D01*
Y1500000*
X1500000*
Y1525591*
X1512598Y1507874D02*
G03X1512598I-4724J0D01*
G01Y1641732D02*
G03X1512598I-4724J0D01*
G01X1646457D02*
G03X1646457I-4725J0D01*
G01Y1507874D02*
G03X1646457I-4725J0D01*
G01X1518573Y1538321D02*
G03X1518573I-4725J0D01*
G01Y1611204D02*
G03X1518573I-4725J0D01*
G01X1644640Y1538321D02*
G03X1644640I-4725J0D01*
G01Y1611204D02*
G03X1644640I-4725J0D01*
G54D22*
G01X1559547Y1612860D02*
X1552854D01*
Y1617978*
X1559547*
Y1612860*
X1558759D02*
Y1617978D01*
X1558366Y1612860D02*
Y1617978D01*
X1557972Y1612860D02*
Y1617978D01*
X1557578Y1612860D02*
Y1617978D01*
X1557184Y1612860D02*
Y1617978D01*
X1556791Y1612860D02*
Y1617978D01*
X1556397Y1612860D02*
Y1617978D01*
G54D25*
X1582253Y1555707D02*
G03X1582253I-493J0D01*
G01X1552503Y1576997D02*
G03X1552503I-492J0D01*
G01X1587716Y1553290D02*
G03X1587716I-492J0D01*
G01X1554479Y1578623D02*
G03X1554479I-492J0D01*
G54D26*
G01X1579398Y1532676D02*
Y1558266D01*
X1553808*
Y1532676*
X1579398*
X1558901Y1570205D02*
Y1565284D01*
X1551027*
Y1570205*
X1558901*
X1551027Y1569418D02*
X1551814Y1570205D01*
X1551027Y1568630D02*
X1552602Y1570205D01*
X1551027Y1567843D02*
X1553389Y1570205D01*
X1551027Y1567056D02*
X1554177Y1570205D01*
X1551027Y1566268D02*
X1554964Y1570205D01*
X1555955Y1582363D02*
X1556113D01*
X1556743Y1582993*
Y1583150*
X1555955Y1601654D02*
X1556743D01*
Y1600867*
X1538239Y1582363D02*
X1537451D01*
Y1583150*
X1538239Y1601654D02*
X1537451D01*
Y1600867*
G54D28*
X1725756Y1493830D02*
X1725865Y1493831D01*
Y1493811*
X1725851Y1493812*
X1725840Y1493796*
X1725849Y1493751*
X1725868Y1493687*
X1725891Y1493626*
X1725918*
X1725931Y1493651*
X1725943Y1493681*
X1725957Y1493713*
X1725969Y1493750*
X1725983Y1493780*
Y1493803*
X1725973Y1493811*
X1725942*
X1725941Y1493831*
X1726043Y1493830*
Y1493812*
X1726023Y1493803*
X1726009Y1493799*
X1725996Y1493781*
X1725984Y1493743*
X1725971Y1493702*
X1725950Y1493657*
X1725936Y1493612*
X1725916Y1493568*
X1725906Y1493545*
X1725903Y1493539*
X1725874*
X1725875Y1493581*
X1725853Y1493643*
X1725824Y1493709*
X1725798Y1493774*
X1725783Y1493809*
X1725752*
X1725753Y1493826*
X1726172Y1493650D02*
X1726092D01*
X1726101Y1493662*
X1726144Y1493666*
X1726172Y1493667*
Y1493688*
X1726161Y1493708*
X1726146Y1493710*
X1726127Y1493707*
X1726104Y1493696*
X1726088Y1493681*
X1726082Y1493664*
X1726081Y1493633*
X1726086Y1493609*
X1726098Y1493589*
X1726122Y1493571*
X1726149Y1493566*
X1726177*
X1726202Y1493585*
X1726216Y1493597*
X1726226Y1493598*
X1726228Y1493590*
X1726226Y1493582*
X1726210Y1493577*
X1726199Y1493566*
X1726191Y1493558*
X1726180Y1493545*
X1726163Y1493542*
X1726132Y1493539*
X1726113Y1493540*
X1726099Y1493554*
X1726087Y1493564*
X1726072Y1493576*
X1726060Y1493591*
X1726050Y1493609*
Y1493676*
X1726072Y1493699*
X1726089Y1493715*
X1726110Y1493729*
X1726122Y1493738*
X1726172Y1493737*
X1726194Y1493717*
X1726207Y1493697*
X1726221Y1493689*
Y1493654*
Y1493649*
X1726205*
X1726180*
X1726172*
X1726169Y1493651*
X1726257Y1493844D02*
X1726277Y1493831D01*
X1726280Y1493733*
X1726282Y1493622*
Y1493555*
X1726271Y1493553*
X1726262Y1493551*
Y1493540*
X1726299Y1493539*
X1726353*
X1726357Y1493553*
X1726340*
X1726328Y1493568*
X1726316Y1493583*
X1726315Y1493638*
X1726325Y1493674*
X1726332Y1493694*
X1726347Y1493701*
X1726363Y1493706*
X1726376*
X1726392Y1493697*
X1726398Y1493686*
X1726404Y1493671*
Y1493650*
Y1493613*
X1726402Y1493579*
X1726395Y1493565*
X1726386Y1493559*
X1726377Y1493555*
X1726378Y1493542*
X1726415*
X1726463*
X1726485*
X1726484Y1493552*
X1726469*
X1726461Y1493561*
X1726456Y1493573*
X1726452Y1493591*
Y1493686*
X1726442Y1493716*
X1726430Y1493736*
X1726415Y1493739*
X1726396*
X1726372*
X1726354Y1493736*
X1726348Y1493730*
X1726338Y1493722*
X1726332Y1493710*
X1726325Y1493703*
X1726320Y1493700*
X1726318Y1493710*
Y1493737*
X1726317Y1493761*
Y1493849*
X1726260*
X1726256*
Y1493843*
X1726546Y1493844D02*
X1726530Y1493831D01*
X1726521Y1493818*
X1726530Y1493800*
X1726534Y1493790*
X1726555Y1493786*
X1726569*
X1726572Y1493797*
X1726580Y1493809*
Y1493823*
Y1493833*
X1726575Y1493840*
X1726565Y1493844*
X1726558*
X1726551*
X1726547*
X1726493Y1493724D02*
X1726523Y1493721D01*
X1726540Y1493730*
X1726546Y1493737*
X1726568Y1493739*
X1726579*
X1726580Y1493725*
X1726579Y1493559*
X1726599Y1493557*
Y1493536*
X1726498*
X1726499Y1493555*
X1726524*
X1726544Y1493574*
Y1493692*
X1726530Y1493690*
X1726524Y1493704*
X1726491Y1493706*
Y1493722*
X1726772Y1493661D02*
X1726771Y1493702D01*
X1726752Y1493736*
X1726746Y1493739*
X1726680*
X1726650Y1493719*
X1726630Y1493701*
X1726616Y1493674*
X1726617Y1493601*
X1726640Y1493559*
X1726671Y1493536*
X1726703*
X1726745*
X1726772Y1493554*
X1726797Y1493586*
X1726794Y1493598*
X1726778Y1493601*
X1726769Y1493594*
X1726766Y1493585*
X1726752Y1493578*
X1726738Y1493572*
X1726704Y1493569*
X1726692Y1493572*
X1726662Y1493600*
X1726661Y1493681*
X1726687Y1493710*
X1726700Y1493716*
X1726720Y1493723*
X1726731Y1493722*
X1726730Y1493698*
X1726731Y1493661*
X1726750Y1493657*
X1726768Y1493659*
X1726815Y1493737D02*
X1726884D01*
X1726883Y1493595*
X1726895Y1493571*
X1726910Y1493565*
X1726935Y1493564*
X1726961Y1493586*
X1726965Y1493607*
Y1493711*
X1726946Y1493712*
X1726931Y1493721*
Y1493738*
X1727003Y1493739*
X1727000Y1493698*
Y1493611*
Y1493576*
X1727002Y1493566*
X1727016Y1493559*
X1727031Y1493553*
X1727029Y1493537*
X1726978Y1493536*
X1726960*
X1726867Y1493539*
X1726851Y1493554*
X1726838Y1493582*
X1726839Y1493702*
X1726813Y1493718*
X1726805Y1493730*
X1726807Y1493735*
X1726813*
X1727041Y1493851D02*
X1727123D01*
Y1493571*
X1727134Y1493557*
X1727163Y1493553*
Y1493540*
X1727164Y1493537*
X1727046Y1493539*
Y1493555*
X1727083*
X1727082Y1493826*
X1727065Y1493839*
X1727040Y1493841*
X1727039Y1493851*
X1727219Y1493689D02*
X1727228Y1493706D01*
X1727212Y1493676*
X1727189Y1493675*
X1727187Y1493699*
X1727188Y1493706*
X1727204Y1493725*
X1727218Y1493739*
X1727234*
X1727297*
X1727318Y1493720*
X1727333Y1493698*
X1727335Y1493669*
X1727332Y1493610*
Y1493573*
X1727359Y1493552*
X1727360Y1493536*
X1727304Y1493539*
X1727298Y1493557*
X1727262*
X1727251Y1493540*
X1727216*
X1727204*
X1727178Y1493572*
X1727176Y1493604*
X1727187Y1493628*
X1727219Y1493647*
X1727242Y1493650*
X1727265Y1493662*
X1727279Y1493670*
X1727292Y1493682*
X1727291Y1493698*
X1727283Y1493714*
X1727276Y1493721*
X1727259Y1493725*
X1727248Y1493724*
X1727244Y1493720*
X1727232Y1493715*
X1727226Y1493702*
X1727215Y1493675D02*
X1727223Y1493693D01*
X1727283Y1493648D02*
X1727252Y1493638D01*
X1727227Y1493624*
X1727214Y1493608*
X1727216Y1493584*
X1727223Y1493572*
X1727236Y1493566*
X1727250*
X1727263Y1493574*
X1727284Y1493582*
X1727296Y1493590*
X1727295Y1493636*
X1727293Y1493647*
X1727285Y1493648*
X1727388Y1493739D02*
X1727447Y1493740D01*
X1727448Y1493718*
X1727477Y1493717*
X1727491Y1493726*
X1727504Y1493739*
X1727531*
X1727534Y1493721*
X1727535Y1493704*
Y1493689*
X1727530Y1493684*
X1727513*
X1727500*
X1727494Y1493699*
X1727482Y1493701*
X1727460Y1493702*
X1727449Y1493700*
X1727448Y1493698*
Y1493563*
Y1493555*
X1727495*
Y1493537*
X1727387*
Y1493555*
X1727402*
X1727406Y1493554*
Y1493722*
X1727388*
X1727387Y1493738*
G54D39*
X1598007Y1553422D02*
Y1555422D01*
X1598807Y1553422D02*
Y1555422D01*
X1598007Y1554422D02*
X1597707D01*
X1598807D02*
X1599107D01*
X1598007D02*
X1597707D01*
X1598807D02*
X1599107D01*
X1583166Y1553455D02*
X1582616Y1554005D01*
X1583516Y1554905*
X1583016Y1555405*
X1590813Y1553473D02*
X1590263Y1554023D01*
X1591163Y1554923*
X1590663Y1555423*
X1582423Y1547875D02*
X1580423D01*
X1582423Y1548675D02*
X1580423D01*
X1581423Y1547875D02*
Y1547575D01*
Y1548675D02*
Y1548975D01*
Y1547875D02*
Y1547575D01*
Y1548675D02*
Y1548975D01*
X1566776Y1582924D02*
X1566226Y1582374D01*
X1565326Y1583274*
X1564826Y1582774*
X1594134Y1594454D02*
X1593584Y1595004D01*
X1594484Y1595904*
X1593984Y1596404*
X1591075Y1578946D02*
X1589075D01*
X1591075Y1579746D02*
X1589075D01*
X1590075Y1578946D02*
Y1578646D01*
Y1579746D02*
Y1580046D01*
Y1578946D02*
Y1578646D01*
Y1579746D02*
Y1580046D01*
X1595862Y1562992D02*
X1598262D01*
X1595862Y1561992D02*
X1598262D01*
X1597062Y1562992D02*
Y1563592D01*
Y1561992D02*
Y1561392D01*
X1595412Y1610109D02*
G03X1595412I-13779J0D01*
G01X1614124Y1563952D02*
X1615305Y1562771D01*
X1615300Y1562757D02*
X1614119Y1561576D01*
X1614126Y1561521D02*
X1615307Y1560339D01*
X1616360Y1553524D02*
X1618760D01*
X1616360Y1552524D02*
X1618760D01*
X1617560Y1553524D02*
Y1554124D01*
Y1552524D02*
Y1551924D01*
X1576368Y1564913D02*
Y1562913D01*
X1575568Y1564913D02*
Y1562913D01*
X1576368Y1563913D02*
X1576668D01*
X1575568D02*
X1575268D01*
X1576368D02*
X1576668D01*
X1575568D02*
X1575268D01*
X1576368Y1561342D02*
Y1559342D01*
X1575568Y1561342D02*
Y1559342D01*
X1576368Y1560342D02*
X1576668D01*
X1575568D02*
X1575268D01*
X1576368D02*
X1576668D01*
X1575568D02*
X1575268D01*
X1584776Y1578388D02*
Y1576388D01*
X1583976Y1578388D02*
Y1576388D01*
X1584776Y1577388D02*
X1585076D01*
X1583976D02*
X1583676D01*
X1584776D02*
X1585076D01*
X1583976D02*
X1583676D01*
X1576368Y1575759D02*
Y1573759D01*
X1575568Y1575759D02*
Y1573759D01*
X1576368Y1574759D02*
X1576668D01*
X1575568D02*
X1575268D01*
X1576368D02*
X1576668D01*
X1575568D02*
X1575268D01*
X1585557Y1583355D02*
X1587557D01*
X1585557Y1582555D02*
X1587557D01*
X1586557Y1583355D02*
Y1583655D01*
Y1582555D02*
Y1582255D01*
Y1583355D02*
Y1583655D01*
Y1582555D02*
Y1582255D01*
X1581231Y1583355D02*
X1583231D01*
X1581231Y1582555D02*
X1583231D01*
X1582231Y1583355D02*
Y1583655D01*
Y1582555D02*
Y1582255D01*
Y1583355D02*
Y1583655D01*
Y1582555D02*
Y1582255D01*
X1610290Y1553524D02*
X1612690D01*
X1610290Y1552524D02*
X1612690D01*
X1611490Y1553524D02*
Y1554124D01*
Y1552524D02*
Y1551924D01*
X1576368Y1579383D02*
Y1577383D01*
X1575568Y1579383D02*
Y1577383D01*
X1576368Y1578383D02*
X1576668D01*
X1575568D02*
X1575268D01*
X1576368D02*
X1576668D01*
X1575568D02*
X1575268D01*
X1576368Y1582355D02*
Y1580355D01*
X1575568Y1582355D02*
Y1580355D01*
X1576368Y1581355D02*
X1576668D01*
X1575568D02*
X1575268D01*
X1576368D02*
X1576668D01*
X1575568D02*
X1575268D01*
X1576368Y1585976D02*
Y1583976D01*
X1575568Y1585976D02*
Y1583976D01*
X1576368Y1584976D02*
X1576668D01*
X1575568D02*
X1575268D01*
X1576368D02*
X1576668D01*
X1575568D02*
X1575268D01*
X1576368Y1572130D02*
Y1570130D01*
X1575568Y1572130D02*
Y1570130D01*
X1576368Y1571130D02*
X1576668D01*
X1575568D02*
X1575268D01*
X1576368D02*
X1576668D01*
X1575568D02*
X1575268D01*
X1576368Y1568533D02*
Y1566533D01*
X1575568Y1568533D02*
Y1566533D01*
X1576368Y1567533D02*
X1576668D01*
X1575568D02*
X1575268D01*
X1576368D02*
X1576668D01*
X1575568D02*
X1575268D01*
X1588164Y1570924D02*
X1587614Y1571474D01*
X1588514Y1572374*
X1588014Y1572874*
X1588921Y1592423D02*
X1588371Y1591873D01*
X1587471Y1592773*
X1586971Y1592273*
X1565842Y1578303D02*
X1566392Y1577753D01*
X1565492Y1576853*
X1565992Y1576353*
X1606713Y1561992D02*
X1604313D01*
X1606713Y1562992D02*
X1604313D01*
X1605513Y1561992D02*
Y1561392D01*
Y1562992D02*
Y1563592D01*
X1534374Y1566973D02*
X1531974D01*
X1534374Y1567973D02*
X1531974D01*
X1533174Y1566973D02*
Y1566373D01*
Y1567973D02*
Y1568573D01*
X1543687Y1608312D02*
X1543137Y1607762D01*
X1542237Y1608662*
X1541737Y1608162*
X1530406Y1606088D02*
X1530956Y1605538D01*
X1530056Y1604638*
X1530556Y1604138*
X1542798Y1566973D02*
X1540398D01*
X1542798Y1567973D02*
X1540398D01*
X1541598Y1566973D02*
Y1566373D01*
Y1567973D02*
Y1568573D01*
X1561226Y1608113D02*
X1561776Y1608663D01*
X1562676Y1607763*
X1563176Y1608263*
X1540076Y1576302D02*
Y1574302D01*
X1539276Y1576302D02*
Y1574302D01*
X1540076Y1575302D02*
X1540376D01*
X1539276D02*
X1538976D01*
X1540076D02*
X1540376D01*
X1539276D02*
X1538976D01*
X1530906Y1580088D02*
Y1578088D01*
X1530106Y1580088D02*
Y1578088D01*
X1530906Y1579088D02*
X1531206D01*
X1530106D02*
X1529806D01*
X1530906D02*
X1531206D01*
X1530106D02*
X1529806D01*
X1530906Y1583814D02*
Y1581814D01*
X1530106Y1583814D02*
Y1581814D01*
X1530906Y1582814D02*
X1531206D01*
X1530106D02*
X1529806D01*
X1530906D02*
X1531206D01*
X1530106D02*
X1529806D01*
X1563039Y1582433D02*
X1561039D01*
X1563039Y1583233D02*
X1561039D01*
X1562039Y1582433D02*
Y1582133D01*
Y1583233D02*
Y1583533D01*
Y1582433D02*
Y1582133D01*
Y1583233D02*
Y1583533D01*
X1571052Y1587389D02*
Y1589389D01*
X1571852Y1587389D02*
Y1589389D01*
X1571052Y1588389D02*
X1570752D01*
X1571852D02*
X1572152D01*
X1571052D02*
X1570752D01*
X1571852D02*
X1572152D01*
X1572218Y1591901D02*
Y1594301D01*
X1573218Y1591901D02*
Y1594301D01*
X1572218Y1593101D02*
X1571618D01*
X1573218D02*
X1573818D01*
X1570433Y1582880D02*
X1569883Y1582330D01*
X1568983Y1583230*
X1568483Y1582730*
X1563096Y1599865D02*
X1563646Y1599315D01*
X1562746Y1598415*
X1563246Y1597915*
X1562758Y1601512D02*
Y1603512D01*
X1563558Y1601512D02*
Y1603512D01*
X1562758Y1602512D02*
X1562458D01*
X1563558D02*
X1563858D01*
X1562758D02*
X1562458D01*
X1563558D02*
X1563858D01*
X1557262Y1608113D02*
X1557812Y1608663D01*
X1558712Y1607763*
X1559212Y1608263*
X1536042Y1561666D02*
G03X1536042I-3000J0D01*
G01X1610910Y1598878D02*
Y1601278D01*
X1611910Y1598878D02*
Y1601278D01*
X1610910Y1600078D02*
X1610310D01*
X1611910D02*
X1612510D01*
X1565668Y1592977D02*
X1563668D01*
X1565668Y1593777D02*
X1563668D01*
X1564668Y1592977D02*
Y1592677D01*
Y1593777D02*
Y1594077D01*
Y1592977D02*
Y1592677D01*
Y1593777D02*
Y1594077D01*
X1552633Y1609282D02*
X1552083Y1609832D01*
X1552983Y1610732*
X1552483Y1611232*
X1530606Y1585557D02*
X1530056Y1586107D01*
X1530956Y1587007*
X1530456Y1587507*
X1530406Y1591118D02*
X1530956Y1590568D01*
X1530056Y1589668*
X1530556Y1589168*
X1530606Y1592630D02*
X1530056Y1593180D01*
X1530956Y1594080*
X1530456Y1594580*
X1530606Y1596253D02*
X1530056Y1596803D01*
X1530956Y1597703*
X1530456Y1598203*
X1530606Y1599935D02*
X1530056Y1600485D01*
X1530956Y1601385*
X1530456Y1601885*
X1537402Y1607348D02*
X1537952Y1606798D01*
X1537052Y1605898*
X1537552Y1605398*
X1545728Y1608113D02*
X1546278Y1608663D01*
X1547178Y1607763*
X1547678Y1608263*
X1551985Y1605581D02*
Y1607581D01*
X1552785Y1605581D02*
Y1607581D01*
X1551985Y1606581D02*
X1551685D01*
X1552785D02*
X1553085D01*
X1551985D02*
X1551685D01*
X1552785D02*
X1553085D01*
X1585845Y1566298D02*
X1585295Y1565748D01*
X1584395Y1566648*
X1583895Y1566148*
X1592687Y1561992D02*
X1590287D01*
X1592687Y1562992D02*
X1590287D01*
X1591487Y1561992D02*
Y1561392D01*
Y1562992D02*
Y1563592D01*
X1585384Y1591927D02*
X1583384D01*
X1585384Y1592727D02*
X1583384D01*
X1584384Y1591927D02*
Y1591627D01*
Y1592727D02*
Y1593027D01*
Y1591927D02*
Y1591627D01*
Y1592727D02*
Y1593027D01*
X1581731Y1591927D02*
X1579731D01*
X1581731Y1592727D02*
X1579731D01*
X1580731Y1591927D02*
Y1591627D01*
Y1592727D02*
Y1593027D01*
Y1591927D02*
Y1591627D01*
Y1592727D02*
Y1593027D01*
X1601884Y1603258D02*
X1610546D01*
X1601884Y1615069D02*
X1610546D01*
X1608577Y1603258D02*
Y1615069D01*
X1603853Y1603258D02*
Y1615069D01*
X1616005Y1606896D02*
Y1611581D01*
X1596202Y1606738D02*
Y1611502D01*
X1597934Y1606701D02*
G03X1601882Y1603258I3696J252D01*
G01X1601887Y1615069D02*
G03X1597856Y1611465I-214J-3817D01*
G01X1610543Y1603258D02*
G03X1614470Y1606933I126J3801D01*
G01Y1611621D02*
G03X1610545Y1615069I-3687J-238D01*
G01X1614509Y1611660D02*
X1615966D01*
X1614470Y1606896D02*
X1615927D01*
X1596242Y1606699D02*
X1597935D01*
X1596202Y1611502D02*
X1597856D01*
X1589241Y1530384D02*
X1588691Y1530934D01*
X1589591Y1531834*
X1589091Y1532334*
G54D42*
X1603301Y1538855D02*
Y1543855D01*
X1614301*
Y1538855*
X1603301*
X1608100Y1541355D02*
G03X1608601Y1542855I630J624D01*
G01Y1539855D02*
G03X1608100Y1541355I119J873D01*
G01X1608059Y1544468D02*
X1603059D01*
Y1555468*
X1608059*
Y1544468*
X1605558Y1549268D02*
G03X1604059Y1549768I-623J630D01*
G01X1607059D02*
G03X1605559Y1549268I-874J120D01*
G01X1599621Y1556892D02*
X1594503D01*
Y1568092*
X1599621*
Y1556892*
X1609112Y1559569D02*
Y1564687D01*
X1620312*
Y1559569*
X1609112*
X1620119Y1547424D02*
X1615001D01*
Y1558624*
X1620119*
Y1547424*
X1614049D02*
X1608931D01*
Y1558624*
X1614049*
Y1547424*
X1602954Y1568092D02*
X1608072D01*
Y1556892*
X1602954*
Y1568092*
X1530615Y1573073D02*
X1535733D01*
Y1561873*
X1530615*
Y1573073*
X1539167Y1560801D02*
X1544167D01*
Y1549801*
X1539167*
Y1560801*
X1541668Y1556002D02*
G03X1543167Y1555501I623J-630D01*
G01X1540167D02*
G03X1541667Y1556002I874J-119D01*
G01X1539039Y1573073D02*
X1544157D01*
Y1561873*
X1539039*
Y1573073*
X1529104Y1560781D02*
X1534104D01*
Y1549781*
X1529104*
Y1560781*
X1531604Y1555981D02*
G03X1533104Y1555481I624J-629D01*
G01X1530104D02*
G03X1531604Y1555981I874J-120D01*
G01X1578318Y1595660D02*
Y1590542D01*
X1567118*
Y1595660*
X1578318*
X1617010Y1602637D02*
Y1597519D01*
X1605810*
Y1602637*
X1617010*
X1588928Y1568092D02*
X1594046D01*
Y1556892*
X1588928*
Y1568092*
G54D43*
X1597157Y1552922D02*
X1594907D01*
Y1555922*
X1597157*
X1599657Y1552922D02*
X1601907D01*
Y1555922*
X1599657*
X1581816Y1552955D02*
X1579566D01*
Y1555955*
X1581816*
X1584316Y1552955D02*
X1586566D01*
Y1555955*
X1584316*
X1589463Y1552973D02*
X1587213D01*
Y1555973*
X1589463*
X1591963Y1552973D02*
X1594213D01*
Y1555973*
X1591963*
X1582923Y1547025D02*
Y1544775D01*
X1579923*
Y1547025*
X1582923Y1549525D02*
Y1551775D01*
X1579923*
Y1549525*
X1567276Y1581574D02*
Y1579324D01*
X1564276*
Y1581574*
X1567276Y1584074D02*
Y1586324D01*
X1564276*
Y1584074*
X1597936Y1572079D02*
X1595096D01*
X1615196Y1574919D02*
Y1572079D01*
Y1592179D02*
Y1589339D01*
Y1572079D02*
X1612356D01*
X1595096D02*
Y1574919D01*
X1595138Y1589381D02*
X1597936Y1592179D01*
X1612356D02*
X1615196D01*
X1592784Y1593954D02*
X1590534D01*
Y1596954*
X1592784*
X1595284Y1593954D02*
X1597534D01*
Y1596954*
X1595284*
X1591575Y1578096D02*
Y1575846D01*
X1588575*
Y1578096*
X1591575Y1580596D02*
Y1582846D01*
X1588575*
Y1580596*
X1577218Y1565413D02*
X1579468D01*
Y1562413*
X1577218*
X1574718Y1565413D02*
X1572468D01*
Y1562413*
X1574718*
X1577218Y1561842D02*
X1579468D01*
Y1558842*
X1577218*
X1574718Y1561842D02*
X1572468D01*
Y1558842*
X1574718*
X1585626Y1578888D02*
X1587876D01*
Y1575888*
X1585626*
X1583126Y1578888D02*
X1580876D01*
Y1575888*
X1583126*
X1577218Y1576259D02*
X1579468D01*
Y1573259*
X1577218*
X1574718Y1576259D02*
X1572468D01*
Y1573259*
X1574718*
X1585057Y1584205D02*
Y1586455D01*
X1588057*
Y1584205*
X1585057Y1581705D02*
Y1579455D01*
X1588057*
Y1581705*
X1580731Y1584205D02*
Y1586455D01*
X1583731*
Y1584205*
X1580731Y1581705D02*
Y1579455D01*
X1583731*
Y1581705*
X1577218Y1579883D02*
X1579468D01*
Y1576883*
X1577218*
X1574718Y1579883D02*
X1572468D01*
Y1576883*
X1574718*
X1577218Y1582855D02*
X1579468D01*
Y1579855*
X1577218*
X1574718Y1582855D02*
X1572468D01*
Y1579855*
X1574718*
X1577218Y1586476D02*
X1579468D01*
Y1583476*
X1577218*
X1574718Y1586476D02*
X1572468D01*
Y1583476*
X1574718*
X1577218Y1572630D02*
X1579468D01*
Y1569630*
X1577218*
X1574718Y1572630D02*
X1572468D01*
Y1569630*
X1574718*
X1577218Y1569033D02*
X1579468D01*
Y1566033*
X1577218*
X1574718Y1569033D02*
X1572468D01*
Y1566033*
X1574718*
X1586814Y1570424D02*
X1584564D01*
Y1573424*
X1586814*
X1589314Y1570424D02*
X1591564D01*
Y1573424*
X1589314*
X1589421Y1591073D02*
Y1588823D01*
X1586421*
Y1591073*
X1589421Y1593573D02*
Y1595823D01*
X1586421*
Y1593573*
X1567192Y1578803D02*
X1569442D01*
Y1575803*
X1567192*
X1564692Y1578803D02*
X1562442D01*
Y1575803*
X1564692*
X1544187Y1606962D02*
Y1604712D01*
X1541187*
Y1606962*
X1544187Y1609462D02*
Y1611712D01*
X1541187*
Y1609462*
X1531756Y1606588D02*
X1534006D01*
Y1603588*
X1531756*
X1529256Y1606588D02*
X1527006D01*
Y1603588*
X1529256*
X1560726Y1609463D02*
Y1611713D01*
X1563726*
Y1609463*
X1560726Y1606963D02*
Y1604713D01*
X1563726*
Y1606963*
X1540926Y1576802D02*
X1543176D01*
Y1573802*
X1540926*
X1538426Y1576802D02*
X1536176D01*
Y1573802*
X1538426*
X1531756Y1580588D02*
X1534006D01*
Y1577588*
X1531756*
X1529256Y1580588D02*
X1527006D01*
Y1577588*
X1529256*
X1531756Y1584314D02*
X1534006D01*
Y1581314*
X1531756*
X1529256Y1584314D02*
X1527006D01*
Y1581314*
X1529256*
X1563539Y1581583D02*
Y1579333D01*
X1560539*
Y1581583*
X1563539Y1584083D02*
Y1586333D01*
X1560539*
Y1584083*
X1570202Y1586889D02*
X1567952D01*
Y1589889*
X1570202*
X1572702Y1586889D02*
X1574952D01*
Y1589889*
X1572702*
X1570933Y1581530D02*
Y1579280D01*
X1567933*
Y1581530*
X1570933Y1584030D02*
Y1586280D01*
X1567933*
Y1584030*
X1564446Y1600365D02*
X1566696D01*
Y1597365*
X1564446*
X1561946Y1600365D02*
X1559696D01*
Y1597365*
X1561946*
X1561908Y1601012D02*
X1559658D01*
Y1604012*
X1561908*
X1564408Y1601012D02*
X1566658D01*
Y1604012*
X1564408*
X1556762Y1609463D02*
Y1611713D01*
X1559762*
Y1609463*
X1556762Y1606963D02*
Y1604713D01*
X1559762*
Y1606963*
X1566168Y1592127D02*
Y1589877D01*
X1563168*
Y1592127*
X1566168Y1594627D02*
Y1596877D01*
X1563168*
Y1594627*
X1551283Y1608782D02*
X1549033D01*
Y1611782*
X1551283*
X1553783Y1608782D02*
X1556033D01*
Y1611782*
X1553783*
X1529256Y1585057D02*
X1527006D01*
Y1588057*
X1529256*
X1531756Y1585057D02*
X1534006D01*
Y1588057*
X1531756*
Y1591618D02*
X1534006D01*
Y1588618*
X1531756*
X1529256Y1591618D02*
X1527006D01*
Y1588618*
X1529256*
Y1592130D02*
X1527006D01*
Y1595130*
X1529256*
X1531756Y1592130D02*
X1534006D01*
Y1595130*
X1531756*
X1529256Y1595753D02*
X1527006D01*
Y1598753*
X1529256*
X1531756Y1595753D02*
X1534006D01*
Y1598753*
X1531756*
X1529256Y1599435D02*
X1527006D01*
Y1602435*
X1529256*
X1531756Y1599435D02*
X1534006D01*
Y1602435*
X1531756*
X1538752Y1607848D02*
X1541002D01*
Y1604848*
X1538752*
X1536252Y1607848D02*
X1534002D01*
Y1604848*
X1536252*
X1545228Y1609463D02*
Y1611713D01*
X1548228*
Y1609463*
X1545228Y1606963D02*
Y1604713D01*
X1548228*
Y1606963*
X1551135Y1605081D02*
X1548885D01*
Y1608081*
X1551135*
X1553635Y1605081D02*
X1555885D01*
Y1608081*
X1553635*
X1586345Y1564948D02*
Y1562698D01*
X1583345*
Y1564948*
X1586345Y1567448D02*
Y1569698D01*
X1583345*
Y1567448*
X1585884Y1591077D02*
Y1588827D01*
X1582884*
Y1591077*
X1585884Y1593577D02*
Y1595827D01*
X1582884*
Y1593577*
X1582231Y1591077D02*
Y1588827D01*
X1579231*
Y1591077*
X1582231Y1593577D02*
Y1595827D01*
X1579231*
Y1593577*
X1587891Y1529884D02*
X1585641D01*
Y1532884*
X1587891*
X1590391Y1529884D02*
X1592641D01*
Y1532884*
X1590391*
G54D44*
X1579398Y1532676D02*
Y1558266D01*
X1553808*
Y1532676*
X1579398*
G54D46*
X1559547Y1612860D02*
X1552854D01*
X1559547Y1617978D02*
X1552854D01*
G54D47*
X1562007Y1618215D02*
G03X1562007I-492J0D01*
G74*
G01X0Y0D02*
M02*
