*
*
G04 PADS 9.5 Build Number: 522968 generated Gerber (RS-274-X) file*
G04 PC Version=2.1*
*
%IN "VAE1701B01_201712_BKP.p"*%
*
%MOIN*%
*
%FSLAX35Y35*%
*
*
*
*
G04 PC Standard Apertures*
*
*
G04 Thermal Relief Aperture macro.*
%AMTER*
1,1,$1,0,0*
1,0,$1-$2,0,0*
21,0,$3,$4,0,0,45*
21,0,$3,$4,0,0,135*
%
*
*
G04 Annular Aperture macro.*
%AMANN*
1,1,$1,0,0*
1,0,$2,0,0*
%
*
*
G04 Odd Aperture macro.*
%AMODD*
1,1,$1,0,0*
1,0,$1-0.005,0,0*
%
*
*
G04 PC Custom Aperture Macros*
*
*
*
*
*
*
G04 PC Aperture Table*
*
%ADD010C,0.00394*%
%ADD022C,0.00394*%
%ADD025C,0.00984*%
%ADD026C,0.00787*%
%ADD028C,0.001*%
%ADD039C,0.005*%
%ADD042C,0.008*%
%ADD043C,0.006*%
%ADD044C,0.00004*%
%ADD045C,0.01*%
%ADD046C,0.00787*%
%ADD047C,0.00984*%
%ADD048C,0.0001*%
%ADD068C,0.00354*%
*
*
*
*
G04 PC Circuitry*
G04 Layer Name VAE1701B01_201712_BKP.p - circuitry*
%LPD*%
*
G54D10*
G01X1571732Y1724385D02*
X1571226D01*
Y1723979*
X1571429*
X1571626Y1723782*
X1571614Y1723715*
X1571341Y1722965*
X1571732Y1723825*
Y1724385*
X1569632Y1730285D02*
X1568790D01*
X1567922Y1726043*
X1567729Y1725885*
X1567629*
X1567435Y1726047*
X1566665Y1730285*
X1565826*
Y1723979*
X1566132*
Y1728582*
X1566329Y1728779*
X1566429*
X1566623Y1728619*
X1567492Y1723979*
X1567866*
X1568736Y1728619*
X1568929Y1728779*
X1569029*
X1569226Y1728582*
Y1723979*
X1569632*
Y1730285*
X1564632D02*
X1563790D01*
X1562922Y1726043*
X1562729Y1725885*
X1562629*
X1562435Y1726047*
X1561665Y1730285*
X1560826*
Y1723979*
X1561132*
Y1728582*
X1561329Y1728779*
X1561429*
X1561623Y1728619*
X1562492Y1723979*
X1562866*
X1563736Y1728619*
X1563929Y1728779*
X1564029*
X1564226Y1728582*
Y1723979*
X1564632*
Y1730285*
X1559732Y1726544D02*
X1559556Y1726985D01*
X1559287Y1727344*
X1558840Y1727702*
X1558116Y1727883*
X1557251Y1727787*
X1557063Y1728088*
X1558469Y1730285*
X1558037*
X1556496Y1727879*
X1556202Y1727387*
X1556017Y1727018*
X1555826Y1726063*
Y1725514*
X1556009Y1724965*
X1556280Y1724514*
X1556725Y1724158*
X1557274Y1723975*
X1557929Y1723881*
X1558557Y1723971*
X1559092Y1724327*
X1559365Y1724692*
X1559643Y1725154*
X1559732Y1725602*
Y1726544*
X1559326Y1726082D02*
X1559324Y1726058D01*
X1559224Y1725258*
X1559198Y1725181*
X1558898Y1724681*
X1558847Y1724625*
X1558447Y1724325*
X1558361Y1724288*
X1557761Y1724188*
X1557690Y1724189*
X1557190Y1724289*
X1557111Y1724325*
X1556711Y1724625*
X1556672Y1724664*
X1556372Y1725064*
X1556335Y1725150*
X1556235Y1725750*
X1556232Y1725782*
X1556236Y1725821*
X1556436Y1726821*
X1556490Y1726921*
X1556890Y1727321*
X1556956Y1727365*
X1557456Y1727565*
X1557529Y1727579*
X1558129*
X1558202Y1727565*
X1558702Y1727365*
X1558783Y1727305*
X1559183Y1726805*
X1559223Y1726715*
X1559323Y1726115*
X1559326Y1726082*
X1551732Y1724385D02*
X1551226D01*
Y1723979*
X1551732*
Y1724385*
X1548032Y1730285D02*
X1547818D01*
X1547177Y1729553*
X1547150Y1729527*
X1546326Y1728886*
Y1728565*
X1546709Y1728838*
X1547303Y1729333*
X1547303D02*
X1547626Y1729182D01*
Y1723979*
X1548032*
Y1730285*
X1544432Y1724859D02*
X1543853Y1724787D01*
X1543829Y1724785*
X1541629*
X1541432Y1724982*
Y1725182*
X1541556Y1725365*
X1543056Y1725965*
X1543075Y1725972*
X1543632Y1726131*
Y1726385*
X1538626*
Y1726193*
X1539916Y1726279*
X1539929*
X1542229*
X1542307Y1725901*
X1541053Y1725364*
X1541122Y1725021*
X1541126Y1724982*
X1540929Y1724785*
X1538229*
X1538197Y1724788*
X1537826Y1724850*
Y1724579*
X1538217*
X1539005Y1724678*
X1539029Y1724679*
X1540929*
X1541126Y1724482*
Y1723882*
X1541116Y1723820*
X1541016Y1723520*
X1540968Y1723443*
X1540868Y1723343*
X1540817Y1723306*
X1540617Y1723206*
X1540529Y1723185*
X1540148*
X1540338Y1722805*
X1541132Y1722964*
X1541345Y1723177*
X1541432Y1723699*
Y1724482*
X1541629Y1724679*
X1542729*
X1542749Y1724678*
X1543739Y1724579*
X1544432*
Y1724859*
X1543532Y1729785D02*
X1538626D01*
Y1727379*
X1543532*
Y1727770*
X1543434Y1728558*
X1543432Y1728582*
X1543433Y1728604*
X1543532Y1729493*
Y1729785*
X1543126Y1728282D02*
Y1727682D01*
X1542929Y1727485*
X1539129*
X1538932Y1727682*
Y1728282*
X1539129Y1728479*
X1542929*
X1543126Y1728282*
Y1729482D02*
Y1728882D01*
X1542929Y1728685*
X1539129*
X1538932Y1728882*
Y1729482*
X1539129Y1729679*
X1542929*
X1543126Y1729482*
X1544132Y1731085D02*
X1536926D01*
Y1726182*
X1536923Y1726150*
X1536823Y1725550*
X1536820Y1725535*
X1536620Y1724735*
X1536613Y1724713*
X1536313Y1723913*
X1536296Y1723878*
X1535911Y1723262*
X1536117Y1723158*
X1536147Y1723140*
X1536351Y1722987*
X1536744Y1723852*
X1537037Y1724827*
X1537232Y1725999*
Y1730682*
X1537429Y1730879*
X1543829*
X1543868Y1730875*
X1544132Y1730822*
Y1731085*
X1534504Y1723235D02*
X1533635Y1723709D01*
X1533597Y1723736*
X1532597Y1724636*
X1532565Y1724891*
X1533148Y1725765*
X1533438Y1726831*
X1533880Y1728685*
X1530429*
X1530232Y1728882*
Y1730182*
X1530408Y1730378*
X1532305Y1730578*
X1534011Y1730821*
X1533990Y1730843*
X1533946Y1730909*
X1533818Y1731230*
X1533198Y1730998*
X1533164Y1730989*
X1532064Y1730789*
X1532046Y1730786*
X1529926Y1730602*
Y1726582*
X1529921Y1726540*
X1529721Y1725640*
X1529720Y1725635*
X1529520Y1724835*
X1529505Y1724794*
X1529105Y1723994*
X1529084Y1723961*
X1528532Y1723251*
X1528717Y1723158*
X1528747Y1723140*
X1528967Y1722975*
X1529355Y1723674*
X1529743Y1724451*
X1530135Y1726016*
X1530232Y1726992*
Y1728282*
X1530429Y1728479*
X1530629*
X1530818Y1728336*
X1531018Y1727636*
X1531023Y1727615*
X1531120Y1727036*
X1531312Y1726555*
X1531320Y1726530*
X1531414Y1726154*
X1532102Y1724876*
X1532068Y1724643*
X1531168Y1723743*
X1531138Y1723718*
X1530538Y1723318*
X1530527Y1723311*
X1530087Y1723060*
X1530247Y1722940*
X1530293Y1722891*
X1530387Y1722751*
X1531006Y1723137*
X1532190Y1724321*
X1532468*
X1533356Y1723434*
X1534186Y1722853*
X1534372Y1723100*
X1534390Y1723121*
X1534504Y1723235*
X1533426Y1728282D02*
X1533420Y1728235D01*
X1533020Y1726635*
X1533013Y1726612*
X1532513Y1725312*
X1532146Y1725309*
X1531947Y1725807*
X1531648Y1726505*
X1531640Y1726527*
X1531140Y1728227*
X1531329Y1728479*
X1533229*
X1533426Y1728282*
X1529064Y1726535D02*
X1528662Y1727178D01*
X1528646Y1727209*
X1528530Y1727499*
X1528158Y1727287*
X1528596Y1726587*
X1528612Y1726555*
X1528719Y1726288*
X1529064Y1726535*
X1529032Y1729285D02*
X1527929D01*
X1527732Y1729482*
Y1730482*
X1527733Y1730500*
X1527813Y1731385*
X1527426*
Y1729482*
X1527229Y1729285*
X1526126*
Y1728996*
X1527113Y1729078*
X1527326Y1728882*
X1527322Y1728844*
X1527122Y1727844*
X1527112Y1727809*
X1526712Y1726809*
X1526696Y1726778*
X1526196Y1725978*
X1526193Y1725973*
X1525874Y1725495*
X1526095Y1725231*
X1526555Y1726073*
X1527053Y1727070*
X1527426Y1726982*
Y1722779*
X1527820*
X1527733Y1724271*
X1527732Y1724282*
Y1727282*
X1527739Y1727332*
X1527732Y1727382*
Y1728882*
X1527944Y1729079*
X1529032Y1728995*
Y1729285*
X1517832Y1724885D02*
X1516826D01*
Y1723779*
X1517329*
X1517518Y1723528*
X1517318Y1722828*
X1517268Y1722743*
X1516929Y1722404*
X1517021Y1722334*
X1517563Y1722799*
X1517832Y1723518*
Y1724885*
X1511854Y1697110D02*
X1511514Y1697067D01*
X1511490Y1697066*
X1508490*
X1508472Y1697067*
X1507372Y1697167*
X1507351Y1697170*
X1506351Y1697370*
X1506312Y1697382*
X1505612Y1697682*
X1505580Y1697699*
X1504980Y1698099*
X1504893Y1698263*
Y1701566*
X1504390*
X1504376*
X1503186Y1701651*
Y1701260*
X1504290*
X1504486Y1701063*
Y1698263*
X1504441Y1698137*
X1503941Y1697537*
X1503908Y1697505*
X1503289Y1697041*
X1503647Y1696684*
X1503919Y1697160*
X1503936Y1697186*
X1504336Y1697686*
X1504402Y1697739*
X1504602Y1697839*
X1504690Y1697860*
X1504890*
X1504952Y1697849*
X1505252Y1697749*
X1505299Y1697726*
X1505593Y1697530*
X1506268Y1697145*
X1507237Y1696854*
X1508209Y1696660*
X1509390*
X1509397Y1696659*
X1511724Y1696566*
X1511795Y1696995*
X1511832Y1697081*
X1511854Y1697110*
X1511278Y1703266D02*
X1508790D01*
X1508593Y1703463*
Y1704563*
X1508597Y1704601*
X1508693Y1705082*
Y1705166*
X1508490*
X1508451Y1705170*
X1508186Y1705223*
Y1703463*
X1507990Y1703266*
X1506386*
Y1702871*
X1507979Y1702959*
X1508182Y1702721*
X1507882Y1701321*
X1507875Y1701295*
X1507475Y1700195*
X1507445Y1700142*
X1506745Y1699242*
X1506719Y1699215*
X1506113Y1698684*
X1506649Y1698327*
X1507325Y1699172*
X1507910Y1700244*
X1508297Y1701310*
X1508494Y1702789*
X1508690Y1702960*
X1510690*
X1510886Y1702763*
Y1702750*
X1510686Y1699550*
X1510681Y1699515*
X1510581Y1699115*
X1510478Y1698987*
X1510278Y1698887*
X1510228Y1698870*
X1509728Y1698770*
X1509714Y1698767*
X1509214Y1698705*
X1509358Y1698464*
X1509383Y1698401*
X1509442Y1698104*
X1510413Y1698347*
X1510826Y1698594*
X1510995Y1699101*
X1511193Y1702076*
X1511278Y1703266*
X1514532Y1726085D02*
X1510729D01*
X1510532Y1726282*
Y1726582*
X1510625Y1726749*
X1511422Y1727248*
X1512020Y1727646*
X1512028Y1727651*
X1512528Y1727951*
X1512541Y1727958*
X1512832Y1728104*
Y1728585*
X1507726*
Y1728222*
X1507990Y1728275*
X1508029Y1728279*
X1511729*
X1511835Y1727916*
X1510735Y1727216*
X1510717Y1727206*
X1510044Y1726870*
X1510124Y1726310*
X1509929Y1726085*
X1506226*
Y1725779*
X1509929*
X1510126Y1725582*
Y1723582*
X1510017Y1723406*
X1509817Y1723306*
X1509777Y1723291*
X1509377Y1723191*
X1509301Y1723187*
X1508938Y1723239*
X1509012Y1723055*
X1509022Y1723021*
X1509086Y1722700*
X1509697Y1722777*
X1510147Y1722867*
X1510448Y1723092*
X1510532Y1723599*
Y1725582*
X1510729Y1725779*
X1513929*
X1513953Y1725778*
X1514532Y1725705*
Y1726085*
X1514132Y1730285D02*
X1510729D01*
X1510560Y1730381*
X1510265Y1730872*
X1509796Y1731498*
X1509499Y1731251*
X1509987Y1730600*
X1509829Y1730285*
X1506426*
Y1730107*
X1506520Y1729730*
Y1729635*
X1506426Y1729258*
Y1728979*
X1506832*
Y1729882*
X1507029Y1730079*
X1513529*
X1513726Y1729882*
Y1729079*
X1514132*
Y1730285*
X1504996Y1703448D02*
X1504926Y1703553D01*
X1504899Y1703615*
X1504806Y1703987*
X1504521Y1704461*
X1504514Y1704475*
X1504293Y1704916*
X1503875Y1704760*
X1504160Y1704260*
X1504172Y1704236*
X1504369Y1703743*
X1504566Y1703351*
X1504586Y1703266*
X1504996Y1703448*
X1503712Y1722979D02*
X1503633Y1723763D01*
X1503632Y1723782*
Y1729182*
X1503633Y1729204*
X1503709Y1729885*
X1499429*
X1499258Y1730180*
X1499658Y1730880*
X1499665Y1730891*
X1499931Y1731290*
X1499365Y1731516*
X1499220Y1730935*
X1499209Y1730902*
X1498809Y1730002*
X1498629Y1729885*
X1496926*
Y1722879*
X1497332*
Y1723782*
X1497529Y1723979*
X1503129*
X1503326Y1723782*
Y1722979*
X1503712*
X1503326Y1726682D02*
Y1724482D01*
X1503129Y1724285*
X1497529*
X1497332Y1724482*
Y1726682*
X1497529Y1726879*
X1503129*
X1503326Y1726682*
Y1729482D02*
Y1727382D01*
X1503129Y1727185*
X1497529*
X1497332Y1727382*
Y1729482*
X1497529Y1729679*
X1503129*
X1503326Y1729482*
X1501864Y1696916D02*
X1500995Y1697390D01*
X1500958Y1697416*
X1499958Y1698316*
X1499926Y1698572*
X1500508Y1699445*
X1500799Y1700511*
X1501240Y1702366*
X1497790*
X1497593Y1702563*
Y1703863*
X1497769Y1704058*
X1499665Y1704258*
X1501372Y1704502*
X1501350Y1704523*
X1501307Y1704590*
X1501178Y1704911*
X1500559Y1704678*
X1500525Y1704669*
X1499425Y1704469*
X1499407Y1704467*
X1497286Y1704282*
Y1700263*
X1497282Y1700220*
X1497082Y1699320*
X1497081Y1699315*
X1496881Y1698515*
X1496866Y1698475*
X1496466Y1697675*
X1496445Y1697642*
X1495892Y1696931*
X1496078Y1696839*
X1496108Y1696820*
X1496327Y1696656*
X1496715Y1697355*
X1497104Y1698131*
X1497495Y1699697*
X1497593Y1700673*
Y1701963*
X1497790Y1702160*
X1497990*
X1498179Y1702017*
X1498379Y1701317*
X1498384Y1701295*
X1498480Y1700716*
X1498672Y1700236*
X1498681Y1700210*
X1498775Y1699834*
X1499463Y1698556*
X1499429Y1698323*
X1498529Y1697423*
X1498499Y1697399*
X1497899Y1696999*
X1497887Y1696992*
X1497447Y1696740*
X1497608Y1696620*
X1497653Y1696572*
X1497747Y1696431*
X1498366Y1696818*
X1499550Y1698002*
X1499829*
X1500717Y1697114*
X1501546Y1696533*
X1501732Y1696781*
X1501750Y1696802*
X1501864Y1696916*
X1500786Y1701963D02*
X1500781Y1701915D01*
X1500381Y1700315*
X1500373Y1700292*
X1499873Y1698992*
X1499507Y1698990*
X1499308Y1699487*
X1499009Y1700185*
X1499001Y1700207*
X1498501Y1701907*
X1498690Y1702160*
X1500590*
X1500786Y1701963*
X1496425Y1700215D02*
X1496023Y1700858D01*
X1496007Y1700890*
X1495891Y1701180*
X1495519Y1700967*
X1495957Y1700267*
X1495972Y1700236*
X1496079Y1699969*
X1496425Y1700215*
X1496393Y1702966D02*
X1495290D01*
X1495093Y1703163*
Y1704163*
X1495094Y1704181*
X1495174Y1705066*
X1494786*
Y1703163*
X1494590Y1702966*
X1493486*
Y1702677*
X1494473Y1702759*
X1494686Y1702563*
X1494683Y1702524*
X1494483Y1701524*
X1494472Y1701490*
X1494072Y1700490*
X1494057Y1700458*
X1493557Y1699658*
X1493553Y1699653*
X1493235Y1699176*
X1493455Y1698911*
X1493915Y1699754*
X1494414Y1700751*
X1494786Y1700663*
Y1696460*
X1495181*
X1495093Y1697951*
Y1697963*
Y1700963*
X1495099Y1701013*
X1495093Y1701063*
Y1702563*
X1495305Y1702759*
X1496393Y1702675*
Y1702966*
X1494132Y1729285D02*
X1491829D01*
X1491632Y1729482*
Y1730182*
X1491635Y1730215*
X1491732Y1730799*
Y1731385*
X1491326*
Y1729482*
X1491129Y1729285*
X1488849*
X1488925Y1728604*
X1488926Y1728582*
Y1723682*
X1488925Y1723661*
X1488849Y1722979*
X1489232*
Y1723582*
X1489429Y1723779*
X1493529*
X1493726Y1723582*
Y1722979*
X1494132*
Y1729285*
X1493726Y1726282D02*
Y1724182D01*
X1493529Y1723985*
X1491829*
X1491632Y1724182*
Y1726282*
X1491829Y1726479*
X1493529*
X1493726Y1726282*
Y1728782D02*
Y1726882D01*
X1493529Y1726685*
X1491829*
X1491632Y1726882*
Y1728782*
X1491829Y1728979*
X1493529*
X1493726Y1728782*
X1491326Y1726282D02*
Y1724182D01*
X1491129Y1723985*
X1489429*
X1489232Y1724182*
Y1726282*
X1489429Y1726479*
X1491129*
X1491326Y1726282*
Y1728782D02*
Y1726882D01*
X1491129Y1726685*
X1489429*
X1489232Y1726882*
Y1728782*
X1489429Y1728979*
X1491129*
X1491326Y1728782*
X1491493Y1702266D02*
X1487690D01*
X1487493Y1702463*
X1487494Y1702482*
X1487594Y1703482*
Y1703487*
X1487694Y1704287*
X1487695Y1704295*
X1487795Y1704895*
X1487799Y1704910*
X1487851Y1705119*
X1487649Y1705170*
X1487286Y1705230*
Y1703863*
X1487284Y1703835*
X1487084Y1702435*
X1486890Y1702266*
X1484690*
X1484668Y1702267*
X1483986Y1702343*
Y1701980*
X1484770Y1702059*
X1484790Y1702060*
X1486790*
X1486977Y1701804*
X1486477Y1700204*
X1486460Y1700165*
X1485660Y1698765*
X1485629Y1698723*
X1484529Y1697623*
X1484489Y1697593*
X1483545Y1697042*
X1483708Y1696920*
X1483747Y1696881*
X1483926Y1696642*
X1485152Y1697605*
X1486125Y1698773*
X1486906Y1700238*
X1487401Y1701918*
X1487590Y1702060*
X1490790*
X1490986Y1701848*
X1490686Y1697948*
X1490666Y1697875*
X1490466Y1697475*
X1490429Y1697423*
X1490129Y1697123*
X1489990Y1697066*
X1488792*
X1489018Y1696560*
X1489018D02*
X1489762D01*
X1490411Y1696745*
X1490826Y1696994*
X1490996Y1697504*
X1491394Y1701383*
X1491397Y1701401*
X1491493Y1701882*
Y1702266*
X1489718Y1699310D02*
X1488155Y1700380D01*
X1487945Y1700013*
X1489435Y1698854*
X1489621Y1699164*
X1489626Y1699172*
X1489718Y1699310*
X1487948Y1725916D02*
X1487623Y1726102D01*
X1487410Y1725605*
X1487009Y1724702*
X1487001Y1724687*
X1486501Y1723787*
X1486489Y1723768*
X1486135Y1723272*
X1486402Y1723165*
X1486468Y1723121*
X1486586Y1723004*
X1486851Y1723468*
X1487646Y1725455*
X1487665Y1725491*
X1487948Y1725916*
X1486123Y1703375D02*
X1485744Y1703830D01*
X1484903Y1704671*
X1484649Y1704367*
X1485337Y1703593*
X1485339Y1703591*
X1485801Y1703052*
X1486123Y1703375*
X1487765Y1727794D02*
X1486308Y1728523D01*
X1486099Y1728158*
X1487545Y1727354*
X1487765Y1727794*
X1488336Y1730038D02*
X1486969Y1730922D01*
X1486722Y1730627*
X1488090Y1729742*
X1488336Y1730038*
X1484275Y1723175D02*
X1484050Y1723699D01*
X1483732Y1724336*
X1483303Y1724175*
X1483605Y1723570*
X1483613Y1723551*
X1483837Y1722956*
X1484275Y1723175*
X1481840Y1697958D02*
X1481317Y1698191D01*
X1481179Y1697709*
X1481176Y1697700*
X1481076Y1697400*
X1480952Y1697276*
X1480652Y1697176*
X1480590Y1697166*
X1479690*
X1479642Y1697172*
X1479242Y1697272*
X1479114Y1697375*
X1478914Y1697775*
X1478893Y1697863*
Y1700763*
X1478967Y1700916*
X1479467Y1701316*
X1479512Y1701344*
X1480198Y1701638*
X1480985Y1702130*
X1480994Y1702135*
X1481697Y1702525*
X1481354Y1702982*
X1481021Y1702716*
X1480529Y1702223*
X1480483Y1702189*
X1479183Y1701489*
X1478893Y1701663*
Y1703863*
Y1703878*
X1478977Y1704966*
X1478486*
Y1697587*
X1478575Y1697231*
X1478725Y1696932*
X1479033Y1696855*
X1479509Y1696760*
X1480665*
X1481021Y1696848*
X1481360Y1697018*
X1481615Y1697358*
X1481840Y1697958*
X1481684Y1723224D02*
X1481386Y1724266D01*
X1480974Y1724214*
X1481119Y1723633*
X1481266Y1723119*
X1481684Y1723224*
X1479409Y1723030D02*
X1479336Y1723544D01*
X1479180Y1724165*
X1478761Y1724113*
X1478984Y1722924*
X1479409Y1723030*
X1477693Y1701966D02*
X1477300D01*
X1476411Y1701867*
X1476193Y1702063*
Y1703763*
Y1703779*
X1476276Y1704766*
X1475804*
X1475886Y1703779*
Y1703763*
Y1697963*
X1475741Y1697773*
X1474641Y1697473*
X1474393Y1697663*
Y1702766*
X1474004*
X1474086Y1701779*
Y1701763*
Y1697563*
X1473917Y1697368*
X1473475Y1697305*
X1473702Y1696794*
X1473929Y1696850*
X1474416Y1697045*
X1474432Y1697051*
X1475729Y1697450*
X1476027Y1697549*
X1476051Y1697556*
X1477043Y1697754*
X1477593Y1697911*
Y1698219*
X1476431Y1697970*
X1476193Y1698163*
Y1701363*
X1476390Y1701560*
X1477693*
Y1701966*
X1477010Y1724259D02*
X1476642Y1724351D01*
X1476309Y1723602*
X1476305Y1723594*
X1476003Y1722990*
X1476418Y1722834*
X1476946Y1724155*
X1476965Y1724191*
X1477010Y1724259*
X1484632Y1725371D02*
X1483443Y1725286D01*
X1483429Y1725285*
X1480629*
X1480432Y1725482*
Y1726482*
X1480629Y1726679*
X1482529*
X1482543*
X1483732Y1726594*
Y1726885*
X1480629*
X1480432Y1727082*
Y1727982*
X1480629Y1728179*
X1483821*
X1483733Y1729771*
X1483732Y1729782*
X1483733Y1729794*
X1483820Y1731285*
X1476738*
X1476826Y1729794*
Y1729782*
Y1729771*
X1476737Y1728179*
X1479829*
X1480026Y1727982*
Y1727082*
X1479829Y1726885*
X1476826*
Y1726594*
X1478015Y1726679*
X1478029*
X1479829*
X1480026Y1726482*
Y1725482*
X1479829Y1725285*
X1477129*
X1477101Y1725287*
X1476415Y1725385*
X1475826*
Y1725079*
X1484632*
Y1725371*
X1483426Y1730882D02*
Y1728682D01*
X1483229Y1728485*
X1480629*
X1480432Y1728682*
Y1730882*
X1480629Y1731079*
X1483229*
X1483426Y1730882*
X1480026D02*
Y1728682D01*
X1479829Y1728485*
X1477329*
X1477132Y1728682*
Y1730882*
X1477329Y1731079*
X1479829*
X1480026Y1730882*
X1471743Y1604130D02*
X1471403Y1604087D01*
X1471379Y1604086*
X1468379*
X1468361*
X1467261Y1604186*
X1467240Y1604189*
X1466240Y1604389*
X1466201Y1604401*
X1465501Y1604701*
X1465469Y1604719*
X1464869Y1605119*
X1464782Y1605282*
Y1608586*
X1464279*
X1464265*
X1463075Y1608671*
Y1608279*
X1464179*
X1464375Y1608082*
Y1605282*
X1464330Y1605156*
X1463830Y1604556*
X1463797Y1604525*
X1463178Y1604061*
X1463536Y1603704*
X1463808Y1604180*
X1463825Y1604205*
X1464225Y1604705*
X1464291Y1604758*
X1464491Y1604858*
X1464579Y1604879*
X1464779*
X1464841Y1604869*
X1465141Y1604769*
X1465188Y1604746*
X1465482Y1604550*
X1466157Y1604165*
X1467126Y1603874*
X1468098Y1603679*
X1469279*
X1469286*
X1471613Y1603586*
X1471684Y1604015*
X1471721Y1604101*
X1471743Y1604130*
X1471167Y1610286D02*
X1468679D01*
X1468482Y1610482*
Y1611582*
X1468486Y1611621*
X1468582Y1612102*
Y1612186*
X1468379*
X1468340Y1612189*
X1468075Y1612242*
Y1610482*
X1467879Y1610286*
X1466275*
Y1609891*
X1467868Y1609979*
X1468071Y1609741*
X1467771Y1608341*
X1467764Y1608315*
X1467364Y1607215*
X1467334Y1607162*
X1466634Y1606262*
X1466608Y1606234*
X1466002Y1605704*
X1466538Y1605346*
X1467214Y1606192*
X1467799Y1607264*
X1468186Y1608330*
X1468383Y1609808*
X1468579Y1609979*
X1470579*
X1470775Y1609782*
Y1609770*
X1470575Y1606570*
X1470570Y1606535*
X1470470Y1606135*
X1470367Y1606006*
X1470167Y1605906*
X1470117Y1605889*
X1469617Y1605789*
X1469603Y1605787*
X1469103Y1605725*
X1469247Y1605484*
X1469272Y1605421*
X1469331Y1605123*
X1470302Y1605366*
X1470715Y1605614*
X1470884Y1606121*
X1471082Y1609096*
X1471167Y1610286*
X1467832Y1724885D02*
X1466826D01*
Y1723779*
X1467329*
X1467518Y1723528*
X1467318Y1722828*
X1467268Y1722743*
X1466929Y1722404*
X1467021Y1722334*
X1467563Y1722799*
X1467832Y1723518*
Y1724885*
X1464885Y1610467D02*
X1464815Y1610573D01*
X1464788Y1610635*
X1464695Y1611006*
X1464410Y1611481*
X1464403Y1611494*
X1464182Y1611936*
X1463764Y1611779*
X1464050Y1611280*
X1464061Y1611256*
X1464258Y1610763*
X1464455Y1610370*
X1464475Y1610285*
X1464885Y1610467*
X1464517Y1726985D02*
X1460929D01*
X1460749Y1727262*
X1461149Y1728162*
X1461329Y1728279*
X1463832*
Y1731185*
X1460026*
Y1728279*
X1460529*
X1460708Y1728000*
X1460108Y1726700*
X1460068Y1726643*
X1459314Y1725889*
X1459377Y1725873*
X1459468Y1725821*
X1459616Y1725674*
X1459973Y1726103*
X1460469Y1726797*
X1460629Y1726879*
X1461229*
X1461410Y1726605*
X1461110Y1725905*
X1461098Y1725881*
X1460798Y1725381*
X1460755Y1725331*
X1460155Y1724831*
X1459634Y1724384*
X1459917Y1724149*
X1460878Y1725110*
X1461355Y1725777*
X1461746Y1726755*
X1461929Y1726879*
X1462529*
X1462726Y1726682*
X1462714Y1726616*
X1462214Y1725216*
X1462190Y1725169*
X1461490Y1724169*
X1461450Y1724127*
X1460550Y1723427*
X1460525Y1723410*
X1459890Y1723058*
X1460047Y1722940*
X1460093Y1722891*
X1460181Y1722759*
X1461009Y1723339*
X1461590Y1723823*
X1462169Y1724498*
X1462744Y1725457*
X1463037Y1726727*
X1463229Y1726879*
X1463929*
X1464126Y1726682*
Y1725582*
X1464124Y1725558*
X1464026Y1724770*
Y1724182*
X1464016Y1724120*
X1463916Y1723820*
X1463817Y1723706*
X1463417Y1723506*
X1463329Y1723485*
X1462929*
X1462890Y1723489*
X1462785Y1723510*
X1462905Y1723270*
X1462926Y1723182*
Y1722909*
X1463384Y1722975*
X1463889Y1723143*
X1463953Y1723270*
X1463965Y1723291*
X1464146Y1723563*
X1464236Y1723922*
X1464333Y1724506*
X1464517Y1726985*
X1463526Y1729482D02*
Y1728582D01*
X1463329Y1728385*
X1460529*
X1460332Y1728582*
Y1729482*
X1460529Y1729679*
X1463329*
X1463526Y1729482*
Y1730782D02*
Y1729982D01*
X1463329Y1729785*
X1460529*
X1460332Y1729982*
Y1730782*
X1460529Y1730979*
X1463329*
X1463526Y1730782*
X1461753Y1603936D02*
X1460884Y1604410D01*
X1460847Y1604436*
X1459847Y1605336*
X1459815Y1605592*
X1460397Y1606465*
X1460688Y1607531*
X1461129Y1609386*
X1457679*
X1457482Y1609582*
Y1610882*
X1457658Y1611078*
X1459554Y1611278*
X1461261Y1611522*
X1461239Y1611543*
X1461196Y1611609*
X1461067Y1611930*
X1460448Y1611698*
X1460414Y1611689*
X1459314Y1611489*
X1459296Y1611486*
X1457175Y1611302*
Y1607282*
X1457171Y1607240*
X1456971Y1606340*
X1456970Y1606335*
X1456770Y1605535*
X1456755Y1605494*
X1456355Y1604694*
X1456334Y1604662*
X1455781Y1603951*
X1455967Y1603858*
X1455997Y1603840*
X1456216Y1603675*
X1456604Y1604374*
X1456993Y1605151*
X1457384Y1606716*
X1457482Y1607692*
Y1608982*
X1457679Y1609179*
X1457879*
X1458068Y1609037*
X1458068D02*
X1458268Y1608337D01*
X1458268D02*
X1458273Y1608315D01*
X1458369Y1607736*
X1458561Y1607256*
X1458570Y1607230*
X1458664Y1606854*
X1459352Y1605576*
X1459318Y1605343*
X1458418Y1604443*
X1458388Y1604419*
X1457788Y1604019*
X1457776Y1604012*
X1457336Y1603760*
X1457497Y1603640*
X1457542Y1603592*
X1457636Y1603451*
X1458255Y1603837*
X1459439Y1605022*
X1459718*
X1460606Y1604134*
X1461435Y1603553*
X1461621Y1603801*
X1461639Y1603822*
X1461753Y1603936*
X1460675Y1608982D02*
X1460670Y1608935D01*
X1460270Y1607335*
X1460262Y1607312*
X1459762Y1606012*
X1459396Y1606009*
X1459197Y1606507*
X1458898Y1607205*
X1458890Y1607227*
X1458390Y1608927*
X1458579Y1609179*
X1460479*
X1460675Y1608982*
X1458832Y1726642D02*
X1458568Y1726589D01*
X1458529Y1726585*
X1457729*
X1457532Y1726782*
Y1728082*
X1457747Y1728278*
X1458632Y1728198*
Y1728485*
X1457629*
X1457613Y1728486*
X1456526Y1728577*
Y1728234*
X1456681Y1728273*
X1456729Y1728279*
X1457029*
X1457226Y1728082*
Y1726782*
X1457013Y1726586*
X1456026Y1726668*
Y1726396*
X1457013Y1726478*
X1457226Y1726282*
Y1723982*
X1457205Y1723894*
X1457105Y1723694*
X1457068Y1723643*
X1456995Y1723570*
X1457251Y1723263*
X1457899Y1723830*
X1457920Y1723846*
X1458700Y1724366*
X1458618Y1724653*
X1458451Y1724528*
X1457855Y1724031*
X1457532Y1724182*
Y1726282*
X1457744Y1726479*
X1458832Y1726395*
Y1726642*
X1456314Y1607235D02*
X1455912Y1607878D01*
X1455896Y1607909*
X1455780Y1608199*
X1455408Y1607987*
X1455846Y1607287*
X1455861Y1607256*
X1455968Y1606988*
X1456314Y1607235*
X1456282Y1609986D02*
X1455179D01*
X1454982Y1610182*
Y1611182*
X1454983Y1611200*
X1455063Y1612086*
X1454675*
Y1610182*
X1454479Y1609986*
X1453375*
Y1609696*
X1454362Y1609779*
X1454575Y1609582*
X1454572Y1609544*
X1454372Y1608544*
X1454361Y1608509*
X1453961Y1607509*
X1453946Y1607478*
X1453446Y1606678*
X1453442Y1606673*
X1453124Y1606196*
X1453344Y1605931*
X1453804Y1606774*
X1454303Y1607770*
X1454675Y1607682*
Y1603479*
X1455070*
X1454982Y1604971*
Y1604982*
Y1607982*
X1454988Y1608032*
X1454982Y1608082*
Y1609582*
X1455194Y1609779*
X1456282Y1609695*
Y1609986*
X1458932Y1730255D02*
X1458457Y1730187D01*
X1458429Y1730185*
X1457329*
X1457158Y1730480*
X1457558Y1731180*
X1457575Y1731205*
X1457793Y1731478*
X1457264Y1731636*
X1457118Y1731128*
X1457105Y1731094*
X1456305Y1729494*
X1456287Y1729464*
X1455799Y1728814*
X1456087Y1728574*
X1456165Y1728691*
X1456234Y1728755*
X1456272Y1728900*
X1456564Y1729291*
X1456958Y1729980*
X1457129Y1730079*
X1458229*
X1458251Y1730078*
X1458932Y1730002*
Y1730255*
X1454351Y1723120D02*
X1453528Y1723613D01*
X1453513Y1723623*
X1452579Y1724302*
X1452402Y1724037*
X1452538Y1723946*
X1452547Y1723940*
X1452943Y1723643*
X1453536Y1723248*
X1454171Y1722851*
X1454351Y1723120*
X1453932Y1727085D02*
X1449661D01*
X1449723Y1726715*
X1449726Y1726682*
Y1725982*
X1449725Y1725969*
X1449639Y1724679*
X1450032*
Y1726782*
X1450229Y1726979*
X1453429*
X1453626Y1726782*
Y1724779*
X1453932*
Y1727085*
X1451382Y1609286D02*
X1447579D01*
X1447382Y1609482*
X1447383Y1609502*
X1447483Y1610502*
Y1610507*
X1447583Y1611307*
X1447584Y1611315*
X1447684Y1611915*
X1447688Y1611930*
X1447740Y1612139*
X1447538Y1612190*
X1447538D02*
X1447175Y1612250D01*
Y1610882*
X1447173Y1610855*
X1446973Y1609455*
X1446779Y1609286*
X1444579*
X1444557Y1609287*
X1443875Y1609362*
Y1609000*
X1444659Y1609078*
X1444679Y1609079*
X1446679*
X1446866Y1608824*
X1446866D02*
X1446366Y1607224D01*
X1446366D02*
X1446350Y1607185D01*
X1445550Y1605785*
X1445518Y1605743*
X1444418Y1604643*
X1444378Y1604612*
X1443434Y1604062*
X1443597Y1603940*
X1443636Y1603901*
X1443815Y1603662*
X1445041Y1604624*
X1446014Y1605793*
X1446795Y1607257*
X1447290Y1608938*
X1447479Y1609079*
X1450679*
X1450875Y1608867*
X1450575Y1604967*
X1450555Y1604894*
X1450355Y1604494*
X1450318Y1604443*
X1450018Y1604143*
X1449879Y1604086*
X1448682*
X1448907Y1603579*
X1449651*
X1450300Y1603765*
X1450715Y1604014*
X1450885Y1604524*
X1451283Y1608403*
X1451286Y1608421*
X1451382Y1608902*
Y1609286*
X1449607Y1606330D02*
X1448044Y1607399D01*
X1447834Y1607033*
X1449324Y1605874*
X1449510Y1606184*
X1449515Y1606192*
X1449607Y1606330*
X1452075Y1725910D02*
X1451505Y1725967D01*
X1451425Y1725163*
X1451405Y1725094*
X1451005Y1724294*
X1450987Y1724264*
X1450687Y1723864*
X1450602Y1723800*
X1450602D02*
X1450104Y1723600D01*
X1449407Y1723301*
X1449372Y1723290*
X1448822Y1723168*
X1448968Y1723021*
X1448993Y1722991*
X1449103Y1722826*
X1450147Y1723261*
X1450912Y1723644*
X1451373Y1724104*
X1451649Y1724565*
X1451941Y1725440*
X1452075Y1725910*
X1454632Y1728685D02*
X1453529D01*
X1453333Y1728904*
X1453409Y1729585*
X1453026*
Y1728882*
X1452829Y1728685*
X1450729*
X1450532Y1728882*
Y1729485*
X1450152*
X1450224Y1728907*
X1450226Y1728882*
X1450029Y1728685*
X1449126*
Y1728505*
X1449705Y1728578*
X1449729Y1728579*
X1450029*
X1450224Y1728354*
X1450156Y1727879*
X1450532*
Y1728382*
X1450729Y1728579*
X1452829*
X1453026Y1728382*
Y1727879*
X1453402*
X1453334Y1728354*
X1453529Y1728579*
X1453929*
X1453977Y1728573*
X1454353Y1728479*
X1454632*
Y1728685*
X1454132Y1730650D02*
X1453761Y1730588D01*
X1453729Y1730585*
X1452129*
X1451932Y1730782*
Y1731585*
X1451547*
X1451625Y1730802*
X1451626Y1730782*
X1451429Y1730585*
X1450629*
X1450614Y1730586*
X1449526Y1730670*
Y1730422*
X1449790Y1730475*
X1449829Y1730479*
X1451429*
X1451626Y1730282*
X1451624Y1730258*
X1451552Y1729679*
X1451932*
Y1730282*
X1452129Y1730479*
X1453929*
X1453977Y1730473*
X1454132Y1730434*
Y1730650*
X1448232Y1730385D02*
X1446047D01*
X1446125Y1729602*
X1446126Y1729582*
Y1725082*
X1446122Y1725044*
X1446026Y1724563*
Y1724079*
X1446432*
Y1725382*
X1446629Y1725579*
X1447729*
X1447926Y1725382*
Y1724979*
X1448232*
Y1730385*
X1447926Y1729982D02*
Y1725882D01*
X1447729Y1725685*
X1446629*
X1446432Y1725882*
Y1729982*
X1446629Y1730179*
X1447729*
X1447926Y1729982*
X1446012Y1610395D02*
X1445633Y1610850D01*
X1444792Y1611691*
X1444538Y1611387*
X1445226Y1610613*
X1445228Y1610611*
X1445690Y1610072*
X1446012Y1610395*
X1441729Y1604978D02*
X1441206Y1605211D01*
X1441068Y1604728*
X1441065Y1604720*
X1440965Y1604420*
X1440841Y1604296*
X1440541Y1604196*
X1440479Y1604186*
X1439579*
X1439531Y1604191*
X1439131Y1604291*
X1439003Y1604394*
X1438803Y1604794*
X1438782Y1604882*
Y1607782*
X1438856Y1607936*
X1439356Y1608336*
X1439401Y1608363*
X1440087Y1608657*
X1440874Y1609149*
X1440883Y1609155*
X1440883D02*
X1441586Y1609545D01*
X1441243Y1610002*
X1440910Y1609736*
X1440418Y1609243*
X1440372Y1609209*
X1439072Y1608509*
X1438782Y1608682*
Y1610882*
Y1610898*
X1438866Y1611986*
X1438375*
Y1604607*
X1438464Y1604251*
X1438614Y1603951*
X1438922Y1603875*
X1439398Y1603779*
X1440554*
X1440910Y1603868*
X1441249Y1604038*
X1441504Y1604378*
X1441729Y1604978*
X1437582Y1608986D02*
X1437190D01*
X1436300Y1608887*
X1436082Y1609082*
Y1610782*
Y1610799*
X1436165Y1611786*
X1435693*
X1435775Y1610799*
Y1610782*
Y1604982*
X1435630Y1604793*
X1434530Y1604493*
X1434282Y1604682*
Y1609786*
X1433893*
X1433975Y1608799*
Y1608782*
Y1604582*
X1433806Y1604388*
X1433364Y1604324*
X1433591Y1603814*
X1433818Y1603870*
X1434306Y1604065*
X1434306D02*
X1434321Y1604071D01*
X1435619Y1604470*
X1435619D02*
X1435916Y1604569D01*
X1435940Y1604575*
X1436932Y1604774*
X1437482Y1604931*
Y1605239*
X1436320Y1604990*
X1436082Y1605182*
Y1608382*
X1436279Y1608579*
X1437582*
Y1608986*
X1437832Y1724885D02*
X1436826D01*
Y1723779*
X1437329*
X1437518Y1723528*
X1437318Y1722828*
X1437268Y1722743*
X1436929Y1722404*
X1437021Y1722334*
X1437563Y1722799*
X1437832Y1723518*
Y1724885*
X1428932Y1727481D02*
X1428836Y1728527D01*
X1428359Y1729481*
X1427678Y1730455*
X1426829Y1731304*
X1426615Y1731090*
X1427461Y1730329*
X1427484Y1730303*
X1428184Y1729403*
X1428212Y1729355*
X1428612Y1728355*
X1428625Y1728302*
X1428725Y1727302*
X1428726Y1727282*
X1428722Y1727244*
X1428522Y1726244*
X1428512Y1726209*
X1428112Y1725209*
X1428087Y1725164*
X1427487Y1724364*
X1427460Y1724335*
X1426700Y1723659*
X1426852Y1723468*
X1427685Y1724218*
X1428455Y1725180*
X1428835Y1726224*
X1428932Y1727481*
X1424532Y1730285D02*
X1420826D01*
Y1729879*
X1422229*
X1422426Y1729682*
Y1723979*
X1422932*
Y1729682*
X1423129Y1729879*
X1424532*
Y1730285*
X1419632Y1727968D02*
X1419537Y1728637D01*
X1419349Y1729200*
X1419077Y1729652*
X1418540Y1730100*
X1417729Y1730281*
X1416911Y1730099*
X1416277Y1729646*
X1416009Y1729200*
X1415821Y1728637*
X1415726Y1727968*
Y1726296*
X1415821Y1725628*
X1416009Y1725065*
X1416285Y1724604*
X1416558Y1724331*
X1416915Y1724064*
X1417272Y1723974*
X1417724Y1723884*
X1418081Y1723973*
X1418090Y1723975*
X1418532Y1724064*
X1419073Y1724604*
X1419349Y1725065*
X1419537Y1725628*
X1419632Y1726296*
Y1727968*
X1419126Y1727882D02*
Y1726382D01*
X1419123Y1726350*
X1419023Y1725750*
X1419022Y1725744*
X1418922Y1725244*
X1418893Y1725173*
X1418693Y1724873*
X1418668Y1724843*
X1418268Y1724443*
X1418177Y1724391*
X1417777Y1724291*
X1417690Y1724289*
X1417190Y1724389*
X1417090Y1724443*
X1416690Y1724843*
X1416665Y1724873*
X1416465Y1725173*
X1416436Y1725244*
X1416336Y1725744*
X1416335Y1725750*
X1416235Y1726350*
X1416232Y1726382*
Y1727882*
X1416235Y1727915*
X1416335Y1728515*
X1416336Y1728521*
X1416436Y1729021*
X1416465Y1729091*
X1416665Y1729391*
X1416690Y1729421*
X1417090Y1729821*
X1417190Y1729875*
X1417690Y1729975*
X1417777Y1729973*
X1418177Y1729873*
X1418268Y1729821*
X1418668Y1729421*
X1418693Y1729391*
X1418893Y1729091*
X1418922Y1729021*
X1419022Y1728521*
X1419023Y1728515*
X1419123Y1727915*
X1419126Y1727882*
X1414630Y1725773D02*
X1414543Y1726210D01*
X1414280Y1726648*
X1413925Y1726914*
X1413541Y1727106*
X1413567Y1727469*
X1413836Y1727559*
X1414174Y1727812*
X1414339Y1728142*
X1414430Y1728780*
X1414342Y1729308*
X1413994Y1729830*
X1413460Y1730097*
X1412705Y1730285*
X1410826*
Y1723979*
X1412618*
X1413478Y1724075*
X1414108Y1724345*
X1414539Y1724862*
X1414630Y1725773*
X1414126Y1725782D02*
X1414123Y1725750D01*
X1414023Y1725150*
X1413987Y1725064*
X1413687Y1724664*
X1413602Y1724600*
X1413602D02*
X1413102Y1724400D01*
X1413102D02*
X1413061Y1724388D01*
X1412461Y1724288*
X1412429Y1724285*
X1411529*
X1411332Y1724482*
Y1726882*
X1411529Y1727079*
X1412529*
X1412568Y1727075*
X1413568Y1726875*
X1413687Y1726800*
X1413987Y1726400*
X1414022Y1726321*
X1414122Y1725821*
X1414126Y1725782*
X1413926Y1728782D02*
X1413923Y1728750D01*
X1413823Y1728150*
X1413793Y1728073*
X1413593Y1727773*
X1413538Y1727718*
X1413238Y1727518*
X1413129Y1727485*
X1411529*
X1411332Y1727682*
Y1729682*
X1411529Y1729879*
X1413129*
X1413238Y1729846*
X1413538Y1729646*
X1413593Y1729591*
X1413793Y1729291*
X1413820Y1729230*
X1413920Y1728830*
X1413926Y1728782*
X1409336Y1722779D02*
X1406197Y1730485D01*
X1406022*
X1409161Y1722779*
X1409336*
X1404631Y1727082D02*
X1404534Y1727856D01*
X1404437Y1728537*
X1404249Y1729100*
X1403983Y1729543*
X1403155Y1730095*
X1402013Y1730285*
X1400826*
Y1723979*
X1402011*
X1403062Y1724170*
X1403887Y1724629*
X1404156Y1725077*
X1404439Y1725642*
X1404534Y1726308*
X1404631Y1727082*
X1404026Y1727782D02*
Y1726382D01*
X1404022Y1726344*
X1403822Y1725344*
X1403793Y1725273*
X1403593Y1724973*
X1403538Y1724918*
X1402938Y1724518*
X1402877Y1724491*
X1402077Y1724291*
X1402029Y1724285*
X1401529*
X1401332Y1724482*
Y1729682*
X1401529Y1729879*
X1402029*
X1402053Y1729878*
X1402853Y1729778*
X1402955Y1729733*
X1402955D02*
X1403555Y1729233D01*
X1403555D02*
X1403593Y1729191D01*
X1403793Y1728891*
X1403822Y1728821*
X1404022Y1727821*
X1404026Y1727782*
X1399532Y1730285D02*
X1399026D01*
Y1725582*
X1398829Y1725385*
X1398729*
X1398548Y1725505*
X1396499Y1730285*
X1395826*
Y1723979*
X1396332*
Y1728582*
X1396708Y1728664*
X1398855Y1723979*
X1399532*
Y1730285*
X1394532Y1726885D02*
X1392926D01*
Y1726579*
X1393929*
X1394126Y1726382*
Y1725982*
X1394124Y1725954*
X1394024Y1725254*
X1394012Y1725209*
X1393812Y1724709*
X1393747Y1724625*
X1393347Y1724325*
X1393229Y1724285*
X1392829*
X1392790Y1724289*
X1392290Y1724389*
X1392190Y1724443*
X1391790Y1724843*
X1391765Y1724873*
X1391565Y1725173*
X1391536Y1725244*
X1391336Y1726244*
X1391332Y1726282*
Y1727682*
X1391335Y1727715*
X1391435Y1728315*
X1391436Y1728321*
X1391536Y1728821*
X1391538Y1728830*
X1391638Y1729230*
X1391690Y1729321*
X1392090Y1729721*
X1392156Y1729765*
X1392656Y1729965*
X1392768Y1729975*
X1393268Y1729875*
X1393368Y1729821*
X1393668Y1729521*
X1393712Y1729455*
X1393912Y1728955*
X1393924Y1728910*
X1394000Y1728379*
X1394484*
X1394342Y1729016*
X1393971Y1729757*
X1393447Y1730194*
X1392717Y1730285*
X1392367*
X1391940Y1730115*
X1391297Y1729472*
X1391114Y1729015*
X1390921Y1728437*
X1390826Y1727768*
Y1726099*
X1390921Y1725530*
X1391106Y1724975*
X1391374Y1724618*
X1392022Y1724062*
X1392726Y1723886*
X1393337Y1724061*
X1393806Y1724436*
X1394123Y1724315*
X1394196Y1723879*
X1394532*
Y1726885*
X1389336Y1722779D02*
X1386197Y1730485D01*
X1386022*
X1389161Y1722779*
X1389336*
X1384532Y1724285D02*
X1381629D01*
X1381432Y1724482*
Y1726882*
X1381629Y1727079*
X1384132*
Y1727485*
X1381629*
X1381432Y1727682*
Y1729682*
X1381629Y1729879*
X1384332*
Y1730285*
X1380926*
Y1723979*
X1384532*
Y1724285*
X1379611Y1723979D02*
X1378253Y1726694D01*
X1378356Y1726965*
X1378832Y1727155*
X1379174Y1727412*
X1379439Y1727942*
X1379529Y1728572*
X1379346Y1729301*
X1378991Y1729834*
X1378366Y1730192*
X1377617Y1730285*
X1375826*
Y1723979*
X1376332*
Y1726682*
X1376529Y1726879*
X1377529*
X1377704Y1726773*
X1379149Y1723979*
X1379611*
X1379026Y1728582D02*
X1379023Y1728550D01*
X1378923Y1727950*
X1378868Y1727843*
X1378568Y1727543*
X1378538Y1727518*
X1378238Y1727318*
X1378168Y1727289*
X1377668Y1727189*
X1377629Y1727185*
X1376529*
X1376332Y1727382*
Y1729682*
X1376529Y1729879*
X1377429*
X1377461Y1729876*
X1378061Y1729776*
X1378102Y1729765*
X1378602Y1729565*
X1378705Y1729470*
X1378905Y1729070*
X1378920Y1729030*
X1379020Y1728630*
X1379026Y1728582*
X1374804Y1730285D02*
X1374308D01*
X1373925Y1726164*
X1373729Y1725985*
X1373629*
X1373434Y1726160*
X1372954Y1730285*
X1372400*
X1371824Y1726155*
X1371629Y1725985*
X1371529*
X1371333Y1726164*
X1370950Y1730285*
X1370454*
X1371302Y1723879*
X1371758*
X1372434Y1728710*
X1372629Y1728879*
X1372729*
X1372924Y1728710*
X1373600Y1723879*
X1373957*
X1374804Y1730285*
X1369632Y1727968D02*
X1369537Y1728637D01*
X1369349Y1729200*
X1369077Y1729652*
X1368540Y1730100*
X1367729Y1730281*
X1366911Y1730099*
X1366277Y1729646*
X1366009Y1729200*
X1365821Y1728637*
X1365726Y1727968*
Y1726296*
X1365821Y1725628*
X1366009Y1725065*
X1366285Y1724604*
X1366558Y1724331*
X1366915Y1724064*
X1367272Y1723974*
X1367724Y1723884*
X1368081Y1723973*
X1368090Y1723975*
X1368532Y1724064*
X1369073Y1724604*
X1369349Y1725065*
X1369537Y1725628*
X1369632Y1726296*
Y1727968*
X1369126Y1727882D02*
Y1726382D01*
X1369123Y1726350*
X1369023Y1725750*
X1369022Y1725744*
X1368922Y1725244*
X1368893Y1725173*
X1368693Y1724873*
X1368668Y1724843*
X1368268Y1724443*
X1368177Y1724391*
X1367777Y1724291*
X1367690Y1724289*
X1367190Y1724389*
X1367090Y1724443*
X1366690Y1724843*
X1366665Y1724873*
X1366465Y1725173*
X1366436Y1725244*
X1366336Y1725744*
X1366335Y1725750*
X1366235Y1726350*
X1366232Y1726382*
Y1727882*
X1366235Y1727915*
X1366335Y1728515*
X1366336Y1728521*
X1366436Y1729021*
X1366465Y1729091*
X1366665Y1729391*
X1366690Y1729421*
X1367090Y1729821*
X1367190Y1729875*
X1367690Y1729975*
X1367777Y1729973*
X1368177Y1729873*
X1368268Y1729821*
X1368668Y1729421*
X1368693Y1729391*
X1368893Y1729091*
X1368922Y1729021*
X1369022Y1728521*
X1369023Y1728515*
X1369123Y1727915*
X1369126Y1727882*
X1364631Y1728384D02*
X1364539Y1729213D01*
X1364191Y1729734*
X1363557Y1730097*
X1362707Y1730285*
X1360926*
Y1723979*
X1361432*
Y1726382*
X1361629Y1726579*
X1362718*
X1363556Y1726672*
X1364185Y1727121*
X1364539Y1727653*
X1364631Y1728384*
X1364126Y1728382D02*
X1364123Y1728350D01*
X1364023Y1727750*
X1364005Y1727694*
X1363805Y1727294*
X1363702Y1727200*
X1363702D02*
X1363202Y1727000D01*
X1363202D02*
X1363161Y1726988D01*
X1362561Y1726888*
X1362529Y1726885*
X1361629*
X1361432Y1727082*
Y1729682*
X1361629Y1729879*
X1363129*
X1363230Y1729851*
X1363730Y1729551*
X1363793Y1729491*
X1363993Y1729191*
X1364024Y1729110*
X1364124Y1728410*
X1364126Y1728382*
X1359336Y1722779D02*
X1356197Y1730485D01*
X1356022*
X1359161Y1722779*
X1359336*
X1354631Y1728384D02*
X1354539Y1729213D01*
X1354191Y1729734*
X1353557Y1730097*
X1352707Y1730285*
X1350926*
Y1723979*
X1351432*
Y1726382*
X1351629Y1726579*
X1352718*
X1353556Y1726672*
X1354185Y1727121*
X1354539Y1727653*
X1354631Y1728384*
X1354126Y1728382D02*
X1354123Y1728350D01*
X1354023Y1727750*
X1354005Y1727694*
X1353805Y1727294*
X1353702Y1727200*
X1353702D02*
X1353202Y1727000D01*
X1353202D02*
X1353161Y1726988D01*
X1352561Y1726888*
X1352529Y1726885*
X1351629*
X1351432Y1727082*
Y1729682*
X1351629Y1729879*
X1353129*
X1353230Y1729851*
X1353730Y1729551*
X1353793Y1729491*
X1353993Y1729191*
X1354024Y1729110*
X1354124Y1728410*
X1354126Y1728382*
X1349632Y1727968D02*
X1349537Y1728637D01*
X1349349Y1729200*
X1349077Y1729652*
X1348540Y1730100*
X1347729Y1730281*
X1346911Y1730099*
X1346277Y1729646*
X1346009Y1729200*
X1345821Y1728637*
X1345726Y1727968*
Y1726296*
X1345821Y1725628*
X1346009Y1725065*
X1346285Y1724604*
X1346558Y1724331*
X1346915Y1724064*
X1347272Y1723974*
X1347724Y1723884*
X1348081Y1723973*
X1348090Y1723975*
X1348532Y1724064*
X1349073Y1724604*
X1349349Y1725065*
X1349537Y1725628*
X1349632Y1726296*
Y1727968*
X1349126Y1727882D02*
Y1726382D01*
X1349123Y1726350*
X1349023Y1725750*
X1349022Y1725744*
X1348922Y1725244*
X1348893Y1725173*
X1348693Y1724873*
X1348668Y1724843*
X1348268Y1724443*
X1348177Y1724391*
X1347777Y1724291*
X1347690Y1724289*
X1347190Y1724389*
X1347090Y1724443*
X1346690Y1724843*
X1346665Y1724873*
X1346465Y1725173*
X1346436Y1725244*
X1346336Y1725744*
X1346335Y1725750*
X1346235Y1726350*
X1346232Y1726382*
Y1727882*
X1346235Y1727915*
X1346335Y1728515*
X1346336Y1728521*
X1346436Y1729021*
X1346465Y1729091*
X1346665Y1729391*
X1346690Y1729421*
X1347090Y1729821*
X1347190Y1729875*
X1347690Y1729975*
X1347777Y1729973*
X1348177Y1729873*
X1348268Y1729821*
X1348668Y1729421*
X1348693Y1729391*
X1348893Y1729091*
X1348922Y1729021*
X1349022Y1728521*
X1349023Y1728515*
X1349123Y1727915*
X1349126Y1727882*
X1344532Y1730285D02*
X1340826D01*
Y1729879*
X1342229*
X1342426Y1729682*
Y1723979*
X1342932*
Y1729682*
X1343129Y1729879*
X1344532*
Y1730285*
X1338859Y1731104D02*
X1338713Y1731288D01*
X1337876Y1730451*
X1337101Y1729482*
X1336719Y1728528*
X1336529Y1727480*
X1336721Y1726231*
X1337105Y1725174*
X1337777Y1724214*
X1338622Y1723454*
X1338842Y1723674*
X1338098Y1724335*
X1338081Y1724353*
X1337381Y1725153*
X1337346Y1725209*
X1336946Y1726209*
X1336933Y1726263*
X1336833Y1727263*
Y1727302*
X1336933Y1728302*
X1336946Y1728355*
X1337346Y1729355*
X1337365Y1729391*
X1337965Y1730291*
X1337997Y1730329*
X1338859Y1731104*
X1329504Y1723235D02*
X1328635Y1723709D01*
X1328597Y1723736*
X1327597Y1724636*
X1327565Y1724891*
X1328148Y1725765*
X1328438Y1726831*
X1328880Y1728685*
X1325429*
X1325232Y1728882*
Y1730182*
X1325408Y1730378*
X1327305Y1730578*
X1329011Y1730821*
X1328990Y1730843*
X1328946Y1730909*
X1328818Y1731230*
X1328198Y1730998*
X1328164Y1730989*
X1327064Y1730789*
X1327046Y1730786*
X1324926Y1730602*
Y1726582*
X1324921Y1726540*
X1324721Y1725640*
X1324720Y1725635*
X1324520Y1724835*
X1324505Y1724794*
X1324105Y1723994*
X1324084Y1723961*
X1323532Y1723251*
X1323717Y1723158*
X1323747Y1723140*
X1323967Y1722975*
X1324355Y1723674*
X1324743Y1724451*
X1325135Y1726016*
X1325232Y1726992*
Y1728282*
X1325429Y1728479*
X1325629*
X1325818Y1728336*
X1326018Y1727636*
X1326023Y1727615*
X1326120Y1727036*
X1326312Y1726555*
X1326320Y1726530*
X1326414Y1726154*
X1327102Y1724876*
X1327068Y1724643*
X1326168Y1723743*
X1326138Y1723718*
X1325538Y1723318*
X1325527Y1723311*
X1325087Y1723060*
X1325247Y1722940*
X1325293Y1722891*
X1325387Y1722751*
X1326006Y1723137*
X1327190Y1724321*
X1327468*
X1328356Y1723434*
X1329186Y1722853*
X1329372Y1723100*
X1329390Y1723121*
X1329504Y1723235*
X1328426Y1728282D02*
X1328420Y1728235D01*
X1328020Y1726635*
X1328013Y1726612*
X1327513Y1725312*
X1327146Y1725309*
X1326947Y1725807*
X1326648Y1726505*
X1326640Y1726527*
X1326140Y1728227*
X1326329Y1728479*
X1328229*
X1328426Y1728282*
X1324064Y1726535D02*
X1323662Y1727178D01*
X1323646Y1727209*
X1323530Y1727499*
X1323158Y1727287*
X1323596Y1726587*
X1323612Y1726555*
X1323719Y1726288*
X1324064Y1726535*
X1324032Y1729285D02*
X1322929D01*
X1322732Y1729482*
Y1730482*
X1322733Y1730500*
X1322813Y1731385*
X1322426*
Y1729482*
X1322229Y1729285*
X1321126*
Y1728996*
X1322113Y1729078*
X1322326Y1728882*
X1322322Y1728844*
X1322122Y1727844*
X1322112Y1727809*
X1321712Y1726809*
X1321696Y1726778*
X1321196Y1725978*
X1321193Y1725973*
X1320874Y1725495*
X1321095Y1725231*
X1321555Y1726073*
X1322053Y1727070*
X1322426Y1726982*
Y1722779*
X1322820*
X1322733Y1724271*
X1322732Y1724282*
Y1727282*
X1322739Y1727332*
X1322732Y1727382*
Y1728882*
X1322944Y1729079*
X1324032Y1728995*
Y1729285*
X1319232Y1725885D02*
X1312926D01*
Y1725579*
X1314829*
X1315005Y1725294*
X1314705Y1724694*
X1314693Y1724673*
X1314293Y1724073*
X1314268Y1724043*
X1313768Y1723543*
X1313717Y1723506*
X1313493Y1723394*
X1313751Y1722879*
X1313905*
X1314281Y1722973*
X1314297Y1722976*
X1314897Y1723076*
X1314929Y1723079*
X1315522*
X1318215Y1723279*
X1318368Y1723221*
X1318841Y1722749*
X1319142Y1722999*
X1317513Y1724713*
X1317221Y1724469*
X1317868Y1723821*
X1317739Y1723486*
X1315839Y1723386*
X1315829Y1723385*
X1314329*
X1314181Y1723712*
X1314874Y1724504*
X1315568Y1725495*
X1315729Y1725579*
X1319232*
Y1725885*
X1318432Y1727685D02*
X1313626D01*
Y1727379*
X1318432*
Y1727685*
X1318532Y1731185D02*
X1312026D01*
Y1728882*
Y1728874*
X1311926Y1726474*
X1311923Y1726447*
X1311723Y1725347*
X1311721Y1725340*
X1311521Y1724440*
X1311513Y1724413*
X1311213Y1723613*
X1311200Y1723585*
X1310898Y1723056*
X1311232Y1722864*
X1311840Y1724340*
X1312135Y1725815*
X1312332Y1727295*
Y1728882*
X1312529Y1729079*
X1318532*
Y1729563*
X1318436Y1730044*
X1318432Y1730082*
X1318435Y1730115*
X1318532Y1730699*
Y1731185*
X1318226Y1730782D02*
Y1729582D01*
X1318029Y1729385*
X1312529*
X1312332Y1729582*
Y1730782*
X1312529Y1730979*
X1318029*
X1318226Y1730782*
X1309023Y1723079D02*
X1308932Y1725073D01*
Y1725082*
Y1728882*
Y1728892*
X1309023Y1730785*
X1301426*
Y1722979*
X1301832*
Y1723582*
X1302029Y1723779*
X1308429*
X1308626Y1723582*
Y1723079*
X1309023*
X1308626Y1730382D02*
Y1724282D01*
X1308429Y1724085*
X1302029*
X1301832Y1724282*
Y1730382*
X1302029Y1730579*
X1303929*
X1304126Y1730382*
Y1729182*
X1304121Y1729140*
X1303921Y1728240*
X1303918Y1728228*
X1303718Y1727528*
X1303705Y1727494*
X1303405Y1726894*
X1303380Y1726856*
X1302880Y1726256*
X1302852Y1726229*
X1302550Y1725987*
X1302743Y1725843*
X1302886Y1725748*
X1303466Y1726494*
X1304052Y1727470*
X1304238Y1727933*
X1304334Y1728608*
X1304433Y1729404*
X1304533Y1730402*
X1304729Y1730579*
X1305729*
X1305926Y1730382*
Y1726714*
X1306082Y1726247*
X1306369Y1726175*
X1306945Y1726079*
X1307693*
X1307830Y1726447*
X1307353Y1726387*
X1307329Y1726385*
X1306829*
X1306767Y1726396*
X1306467Y1726496*
X1306338Y1726635*
X1306238Y1727035*
X1306232Y1727082*
Y1730382*
X1306429Y1730579*
X1308429*
X1308626Y1730382*
X1293232Y1724685D02*
X1292326D01*
Y1723779*
X1293232*
Y1724685*
Y1727185D02*
X1292326D01*
Y1726279*
X1293232*
Y1727185*
X1289332Y1729670D02*
X1288244Y1729586D01*
X1288229Y1729585*
X1285529*
X1285332Y1729782*
Y1731385*
X1284926*
Y1729782*
X1284729Y1729585*
X1282329*
X1282315Y1729586*
X1281126Y1729671*
Y1729379*
X1284729*
X1284926Y1729182*
Y1727082*
X1284859Y1726934*
X1284059Y1726234*
X1283357Y1725633*
X1283338Y1725618*
X1282738Y1725218*
X1282730Y1725213*
X1282232Y1724914*
X1281436Y1724417*
X1281023Y1724142*
X1281355Y1723755*
X1281698Y1724029*
X1282290Y1724621*
X1282311Y1724640*
X1282711Y1724940*
X1282720Y1724946*
X1283910Y1725739*
X1284601Y1726332*
X1284926Y1726182*
Y1723782*
X1284868Y1723643*
X1284668Y1723443*
X1284529Y1723385*
X1283948*
X1284005Y1723270*
X1284020Y1723230*
X1284077Y1723002*
X1284596Y1723076*
X1285032Y1723164*
X1285248Y1723379*
X1285332Y1723802*
Y1727282*
X1285705Y1727370*
X1286500Y1725781*
X1286882Y1725208*
X1287264Y1724826*
X1288144Y1724044*
X1288875Y1723638*
X1289072Y1723900*
X1289128Y1723951*
X1289261Y1724031*
X1288767Y1724196*
X1288715Y1724222*
X1288015Y1724722*
X1288001Y1724733*
X1287301Y1725333*
X1287280Y1725354*
X1286680Y1726054*
X1286711Y1726340*
X1287507Y1726937*
X1288096Y1727428*
X1288490Y1727821*
X1288520Y1727846*
X1288588Y1727892*
X1288174Y1728203*
X1287590Y1727369*
X1287560Y1727335*
X1286660Y1726535*
X1286360Y1726581*
X1286060Y1727081*
X1286058Y1727085*
X1285658Y1727785*
X1285640Y1727828*
X1285440Y1728528*
X1285435Y1728550*
X1285335Y1729150*
X1285332Y1729182*
X1285529Y1729379*
X1289332*
Y1729670*
X1288223Y1730483D02*
X1287228Y1731325D01*
X1286946Y1731090*
X1287547Y1730640*
X1287568Y1730621*
X1287941Y1730249*
X1288223Y1730483*
X1283441Y1727173D02*
X1282138Y1728313D01*
X1281826Y1728001*
X1282550Y1727438*
X1282568Y1727421*
X1283129Y1726861*
X1283441Y1727173*
X1279632Y1726370D02*
X1278544Y1726286D01*
X1278529Y1726285*
X1274829*
X1274706Y1726636*
X1274996Y1726868*
X1274641Y1727104*
X1274087Y1726364*
X1273929Y1726285*
X1270726*
Y1725995*
X1271814Y1726079*
X1271829*
X1273429*
X1273574Y1725749*
X1272712Y1724809*
X1274966Y1724376*
X1275030Y1724013*
X1274530Y1723713*
X1274491Y1723696*
X1273891Y1723496*
X1273870Y1723490*
X1272470Y1723190*
X1272429Y1723185*
X1271223*
X1271287Y1723100*
X1271305Y1723070*
X1271442Y1722797*
X1272701Y1722977*
X1272705Y1722978*
X1273482Y1723075*
X1275039Y1723659*
X1275620Y1724046*
X1275785Y1724071*
X1277485Y1723571*
X1277508Y1723563*
X1278974Y1722921*
X1279285Y1723284*
X1277972Y1723694*
X1276274Y1724193*
X1276172Y1724500*
X1276764Y1725291*
X1277158Y1725980*
X1277329Y1726079*
X1278429*
X1278443*
X1279632Y1725994*
Y1726370*
X1276689Y1725768D02*
X1276189Y1725068D01*
X1276180Y1725056*
X1275680Y1724456*
X1275472Y1724394*
X1274477Y1724692*
X1273681Y1724891*
X1273581Y1725212*
X1274281Y1726012*
X1274429Y1726079*
X1276529*
X1276689Y1725768*
X1279332Y1731185D02*
X1271026D01*
Y1730979*
X1273829*
X1274026Y1730782*
Y1729782*
X1273829Y1729585*
X1271826*
Y1727479*
X1274529*
X1274629Y1727452*
X1274729Y1727479*
X1278632*
Y1729585*
X1276629*
X1276432Y1729782*
Y1730782*
X1276629Y1730979*
X1279332*
Y1731185*
X1278226Y1729182D02*
Y1727882D01*
X1278029Y1727685*
X1276629*
X1276432Y1727882*
Y1729182*
X1276629Y1729379*
X1278029*
X1278226Y1729182*
X1276126D02*
Y1727882D01*
X1275929Y1727685*
X1274529*
X1274332Y1727882*
Y1729182*
X1274529Y1729379*
X1275929*
X1276126Y1729182*
Y1730782D02*
Y1729782D01*
X1275929Y1729585*
X1274529*
X1274332Y1729782*
Y1730782*
X1274529Y1730979*
X1275929*
X1276126Y1730782*
X1274026Y1729182D02*
Y1727882D01*
X1273829Y1727685*
X1272429*
X1272232Y1727882*
Y1729182*
X1272429Y1729379*
X1273829*
X1274026Y1729182*
X1269273Y1724473D02*
X1268683Y1724709D01*
X1268623Y1724350*
X1268620Y1724335*
X1268520Y1723935*
X1268468Y1723843*
X1268268Y1723643*
X1268177Y1723591*
X1267777Y1723491*
X1267729Y1723485*
X1263329*
X1263290Y1723489*
X1262790Y1723589*
X1262690Y1723643*
X1262590Y1723743*
X1262532Y1723882*
Y1724082*
X1262590Y1724221*
X1263090Y1724721*
X1263113Y1724741*
X1264613Y1725841*
X1264625Y1725849*
X1265425Y1726349*
X1265431Y1726353*
X1266131Y1726753*
X1266135Y1726755*
X1267235Y1727355*
X1267256Y1727365*
X1267756Y1727565*
X1267767Y1727569*
X1268232Y1727724*
Y1727985*
X1261826*
Y1727691*
X1263317Y1727779*
X1263329*
X1266329*
X1266436Y1727417*
X1264736Y1726317*
X1264733Y1726315*
X1263933Y1725815*
X1263927Y1725811*
X1263240Y1725419*
X1262272Y1724644*
X1262013Y1724300*
X1261931Y1723887*
X1262007Y1723583*
X1262226Y1723364*
X1262662Y1723276*
X1263343Y1723179*
X1268005*
X1268728Y1723360*
X1268876Y1723508*
X1269046Y1723763*
X1269138Y1724130*
X1269146Y1724155*
X1269273Y1724473*
X1269532Y1730185D02*
X1267029D01*
X1266832Y1730382*
Y1731285*
X1266426*
Y1730382*
X1266229Y1730185*
X1264229*
X1264033Y1730400*
X1264113Y1731285*
X1263645*
X1263725Y1730400*
X1263529Y1730185*
X1261126*
Y1729879*
X1263529*
X1263725Y1729664*
X1263645Y1728779*
X1264032*
Y1729682*
X1264229Y1729879*
X1266229*
X1266426Y1729682*
Y1728779*
X1266832*
Y1729682*
X1267029Y1729879*
X1269532*
Y1730185*
X1259632Y1723874D02*
X1258141Y1723786D01*
X1258129Y1723785*
X1255629*
X1255432Y1723982*
Y1730182*
X1255629Y1730379*
X1258732*
Y1730685*
X1251626*
Y1730379*
X1254729*
X1254926Y1730182*
Y1723982*
X1254729Y1723785*
X1252229*
X1252217Y1723786*
X1250826Y1723873*
Y1723479*
X1259632*
Y1723874*
X1251181Y1723479D02*
Y1723851D01*
X1251575Y1723479D02*
Y1723826D01*
X1251969Y1723479D02*
Y1723801D01*
Y1730379D02*
Y1730685D01*
X1252362Y1723479D02*
Y1723785D01*
Y1730379D02*
Y1730685D01*
X1252756Y1723479D02*
Y1723785D01*
Y1730379D02*
Y1730685D01*
X1253150Y1723479D02*
Y1723785D01*
Y1730379D02*
Y1730685D01*
X1253543Y1723479D02*
Y1723785D01*
Y1730379D02*
Y1730685D01*
X1253937Y1723479D02*
Y1723785D01*
Y1730379D02*
Y1730685D01*
X1254331Y1723479D02*
Y1723785D01*
Y1730379D02*
Y1730685D01*
X1254724Y1723479D02*
Y1723785D01*
Y1730379D02*
Y1730685D01*
X1255118Y1723479D02*
Y1730685D01*
X1255512Y1723479D02*
Y1723824D01*
Y1730340D02*
Y1730685D01*
X1255906Y1723479D02*
Y1723785D01*
Y1730379D02*
Y1730685D01*
X1256299Y1723479D02*
Y1723785D01*
Y1730379D02*
Y1730685D01*
X1256693Y1723479D02*
Y1723785D01*
Y1730379D02*
Y1730685D01*
X1257087Y1723479D02*
Y1723785D01*
Y1730379D02*
Y1730685D01*
X1257480Y1723479D02*
Y1723785D01*
Y1730379D02*
Y1730685D01*
X1257874Y1723479D02*
Y1723785D01*
Y1730379D02*
Y1730685D01*
X1258268Y1723479D02*
Y1723793D01*
Y1730379D02*
Y1730685D01*
X1258661Y1723479D02*
Y1723816D01*
Y1730379D02*
Y1730685D01*
X1259055Y1723479D02*
Y1723840D01*
X1259449Y1723479D02*
Y1723863D01*
X1261417Y1729879D02*
Y1730185D01*
X1261811Y1729879D02*
Y1730185D01*
X1262205Y1723385D02*
Y1724555D01*
Y1727713D02*
Y1727985D01*
Y1729879D02*
Y1730185D01*
X1262598Y1723289D02*
Y1723735D01*
Y1724230D02*
Y1724906D01*
Y1727736D02*
Y1727985D01*
Y1729879D02*
Y1730185D01*
X1262992Y1723229D02*
Y1723549D01*
Y1724624D02*
Y1725221D01*
Y1727760D02*
Y1727985D01*
Y1729879D02*
Y1730185D01*
X1263386Y1723179D02*
Y1723485D01*
Y1724941D02*
Y1725502D01*
Y1727779D02*
Y1727985D01*
Y1729879D02*
Y1730185D01*
X1263780Y1723179D02*
Y1723485D01*
Y1725230D02*
Y1725727D01*
Y1727779D02*
Y1727985D01*
Y1728779D02*
Y1731285D01*
X1264173Y1723179D02*
Y1723485D01*
Y1725519D02*
Y1725965D01*
Y1727779D02*
Y1727985D01*
Y1729871D02*
Y1730194D01*
X1264567Y1723179D02*
Y1723485D01*
Y1725807D02*
Y1726211D01*
Y1727779D02*
Y1727985D01*
Y1729879D02*
Y1730185D01*
X1264961Y1723179D02*
Y1723485D01*
Y1726059D02*
Y1726462D01*
Y1727779D02*
Y1727985D01*
Y1729879D02*
Y1730185D01*
X1265354Y1723179D02*
Y1723485D01*
Y1726305D02*
Y1726717D01*
Y1727779D02*
Y1727985D01*
Y1729879D02*
Y1730185D01*
X1265748Y1723179D02*
Y1723485D01*
Y1726534D02*
Y1726972D01*
Y1727779D02*
Y1727985D01*
Y1729879D02*
Y1730185D01*
X1266142Y1723179D02*
Y1723485D01*
Y1726759D02*
Y1727227D01*
Y1727779D02*
Y1727985D01*
Y1729879D02*
Y1730185D01*
X1266535Y1723179D02*
Y1723485D01*
Y1726974D02*
Y1727985D01*
Y1728779D02*
Y1731285D01*
X1266929Y1723179D02*
Y1723485D01*
Y1727188D02*
Y1727985D01*
Y1729852D02*
Y1730213D01*
X1267323Y1723179D02*
Y1723485D01*
Y1727392D02*
Y1727985D01*
Y1729879D02*
Y1730185D01*
X1267717Y1723179D02*
Y1723485D01*
Y1727549D02*
Y1727985D01*
Y1729879D02*
Y1730185D01*
X1268110Y1723205D02*
Y1723575D01*
Y1727683D02*
Y1727985D01*
Y1729879D02*
Y1730185D01*
X1268504Y1723304D02*
Y1723892D01*
Y1729879D02*
Y1730185D01*
X1268898Y1723540D02*
Y1724623D01*
Y1729879D02*
Y1730185D01*
X1269291Y1729879D02*
Y1730185D01*
X1270866Y1726006D02*
Y1726285D01*
X1271260Y1723136D02*
Y1723185D01*
Y1726036D02*
Y1726285D01*
Y1730979D02*
Y1731185D01*
X1271654Y1722827D02*
Y1723185D01*
Y1726066D02*
Y1726285D01*
Y1730979D02*
Y1731185D01*
X1272047Y1722884D02*
Y1723185D01*
Y1726079D02*
Y1726285D01*
Y1727479D02*
Y1729585D01*
Y1730979D02*
Y1731185D01*
X1272441Y1722940D02*
Y1723186D01*
Y1726079D02*
Y1726285D01*
Y1727479D02*
Y1727685D01*
Y1729379D02*
Y1729585D01*
Y1730979D02*
Y1731185D01*
X1272835Y1722994D02*
Y1723268D01*
Y1724785D02*
Y1724943D01*
Y1726079D02*
Y1726285D01*
Y1727479D02*
Y1727685D01*
Y1729379D02*
Y1729585D01*
Y1730979D02*
Y1731185D01*
X1273228Y1723043D02*
Y1723352D01*
Y1724710D02*
Y1725372D01*
Y1726079D02*
Y1726285D01*
Y1727479D02*
Y1727685D01*
Y1729379D02*
Y1729585D01*
Y1730979D02*
Y1731185D01*
X1273622Y1723127D02*
Y1723437D01*
Y1724634D02*
Y1724917D01*
Y1725259D02*
Y1725844D01*
Y1725921D02*
Y1726285D01*
Y1727479D02*
Y1727685D01*
Y1729379D02*
Y1729585D01*
Y1730979D02*
Y1731185D01*
X1274016Y1723275D02*
Y1723537D01*
Y1724558D02*
Y1724808D01*
Y1725709D02*
Y1726306D01*
Y1727479D02*
Y1727820D01*
Y1729245D02*
Y1729720D01*
Y1730845D02*
Y1731185D01*
X1274409Y1723423D02*
Y1723668D01*
Y1724483D02*
Y1724709D01*
Y1726078D02*
Y1726795D01*
Y1727479D02*
Y1727726D01*
Y1729339D02*
Y1729626D01*
Y1730939D02*
Y1731185D01*
X1274803Y1723570D02*
Y1723877D01*
Y1724407D02*
Y1724595D01*
Y1726079D02*
Y1726287D01*
Y1726714D02*
Y1726996D01*
Y1727479D02*
Y1727685D01*
Y1729379D02*
Y1729585D01*
Y1730979D02*
Y1731185D01*
X1275197Y1723764D02*
Y1724476D01*
Y1726079D02*
Y1726285D01*
Y1727479D02*
Y1727685D01*
Y1729379D02*
Y1729585D01*
Y1730979D02*
Y1731185D01*
X1275591Y1724027D02*
Y1724395D01*
Y1726079D02*
Y1726285D01*
Y1727479D02*
Y1727685D01*
Y1729379D02*
Y1729585D01*
Y1730979D02*
Y1731185D01*
X1275984Y1724012D02*
Y1724821D01*
Y1726079D02*
Y1726285D01*
Y1727479D02*
Y1727693D01*
Y1729371D02*
Y1729593D01*
Y1730971D02*
Y1731185D01*
X1276378Y1723897D02*
Y1724163D01*
Y1724776D02*
Y1725332D01*
Y1726079D02*
Y1726285D01*
Y1727479D02*
Y1731185D01*
X1276772Y1723781D02*
Y1724047D01*
Y1725304D02*
Y1726285D01*
Y1727479D02*
Y1727685D01*
Y1729379D02*
Y1729585D01*
Y1730979D02*
Y1731185D01*
X1277165Y1723665D02*
Y1723931D01*
Y1725992D02*
Y1726285D01*
Y1727479D02*
Y1727685D01*
Y1729379D02*
Y1729585D01*
Y1730979D02*
Y1731185D01*
X1277559Y1723540D02*
Y1723815D01*
Y1726079D02*
Y1726285D01*
Y1727479D02*
Y1727685D01*
Y1729379D02*
Y1729585D01*
Y1730979D02*
Y1731185D01*
X1277953Y1723368D02*
Y1723700D01*
Y1726079D02*
Y1726285D01*
Y1727479D02*
Y1727685D01*
Y1729379D02*
Y1729585D01*
Y1730979D02*
Y1731185D01*
X1278346Y1723196D02*
Y1723577D01*
Y1726079D02*
Y1726285D01*
Y1727479D02*
Y1729585D01*
Y1730979D02*
Y1731185D01*
X1278740Y1723024D02*
Y1723454D01*
Y1726057D02*
Y1726301D01*
Y1730979D02*
Y1731185D01*
X1279134Y1723107D02*
Y1723331D01*
Y1726029D02*
Y1726331D01*
Y1730979D02*
Y1731185D01*
X1279528Y1726001D02*
Y1726362D01*
X1281102Y1724049D02*
Y1724195D01*
X1281496Y1723868D02*
Y1724455D01*
Y1729379D02*
Y1729644D01*
X1281890Y1724221D02*
Y1724701D01*
Y1727951D02*
Y1728065D01*
Y1729379D02*
Y1729616D01*
X1282283Y1724615D02*
Y1724945D01*
Y1727645D02*
Y1728186D01*
Y1729379D02*
Y1729588D01*
X1282677Y1724914D02*
Y1725182D01*
Y1727313D02*
Y1727841D01*
Y1729379D02*
Y1729585D01*
X1283071Y1725180D02*
Y1725440D01*
Y1726919D02*
Y1727497D01*
Y1729379D02*
Y1729585D01*
X1283465Y1725443D02*
Y1725725D01*
Y1729379D02*
Y1729585D01*
X1283858Y1725705D02*
Y1726062D01*
Y1729379D02*
Y1729585D01*
X1284252Y1723027D02*
Y1723385D01*
Y1726033D02*
Y1726403D01*
Y1729379D02*
Y1729585D01*
X1284646Y1723086D02*
Y1723424D01*
Y1726361D02*
Y1726748D01*
Y1729379D02*
Y1729585D01*
X1285039Y1723171D02*
Y1731385D01*
X1285433Y1727454D02*
Y1728561D01*
Y1729354D02*
Y1729610D01*
X1285827Y1727127D02*
Y1727490D01*
Y1729379D02*
Y1729585D01*
X1286220Y1726340D02*
Y1726814D01*
Y1729379D02*
Y1729585D01*
X1286614Y1725609D02*
Y1726505D01*
Y1729379D02*
Y1729585D01*
X1287008Y1725082D02*
Y1725671D01*
Y1726562D02*
Y1726845D01*
Y1729379D02*
Y1729585D01*
Y1731044D02*
Y1731142D01*
X1287402Y1724703D02*
Y1725247D01*
Y1726858D02*
Y1727194D01*
Y1729379D02*
Y1729585D01*
Y1730749D02*
Y1731178D01*
X1287795Y1724353D02*
Y1724909D01*
Y1727177D02*
Y1727662D01*
Y1729379D02*
Y1729585D01*
Y1730394D02*
Y1730845D01*
X1288189Y1724019D02*
Y1724598D01*
Y1727521D02*
Y1728191D01*
Y1729379D02*
Y1729585D01*
Y1730455D02*
Y1730512D01*
X1288583Y1723800D02*
Y1724316D01*
Y1727888D02*
Y1727896D01*
Y1729379D02*
Y1729612D01*
X1288976Y1723773D02*
Y1724126D01*
Y1729379D02*
Y1729642D01*
X1292520Y1723779D02*
Y1724685D01*
Y1726279D02*
Y1727185D01*
X1292913Y1723779D02*
Y1724685D01*
Y1726279D02*
Y1727185D01*
X1301575Y1722979D02*
Y1730785D01*
X1301969Y1723770D02*
Y1724095D01*
Y1730570D02*
Y1730785D01*
X1302362Y1723779D02*
Y1724085D01*
Y1730579D02*
Y1730785D01*
X1302756Y1723779D02*
Y1724085D01*
Y1725834D02*
Y1726152D01*
Y1730579D02*
Y1730785D01*
X1303150Y1723779D02*
Y1724085D01*
Y1726086D02*
Y1726579D01*
Y1730579D02*
Y1730785D01*
X1303543Y1723779D02*
Y1724085D01*
Y1726622D02*
Y1727171D01*
Y1730579D02*
Y1730785D01*
X1303937Y1723779D02*
Y1724085D01*
Y1727278D02*
Y1728311D01*
Y1730579D02*
Y1730785D01*
X1304331Y1723779D02*
Y1724085D01*
Y1728586D02*
Y1730785D01*
X1304724Y1723779D02*
Y1724085D01*
Y1730579D02*
Y1730785D01*
X1305118Y1723779D02*
Y1724085D01*
Y1730579D02*
Y1730785D01*
X1305512Y1723779D02*
Y1724085D01*
Y1730579D02*
Y1730785D01*
X1305906Y1723779D02*
Y1724085D01*
Y1730470D02*
Y1730785D01*
X1306299Y1723779D02*
Y1724085D01*
Y1726193D02*
Y1726790D01*
Y1730530D02*
Y1730785D01*
X1306693Y1723779D02*
Y1724085D01*
Y1726121D02*
Y1726420D01*
Y1730579D02*
Y1730785D01*
X1307087Y1723779D02*
Y1724085D01*
Y1726079D02*
Y1726385D01*
Y1730579D02*
Y1730785D01*
X1307480Y1723779D02*
Y1724085D01*
Y1726079D02*
Y1726403D01*
Y1730579D02*
Y1730785D01*
X1307874Y1723779D02*
Y1724085D01*
Y1730579D02*
Y1730785D01*
X1308268Y1723779D02*
Y1724085D01*
Y1730579D02*
Y1730785D01*
X1308661Y1723079D02*
Y1730785D01*
X1311024Y1722984D02*
Y1723276D01*
X1311417Y1723314D02*
Y1724157D01*
X1311811Y1724270D02*
Y1725833D01*
X1312205Y1726339D02*
Y1731185D01*
X1312598Y1729079D02*
Y1729385D01*
Y1730979D02*
Y1731185D01*
X1312992Y1725579D02*
Y1725885D01*
Y1729079D02*
Y1729385D01*
Y1730979D02*
Y1731185D01*
X1313386Y1725579D02*
Y1725885D01*
Y1729079D02*
Y1729385D01*
Y1730979D02*
Y1731185D01*
X1313780Y1722879D02*
Y1723554D01*
Y1725579D02*
Y1725885D01*
Y1727379D02*
Y1727685D01*
Y1729079D02*
Y1729385D01*
Y1730979D02*
Y1731185D01*
X1314173Y1722946D02*
Y1723462D01*
Y1723703D02*
Y1723948D01*
Y1725579D02*
Y1725885D01*
Y1727379D02*
Y1727685D01*
Y1729079D02*
Y1729385D01*
Y1730979D02*
Y1731185D01*
X1314567Y1723021D02*
Y1723385D01*
Y1724153D02*
Y1724484D01*
Y1725579D02*
Y1725885D01*
Y1727379D02*
Y1727685D01*
Y1729079D02*
Y1729385D01*
Y1730979D02*
Y1731185D01*
X1314961Y1723079D02*
Y1723385D01*
Y1724628D02*
Y1725205D01*
Y1725529D02*
Y1725885D01*
Y1727379D02*
Y1727685D01*
Y1729079D02*
Y1729385D01*
Y1730979D02*
Y1731185D01*
X1315354Y1723079D02*
Y1723385D01*
Y1725190D02*
Y1725885D01*
Y1727379D02*
Y1727685D01*
Y1729079D02*
Y1729385D01*
Y1730979D02*
Y1731185D01*
X1315748Y1723096D02*
Y1723385D01*
Y1725579D02*
Y1725885D01*
Y1727379D02*
Y1727685D01*
Y1729079D02*
Y1729385D01*
Y1730979D02*
Y1731185D01*
X1316142Y1723125D02*
Y1723402D01*
Y1725579D02*
Y1725885D01*
Y1727379D02*
Y1727685D01*
Y1729079D02*
Y1729385D01*
Y1730979D02*
Y1731185D01*
X1316535Y1723154D02*
Y1723422D01*
Y1725579D02*
Y1725885D01*
Y1727379D02*
Y1727685D01*
Y1729079D02*
Y1729385D01*
Y1730979D02*
Y1731185D01*
X1316929Y1723183D02*
Y1723443D01*
Y1725579D02*
Y1725885D01*
Y1727379D02*
Y1727685D01*
Y1729079D02*
Y1729385D01*
Y1730979D02*
Y1731185D01*
X1317323Y1723213D02*
Y1723464D01*
Y1724367D02*
Y1724554D01*
Y1725579D02*
Y1725885D01*
Y1727379D02*
Y1727685D01*
Y1729079D02*
Y1729385D01*
Y1730979D02*
Y1731185D01*
X1317717Y1723242D02*
Y1723484D01*
Y1723973D02*
Y1724499D01*
Y1725579D02*
Y1725885D01*
Y1727379D02*
Y1727685D01*
Y1729079D02*
Y1729385D01*
Y1730979D02*
Y1731185D01*
X1318110Y1723271D02*
Y1724085D01*
Y1725579D02*
Y1725885D01*
Y1727379D02*
Y1727685D01*
Y1729079D02*
Y1729403D01*
Y1730962D02*
Y1731185D01*
X1318504Y1723086D02*
Y1723670D01*
Y1725579D02*
Y1725885D01*
Y1729079D02*
Y1729704D01*
Y1730529D02*
Y1731185D01*
X1318898Y1722796D02*
Y1723256D01*
Y1725579D02*
Y1725885D01*
X1321260Y1725533D02*
Y1726080D01*
Y1729007D02*
Y1729285D01*
X1321654Y1726271D02*
Y1726710D01*
Y1729040D02*
Y1729285D01*
X1322047Y1727059D02*
Y1727648D01*
Y1729073D02*
Y1729285D01*
X1322441Y1722779D02*
Y1731385D01*
X1322835Y1729055D02*
Y1729310D01*
X1323228Y1727175D02*
Y1727327D01*
Y1729057D02*
Y1729285D01*
X1323622Y1723206D02*
Y1723367D01*
Y1726530D02*
Y1727270D01*
Y1729026D02*
Y1729285D01*
X1324016Y1723064D02*
Y1723873D01*
Y1726500D02*
Y1726612D01*
Y1728996D02*
Y1729285D01*
X1324409Y1723783D02*
Y1724603D01*
X1324803Y1724690D02*
Y1726008D01*
X1325197Y1722977D02*
Y1723123D01*
Y1726639D02*
Y1730625D01*
X1325591Y1722878D02*
Y1723353D01*
Y1728479D02*
Y1728685D01*
Y1730397D02*
Y1730660D01*
X1325984Y1723124D02*
Y1723616D01*
Y1727756D02*
Y1728685D01*
Y1730439D02*
Y1730694D01*
X1326378Y1723510D02*
Y1723953D01*
Y1726298D02*
Y1727418D01*
Y1728479D02*
Y1728685D01*
Y1730480D02*
Y1730728D01*
X1326772Y1723903D02*
Y1724346D01*
Y1725490D02*
Y1726216D01*
Y1728479D02*
Y1728685D01*
Y1730522D02*
Y1730762D01*
X1327165Y1724297D02*
Y1725273D01*
Y1728479D02*
Y1728685D01*
Y1730563D02*
Y1730807D01*
X1327559Y1724231D02*
Y1724683D01*
Y1724882D02*
Y1725432D01*
Y1728479D02*
Y1728685D01*
Y1730614D02*
Y1730879D01*
X1327953Y1723837D02*
Y1724316D01*
Y1725473D02*
Y1726456D01*
Y1728479D02*
Y1728685D01*
Y1730670D02*
Y1730950D01*
X1328346Y1723443D02*
Y1723962D01*
Y1726494D02*
Y1727940D01*
Y1728440D02*
Y1728685D01*
Y1730726D02*
Y1731054D01*
X1328740Y1723165D02*
Y1723652D01*
Y1728099D02*
Y1728685D01*
Y1730783D02*
Y1731201D01*
X1329134Y1722889D02*
Y1723437D01*
X1336614Y1726924D02*
Y1727950D01*
X1337008Y1725442D02*
Y1726055D01*
Y1728509D02*
Y1729249D01*
X1337402Y1724751D02*
Y1725129D01*
Y1729446D02*
Y1729858D01*
X1337795Y1724198D02*
Y1724679D01*
Y1730036D02*
Y1730350D01*
X1338189Y1723843D02*
Y1724255D01*
Y1730501D02*
Y1730764D01*
X1338583Y1723489D02*
Y1723905D01*
Y1730855D02*
Y1731158D01*
X1340945Y1729879D02*
Y1730285D01*
X1341339Y1729879D02*
Y1730285D01*
X1341732Y1729879D02*
Y1730285D01*
X1342126Y1729879D02*
Y1730285D01*
X1342520Y1723979D02*
Y1730285D01*
X1342913Y1723979D02*
Y1730285D01*
X1343307Y1729879D02*
Y1730285D01*
X1343701Y1729879D02*
Y1730285D01*
X1344094Y1729879D02*
Y1730285D01*
X1344488Y1729879D02*
Y1730285D01*
X1346063Y1724975D02*
Y1729290D01*
X1346457Y1724433D02*
Y1725187D01*
Y1729077D02*
Y1729774D01*
X1346850Y1724112D02*
Y1724683D01*
Y1729582D02*
Y1730056D01*
X1347244Y1723981D02*
Y1724379D01*
Y1729886D02*
Y1730173D01*
X1347638Y1723901D02*
Y1724300D01*
Y1729965D02*
Y1730260D01*
X1348031Y1723961D02*
Y1724355D01*
Y1729910D02*
Y1730213D01*
X1348425Y1724042D02*
Y1724600D01*
Y1729665D02*
Y1730126D01*
X1348819Y1724351D02*
Y1725062D01*
Y1729202D02*
Y1729868D01*
X1349213Y1724837D02*
Y1729427D01*
X1349606Y1726115D02*
Y1728150D01*
X1351181Y1723979D02*
Y1730285D01*
X1351575Y1726572D02*
Y1726893D01*
Y1729872D02*
Y1730285D01*
X1351969Y1726579D02*
Y1726885D01*
Y1729879D02*
Y1730285D01*
X1352362Y1726579D02*
Y1726885D01*
Y1729879D02*
Y1730285D01*
X1352756Y1726583D02*
Y1726921D01*
Y1729879D02*
Y1730275D01*
X1353150Y1726627D02*
Y1726986D01*
Y1729878D02*
Y1730187D01*
X1353543Y1726671D02*
Y1727136D01*
Y1729663D02*
Y1730100D01*
X1353937Y1726944D02*
Y1727558D01*
Y1729275D02*
Y1729880D01*
X1354331Y1727340D02*
Y1729525D01*
X1356299Y1729805D02*
Y1730234D01*
X1356693Y1728838D02*
Y1729267D01*
X1357087Y1727872D02*
Y1728301D01*
X1357480Y1726905D02*
Y1727335D01*
X1357874Y1725939D02*
Y1726368D01*
X1358268Y1724973D02*
Y1725402D01*
X1358661Y1724006D02*
Y1724436D01*
X1359055Y1723040D02*
Y1723469D01*
X1361024Y1723979D02*
Y1730285D01*
X1361417Y1723979D02*
Y1730285D01*
X1361811Y1726579D02*
Y1726885D01*
Y1729879D02*
Y1730285D01*
X1362205Y1726579D02*
Y1726885D01*
Y1729879D02*
Y1730285D01*
X1362598Y1726579D02*
Y1726894D01*
Y1729879D02*
Y1730285D01*
X1362992Y1726610D02*
Y1726960D01*
Y1729879D02*
Y1730222D01*
X1363386Y1726653D02*
Y1727073D01*
Y1729758D02*
Y1730135D01*
X1363780Y1726832D02*
Y1727255D01*
Y1729509D02*
Y1729970D01*
X1364173Y1727113D02*
Y1729745D01*
X1364567Y1727872D02*
Y1728959D01*
X1365748Y1726141D02*
Y1728123D01*
X1366142Y1724844D02*
Y1729421D01*
X1366535Y1724354D02*
Y1725068D01*
Y1729197D02*
Y1729831D01*
X1366929Y1724060D02*
Y1724604D01*
Y1729661D02*
Y1730103D01*
X1367323Y1723964D02*
Y1724363D01*
Y1729902D02*
Y1730190D01*
X1367717Y1723886D02*
Y1724286D01*
Y1729979D02*
Y1730278D01*
X1368110Y1723979D02*
Y1724375D01*
Y1729890D02*
Y1730196D01*
X1368504Y1724058D02*
Y1724679D01*
Y1729586D02*
Y1730108D01*
X1368898Y1724429D02*
Y1725181D01*
Y1729084D02*
Y1729802D01*
X1369291Y1724969D02*
Y1729296D01*
X1370472Y1730144D02*
Y1730285D01*
X1370866Y1727169D02*
Y1730285D01*
X1371260Y1724194D02*
Y1726951D01*
X1371654Y1723879D02*
Y1725987D01*
X1372047Y1725946D02*
Y1727755D01*
X1372441Y1728740D02*
Y1730285D01*
X1372835Y1728848D02*
Y1730285D01*
X1373228Y1726536D02*
Y1727924D01*
X1373622Y1723879D02*
Y1725986D01*
X1374016Y1724326D02*
Y1727139D01*
X1374409Y1727301D02*
Y1730285D01*
X1374803Y1730276D02*
Y1730285D01*
X1375984Y1723979D02*
Y1730285D01*
X1376378Y1726808D02*
Y1727256D01*
Y1729808D02*
Y1730285D01*
X1376772Y1726879D02*
Y1727185D01*
Y1729879D02*
Y1730285D01*
X1377165Y1726879D02*
Y1727185D01*
Y1729879D02*
Y1730285D01*
X1377559Y1726877D02*
Y1727185D01*
Y1729860D02*
Y1730285D01*
X1377953Y1726292D02*
Y1727246D01*
Y1729795D02*
Y1730243D01*
X1378346Y1725530D02*
Y1726507D01*
Y1726961D02*
Y1727391D01*
Y1729667D02*
Y1730194D01*
X1378740Y1724769D02*
Y1725720D01*
Y1727119D02*
Y1727715D01*
Y1729400D02*
Y1729978D01*
X1379134Y1724008D02*
Y1724932D01*
Y1727382D02*
Y1729620D01*
X1379528Y1723979D02*
Y1724145D01*
Y1728564D02*
Y1728577D01*
X1381102Y1723979D02*
Y1730285D01*
X1381496Y1723979D02*
Y1724337D01*
Y1727027D02*
Y1727537D01*
Y1729827D02*
Y1730285D01*
X1381890Y1723979D02*
Y1724285D01*
Y1727079D02*
Y1727485D01*
Y1729879D02*
Y1730285D01*
X1382283Y1723979D02*
Y1724285D01*
Y1727079D02*
Y1727485D01*
Y1729879D02*
Y1730285D01*
X1382677Y1723979D02*
Y1724285D01*
Y1727079D02*
Y1727485D01*
Y1729879D02*
Y1730285D01*
X1383071Y1723979D02*
Y1724285D01*
Y1727079D02*
Y1727485D01*
Y1729879D02*
Y1730285D01*
X1383465Y1723979D02*
Y1724285D01*
Y1727079D02*
Y1727485D01*
Y1729879D02*
Y1730285D01*
X1383858Y1723979D02*
Y1724285D01*
Y1727079D02*
Y1727485D01*
Y1729879D02*
Y1730285D01*
X1384252Y1723979D02*
Y1724285D01*
Y1729879D02*
Y1730285D01*
X1386220Y1729998D02*
Y1730427D01*
X1386614Y1729031D02*
Y1729461D01*
X1387008Y1728065D02*
Y1728494D01*
X1387402Y1727099D02*
Y1727528D01*
X1387795Y1726132D02*
Y1726562D01*
X1388189Y1725166D02*
Y1725595D01*
X1388583Y1724200D02*
Y1724629D01*
X1388976Y1723233D02*
Y1723663D01*
X1390945Y1725457D02*
Y1728507D01*
X1391339Y1724664D02*
Y1726231D01*
Y1727737D02*
Y1729513D01*
X1391732Y1724310D02*
Y1724923D01*
Y1729364D02*
Y1729907D01*
X1392126Y1724036D02*
Y1724507D01*
Y1729750D02*
Y1730189D01*
X1392520Y1723938D02*
Y1724343D01*
Y1729911D02*
Y1730285D01*
X1392913Y1723940D02*
Y1724285D01*
Y1729946D02*
Y1730261D01*
X1393307Y1724052D02*
Y1724302D01*
Y1726579D02*
Y1726885D01*
Y1729863D02*
Y1730212D01*
X1393701Y1724352D02*
Y1724590D01*
Y1726579D02*
Y1726885D01*
Y1729478D02*
Y1729983D01*
X1394094Y1724389D02*
Y1725748D01*
Y1726489D02*
Y1726885D01*
Y1728379D02*
Y1729511D01*
X1394488Y1723879D02*
Y1726885D01*
X1396063Y1723979D02*
Y1730285D01*
X1396457Y1728765D02*
Y1730285D01*
X1396850Y1728354D02*
Y1729466D01*
X1397244Y1727495D02*
Y1728547D01*
X1397638Y1726636D02*
Y1727629D01*
X1398031Y1725777D02*
Y1726710D01*
X1398425Y1724918D02*
Y1725792D01*
X1398819Y1724059D02*
Y1725385D01*
X1399213Y1723979D02*
Y1730285D01*
X1401181Y1723979D02*
Y1730285D01*
X1401575Y1723979D02*
Y1724285D01*
Y1729879D02*
Y1730285D01*
X1401969Y1723979D02*
Y1724285D01*
Y1729879D02*
Y1730285D01*
X1402362Y1724043D02*
Y1724363D01*
Y1729839D02*
Y1730227D01*
X1402756Y1724115D02*
Y1724461D01*
Y1729790D02*
Y1730162D01*
X1403150Y1724219D02*
Y1724659D01*
Y1729571D02*
Y1730096D01*
X1403543Y1724438D02*
Y1724922D01*
Y1729243D02*
Y1729836D01*
X1403937Y1724711D02*
Y1725918D01*
Y1728246D02*
Y1729574D01*
X1404331Y1725426D02*
Y1728855D01*
X1406299Y1729805D02*
Y1730234D01*
X1406693Y1728838D02*
Y1729267D01*
X1407087Y1727872D02*
Y1728301D01*
X1407480Y1726905D02*
Y1727335D01*
X1407874Y1725939D02*
Y1726368D01*
X1408268Y1724973D02*
Y1725402D01*
X1408661Y1724006D02*
Y1724436D01*
X1409055Y1723040D02*
Y1723469D01*
X1411024Y1723979D02*
Y1730285D01*
X1411417Y1723979D02*
Y1724320D01*
Y1727044D02*
Y1727520D01*
Y1729844D02*
Y1730285D01*
X1411811Y1723979D02*
Y1724285D01*
Y1727079D02*
Y1727485D01*
Y1729879D02*
Y1730285D01*
X1412205Y1723979D02*
Y1724285D01*
Y1727079D02*
Y1727485D01*
Y1729879D02*
Y1730285D01*
X1412598Y1723979D02*
Y1724311D01*
Y1727069D02*
Y1727485D01*
Y1729879D02*
Y1730285D01*
X1412992Y1724021D02*
Y1724377D01*
Y1726990D02*
Y1727485D01*
Y1729879D02*
Y1730214D01*
X1413386Y1724064D02*
Y1724513D01*
Y1726912D02*
Y1727617D01*
Y1729748D02*
Y1730115D01*
X1413780Y1724204D02*
Y1724788D01*
Y1726676D02*
Y1726987D01*
Y1727540D02*
Y1728053D01*
Y1729311D02*
Y1729937D01*
X1414173Y1724423D02*
Y1726728D01*
Y1727811D02*
Y1729561D01*
X1414567Y1725139D02*
Y1726089D01*
X1415748Y1726141D02*
Y1728123D01*
X1416142Y1724844D02*
Y1729421D01*
X1416535Y1724354D02*
Y1725068D01*
Y1729197D02*
Y1729831D01*
X1416929Y1724060D02*
Y1724604D01*
Y1729661D02*
Y1730103D01*
X1417323Y1723964D02*
Y1724363D01*
Y1729902D02*
Y1730190D01*
X1417717Y1723886D02*
Y1724286D01*
Y1729979D02*
Y1730278D01*
X1418110Y1723979D02*
Y1724375D01*
Y1729890D02*
Y1730196D01*
X1418504Y1724058D02*
Y1724679D01*
Y1729586D02*
Y1730108D01*
X1418898Y1724429D02*
Y1725181D01*
Y1729084D02*
Y1729802D01*
X1419291Y1724969D02*
Y1729296D01*
X1420866Y1729879D02*
Y1730285D01*
X1421260Y1729879D02*
Y1730285D01*
X1421654Y1729879D02*
Y1730285D01*
X1422047Y1729879D02*
Y1730285D01*
X1422441Y1723979D02*
Y1730285D01*
X1422835Y1723979D02*
Y1730285D01*
X1423228Y1729879D02*
Y1730285D01*
X1423622Y1729879D02*
Y1730285D01*
X1424016Y1729879D02*
Y1730285D01*
X1424409Y1729879D02*
Y1730285D01*
X1426772Y1723569D02*
Y1723723D01*
Y1730949D02*
Y1731246D01*
X1427165Y1723750D02*
Y1724073D01*
Y1730594D02*
Y1730968D01*
X1427559Y1724104D02*
Y1724461D01*
Y1730207D02*
Y1730574D01*
X1427953Y1724552D02*
Y1724986D01*
Y1729701D02*
Y1730062D01*
X1428346Y1725044D02*
Y1725796D01*
Y1729019D02*
Y1729500D01*
X1428740Y1725964D02*
Y1728720D01*
X1433465Y1604099D02*
Y1604339D01*
X1433858Y1603886D02*
Y1604402D01*
X1434252Y1604044D02*
Y1609786D01*
X1434646Y1604171D02*
Y1604524D01*
X1435039Y1604292D02*
Y1604631D01*
X1435433Y1604413D02*
Y1604739D01*
X1435827Y1604539D02*
Y1611786D01*
X1436220Y1604632D02*
Y1604994D01*
Y1608570D02*
Y1608894D01*
X1436614Y1604710D02*
Y1605053D01*
Y1608579D02*
Y1608922D01*
X1437008Y1604796D02*
Y1605137D01*
Y1608579D02*
Y1608965D01*
Y1722344D02*
Y1722483D01*
Y1723779D02*
Y1724885D01*
X1437402Y1604908D02*
Y1605222D01*
Y1608579D02*
Y1608986D01*
Y1722661D02*
Y1723120D01*
Y1723765D02*
Y1724885D01*
X1437795Y1723420D02*
Y1724885D01*
X1438583Y1604014D02*
Y1611986D01*
X1438976Y1603864D02*
Y1604447D01*
Y1608033D02*
Y1608486D01*
X1439370Y1603785D02*
Y1604232D01*
Y1608347D02*
Y1608670D01*
X1439764Y1603779D02*
Y1604186D01*
Y1608519D02*
Y1608882D01*
X1440157Y1603779D02*
Y1604186D01*
Y1608701D02*
Y1609094D01*
X1440551Y1603779D02*
Y1604199D01*
Y1608947D02*
Y1609377D01*
X1440945Y1603886D02*
Y1604377D01*
Y1609189D02*
Y1609763D01*
X1441339Y1604157D02*
Y1605151D01*
Y1609408D02*
Y1609874D01*
X1443701Y1603814D02*
Y1604217D01*
X1444094Y1603881D02*
Y1604447D01*
Y1609022D02*
Y1609338D01*
X1444488Y1604190D02*
Y1604714D01*
Y1609061D02*
Y1609294D01*
X1444882Y1604500D02*
Y1605107D01*
Y1609079D02*
Y1609286D01*
Y1611000D02*
Y1611601D01*
X1445276Y1604906D02*
Y1605501D01*
Y1609079D02*
Y1609286D01*
Y1610555D02*
Y1611207D01*
X1445669Y1605379D02*
Y1605994D01*
Y1609079D02*
Y1609286D01*
Y1610096D02*
Y1610806D01*
X1446063Y1605884D02*
Y1606683D01*
Y1609079D02*
Y1609286D01*
Y1724079D02*
Y1724748D01*
Y1730221D02*
Y1730385D01*
X1446457Y1606622D02*
Y1607512D01*
Y1609079D02*
Y1609286D01*
Y1725477D02*
Y1725787D01*
Y1730077D02*
Y1730385D01*
X1446850Y1607444D02*
Y1608772D01*
Y1608979D02*
Y1609299D01*
Y1725579D02*
Y1725685D01*
Y1730179D02*
Y1730385D01*
X1447244Y1608783D02*
Y1612239D01*
Y1725579D02*
Y1725685D01*
Y1730179D02*
Y1730385D01*
X1447638Y1609079D02*
Y1609286D01*
Y1611635D02*
Y1612165D01*
Y1725579D02*
Y1725685D01*
Y1730179D02*
Y1730385D01*
X1448031Y1606880D02*
Y1607378D01*
Y1609079D02*
Y1609286D01*
Y1724979D02*
Y1730385D01*
X1448425Y1606573D02*
Y1607138D01*
Y1609079D02*
Y1609286D01*
X1448819Y1603776D02*
Y1604086D01*
Y1606267D02*
Y1606869D01*
Y1609079D02*
Y1609286D01*
X1449213Y1603579D02*
Y1604086D01*
Y1605961D02*
Y1606600D01*
Y1609079D02*
Y1609286D01*
Y1722872D02*
Y1723255D01*
Y1728516D02*
Y1728685D01*
X1449606Y1603579D02*
Y1604086D01*
Y1606329D02*
Y1606330D01*
Y1609079D02*
Y1609286D01*
Y1723036D02*
Y1723387D01*
Y1728565D02*
Y1728685D01*
Y1730438D02*
Y1730664D01*
X1450000Y1603679D02*
Y1604127D01*
Y1609079D02*
Y1609286D01*
Y1723200D02*
Y1723556D01*
Y1724679D02*
Y1727085D01*
Y1728579D02*
Y1728685D01*
Y1730479D02*
Y1730633D01*
X1450394Y1603821D02*
Y1604572D01*
Y1609079D02*
Y1609286D01*
Y1723385D02*
Y1723716D01*
Y1726979D02*
Y1727085D01*
Y1727879D02*
Y1729485D01*
Y1730479D02*
Y1730603D01*
X1450787Y1604231D02*
Y1607730D01*
Y1609046D02*
Y1609286D01*
Y1723582D02*
Y1723999D01*
Y1726979D02*
Y1727085D01*
Y1728579D02*
Y1728685D01*
Y1730479D02*
Y1730585D01*
X1451181Y1607411D02*
Y1609286D01*
Y1723913D02*
Y1724646D01*
Y1726979D02*
Y1727085D01*
Y1728579D02*
Y1728685D01*
Y1730479D02*
Y1730585D01*
X1451575Y1724441D02*
Y1725960D01*
Y1726979D02*
Y1727085D01*
Y1728579D02*
Y1728685D01*
Y1729679D02*
Y1729861D01*
Y1730415D02*
Y1730650D01*
Y1731303D02*
Y1731585D01*
X1451969Y1725537D02*
Y1725920D01*
Y1726979D02*
Y1727085D01*
Y1728579D02*
Y1728685D01*
Y1730396D02*
Y1730668D01*
X1452362Y1726979D02*
Y1727085D01*
Y1728579D02*
Y1728685D01*
Y1730479D02*
Y1730585D01*
X1452756Y1723783D02*
Y1724174D01*
Y1726979D02*
Y1727085D01*
Y1728579D02*
Y1728685D01*
Y1730479D02*
Y1730585D01*
X1453150Y1606165D02*
Y1606234D01*
Y1723505D02*
Y1723888D01*
Y1726979D02*
Y1727085D01*
Y1727879D02*
Y1729585D01*
Y1730479D02*
Y1730585D01*
X1453543Y1606295D02*
Y1606835D01*
Y1609710D02*
Y1609986D01*
Y1723243D02*
Y1723604D01*
Y1726943D02*
Y1727085D01*
Y1728579D02*
Y1728685D01*
Y1730479D02*
Y1730585D01*
X1453937Y1607039D02*
Y1607464D01*
Y1609743D02*
Y1609986D01*
Y1722997D02*
Y1723368D01*
Y1728579D02*
Y1728685D01*
Y1730479D02*
Y1730617D01*
X1454331Y1607812D02*
Y1608433D01*
Y1609776D02*
Y1609986D01*
Y1723090D02*
Y1723132D01*
Y1728485D02*
Y1728685D01*
X1454724Y1603479D02*
Y1612086D01*
X1455118Y1609770D02*
Y1609995D01*
X1455512Y1607821D02*
Y1608046D01*
Y1609754D02*
Y1609986D01*
X1455906Y1603889D02*
Y1604111D01*
Y1607145D02*
Y1607889D01*
Y1609724D02*
Y1609986D01*
Y1728725D02*
Y1728956D01*
X1456299Y1603825D02*
Y1604617D01*
Y1607225D02*
Y1607258D01*
Y1726419D02*
Y1726646D01*
Y1728937D02*
Y1729483D01*
X1456693Y1604551D02*
Y1605371D01*
Y1726452D02*
Y1726613D01*
Y1728276D02*
Y1728563D01*
Y1729516D02*
Y1730270D01*
X1457087Y1605526D02*
Y1606861D01*
Y1723461D02*
Y1723664D01*
Y1726471D02*
Y1726594D01*
Y1728271D02*
Y1728530D01*
Y1730074D02*
Y1731057D01*
X1457480Y1603652D02*
Y1603842D01*
Y1607678D02*
Y1611328D01*
Y1723464D02*
Y1728497D01*
Y1730079D02*
Y1730185D01*
Y1731044D02*
Y1731571D01*
X1457874Y1603599D02*
Y1604076D01*
Y1609179D02*
Y1609386D01*
Y1611101D02*
Y1611363D01*
Y1723808D02*
Y1724047D01*
Y1726469D02*
Y1726585D01*
Y1728267D02*
Y1728485D01*
Y1730079D02*
Y1730185D01*
X1458268Y1603850D02*
Y1604339D01*
Y1608337D02*
Y1609386D01*
Y1611142D02*
Y1611397D01*
Y1724078D02*
Y1724375D01*
Y1726438D02*
Y1726585D01*
Y1728231D02*
Y1728485D01*
Y1730076D02*
Y1730185D01*
X1458661Y1604244D02*
Y1604687D01*
Y1606863D02*
Y1608003D01*
Y1609179D02*
Y1609386D01*
Y1611184D02*
Y1611431D01*
Y1724340D02*
Y1724502D01*
Y1726408D02*
Y1726608D01*
Y1730032D02*
Y1730217D01*
X1459055Y1604637D02*
Y1605081D01*
Y1606127D02*
Y1606838D01*
Y1609179D02*
Y1609386D01*
Y1611225D02*
Y1611465D01*
X1459449Y1605030D02*
Y1605934D01*
Y1609179D02*
Y1609386D01*
Y1611267D02*
Y1611513D01*
Y1725838D02*
Y1726024D01*
X1459843Y1604897D02*
Y1605340D01*
Y1605633D02*
Y1606220D01*
Y1609179D02*
Y1609386D01*
Y1611319D02*
Y1611585D01*
Y1724211D02*
Y1724563D01*
Y1725946D02*
Y1726417D01*
X1460236Y1604503D02*
Y1604986D01*
Y1606224D02*
Y1607244D01*
Y1609179D02*
Y1609386D01*
Y1611375D02*
Y1611656D01*
Y1722798D02*
Y1723250D01*
Y1724468D02*
Y1724899D01*
Y1726471D02*
Y1726978D01*
Y1728279D02*
Y1731185D01*
X1460630Y1604117D02*
Y1604631D01*
Y1607319D02*
Y1608776D01*
Y1609108D02*
Y1609386D01*
Y1611431D02*
Y1611766D01*
Y1723073D02*
Y1723489D01*
Y1724862D02*
Y1725227D01*
Y1726879D02*
Y1727831D01*
Y1728251D02*
Y1728385D01*
Y1729679D02*
Y1729785D01*
Y1730979D02*
Y1731185D01*
X1461024Y1603841D02*
Y1604334D01*
Y1608941D02*
Y1609386D01*
Y1611488D02*
Y1611914D01*
Y1723351D02*
Y1723795D01*
Y1725313D02*
Y1725757D01*
Y1726879D02*
Y1726985D01*
Y1727880D02*
Y1728385D01*
Y1729679D02*
Y1729785D01*
Y1730979D02*
Y1731185D01*
X1461417Y1603566D02*
Y1604119D01*
Y1723679D02*
Y1724102D01*
Y1725933D02*
Y1726625D01*
Y1726740D02*
Y1726985D01*
Y1728279D02*
Y1728385D01*
Y1729679D02*
Y1729785D01*
Y1730979D02*
Y1731185D01*
X1461811Y1724080D02*
Y1724628D01*
Y1726840D02*
Y1726985D01*
Y1728279D02*
Y1728385D01*
Y1729679D02*
Y1729785D01*
Y1730979D02*
Y1731185D01*
X1462205Y1724558D02*
Y1725193D01*
Y1726879D02*
Y1726985D01*
Y1728279D02*
Y1728385D01*
Y1729679D02*
Y1729785D01*
Y1730979D02*
Y1731185D01*
X1462598Y1725214D02*
Y1726291D01*
Y1726866D02*
Y1726985D01*
Y1728279D02*
Y1728385D01*
Y1729679D02*
Y1729785D01*
Y1730979D02*
Y1731185D01*
X1462992Y1722919D02*
Y1723485D01*
Y1726531D02*
Y1726985D01*
Y1728279D02*
Y1728385D01*
Y1729679D02*
Y1729785D01*
Y1730979D02*
Y1731185D01*
X1463386Y1603854D02*
Y1604217D01*
Y1608279D02*
Y1608649D01*
Y1722975D02*
Y1723494D01*
Y1726879D02*
Y1726985D01*
Y1728279D02*
Y1728394D01*
Y1729671D02*
Y1729794D01*
Y1730971D02*
Y1731185D01*
X1463780Y1604131D02*
Y1604512D01*
Y1608279D02*
Y1608621D01*
Y1611753D02*
Y1611785D01*
Y1723107D02*
Y1723687D01*
Y1726879D02*
Y1726985D01*
Y1728279D02*
Y1731185D01*
X1464173Y1604641D02*
Y1604968D01*
Y1608279D02*
Y1608593D01*
Y1610976D02*
Y1611933D01*
Y1723671D02*
Y1726985D01*
X1464567Y1604879D02*
Y1608586D01*
Y1610326D02*
Y1611219D01*
X1464961Y1604829D02*
Y1605058D01*
X1465354Y1604635D02*
Y1604795D01*
X1465748Y1604398D02*
Y1604596D01*
X1466142Y1604173D02*
Y1604427D01*
Y1605610D02*
Y1605826D01*
X1466535Y1604051D02*
Y1604330D01*
Y1605348D02*
Y1606171D01*
Y1609905D02*
Y1610286D01*
X1466929Y1603933D02*
Y1604252D01*
Y1605836D02*
Y1606641D01*
Y1609927D02*
Y1610286D01*
Y1722403D02*
Y1722404D01*
Y1723779D02*
Y1724885D01*
X1467323Y1603834D02*
Y1604181D01*
Y1606391D02*
Y1607147D01*
Y1609949D02*
Y1610286D01*
Y1722593D02*
Y1722844D01*
Y1723779D02*
Y1724885D01*
X1467717Y1603756D02*
Y1604145D01*
Y1607113D02*
Y1608186D01*
Y1609971D02*
Y1610286D01*
Y1723210D02*
Y1724885D01*
X1468110Y1603679D02*
Y1604109D01*
Y1608120D02*
Y1612235D01*
X1468504Y1603679D02*
Y1604086D01*
Y1609965D02*
Y1610392D01*
Y1611713D02*
Y1612186D01*
X1468898Y1603679D02*
Y1604086D01*
Y1609979D02*
Y1610286D01*
X1469291Y1603679D02*
Y1604086D01*
Y1605323D02*
Y1605748D01*
Y1609979D02*
Y1610286D01*
X1469685Y1603663D02*
Y1604086D01*
Y1605212D02*
Y1605803D01*
Y1609979D02*
Y1610286D01*
X1470079Y1603647D02*
Y1604086D01*
Y1605310D02*
Y1605882D01*
Y1609979D02*
Y1610286D01*
X1470472Y1603632D02*
Y1604086D01*
Y1605468D02*
Y1606146D01*
Y1609979D02*
Y1610286D01*
X1470866Y1603616D02*
Y1604086D01*
Y1606068D02*
Y1610286D01*
X1471260Y1603600D02*
Y1604086D01*
X1471654Y1603829D02*
Y1604118D01*
X1473622Y1696974D02*
Y1697326D01*
X1474016Y1696885D02*
Y1697412D01*
Y1702619D02*
Y1702766D01*
X1474409Y1697043D02*
Y1697583D01*
X1474803Y1697165D02*
Y1697517D01*
X1475197Y1697286D02*
Y1697624D01*
X1475591Y1697407D02*
Y1697732D01*
X1475984Y1697535D02*
Y1704766D01*
Y1725079D02*
Y1725385D01*
X1476378Y1697621D02*
Y1697966D01*
Y1701559D02*
Y1701866D01*
Y1722849D02*
Y1723758D01*
Y1725079D02*
Y1725385D01*
X1476772Y1697700D02*
Y1698043D01*
Y1701560D02*
Y1701907D01*
Y1723719D02*
Y1724319D01*
Y1725079D02*
Y1725334D01*
Y1728179D02*
Y1728800D01*
Y1730710D02*
Y1731285D01*
X1477165Y1697789D02*
Y1698128D01*
Y1701560D02*
Y1701951D01*
Y1725079D02*
Y1725285D01*
Y1726618D02*
Y1726885D01*
Y1728179D02*
Y1728573D01*
Y1730992D02*
Y1731285D01*
X1477559Y1697902D02*
Y1698212D01*
Y1701560D02*
Y1701966D01*
Y1725079D02*
Y1725285D01*
Y1726646D02*
Y1726885D01*
Y1728179D02*
Y1728485D01*
Y1731079D02*
Y1731285D01*
X1477953Y1725079D02*
Y1725285D01*
Y1726674D02*
Y1726885D01*
Y1728179D02*
Y1728485D01*
Y1731079D02*
Y1731285D01*
X1478346Y1725079D02*
Y1725285D01*
Y1726679D02*
Y1726885D01*
Y1728179D02*
Y1728485D01*
Y1731079D02*
Y1731285D01*
X1478740Y1696928D02*
Y1704966D01*
Y1725079D02*
Y1725285D01*
Y1726679D02*
Y1726885D01*
Y1728179D02*
Y1728485D01*
Y1731079D02*
Y1731285D01*
X1479134Y1696835D02*
Y1697342D01*
Y1701050D02*
Y1701471D01*
Y1722961D02*
Y1724159D01*
Y1725079D02*
Y1725285D01*
Y1726679D02*
Y1726885D01*
Y1728179D02*
Y1728485D01*
Y1731079D02*
Y1731285D01*
X1479528Y1696760D02*
Y1697200D01*
Y1701350D02*
Y1701675D01*
Y1725079D02*
Y1725285D01*
Y1726679D02*
Y1726885D01*
Y1728179D02*
Y1728485D01*
Y1731079D02*
Y1731285D01*
X1479921Y1696760D02*
Y1697166D01*
Y1701519D02*
Y1701887D01*
Y1725079D02*
Y1725308D01*
Y1726656D02*
Y1726908D01*
Y1728156D02*
Y1728508D01*
Y1731056D02*
Y1731285D01*
X1480315Y1696760D02*
Y1697166D01*
Y1701711D02*
Y1702099D01*
Y1725079D02*
Y1731285D01*
X1480709Y1696770D02*
Y1697195D01*
Y1701957D02*
Y1702403D01*
Y1725079D02*
Y1725285D01*
Y1726679D02*
Y1726885D01*
Y1728179D02*
Y1728485D01*
Y1731079D02*
Y1731285D01*
X1481102Y1696889D02*
Y1697479D01*
Y1702195D02*
Y1702781D01*
Y1723701D02*
Y1724231D01*
Y1725079D02*
Y1725285D01*
Y1726679D02*
Y1726885D01*
Y1728179D02*
Y1728485D01*
Y1731079D02*
Y1731285D01*
X1481496Y1697199D02*
Y1698111D01*
Y1702414D02*
Y1702793D01*
Y1723177D02*
Y1723881D01*
Y1725079D02*
Y1725285D01*
Y1726679D02*
Y1726885D01*
Y1728179D02*
Y1728485D01*
Y1731079D02*
Y1731285D01*
X1481890Y1725079D02*
Y1725285D01*
Y1726679D02*
Y1726885D01*
Y1728179D02*
Y1728485D01*
Y1731079D02*
Y1731285D01*
X1482283Y1725079D02*
Y1725285D01*
Y1726679D02*
Y1726885D01*
Y1728179D02*
Y1728485D01*
Y1731079D02*
Y1731285D01*
X1482677Y1725079D02*
Y1725285D01*
Y1726669D02*
Y1726885D01*
Y1728179D02*
Y1728485D01*
Y1731079D02*
Y1731285D01*
X1483071Y1725079D02*
Y1725285D01*
Y1726641D02*
Y1726885D01*
Y1728179D02*
Y1728485D01*
Y1731079D02*
Y1731285D01*
X1483465Y1723851D02*
Y1724235D01*
Y1725079D02*
Y1725287D01*
Y1726613D02*
Y1726885D01*
Y1728179D02*
Y1731285D01*
X1483858Y1696733D02*
Y1697225D01*
Y1722967D02*
Y1724084D01*
Y1725079D02*
Y1725316D01*
X1484252Y1696898D02*
Y1697455D01*
Y1702007D02*
Y1702313D01*
Y1723164D02*
Y1723229D01*
Y1725079D02*
Y1725344D01*
X1484646Y1697207D02*
Y1697740D01*
Y1702046D02*
Y1702270D01*
X1485039Y1697516D02*
Y1698134D01*
Y1702060D02*
Y1702266D01*
Y1703928D02*
Y1704535D01*
X1485433Y1697942D02*
Y1698528D01*
Y1702060D02*
Y1702266D01*
Y1703481D02*
Y1704141D01*
X1485827Y1698415D02*
Y1699056D01*
Y1702060D02*
Y1702266D01*
Y1703078D02*
Y1703731D01*
X1486220Y1698951D02*
Y1699745D01*
Y1702060D02*
Y1702266D01*
Y1723238D02*
Y1723392D01*
Y1728090D02*
Y1728370D01*
X1486614Y1699690D02*
Y1700641D01*
Y1702060D02*
Y1702266D01*
Y1723053D02*
Y1723990D01*
Y1727871D02*
Y1728370D01*
X1487008Y1700583D02*
Y1702305D01*
Y1723859D02*
Y1724700D01*
Y1727653D02*
Y1728173D01*
Y1730442D02*
Y1730897D01*
X1487402Y1701921D02*
Y1705211D01*
Y1724844D02*
Y1725586D01*
Y1727434D02*
Y1727976D01*
Y1730187D02*
Y1730642D01*
X1487795Y1702060D02*
Y1702266D01*
Y1704894D02*
Y1705133D01*
Y1725686D02*
Y1726003D01*
Y1729933D02*
Y1730387D01*
X1488189Y1699824D02*
Y1700356D01*
Y1702060D02*
Y1702266D01*
Y1729862D02*
Y1730133D01*
X1488583Y1699517D02*
Y1700087D01*
Y1702060D02*
Y1702266D01*
X1488976Y1696652D02*
Y1697066D01*
Y1699211D02*
Y1699817D01*
Y1702060D02*
Y1702266D01*
Y1722979D02*
Y1729285D01*
X1489370Y1696560D02*
Y1697066D01*
Y1698905D02*
Y1699548D01*
Y1702060D02*
Y1702266D01*
Y1723770D02*
Y1723994D01*
Y1726470D02*
Y1726694D01*
Y1728970D02*
Y1729285D01*
X1489764Y1696560D02*
Y1697066D01*
Y1702060D02*
Y1702266D01*
Y1723779D02*
Y1723985D01*
Y1726479D02*
Y1726685D01*
Y1728979D02*
Y1729285D01*
X1490157Y1696673D02*
Y1697152D01*
Y1702060D02*
Y1702266D01*
Y1723779D02*
Y1723985D01*
Y1726479D02*
Y1726685D01*
Y1728979D02*
Y1729285D01*
X1490551Y1696829D02*
Y1697646D01*
Y1702060D02*
Y1702266D01*
Y1723779D02*
Y1723985D01*
Y1726479D02*
Y1726685D01*
Y1728979D02*
Y1729285D01*
X1490945Y1697351D02*
Y1701315D01*
Y1701984D02*
Y1702266D01*
Y1723779D02*
Y1723985D01*
Y1726479D02*
Y1726685D01*
Y1728979D02*
Y1729285D01*
X1491339Y1700845D02*
Y1702266D01*
Y1723779D02*
Y1731385D01*
X1491732Y1723779D02*
Y1724011D01*
Y1726454D02*
Y1726711D01*
Y1728954D02*
Y1729311D01*
X1492126Y1723779D02*
Y1723985D01*
Y1726479D02*
Y1726685D01*
Y1728979D02*
Y1729285D01*
X1492520Y1723779D02*
Y1723985D01*
Y1726479D02*
Y1726685D01*
Y1728979D02*
Y1729285D01*
X1492913Y1723779D02*
Y1723985D01*
Y1726479D02*
Y1726685D01*
Y1728979D02*
Y1729285D01*
X1493307Y1699089D02*
Y1699284D01*
Y1723779D02*
Y1723985D01*
Y1726479D02*
Y1726685D01*
Y1728979D02*
Y1729285D01*
X1493701Y1699361D02*
Y1699889D01*
Y1702694D02*
Y1702966D01*
Y1723678D02*
Y1724086D01*
Y1726378D02*
Y1726786D01*
Y1728878D02*
Y1729285D01*
X1494094Y1700113D02*
Y1700545D01*
Y1702727D02*
Y1702966D01*
Y1722979D02*
Y1729285D01*
X1494488Y1700831D02*
Y1701552D01*
Y1702760D02*
Y1702966D01*
X1494882Y1696460D02*
Y1705066D01*
X1495276Y1702759D02*
Y1702966D01*
X1495669Y1700727D02*
Y1701053D01*
Y1702731D02*
Y1702966D01*
X1496063Y1696846D02*
Y1697151D01*
Y1700009D02*
Y1700794D01*
Y1702701D02*
Y1702966D01*
X1496457Y1696889D02*
Y1697659D01*
X1496850Y1697624D02*
Y1698444D01*
X1497244Y1698692D02*
Y1700051D01*
Y1722879D02*
Y1729885D01*
X1497638Y1696592D02*
Y1696849D01*
Y1702088D02*
Y1702437D01*
Y1703988D02*
Y1704313D01*
Y1723979D02*
Y1724285D01*
Y1726879D02*
Y1727185D01*
Y1729679D02*
Y1729885D01*
X1498031Y1696609D02*
Y1697087D01*
Y1702155D02*
Y1702366D01*
Y1704086D02*
Y1704347D01*
Y1723979D02*
Y1724285D01*
Y1726879D02*
Y1727185D01*
Y1729679D02*
Y1729885D01*
X1498425Y1696877D02*
Y1697350D01*
Y1701046D02*
Y1702366D01*
Y1704128D02*
Y1704381D01*
Y1723979D02*
Y1724285D01*
Y1726879D02*
Y1727185D01*
Y1729679D02*
Y1729885D01*
X1498819Y1697270D02*
Y1697714D01*
Y1699752D02*
Y1700825D01*
Y1702160D02*
Y1702366D01*
Y1704169D02*
Y1704415D01*
Y1723979D02*
Y1724285D01*
Y1726879D02*
Y1727185D01*
Y1729679D02*
Y1730025D01*
X1499213Y1697664D02*
Y1698107D01*
Y1699021D02*
Y1699709D01*
Y1702160D02*
Y1702366D01*
Y1704210D02*
Y1704450D01*
Y1723979D02*
Y1724285D01*
Y1726879D02*
Y1727185D01*
Y1729679D02*
Y1730911D01*
X1499606Y1698041D02*
Y1698884D01*
Y1702160D02*
Y1702366D01*
Y1704252D02*
Y1704502D01*
Y1723979D02*
Y1724285D01*
Y1726879D02*
Y1727185D01*
Y1729679D02*
Y1729885D01*
Y1730789D02*
Y1731419D01*
X1500000Y1697831D02*
Y1698278D01*
Y1698683D02*
Y1699321D01*
Y1702160D02*
Y1702366D01*
Y1704306D02*
Y1704574D01*
Y1723979D02*
Y1724285D01*
Y1726879D02*
Y1727185D01*
Y1729679D02*
Y1729885D01*
X1500394Y1697437D02*
Y1697924D01*
Y1699274D02*
Y1700368D01*
Y1702160D02*
Y1702366D01*
Y1704362D02*
Y1704645D01*
Y1723979D02*
Y1724285D01*
Y1726879D02*
Y1727185D01*
Y1729679D02*
Y1729885D01*
X1500787Y1697064D02*
Y1697570D01*
Y1700470D02*
Y1702366D01*
Y1704418D02*
Y1704764D01*
Y1723979D02*
Y1724285D01*
Y1726879D02*
Y1727185D01*
Y1729679D02*
Y1729885D01*
X1501181Y1696789D02*
Y1697289D01*
Y1702117D02*
Y1702366D01*
Y1704475D02*
Y1704904D01*
Y1723979D02*
Y1724285D01*
Y1726879D02*
Y1727185D01*
Y1729679D02*
Y1729885D01*
X1501575Y1696571D02*
Y1697074D01*
Y1723979D02*
Y1724285D01*
Y1726879D02*
Y1727185D01*
Y1729679D02*
Y1729885D01*
X1501969Y1723979D02*
Y1724285D01*
Y1726879D02*
Y1727185D01*
Y1729679D02*
Y1729885D01*
X1502362Y1723979D02*
Y1724285D01*
Y1726879D02*
Y1727185D01*
Y1729679D02*
Y1729885D01*
X1502756Y1723979D02*
Y1724285D01*
Y1726879D02*
Y1727185D01*
Y1729679D02*
Y1729885D01*
X1503150Y1723978D02*
Y1724286D01*
Y1726878D02*
Y1727186D01*
Y1729678D02*
Y1729885D01*
X1503543Y1696787D02*
Y1697232D01*
Y1701260D02*
Y1701626D01*
Y1722979D02*
Y1729885D01*
X1503937Y1697187D02*
Y1697532D01*
Y1701260D02*
Y1701598D01*
Y1704651D02*
Y1704783D01*
X1504331Y1697679D02*
Y1698005D01*
Y1701255D02*
Y1701570D01*
Y1703840D02*
Y1704840D01*
X1504724Y1697860D02*
Y1701566D01*
Y1703327D02*
Y1704122D01*
X1505118Y1697794D02*
Y1698007D01*
X1505512Y1697584D02*
Y1697745D01*
X1505906Y1697352D02*
Y1697556D01*
X1506299Y1697135D02*
Y1697387D01*
Y1698560D02*
Y1698847D01*
Y1725779D02*
Y1726085D01*
X1506693Y1697017D02*
Y1697301D01*
Y1698382D02*
Y1699192D01*
Y1702888D02*
Y1703266D01*
Y1725779D02*
Y1726085D01*
Y1728979D02*
Y1730285D01*
X1507087Y1696899D02*
Y1697223D01*
Y1698874D02*
Y1699681D01*
Y1702910D02*
Y1703266D01*
Y1725779D02*
Y1726085D01*
Y1730079D02*
Y1730285D01*
X1507480Y1696805D02*
Y1697157D01*
Y1699457D02*
Y1700211D01*
Y1702932D02*
Y1703266D01*
Y1725779D02*
Y1726085D01*
Y1730079D02*
Y1730285D01*
X1507874Y1696727D02*
Y1697121D01*
Y1700179D02*
Y1701294D01*
Y1702953D02*
Y1703266D01*
Y1725779D02*
Y1726085D01*
Y1728252D02*
Y1728585D01*
Y1730079D02*
Y1730285D01*
X1508268Y1696660D02*
Y1697085D01*
Y1701229D02*
Y1705206D01*
Y1725779D02*
Y1726085D01*
Y1728279D02*
Y1728585D01*
Y1730079D02*
Y1730285D01*
X1508661Y1696660D02*
Y1697066D01*
Y1702958D02*
Y1703313D01*
Y1704926D02*
Y1705166D01*
Y1725779D02*
Y1726085D01*
Y1728279D02*
Y1728585D01*
Y1730079D02*
Y1730285D01*
X1509055Y1696660D02*
Y1697066D01*
Y1702960D02*
Y1703266D01*
Y1722856D02*
Y1723223D01*
Y1725779D02*
Y1726085D01*
Y1728279D02*
Y1728585D01*
Y1730079D02*
Y1730285D01*
X1509449Y1696657D02*
Y1697066D01*
Y1698105D02*
Y1698734D01*
Y1702960D02*
Y1703266D01*
Y1722746D02*
Y1723209D01*
Y1725779D02*
Y1726085D01*
Y1728279D02*
Y1728585D01*
Y1730079D02*
Y1730285D01*
X1509843Y1696642D02*
Y1697066D01*
Y1698204D02*
Y1698793D01*
Y1702960D02*
Y1703266D01*
Y1722806D02*
Y1723319D01*
Y1725779D02*
Y1726085D01*
Y1728279D02*
Y1728585D01*
Y1730079D02*
Y1730286D01*
Y1730792D02*
Y1731436D01*
X1510236Y1696626D02*
Y1697066D01*
Y1698302D02*
Y1698871D01*
Y1702960D02*
Y1703266D01*
Y1722934D02*
Y1726966D01*
Y1728279D02*
Y1728585D01*
Y1730079D02*
Y1730911D01*
X1510630Y1696610D02*
Y1697066D01*
Y1698476D02*
Y1699312D01*
Y1702960D02*
Y1703266D01*
Y1725752D02*
Y1726112D01*
Y1726752D02*
Y1727163D01*
Y1728279D02*
Y1728585D01*
Y1730079D02*
Y1730312D01*
X1511024Y1696594D02*
Y1697066D01*
Y1699533D02*
Y1703266D01*
Y1725779D02*
Y1726085D01*
Y1726999D02*
Y1727400D01*
Y1728279D02*
Y1728585D01*
Y1730079D02*
Y1730285D01*
X1511417Y1696579D02*
Y1697066D01*
Y1725779D02*
Y1726085D01*
Y1727245D02*
Y1727651D01*
Y1728279D02*
Y1728585D01*
Y1730079D02*
Y1730285D01*
X1511811Y1697046D02*
Y1697104D01*
Y1725779D02*
Y1726085D01*
Y1727507D02*
Y1727901D01*
Y1728261D02*
Y1728585D01*
Y1730079D02*
Y1730285D01*
X1512205Y1725779D02*
Y1726085D01*
Y1727757D02*
Y1728585D01*
Y1730079D02*
Y1730285D01*
X1512598Y1725779D02*
Y1726085D01*
Y1727987D02*
Y1728585D01*
Y1730079D02*
Y1730285D01*
X1512992Y1725779D02*
Y1726085D01*
Y1730079D02*
Y1730285D01*
X1513386Y1725779D02*
Y1726085D01*
Y1730079D02*
Y1730285D01*
X1513780Y1725779D02*
Y1726085D01*
Y1729079D02*
Y1730285D01*
X1514173Y1725750D02*
Y1726085D01*
X1516929Y1722403D02*
Y1722404D01*
Y1723779D02*
Y1724885D01*
X1517323Y1722593D02*
Y1722844D01*
Y1723779D02*
Y1724885D01*
X1517717Y1723210D02*
Y1724885D01*
X1525984Y1725364D02*
Y1725660D01*
X1526378Y1725750D02*
Y1726269D01*
Y1729017D02*
Y1729285D01*
X1526772Y1726508D02*
Y1726959D01*
Y1729050D02*
Y1729285D01*
X1527165Y1727169D02*
Y1728060D01*
Y1729076D02*
Y1729285D01*
X1527559Y1722779D02*
Y1731385D01*
X1527953Y1729078D02*
Y1729285D01*
X1528346Y1726986D02*
Y1727394D01*
Y1729048D02*
Y1729285D01*
X1528740Y1723145D02*
Y1723519D01*
Y1726304D02*
Y1727053D01*
Y1729017D02*
Y1729285D01*
X1529134Y1723276D02*
Y1724052D01*
X1529528Y1724019D02*
Y1724865D01*
X1529921Y1725163D02*
Y1726540D01*
X1530315Y1722858D02*
Y1723190D01*
Y1728443D02*
Y1728722D01*
Y1730343D02*
Y1730636D01*
X1530709Y1722952D02*
Y1723432D01*
Y1728462D02*
Y1728685D01*
Y1730410D02*
Y1730670D01*
X1531102Y1723234D02*
Y1723695D01*
Y1727140D02*
Y1728685D01*
Y1730451D02*
Y1730704D01*
X1531496Y1723628D02*
Y1724071D01*
Y1726002D02*
Y1727017D01*
Y1728479D02*
Y1728685D01*
Y1730493D02*
Y1730738D01*
X1531890Y1724021D02*
Y1724465D01*
Y1725270D02*
Y1725941D01*
Y1728479D02*
Y1728685D01*
Y1730534D02*
Y1730773D01*
X1532283Y1724374D02*
Y1725191D01*
Y1728479D02*
Y1728685D01*
Y1730575D02*
Y1730828D01*
X1532677Y1724113D02*
Y1724564D01*
Y1725059D02*
Y1725739D01*
Y1728479D02*
Y1728685D01*
Y1730631D02*
Y1730900D01*
X1533071Y1723719D02*
Y1724210D01*
Y1725650D02*
Y1726838D01*
Y1728479D02*
Y1728685D01*
Y1730687D02*
Y1730972D01*
X1533465Y1723358D02*
Y1723855D01*
Y1726941D02*
Y1728685D01*
Y1730743D02*
Y1731098D01*
X1533858Y1723082D02*
Y1723588D01*
Y1728595D02*
Y1728685D01*
Y1730800D02*
Y1731129D01*
X1534252Y1722941D02*
Y1723373D01*
X1536220Y1723085D02*
Y1723757D01*
X1536614Y1723565D02*
Y1724715D01*
X1537008Y1724730D02*
Y1731085D01*
X1537402Y1730877D02*
Y1731085D01*
X1537795Y1730879D02*
Y1731085D01*
X1538189Y1724579D02*
Y1724789D01*
Y1730879D02*
Y1731085D01*
X1538583Y1724625D02*
Y1724785D01*
Y1730879D02*
Y1731085D01*
X1538976Y1724674D02*
Y1724785D01*
Y1726216D02*
Y1726385D01*
Y1727379D02*
Y1727558D01*
Y1728407D02*
Y1728758D01*
Y1729607D02*
Y1729785D01*
Y1730879D02*
Y1731085D01*
X1539370Y1724679D02*
Y1724785D01*
Y1726242D02*
Y1726385D01*
Y1727379D02*
Y1727485D01*
Y1728479D02*
Y1728685D01*
Y1729679D02*
Y1729785D01*
Y1730879D02*
Y1731085D01*
X1539764Y1724679D02*
Y1724785D01*
Y1726269D02*
Y1726385D01*
Y1727379D02*
Y1727485D01*
Y1728479D02*
Y1728685D01*
Y1729679D02*
Y1729785D01*
Y1730879D02*
Y1731085D01*
X1540157Y1723166D02*
Y1723185D01*
Y1724679D02*
Y1724785D01*
Y1726279D02*
Y1726385D01*
Y1727379D02*
Y1727485D01*
Y1728479D02*
Y1728685D01*
Y1729679D02*
Y1729785D01*
Y1730879D02*
Y1731085D01*
X1540551Y1722847D02*
Y1723187D01*
Y1724679D02*
Y1724785D01*
Y1726279D02*
Y1726385D01*
Y1727379D02*
Y1727485D01*
Y1728479D02*
Y1728685D01*
Y1729679D02*
Y1729785D01*
Y1730879D02*
Y1731085D01*
X1540945Y1722926D02*
Y1723420D01*
Y1724678D02*
Y1724786D01*
Y1726279D02*
Y1726385D01*
Y1727379D02*
Y1727485D01*
Y1728479D02*
Y1728685D01*
Y1729679D02*
Y1729785D01*
Y1730879D02*
Y1731085D01*
X1541339Y1723170D02*
Y1725486D01*
Y1726279D02*
Y1726385D01*
Y1727379D02*
Y1727485D01*
Y1728479D02*
Y1728685D01*
Y1729679D02*
Y1729785D01*
Y1730879D02*
Y1731085D01*
X1541732Y1724679D02*
Y1724785D01*
Y1725436D02*
Y1725655D01*
Y1726279D02*
Y1726385D01*
Y1727379D02*
Y1727485D01*
Y1728479D02*
Y1728685D01*
Y1729679D02*
Y1729785D01*
Y1730879D02*
Y1731085D01*
X1542126Y1724679D02*
Y1724785D01*
Y1725593D02*
Y1725824D01*
Y1726279D02*
Y1726385D01*
Y1727379D02*
Y1727485D01*
Y1728479D02*
Y1728685D01*
Y1729679D02*
Y1729785D01*
Y1730879D02*
Y1731085D01*
X1542520Y1724679D02*
Y1724785D01*
Y1725751D02*
Y1726385D01*
Y1727379D02*
Y1727485D01*
Y1728479D02*
Y1728685D01*
Y1729679D02*
Y1729785D01*
Y1730879D02*
Y1731085D01*
X1542913Y1724662D02*
Y1724785D01*
Y1725908D02*
Y1726385D01*
Y1727379D02*
Y1727485D01*
Y1728479D02*
Y1728685D01*
Y1729679D02*
Y1729785D01*
Y1730879D02*
Y1731085D01*
X1543307Y1724622D02*
Y1724785D01*
Y1726038D02*
Y1726385D01*
Y1727379D02*
Y1729785D01*
Y1730879D02*
Y1731085D01*
X1543701Y1724583D02*
Y1724785D01*
Y1730879D02*
Y1731085D01*
X1544094Y1724579D02*
Y1724817D01*
Y1730830D02*
Y1731085D01*
X1546457Y1728658D02*
Y1728988D01*
X1546850Y1728956D02*
Y1729294D01*
X1547244Y1729284D02*
Y1729629D01*
X1547638Y1723979D02*
Y1730079D01*
X1548031Y1723979D02*
Y1730285D01*
X1551575Y1723979D02*
Y1724385D01*
X1555906Y1725275D02*
Y1726461D01*
X1556299Y1724498D02*
Y1725364D01*
Y1726137D02*
Y1727550D01*
X1556693Y1724183D02*
Y1724640D01*
Y1727125D02*
Y1728186D01*
X1557087Y1724037D02*
Y1724343D01*
Y1727417D02*
Y1727846D01*
Y1728125D02*
Y1728801D01*
X1557480Y1723945D02*
Y1724231D01*
Y1727573D02*
Y1727812D01*
Y1728740D02*
Y1729416D01*
X1557874Y1723889D02*
Y1724207D01*
Y1727579D02*
Y1727856D01*
Y1729355D02*
Y1730031D01*
X1558268Y1723930D02*
Y1724272D01*
Y1727539D02*
Y1727845D01*
Y1729970D02*
Y1730285D01*
X1558661Y1724040D02*
Y1724485D01*
Y1727381D02*
Y1727746D01*
X1559055Y1724303D02*
Y1724943D01*
Y1726965D02*
Y1727529D01*
X1559449Y1724831D02*
Y1727128D01*
X1561024Y1723979D02*
Y1730285D01*
X1561417Y1728779D02*
Y1730285D01*
X1561811Y1727613D02*
Y1729481D01*
X1562205Y1725514D02*
Y1727316D01*
X1562598Y1723979D02*
Y1725888D01*
X1562992Y1724653D02*
Y1726386D01*
X1563386Y1726753D02*
Y1728311D01*
X1563780Y1728710D02*
Y1730236D01*
X1564173Y1728716D02*
Y1730285D01*
X1564567Y1723979D02*
Y1730285D01*
X1566142Y1728643D02*
Y1730285D01*
X1566535Y1728748D02*
Y1730285D01*
X1566929Y1726983D02*
Y1728831D01*
X1567323Y1724884D02*
Y1726666D01*
X1567717Y1723979D02*
Y1725885D01*
X1568110Y1725283D02*
Y1726964D01*
X1568504Y1727383D02*
Y1728888D01*
X1568898Y1728777D02*
Y1730285D01*
X1569291Y1723979D02*
Y1730285D01*
X1571260Y1723979D02*
Y1724385D01*
X1571654Y1723652D02*
Y1724385D01*
X1482351Y1730001D02*
X1481917Y1730218D01*
X1481398Y1729181*
X1481749Y1729031*
X1481960Y1729384*
X1481965Y1729391*
X1482163Y1729688*
X1482351Y1730001*
X1479051Y1729197D02*
X1478546Y1730208D01*
X1478193Y1730007*
X1478712Y1729044*
X1478941Y1729158*
X1478967Y1729169*
X1479051Y1729197*
X1478346Y1729722D02*
Y1730094D01*
X1478740Y1729058D02*
Y1729820D01*
X1481496Y1729139D02*
Y1729376D01*
X1481890Y1729266D02*
Y1730164D01*
X1482283Y1729889D02*
Y1730035D01*
*
G04 PC Custom Flashes*
G04 Layer Name VAE1701B01_201712_BKP.p - flashes*
%LPD*%
*
*
G04 PC Circuitry*
G04 Layer Name VAE1701B01_201712_BKP.p - circuitry*
%LPD*%
*
G54D10*
X1557095Y1557105D02*
Y1592538D01*
X1592528*
Y1557105*
X1557095*
X1557882Y1592538D02*
X1557488Y1592145D01*
X1558276Y1592538D02*
X1557488Y1591751D01*
X1558669Y1592538D02*
X1557488Y1591357D01*
X1559063Y1592538D02*
X1557488Y1590964D01*
X1559457Y1592538D02*
X1557488Y1590570D01*
X1559851Y1592538D02*
X1557488Y1590176D01*
X1560244Y1592538D02*
X1557488Y1589782D01*
X1560638Y1592538D02*
X1557488Y1589389D01*
X1561032Y1592538D02*
X1557488Y1588995D01*
X1561425Y1592538D02*
X1557488Y1588601D01*
X1574811Y1575974D02*
Y1573641D01*
X1500000Y1623956D02*
X1525586D01*
Y1525599*
X1500000*
Y1623956*
X1624089Y1624035D02*
X1649606D01*
Y1525644*
X1624071*
X1624071D02*
X1624089Y1624035D01*
X1500000Y1649606D02*
X1649606D01*
Y1624004*
X1500000*
Y1649606*
Y1525591D02*
X1649606D01*
Y1500000*
X1500000*
Y1525591*
X1512598Y1507874D02*
G75*
G03X1512598I-4724J0D01*
G01Y1641732D02*
G03X1512598I-4724J0D01*
G01X1646457D02*
G03X1646457I-4725J0D01*
G01Y1507874D02*
G03X1646457I-4725J0D01*
G01X1518573Y1538321D02*
G03X1518573I-4725J0D01*
G01Y1611204D02*
G03X1518573I-4725J0D01*
G01X1644640Y1538321D02*
G03X1644640I-4725J0D01*
G01Y1611204D02*
G03X1644640I-4725J0D01*
G01X1485258Y1692159D02*
X1526390Y1651027D01*
Y1661216*
X1526405Y1651016D02*
X1516199D01*
X1455520Y1599934D02*
X1496652Y1558801D01*
Y1568990*
X1496667Y1558790D02*
X1486461D01*
G54D22*
X1572806Y1608675D02*
Y1615368D01*
X1567688*
Y1608675*
X1572806*
Y1609462D02*
X1567688D01*
X1572806Y1609856D02*
X1567688D01*
X1572806Y1610250D02*
X1567688D01*
X1572806Y1610643D02*
X1567688D01*
X1572806Y1611037D02*
X1567688D01*
X1572806Y1611431D02*
X1567688D01*
X1572806Y1611824D02*
X1567688D01*
X1603240Y1618257D02*
Y1607234D01*
X1610248*
Y1618257*
X1603240*
Y1617863D02*
X1610248D01*
X1603240Y1617470D02*
X1610248D01*
X1603240Y1617076D02*
X1610248D01*
X1603240Y1616682D02*
X1610248D01*
X1603240Y1616289D02*
X1610248D01*
X1603240Y1615895D02*
X1610248D01*
X1603240Y1615501D02*
X1610248D01*
X1528861Y1547733D02*
X1532737Y1548807D01*
X1528861Y1549880D02*
X1532737Y1548807D01*
X1528861Y1552162D02*
X1532737Y1551088D01*
X1528861Y1552162D02*
X1532737Y1553236D01*
X1531445Y1551491D02*
Y1552833D01*
X1529599Y1554444D02*
X1529414Y1554713D01*
X1528861Y1555115*
X1532737*
X1528861Y1558203D02*
X1532737Y1556860D01*
X1528861Y1556323D02*
Y1558203D01*
Y1560216D02*
X1529045Y1559813D01*
X1529599Y1559545*
X1530522Y1559411*
X1531075*
X1531998Y1559545*
X1532552Y1559813*
X1532737Y1560216*
Y1560484*
X1532552Y1560887*
X1531998Y1561156*
X1531075Y1561290*
X1530522*
X1529599Y1561156*
X1529045Y1560887*
X1528861Y1560484*
Y1560216*
X1529599Y1562498D02*
X1529414Y1562766D01*
X1528861Y1563169*
X1532737*
X1528861Y1564377D02*
X1532737D01*
X1528861D02*
Y1565585D01*
X1529045Y1565988*
X1529230Y1566122*
X1529599Y1566256*
X1529968*
X1530337Y1566122*
X1530522Y1565988*
X1530706Y1565585*
Y1564377D02*
Y1565585D01*
X1530891Y1565988*
X1531075Y1566122*
X1531445Y1566256*
X1531998*
X1532367Y1566122*
X1532552Y1565988*
X1532737Y1565585*
Y1564377*
X1528861Y1568270D02*
X1529045Y1567867D01*
X1529599Y1567598*
X1530522Y1567464*
X1531075*
X1531998Y1567598*
X1532552Y1567867*
X1532737Y1568270*
Y1568538*
X1532552Y1568941*
X1531998Y1569209*
X1531075Y1569343*
X1530522*
X1529599Y1569209*
X1529045Y1568941*
X1528861Y1568538*
Y1568270*
X1529599Y1570551D02*
X1529414Y1570820D01*
X1528861Y1571223*
X1532737*
X1528861Y1572431D02*
X1532737D01*
X1528861D02*
Y1574176D01*
X1530706Y1572431D02*
Y1573504D01*
X1532737Y1572431D02*
Y1574176D01*
G54D25*
X1556406Y1588995D02*
G03X1556406I-492J0D01*
G01X1540270Y1540473D02*
G03X1540270I-492J0D01*
G54D26*
G01X1557095Y1557105D02*
Y1592538D01*
X1592528*
Y1557105*
X1557095*
X1558276Y1592538D02*
X1557488Y1591751D01*
X1559063Y1592538D02*
X1557488Y1590964D01*
X1559851Y1592538D02*
X1557488Y1590176D01*
X1560638Y1592538D02*
X1557488Y1589389D01*
X1561425Y1592538D02*
X1557488Y1588601D01*
X1543360Y1534055D02*
X1545644D01*
Y1538780*
X1543360*
Y1534055*
G54D28*
X1725756Y1493830D02*
X1725865Y1493831D01*
Y1493811*
X1725851Y1493812*
X1725840Y1493796*
X1725849Y1493751*
X1725868Y1493687*
X1725891Y1493626*
X1725918*
X1725931Y1493651*
X1725943Y1493681*
X1725957Y1493713*
X1725969Y1493750*
X1725983Y1493780*
Y1493803*
X1725973Y1493811*
X1725942*
X1725941Y1493831*
X1726043Y1493830*
Y1493812*
X1726023Y1493803*
X1726009Y1493799*
X1725996Y1493781*
X1725984Y1493743*
X1725971Y1493702*
X1725950Y1493657*
X1725936Y1493612*
X1725916Y1493568*
X1725906Y1493545*
X1725903Y1493539*
X1725874*
X1725875Y1493581*
X1725853Y1493643*
X1725824Y1493709*
X1725798Y1493774*
X1725783Y1493809*
X1725752*
X1725753Y1493826*
X1726172Y1493650D02*
X1726092D01*
X1726101Y1493662*
X1726144Y1493666*
X1726172Y1493667*
Y1493688*
X1726161Y1493708*
X1726146Y1493710*
X1726127Y1493707*
X1726104Y1493696*
X1726088Y1493681*
X1726082Y1493664*
X1726081Y1493633*
X1726086Y1493609*
X1726098Y1493589*
X1726122Y1493571*
X1726149Y1493566*
X1726177*
X1726202Y1493585*
X1726216Y1493597*
X1726226Y1493598*
X1726228Y1493590*
X1726226Y1493582*
X1726210Y1493577*
X1726199Y1493566*
X1726191Y1493558*
X1726180Y1493545*
X1726163Y1493542*
X1726132Y1493539*
X1726113Y1493540*
X1726099Y1493554*
X1726087Y1493564*
X1726072Y1493576*
X1726060Y1493591*
X1726050Y1493609*
Y1493676*
X1726072Y1493699*
X1726089Y1493715*
X1726110Y1493729*
X1726122Y1493738*
X1726172Y1493737*
X1726194Y1493717*
X1726207Y1493697*
X1726221Y1493689*
Y1493654*
Y1493649*
X1726205*
X1726180*
X1726172*
X1726169Y1493651*
X1726257Y1493844D02*
X1726277Y1493831D01*
X1726280Y1493733*
X1726282Y1493622*
Y1493555*
X1726271Y1493553*
X1726262Y1493551*
Y1493540*
X1726299Y1493539*
X1726353*
X1726357Y1493553*
X1726340*
X1726328Y1493568*
X1726316Y1493583*
X1726315Y1493638*
X1726325Y1493674*
X1726332Y1493694*
X1726347Y1493701*
X1726363Y1493706*
X1726376*
X1726392Y1493697*
X1726398Y1493686*
X1726404Y1493671*
Y1493650*
Y1493613*
X1726402Y1493579*
X1726395Y1493565*
X1726386Y1493559*
X1726377Y1493555*
X1726378Y1493542*
X1726415*
X1726463*
X1726485*
X1726484Y1493552*
X1726469*
X1726461Y1493561*
X1726456Y1493573*
X1726452Y1493591*
Y1493686*
X1726442Y1493716*
X1726430Y1493736*
X1726415Y1493739*
X1726396*
X1726372*
X1726354Y1493736*
X1726348Y1493730*
X1726338Y1493722*
X1726332Y1493710*
X1726325Y1493703*
X1726320Y1493700*
X1726318Y1493710*
Y1493737*
X1726317Y1493761*
Y1493849*
X1726260*
X1726256*
Y1493843*
X1726546Y1493844D02*
X1726530Y1493831D01*
X1726521Y1493818*
X1726530Y1493800*
X1726534Y1493790*
X1726555Y1493786*
X1726569*
X1726572Y1493797*
X1726580Y1493809*
Y1493823*
Y1493833*
X1726575Y1493840*
X1726565Y1493844*
X1726558*
X1726551*
X1726547*
X1726493Y1493724D02*
X1726523Y1493721D01*
X1726540Y1493730*
X1726546Y1493737*
X1726568Y1493739*
X1726579*
X1726580Y1493725*
X1726579Y1493559*
X1726599Y1493557*
Y1493536*
X1726498*
X1726499Y1493555*
X1726524*
X1726544Y1493574*
Y1493692*
X1726530Y1493690*
X1726524Y1493704*
X1726491Y1493706*
Y1493722*
X1726772Y1493661D02*
X1726771Y1493702D01*
X1726752Y1493736*
X1726746Y1493739*
X1726680*
X1726650Y1493719*
X1726630Y1493701*
X1726616Y1493674*
X1726617Y1493601*
X1726640Y1493559*
X1726671Y1493536*
X1726703*
X1726745*
X1726772Y1493554*
X1726797Y1493586*
X1726794Y1493598*
X1726778Y1493601*
X1726769Y1493594*
X1726766Y1493585*
X1726752Y1493578*
X1726738Y1493572*
X1726704Y1493569*
X1726692Y1493572*
X1726662Y1493600*
X1726661Y1493681*
X1726687Y1493710*
X1726700Y1493716*
X1726720Y1493723*
X1726731Y1493722*
X1726730Y1493698*
X1726731Y1493661*
X1726750Y1493657*
X1726768Y1493659*
X1726815Y1493737D02*
X1726884D01*
X1726883Y1493595*
X1726895Y1493571*
X1726910Y1493565*
X1726935Y1493564*
X1726961Y1493586*
X1726965Y1493607*
Y1493711*
X1726946Y1493712*
X1726931Y1493721*
Y1493738*
X1727003Y1493739*
X1727000Y1493698*
Y1493611*
Y1493576*
X1727002Y1493566*
X1727016Y1493559*
X1727031Y1493553*
X1727029Y1493537*
X1726978Y1493536*
X1726960*
X1726867Y1493539*
X1726851Y1493554*
X1726838Y1493582*
X1726839Y1493702*
X1726813Y1493718*
X1726805Y1493730*
X1726807Y1493735*
X1726813*
X1727041Y1493851D02*
X1727123D01*
Y1493571*
X1727134Y1493557*
X1727163Y1493553*
Y1493540*
X1727164Y1493537*
X1727046Y1493539*
Y1493555*
X1727083*
X1727082Y1493826*
X1727065Y1493839*
X1727040Y1493841*
X1727039Y1493851*
X1727219Y1493689D02*
X1727228Y1493706D01*
X1727212Y1493676*
X1727189Y1493675*
X1727187Y1493699*
X1727188Y1493706*
X1727204Y1493725*
X1727218Y1493739*
X1727234*
X1727297*
X1727318Y1493720*
X1727333Y1493698*
X1727335Y1493669*
X1727332Y1493610*
Y1493573*
X1727359Y1493552*
X1727360Y1493536*
X1727304Y1493539*
X1727298Y1493557*
X1727262*
X1727251Y1493540*
X1727216*
X1727204*
X1727178Y1493572*
X1727176Y1493604*
X1727187Y1493628*
X1727219Y1493647*
X1727242Y1493650*
X1727265Y1493662*
X1727279Y1493670*
X1727292Y1493682*
X1727291Y1493698*
X1727283Y1493714*
X1727276Y1493721*
X1727259Y1493725*
X1727248Y1493724*
X1727244Y1493720*
X1727232Y1493715*
X1727226Y1493702*
X1727215Y1493675D02*
X1727223Y1493693D01*
X1727283Y1493648D02*
X1727252Y1493638D01*
X1727227Y1493624*
X1727214Y1493608*
X1727216Y1493584*
X1727223Y1493572*
X1727236Y1493566*
X1727250*
X1727263Y1493574*
X1727284Y1493582*
X1727296Y1493590*
X1727295Y1493636*
X1727293Y1493647*
X1727285Y1493648*
X1727388Y1493739D02*
X1727447Y1493740D01*
X1727448Y1493718*
X1727477Y1493717*
X1727491Y1493726*
X1727504Y1493739*
X1727531*
X1727534Y1493721*
X1727535Y1493704*
Y1493689*
X1727530Y1493684*
X1727513*
X1727500*
X1727494Y1493699*
X1727482Y1493701*
X1727460Y1493702*
X1727449Y1493700*
X1727448Y1493698*
Y1493563*
Y1493555*
X1727495*
Y1493537*
X1727387*
Y1493555*
X1727402*
X1727406Y1493554*
Y1493722*
X1727388*
X1727387Y1493738*
G54D39*
X1565743Y1549764D02*
X1568143D01*
X1565743Y1550764D02*
X1568143D01*
X1566943Y1549764D02*
Y1549164D01*
Y1550764D02*
Y1551364D01*
X1579708Y1552051D02*
Y1550051D01*
X1580508Y1552051D02*
Y1550051D01*
X1579708Y1551051D02*
X1579408D01*
X1580508D02*
X1580808D01*
X1579708D02*
X1579408D01*
X1580508D02*
X1580808D01*
X1579751Y1548028D02*
Y1546028D01*
X1580551Y1548028D02*
Y1546028D01*
X1579751Y1547028D02*
X1579451D01*
X1580551D02*
X1580851D01*
X1579751D02*
X1579451D01*
X1580551D02*
X1580851D01*
X1578528Y1556161D02*
Y1554161D01*
X1579328Y1556161D02*
Y1554161D01*
X1578528Y1555161D02*
X1578228D01*
X1579328D02*
X1579628D01*
X1578528D02*
X1578228D01*
X1579328D02*
X1579628D01*
X1570298Y1551211D02*
X1572298D01*
X1570298Y1552011D02*
X1572298D01*
X1571298Y1551211D02*
Y1550911D01*
Y1552011D02*
Y1552311D01*
Y1551211D02*
Y1550911D01*
Y1552011D02*
Y1552311D01*
X1561833Y1547997D02*
X1563833D01*
X1561833Y1548797D02*
X1563833D01*
X1562833Y1547997D02*
Y1547697D01*
Y1548797D02*
Y1549097D01*
Y1547997D02*
Y1547697D01*
Y1548797D02*
Y1549097D01*
X1557074Y1545443D02*
X1559074D01*
X1557074Y1546243D02*
X1559074D01*
X1558074Y1545443D02*
Y1545143D01*
Y1546243D02*
Y1546543D01*
Y1545443D02*
Y1545143D01*
Y1546243D02*
Y1546543D01*
X1573630Y1574822D02*
X1575992D01*
X1553111Y1545453D02*
X1555111D01*
X1553111Y1546253D02*
X1555111D01*
X1554111Y1545453D02*
Y1545153D01*
Y1546253D02*
Y1546553D01*
Y1545453D02*
Y1545153D01*
Y1546253D02*
Y1546553D01*
X1569079Y1537203D02*
X1567079D01*
X1569079Y1536403D02*
X1567079D01*
X1568079Y1537203D02*
Y1537503D01*
Y1536403D02*
Y1536103D01*
Y1537203D02*
Y1537503D01*
Y1536403D02*
Y1536103D01*
X1540970Y1543688D02*
G03X1540970I-3000J0D01*
G01X1597796Y1539853D02*
Y1542253D01*
X1596796Y1539853D02*
Y1542253D01*
X1597796Y1541053D02*
X1598396D01*
X1596796D02*
X1596196D01*
X1597884Y1545692D02*
Y1548092D01*
X1596884Y1545692D02*
Y1548092D01*
X1597884Y1546892D02*
X1598484D01*
X1596884D02*
X1596284D01*
X1602770Y1579435D02*
X1600370D01*
X1602770Y1578435D02*
X1600370D01*
X1601570Y1579435D02*
Y1580035D01*
Y1578435D02*
Y1577835D01*
X1596898Y1579435D02*
X1594498D01*
X1596898Y1578435D02*
X1594498D01*
X1595698Y1579435D02*
Y1580035D01*
Y1578435D02*
Y1577835D01*
X1593700Y1568352D02*
X1595700D01*
X1593700Y1569152D02*
X1595700D01*
X1594700Y1568352D02*
Y1568052D01*
Y1569152D02*
Y1569452D01*
Y1568352D02*
Y1568052D01*
Y1569152D02*
Y1569452D01*
X1580688Y1610272D02*
X1583088D01*
X1580688Y1611272D02*
X1583088D01*
X1581888Y1610272D02*
Y1609672D01*
Y1611272D02*
Y1611872D01*
X1574692Y1610322D02*
X1577092D01*
X1574692Y1611322D02*
X1577092D01*
X1575892Y1610322D02*
Y1609722D01*
Y1611322D02*
Y1611922D01*
X1593756Y1598247D02*
X1594306Y1597697D01*
X1595206Y1598597*
X1595706Y1598097*
X1612177Y1557476D02*
Y1555476D01*
X1612977Y1557476D02*
Y1555476D01*
X1612177Y1556476D02*
X1611877D01*
X1612977D02*
X1613277D01*
X1612177D02*
X1611877D01*
X1612977D02*
X1613277D01*
X1607061Y1553680D02*
X1604661D01*
X1607061Y1552680D02*
X1604661D01*
X1605861Y1553680D02*
Y1554280D01*
Y1552680D02*
Y1552080D01*
X1612177Y1550272D02*
Y1548272D01*
X1612977Y1550272D02*
Y1548272D01*
X1612177Y1549272D02*
X1611877D01*
X1612977D02*
X1613277D01*
X1612177D02*
X1611877D01*
X1612977D02*
X1613277D01*
X1595692Y1561565D02*
X1593692D01*
X1595692Y1560765D02*
X1593692D01*
X1594692Y1561565D02*
Y1561865D01*
Y1560765D02*
Y1560465D01*
Y1561565D02*
Y1561865D01*
Y1560765D02*
Y1560465D01*
X1612177Y1553831D02*
Y1551831D01*
X1612977Y1553831D02*
Y1551831D01*
X1612177Y1552831D02*
X1611877D01*
X1612977D02*
X1613277D01*
X1612177D02*
X1611877D01*
X1612977D02*
X1613277D01*
X1541716Y1604028D02*
X1542266Y1603478D01*
X1543166Y1604378*
X1543666Y1603878*
X1553057Y1564566D02*
X1555057D01*
X1553057Y1565366D02*
X1555057D01*
X1554057Y1564566D02*
Y1564266D01*
Y1565366D02*
Y1565666D01*
Y1564566D02*
Y1564266D01*
Y1565366D02*
Y1565666D01*
X1530622Y1606057D02*
X1530072Y1605507D01*
X1530972Y1604607*
X1530472Y1604107*
X1553803Y1556199D02*
X1554353Y1555649D01*
X1555253Y1556549*
X1555753Y1556049*
X1551517Y1537037D02*
X1550967Y1537587D01*
X1550067Y1536687*
X1549567Y1537187*
X1545346Y1530905D02*
Y1532905D01*
X1544546Y1530905D02*
Y1532905D01*
X1545346Y1531905D02*
X1545646D01*
X1544546D02*
X1544246D01*
X1545346D02*
X1545646D01*
X1544546D02*
X1544246D01*
X1544939Y1540397D02*
Y1542397D01*
X1544139Y1540397D02*
Y1542397D01*
X1544939Y1541397D02*
X1545239D01*
X1544139D02*
X1543839D01*
X1544939D02*
X1545239D01*
X1544139D02*
X1543839D01*
X1556573Y1538640D02*
Y1540640D01*
X1555773Y1538640D02*
Y1540640D01*
X1556573Y1539640D02*
X1556873D01*
X1555773D02*
X1555473D01*
X1556573D02*
X1556873D01*
X1555773D02*
X1555473D01*
X1556500Y1535169D02*
Y1537169D01*
X1555700Y1535169D02*
Y1537169D01*
X1556500Y1536169D02*
X1556800D01*
X1555700D02*
X1555400D01*
X1556500D02*
X1556800D01*
X1555700D02*
X1555400D01*
X1553012Y1572209D02*
X1555012D01*
X1553012Y1573009D02*
X1555012D01*
X1554012Y1572209D02*
Y1571909D01*
Y1573009D02*
Y1573309D01*
Y1572209D02*
Y1571909D01*
Y1573009D02*
Y1573309D01*
X1611429Y1600093D02*
X1611979Y1600643D01*
X1611079Y1601543*
X1611579Y1602043*
X1603029Y1590357D02*
Y1592357D01*
X1602229Y1590357D02*
Y1592357D01*
X1603029Y1591357D02*
X1603329D01*
X1602229D02*
X1601929D01*
X1603029D02*
X1603329D01*
X1602229D02*
X1601929D01*
X1537275Y1604072D02*
X1537825Y1603522D01*
X1538725Y1604422*
X1539225Y1603922*
X1558794Y1605593D02*
G03X1558794I-3000J0D01*
G01X1563150Y1605141D02*
G03X1563150I-3000J0D01*
G01X1558771Y1600649D02*
G03X1558771I-3000J0D01*
G01X1540334Y1582939D02*
G03X1540334I-3000J0D01*
G01X1561762Y1541923D02*
G03X1561762I-3000J0D01*
G01X1600620Y1560850D02*
X1598220D01*
X1600620Y1559850D02*
X1598220D01*
X1599420Y1560850D02*
Y1561450D01*
Y1559850D02*
Y1559250D01*
X1561428Y1617923D02*
G03X1561428I-3000J0D01*
G01X1542777Y1577674D02*
G03X1542777I-3000J0D01*
G01X1574255Y1599526D02*
G03X1574255I-3000J0D01*
G01X1623104Y1581223D02*
Y1572562D01*
X1611293Y1581223D02*
Y1572562D01*
X1623104Y1574530D02*
X1611293D01*
X1623104Y1579255D02*
X1611293D01*
X1619466Y1567102D02*
X1614781D01*
X1619624Y1586905D02*
X1614860D01*
X1623104Y1581226D02*
G03X1619661Y1585173I-3695J252D01*
G01X1614897Y1585252D02*
G03X1611293Y1581221I213J-3818D01*
G01X1619429Y1568638D02*
G03X1623104Y1572564I-126J3800D01*
G01X1611293Y1572562D02*
G03X1614741Y1568638I3687J-238D01*
G01X1614703Y1568598D02*
Y1567141D01*
X1619466Y1568637D02*
Y1567181D01*
X1619663Y1586866D02*
Y1585173D01*
X1614860Y1586905D02*
Y1585252D01*
G54D42*
X1569502Y1555864D02*
X1564384D01*
Y1544664*
X1569502*
Y1555864*
X1591696Y1543612D02*
Y1538494D01*
X1602896*
Y1543612*
X1591696*
X1591784Y1549451D02*
Y1544333D01*
X1602984*
Y1549451*
X1591784*
X1599011Y1573335D02*
X1604129D01*
Y1584535*
X1599011*
Y1573335*
X1593139D02*
X1598257D01*
Y1584535*
X1593139*
Y1573335*
X1584447Y1616372D02*
X1579329D01*
Y1605172*
X1584447*
Y1616372*
X1578451Y1616422D02*
X1573333D01*
Y1605222*
X1578451*
Y1616422*
X1603302Y1547580D02*
X1608420D01*
Y1558780*
X1603302*
Y1547580*
X1568643Y1598650D02*
Y1593650D01*
X1579643*
Y1598650*
X1568643*
X1573943Y1594650D02*
G03X1573442Y1596150I129J877D01*
X1573943Y1597650I620J627*
G01X1596861Y1554750D02*
X1601979D01*
Y1565950*
X1596861*
Y1554750*
G54D43*
X1578858Y1552551D02*
X1576608D01*
Y1549551*
X1578858*
X1581358Y1552551D02*
X1583608D01*
Y1549551*
X1581358*
X1578901Y1548528D02*
X1576651D01*
Y1545528*
X1578901*
X1581401Y1548528D02*
X1583651D01*
Y1545528*
X1581401*
X1577678Y1556661D02*
X1575428D01*
Y1553661*
X1577678*
X1580178Y1556661D02*
X1582428D01*
Y1553661*
X1580178*
X1569798Y1550361D02*
Y1548111D01*
X1572798*
Y1550361*
X1569798Y1552861D02*
Y1555111D01*
X1572798*
Y1552861*
X1561333Y1547147D02*
Y1544897D01*
X1564333*
Y1547147*
X1561333Y1549647D02*
Y1551897D01*
X1564333*
Y1549647*
X1556574Y1544593D02*
Y1542343D01*
X1559574*
Y1544593*
X1556574Y1547093D02*
Y1549343D01*
X1559574*
Y1547093*
X1552611Y1544603D02*
Y1542353D01*
X1555611*
Y1544603*
X1552611Y1547103D02*
Y1549353D01*
X1555611*
Y1547103*
X1569579Y1538053D02*
Y1540303D01*
X1566579*
Y1538053*
X1569579Y1535553D02*
Y1533303D01*
X1566579*
Y1535553*
X1593200Y1567502D02*
Y1565252D01*
X1596200*
Y1567502*
X1593200Y1570002D02*
Y1572252D01*
X1596200*
Y1570002*
X1593256Y1596897D02*
Y1594647D01*
X1596256*
Y1596897*
X1593256Y1599397D02*
Y1601647D01*
X1596256*
Y1599397*
X1611327Y1557976D02*
X1609077D01*
Y1554976*
X1611327*
X1613827Y1557976D02*
X1616077D01*
Y1554976*
X1613827*
X1611327Y1550772D02*
X1609077D01*
Y1547772*
X1611327*
X1613827Y1550772D02*
X1616077D01*
Y1547772*
X1613827*
X1596192Y1562415D02*
Y1564665D01*
X1593192*
Y1562415*
X1596192Y1559915D02*
Y1557665D01*
X1593192*
Y1559915*
X1611327Y1554331D02*
X1609077D01*
Y1551331*
X1611327*
X1613827Y1554331D02*
X1616077D01*
Y1551331*
X1613827*
X1541216Y1602678D02*
Y1600428D01*
X1544216*
Y1602678*
X1541216Y1605178D02*
Y1607428D01*
X1544216*
Y1605178*
X1552557Y1563716D02*
Y1561466D01*
X1555557*
Y1563716*
X1552557Y1566216D02*
Y1568466D01*
X1555557*
Y1566216*
X1529272Y1606557D02*
X1527022D01*
Y1603557*
X1529272*
X1531772Y1606557D02*
X1534022D01*
Y1603557*
X1531772*
X1553303Y1554849D02*
Y1552599D01*
X1556303*
Y1554849*
X1553303Y1557349D02*
Y1559599D01*
X1556303*
Y1557349*
X1552017Y1538387D02*
Y1540637D01*
X1549017*
Y1538387*
X1552017Y1535887D02*
Y1533637D01*
X1549017*
Y1535887*
X1546196Y1530405D02*
X1548446D01*
Y1533405*
X1546196*
X1543696Y1530405D02*
X1541446D01*
Y1533405*
X1543696*
X1545789Y1539897D02*
X1548039D01*
Y1542897*
X1545789*
X1543289Y1539897D02*
X1541039D01*
Y1542897*
X1543289*
X1557423Y1538140D02*
X1559673D01*
Y1541140*
X1557423*
X1554923Y1538140D02*
X1552673D01*
Y1541140*
X1554923*
X1557350Y1534669D02*
X1559600D01*
Y1537669*
X1557350*
X1554850Y1534669D02*
X1552600D01*
Y1537669*
X1554850*
X1552512Y1571359D02*
Y1569109D01*
X1555512*
Y1571359*
X1552512Y1573859D02*
Y1576109D01*
X1555512*
Y1573859*
X1612779Y1599593D02*
X1615029D01*
Y1602593*
X1612779*
X1610279Y1599593D02*
X1608029D01*
Y1602593*
X1610279*
X1603879Y1589857D02*
X1606129D01*
Y1592857*
X1603879*
X1601379Y1589857D02*
X1599129D01*
Y1592857*
X1601379*
X1536775Y1602722D02*
Y1600472D01*
X1539775*
Y1602722*
X1536775Y1605222D02*
Y1607472D01*
X1539775*
Y1605222*
G54D44*
X1557095Y1557499D02*
Y1592538D01*
X1592528*
Y1557499*
X1557095*
G54D45*
X1591582Y1612466D02*
X1586582D01*
X1591582Y1614466D02*
X1586582D01*
X1589082D02*
Y1615466D01*
Y1612466D02*
Y1611466D01*
X1593082Y1607466D02*
Y1604966D01*
X1585082*
Y1607466*
X1593082Y1619466D02*
Y1621966D01*
X1585082*
Y1619466*
X1617731Y1610581D02*
X1612731D01*
X1617731Y1612581D02*
X1612731D01*
X1615231D02*
Y1613581D01*
Y1610581D02*
Y1609581D01*
X1619231Y1605581D02*
Y1603081D01*
X1611231*
Y1605581*
X1619231Y1617581D02*
Y1620081D01*
X1611231*
Y1617581*
X1615780Y1595549D02*
Y1590549D01*
X1613780Y1595549D02*
Y1590549D01*
Y1593049D02*
X1612780D01*
X1615780D02*
X1616780D01*
X1620780Y1597049D02*
X1623280D01*
Y1589049*
X1620780*
X1608780Y1597049D02*
X1606280D01*
Y1589049*
X1608780*
X1599980Y1612532D02*
X1594980D01*
X1599980Y1614532D02*
X1594980D01*
X1597480D02*
Y1615532D01*
Y1612532D02*
Y1611532D01*
X1601480Y1607532D02*
Y1605032D01*
X1593480*
Y1607532*
X1601480Y1619532D02*
Y1622032D01*
X1593480*
Y1619532*
G54D46*
X1572806Y1608675D02*
Y1615368D01*
X1567688Y1608675D02*
Y1615368D01*
X1603201Y1614419D02*
Y1611072D01*
X1610288*
Y1614419*
X1603201*
G54D47*
X1567944Y1606706D02*
G03X1567944I-492J0D01*
G01X1611961Y1620816D02*
G03X1611961I-492J0D01*
G54D48*
G01X1602945Y1618651D02*
Y1606840D01*
X1610543*
Y1618651*
X1602945*
G54D68*
X1543380Y1546516D02*
X1543367Y1547948D01*
X1543629*
X1543621Y1547758*
X1543827Y1547615*
X1544422Y1547734*
X1545264Y1547988*
X1546057Y1548290*
Y1548639*
X1545732Y1548814*
X1545343Y1548964*
X1544914Y1549155*
X1544430Y1549306*
X1544041Y1549496*
X1543732*
X1543629Y1549361*
Y1548948*
X1543375Y1548941*
X1543383Y1550282*
X1543621Y1550274*
X1543743Y1550020*
X1543788Y1549834*
X1544025Y1549657*
X1544521Y1549501*
X1545062Y1549331*
X1545647Y1549057*
X1546247Y1548879*
X1546825Y1548612*
X1547129Y1548480*
X1547208Y1548441*
Y1548068*
X1546645Y1548075*
X1545843Y1547782*
X1544970Y1547401*
X1544119Y1547066*
X1543664Y1546866*
X1543652Y1546466*
X1543430Y1546477*
X1545741Y1551966D02*
Y1550921D01*
X1545586Y1551044*
X1545541Y1551599*
X1545519Y1551966*
X1545241Y1551977*
X1544986Y1551833*
X1544964Y1551633*
X1544997Y1551377*
X1545141Y1551077*
X1545341Y1550866*
X1545564Y1550788*
X1545964Y1550777*
X1546286Y1550844*
X1546541Y1550999*
X1546786Y1551310*
X1546852Y1551666*
Y1552033*
X1546597Y1552366*
X1546441Y1552544*
X1546430Y1552677*
X1546530Y1552710*
X1546641Y1552677*
X1546708Y1552466*
X1546852Y1552333*
X1546952Y1552221*
X1547119Y1552077*
X1547164Y1551855*
X1547208Y1551444*
X1547186Y1551199*
X1547008Y1551010*
X1546875Y1550855*
X1546719Y1550666*
X1546519Y1550499*
X1546286Y1550366*
X1545408Y1550377*
X1545108Y1550655*
X1544897Y1550877*
X1544708Y1551155*
X1544597Y1551310*
X1544608Y1551966*
X1544864Y1552266*
X1545130Y1552433*
X1545230Y1552621*
X1545697*
X1545764Y1552610*
Y1552399*
Y1552077*
Y1551966*
X1545730Y1551933*
X1543197Y1553088D02*
X1543364Y1553355D01*
X1544652Y1553388*
X1546108Y1553410*
X1546997Y1553421*
X1547019Y1553266*
X1547041Y1553155*
X1547186*
X1547197Y1553633*
Y1554344*
X1547019Y1554399*
Y1554177*
X1546819Y1554021*
X1546630Y1553866*
X1545908Y1553855*
X1545430Y1553977*
X1545164Y1554077*
X1545075Y1554266*
X1545008Y1554477*
Y1554644*
X1545130Y1554855*
X1545275Y1554944*
X1545475Y1555021*
X1545741*
X1546230*
X1546675Y1554988*
X1546864Y1554899*
X1546941Y1554777*
X1546997Y1554666*
X1547164Y1554677*
Y1555155*
Y1555788*
Y1556077*
X1547030Y1556066*
Y1555866*
X1546919Y1555766*
X1546752Y1555699*
X1546519Y1555644*
X1545275*
X1544875Y1555521*
X1544619Y1555355*
X1544575Y1555155*
Y1554910*
Y1554599*
X1544619Y1554366*
X1544697Y1554277*
X1544797Y1554155*
X1544952Y1554077*
X1545052Y1553977*
X1545086Y1553910*
X1544952Y1553888*
X1544608*
X1544286Y1553877*
X1543130*
Y1553121*
Y1553077*
X1543208*
X1543205Y1556886D02*
X1543365Y1556664D01*
X1543538Y1556553*
X1543773Y1556664*
X1543909Y1556726*
X1543958Y1556997*
Y1557183*
X1543810Y1557220*
X1543662Y1557331*
X1543477*
X1543341*
X1543254Y1557257*
X1543205Y1557133*
Y1557034*
Y1556948*
Y1556899*
X1544773Y1556183D02*
X1544810Y1556578D01*
X1544699Y1556800*
X1544600Y1556874*
X1544575Y1557170*
Y1557318*
X1544761Y1557331*
X1546946Y1557318*
X1546970Y1557578*
X1547242*
Y1556244*
X1546995Y1556269*
Y1556590*
X1546748Y1556849*
X1545193*
X1545217Y1556664*
X1545032Y1556590*
X1545007Y1556158*
X1544798*
X1545600Y1559849D02*
X1545057Y1559837D01*
X1544612Y1559590*
X1544575Y1559504*
Y1558639*
X1544835Y1558244*
X1545081Y1557985*
X1545081D02*
X1545427Y1557800D01*
X1546390Y1557812*
X1546933Y1558109*
X1547242Y1558516*
Y1558936*
Y1559491*
X1547007Y1559849*
X1546588Y1560170*
X1546427Y1560133*
X1546390Y1559923*
X1546477Y1559812*
X1546600Y1559763*
X1546686Y1559578*
X1546773Y1559405*
X1546810Y1558960*
X1546773Y1558800*
X1546402Y1558405*
X1545341Y1558392*
X1544958Y1558726*
X1544884Y1558899*
X1544785Y1559158*
X1544798Y1559306*
X1545119Y1559294*
X1545600Y1559306*
X1545649Y1559553*
X1545625Y1559788*
X1544600Y1560405D02*
Y1561318D01*
X1546464Y1561306*
X1546785Y1561467*
X1546859Y1561652*
X1546872Y1561985*
X1546588Y1562331*
X1546304Y1562380*
X1544946*
X1544933Y1562133*
X1544810Y1561936*
X1544588*
X1544575Y1562874*
X1545119Y1562837*
X1546254*
X1546711*
X1546847Y1562862*
X1546933Y1563047*
X1547020Y1563244*
X1547230Y1563220*
X1547242Y1562553*
Y1562318*
X1547205Y1561096*
X1547007Y1560886*
X1546637Y1560713*
X1545069Y1560726*
X1544847Y1560380*
X1544699Y1560281*
X1544625Y1560306*
Y1560380*
X1543106Y1563380D02*
Y1564454D01*
X1546785*
X1546970Y1564602*
X1547020Y1564973*
X1547193*
X1547230Y1564985*
X1547205Y1563442*
X1546995*
Y1563923*
X1543440Y1563911*
X1543267Y1563689*
X1543242Y1563368*
X1543106Y1563355*
X1545230Y1565713D02*
X1545007Y1565825D01*
X1545402Y1565615*
X1545415Y1565318*
X1545106Y1565294*
X1545007Y1565306*
X1544761Y1565516*
X1544575Y1565701*
Y1565911*
Y1566738*
X1544822Y1567010*
X1545119Y1567207*
X1545501Y1567232*
X1546267Y1567195*
X1546761*
X1547032Y1567553*
X1547242Y1567565*
X1547205Y1566825*
X1546970Y1566750*
Y1566281*
X1547193Y1566133*
Y1565676*
Y1565516*
X1546773Y1565170*
X1546353Y1565146*
X1546032Y1565294*
X1545785Y1565713*
X1545748Y1566010*
X1545588Y1566318*
X1545489Y1566504*
X1545328Y1566664*
X1545119Y1566652*
X1544909Y1566553*
X1544810Y1566454*
X1544761Y1566232*
X1544773Y1566096*
X1544822Y1566034*
X1544896Y1565886*
X1545057Y1565800*
X1545415Y1565664D02*
X1545180Y1565763D01*
X1545774Y1566554D02*
X1545906Y1566144D01*
X1546087Y1565811*
X1546302Y1565644*
X1546614Y1565672*
X1546767Y1565762*
X1546850Y1565929*
X1546843Y1566117*
X1546746Y1566290*
X1546642Y1566561*
X1546538Y1566721*
X1545934Y1566714*
X1545788Y1566686*
X1545767Y1566582*
X1544573Y1567936D02*
X1544566Y1568700D01*
X1544857Y1568721*
X1544871Y1569103*
X1544753Y1569283*
X1544573Y1569457*
Y1569804*
X1544816Y1569853*
X1545031Y1569860*
X1545239*
X1545302Y1569790*
Y1569568*
Y1569394*
X1545107Y1569325*
X1545073Y1569165*
X1545066Y1568881*
X1545087Y1568735*
X1545121Y1568714*
X1546892*
X1546996Y1568721*
Y1569332*
X1547225*
Y1567915*
X1546996*
X1546989Y1568117*
X1547003Y1568165*
X1544802*
X1544795Y1567929*
X1544593Y1567915*
X1546479Y1570551D02*
X1546632Y1570287D01*
X1546854*
X1547007*
X1547173Y1570426*
X1547229Y1570523*
Y1570648*
X1547201Y1570842*
Y1570953*
X1547090Y1571009*
X1547034Y1571051*
X1546868Y1571092*
X1546757*
X1546646*
X1546576Y1571023*
X1546493Y1570967*
Y1570856*
Y1570773*
X1546465Y1570703*
Y1570620*
X1546479Y1570565*
X1545062Y1571731D02*
X1544854Y1571953D01*
X1544659Y1572259*
X1544604Y1572453*
X1544576Y1572578*
Y1573287*
X1544868Y1573537*
X1545187Y1573745*
X1546729*
X1546826Y1573856*
X1547021Y1573926*
X1547048Y1574092*
X1547215*
X1547229Y1573426*
X1546965Y1573412*
X1546951Y1573078*
X1546965Y1572967*
X1547132Y1572773*
X1547187Y1572620*
X1547201Y1572440*
Y1572231*
Y1572023*
X1547007Y1571745*
X1546757Y1571592*
X1546382Y1571578*
X1546104Y1571676*
X1545840Y1572051*
X1545812Y1572273*
X1545743Y1572551*
X1545673Y1572731*
X1545548Y1572940*
X1545423Y1573162*
X1545340Y1573231*
X1545132Y1573259*
X1545048Y1573106*
X1544937Y1572967*
X1544826Y1572856*
X1544784Y1572676*
Y1572537*
X1544882Y1572467*
X1545021Y1572426*
X1545173Y1572412*
X1545326Y1572384*
X1545423Y1572342*
Y1572120*
X1545409Y1571717*
X1545118Y1571731*
X1545784Y1573037D02*
X1545896Y1572662D01*
X1546034Y1572426*
X1546187Y1572217*
X1546368Y1572203*
X1546521Y1572231*
X1546659Y1572259*
X1546715Y1572370*
X1546771Y1572467*
Y1572620*
X1546715Y1572773*
X1546632Y1572884*
X1546521Y1573162*
X1546382Y1573259*
X1546215Y1573273*
X1546076Y1573287*
X1545882Y1573273*
X1545798*
X1545771Y1573148*
Y1573051*
X1543368Y1574828D02*
X1543521Y1574690D01*
X1543743Y1574703*
X1543909Y1574773*
X1543923Y1574912*
X1543937Y1575120*
X1543896Y1575231*
X1543812Y1575273*
X1543659*
X1543451*
X1543340Y1575245*
X1543298Y1575120*
X1543284Y1575065*
Y1574967*
X1543340Y1574898*
X1543382Y1574815*
X1544784Y1574384D02*
Y1574717D01*
X1544646Y1574815*
X1544618Y1574926*
X1544604Y1575148*
Y1575301*
X1546965*
Y1575634*
X1547173Y1575620*
X1547229Y1575592*
X1547201Y1574426*
X1547048Y1574398*
X1547007Y1574551*
X1546868Y1574745*
X1546757Y1574828*
X1546534*
X1546229*
X1545868Y1574842*
X1545618*
X1545354Y1574828*
X1545201Y1574815*
X1545090Y1574801*
X1545048Y1574759*
X1545007Y1574606*
Y1574467*
X1544965Y1574384*
X1544896Y1574342*
X1544826*
X1544784*
X1544771Y1574356*
G74*
X0Y0D02*
M02*
