G04 ================== begin FILE IDENTIFICATION RECORD ==================*
G04 Layout Name:  LAY-29030.brd*
G04 Film Name:    L1_PS.art*
G04 File Format:  Gerber RS274X*
G04 File Origin:  Cadence Allegro 16.6-2015-S065*
G04 Origin Date:  Mon Jun 27 10:01:04 2016*
G04 *
G04 Layer:  PACKAGE GEOMETRY/SHORT_LAYER_TOP*
G04 Layer:  VIA CLASS/TOP*
G04 Layer:  PIN/TOP*
G04 Layer:  ETCH/TOP*
G04 Layer:  DRAWING FORMAT/FILM_TITLE_BLOCK*
G04 Layer:  BOARD GEOMETRY/OUTLINE*
G04 *
G04 Offset:    (0.00 0.00)*
G04 Mirror:    No*
G04 Mode:      Positive*
G04 Rotation:  0*
G04 FullContactRelief:  No*
G04 UndefLineWidth:     7.00*
G04 ================== end FILE IDENTIFICATION RECORD ====================*
%FSLAX55Y55*MOIN*%
%IR0*IPPOS*OFA0.00000B0.00000*MIA0B0*SFA1.00000B1.00000*%
%ADD33R,.07X.112*%
%ADD20C,.01*%
%ADD10C,.02*%
%ADD76R,.021X.008*%
%ADD63R,.107X.063*%
%ADD32C,.03*%
%ADD84R,.063X.107*%
%ADD72R,.081X.144*%
%ADD17C,.04*%
%ADD74R,.118X.063*%
%ADD70R,.025X.006*%
%ADD59R,.115X.075*%
%ADD94R,.075X.115*%
%ADD56C,.06*%
%ADD31O,.057X.136*%
%ADD25C,.024*%
%ADD14C,.025*%
%ADD30O,.057X.147*%
%ADD18C,.036*%
%ADD98C,.037*%
%AMMACRO64*
4,1,23,-.008,.0055,
.014,.0055,
.014,-.0055,
-.008,-.0055,
-.0085,-.0055,
-.009455,-.005416,
-.010381,-.005168,
-.01125,-.004763,
-.012035,-.004213,
-.012713,-.003535,
-.013263,-.00275,
-.013668,-.001881,
-.013916,-.000955,
-.014,0.0,
-.013916,.000955,
-.013668,.001881,
-.013263,.00275,
-.012713,.003535,
-.012035,.004213,
-.01125,.004763,
-.010381,.005168,
-.009455,.005416,
-.0085,.0055,
-.008,.0055,
0.0*
%
%ADD64MACRO64*%
%AMMACRO57*
4,1,23,-.0055,-.008,
-.0055,.014,
.0055,.014,
.0055,-.008,
.0055,-.0085,
.005416,-.009455,
.005168,-.010381,
.004763,-.01125,
.004213,-.012035,
.003535,-.012713,
.00275,-.013263,
.001881,-.013668,
.000955,-.013916,
0.0,-.014,
-.000955,-.013916,
-.001881,-.013668,
-.00275,-.013263,
-.003535,-.012713,
-.004213,-.012035,
-.004763,-.01125,
-.005168,-.010381,
-.005416,-.009455,
-.0055,-.0085,
-.0055,-.008,
0.0*
%
%ADD57MACRO57*%
%ADD13C,.055*%
%ADD71C,.038*%
%ADD11C,.065*%
%ADD65C,.066*%
%ADD51R,.06X.06*%
%ADD73R,.165X.079*%
%ADD27C,.059*%
%ADD91R,.036X.036*%
%ADD99R,.037X.037*%
%ADD34R,.055X.055*%
%ADD21C,.089*%
%ADD77R,.038X.038*%
%ADD12R,.065X.065*%
%ADD39R,.048X.048*%
%ADD22R,.066X.066*%
%ADD26R,.059X.059*%
%AMMACRO92*
4,1,22,.01782,-.028,
-.01782,-.028,
-.021237,-.027701,
-.024551,-.026813,
-.02766,-.025363,
-.03047,-.023396,
-.032896,-.02097,
-.034863,-.01816,
-.036313,-.015051,
-.037201,-.011737,
-.0375,-.00832,
-.0375,.028,
.0375,.028,
.0375,-.00832,
.037201,-.011737,
.036313,-.015051,
.034863,-.01816,
.032896,-.02097,
.03047,-.023396,
.02766,-.025363,
.024551,-.026813,
.021237,-.027701,
.01782,-.028,
0.0*
%
%ADD92MACRO92*%
%AMMACRO60*
4,1,22,.028,.01782,
.028,-.01782,
.027701,-.021237,
.026813,-.024551,
.025363,-.02766,
.023396,-.03047,
.02097,-.032896,
.01816,-.034863,
.015051,-.036313,
.011737,-.037201,
.00832,-.0375,
-.028,-.0375,
-.028,.0375,
.00832,.0375,
.011737,.037201,
.015051,.036313,
.01816,.034863,
.02097,.032896,
.023396,.03047,
.025363,.02766,
.026813,.024551,
.027701,.021237,
.028,.01782,
0.0*
%
%ADD60MACRO60*%
%ADD78R,.02X.012*%
%ADD47R,.114X.213*%
%ADD45O,.042X.05*%
%ADD93O,.05X.042*%
%ADD82R,.012X.06*%
%ADD79R,.023X.012*%
%ADD50O,.028X.011*%
%ADD49O,.011X.028*%
%ADD36O,.04X.07*%
%ADD83R,.06X.012*%
%ADD35R,.031X.033*%
%ADD67R,.011X.018*%
%ADD15R,.033X.031*%
%ADD66R,.018X.011*%
%ADD80R,.055X.04*%
%ADD68R,.018X.013*%
%ADD16O,.045X.035*%
%ADD40O,.035X.045*%
%ADD19R,.024X.063*%
%ADD87R,.08X.016*%
%ADD58R,.016X.054*%
%ADD38R,.063X.024*%
%ADD95R,.054X.016*%
%ADD75R,.032X.039*%
%ADD61R,.028X.033*%
%ADD41R,.039X.032*%
%ADD37R,.059X.03*%
%AMMACRO86*
21,1,.043,.075,0.0,0.0,45.*%
%ADD86MACRO86*%
%ADD52R,.039X.016*%
%ADD23R,.055X.036*%
%ADD48R,.103X.103*%
%ADD44R,.059X.051*%
%ADD28R,.036X.055*%
%ADD43R,.051X.059*%
%ADD90R,.028X.039*%
%ADD89R,.055X.047*%
%ADD62R,.039X.055*%
%ADD81R,.055X.048*%
%ADD55R,.142X.142*%
%ADD42R,.039X.028*%
%AMMACRO54*
4,1,23,.0055,.008,
.0055,-.014,
-.0055,-.014,
-.0055,.008,
-.0055,.0085,
-.005416,.009455,
-.005168,.010381,
-.004763,.01125,
-.004213,.012035,
-.003535,.012713,
-.00275,.013263,
-.001881,.013668,
-.000955,.013916,
0.0,.014,
.000955,.013916,
.001881,.013668,
.00275,.013263,
.003535,.012713,
.004213,.012035,
.004763,.01125,
.005168,.010381,
.005416,.009455,
.0055,.0085,
.0055,.008,
0.0*
%
%ADD54MACRO54*%
%ADD96R,.069X.081*%
%AMMACRO53*
4,1,23,.008,-.0055,
-.014,-.0055,
-.014,.0055,
.008,.0055,
.0085,.0055,
.009455,.005416,
.010381,.005168,
.01125,.004763,
.012035,.004213,
.012713,.003535,
.013263,.00275,
.013668,.001881,
.013916,.000955,
.014,0.0,
.013916,-.000955,
.013668,-.001881,
.013263,-.00275,
.012713,-.003535,
.012035,-.004213,
.01125,-.004763,
.010381,-.005168,
.009455,-.005416,
.0085,-.0055,
.008,-.0055,
0.0*
%
%ADD53MACRO53*%
%ADD24R,.055X.087*%
%ADD88R,.136X.136*%
%ADD29R,.087X.055*%
%ADD69R,.264X.264*%
%ADD85R,.268X.268*%
%AMMACRO46*
4,1,22,-.028,-.01782,
-.028,.01782,
-.027701,.021237,
-.026813,.024551,
-.025363,.02766,
-.023396,.03047,
-.02097,.032896,
-.01816,.034863,
-.015051,.036313,
-.011737,.037201,
-.00832,.0375,
.028,.0375,
.028,-.0375,
-.00832,-.0375,
-.011737,-.037201,
-.015051,-.036313,
-.01816,-.034863,
-.02097,-.032896,
-.023396,-.03047,
-.025363,-.02766,
-.026813,-.024551,
-.027701,-.021237,
-.028,-.01782,
0.0*
%
%ADD46MACRO46*%
%AMMACRO97*
4,1,22,-.01782,.028,
.01782,.028,
.021237,.027701,
.024551,.026813,
.02766,.025363,
.03047,.023396,
.032896,.02097,
.034863,.01816,
.036313,.015051,
.037201,.011737,
.0375,.00832,
.0375,-.028,
-.0375,-.028,
-.0375,.00832,
-.037201,.011737,
-.036313,.015051,
-.034863,.01816,
-.032896,.02097,
-.03047,.023396,
-.02766,.025363,
-.024551,.026813,
-.021237,.027701,
-.01782,.028,
0.0*
%
%ADD97MACRO97*%
%ADD100C,.011*%
%ADD101C,.022*%
%ADD102C,.05*%
%ADD103C,.015*%
%ADD104C,.035*%
%ADD105C,.005*%
%ADD106C,.007*%
%ADD107C,.006*%
%ADD108C,.008*%
%ADD109C,.0035*%
%ADD110C,.0065*%
%ADD120R,.08004X.12204*%
%ADD118O,.07304X.15204*%
%ADD125C,.03404*%
%ADD132R,.12802X.07302*%
%ADD128C,.04604*%
%ADD124C,.08204*%
%ADD115O,.06702X.15702*%
%ADD130R,.09104X.15404*%
%ADD116O,.06704X.14604*%
%ADD127C,.07604*%
%ADD131R,.17504X.08902*%
%ADD117C,.13004*%
%ADD114R,.07304X.03404*%
%ADD112R,.03404X.07304*%
%ADD121R,.04602X.06504*%
%ADD126R,.08204X.08204*%
%ADD129R,.27404X.27404*%
%ADD123R,.07504X.07504*%
%ADD119R,.05804X.05804*%
%ADD111R,.07604X.07604*%
%ADD122R,.09704X.06504*%
%ADD113R,.06504X.09704*%
G75*
%LPD*%
G75*
G36*
G01X-962Y134123D02*
G03Y141377I962J3627D01*
G02X-1590Y141860I-128J483D01*
G01Y143480D01*
X7620D01*
Y139510D01*
X7730Y139400D01*
X12788D01*
Y135396D01*
X19292D01*
Y139400D01*
X21670D01*
Y121880D01*
X21380Y121590D01*
X6390D01*
X5990Y121990D01*
Y132650D01*
X-1590D01*
Y133640D01*
G02X-962Y134123I500J0D01*
G37*
G36*
G01X30890Y4510D02*
Y19550D01*
X35000Y23660D01*
X44026D01*
G02X44460Y22911I0J-500D01*
G03X46385Y20335I1520J-871D01*
G02X47000Y19849I115J-486D01*
G01Y19290D01*
X46702D01*
X46658Y19308D01*
G03X44337Y17159I-648J-1628D01*
G02X43860Y16510I-477J-149D01*
G01X36060D01*
Y4510D01*
X30890D01*
G37*
G36*
G01X10180Y141780D02*
Y160450D01*
X12608D01*
Y155288D01*
X19512D01*
Y161852D01*
X21380Y163720D01*
X23056D01*
X23092Y163513D01*
G03X25310Y161648I2218J386D01*
G01X26310D01*
G03X28528Y163513I0J2251D01*
G01X28564Y163720D01*
X29140D01*
X29790Y163070D01*
X40700D01*
Y157690D01*
X31860D01*
X31136Y156966D01*
G02X30358Y157055I-354J353D01*
G03X27184Y155655I-1488J-925D01*
G02X26702Y155020I-482J-135D01*
G01X26108D01*
Y155329D01*
X26135Y155382D01*
G03X22893Y155664I-1565J788D01*
G02X22414Y155020I-479J-144D01*
G01X21790D01*
Y141780D01*
X10180D01*
G37*
G36*
G01X39500Y-32310D02*
Y-11670D01*
X39550Y-11620D01*
X41740D01*
X41890Y-11470D01*
Y15090D01*
X48650D01*
Y15599D01*
G02X49341Y16061I500J0D01*
G03Y19299I669J1619D01*
G02X48650Y19761I-191J462D01*
G01Y19947D01*
G02X49334Y20411I500J-1D01*
G03Y23669I646J1629D01*
G02X48650Y24133I-184J465D01*
G01Y25914D01*
G02X49321Y26384I500J0D01*
G03X50759Y29568I598J1647D01*
G02X50761Y30447I239J439D01*
G03X49323Y33634I-831J1543D01*
G02X48650Y34103I-173J469D01*
G01Y44540D01*
X48627Y44563D01*
G02X48804Y44990I177J177D01*
G01X85730D01*
Y54660D01*
X117630D01*
Y37100D01*
X61500D01*
Y33492D01*
X54408D01*
Y21288D01*
X61500D01*
Y-9140D01*
X89550D01*
Y-32310D01*
X39500D01*
G37*
G36*
G01X35900Y25760D02*
Y38830D01*
X47040D01*
Y34158D01*
G02X46405Y33676I-500J0D01*
G03X45091Y30452I-475J-1686D01*
G02X45089Y29573I-239J-439D01*
G03X46681Y26452I831J-1543D01*
G01X46733Y26477D01*
X47040D01*
Y25760D01*
X35900D01*
G37*
G36*
G01X63430Y36000D02*
X82540D01*
Y17970D01*
X89420D01*
Y7810D01*
X95290D01*
Y-6180D01*
X94620Y-6850D01*
X63430D01*
Y36000D01*
G37*
G36*
G01X85060Y21370D02*
Y32590D01*
X98080D01*
Y31242D01*
X95598D01*
Y23938D01*
X98080D01*
Y21370D01*
X85060D01*
G37*
G36*
G01X85920Y179293D02*
X81980D01*
Y192404D01*
X75180D01*
Y190020D01*
X75150Y190050D01*
X67400D01*
Y184970D01*
X67466Y184904D01*
X75180D01*
X77980D01*
Y174393D01*
X85920D01*
Y179293D01*
G37*
G36*
G01X116630Y-23560D02*
Y-18122D01*
X124868D01*
Y4182D01*
X116630D01*
Y8700D01*
X96430D01*
Y18310D01*
X99550D01*
Y32670D01*
X105020D01*
Y19940D01*
X128330D01*
Y-23560D01*
X116630D01*
G37*
G36*
G01X103440Y179293D02*
X107380D01*
Y192404D01*
X114180D01*
Y184904D01*
X111380D01*
Y174393D01*
X103440D01*
Y179293D01*
G37*
G36*
G01X144850Y-23640D02*
X144740Y-23530D01*
Y27130D01*
X144520Y27350D01*
X125597D01*
G02X125156Y28085I0J500D01*
G03X123058Y30573I-1546J825D01*
G02X122400Y31047I-158J474D01*
G01Y34340D01*
X143030D01*
Y51086D01*
G02X143686Y51561I500J0D01*
G03X146642Y53700I704J2139D01*
G01Y54700D01*
G03X143686Y56839I-2252J0D01*
G02X143030Y57314I-156J475D01*
G01Y57980D01*
X148521D01*
X148546Y57975D01*
G03X149214I334J1669D01*
G01X149239Y57980D01*
X152570D01*
Y50860D01*
X154310Y49120D01*
Y39690D01*
X158950D01*
Y4182D01*
X150652D01*
Y-18122D01*
X158950D01*
Y-23640D01*
X144850D01*
G37*
G36*
G01X203599Y-6845D02*
G03X206432Y-4670I582J2175D01*
G01Y-3670D01*
G03X203316Y-1591I-2252J0D01*
G01X203270Y-1610D01*
X202970D01*
Y-1300D01*
X199171D01*
X199084Y-1284D01*
X199083D01*
G03X197277I-903J-2386D01*
G01X197234Y-1300D01*
X184850D01*
Y1428D01*
X193722D01*
Y15920D01*
X196180D01*
Y10427D01*
G03Y8433I1620J-997D01*
G01Y4400D01*
X219830D01*
X220170Y4060D01*
Y-9740D01*
X220280Y-9850D01*
X309060D01*
X311921Y-12711D01*
G03X318737Y-17230I3229J-2530D01*
G01X321563D01*
G03X328737I3587J1990D01*
G01X331563D01*
G03X337491Y-11871I3587J1990D01*
G02X337423Y-11107I285J410D01*
G01X345610Y-2920D01*
X433900D01*
Y41250D01*
X433790Y41360D01*
Y52160D01*
X441340Y59710D01*
Y64820D01*
X447670D01*
Y51230D01*
X440840Y44400D01*
Y4460D01*
X446620Y-1320D01*
X450110Y-5027D01*
Y-27340D01*
X444570Y-32880D01*
X163040D01*
X162750Y-32590D01*
Y-19650D01*
X200280D01*
Y-7840D01*
X202940D01*
X202970Y-7870D01*
Y-7328D01*
G02X203599Y-6845I500J0D01*
G37*
G36*
G01X165970Y-16240D02*
Y7180D01*
X166459D01*
G02X166946Y6567I0J-500D01*
G03X169140Y3808I2194J-507D01*
G01X170140D01*
G03X172334Y6567I0J2252D01*
G02X172821Y7180I487J113D01*
G01X175959D01*
G02X176446Y6567I0J-500D01*
G03X178640Y3808I2194J-507D01*
G01X179640D01*
G03X181834Y6567I0J2252D01*
G02X182321Y7180I487J113D01*
G01X183050D01*
Y-3470D01*
X187375D01*
G02X187873Y-4008I-1J-500D01*
G03X189807Y-5882I1747J-132D01*
G02X190360Y-6379I53J-497D01*
G01Y-16240D01*
X189423D01*
G02X188926Y-15682I0J500D01*
G03X181374I-3776J442D01*
G02X180877Y-16240I-497J-58D01*
G01X179252D01*
Y-11138D01*
X171048D01*
Y-16240D01*
X165970D01*
G37*
G36*
G01X156580Y42960D02*
Y52993D01*
G03Y53147I-1700J77D01*
G01Y58650D01*
X154680Y60550D01*
Y85040D01*
X154710Y85070D01*
X193340D01*
Y65830D01*
G03Y63810I1370J-1010D01*
G01Y49830D01*
X184740D01*
Y42960D01*
X181141D01*
X181140Y43379D01*
X181215Y43452D01*
G03X179639Y47312I-1576J1608D01*
G01X178639D01*
G03X177063Y43452I0J-2252D01*
G01X177138Y43378D01*
Y42960D01*
X171642D01*
Y43379D01*
X171716Y43453D01*
G03X170140Y47312I-1576J1608D01*
G01X169140D01*
G03X167564Y43453I0J-2251D01*
G01X167638Y43379D01*
Y42960D01*
X156580D01*
G37*
G36*
G01X175330Y10590D02*
Y25200D01*
X176036D01*
G02X176510Y24538I1J-500D01*
G03X178640Y21558I2130J-729D01*
G01X179640D01*
G03X181770Y24538I0J2251D01*
G02X182244Y25200I473J162D01*
G01X182280D01*
Y40790D01*
X186209D01*
G02X186656Y40066I0J-500D01*
G03X188670Y36808I2014J-1007D01*
G01X189670D01*
G03X191684Y40066I0J2251D01*
G02X192131Y40790I447J224D01*
G01X219790D01*
Y28290D01*
X212545D01*
G03X209735I-1405J-960D01*
G01X197220D01*
Y17750D01*
X183422D01*
G02X182662Y17417I-492J89D01*
G03X180313Y15068I-912J-1437D01*
G02X179845Y14302I-422J-268D01*
G03X179640Y14312I-212J-2242D01*
G01X178640D01*
G03X176533Y11266I0J-2252D01*
G02X176065Y10590I-468J-176D01*
G01X175330D01*
G37*
G36*
G01X182215D02*
G02X181747Y11266I0J500D01*
G03X181398Y13466I-2107J793D01*
G02X181780Y14278I391J312D01*
G03X182662Y14543I-31J1702D01*
G02X183430Y14121I268J-422D01*
G01Y10590D01*
X182215D01*
G37*
G36*
G01X222000Y26920D02*
Y42400D01*
X219400D01*
G02X218900Y42877I0J500D01*
G03X215500I-1700J-77D01*
G02X215000Y42400I-500J23D01*
G01X208910D01*
G02X208410Y42877I0J500D01*
G03X205010I-1700J-77D01*
G02X204510Y42400I-500J23D01*
G01X202910D01*
G02X202410Y42877I0J500D01*
G03X199010I-1700J-77D01*
G02X198510Y42400I-500J23D01*
G01X191172D01*
Y43381D01*
G03X189670Y47310I-1502J1677D01*
G01X188670D01*
G03X187033Y46605I-1J-2251D01*
G02X186170Y46949I-363J344D01*
G01Y48280D01*
X218480D01*
X218509Y48273D01*
G03X219731I611J2477D01*
G01X219760Y48280D01*
X224480D01*
X224509Y48273D01*
G03X225731I611J2477D01*
G01X225760Y48280D01*
X242470D01*
Y26920D01*
X222000D01*
G37*
G36*
G01X195500Y50240D02*
X195420Y50320D01*
Y57510D01*
X197694D01*
Y53124D01*
X210496D01*
Y57510D01*
X216971D01*
G02X217450Y56868I0J-500D01*
G03X219908Y54800I1680J-498D01*
G02X220630Y54352I222J-448D01*
G01Y54309D01*
G02X219946Y53844I-500J0D01*
G03X216868Y51750I-827J-2094D01*
G01Y50750D01*
G03X216869Y50742I2218J273D01*
G02X216369Y50240I-500J-2D01*
G01X195500D01*
G37*
G36*
G01X221381Y67740D02*
X232210D01*
Y62871D01*
G02X231959Y62621I-250J0D01*
G03X231950Y62622I-252J-2224D01*
G01X230950D01*
G03X228764Y59830I0J-2252D01*
G02X228279Y59210I-485J-120D01*
G01X221283D01*
G02X220805Y59857I0J500D01*
G03X217455I-1675J513D01*
G02X216977Y59210I-478J-147D01*
G01X211930D01*
Y64080D01*
X196420D01*
Y80170D01*
X216380D01*
Y67740D01*
X216879D01*
G02X217379Y67222I0J-500D01*
G03X220881I1751J-62D01*
G02X221381Y67740I500J18D01*
G37*
G36*
G01X226940Y5700D02*
Y15280D01*
X220500D01*
Y6340D01*
X216748D01*
Y12682D01*
X207044D01*
Y6340D01*
X205680D01*
Y15426D01*
X216292D01*
Y24328D01*
X205680D01*
Y25710D01*
X210617D01*
X210652Y25699D01*
G03X211628I488J1631D01*
G01X211663Y25710D01*
X232480D01*
Y5700D01*
X226940D01*
G37*
G36*
G01X276990D02*
Y6914D01*
G02X277249Y7666I416J277D01*
G03X278277Y10092I-549J1664D01*
G02X278728Y10810I450J218D01*
G01X279991D01*
G02X280442Y10093I1J-500D01*
G03X282198Y7589I1578J-761D01*
G01X282316Y7601D01*
X282577Y7340D01*
X282268Y7032D01*
Y6978D01*
X281650Y6360D01*
Y5700D01*
X276990D01*
G37*
G36*
G01X320670Y94250D02*
Y87110D01*
X322960Y84820D01*
Y66090D01*
X280240D01*
X279870Y66460D01*
Y78790D01*
X283880Y82800D01*
Y83605D01*
G03Y85915I-1250J1155D01*
G01Y86620D01*
X280080Y90420D01*
Y94250D01*
X320670D01*
G37*
G36*
G01X430302Y103050D02*
X429284Y104068D01*
G02X429299Y104789I353J353D01*
G03X429764Y105420I-1389J1511D01*
G03X430121Y105445I146J480D01*
G02X430436Y105353I105J-227D01*
G03Y107247I1474J947D01*
G02X430121Y107155I-210J135D01*
G03X429764Y107180I-211J-455D01*
G03X429371Y107741I-1854J-880D01*
G02X429373Y108446I355J351D01*
G01X430226Y109299D01*
Y109748D01*
X432750D01*
Y116052D01*
X432450D01*
Y122052D01*
X425948D01*
Y116052D01*
X425648D01*
Y109748D01*
X426565D01*
G02X426918Y108895I0J-500D01*
G01X426884Y108860D01*
Y108077D01*
G03X426278Y107544I1026J-1777D01*
G02X425527Y107493I-398J303D01*
G01X424830Y108190D01*
Y122210D01*
X425035Y122415D01*
X425046Y122423D01*
G03X425357Y122734I-1216J1527D01*
G01X425365Y122745D01*
X427240Y124620D01*
X440950D01*
X441490Y124080D01*
Y122352D01*
X434310D01*
Y116048D01*
X434610D01*
Y110048D01*
X440674D01*
Y108017D01*
G03X439846Y107120I1026J-1777D01*
G03X439489Y107095I-146J-480D01*
G02X439174Y107187I-105J227D01*
G03Y105293I-1474J-947D01*
G02X439489Y105385I210J-135D01*
G03X439846Y105360I211J455D01*
G03X440216Y104823I1853J881D01*
G02X440208Y104124I-361J-345D01*
G01X439134Y103050D01*
X437960D01*
G03X434940I-1510J-1390D01*
G01X433960D01*
G03X431010Y103122I-1510J-1390D01*
G01X430937Y103050D01*
X430302D01*
G37*
G36*
G01X469733Y70751D02*
Y66811D01*
X482844D01*
Y60011D01*
X475344D01*
Y62811D01*
X468620D01*
Y58230D01*
X468490Y58100D01*
X458120D01*
Y65030D01*
X458180Y65090D01*
X464733D01*
X464833Y65190D01*
Y70751D01*
X469733D01*
G37*
G36*
G01Y88271D02*
Y92211D01*
X482844D01*
Y99011D01*
X475344D01*
Y96211D01*
X464833D01*
Y88271D01*
X469733D01*
G37*
%LPC*%
G75*
G36*
G01X359772Y-19299D02*
G02X358393Y-20105I69J-1701D01*
G03X357967Y-19342I-425J263D01*
G01X351048D01*
Y-11377D01*
X350874Y-11322D01*
G02X352930Y-10425I516J1622D01*
G03X353382Y-11138I452J-213D01*
G01X359252D01*
Y-18800D01*
G03X359772Y-19299I500J0D01*
G37*
G36*
G01X388267Y-11639D02*
G03X388134Y-12426I231J-444D01*
G02X385318Y-11141I-2985J-2814D01*
G03X385825Y-10526I21J499D01*
G02X388267Y-11639I1655J396D01*
G37*
G54D120*
X69410Y27390D03*
G54D118*
X69484Y5820D03*
G54D125*
X440430Y-29570D03*
X348750Y-13350D03*
X315033Y82283D03*
G54D132*
X204095Y74885D03*
G54D128*
X161740Y46550D03*
G54D124*
X445150Y-15240D03*
X435150D03*
X445150Y-25240D03*
X435150D03*
X425150Y-15240D03*
X415150D03*
X405150D03*
X425150Y-25240D03*
X415150D03*
X405150D03*
X375150Y-15240D03*
X395150D03*
Y-25240D03*
X385150D03*
X375150D03*
X365150Y-15240D03*
Y-25240D03*
X355150D03*
X325150D03*
X335150D03*
X295150Y-15240D03*
X305150D03*
X295150Y-25240D03*
X305150D03*
X315150D03*
X275150Y-15240D03*
X285150D03*
X265150Y-25240D03*
X275150D03*
X285150D03*
X175150D03*
X185150D03*
X195150D03*
X205150D03*
X215150D03*
X225150D03*
X235150D03*
X245150D03*
X205150Y-15240D03*
X225150D03*
X235150D03*
X245150D03*
G54D115*
X84445Y-22920D03*
X45469D03*
G54D130*
X189170Y27610D03*
G54D116*
X49012Y5820D03*
X82870D03*
G54D127*
X215150Y-15240D03*
G54D131*
X207540Y34863D03*
G54D117*
X69878Y-18983D03*
G54D114*
X35790Y160550D03*
G54D112*
X33430Y9220D03*
X97300Y48850D03*
X102300D03*
X107300D03*
X112300D03*
X38430Y30480D03*
X102300Y27590D03*
X229690Y31670D03*
X224690D03*
X239690D03*
X234690D03*
X229690Y10410D03*
G54D121*
X92397Y2010D03*
G54D126*
X265150Y-15240D03*
G54D129*
X173200Y65830D03*
G54D123*
X148140Y41700D03*
G54D119*
X78268Y27640D03*
X89292D03*
X213666Y-1970D03*
G54D111*
X16060Y127740D03*
G54D122*
X102436Y13510D03*
G54D113*
X16040Y147736D03*
%LPD*%
G75*
G54D100*
G01X98310Y145750D02*
X102470D01*
X102845Y145375D01*
X105120D01*
G54D110*
G01X23731Y-22750D02*
X26934D01*
X26954Y-22730D01*
X29030D01*
G01X23731Y-14080D02*
X29030D01*
G01X23430Y9220D02*
Y2564D01*
X24914Y1080D01*
X27990D01*
G01X9312Y38130D02*
Y53928D01*
G01X29590Y188790D02*
X33491D01*
X33509Y188772D01*
X37285D01*
G01X38430Y9220D02*
Y2704D01*
X36806Y1080D01*
X33730D01*
G01X47580Y86330D02*
X63870D01*
X66870Y83330D01*
X75210D01*
G01Y77330D02*
X67790D01*
X61790Y71330D01*
X57580D01*
G01X37285Y129231D02*
Y136338D01*
G01X55395D02*
X60460D01*
G01X37285D02*
X55395D01*
G01X57050Y155550D02*
X62150D01*
X64150Y153550D01*
X64650D01*
G01X57050Y170550D02*
X62050D01*
X64150Y172650D01*
X64650D01*
G01X55395Y188772D02*
X62130D01*
G01X37285D02*
X55395D01*
G01X80040Y59470D02*
Y55586D01*
X80050Y55576D01*
Y53500D01*
G01X80040Y65810D02*
Y59470D01*
G01X86480Y77290D02*
X80290D01*
G01X75210Y77330D02*
X80250D01*
X80290Y77290D01*
G01X86480Y83300D02*
X80360D01*
G01X75210Y83330D02*
X80330D01*
X80360Y83300D01*
G01X87690Y101100D02*
X90749D01*
X90759Y101090D01*
G01X71470Y112809D02*
X77170D01*
G01X90759Y109920D02*
X84320D01*
G01X81070Y99990D02*
Y93740D01*
G01Y105310D02*
Y99990D01*
G01X73440Y124700D02*
X77140D01*
X77170Y124730D01*
G01D02*
Y118911D01*
G01X83470Y124730D02*
X91940D01*
G01X80534Y147040D02*
X84250D01*
X84300Y147090D01*
G01D02*
Y150160D01*
X84090Y150370D01*
G01X68560Y154690D02*
X71790D01*
X71830Y154650D01*
G01X64650Y159550D02*
X68790D01*
G01X64650Y166650D02*
X68930D01*
G01X62130Y188772D02*
X65230D01*
G01X119610Y24810D02*
X117090Y22290D01*
X108624D01*
X107300Y23614D01*
Y27590D01*
G01X109910Y89350D02*
X112474D01*
X113087Y88737D01*
Y86511D01*
G01X93950Y72344D02*
X90550D01*
G01X94130Y79794D02*
Y76094D01*
G01D02*
X91224D01*
X90720Y75590D01*
G01X116620Y63550D02*
X115056Y65114D01*
Y71109D01*
G01X110190Y67440D02*
X111119Y68369D01*
Y71109D01*
G01X94000Y68474D02*
X90774D01*
G01X98130Y87194D02*
X102576D01*
X106039Y83731D01*
X108339D01*
G01X114993Y60350D02*
X93080D01*
G01X113087Y71109D02*
Y65830D01*
G01X108339Y75857D02*
X107016D01*
X104950Y73791D01*
Y71460D01*
X101964Y68474D01*
X98000D01*
G01X108339Y73889D02*
Y70959D01*
G01X113910Y90970D02*
X115056Y89824D01*
Y86511D01*
G01X105910Y93970D02*
Y88874D01*
X108273Y86511D01*
X111119D01*
G01X94130Y87194D02*
Y90894D01*
G01X108339Y77826D02*
X106194D01*
X100712Y72344D01*
X97950D01*
G01X98130Y79794D02*
X108339D01*
G01X109910Y93970D02*
Y89350D01*
G01X94130Y90894D02*
X90776D01*
G01X97901Y112479D02*
X100713D01*
X100754Y112520D01*
X103830D01*
G01Y118520D02*
X108180D01*
X113600Y113100D01*
G01X90759Y101090D02*
Y109920D01*
G01X101910Y97970D02*
Y101300D01*
G01X105910Y97970D02*
X101910D01*
G01X113910Y93970D02*
Y90970D01*
G01X115555Y136910D02*
Y133430D01*
G01X113585Y136910D02*
Y130820D01*
G01X97940Y118520D02*
X103830D01*
G01X103810Y124730D02*
X107520D01*
G01X97940D02*
X103810D01*
G01X91940D02*
Y118520D01*
G01X115555Y155810D02*
Y158960D01*
G01X113585Y155810D02*
Y163360D01*
G01X109645Y155810D02*
Y159515D01*
G01X107675Y155810D02*
Y161720D01*
G01X111615Y155810D02*
Y161410D01*
G01X103560Y168460D02*
X100890D01*
X97239Y172111D01*
Y178122D01*
G01X119610Y24810D02*
Y28910D01*
G01X120961Y71109D02*
Y67790D01*
G01X118993Y71109D02*
Y60350D01*
G01X118910Y95400D02*
Y92000D01*
X117024Y90114D01*
Y86511D01*
G01X132040Y92890D02*
X129280D01*
X125950Y89560D01*
X119816D01*
X118993Y88737D01*
Y86511D01*
G01X144220Y86239D02*
Y87039D01*
X141059Y90200D01*
X133470D01*
X131980Y88710D01*
G01D02*
X129045D01*
X126846Y86511D01*
X120961D01*
G01X118910Y95400D02*
Y102470D01*
G01X132040Y92890D02*
X134051Y94901D01*
X137920D01*
G01X124330Y128780D02*
X121465Y131645D01*
Y136910D01*
G01X120860Y128730D02*
X119495Y130095D01*
Y136910D01*
G01X117525D02*
Y131310D01*
G01X124020Y143405D02*
X127610D01*
G01X133944Y142721D02*
X132476Y144189D01*
X131243D01*
X128489Y141435D01*
X124020D01*
G01X131196Y133836D02*
X136531D01*
X136584Y133783D01*
X143260D01*
G01Y141657D02*
X135008D01*
X133944Y142721D01*
G01X124020Y139465D02*
Y138089D01*
X128273Y133836D01*
X131196D01*
G01X117525Y155810D02*
Y163280D01*
G01X139150Y164890D02*
Y174760D01*
G01X141802Y155603D02*
X144520D01*
G01X121465Y155810D02*
Y159040D01*
G01X124020Y160250D02*
Y153255D01*
G01X133480Y155870D02*
X135280Y157670D01*
X137078D01*
G01X124020Y151285D02*
X126998D01*
X130390Y154677D01*
Y156840D01*
X133189Y159639D01*
X137078D01*
G01X119495Y155810D02*
Y161350D01*
G01X141802Y159639D02*
X144490D01*
G01X124020Y149315D02*
X128249D01*
X128264Y149300D01*
X130590D01*
G01X135939D02*
X130590D01*
G01X147420D02*
X142041D01*
G01X124020Y145375D02*
X129485D01*
X129750Y145640D01*
G01X124020Y147345D02*
X127160D01*
G01X162090Y123910D02*
X155440D01*
X153830Y122300D01*
Y119650D01*
X150520Y116340D01*
Y105600D01*
X152210Y103910D01*
X172030D01*
X176760Y99180D01*
G01X170444Y122532D02*
Y119212D01*
X171900Y117756D01*
Y115930D01*
G01X156760Y88040D02*
Y99180D01*
G01X161120Y140660D02*
Y131070D01*
G01D02*
X153550D01*
G01X144520Y127830D02*
X161964D01*
X165114Y130980D01*
X167190D01*
G01X167196Y125288D02*
Y126414D01*
X167190Y126420D01*
Y130980D01*
G01X167196Y123910D02*
X162090D01*
G01X154677Y159639D02*
Y161930D01*
G01X149150Y174760D02*
Y164890D01*
G01X159401Y159639D02*
X160809D01*
X162750Y161580D01*
G01D02*
X164691Y159639D01*
X165330D01*
G01X168600Y159640D02*
X168601Y159639D01*
X171377D01*
G01X150920Y161770D02*
Y159564D01*
X152814Y157670D01*
X154677D01*
G01X168510Y153640D02*
Y156529D01*
X169651Y157670D01*
X171377D01*
G01X160360Y152020D02*
Y152540D01*
X159401Y153499D01*
Y155603D01*
G01X162290Y156740D02*
X161360Y157670D01*
X159401D01*
G01X144490Y159639D02*
X147550D01*
G01X193490Y92920D02*
X229380D01*
X238428Y101968D01*
X248632D01*
G01X176760Y109180D02*
Y120840D01*
G01X195161Y138171D02*
X189170D01*
G01X197799Y139549D02*
X199579D01*
X201060Y141030D01*
G01X197799Y136793D02*
Y133880D01*
G01D02*
X201860D01*
G01X180790Y127130D02*
X176770D01*
X176760Y127140D01*
G01X184450D02*
Y132120D01*
G01X187660Y141500D02*
X190740D01*
G01X176760Y127140D02*
Y131540D01*
X186720Y141500D01*
X187660D01*
G01X195161Y139549D02*
X192691D01*
X190740Y141500D01*
G01D02*
X193960D01*
X194533Y140927D01*
X195161D01*
G01X197799Y138171D02*
X201320D01*
G01X176760Y120840D02*
X184450D01*
G01X197070Y151530D02*
X189760D01*
X187494Y153796D01*
Y155970D01*
G01X176101Y157670D02*
X178910D01*
G01X184502Y153570D02*
Y155970D01*
G01X190680Y157939D02*
X193639D01*
X193650Y157950D01*
G01X187494Y157939D02*
X190680D01*
G01X184820Y149080D02*
X196280D01*
X200880Y144480D01*
X207844D01*
X209114Y145750D01*
X215761D01*
G01X186830Y151280D02*
X177970D01*
X176101Y153149D01*
Y155603D01*
G01X200656Y155970D02*
Y149760D01*
G01X248632Y60629D02*
X244090D01*
X241600Y58139D01*
Y54080D01*
X238770Y51250D01*
X225120D01*
G01X226600Y82550D02*
X236450D01*
G01X248632Y90157D02*
X226400D01*
G01X216760Y120840D02*
Y109180D01*
G01X206760Y120840D02*
Y109180D01*
G01X221570Y142080D02*
Y140844D01*
X220275Y139549D01*
X218399D01*
G01Y136793D02*
Y132670D01*
G01D02*
X221850D01*
G01X218399Y138171D02*
X221651D01*
X221670Y138190D01*
G01X215761Y140927D02*
Y145750D01*
G01X212880Y142171D02*
Y140345D01*
X213676Y139549D01*
X215761D01*
G01X212725Y137495D02*
X213401Y138171D01*
X215761D01*
G01X201320D02*
X205880Y138169D01*
G01X209850Y142171D02*
X212880D01*
G01X224660Y138150D02*
X221710D01*
X221670Y138190D01*
G01X216760Y120840D02*
X221670D01*
G01X209280Y152450D02*
X205901D01*
X204771Y153580D01*
X203648D01*
G01X215280Y152450D02*
X217873D01*
X219653Y150670D01*
X223229D01*
G01X203648Y155970D02*
Y153580D01*
G01Y157939D02*
X206570D01*
G01X256309Y29330D02*
Y24550D01*
G01X248632Y46850D02*
X255910D01*
G01X248632Y44881D02*
X253820D01*
G01X310230Y41370D02*
X308550Y43050D01*
X260590D01*
X256516Y38976D01*
X248632D01*
G01Y37007D02*
X257867D01*
X262020Y41160D01*
X295700D01*
X298050Y38810D01*
X312210D01*
G01X248632Y48818D02*
X258552D01*
G01X248632Y50787D02*
X253553D01*
G01X248632Y52755D02*
X257565D01*
G01X248632Y54724D02*
X253580D01*
G01X248632Y56692D02*
X256568D01*
G01X248632Y58661D02*
X253659D01*
G01X248632Y42913D02*
X255930D01*
G01X248632Y40944D02*
X253620D01*
G01X282630Y84760D02*
X271910D01*
X269433Y82283D01*
X248632D01*
G01Y76377D02*
X254153D01*
G01X248632Y74409D02*
X270450D01*
G01X248632Y66535D02*
X244211D01*
X243426Y67320D01*
X241600D01*
G01X248632Y84251D02*
X266021D01*
X277690Y95920D01*
X309410D01*
X311490Y98000D01*
G01X248632Y80314D02*
X277250D01*
G01X248632Y78346D02*
X274930D01*
G01X235570Y88030D02*
X239950D01*
X241760Y86220D01*
X248632D01*
G01Y72440D02*
X243530D01*
X242070Y73900D01*
Y76930D01*
X236450Y82550D01*
G01X248632Y103936D02*
X233846D01*
X231630Y101720D01*
G01X248632Y115747D02*
X253457D01*
X255680Y117970D01*
Y124940D01*
X250246Y130374D01*
Y144320D01*
G01X248632Y113779D02*
X260700D01*
G01X248632Y105905D02*
X254520D01*
G01X305100Y98070D02*
X275520D01*
X265638Y88188D01*
X248632D01*
G01X271400Y98020D02*
X265505Y92125D01*
X248632D01*
G01Y98031D02*
X258510D01*
G01X267900Y98020D02*
X263974Y94094D01*
X248632D01*
G01Y96062D02*
X260982D01*
X262860Y97940D01*
G01X248632Y99999D02*
X255700D01*
G01X248632Y107873D02*
X233577D01*
X231630Y109820D01*
G01X231891Y132080D02*
Y137379D01*
G01Y146880D02*
Y143481D01*
G01X250246Y154320D02*
X246221Y150295D01*
Y129949D01*
X253580Y122590D01*
Y118838D01*
X252458Y117716D01*
X248632D01*
G01X256309Y129330D02*
Y134480D01*
G01X248632Y121653D02*
X243090D01*
G01X250720Y159730D02*
X254820Y155630D01*
Y142190D01*
X258278Y138732D01*
Y129330D01*
G01X248632Y119684D02*
X237080D01*
G01X250690Y164170D02*
X257891D01*
X266850Y155211D01*
Y142190D01*
X264183Y139523D01*
Y129330D01*
G01X231891Y150670D02*
Y146880D01*
G01X286020Y9332D02*
X283295Y6607D01*
Y-520D01*
G01X272700Y9330D02*
X275383Y6647D01*
X275421Y-520D01*
G01X260175Y14785D02*
X258278Y16682D01*
Y29330D01*
G01X260246D02*
Y18220D01*
G01X262215Y29330D02*
Y22570D01*
G01X270089Y29330D02*
Y39220D01*
G01X266152Y37130D02*
Y29330D01*
G01X264183D02*
Y39080D01*
G01X268120Y29330D02*
Y34710D01*
G01X272057Y29330D02*
Y34927D01*
G01X277963Y13050D02*
X274344D01*
X272700Y11406D01*
Y9330D01*
G01X286020Y9332D02*
Y11408D01*
X284378Y13050D01*
X281963D01*
G01X281900Y29330D02*
Y24978D01*
X280590Y23668D01*
Y16416D01*
X281980Y15026D01*
X281963Y13050D01*
G01X277963Y29330D02*
Y13050D01*
G01X279410Y45030D02*
X321770D01*
X325856Y40944D01*
X348632D01*
G01X283650Y52060D02*
X323980D01*
X325253Y50787D01*
X348632D01*
G01X270330Y56320D02*
X272340Y54310D01*
X335809D01*
X342128Y60629D01*
X348632D01*
G01X268080Y62600D02*
X274190Y56490D01*
X334850D01*
X342926Y64566D01*
X348632D01*
G01X260940Y65480D02*
X269950D01*
X276790Y58640D01*
X333640D01*
X343503Y68503D01*
X348632D01*
G01X258710Y69270D02*
X270100D01*
X278090Y61280D01*
X332410D01*
X343570Y72440D01*
X348632D01*
G01Y74409D02*
X342008D01*
X330969Y63370D01*
X280900D01*
G01X281730Y114560D02*
X277963Y118327D01*
Y129330D01*
G01X270089D02*
Y138519D01*
X272261Y140691D01*
Y158711D01*
X275200Y161650D01*
G01X262215Y129330D02*
Y139925D01*
X264902Y142612D01*
Y149664D01*
X260246Y154320D01*
G01Y129330D02*
Y144320D01*
G01X281900Y129330D02*
Y123560D01*
G01X262970Y168570D02*
Y166030D01*
X270270Y158730D01*
Y140930D01*
X268120Y138780D01*
Y129330D01*
G01X281920Y153950D02*
X284090Y151780D01*
Y138840D01*
X285837Y137093D01*
Y129330D01*
G01X281920Y150700D02*
Y137620D01*
X283868Y135672D01*
Y129330D01*
G01X277320Y168457D02*
Y154041D01*
X274260Y150981D01*
Y140254D01*
X272057Y138051D01*
Y129330D01*
G01X263040Y161880D02*
X268500Y156420D01*
Y141310D01*
X266152Y138962D01*
Y129330D01*
G01X277075Y143955D02*
X279931Y141099D01*
Y129330D01*
G01X274100Y137180D02*
X275994Y135286D01*
Y129330D01*
G01X274026D02*
Y134150D01*
G01X415150Y174760D02*
X410250Y179660D01*
Y186640D01*
X407880Y189010D01*
X282200D01*
X279940Y186750D01*
Y181600D01*
X277980Y179640D01*
X267530D01*
G01X312230Y-4990D02*
Y14740D01*
X307490Y19480D01*
Y29330D01*
G01X299406Y1876D02*
Y4002D01*
X294676Y8732D01*
G01X299616Y29330D02*
Y23966D01*
X298130Y22480D01*
G01X297648Y29330D02*
Y36450D01*
G01X303553Y29330D02*
Y34110D01*
G01X301585Y29330D02*
Y22480D01*
G01X295679Y29330D02*
Y34191D01*
G01X289774Y29330D02*
Y38890D01*
G01X293711Y29330D02*
Y37020D01*
G01X291742Y29330D02*
Y34350D01*
G01X305522Y29330D02*
Y19810D01*
G01X319090Y10080D02*
Y17550D01*
X313396Y23244D01*
Y29330D01*
G01X316670Y3510D02*
Y17030D01*
X311427Y22273D01*
Y29330D01*
G01X314470Y-860D02*
Y16550D01*
X309459Y21561D01*
Y29330D01*
G01X308532Y10834D02*
X306456D01*
X305608Y11682D01*
Y11720D01*
X301636Y15692D01*
G01X293891Y19291D02*
X298037D01*
X301636Y15692D01*
G01X291063Y16463D02*
Y12345D01*
X294676Y8732D01*
G01X287805Y29330D02*
Y25377D01*
X293891Y19291D01*
G01X291063Y16463D02*
X286360Y21166D01*
Y24152D01*
X285837Y24675D01*
Y29330D01*
G01X301580Y49880D02*
X322700D01*
X327699Y44881D01*
X348632D01*
G01X286050Y47480D02*
X321990D01*
X326557Y42913D01*
X348632D01*
G01X291742Y129330D02*
Y116220D01*
G01X309459Y129330D02*
Y106400D01*
G01X315150Y174760D02*
Y147990D01*
X313396Y146236D01*
Y129330D01*
G01X290720Y145840D02*
X296490D01*
X299960Y142370D01*
Y136600D01*
X301585Y134975D01*
Y129330D01*
G01X295679D02*
Y123331D01*
X297160Y121850D01*
G01X293711Y129330D02*
Y119290D01*
G01X299616Y129330D02*
Y124210D01*
G01X311427Y129330D02*
Y117760D01*
G01X289774Y129330D02*
Y137150D01*
G01X288440Y179200D02*
X289760Y177880D01*
Y170170D01*
X286180Y166590D01*
Y139660D01*
X287805Y138035D01*
Y129330D01*
G01X297640Y139710D02*
Y133164D01*
X297648Y133156D01*
Y129330D01*
G01X290720Y155160D02*
Y145840D01*
G01X305150Y184760D02*
X300037Y179647D01*
Y168457D01*
G01X325150Y-15240D02*
Y-10920D01*
X321420Y-7190D01*
Y19170D01*
X317333Y23257D01*
Y29330D01*
G01X325207Y-2990D02*
Y29330D01*
G01X325905Y-7145D02*
X324520Y-5760D01*
X324470D01*
X323238Y-4528D01*
Y29330D01*
G01X329144D02*
Y16366D01*
X331080Y14430D01*
Y1250D01*
G01X331112Y29330D02*
Y18008D01*
X333320Y15800D01*
Y-2750D01*
G01X333081Y29330D02*
Y19599D01*
X335830Y16850D01*
Y-7370D01*
G01X321270Y29330D02*
Y34350D01*
G01X346180Y13040D02*
Y21705D01*
X340955Y26930D01*
Y29330D01*
G01X315364D02*
Y38664D01*
X319390Y42690D01*
G01X319301Y29330D02*
Y38371D01*
G01X327175Y29330D02*
Y13635D01*
X328800Y12010D01*
Y5470D01*
G01X338986Y29330D02*
Y24596D01*
G01X337018Y84210D02*
Y129330D01*
G01X333081D02*
Y77105D01*
G01X329144Y129330D02*
Y65300D01*
G01X327175Y129330D02*
Y67450D01*
G01X325207Y129330D02*
Y71310D01*
G01X333550D02*
X340590Y78350D01*
Y86540D01*
X342238Y88188D01*
X348632D01*
G01X335049Y129330D02*
Y80380D01*
G01X331112Y129330D02*
Y73340D01*
G01X323238Y129330D02*
Y90140D01*
G01X321270Y101910D02*
Y129330D01*
G01X338986D02*
Y88220D01*
G01X314080Y104800D02*
Y121040D01*
X317333Y124293D01*
Y129330D01*
G01X341230Y113872D02*
X343330Y111810D01*
X348632D01*
G01X319301Y129330D02*
Y97960D01*
G01X340955Y129330D02*
Y155840D01*
G01X348632Y117716D02*
X341216D01*
G01X348632Y121653D02*
X341270D01*
G01X318410Y168740D02*
Y137180D01*
X315364Y134134D01*
Y129330D01*
G01X315150Y184760D02*
X320970Y178940D01*
Y134860D01*
G01X380310Y39355D02*
X373425D01*
X368960Y43820D01*
X355760D01*
X352730Y46850D01*
X348632D01*
G01X369240Y46020D02*
X357100D01*
X354302Y48818D01*
X348632D01*
G01Y58661D02*
X343571D01*
G01X367553Y57382D02*
X374535D01*
G01X367553Y51382D02*
X371968D01*
X378060Y45290D01*
G01X367553Y51382D02*
X363358D01*
X361122Y53618D01*
X356918D01*
G01X367553Y57382D02*
X361017D01*
G01X356683Y57383D02*
X358940D01*
X358941Y57382D01*
X361017D01*
G01X348632Y56692D02*
X353916D01*
X354607Y57383D01*
X356683D01*
G01X348632Y54724D02*
X353736D01*
X354842Y53618D01*
X356918D01*
G01X361248Y34647D02*
X365913D01*
X367860Y32700D01*
G01X357104Y34704D02*
X361191D01*
X361248Y34647D01*
G01X367860Y32700D02*
X374535D01*
G01X348632Y38976D02*
X352832D01*
X357104Y34704D01*
G01X348632Y86220D02*
X343140D01*
G01X374535Y64382D02*
X370342D01*
X370336Y64376D01*
X368210D01*
G01X365150Y71390D02*
X360295Y66535D01*
X348632D01*
G01X354452Y82308D02*
X352458Y80314D01*
X348632D01*
G01Y70472D02*
X356226D01*
X357114Y71360D01*
X358940D01*
G01X348632Y82283D02*
X343813D01*
G01X354750Y86260D02*
X352741Y84251D01*
X348632D01*
G01Y62598D02*
X353472D01*
G01X365910Y100695D02*
X364084Y100730D01*
X363353Y99999D01*
X348632D01*
G01Y113779D02*
X353629D01*
G01X354480Y109830D02*
X352523Y107873D01*
X348632D01*
G01Y109842D02*
X343678D01*
G01X348632Y115747D02*
X343880D01*
G01X348632Y92125D02*
X353630D01*
G01X348632Y96062D02*
X353570D01*
G01X348632Y94094D02*
X356380D01*
G01X360000Y93200D02*
X356957Y90157D01*
X348632D01*
G01X358580Y98031D02*
X348632D01*
G01Y101968D02*
X353762D01*
G01X378750Y130890D02*
X366640D01*
G01X348632Y119684D02*
X343630D01*
G01X378750Y133450D02*
X373590D01*
X371850Y135190D01*
X366640D01*
G01Y148090D02*
Y143790D01*
G01Y130890D02*
Y126590D01*
G01X378750Y146250D02*
X371890D01*
X370050Y148090D01*
X366640D01*
G01X374535Y32700D02*
Y28777D01*
X374536Y28776D01*
Y25700D01*
G01X374535Y57382D02*
Y64382D01*
G01X378935Y80380D02*
X374390D01*
G01X376730Y77105D02*
X391615D01*
X392725Y78215D01*
X396610D01*
G01X376790Y84210D02*
X390680D01*
X392185Y85715D01*
X396610D01*
G01X378845Y73340D02*
X374600D01*
G01X384845D02*
X392249D01*
X393799Y74890D01*
X406040D01*
X410955Y79805D01*
X419100D01*
G01X384935Y80380D02*
X390831D01*
X392431Y81980D01*
X405660D01*
X407425Y83745D01*
X419100D01*
G01X374650Y91440D02*
X390290D01*
X392065Y93215D01*
X396610D01*
G01X396260Y121720D02*
Y115140D01*
X393490Y112370D01*
X392990D01*
G01X374550Y98800D02*
X392119D01*
X394034Y100715D01*
X396610D01*
G01X378935Y88220D02*
X374710D01*
G01X378935Y95040D02*
X374610D01*
G01X384935Y88220D02*
X390741D01*
X391991Y89470D01*
X405540D01*
X407325Y87685D01*
X419100D01*
G01X399840Y96730D02*
X391979D01*
X390309Y95060D01*
X387531D01*
X387511Y95040D01*
X384935D01*
G01X392760Y102570D02*
X389760D01*
G01X381990Y121080D02*
Y116410D01*
X384168Y114232D01*
Y114192D01*
X385990Y112370D01*
X386490D01*
G01X378935Y102570D02*
X374530D01*
G01X384935D02*
X389760D01*
G01X386490Y118370D02*
Y120946D01*
X386980Y121436D01*
Y132910D01*
X383880Y136010D01*
X378750D01*
G01Y138570D02*
X386020D01*
X392990Y131600D01*
Y118370D01*
G01X378750Y141130D02*
X387220D01*
X399490Y128860D01*
Y118370D01*
G01X378750Y148810D02*
X373924D01*
X373904Y148830D01*
X373130D01*
X371350Y150610D01*
Y159340D01*
G01X395150Y174760D02*
Y163470D01*
G01X402290Y7780D02*
X405500D01*
X412708Y572D01*
X416149D01*
G01X427665Y548D02*
X425589D01*
X425565Y572D01*
X422251D01*
G01X416149Y14660D02*
X412280D01*
X411650Y15290D01*
G01X416149Y28748D02*
X412010D01*
G01X416149Y21704D02*
X412010D01*
G01X416149Y7616D02*
X412010D01*
G01X422251D02*
X427665D01*
G01X422251Y28748D02*
X427665D01*
G01Y14648D02*
X425589D01*
X425577Y14660D01*
X422251D01*
G01X427665Y21698D02*
X425589D01*
X425583Y21704D01*
X422251D01*
G01X416149Y35792D02*
X412010D01*
G01X415920Y60220D02*
Y55960D01*
G01X423640Y60220D02*
Y55510D01*
G01X416149Y49880D02*
X412640D01*
G01X416149Y42836D02*
X412010D01*
G01X422251Y49880D02*
X427665D01*
G01Y42830D02*
X425589D01*
X425583Y42836D01*
X422251D01*
G01X427665Y35780D02*
X425589D01*
X425577Y35792D01*
X422251D01*
G01X421655Y75280D02*
Y71455D01*
X416420Y66220D01*
X415920D01*
G01X423625Y75280D02*
Y68811D01*
X423640Y68796D01*
Y66220D01*
G01X419100Y81775D02*
X409695D01*
X406135Y78215D01*
X402610D01*
G01X419100Y85715D02*
X402610D01*
G01X423625Y94180D02*
Y97695D01*
G01X411990Y96640D02*
Y106860D01*
G01X407040Y99960D02*
X406285Y100715D01*
X402610D01*
G01X403990Y118100D02*
Y113794D01*
X402566Y112370D01*
X399490D01*
G01X402610Y93215D02*
X406845D01*
X410405Y89655D01*
X419100D01*
G01X411990Y92640D02*
X415215D01*
X416230Y91625D01*
X419100D01*
G01X406150Y130890D02*
X410650D01*
X411610Y129930D01*
Y123480D01*
X408450Y120320D01*
G01X406150Y133450D02*
X411176D01*
X413740Y130886D01*
Y123240D01*
X416660Y120320D01*
G01X406150Y138570D02*
X415670D01*
G01X406150Y143690D02*
X423400D01*
X426891Y140199D01*
X431056D01*
G01X405150Y154500D02*
Y163470D01*
G01X406150Y146250D02*
X423620D01*
X427411Y150041D01*
X431056D01*
G01X405150Y174760D02*
Y163470D01*
G01X447760Y8272D02*
X443842D01*
G01X447760D02*
X455825D01*
G01X443390Y24230D02*
X445890Y26730D01*
Y36210D01*
G01X449400Y15150D02*
X453800D01*
G01X443400D02*
X443390Y24230D01*
G01X431240Y60220D02*
Y55210D01*
G01X462830Y36210D02*
X445890D01*
G01X458460Y75430D02*
X452330D01*
G01X438000Y77835D02*
Y74590D01*
G01X429535Y75280D02*
Y70501D01*
X431240Y68796D01*
Y66220D01*
G01X445670Y91820D02*
X442715Y88865D01*
X441406D01*
X440226Y87685D01*
X438000D01*
G01X441310Y90790D02*
X440175Y89655D01*
X438000D01*
G01X427565Y94180D02*
Y97545D01*
G01X431505Y94180D02*
Y97570D01*
G01X450580Y119886D02*
Y116700D01*
X448000Y114120D01*
Y113620D01*
G01X438000Y91625D02*
Y96750D01*
X447440Y106190D01*
X447790D01*
G01X441700Y106240D02*
Y115761D01*
X438261Y119200D01*
X437861D01*
G01X427910Y106300D02*
Y108435D01*
X429199Y109724D01*
Y112900D01*
G01X427910Y106300D02*
Y103990D01*
X430240Y101660D01*
X432450D01*
G01X433475Y94180D02*
Y98559D01*
X432450Y99584D01*
Y101660D01*
G01X441700Y106240D02*
Y104164D01*
X439196Y101660D01*
X436450D01*
G01X435445Y94180D02*
Y98579D01*
X436450Y99584D01*
Y101660D01*
G01X446840Y134530D02*
X442930D01*
G01X446840Y129334D02*
Y134530D01*
G01Y119886D02*
Y122780D01*
X441980Y127640D01*
X438520D01*
G01X433000D02*
X438520D01*
G01X455330Y139270D02*
X450359D01*
X449430Y140199D01*
X446804D01*
G01X455825Y158980D02*
X451810D01*
G01X455330Y151340D02*
X450729D01*
X449430Y150041D01*
X446804D01*
G01X473935Y8272D02*
X455825D01*
G01X468562Y76952D02*
X463058D01*
X461536Y75430D01*
X458460D01*
G01X461370Y143270D02*
X455330D01*
G01D02*
Y147340D01*
G01X466920Y139270D02*
X455330D01*
G01X476750Y142559D02*
X472739D01*
X469450Y139270D01*
X466920D01*
G01X455825Y166578D02*
Y158980D01*
G01X473935Y166578D02*
X455825D01*
G01X466830Y151340D02*
X470020D01*
X473880Y147480D01*
X476750D01*
G01X466830Y151340D02*
X455330D01*
G54D101*
G01X224690Y10410D02*
Y-1970D01*
G54D102*
G01X94680Y188654D02*
X78578D01*
G01X110782D02*
X94680D01*
G01X479094Y79511D02*
Y95613D01*
G01Y63409D02*
Y79511D01*
G54D103*
G01X12770Y21530D02*
X6580D01*
X5050Y20000D01*
X0D01*
G01Y30000D02*
X4500D01*
X6970Y27530D01*
X12770D01*
G01X0Y137750D02*
X3080Y134670D01*
G01X0Y137750D02*
X3080Y140830D01*
G01X0Y137750D02*
X4002D01*
G01X0D02*
Y141752D01*
G01Y133748D02*
Y137750D01*
G01X650Y171014D02*
Y168420D01*
X-5840Y161930D01*
Y133590D01*
X0Y127750D01*
G01X5320Y171014D02*
X650D01*
G01Y175014D02*
X5320D01*
G01X23430Y30480D02*
Y37050D01*
G01X28430Y30480D02*
Y26080D01*
X26940Y24590D01*
X20170D01*
X17230Y27530D01*
X12770D01*
G01X33430Y30480D02*
Y26080D01*
X28880Y21530D01*
X12770D01*
G01X13312Y38130D02*
Y41182D01*
G01X23430Y37050D02*
X20010D01*
X16820Y33860D01*
G01X27430Y37050D02*
X30490D01*
G01X16060Y127740D02*
X20112Y123688D01*
G01X12008Y131792D02*
X16060Y127740D01*
G01D02*
X20112Y131792D01*
G01X12008Y123688D02*
X16060Y127740D01*
G01D02*
X20112D01*
G01X12008D02*
X16060D01*
G01D02*
Y131792D01*
G01Y123688D02*
Y127740D01*
G01X16040Y137697D02*
X19542Y135404D01*
G01X12538D02*
X16040Y137697D01*
G01D02*
X19542D01*
G01X12538D02*
X16040D01*
G01Y135145D02*
Y137697D01*
G01Y147736D02*
X19266Y142634D01*
G01X12814D02*
X16040Y147736D01*
G01Y142634D02*
Y147736D01*
G01X12814Y152838D02*
X16040Y147736D01*
G01D02*
X19266Y152838D01*
G01X16040Y147736D02*
X19542D01*
G01X12538D02*
X16040D01*
G01D02*
Y152838D01*
G01X27204Y157796D02*
X28870Y156130D01*
G01D02*
X30536Y157796D01*
G01X28870Y156130D02*
Y158132D01*
G01X25810Y163900D02*
X28812Y161398D01*
G01X22808D02*
X25810Y163900D01*
G01Y161398D02*
Y163900D01*
G01X22904Y157836D02*
X24570Y156170D01*
G01D02*
X26236Y157836D01*
G01X22568Y156170D02*
X24570D01*
G01D02*
Y158172D01*
G01X16060Y158740D02*
X19762Y155038D01*
G01X12358D02*
X16060Y158740D01*
G01D02*
X19762D01*
G01X12358D02*
X16060D01*
G01Y155038D02*
Y158740D01*
G01X9414Y171014D02*
X5320D01*
G01X35790Y165550D02*
X30600D01*
G01X5320Y175014D02*
X9678D01*
X14184Y179520D01*
X15784D01*
G01X45469Y-22920D02*
X49071Y-31022D01*
G01X41867D02*
X45469Y-22920D01*
G01Y-31022D02*
Y-22920D01*
G01X41867Y-14818D02*
X45469Y-22920D01*
G01D02*
X49071Y-14818D01*
G01X45469Y-22920D02*
X49071D01*
G01X41867D02*
X45469D01*
G01D02*
Y-14818D01*
G01X49012Y5820D02*
X52614Y-1732D01*
G01X45410D02*
X49012Y5820D01*
G01Y-1732D02*
Y5820D01*
G01X33030Y-22730D02*
X36430D01*
G01X33030Y-14080D02*
X36430D01*
G01X45410Y13372D02*
X49012Y5820D01*
G01D02*
X52614Y13372D01*
G01X49012Y5820D02*
X52614D01*
G01X45410D02*
X49012D01*
G01D02*
Y13372D01*
G01X54440Y33742D02*
X58410Y27390D01*
G01X54440Y21038D02*
X58410Y27390D01*
G01X54158D02*
X58410D01*
G01D02*
Y33742D01*
G01Y21038D02*
Y27390D01*
G01X37285Y123129D02*
X41971D01*
X41990Y123110D01*
X44490D01*
G01Y127110D02*
Y131180D01*
G01X84445Y-22920D02*
X88047Y-31022D01*
G01X80843D02*
X84445Y-22920D01*
G01Y-31022D02*
Y-22920D01*
G01X80843Y-14818D02*
X84445Y-22920D01*
G01D02*
X88047Y-14818D01*
G01X84445Y-22920D02*
X88047D01*
G01X80843D02*
X84445D01*
G01D02*
Y-14818D01*
G01X82870Y5820D02*
X86472Y-1732D01*
G01X79268D02*
X82870Y5820D01*
G01Y-1732D02*
Y5820D01*
G01X79268Y13372D02*
X82870Y5820D01*
G01D02*
X86472Y13372D01*
G01X82870Y5820D02*
X86472D01*
G01X79268D02*
X82870D01*
G01D02*
Y13372D01*
G01X78268Y27640D02*
X81420Y24488D01*
G01X75116Y30792D02*
X78268Y27640D01*
G01D02*
X81420Y30792D01*
G01X75116Y24488D02*
X78268Y27640D01*
G01D02*
X81420D01*
G01X75116D02*
X78268D01*
G01D02*
Y30792D01*
G01Y24488D02*
Y27640D01*
G01X69410Y27390D02*
X73380Y21038D01*
G01X65440Y33742D02*
X69410Y27390D01*
G01D02*
X73380Y33742D01*
G01X65440Y21038D02*
X69410Y27390D01*
G01D02*
X73662D01*
G01X65158D02*
X69410D01*
G01D02*
Y33742D01*
G01Y21038D02*
Y27390D01*
G01X86140Y30792D02*
X89292Y27640D01*
G01X86140Y24488D02*
X89292Y27640D01*
G01X86140D02*
X89292D01*
G01X86480Y71290D02*
Y67070D01*
G01Y89300D02*
Y92910D01*
G01X71470Y116809D02*
Y121310D01*
G01X71086Y143300D02*
X64800D01*
G01X89910Y160930D02*
X85960D01*
G01X71830Y154650D02*
Y151040D01*
X71086Y150296D01*
Y147040D01*
G01X89562Y171540D02*
Y178122D01*
G01X92397Y2010D02*
X94690Y-1492D01*
G01X90104Y5512D02*
X92397Y2010D01*
G01D02*
X94690Y5512D01*
G01X90104Y-1492D02*
X92397Y2010D01*
G01D02*
X94949D01*
G01X89845D02*
X92397D01*
G01D02*
Y5512D01*
G01Y-1492D02*
Y2010D01*
G01X89292Y27640D02*
X92444Y24488D01*
G01X89292Y27640D02*
X92444Y30792D01*
G01X89292Y27640D02*
X92444D01*
G01X89292D02*
Y30792D01*
G01Y24488D02*
Y27640D01*
G01X95813Y31492D02*
X97300Y27590D01*
G01X95813Y23688D02*
X97300Y27590D01*
G01X95348D02*
X97300D01*
G01D02*
Y31492D01*
G01Y23688D02*
Y27590D01*
G01X102300D02*
X103787Y23688D01*
G01X100813Y31492D02*
X102300Y27590D01*
G01D02*
X103787Y31492D01*
G01X100813Y23688D02*
X102300Y27590D01*
G01D02*
X104252D01*
G01X100348D02*
X102300D01*
G01D02*
Y31492D01*
G01Y23688D02*
Y27590D01*
G01X102436Y13510D02*
X107538Y10284D01*
G01X97334Y16736D02*
X102436Y13510D01*
G01D02*
X107538Y16736D01*
G01X97334Y10284D02*
X102436Y13510D01*
G01D02*
X107538D01*
G01X97334D02*
X102436D01*
G01D02*
Y17012D01*
G01Y10008D02*
Y13510D01*
G01X97300Y48850D02*
X98787Y44948D01*
G01X95813Y52752D02*
X97300Y48850D01*
G01D02*
X98787Y52752D01*
G01X95813Y44948D02*
X97300Y48850D01*
G01D02*
X99252D01*
G01X95348D02*
X97300D01*
G01D02*
Y52752D01*
G01Y44948D02*
Y48850D01*
G01X102300D02*
X103787Y44948D01*
G01X100813Y52752D02*
X102300Y48850D01*
G01D02*
X103787Y52752D01*
G01X100813Y44948D02*
X102300Y48850D01*
G01D02*
X104252D01*
G01X100348D02*
X102300D01*
G01D02*
Y52752D01*
G01Y44948D02*
Y48850D01*
G01X107300D02*
X108787Y44948D01*
G01X105813Y52752D02*
X107300Y48850D01*
G01D02*
X108787Y52752D01*
G01X105813Y44948D02*
X107300Y48850D01*
G01D02*
X109252D01*
G01X105348D02*
X107300D01*
G01D02*
Y52752D01*
G01Y44948D02*
Y48850D01*
G01X112300D02*
X113787Y44948D01*
G01X110813Y52752D02*
X112300Y48850D01*
G01D02*
X113787Y52752D01*
G01X110813Y44948D02*
X112300Y48850D01*
G01D02*
X114252D01*
G01X110348D02*
X112300D01*
G01D02*
Y52752D01*
G01Y44948D02*
Y48850D01*
G01X101330Y85110D02*
X104677Y81763D01*
G01X98130Y83494D02*
X99714D01*
X101330Y85110D01*
G01X97901Y107361D02*
X97920Y107342D01*
Y104251D01*
X94759Y101090D01*
G01X97901Y107361D02*
X102041D01*
G01X109910Y97970D02*
Y101070D01*
G01X113910Y97970D02*
X109910D01*
G01X103810Y128730D02*
X100860D01*
G01X98820Y139650D02*
X100810D01*
X101850Y140690D01*
G01X93330Y139650D02*
X98820D01*
G01X89910Y154930D02*
X93930D01*
G01X99798Y178122D02*
Y173572D01*
G01X123610Y28910D02*
X125276Y30576D01*
G01X123610Y28910D02*
X125612D01*
G01X123610D02*
Y30912D01*
G01X144390Y54200D02*
X146892Y51198D01*
G01X144390Y54200D02*
X146892Y57202D01*
G01X144390Y54200D02*
X146892D01*
G01X144390D02*
Y57202D01*
G01Y51198D02*
Y54200D01*
G01X144138Y45702D02*
X148140Y41700D01*
G01X144138Y37698D02*
X148140Y41700D01*
G01X144138D02*
X148140D01*
G01X143150Y164890D02*
Y168500D01*
G01X169640Y6060D02*
X172642Y3558D01*
G01X166638D02*
X169640Y6060D01*
G01Y3558D02*
Y6060D01*
G01D02*
X172642D01*
G01X166638D02*
X169640D01*
G01X166638Y47562D02*
X169640Y45060D01*
G01D02*
X172642Y47562D01*
G01X169640Y45060D02*
X172642D01*
G01X166638D02*
X169640D01*
G01D02*
Y47562D01*
G01X161740Y46550D02*
X163795Y44495D01*
G01X159685Y48605D02*
X161740Y46550D01*
G01D02*
X163795Y48605D01*
G01X159685Y44495D02*
X161740Y46550D01*
G01D02*
X164292D01*
G01X159188D02*
X161740D01*
G01D02*
Y49102D01*
G01Y43998D02*
Y46550D01*
G01X148140Y41700D02*
X152142Y37698D01*
G01X148140Y41700D02*
X152142Y45702D01*
G01X148140Y41700D02*
X152142D01*
G01X148140D02*
Y45702D01*
G01Y37698D02*
Y41700D01*
G01X151420Y149300D02*
Y145130D01*
X153550Y143000D01*
G01X162090Y119910D02*
X158610D01*
G01X153150Y164890D02*
Y168010D01*
X152790Y168370D01*
G01X151420Y149300D02*
X177480D01*
X181120Y145660D01*
G01X189170Y1178D02*
Y9130D01*
G01D02*
X193643Y1178D01*
G01X182035Y-12125D02*
X185150Y-15240D01*
G01D02*
X188265Y-12125D01*
G01X185150Y-15240D02*
X189202D01*
G01X181098D02*
X185150D01*
G01D02*
Y-11188D01*
G01X179140Y6060D02*
X182142Y3558D01*
G01X176138D02*
X179140Y6060D01*
G01Y3558D02*
Y6060D01*
G01X189170Y9130D02*
X193972D01*
G01X179140Y6060D02*
X182142D01*
G01X176138D02*
X179140D01*
G01Y23810D02*
X182142Y21308D01*
G01X176138D02*
X179140Y23810D01*
G01D02*
X182142D01*
G01X176138D02*
X179140D01*
G01Y21308D02*
Y23810D01*
G01X176138Y14562D02*
X179140Y12060D01*
G01D02*
X182142D01*
G01X176138D02*
X179140D01*
G01D02*
Y14562D01*
G01X189170Y27610D02*
X193643Y19658D01*
G01X184697Y35562D02*
X189170Y27610D01*
G01D02*
X193643Y35562D01*
G01X184697Y19658D02*
X189170Y27610D01*
G01D02*
X193972D01*
G01X184368D02*
X189170D01*
G01D02*
Y35562D01*
G01Y19658D02*
Y27610D01*
G01X198538Y30552D02*
X207540Y34863D01*
G01X176137Y47562D02*
X179139Y45060D01*
G01D02*
X182141Y47562D01*
G01X179139Y45060D02*
X182141D01*
G01X176137D02*
X179139D01*
G01D02*
Y47562D01*
G01X198538Y39174D02*
X207540Y34863D01*
G01X198538D02*
X207540D01*
G01X189170Y39059D02*
X192172Y36557D01*
G01X186168D02*
X189170Y39059D01*
G01D02*
X192172D01*
G01X186168D02*
X189170D01*
G01Y36557D02*
Y39059D01*
G01Y45059D02*
X192172Y47561D01*
G01X189170Y45059D02*
X192172D01*
G01X189170D02*
Y47561D01*
G01X197443Y53223D02*
X204095Y56775D01*
G01X197443D02*
X204095D01*
G01X197443Y78437D02*
X204095Y74885D01*
G01X197443Y71333D02*
X204095Y74885D01*
G01X197443D02*
X204095D01*
G01X190650Y133980D02*
X193690D01*
X194320Y134610D01*
G01X193710Y145500D02*
X190740D01*
G01X215150Y-15240D02*
X218265Y-18355D01*
G01X212035Y-12125D02*
X215150Y-15240D01*
G01D02*
X218265Y-12125D01*
G01X212035Y-18355D02*
X215150Y-15240D01*
G01D02*
X219202D01*
G01X211098D02*
X215150D01*
G01D02*
Y-11188D01*
G01Y-19292D02*
Y-15240D01*
G01X204180Y-7172D02*
Y-4170D01*
G01D02*
Y-1168D01*
G01Y-4170D02*
X206682D01*
G01X204180D02*
X206682Y-1168D01*
G01X204180Y-4170D02*
X206682Y-7172D01*
G01X213666Y-5122D02*
Y-1970D01*
G01D02*
Y1182D01*
G01X210514Y-1970D02*
X213666D01*
G01D02*
X216818D01*
G01X210514Y-5122D02*
X213666Y-1970D01*
G01D02*
X216818Y1182D01*
G01X210514D02*
X213666Y-1970D01*
G01D02*
X216818Y-5122D01*
G01X207540Y34863D02*
X216542Y30552D01*
G01X207540Y30161D02*
Y34863D01*
G01X228203Y27768D02*
X229690Y31670D01*
G01X227738D02*
X229690D01*
G01X224690D02*
X226177Y27768D01*
G01X223203Y35572D02*
X224690Y31670D01*
G01D02*
X226177Y35572D01*
G01X223203Y27768D02*
X224690Y31670D01*
G01D02*
X226642D01*
G01X222738D02*
X224690D01*
G01D02*
Y35572D01*
G01Y27768D02*
Y31670D01*
G01X228203Y14312D02*
X229690Y10410D01*
G01X228203Y6508D02*
X229690Y10410D01*
G01X227738D02*
X229690D01*
G01X206794Y12656D02*
X211896Y9430D01*
G01D02*
X216998Y12656D01*
G01X211896Y9430D02*
X216998D01*
G01X206794D02*
X211896D01*
G01D02*
Y12932D01*
G01X207540Y19877D02*
X216542Y15566D01*
G01X207540Y19877D02*
X216542Y24188D01*
G01X207540Y19877D02*
X216542D01*
G01X207540D02*
Y24579D01*
G01Y15175D02*
Y19877D01*
G01Y34863D02*
X216542Y39174D01*
G01X207540Y34863D02*
X216542D01*
G01X207540D02*
Y39565D01*
G01X228203Y35572D02*
X229690Y31670D01*
G01X217464Y62036D02*
X219130Y60370D01*
G01D02*
X220796Y62036D01*
G01X204095Y56775D02*
X210747Y53223D01*
G01X204095Y56775D02*
X210747D01*
G01X204095Y52873D02*
Y56775D01*
G01X216985Y55396D02*
X219130Y56370D01*
G01X217464Y54704D02*
X219130Y56370D01*
G01X217128D02*
X219130D01*
G01X216618Y52751D02*
X219120Y51250D01*
G01X216618Y54252D02*
X219120Y51250D01*
G01X216618D02*
X219120D01*
G01X204095Y74885D02*
X210747Y71333D01*
G01X204095Y74885D02*
X210747Y78437D01*
G01X204095Y74885D02*
X210747D01*
G01X204095D02*
Y78787D01*
G01Y70983D02*
Y74885D01*
G01X219130Y60370D02*
X221132D01*
G01X217128D02*
X219130D01*
G01D02*
Y62372D01*
G01X228448Y62872D02*
X231450Y60370D01*
G01X228448D02*
X231450D01*
G01X219130Y67160D02*
X220796Y65494D01*
G01X217464D02*
X219130Y67160D01*
G01D02*
X221132D01*
G01X217128D02*
X219130D01*
G01Y65158D02*
Y67160D01*
G01X205880Y134169D02*
Y131220D01*
X206760Y130340D01*
Y127140D01*
G01X225850Y132670D02*
Y129560D01*
G01X216760Y127140D02*
X212290D01*
G01X224660Y145750D02*
Y142150D01*
G01X209850Y138171D02*
Y134930D01*
G01X206760Y127140D02*
X202200D01*
X201860Y126800D01*
G01D02*
Y123750D01*
G01Y129880D02*
Y126800D01*
G01X219761Y145750D02*
X224660D01*
G01X234690Y3530D02*
Y-850D01*
G01Y10410D02*
Y3530D01*
G01X238690Y-850D02*
Y-4110D01*
G01X229690Y31670D02*
X231177Y27768D01*
G01X229690Y31670D02*
X231177Y35572D01*
G01X229690Y31670D02*
X231642D01*
G01X229690D02*
Y35572D01*
G01Y27768D02*
Y31670D01*
G01X239690D02*
X241177Y27768D01*
G01X238203Y35572D02*
X239690Y31670D01*
G01D02*
X241177Y35572D01*
G01X238203Y27768D02*
X239690Y31670D01*
G01D02*
X241642D01*
G01X237738D02*
X239690D01*
G01D02*
Y35572D01*
G01Y27768D02*
Y31670D01*
G01X234690D02*
X236177Y27768D01*
G01X233203Y35572D02*
X234690Y31670D01*
G01D02*
X236177Y35572D01*
G01X233203Y27768D02*
X234690Y31670D01*
G01D02*
X236642D01*
G01X232738D02*
X234690D01*
G01D02*
Y35572D01*
G01Y27768D02*
Y31670D01*
G01X229690Y10410D02*
X231177Y6508D01*
G01X229690Y10410D02*
X231177Y14312D01*
G01X229690Y10410D02*
X231642D01*
G01X229690D02*
Y14312D01*
G01Y6508D02*
Y10410D01*
G01X237330Y60340D02*
X240750D01*
X241975Y61565D01*
G01X231450Y60370D02*
Y62872D01*
G01X239412Y64566D02*
X244566D01*
G01X243520Y70472D02*
X239332D01*
G01X231891Y128080D02*
Y124531D01*
G01X236855Y157085D02*
X235790Y158150D01*
X231891D01*
G01X303553Y135090D02*
Y136887D01*
X302420Y138020D01*
G01X294720Y155160D02*
X297970D01*
G01X335049Y23621D02*
X336049Y22621D01*
Y20800D01*
G01X357935Y105905D02*
X361720D01*
X362050Y105575D01*
X365100D01*
G01D02*
Y112372D01*
G01X372167Y112370D02*
X368667D01*
X368665Y112372D01*
X365100D01*
G01X362640Y126590D02*
X359530D01*
G01X362640Y135190D02*
X359540D01*
G01X362640Y143790D02*
X359380D01*
G01X366640Y139490D02*
X369090D01*
X371210Y141610D01*
G01X389760Y106570D02*
Y109780D01*
G01X378750Y143690D02*
X373290D01*
X371210Y141610D01*
G01X391150Y163470D02*
Y166530D01*
G01X425595Y101580D02*
X426930D01*
X429280Y99230D01*
G01X425595Y99080D02*
Y101580D01*
G01X406150Y136010D02*
X411600D01*
X413930Y133680D01*
X417420D01*
X417430Y133670D01*
G01X406150Y141130D02*
X412650D01*
G01X415400Y153860D02*
X412910Y151370D01*
X401600D01*
X401100Y150870D01*
Y149370D01*
X401660Y148810D01*
X406150D01*
G01X401150Y163470D02*
Y166660D01*
G01X455825Y-192D02*
X450078D01*
G01X431665Y3815D02*
Y7616D01*
G01Y548D02*
Y3815D01*
G01Y32585D02*
Y28748D01*
G01Y24995D02*
Y28748D01*
G01Y21698D02*
Y24995D01*
G01Y18085D02*
Y21698D01*
G01Y14648D02*
Y18085D01*
G01Y10885D02*
Y14648D01*
G01Y7616D02*
Y10885D01*
G01Y46555D02*
Y42830D01*
G01Y49880D02*
Y46555D01*
G01Y39345D02*
Y35780D01*
G01Y42830D02*
Y39345D01*
G01Y35780D02*
Y32585D01*
G01X445520Y87790D02*
X444380Y86650D01*
X442350D01*
G01X441465Y83745D02*
X445580D01*
G01X473935Y-192D02*
X455825D01*
G01X468562Y84629D02*
X459800D01*
G01X468562Y74393D02*
X463563D01*
G01X455825Y175042D02*
Y179065D01*
G01X473935Y175042D02*
X455825D01*
G54D10*
G01X419530Y-70820D02*
Y-170820D01*
X19530D01*
G01D02*
Y-70820D01*
X419530D01*
G01X17629Y-22750D02*
X14210D01*
G01X17629Y-14080D02*
X14200D01*
G01X28430Y9220D02*
Y15130D01*
G01X37285Y144802D02*
X31622D01*
G01X35790Y170550D02*
X30530D01*
G01X28870Y152130D02*
Y149010D01*
G01X24570Y152170D02*
Y149080D01*
G01X55395Y144802D02*
X50512D01*
G01X57050Y165550D02*
X51540D01*
G01X55395Y180308D02*
X50182D01*
G01X37285D02*
X32338D01*
G01X76050Y53500D02*
Y50430D01*
G01X80290Y73290D02*
X77190D01*
G01X80360Y87300D02*
X77260D01*
G01X84320Y115920D02*
X88380D01*
G01X77070Y105310D02*
Y108380D01*
G01X87540Y133650D02*
Y129870D01*
G01X64800Y137300D02*
Y133370D01*
G01X80534Y143300D02*
X84360D01*
G01X84090Y154370D02*
X80000D01*
X79910Y154460D01*
G01X81830Y159760D02*
X83820Y157770D01*
X85950D01*
G01X70160Y177760D02*
X64970D01*
G01X62130Y184772D02*
Y181520D01*
G01X112300Y27590D02*
X116050D01*
G01X94130Y83494D02*
X92536D01*
X91000Y85030D01*
G01X98130Y76094D02*
X100886D01*
X101180Y75800D01*
G01X101910Y93970D02*
Y90790D01*
G01X98130Y90894D02*
Y94080D01*
G01X93330Y133650D02*
Y129640D01*
G01X98820Y135650D02*
Y132490D01*
G01X89910Y148930D02*
X95130D01*
X98310Y145750D01*
G01X123610Y24810D02*
X126680D01*
G01X138390Y54200D02*
X134150D01*
G01X129741Y58570D02*
X133610D01*
G01X131980Y84710D02*
X133600D01*
X135129Y86239D01*
X137920D01*
G01X131980Y84710D02*
Y81630D01*
G01X144220Y94901D02*
Y94101D01*
X148390Y89931D01*
Y82565D01*
X146975Y81150D01*
X140849D01*
X137920Y84079D01*
Y86239D01*
G01X127741Y64190D02*
X131250D01*
G01X139200Y67790D02*
Y64280D01*
G01X134010Y69800D02*
Y66770D01*
G01X130290Y69830D02*
Y66840D01*
G01X124910Y102470D02*
X129740D01*
G01X144220Y94901D02*
Y98765D01*
X142805Y100180D01*
X135330D01*
X132040Y96890D01*
G01X124910Y95400D02*
X128490D01*
G01X134024Y136664D02*
Y136985D01*
X131116Y139893D01*
G01D02*
X129773Y138550D01*
X127900D01*
G01X134024Y136664D02*
X136135Y138775D01*
G01X163060Y88040D02*
Y92590D01*
G01X153550Y137070D02*
Y143000D01*
G01X147550Y155639D02*
X150660D01*
G01X165330D02*
Y152460D01*
G01X198180Y-4170D02*
Y-8410D01*
G01X193620Y-4140D02*
Y-7770D01*
G01X201857Y9430D02*
X197800D01*
G01X190650Y129980D02*
X193660D01*
G01X193650Y153950D02*
X190490D01*
G01X231450Y54370D02*
X227480D01*
G01X220600Y82550D02*
Y78410D01*
G01X219130Y71160D02*
Y74350D01*
G01X201860Y119750D02*
Y116150D01*
G01X204656Y149760D02*
Y146500D01*
G01X223229Y157363D02*
Y162149D01*
G01X238690Y3530D02*
X242220D01*
G01X252570Y9130D02*
Y18580D01*
G01X239690Y10410D02*
X243150D01*
G01X237330Y56340D02*
Y53360D01*
G01X239332Y74472D02*
X236172D01*
G01X235412Y64566D02*
Y67530D01*
G01X239332Y115810D02*
X235990D01*
G01X272420Y20400D02*
X274040Y22020D01*
Y23930D01*
G01X270100Y14510D02*
X270530D01*
X272420Y16400D01*
G01X265980Y14370D02*
X269960D01*
X270100Y14510D01*
G01X283880Y16800D02*
X286120Y14560D01*
G01X302234Y7970D02*
X295447Y14757D01*
G01X305704Y8006D02*
X302270D01*
X302234Y7970D01*
G01D02*
Y4704D01*
G01X310450Y142610D02*
Y146030D01*
G01X302420Y142020D02*
Y145450D01*
G01X310447Y138020D02*
Y142607D01*
X310450Y142610D01*
G01X341250Y16940D02*
Y19599D01*
X340049Y20800D01*
G01X361248Y30647D02*
Y27792D01*
X361820Y27220D01*
G01X357104Y30704D02*
Y27406D01*
G01X356918Y49618D02*
X360150D01*
G01X364449Y85346D02*
X361405D01*
X360441Y86310D01*
X357935D01*
G01Y82346D02*
Y86310D01*
G01X356683Y61383D02*
Y64590D01*
G01X361017Y61382D02*
Y64453D01*
G01X357935Y109905D02*
Y113565D01*
X357640Y113860D01*
G01X362640Y130890D02*
X359540D01*
G01X362640Y139490D02*
X359660D01*
G01X362640Y148090D02*
X359290D01*
G01X396610Y70715D02*
Y66710D01*
G01X398860Y53980D02*
Y63525D01*
G01X412830Y71230D02*
X416310D01*
G01X418590Y101840D02*
X421335D01*
X421595Y101580D01*
G01X417430Y127670D02*
Y124160D01*
G01X419670Y138570D02*
X422980D01*
G01X415400Y157860D02*
Y160890D01*
G01X421720Y159840D02*
X426080D01*
G01X447390Y24230D02*
X447490Y21160D01*
G01X447760Y4272D02*
X444752D01*
G01X451770Y61780D02*
Y56800D01*
G01X446500Y69460D02*
X450980D01*
G01X458460Y69430D02*
X454130D01*
G01X455800Y84629D02*
X453840Y86589D01*
Y90189D01*
G01X449580Y83745D02*
X452690D01*
G01X449520Y87790D02*
Y83805D01*
X449580Y83745D01*
G01X445670Y96280D02*
X442380D01*
G01X454090Y109630D02*
Y109670D01*
X454000Y109760D01*
Y113620D01*
G01X454090Y106190D02*
Y109630D01*
G01X449670Y96280D02*
Y100400D01*
G01Y91820D02*
Y96280D01*
G01X445670Y100400D02*
Y96280D01*
G01X453840Y90189D02*
Y94660D01*
G01X450580Y129334D02*
Y125460D01*
G01X450840Y134530D02*
X453890D01*
G01X474720Y121730D02*
X481100D01*
G01X466920Y143270D02*
X469970D01*
G01X459825Y158980D02*
X463320D01*
G01X466830Y147340D02*
X470100D01*
G01X461370Y147270D02*
X458300D01*
X-4360Y-7940D03*
X-5270Y4050D03*
Y14240D03*
X-5200Y23330D03*
Y42740D03*
Y56320D03*
Y69900D03*
Y90270D03*
Y103850D03*
Y117440D03*
X-3330Y169850D03*
X2900Y180670D03*
X19230Y-30470D03*
X6790Y-24520D03*
X29090Y-9620D03*
X14210Y-22750D03*
X14200Y-14080D03*
X28430Y15130D03*
X13312Y41182D03*
X30490Y37050D03*
X31622Y144802D03*
X7530Y148170D03*
Y154960D03*
Y161780D03*
X28870Y149010D03*
X24570Y149080D03*
X9414Y171014D03*
X30600Y165550D03*
X10570Y186790D03*
X21180Y190610D03*
X32338Y180308D03*
X58920Y-28800D03*
X52130D03*
X32725Y-9620D03*
X58920Y-15220D03*
Y-22010D03*
X52130D03*
Y-15220D03*
X36430Y-22730D03*
Y-14080D03*
X60410Y920D03*
X54900D03*
X41970Y27630D03*
X60410Y11950D03*
Y6430D03*
X54900D03*
Y11950D03*
X60410Y17460D03*
X54870D03*
X51750Y60430D03*
X42030Y33230D03*
X51310Y42270D03*
X56820D03*
Y36760D03*
X51310D03*
X51970Y71040D03*
X52180Y90260D03*
X44490Y131180D03*
X60460Y136338D03*
X50512Y144802D03*
X50182Y180308D03*
X72430Y-28870D03*
X65640D03*
X69450Y57650D03*
X76050Y50430D03*
X70195Y60905D03*
X69610Y67820D03*
X77190Y73290D03*
X77260Y87300D03*
X86480Y67070D03*
X70195Y64605D03*
X69450Y92470D03*
X69350Y100960D03*
X86380Y97670D03*
X87690Y101100D03*
X88380Y115920D03*
X77070Y108380D03*
X71280Y98758D03*
Y95002D03*
X86480Y92910D03*
X74534Y129084D03*
X80534Y129046D03*
X87540Y129870D03*
X73440Y124700D03*
X71470Y121310D03*
X62540Y118630D03*
X64800Y133370D03*
X84360Y143300D03*
X84300Y147090D03*
X79910Y154460D03*
X85950Y157770D03*
X85960Y160930D03*
X75830Y150020D03*
X68560Y154690D03*
X68790Y159550D03*
X68930Y166650D03*
X64970Y177760D03*
X65230Y188772D03*
X62130Y181520D03*
X116050Y27590D03*
X95680Y57520D03*
X93080Y60350D03*
X99930Y39260D03*
X105440D03*
X110960D03*
X113710Y42020D03*
X108200D03*
X102680D03*
X97140Y42110D03*
X90720Y75590D03*
X116620Y63550D03*
X110190Y67440D03*
X90774Y68474D03*
X111890Y78860D03*
X90960Y65170D03*
X116040Y78810D03*
X101330Y85110D03*
X113087Y65830D03*
X108339Y70959D03*
X91000Y85030D03*
X90550Y72344D03*
X117024Y67980D03*
X101180Y75800D03*
X93930Y93930D03*
X93830Y98110D03*
X109910Y89350D03*
X90776Y90894D03*
X102041Y107361D03*
X101910Y90790D03*
Y101300D03*
X109910Y101070D03*
X113910Y90970D03*
X98130Y94080D03*
X100270Y143405D03*
X100860Y128730D03*
X109290Y132360D03*
X112290Y144180D03*
X116850Y144110D03*
X115555Y133430D03*
X113585Y130820D03*
X104640Y136760D03*
X93330Y129640D03*
X98820Y132490D03*
X107520Y124730D03*
X101850Y140690D03*
X93930Y154930D03*
X91540Y164960D03*
X115555Y158960D03*
X113585Y163360D03*
X109645Y159515D03*
X107675Y161720D03*
X112310Y148570D03*
X116780Y148600D03*
X111615Y161410D03*
X99798Y173572D03*
X101817Y154513D03*
X101925Y151285D03*
X133730Y-5450D03*
X126680Y24810D03*
X134150Y54200D03*
X133610Y58570D03*
X120961Y67790D03*
X120180Y78780D03*
X131980Y81630D03*
X131250Y64190D03*
X139200Y64280D03*
X134010Y66770D03*
X130290Y66840D03*
X129230Y77830D03*
X127280Y83731D03*
X129250Y81763D03*
X127370Y79794D03*
X129740Y102470D03*
X120961Y108019D03*
X128490Y95400D03*
X139960Y127770D03*
X127900Y138550D03*
X124330Y128780D03*
X120860Y128730D03*
X117525Y131310D03*
X144520Y127830D03*
X127610Y143405D03*
X136135Y138775D03*
X117525Y163280D03*
X144520Y155603D03*
X121465Y159040D03*
X124020Y160250D03*
X133480Y155870D03*
X143150Y168500D03*
X141055Y162385D03*
X119495Y161350D03*
X144490Y159639D03*
X139440Y152650D03*
X136260Y152980D03*
X129750Y145640D03*
X127160Y147345D03*
X167460Y-23950D03*
X160890Y-24100D03*
X163990Y-26500D03*
X163840Y-20920D03*
X169860Y-4540D03*
X169750Y-20D03*
X165640Y29040D03*
X164365Y39405D03*
X157760Y49580D03*
X169720Y49620D03*
X165350Y49770D03*
X154880Y53070D03*
X148880Y59644D03*
X154690Y56820D03*
X157760Y75810D03*
X157740Y68200D03*
X157610Y61590D03*
X171900Y115930D03*
X163060Y92590D03*
X171190Y128010D03*
X167196Y118700D03*
X164950Y120690D03*
X158610Y119910D03*
X149710Y120120D03*
X154677Y161930D03*
X162750Y161580D03*
X168600Y159640D03*
X150920Y161770D03*
X168510Y153640D03*
X160360Y152020D03*
X152790Y168370D03*
X155980Y152340D03*
X171377Y153160D03*
X150660Y155639D03*
X165330Y152460D03*
X162290Y156740D03*
X157039Y163510D03*
X180390Y-4510D03*
X175100D03*
X198180Y-8410D03*
X193620Y-7770D03*
X181750Y15980D03*
X176320Y15870D03*
X181830Y19560D03*
X176380Y19530D03*
X177710Y49140D03*
X183140D03*
X200710Y42800D03*
X196170Y34710D03*
X196230Y39420D03*
X195420Y44210D03*
X174510Y38790D03*
X194710Y64820D03*
X193490Y92920D03*
X182810Y104350D03*
X197420Y126220D03*
X193710Y145500D03*
X189170Y138171D03*
X201060Y141030D03*
X197799Y133880D03*
X180790Y127130D03*
X194320Y134610D03*
X184450Y132120D03*
X193660Y129980D03*
X197799Y143519D03*
X187660Y141500D03*
X201320Y138171D03*
X197070Y151530D03*
X178910Y157670D03*
X184502Y153570D03*
X190680Y157939D03*
X184820Y149080D03*
X186830Y151280D03*
X190490Y153950D03*
X181290Y159130D03*
X174060Y152350D03*
X200506Y162574D03*
X197440Y157939D03*
X187494Y162736D03*
X184352Y162630D03*
X176845Y162125D03*
X173739Y162700D03*
X218390Y29540D03*
X211140Y27330D03*
X217200Y42800D03*
X218170Y37220D03*
X206710Y42800D03*
X213740Y43820D03*
X224740Y37390D03*
X229650Y37560D03*
X227480Y54370D03*
X220600Y78410D03*
X219130Y74350D03*
X226400Y90157D03*
X214420Y115230D03*
X201860Y116150D03*
X221570Y142080D03*
X218399Y132670D03*
X215761Y134550D03*
X225850Y129560D03*
X212290Y127140D03*
X218399Y143030D03*
X212725Y137495D03*
X212880Y142171D03*
X209850Y134930D03*
X201860Y126800D03*
X221670Y120840D03*
Y138190D03*
X224660Y145750D03*
X214240Y161090D03*
X204656Y146500D03*
X223229Y162149D03*
X203648Y162602D03*
Y153580D03*
X206570Y157939D03*
X242220Y3530D03*
X238690Y-4110D03*
X252570Y18580D03*
X248850Y32460D03*
X256309Y24550D03*
X243150Y10410D03*
X255910Y46850D03*
X253820Y44881D03*
X257990Y34300D03*
X234820Y37560D03*
X239820Y37590D03*
X253553Y50787D03*
X257565Y52755D03*
X253580Y54724D03*
X256568Y56692D03*
X253659Y58661D03*
X255930Y42913D03*
X253620Y40944D03*
X237330Y53360D03*
X254153Y76377D03*
X241600Y67320D03*
X254260Y72420D03*
X255020Y69320D03*
X241975Y61565D03*
X235570Y88030D03*
X236172Y74472D03*
X235412Y67530D03*
X254520Y105905D03*
X242510Y99360D03*
X235990Y115810D03*
X240940Y105890D03*
X243620Y111810D03*
X255700Y99999D03*
X253612Y109842D03*
X256309Y134480D03*
X243090Y121653D03*
X237080Y119684D03*
X231891Y124531D03*
X250720Y159730D03*
X236855Y157085D03*
X253940Y168790D03*
X243090Y169040D03*
X250690Y164170D03*
X237080Y151530D03*
X231891Y146880D03*
X250400Y179310D03*
X268120Y2550D03*
X262720Y16720D03*
X260175Y14785D03*
X260246Y18220D03*
X270100Y14510D03*
X274040Y23930D03*
X262215Y22570D03*
X279390Y6740D03*
X286120Y14560D03*
X274190Y50310D03*
X283868Y34950D03*
X279410Y45030D03*
X283650Y52060D03*
X277790Y49330D03*
X270330Y56320D03*
X267025Y46470D03*
X259360Y45210D03*
X270089Y39220D03*
X266152Y37130D03*
X264183Y39080D03*
X286050Y47480D03*
X258552Y48818D03*
X268120Y34710D03*
X272057Y34927D03*
X275994Y34200D03*
X279931Y34031D03*
X281160Y72500D03*
X280960Y67180D03*
X280980Y78460D03*
X282630Y84760D03*
X270450Y74409D03*
X274760Y74770D03*
X286270Y66980D03*
X286240Y79410D03*
X277250Y80314D03*
X274930Y78346D03*
X268080Y62600D03*
X263280Y71640D03*
X260940Y65480D03*
X258710Y69270D03*
X280900Y63370D03*
X260700Y113779D03*
X271400Y98020D03*
X258510Y98031D03*
X267900Y98020D03*
X262860Y97940D03*
X281730Y114560D03*
X281900Y123560D03*
X277075Y143955D03*
X274100Y137180D03*
X274026Y134150D03*
X275200Y161650D03*
X269190Y163450D03*
X281920Y153950D03*
Y150700D03*
X277320Y168457D03*
X262970Y168570D03*
X263040Y161880D03*
X260600Y187630D03*
X267530Y179640D03*
X314470Y-860D03*
X312230Y-4990D03*
X293415Y23825D03*
X295447Y14757D03*
X298130Y22480D03*
X301585D03*
X302234Y7970D03*
X305522Y19810D03*
X312210Y34410D03*
X293880Y49710D03*
X297648Y36450D03*
X303553Y34110D03*
X310230Y41370D03*
X312210Y38810D03*
X301580Y49880D03*
X295679Y34191D03*
X289774Y38890D03*
X293711Y37020D03*
X291742Y34350D03*
X310980Y66950D03*
X298640Y73140D03*
X298670Y84390D03*
X298660Y66930D03*
X310980Y79300D03*
X298632Y79330D03*
X291742Y116220D03*
X313370Y101830D03*
X308260Y98110D03*
X314080Y104800D03*
X311490Y98000D03*
X305100Y98070D03*
X309459Y106400D03*
X297160Y121850D03*
X293711Y119290D03*
X299616Y124210D03*
X311427Y117760D03*
X289774Y137150D03*
X308790Y134780D03*
X297640Y139710D03*
X302420Y145450D03*
X303553Y135090D03*
X306140Y163840D03*
X297970Y155160D03*
X313140Y149900D03*
X299040Y164030D03*
X310450Y146030D03*
X300037Y168457D03*
X288440Y179200D03*
X325207Y-2990D03*
X325905Y-7145D03*
X316670Y3510D03*
X331080Y1250D03*
X333320Y-2750D03*
X335830Y-7370D03*
X341250Y16940D03*
X319090Y10080D03*
X328800Y5470D03*
X338986Y24596D03*
X335060Y38600D03*
X338390Y34460D03*
X335049Y34300D03*
X321270Y34350D03*
X340630Y38100D03*
X319390Y42690D03*
X319301Y38371D03*
X338986Y88220D03*
X337018Y84210D03*
X333081Y77105D03*
X329144Y65300D03*
X327175Y67450D03*
X325207Y71310D03*
X321980Y84260D03*
X321910Y79280D03*
X322010Y73100D03*
X333550Y71310D03*
X315033Y82283D03*
X335049Y80380D03*
X331112Y73340D03*
X323238Y90140D03*
X321270Y101910D03*
X341230Y113872D03*
X319301Y97960D03*
X325400Y135160D03*
X341216Y117716D03*
X341270Y121653D03*
X316220Y141560D03*
X320970Y134860D03*
X340955Y155840D03*
X332910Y155490D03*
X327520Y168190D03*
X318410Y168740D03*
X329890Y155550D03*
X325370Y174750D03*
X359840Y-21000D03*
X348750Y-13350D03*
X351390Y-9700D03*
X357650Y14940D03*
X368190Y28320D03*
X361820Y27220D03*
X346180Y13040D03*
X357104Y27406D03*
X360150Y49618D03*
X348632Y34362D03*
X369240Y46020D03*
X353810Y51427D03*
X343571Y58661D03*
X364449Y75210D03*
X343140Y86220D03*
X365150Y71390D03*
X357935Y86310D03*
X354452Y82308D03*
X358940Y71360D03*
X353780Y75229D03*
X343813Y82283D03*
X354750Y86260D03*
X353472Y62598D03*
X356683Y64590D03*
X361017Y64453D03*
X365910Y100695D03*
X357640Y113860D03*
X363430Y92130D03*
X353629Y113779D03*
X354480Y109830D03*
X343678Y109842D03*
X343880Y115747D03*
X353630Y92125D03*
X353570Y96062D03*
X356380Y94094D03*
X360000Y93200D03*
X358580Y98031D03*
X353762Y101968D03*
X343150Y103936D03*
X350920Y124090D03*
X343630Y119684D03*
X350440Y139270D03*
X355320Y143570D03*
X359530Y126590D03*
X359540Y130890D03*
Y135190D03*
X359660Y139490D03*
X359380Y143790D03*
X344170Y155840D03*
X350540Y149900D03*
X359290Y148090D03*
X387480Y-10130D03*
X388530Y20050D03*
X388220Y17000D03*
X382680Y14940D03*
X377720Y14930D03*
X391550Y40650D03*
X380310Y39355D03*
X391530Y37520D03*
X392210Y54150D03*
X374390Y80380D03*
X376730Y77105D03*
X376790Y84210D03*
X398860Y63525D03*
X377360Y67525D03*
X396610Y66710D03*
X374710Y88220D03*
X374600Y73340D03*
X371970Y61450D03*
X374650Y91440D03*
X374550Y98800D03*
X374610Y95040D03*
X371660Y105580D03*
X392760Y102570D03*
X388930Y96920D03*
X374530Y102570D03*
X389760Y109780D03*
X384820Y132060D03*
X396260Y121720D03*
X381990Y121080D03*
X378550Y123510D03*
X371210Y141610D03*
X395710Y149240D03*
X391150Y166530D03*
X395510Y145850D03*
X402290Y7780D03*
X411650Y15290D03*
X412010Y28748D03*
Y21704D03*
Y7616D03*
X407080Y56960D03*
X415920Y55960D03*
X423640Y55510D03*
X412640Y49880D03*
X427320Y53380D03*
X412010Y42836D03*
Y35792D03*
X422730Y84850D03*
X416310Y71230D03*
X425595Y71980D03*
X402610Y66490D03*
X419030Y94550D03*
X423625Y97695D03*
X414310Y115620D03*
X411990Y106860D03*
X422730Y115080D03*
X417710Y115180D03*
X418590Y101840D03*
X407040Y99960D03*
X399840Y96730D03*
X410030Y113660D03*
X399460Y142550D03*
X412550Y118920D03*
X420770Y125090D03*
X403990Y118100D03*
X399230Y138990D03*
X406350Y124700D03*
X417430Y124160D03*
X412650Y141130D03*
X422980Y138570D03*
X405150Y154500D03*
X412770Y148850D03*
X415400Y160890D03*
X401150Y166660D03*
X426080Y159840D03*
X448910Y-31370D03*
X440430Y-29570D03*
X454210Y-22570D03*
X450078Y-192D03*
X444752Y4272D03*
X431665Y3815D03*
X443842Y8272D03*
X453800Y15150D03*
X447490Y21160D03*
X431665Y32585D03*
Y24995D03*
Y18085D03*
Y10885D03*
X431240Y55210D03*
X442490Y55750D03*
X446450Y53100D03*
X446460Y58390D03*
X451770Y56800D03*
X431665Y46555D03*
Y39345D03*
X449155Y78190D03*
X434330Y84760D03*
X428560Y79010D03*
X442490Y61030D03*
X446380Y63670D03*
X452330Y75430D03*
X438000Y74590D03*
X428550Y84730D03*
X450980Y69460D03*
X454130Y69430D03*
X442350Y75460D03*
Y86650D03*
X431505Y71955D03*
X452690Y83745D03*
X453910Y100400D03*
X441310Y90790D03*
X427565Y97545D03*
X431505Y97570D03*
X428520Y90530D03*
X444590Y111770D03*
X434940Y107440D03*
X454090Y109630D03*
X442930Y134530D03*
X433440Y123440D03*
X450580Y125460D03*
X453890Y134530D03*
X451810Y158980D03*
X443110Y158860D03*
X446870Y158990D03*
X460810Y-29170D03*
X481170Y-4060D03*
X471250Y-5650D03*
X473900Y-19970D03*
X481010Y2700D03*
Y13530D03*
Y24360D03*
X456660Y43580D03*
X456300Y48850D03*
X481010Y35190D03*
Y46020D03*
X481040Y56870D03*
X463563Y74393D03*
X481100Y121730D03*
X469970Y143270D03*
X463320Y158980D03*
X470100Y147340D03*
X458300Y147270D03*
X455825Y179065D03*
G54D104*
G01X169640Y29810D02*
Y34380D01*
G01Y17640D02*
Y12060D01*
G01Y23810D02*
Y17640D01*
G01Y34380D02*
Y39060D01*
G01X179139Y34520D02*
Y29811D01*
X179140Y29810D01*
G01X179139Y39060D02*
Y34520D01*
G54D11*
X0Y0D03*
Y10000D03*
Y20000D03*
Y127750D03*
Y137750D03*
Y147750D03*
X128140Y41700D03*
X138140D03*
X462830Y26210D03*
Y36210D03*
G54D20*
G01X19530Y-150820D02*
X419530D01*
G01X19530Y-120820D02*
Y-100820D01*
X419530D01*
G01X31478Y9220D02*
X33430D01*
G01X49920Y28030D02*
X51586Y26364D01*
G01X49920Y28030D02*
X51586Y29696D01*
G01X49920Y28030D02*
X51922D01*
G01X49920Y26028D02*
Y28030D01*
G01X50010Y17680D02*
X51676Y16014D01*
G01X50010Y17680D02*
X51676Y19346D01*
G01X50010Y17680D02*
X52012D01*
G01X50010D02*
Y19682D01*
G01Y15678D02*
Y17680D01*
G01X49930Y31990D02*
X51596Y30324D01*
G01X49930Y31990D02*
X51596Y33656D01*
G01X49980Y22040D02*
X51646Y20374D01*
G01X49980Y22040D02*
X51646Y23706D01*
G01X49980Y22040D02*
X51982D01*
G01X49980D02*
Y24042D01*
G01Y20038D02*
Y22040D01*
G01X44344Y19346D02*
X46010Y17680D01*
G01X44008D02*
X46010D01*
G01D02*
Y19682D01*
G01X33430Y9220D02*
X34917Y5318D01*
G01X31943Y13122D02*
X33430Y9220D01*
G01D02*
X34917Y13122D01*
G01X31943Y5318D02*
X33430Y9220D01*
G01D02*
X35382D01*
G01X33430D02*
Y13122D01*
G01Y5318D02*
Y9220D01*
G01X44314Y20374D02*
X45980Y22040D01*
G01X43978D02*
X45980D01*
G01Y20038D02*
Y22040D01*
G01X44254Y29696D02*
X45920Y28030D01*
G01X44254Y26364D02*
X45920Y28030D01*
G01X43918D02*
X45920D01*
G01Y26028D02*
Y28030D01*
G01X38430Y30480D02*
X39917Y26578D01*
G01X36943Y34382D02*
X38430Y30480D01*
G01D02*
X39917Y34382D01*
G01X36943Y26578D02*
X38430Y30480D01*
G01D02*
X40382D01*
G01X36478D02*
X38430D01*
G01D02*
Y34382D01*
G01Y26578D02*
Y30480D01*
G01X44264Y33656D02*
X45930Y31990D01*
G01X44264Y30324D02*
X45930Y31990D01*
G01X49930D02*
X51932D01*
G01X49930D02*
Y33992D01*
G01X43928Y31990D02*
X45930D01*
G01D02*
Y33992D01*
G01X35790Y160550D02*
X39692Y159063D01*
G01X31888Y162037D02*
X35790Y160550D01*
G01D02*
X39692Y162037D01*
G01X31888Y159063D02*
X35790Y160550D01*
G01D02*
X39692D01*
G01X31888D02*
X35790D01*
G01D02*
Y162502D01*
G01Y158598D02*
Y160550D01*
G01X69530Y-170820D02*
Y-150820D01*
G01X104677Y81763D02*
X108339D01*
G01X105120Y143405D02*
X100270D01*
G01X105120Y139465D02*
Y137240D01*
X104640Y136760D01*
G01X105120Y141435D02*
X102595D01*
X101850Y140690D01*
G01X105120Y153255D02*
X104270D01*
X103012Y154513D01*
X101817D01*
G01X105120Y151285D02*
X101925D01*
G01X123741Y70360D02*
Y73889D01*
G01X117024Y71109D02*
Y67980D01*
G01X130290Y73830D02*
X128263Y75857D01*
X123741D01*
G01X141055Y162385D02*
X139440Y160770D01*
Y160032D01*
G01Y155308D02*
Y152650D01*
G01X137078Y155701D02*
Y153798D01*
X136260Y152980D01*
G01X171190Y130980D02*
Y128010D01*
G01X157039Y155308D02*
Y153399D01*
X155980Y152340D01*
G01X151420Y149300D02*
Y152794D01*
X154327Y155701D01*
X154677D01*
G01X171377D02*
Y153160D01*
G01X157039Y160032D02*
Y163510D01*
G01X195030Y-170820D02*
Y-150820D01*
G01X194530Y-100820D02*
Y-70820D01*
G01X187954Y-5806D02*
X189620Y-4140D01*
G01X187618D02*
X189620D01*
G01Y-6142D02*
Y-4140D01*
G01X181290Y159130D02*
X182481Y157939D01*
X184502D01*
G01X174060Y152350D02*
X173739Y152671D01*
Y155308D01*
G01X200506Y159908D02*
Y162574D01*
G01X200656Y157939D02*
X197440D01*
G01X187494Y159908D02*
Y162736D01*
G01X184352Y159908D02*
Y162630D01*
G01X176845Y162125D02*
X176101Y161381D01*
Y159639D01*
G01X173739Y160032D02*
Y162700D01*
G01X203648Y159908D02*
Y162602D01*
G01X244530Y-170820D02*
Y-150820D01*
G01X248632Y68503D02*
X254203D01*
X255020Y69320D01*
G01X241975Y61565D02*
X243008Y62598D01*
X248632D01*
G01X244566Y64566D02*
X248632D01*
G01Y70472D02*
X243520D01*
G01X243620Y111810D02*
X248632D01*
G01X239332D02*
X243620D01*
G01X248632Y109842D02*
X253612D01*
G01X276700Y9330D02*
X278845Y10304D01*
G01X276700Y9330D02*
X278366Y7664D01*
G01X276700Y9330D02*
X278702D01*
G01X280354Y7666D02*
X282020Y9332D01*
G01X280018D02*
X282020D01*
G01Y7330D02*
Y9332D01*
G01X274026Y29330D02*
Y23944D01*
X274040Y23930D01*
G01X283868Y34950D02*
Y29330D01*
G01D02*
Y23062D01*
X283880Y23050D01*
Y20800D01*
G01X275994Y29330D02*
Y34200D01*
G01X279931Y29330D02*
Y34031D01*
G01X307490Y129330D02*
Y133480D01*
X308790Y134780D01*
G01X303553Y129330D02*
Y135090D01*
G01X305522Y129330D02*
Y134113D01*
X306447Y135038D01*
Y138020D01*
G01X335049Y29330D02*
Y23621D01*
G01Y29330D02*
Y34300D01*
G01X337018Y29330D02*
Y33088D01*
X338390Y34460D01*
G01X348632Y37007D02*
Y34362D01*
G01Y52755D02*
X352482D01*
X353810Y51427D01*
G01X353780Y75229D02*
X352632Y76377D01*
X348632D01*
G01Y78346D02*
X357935D01*
G01X343150Y103936D02*
X348632D01*
G01Y105905D02*
X357935D01*
G01X425595Y75280D02*
Y71980D01*
G01X419100Y77835D02*
X415435D01*
X412830Y75230D01*
G01X421655Y94180D02*
X419400D01*
X419030Y94550D01*
G01X425697Y116207D02*
X429199Y119200D01*
G01X425697Y122193D02*
X429199Y119200D01*
G01X425697D02*
X429199D01*
G01X442350Y86650D02*
X441400D01*
X440465Y85715D01*
X438000D01*
G01Y83745D02*
X441465D01*
G01X431505Y75280D02*
Y71955D01*
G01X429199Y119200D02*
X432701Y116207D01*
G01X431910Y106300D02*
X433576Y104634D01*
G01X430244Y107966D02*
X431910Y106300D01*
G01D02*
X433576Y107966D01*
G01X430244Y104634D02*
X431910Y106300D01*
G01D02*
X433912D01*
G01X431910D02*
Y108302D01*
G01Y104298D02*
Y106300D01*
G01X437700Y106240D02*
X439366Y104574D01*
G01X436034Y107906D02*
X437700Y106240D01*
G01D02*
X439366Y107906D01*
G01X436034Y104574D02*
X437700Y106240D01*
G01X435698D02*
X437700D01*
G01D02*
Y108242D01*
G01Y104238D02*
Y106240D01*
G01X434359Y115893D02*
X437861Y112900D01*
G01X434359Y109907D02*
X437861Y112900D01*
G01X434359D02*
X437861D01*
G01Y109798D02*
Y112900D01*
G01X429199Y119200D02*
X432701Y122193D01*
G01X429199Y119200D02*
X432701D01*
G01X429199D02*
Y122302D01*
X22619Y56330D03*
Y101330D03*
X69878Y-18983D03*
X100150Y-15240D03*
X125150Y174760D03*
X440150Y173990D03*
X465150Y-15580D03*
G54D105*
G01X70195Y64605D02*
X68945Y63355D01*
X66053D01*
X62758Y66650D01*
X53966D01*
X52669Y65353D01*
X52266Y64547D01*
X51595Y64322D01*
X47580Y66330D01*
G01X70195Y60905D02*
X68945Y62155D01*
X65555D01*
X62260Y65450D01*
X54464D01*
X53656Y64642D01*
X53340Y64010D01*
X53563Y63339D01*
X57580Y61330D01*
G01X71280Y98758D02*
X70002Y97480D01*
X54886D01*
X52585Y95179D01*
X52268Y94546D01*
X51597Y94321D01*
X47580Y96330D01*
G01X71280Y95002D02*
X70002Y96280D01*
X55384D01*
X53571Y94467D01*
X53342Y94009D01*
X53565Y93338D01*
X57580Y91330D01*
G01X74040Y59470D02*
Y60268D01*
X72153Y62155D01*
X71445D01*
X70195Y60905D01*
G01X74040Y65810D02*
Y65242D01*
X72153Y63355D01*
X71445D01*
X70195Y64605D01*
G01X75070Y93740D02*
Y94476D01*
X73266Y96280D01*
X72558D01*
X71280Y95002D01*
G01X75070Y99990D02*
Y99284D01*
X73266Y97480D01*
X72558D01*
X71280Y98758D01*
G01X129230Y77830D02*
X127480D01*
X127476Y77826D01*
X123741D01*
G01X127280Y83731D02*
X123741D01*
G01Y81763D02*
X129250D01*
G01X127370Y79794D02*
X123741D01*
G54D12*
X0Y30000D03*
Y157750D03*
X148140Y41700D03*
X462830Y46210D03*
G54D21*
X34627Y48220D03*
Y109440D03*
G54D30*
X45469Y-22920D03*
X84445D03*
G54D106*
G01X25400Y-35390D02*
X450400D01*
G03X485400Y-390I0J35000D01*
G01Y159610D01*
G03X450400Y194610I-35000J0D01*
G01X25300D01*
G03X-9700Y159610I0J-35000D01*
G01X-9600Y-380D01*
Y-390D01*
G03X25400Y-35390I35000J0D01*
G01X171190Y128010D02*
X170444Y127264D01*
Y125288D01*
G01X167196Y122532D02*
Y118700D01*
G01X194320Y134610D02*
X195161Y135451D01*
Y136793D01*
G01X197799Y140927D02*
Y143519D01*
G01X215761Y136793D02*
Y134550D01*
G01X218399Y140927D02*
Y143030D01*
G01X429280Y99230D02*
X429535Y98975D01*
Y94180D01*
G01X425595D02*
Y99080D01*
G54D40*
X80040Y59470D03*
X74040D03*
X80040Y65810D03*
X74040D03*
X81070Y93740D03*
X75070D03*
X81070Y99990D03*
X75070D03*
X74534Y133230D03*
X80534D03*
X81830Y159760D03*
X75830D03*
X97940Y118520D03*
X91940D03*
Y124730D03*
X97940D03*
X129741Y58570D03*
X123741D03*
X138390Y54200D03*
X144390D03*
X145451Y66970D03*
X124910Y102470D03*
X118910D03*
X124910Y95400D03*
X118910D03*
X151451Y66970D03*
X198180Y-4170D03*
X204180D03*
X219120Y51250D03*
X225120D03*
X220600Y82550D03*
X226600D03*
X209280Y152450D03*
X215280D03*
X374535Y32700D03*
X380535D03*
X374536Y25700D03*
X380536D03*
X374535Y57382D03*
X380535D03*
X396610Y70715D03*
X374535Y64382D03*
X380535D03*
X384935Y88220D03*
X378935D03*
X396610Y85715D03*
X384935Y80380D03*
X378935D03*
X396610Y78215D03*
X384845Y73340D03*
X378845D03*
X384935Y102570D03*
X378935D03*
X396610Y100715D03*
X384935Y95040D03*
X378935D03*
X396610Y93215D03*
X402610Y70715D03*
Y85715D03*
Y78215D03*
Y100715D03*
Y93215D03*
X449400Y15150D03*
X443400D03*
X453840Y90189D03*
X454000Y113620D03*
X448000D03*
X459840Y90189D03*
X467560Y134370D03*
X461560D03*
G54D22*
X16060Y127740D03*
X175150Y-15240D03*
X229150Y174760D03*
X236450Y82550D03*
X265150Y-15240D03*
X290720Y145840D03*
X315150Y174760D03*
X355150Y-15240D03*
X378060Y45290D03*
X425150Y174760D03*
G54D13*
X3328Y63928D03*
Y103732D03*
X9312Y53928D03*
Y93732D03*
X57580Y61330D03*
X47580Y86330D03*
Y76330D03*
Y66330D03*
X57580Y71330D03*
Y81330D03*
Y91330D03*
G54D31*
X49012Y5820D03*
X69484D03*
X82870D03*
G54D107*
G01X25320Y-167320D02*
Y-161320D01*
X22422Y-165620D01*
X26338D01*
G01X36980Y-167320D02*
X36353Y-167220D01*
X35805Y-166820D01*
X35335Y-166220D01*
X35022Y-165520D01*
X34865Y-164720D01*
Y-163920D01*
X35022Y-163120D01*
X35335Y-162420D01*
X35805Y-161820D01*
X36353Y-161420D01*
X36980Y-161320D01*
X37607Y-161420D01*
X38155Y-161820D01*
X38625Y-162420D01*
X38938Y-163120D01*
X39095Y-163920D01*
Y-164720D01*
X38938Y-165520D01*
X38625Y-166220D01*
X38155Y-166820D01*
X37607Y-167220D01*
X36980Y-167320D01*
G01X41792D02*
Y-161320D01*
X44768D01*
G01X43672Y-164220D02*
X41792D01*
G01X55880Y-167320D02*
Y-161320D01*
X54940Y-162520D01*
G01Y-167320D02*
X56820D01*
G01X60692Y-162320D02*
X61162Y-161720D01*
X61710Y-161420D01*
X62337Y-161320D01*
X63120Y-161520D01*
X63668Y-162020D01*
X63825Y-162620D01*
X63747Y-163220D01*
X63433Y-163720D01*
X61867Y-164720D01*
X61162Y-165420D01*
X60692Y-166420D01*
X60535Y-167320D01*
X63825D01*
G01X30938Y-147820D02*
Y-143820D01*
X33622Y-147820D01*
Y-143820D01*
G01X35855Y-147820D02*
X38305Y-143820D01*
G01X35855D02*
X38305Y-147820D01*
G01X40713D02*
Y-143820D01*
X42113D01*
X42580Y-144020D01*
X42930Y-144487D01*
X43047Y-145020D01*
X42930Y-145553D01*
X42638Y-145953D01*
X42113Y-146153D01*
X40713D01*
G01X46680Y-147953D02*
X46563Y-147887D01*
Y-147753D01*
X46680Y-147687D01*
X46797Y-147753D01*
Y-147887D01*
X46680Y-147953D01*
G01X31280Y-139820D02*
X30813Y-139753D01*
X30405Y-139487D01*
X30055Y-139087D01*
X29822Y-138620D01*
X29705Y-138087D01*
Y-137553D01*
X29822Y-137020D01*
X30055Y-136553D01*
X30405Y-136153D01*
X30813Y-135887D01*
X31280Y-135820D01*
X31747Y-135887D01*
X32155Y-136153D01*
X32505Y-136553D01*
X32738Y-137020D01*
X32855Y-137553D01*
Y-138087D01*
X32738Y-138620D01*
X32505Y-139087D01*
X32155Y-139487D01*
X31747Y-139753D01*
X31280Y-139820D01*
G01X34913D02*
Y-135820D01*
X36372D01*
X36838Y-136020D01*
X37130Y-136287D01*
X37247Y-136820D01*
X37130Y-137353D01*
X36780Y-137687D01*
X36372Y-137887D01*
X34913D01*
G01X36372D02*
X37247Y-139820D01*
G01X44980Y-135820D02*
X46380D01*
G01X45680D02*
Y-139820D01*
G01X44980D02*
X46380D01*
G01X49138D02*
Y-135820D01*
X51822Y-139820D01*
Y-135820D01*
G01X58913Y-139820D02*
Y-135820D01*
X60313D01*
X60780Y-136020D01*
X61130Y-136487D01*
X61247Y-137020D01*
X61130Y-137553D01*
X60838Y-137953D01*
X60313Y-138153D01*
X58913D01*
G01X63422Y-139820D02*
X64880Y-135820D01*
X66338Y-139820D01*
G01X65813Y-138420D02*
X63947D01*
G01X68513Y-139820D02*
Y-135820D01*
X69972D01*
X70438Y-136020D01*
X70730Y-136287D01*
X70847Y-136820D01*
X70730Y-137353D01*
X70380Y-137687D01*
X69972Y-137887D01*
X68513D01*
G01X69972D02*
X70847Y-139820D01*
G01X74480Y-135820D02*
Y-139820D01*
G01X73138Y-135820D02*
X75822D01*
G01X82330D02*
X83147Y-139820D01*
X84080Y-135820D01*
X85013Y-139820D01*
X85830Y-135820D01*
G01X88180D02*
X89580D01*
G01X88880D02*
Y-139820D01*
G01X88180D02*
X89580D01*
G01X93680Y-135820D02*
Y-139820D01*
G01X92338Y-135820D02*
X95022D01*
G01X97255Y-139820D02*
Y-135820D01*
G01X99705D02*
Y-139820D01*
G01Y-137820D02*
X97255D01*
G01X103280Y-139820D02*
X102813Y-139753D01*
X102405Y-139487D01*
X102055Y-139087D01*
X101822Y-138620D01*
X101705Y-138087D01*
Y-137553D01*
X101822Y-137020D01*
X102055Y-136553D01*
X102405Y-136153D01*
X102813Y-135887D01*
X103280Y-135820D01*
X103747Y-135887D01*
X104155Y-136153D01*
X104505Y-136553D01*
X104738Y-137020D01*
X104855Y-137553D01*
Y-138087D01*
X104738Y-138620D01*
X104505Y-139087D01*
X104155Y-139487D01*
X103747Y-139753D01*
X103280Y-139820D01*
G01X106797Y-135820D02*
Y-138687D01*
X107030Y-139287D01*
X107497Y-139687D01*
X108080Y-139820D01*
X108663Y-139687D01*
X109130Y-139287D01*
X109363Y-138687D01*
Y-135820D01*
G01X112880D02*
Y-139820D01*
G01X111538Y-135820D02*
X114222D01*
G01X122480D02*
Y-139820D01*
G01X121138Y-135820D02*
X123822D01*
G01X126055Y-139820D02*
Y-135820D01*
G01X128505D02*
Y-139820D01*
G01Y-137820D02*
X126055D01*
G01X133247Y-139820D02*
X130913D01*
Y-135820D01*
X133247D01*
G01X132313Y-137753D02*
X130913D01*
G01X142963Y-136153D02*
X142613Y-135953D01*
X142205Y-135820D01*
X141738D01*
X141213Y-136020D01*
X140805Y-136353D01*
X140513Y-136753D01*
X140280Y-137420D01*
X140222Y-138020D01*
X140338Y-138620D01*
X140513Y-139020D01*
X140863Y-139420D01*
X141272Y-139687D01*
X141680Y-139820D01*
X142088D01*
X142497Y-139687D01*
X142847Y-139487D01*
X143138Y-139220D01*
G01X146480Y-139820D02*
X146013Y-139753D01*
X145605Y-139487D01*
X145255Y-139087D01*
X145022Y-138620D01*
X144905Y-138087D01*
Y-137553D01*
X145022Y-137020D01*
X145255Y-136553D01*
X145605Y-136153D01*
X146013Y-135887D01*
X146480Y-135820D01*
X146947Y-135887D01*
X147355Y-136153D01*
X147705Y-136553D01*
X147938Y-137020D01*
X148055Y-137553D01*
Y-138087D01*
X147938Y-138620D01*
X147705Y-139087D01*
X147355Y-139487D01*
X146947Y-139753D01*
X146480Y-139820D01*
G01X149938D02*
Y-135820D01*
X152622Y-139820D01*
Y-135820D01*
G01X154855Y-139287D02*
X155322Y-139620D01*
X155847Y-139820D01*
X156313D01*
X156780Y-139620D01*
X157130Y-139287D01*
X157305Y-138820D01*
X157188Y-138353D01*
X156897Y-137953D01*
X156372Y-137687D01*
X155672Y-137553D01*
X155263Y-137287D01*
X155088Y-136820D01*
X155205Y-136353D01*
X155497Y-136020D01*
X155905Y-135820D01*
X156313D01*
X156722Y-135953D01*
X157072Y-136287D01*
G01X162047Y-139820D02*
X159713D01*
Y-135820D01*
X162047D01*
G01X161113Y-137753D02*
X159713D01*
G01X164338Y-139820D02*
Y-135820D01*
X167022Y-139820D01*
Y-135820D01*
G01X170480D02*
Y-139820D01*
G01X169138Y-135820D02*
X171822D01*
G01X180080Y-139820D02*
X179613Y-139753D01*
X179205Y-139487D01*
X178855Y-139087D01*
X178622Y-138620D01*
X178505Y-138087D01*
Y-137553D01*
X178622Y-137020D01*
X178855Y-136553D01*
X179205Y-136153D01*
X179613Y-135887D01*
X180080Y-135820D01*
X180547Y-135887D01*
X180955Y-136153D01*
X181305Y-136553D01*
X181538Y-137020D01*
X181655Y-137553D01*
Y-138087D01*
X181538Y-138620D01*
X181305Y-139087D01*
X180955Y-139487D01*
X180547Y-139753D01*
X180080Y-139820D01*
G01X183772D02*
Y-135820D01*
X185988D01*
G01X185172Y-137753D02*
X183772D01*
G01X23055Y-158287D02*
X23522Y-158620D01*
X24047Y-158820D01*
X24513D01*
X24980Y-158620D01*
X25330Y-158287D01*
X25505Y-157820D01*
X25388Y-157353D01*
X25097Y-156953D01*
X24572Y-156687D01*
X23872Y-156553D01*
X23463Y-156287D01*
X23288Y-155820D01*
X23405Y-155353D01*
X23697Y-155020D01*
X24105Y-154820D01*
X24513D01*
X24922Y-154953D01*
X25272Y-155287D01*
G01X27855Y-158820D02*
Y-154820D01*
G01X30305D02*
Y-158820D01*
G01Y-156820D02*
X27855D01*
G01X35047Y-158820D02*
X32713D01*
Y-154820D01*
X35047D01*
G01X34113Y-156753D02*
X32713D01*
G01X39847Y-158820D02*
X37513D01*
Y-154820D01*
X39847D01*
G01X38913Y-156753D02*
X37513D01*
G01X43480Y-154820D02*
Y-158820D01*
G01X42138Y-154820D02*
X44822D01*
G01X30113Y-115820D02*
Y-111820D01*
X31513D01*
X31980Y-112020D01*
X32330Y-112487D01*
X32447Y-113020D01*
X32330Y-113553D01*
X32038Y-113953D01*
X31513Y-114153D01*
X30113D01*
G01X34913Y-115820D02*
Y-111820D01*
X36372D01*
X36838Y-112020D01*
X37130Y-112287D01*
X37247Y-112820D01*
X37130Y-113353D01*
X36780Y-113687D01*
X36372Y-113887D01*
X34913D01*
G01X36372D02*
X37247Y-115820D01*
G01X40880D02*
X40413Y-115753D01*
X40005Y-115487D01*
X39655Y-115087D01*
X39422Y-114620D01*
X39305Y-114087D01*
Y-113553D01*
X39422Y-113020D01*
X39655Y-112553D01*
X40005Y-112153D01*
X40413Y-111887D01*
X40880Y-111820D01*
X41347Y-111887D01*
X41755Y-112153D01*
X42105Y-112553D01*
X42338Y-113020D01*
X42455Y-113553D01*
Y-114087D01*
X42338Y-114620D01*
X42105Y-115087D01*
X41755Y-115487D01*
X41347Y-115753D01*
X40880Y-115820D01*
G01X44513D02*
Y-111820D01*
X45913D01*
X46380Y-112020D01*
X46730Y-112487D01*
X46847Y-113020D01*
X46730Y-113553D01*
X46438Y-113953D01*
X45913Y-114153D01*
X44513D01*
G01X49313Y-115820D02*
Y-111820D01*
X50772D01*
X51238Y-112020D01*
X51530Y-112287D01*
X51647Y-112820D01*
X51530Y-113353D01*
X51180Y-113687D01*
X50772Y-113887D01*
X49313D01*
G01X50772D02*
X51647Y-115820D01*
G01X54580Y-111820D02*
X55980D01*
G01X55280D02*
Y-115820D01*
G01X54580D02*
X55980D01*
G01X61247D02*
X58913D01*
Y-111820D01*
X61247D01*
G01X60313Y-113753D02*
X58913D01*
G01X64880Y-111820D02*
Y-115820D01*
G01X63538Y-111820D02*
X66222D01*
G01X68222Y-115820D02*
X69680Y-111820D01*
X71138Y-115820D01*
G01X70613Y-114420D02*
X68747D01*
G01X73313Y-115820D02*
Y-111820D01*
X74772D01*
X75238Y-112020D01*
X75530Y-112287D01*
X75647Y-112820D01*
X75530Y-113353D01*
X75180Y-113687D01*
X74772Y-113887D01*
X73313D01*
G01X74772D02*
X75647Y-115820D01*
G01X79280D02*
Y-114020D01*
X78113Y-111820D01*
G01X80447D02*
X79280Y-114020D01*
G01X88880Y-111820D02*
Y-115820D01*
G01X87538Y-111820D02*
X90222D01*
G01X93680Y-115820D02*
X93213Y-115753D01*
X92805Y-115487D01*
X92455Y-115087D01*
X92222Y-114620D01*
X92105Y-114087D01*
Y-113553D01*
X92222Y-113020D01*
X92455Y-112553D01*
X92805Y-112153D01*
X93213Y-111887D01*
X93680Y-111820D01*
X94147Y-111887D01*
X94555Y-112153D01*
X94905Y-112553D01*
X95138Y-113020D01*
X95255Y-113553D01*
Y-114087D01*
X95138Y-114620D01*
X94905Y-115087D01*
X94555Y-115487D01*
X94147Y-115753D01*
X93680Y-115820D01*
G01X101938D02*
Y-111820D01*
X104622Y-115820D01*
Y-111820D01*
G01X106855Y-115820D02*
X109305Y-111820D01*
G01X106855D02*
X109305Y-115820D01*
G01X111713D02*
Y-111820D01*
X113113D01*
X113580Y-112020D01*
X113930Y-112487D01*
X114047Y-113020D01*
X113930Y-113553D01*
X113638Y-113953D01*
X113113Y-114153D01*
X111713D01*
G01X121022Y-115820D02*
X122480Y-111820D01*
X123938Y-115820D01*
G01X123413Y-114420D02*
X121547D01*
G01X125938Y-115820D02*
Y-111820D01*
X128622Y-115820D01*
Y-111820D01*
G01X130797Y-115820D02*
Y-111820D01*
X131963D01*
X132430Y-112020D01*
X132780Y-112287D01*
X133072Y-112687D01*
X133305Y-113153D01*
X133363Y-113820D01*
X133305Y-114487D01*
X133072Y-114953D01*
X132780Y-115353D01*
X132430Y-115620D01*
X131963Y-115820D01*
X130797D01*
G01X140455Y-115287D02*
X140922Y-115620D01*
X141447Y-115820D01*
X141913D01*
X142380Y-115620D01*
X142730Y-115287D01*
X142905Y-114820D01*
X142788Y-114353D01*
X142497Y-113953D01*
X141972Y-113687D01*
X141272Y-113553D01*
X140863Y-113287D01*
X140688Y-112820D01*
X140805Y-112353D01*
X141097Y-112020D01*
X141505Y-111820D01*
X141913D01*
X142322Y-111953D01*
X142672Y-112287D01*
G01X145255Y-115820D02*
Y-111820D01*
G01X147705D02*
Y-115820D01*
G01Y-113820D02*
X145255D01*
G01X149822Y-115820D02*
X151280Y-111820D01*
X152738Y-115820D01*
G01X152213Y-114420D02*
X150347D01*
G01X154913Y-111820D02*
Y-115820D01*
X157247D01*
G01X159713Y-111820D02*
Y-115820D01*
X162047D01*
G01X30113Y-131820D02*
Y-127820D01*
X31513D01*
X31980Y-128020D01*
X32330Y-128487D01*
X32447Y-129020D01*
X32330Y-129553D01*
X32038Y-129953D01*
X31513Y-130153D01*
X30113D01*
G01X34913Y-131820D02*
Y-127820D01*
X36372D01*
X36838Y-128020D01*
X37130Y-128287D01*
X37247Y-128820D01*
X37130Y-129353D01*
X36780Y-129687D01*
X36372Y-129887D01*
X34913D01*
G01X36372D02*
X37247Y-131820D01*
G01X40880D02*
X40413Y-131753D01*
X40005Y-131487D01*
X39655Y-131087D01*
X39422Y-130620D01*
X39305Y-130087D01*
Y-129553D01*
X39422Y-129020D01*
X39655Y-128553D01*
X40005Y-128153D01*
X40413Y-127887D01*
X40880Y-127820D01*
X41347Y-127887D01*
X41755Y-128153D01*
X42105Y-128553D01*
X42338Y-129020D01*
X42455Y-129553D01*
Y-130087D01*
X42338Y-130620D01*
X42105Y-131087D01*
X41755Y-131487D01*
X41347Y-131753D01*
X40880Y-131820D01*
G01X46963Y-128153D02*
X46613Y-127953D01*
X46205Y-127820D01*
X45738D01*
X45213Y-128020D01*
X44805Y-128353D01*
X44513Y-128753D01*
X44280Y-129420D01*
X44222Y-130020D01*
X44338Y-130620D01*
X44513Y-131020D01*
X44863Y-131420D01*
X45272Y-131687D01*
X45680Y-131820D01*
X46088D01*
X46497Y-131687D01*
X46847Y-131487D01*
X47138Y-131220D01*
G01X49197Y-127820D02*
Y-130687D01*
X49430Y-131287D01*
X49897Y-131687D01*
X50480Y-131820D01*
X51063Y-131687D01*
X51530Y-131287D01*
X51763Y-130687D01*
Y-127820D01*
G01X54113Y-131820D02*
Y-127820D01*
X55572D01*
X56038Y-128020D01*
X56330Y-128287D01*
X56447Y-128820D01*
X56330Y-129353D01*
X55980Y-129687D01*
X55572Y-129887D01*
X54113D01*
G01X55572D02*
X56447Y-131820D01*
G01X61247D02*
X58913D01*
Y-127820D01*
X61247D01*
G01X60313Y-129753D02*
X58913D01*
G01X63363Y-131820D02*
Y-127820D01*
X64880Y-131153D01*
X66397Y-127820D01*
Y-131820D01*
G01X70847D02*
X68513D01*
Y-127820D01*
X70847D01*
G01X69913Y-129753D02*
X68513D01*
G01X73138Y-131820D02*
Y-127820D01*
X75822Y-131820D01*
Y-127820D01*
G01X79280D02*
Y-131820D01*
G01X77938Y-127820D02*
X80622D01*
G01X88880Y-131820D02*
X88413Y-131753D01*
X88005Y-131487D01*
X87655Y-131087D01*
X87422Y-130620D01*
X87305Y-130087D01*
Y-129553D01*
X87422Y-129020D01*
X87655Y-128553D01*
X88005Y-128153D01*
X88413Y-127887D01*
X88880Y-127820D01*
X89347Y-127887D01*
X89755Y-128153D01*
X90105Y-128553D01*
X90338Y-129020D01*
X90455Y-129553D01*
Y-130087D01*
X90338Y-130620D01*
X90105Y-131087D01*
X89755Y-131487D01*
X89347Y-131753D01*
X88880Y-131820D01*
G01X92513D02*
Y-127820D01*
X93972D01*
X94438Y-128020D01*
X94730Y-128287D01*
X94847Y-128820D01*
X94730Y-129353D01*
X94380Y-129687D01*
X93972Y-129887D01*
X92513D01*
G01X93972D02*
X94847Y-131820D01*
G01X101763D02*
Y-127820D01*
X103280Y-131153D01*
X104797Y-127820D01*
Y-131820D01*
G01X106622D02*
X108080Y-127820D01*
X109538Y-131820D01*
G01X109013Y-130420D02*
X107147D01*
G01X111538Y-131820D02*
Y-127820D01*
X114222Y-131820D01*
Y-127820D01*
G01X116397D02*
Y-130687D01*
X116630Y-131287D01*
X117097Y-131687D01*
X117680Y-131820D01*
X118263Y-131687D01*
X118730Y-131287D01*
X118963Y-130687D01*
Y-127820D01*
G01X121372Y-131820D02*
Y-127820D01*
X123588D01*
G01X122772Y-129753D02*
X121372D01*
G01X125822Y-131820D02*
X127280Y-127820D01*
X128738Y-131820D01*
G01X128213Y-130420D02*
X126347D01*
G01X133363Y-128153D02*
X133013Y-127953D01*
X132605Y-127820D01*
X132138D01*
X131613Y-128020D01*
X131205Y-128353D01*
X130913Y-128753D01*
X130680Y-129420D01*
X130622Y-130020D01*
X130738Y-130620D01*
X130913Y-131020D01*
X131263Y-131420D01*
X131672Y-131687D01*
X132080Y-131820D01*
X132488D01*
X132897Y-131687D01*
X133247Y-131487D01*
X133538Y-131220D01*
G01X136880Y-127820D02*
Y-131820D01*
G01X135538Y-127820D02*
X138222D01*
G01X140397D02*
Y-130687D01*
X140630Y-131287D01*
X141097Y-131687D01*
X141680Y-131820D01*
X142263Y-131687D01*
X142730Y-131287D01*
X142963Y-130687D01*
Y-127820D01*
G01X145313Y-131820D02*
Y-127820D01*
X146772D01*
X147238Y-128020D01*
X147530Y-128287D01*
X147647Y-128820D01*
X147530Y-129353D01*
X147180Y-129687D01*
X146772Y-129887D01*
X145313D01*
G01X146772D02*
X147647Y-131820D01*
G01X152447D02*
X150113D01*
Y-127820D01*
X152447D01*
G01X151513Y-129753D02*
X150113D01*
G01X160180Y-127820D02*
X161580D01*
G01X160880D02*
Y-131820D01*
G01X160180D02*
X161580D01*
G01X164338D02*
Y-127820D01*
X167022Y-131820D01*
Y-127820D01*
G01X173530D02*
X174347Y-131820D01*
X175280Y-127820D01*
X176213Y-131820D01*
X177030Y-127820D01*
G01X178855Y-131820D02*
Y-127820D01*
G01X181305D02*
Y-131820D01*
G01Y-129820D02*
X178855D01*
G01X184880Y-131820D02*
X184413Y-131753D01*
X184005Y-131487D01*
X183655Y-131087D01*
X183422Y-130620D01*
X183305Y-130087D01*
Y-129553D01*
X183422Y-129020D01*
X183655Y-128553D01*
X184005Y-128153D01*
X184413Y-127887D01*
X184880Y-127820D01*
X185347Y-127887D01*
X185755Y-128153D01*
X186105Y-128553D01*
X186338Y-129020D01*
X186455Y-129553D01*
Y-130087D01*
X186338Y-130620D01*
X186105Y-131087D01*
X185755Y-131487D01*
X185347Y-131753D01*
X184880Y-131820D01*
G01X188513Y-127820D02*
Y-131820D01*
X190847D01*
G01X195647D02*
X193313D01*
Y-127820D01*
X195647D01*
G01X194713Y-129753D02*
X193313D01*
G01X29938Y-123820D02*
Y-119820D01*
X32622Y-123820D01*
Y-119820D01*
G01X36080Y-123820D02*
X35613Y-123753D01*
X35205Y-123487D01*
X34855Y-123087D01*
X34622Y-122620D01*
X34505Y-122087D01*
Y-121553D01*
X34622Y-121020D01*
X34855Y-120553D01*
X35205Y-120153D01*
X35613Y-119887D01*
X36080Y-119820D01*
X36547Y-119887D01*
X36955Y-120153D01*
X37305Y-120553D01*
X37538Y-121020D01*
X37655Y-121553D01*
Y-122087D01*
X37538Y-122620D01*
X37305Y-123087D01*
X36955Y-123487D01*
X36547Y-123753D01*
X36080Y-123820D01*
G01X40880Y-119820D02*
Y-123820D01*
G01X39538Y-119820D02*
X42222D01*
G01X50947Y-121687D02*
X51180Y-121487D01*
X51355Y-121153D01*
X51472Y-120687D01*
X51355Y-120287D01*
X51122Y-120020D01*
X50713Y-119820D01*
X49138D01*
Y-123820D01*
X51063D01*
X51472Y-123553D01*
X51705Y-123153D01*
X51822Y-122687D01*
X51705Y-122220D01*
X51355Y-121820D01*
X50947Y-121687D01*
X49138D01*
G01X56447Y-123820D02*
X54113D01*
Y-119820D01*
X56447D01*
G01X55513Y-121753D02*
X54113D01*
G01X63597Y-119820D02*
Y-122687D01*
X63830Y-123287D01*
X64297Y-123687D01*
X64880Y-123820D01*
X65463Y-123687D01*
X65930Y-123287D01*
X66163Y-122687D01*
Y-119820D01*
G01X68455Y-123287D02*
X68922Y-123620D01*
X69447Y-123820D01*
X69913D01*
X70380Y-123620D01*
X70730Y-123287D01*
X70905Y-122820D01*
X70788Y-122353D01*
X70497Y-121953D01*
X69972Y-121687D01*
X69272Y-121553D01*
X68863Y-121287D01*
X68688Y-120820D01*
X68805Y-120353D01*
X69097Y-120020D01*
X69505Y-119820D01*
X69913D01*
X70322Y-119953D01*
X70672Y-120287D01*
G01X75647Y-123820D02*
X73313D01*
Y-119820D01*
X75647D01*
G01X74713Y-121753D02*
X73313D01*
G01X77997Y-123820D02*
Y-119820D01*
X79163D01*
X79630Y-120020D01*
X79980Y-120287D01*
X80272Y-120687D01*
X80505Y-121153D01*
X80563Y-121820D01*
X80505Y-122487D01*
X80272Y-122953D01*
X79980Y-123353D01*
X79630Y-123620D01*
X79163Y-123820D01*
X77997D01*
G01X87772D02*
Y-119820D01*
X89988D01*
G01X89172Y-121753D02*
X87772D01*
G01X93680Y-123820D02*
X93213Y-123753D01*
X92805Y-123487D01*
X92455Y-123087D01*
X92222Y-122620D01*
X92105Y-122087D01*
Y-121553D01*
X92222Y-121020D01*
X92455Y-120553D01*
X92805Y-120153D01*
X93213Y-119887D01*
X93680Y-119820D01*
X94147Y-119887D01*
X94555Y-120153D01*
X94905Y-120553D01*
X95138Y-121020D01*
X95255Y-121553D01*
Y-122087D01*
X95138Y-122620D01*
X94905Y-123087D01*
X94555Y-123487D01*
X94147Y-123753D01*
X93680Y-123820D01*
G01X97313D02*
Y-119820D01*
X98772D01*
X99238Y-120020D01*
X99530Y-120287D01*
X99647Y-120820D01*
X99530Y-121353D01*
X99180Y-121687D01*
X98772Y-121887D01*
X97313D01*
G01X98772D02*
X99647Y-123820D01*
G01X109247D02*
X106913D01*
Y-119820D01*
X109247D01*
G01X108313Y-121753D02*
X106913D01*
G01X111538Y-123820D02*
Y-119820D01*
X114222Y-123820D01*
Y-119820D01*
G01X118030Y-121820D02*
X119197D01*
Y-123020D01*
X118847Y-123420D01*
X118438Y-123687D01*
X117855Y-123820D01*
X117272Y-123687D01*
X116863Y-123420D01*
X116513Y-123020D01*
X116280Y-122553D01*
X116163Y-122020D01*
Y-121553D01*
X116280Y-121153D01*
X116513Y-120687D01*
X116863Y-120287D01*
X117213Y-120020D01*
X117680Y-119820D01*
X118088D01*
X118555Y-119953D01*
X118905Y-120220D01*
G01X121780Y-119820D02*
X123180D01*
G01X122480D02*
Y-123820D01*
G01X121780D02*
X123180D01*
G01X125938D02*
Y-119820D01*
X128622Y-123820D01*
Y-119820D01*
G01X133247Y-123820D02*
X130913D01*
Y-119820D01*
X133247D01*
G01X132313Y-121753D02*
X130913D01*
G01X138047Y-123820D02*
X135713D01*
Y-119820D01*
X138047D01*
G01X137113Y-121753D02*
X135713D01*
G01X140513Y-123820D02*
Y-119820D01*
X141972D01*
X142438Y-120020D01*
X142730Y-120287D01*
X142847Y-120820D01*
X142730Y-121353D01*
X142380Y-121687D01*
X141972Y-121887D01*
X140513D01*
G01X141972D02*
X142847Y-123820D01*
G01X145780Y-119820D02*
X147180D01*
G01X146480D02*
Y-123820D01*
G01X145780D02*
X147180D01*
G01X149938D02*
Y-119820D01*
X152622Y-123820D01*
Y-119820D01*
G01X156430Y-121820D02*
X157597D01*
Y-123020D01*
X157247Y-123420D01*
X156838Y-123687D01*
X156255Y-123820D01*
X155672Y-123687D01*
X155263Y-123420D01*
X154913Y-123020D01*
X154680Y-122553D01*
X154563Y-122020D01*
Y-121553D01*
X154680Y-121153D01*
X154913Y-120687D01*
X155263Y-120287D01*
X155613Y-120020D01*
X156080Y-119820D01*
X156488D01*
X156955Y-119953D01*
X157305Y-120220D01*
G01X164397Y-123820D02*
Y-119820D01*
X165563D01*
X166030Y-120020D01*
X166380Y-120287D01*
X166672Y-120687D01*
X166905Y-121153D01*
X166963Y-121820D01*
X166905Y-122487D01*
X166672Y-122953D01*
X166380Y-123353D01*
X166030Y-123620D01*
X165563Y-123820D01*
X164397D01*
G01X171647D02*
X169313D01*
Y-119820D01*
X171647D01*
G01X170713Y-121753D02*
X169313D01*
G01X174055Y-123287D02*
X174522Y-123620D01*
X175047Y-123820D01*
X175513D01*
X175980Y-123620D01*
X176330Y-123287D01*
X176505Y-122820D01*
X176388Y-122353D01*
X176097Y-121953D01*
X175572Y-121687D01*
X174872Y-121553D01*
X174463Y-121287D01*
X174288Y-120820D01*
X174405Y-120353D01*
X174697Y-120020D01*
X175105Y-119820D01*
X175513D01*
X175922Y-119953D01*
X176272Y-120287D01*
G01X179380Y-119820D02*
X180780D01*
G01X180080D02*
Y-123820D01*
G01X179380D02*
X180780D01*
G01X185230Y-121820D02*
X186397D01*
Y-123020D01*
X186047Y-123420D01*
X185638Y-123687D01*
X185055Y-123820D01*
X184472Y-123687D01*
X184063Y-123420D01*
X183713Y-123020D01*
X183480Y-122553D01*
X183363Y-122020D01*
Y-121553D01*
X183480Y-121153D01*
X183713Y-120687D01*
X184063Y-120287D01*
X184413Y-120020D01*
X184880Y-119820D01*
X185288D01*
X185755Y-119953D01*
X186105Y-120220D01*
G01X188338Y-123820D02*
Y-119820D01*
X191022Y-123820D01*
Y-119820D01*
G01X22822Y-97820D02*
X24280Y-93820D01*
X25738Y-97820D01*
G01X25213Y-96420D02*
X23347D01*
G01X27797Y-93820D02*
Y-96687D01*
X28030Y-97287D01*
X28497Y-97687D01*
X29080Y-97820D01*
X29663Y-97687D01*
X30130Y-97287D01*
X30363Y-96687D01*
Y-93820D01*
G01X32655Y-97287D02*
X33122Y-97620D01*
X33647Y-97820D01*
X34113D01*
X34580Y-97620D01*
X34930Y-97287D01*
X35105Y-96820D01*
X34988Y-96353D01*
X34697Y-95953D01*
X34172Y-95687D01*
X33472Y-95553D01*
X33063Y-95287D01*
X32888Y-94820D01*
X33005Y-94353D01*
X33297Y-94020D01*
X33705Y-93820D01*
X34113D01*
X34522Y-93953D01*
X34872Y-94287D01*
G01X38680Y-93820D02*
Y-97820D01*
G01X37338Y-93820D02*
X40022D01*
G01X42780D02*
X44180D01*
G01X43480D02*
Y-97820D01*
G01X42780D02*
X44180D01*
G01X46938D02*
Y-93820D01*
X49622Y-97820D01*
Y-93820D01*
G01X53080Y-97953D02*
X52963Y-97887D01*
Y-97753D01*
X53080Y-97687D01*
X53197Y-97753D01*
Y-97887D01*
X53080Y-97953D01*
G01X62680Y-93820D02*
Y-97820D01*
G01X61338Y-93820D02*
X64022D01*
G01X68647Y-97820D02*
X66313D01*
Y-93820D01*
X68647D01*
G01X67713Y-95753D02*
X66313D01*
G01X71055Y-97820D02*
X73505Y-93820D01*
G01X71055D02*
X73505Y-97820D01*
G01X75622D02*
X77080Y-93820D01*
X78538Y-97820D01*
G01X78013Y-96420D02*
X76147D01*
G01X80655Y-97287D02*
X81122Y-97620D01*
X81647Y-97820D01*
X82113D01*
X82580Y-97620D01*
X82930Y-97287D01*
X83105Y-96820D01*
X82988Y-96353D01*
X82697Y-95953D01*
X82172Y-95687D01*
X81472Y-95553D01*
X81063Y-95287D01*
X80888Y-94820D01*
X81005Y-94353D01*
X81297Y-94020D01*
X81705Y-93820D01*
X82113D01*
X82522Y-93953D01*
X82872Y-94287D01*
G01X91363Y-97820D02*
X91480Y-96953D01*
X91655Y-96220D01*
X91888Y-95553D01*
X92180Y-94820D01*
X92647Y-93820D01*
X90313D01*
G01X96280Y-97820D02*
X96688Y-97753D01*
X97155Y-97553D01*
X97447Y-97220D01*
X97563Y-96753D01*
X97447Y-96287D01*
X97097Y-95887D01*
X96572Y-95687D01*
X95988D01*
X95638Y-95553D01*
X95347Y-95220D01*
X95230Y-94753D01*
X95405Y-94287D01*
X95813Y-93953D01*
X96280Y-93820D01*
X96747Y-93953D01*
X97155Y-94287D01*
X97330Y-94753D01*
X97213Y-95220D01*
X96922Y-95553D01*
X96572Y-95687D01*
X95988D01*
X95463Y-95887D01*
X95113Y-96287D01*
X94997Y-96753D01*
X95113Y-97220D01*
X95405Y-97553D01*
X95872Y-97753D01*
X96280Y-97820D01*
G01X100963D02*
X101080Y-96953D01*
X101255Y-96220D01*
X101488Y-95553D01*
X101780Y-94820D01*
X102247Y-93820D01*
X99913D01*
G01X104597Y-97020D02*
X104947Y-97487D01*
X105413Y-97753D01*
X105938Y-97820D01*
X106405Y-97753D01*
X106872Y-97420D01*
X107163Y-97020D01*
X107222Y-96620D01*
X107105Y-96153D01*
X106697Y-95820D01*
X106288Y-95687D01*
X105763D01*
G01X106288D02*
X106638Y-95487D01*
X106930Y-95153D01*
X107047Y-94753D01*
X106930Y-94353D01*
X106638Y-94020D01*
X106113Y-93820D01*
X105588Y-93887D01*
X105063Y-94153D01*
G01X109397Y-97220D02*
X109747Y-97553D01*
X110155Y-97753D01*
X110680Y-97820D01*
X111205Y-97687D01*
X111613Y-97420D01*
X111905Y-96953D01*
X111963Y-96420D01*
X111847Y-95887D01*
X111555Y-95553D01*
X111147Y-95287D01*
X110738Y-95220D01*
X110330Y-95287D01*
X109805Y-95553D01*
X109980Y-93820D01*
X111555D01*
G01X118997D02*
Y-96687D01*
X119230Y-97287D01*
X119697Y-97687D01*
X120280Y-97820D01*
X120863Y-97687D01*
X121330Y-97287D01*
X121563Y-96687D01*
Y-93820D01*
G01X123855Y-97287D02*
X124322Y-97620D01*
X124847Y-97820D01*
X125313D01*
X125780Y-97620D01*
X126130Y-97287D01*
X126305Y-96820D01*
X126188Y-96353D01*
X125897Y-95953D01*
X125372Y-95687D01*
X124672Y-95553D01*
X124263Y-95287D01*
X124088Y-94820D01*
X124205Y-94353D01*
X124497Y-94020D01*
X124905Y-93820D01*
X125313D01*
X125722Y-93953D01*
X126072Y-94287D01*
G01X128422Y-97820D02*
X129880Y-93820D01*
X131338Y-97820D01*
G01X130813Y-96420D02*
X128947D01*
G01X23172Y-89153D02*
X23580Y-88687D01*
X23930Y-88420D01*
X24397Y-88287D01*
X24805Y-88420D01*
X25097Y-88687D01*
X25330Y-89087D01*
X25388Y-89553D01*
X25330Y-89953D01*
X25097Y-90353D01*
X24747Y-90687D01*
X24338Y-90820D01*
X23872Y-90687D01*
X23463Y-90287D01*
X23230Y-89687D01*
X23172Y-89020D01*
X23288Y-88153D01*
X23463Y-87687D01*
X23755Y-87220D01*
X24163Y-86887D01*
X24572Y-86820D01*
X24980Y-86953D01*
X25272Y-87287D01*
G01X27797Y-90220D02*
X28147Y-90553D01*
X28555Y-90753D01*
X29080Y-90820D01*
X29605Y-90687D01*
X30013Y-90420D01*
X30305Y-89953D01*
X30363Y-89420D01*
X30247Y-88887D01*
X29955Y-88553D01*
X29547Y-88287D01*
X29138Y-88220D01*
X28730Y-88287D01*
X28205Y-88553D01*
X28380Y-86820D01*
X29955D01*
G01X33880D02*
X33413Y-86953D01*
X33063Y-87287D01*
X32830Y-87687D01*
X32655Y-88220D01*
X32597Y-88820D01*
X32655Y-89420D01*
X32830Y-89953D01*
X33063Y-90353D01*
X33413Y-90687D01*
X33880Y-90820D01*
X34347Y-90687D01*
X34697Y-90353D01*
X34930Y-89953D01*
X35105Y-89420D01*
X35163Y-88820D01*
X35105Y-88220D01*
X34930Y-87687D01*
X34697Y-87287D01*
X34347Y-86953D01*
X33880Y-86820D01*
G01X38680Y-90820D02*
Y-86820D01*
X37980Y-87620D01*
G01Y-90820D02*
X39380D01*
G01X46530Y-86820D02*
X47347Y-90820D01*
X48280Y-86820D01*
X49213Y-90820D01*
X50030Y-86820D01*
G01X52380D02*
X53780D01*
G01X53080D02*
Y-90820D01*
G01X52380D02*
X53780D01*
G01X56713Y-86820D02*
Y-90820D01*
X59047D01*
G01X61513Y-86820D02*
Y-90820D01*
X63847D01*
G01X66780Y-86820D02*
X68180D01*
G01X67480D02*
Y-90820D01*
G01X66780D02*
X68180D01*
G01X70822D02*
X72280Y-86820D01*
X73738Y-90820D01*
G01X73213Y-89420D02*
X71347D01*
G01X75563Y-90820D02*
Y-86820D01*
X77080Y-90153D01*
X78597Y-86820D01*
Y-90820D01*
G01X87963Y-87153D02*
X87613Y-86953D01*
X87205Y-86820D01*
X86738D01*
X86213Y-87020D01*
X85805Y-87353D01*
X85513Y-87753D01*
X85280Y-88420D01*
X85222Y-89020D01*
X85338Y-89620D01*
X85513Y-90020D01*
X85863Y-90420D01*
X86272Y-90687D01*
X86680Y-90820D01*
X87088D01*
X87497Y-90687D01*
X87847Y-90487D01*
X88138Y-90220D01*
G01X90022Y-90820D02*
X91480Y-86820D01*
X92938Y-90820D01*
G01X92413Y-89420D02*
X90547D01*
G01X94938Y-90820D02*
Y-86820D01*
X97622Y-90820D01*
Y-86820D01*
G01X99738Y-90820D02*
Y-86820D01*
X102422Y-90820D01*
Y-86820D01*
G01X105880Y-90820D02*
X105413Y-90753D01*
X105005Y-90487D01*
X104655Y-90087D01*
X104422Y-89620D01*
X104305Y-89087D01*
Y-88553D01*
X104422Y-88020D01*
X104655Y-87553D01*
X105005Y-87153D01*
X105413Y-86887D01*
X105880Y-86820D01*
X106347Y-86887D01*
X106755Y-87153D01*
X107105Y-87553D01*
X107338Y-88020D01*
X107455Y-88553D01*
Y-89087D01*
X107338Y-89620D01*
X107105Y-90087D01*
X106755Y-90487D01*
X106347Y-90753D01*
X105880Y-90820D01*
G01X109338D02*
Y-86820D01*
X112022Y-90820D01*
Y-86820D01*
G01X118997Y-90820D02*
Y-86820D01*
X120163D01*
X120630Y-87020D01*
X120980Y-87287D01*
X121272Y-87687D01*
X121505Y-88153D01*
X121563Y-88820D01*
X121505Y-89487D01*
X121272Y-89953D01*
X120980Y-90353D01*
X120630Y-90620D01*
X120163Y-90820D01*
X118997D01*
G01X123913D02*
Y-86820D01*
X125372D01*
X125838Y-87020D01*
X126130Y-87287D01*
X126247Y-87820D01*
X126130Y-88353D01*
X125780Y-88687D01*
X125372Y-88887D01*
X123913D01*
G01X125372D02*
X126247Y-90820D01*
G01X129180Y-86820D02*
X130580D01*
G01X129880D02*
Y-90820D01*
G01X129180D02*
X130580D01*
G01X133222Y-86820D02*
X134680Y-90820D01*
X136138Y-86820D01*
G01X140647Y-90820D02*
X138313D01*
Y-86820D01*
X140647D01*
G01X139713Y-88753D02*
X138313D01*
G01X147330Y-86820D02*
X148147Y-90820D01*
X149080Y-86820D01*
X150013Y-90820D01*
X150830Y-86820D01*
G01X155047Y-90820D02*
X152713D01*
Y-86820D01*
X155047D01*
G01X154113Y-88753D02*
X152713D01*
G01X157455Y-90287D02*
X157922Y-90620D01*
X158447Y-90820D01*
X158913D01*
X159380Y-90620D01*
X159730Y-90287D01*
X159905Y-89820D01*
X159788Y-89353D01*
X159497Y-88953D01*
X158972Y-88687D01*
X158272Y-88553D01*
X157863Y-88287D01*
X157688Y-87820D01*
X157805Y-87353D01*
X158097Y-87020D01*
X158505Y-86820D01*
X158913D01*
X159322Y-86953D01*
X159672Y-87287D01*
G01X163480Y-86820D02*
Y-90820D01*
G01X162138Y-86820D02*
X164822D01*
G01X30280Y-103820D02*
Y-107820D01*
G01X28938Y-103820D02*
X31622D01*
G01X33855Y-107820D02*
Y-103820D01*
G01X36305D02*
Y-107820D01*
G01Y-105820D02*
X33855D01*
G01X39180Y-103820D02*
X40580D01*
G01X39880D02*
Y-107820D01*
G01X39180D02*
X40580D01*
G01X43455Y-107287D02*
X43922Y-107620D01*
X44447Y-107820D01*
X44913D01*
X45380Y-107620D01*
X45730Y-107287D01*
X45905Y-106820D01*
X45788Y-106353D01*
X45497Y-105953D01*
X44972Y-105687D01*
X44272Y-105553D01*
X43863Y-105287D01*
X43688Y-104820D01*
X43805Y-104353D01*
X44097Y-104020D01*
X44505Y-103820D01*
X44913D01*
X45322Y-103953D01*
X45672Y-104287D01*
G01X52997Y-107820D02*
Y-103820D01*
X54163D01*
X54630Y-104020D01*
X54980Y-104287D01*
X55272Y-104687D01*
X55505Y-105153D01*
X55563Y-105820D01*
X55505Y-106487D01*
X55272Y-106953D01*
X54980Y-107353D01*
X54630Y-107620D01*
X54163Y-107820D01*
X52997D01*
G01X59080D02*
X58613Y-107753D01*
X58205Y-107487D01*
X57855Y-107087D01*
X57622Y-106620D01*
X57505Y-106087D01*
Y-105553D01*
X57622Y-105020D01*
X57855Y-104553D01*
X58205Y-104153D01*
X58613Y-103887D01*
X59080Y-103820D01*
X59547Y-103887D01*
X59955Y-104153D01*
X60305Y-104553D01*
X60538Y-105020D01*
X60655Y-105553D01*
Y-106087D01*
X60538Y-106620D01*
X60305Y-107087D01*
X59955Y-107487D01*
X59547Y-107753D01*
X59080Y-107820D01*
G01X65163Y-104153D02*
X64813Y-103953D01*
X64405Y-103820D01*
X63938D01*
X63413Y-104020D01*
X63005Y-104353D01*
X62713Y-104753D01*
X62480Y-105420D01*
X62422Y-106020D01*
X62538Y-106620D01*
X62713Y-107020D01*
X63063Y-107420D01*
X63472Y-107687D01*
X63880Y-107820D01*
X64288D01*
X64697Y-107687D01*
X65047Y-107487D01*
X65338Y-107220D01*
G01X67397Y-103820D02*
Y-106687D01*
X67630Y-107287D01*
X68097Y-107687D01*
X68680Y-107820D01*
X69263Y-107687D01*
X69730Y-107287D01*
X69963Y-106687D01*
Y-103820D01*
G01X71963Y-107820D02*
Y-103820D01*
X73480Y-107153D01*
X74997Y-103820D01*
Y-107820D01*
G01X79447D02*
X77113D01*
Y-103820D01*
X79447D01*
G01X78513Y-105753D02*
X77113D01*
G01X81738Y-107820D02*
Y-103820D01*
X84422Y-107820D01*
Y-103820D01*
G01X87880D02*
Y-107820D01*
G01X86538Y-103820D02*
X89222D01*
G01X98763Y-104153D02*
X98413Y-103953D01*
X98005Y-103820D01*
X97538D01*
X97013Y-104020D01*
X96605Y-104353D01*
X96313Y-104753D01*
X96080Y-105420D01*
X96022Y-106020D01*
X96138Y-106620D01*
X96313Y-107020D01*
X96663Y-107420D01*
X97072Y-107687D01*
X97480Y-107820D01*
X97888D01*
X98297Y-107687D01*
X98647Y-107487D01*
X98938Y-107220D01*
G01X102280Y-107820D02*
X101813Y-107753D01*
X101405Y-107487D01*
X101055Y-107087D01*
X100822Y-106620D01*
X100705Y-106087D01*
Y-105553D01*
X100822Y-105020D01*
X101055Y-104553D01*
X101405Y-104153D01*
X101813Y-103887D01*
X102280Y-103820D01*
X102747Y-103887D01*
X103155Y-104153D01*
X103505Y-104553D01*
X103738Y-105020D01*
X103855Y-105553D01*
Y-106087D01*
X103738Y-106620D01*
X103505Y-107087D01*
X103155Y-107487D01*
X102747Y-107753D01*
X102280Y-107820D01*
G01X105738D02*
Y-103820D01*
X108422Y-107820D01*
Y-103820D01*
G01X111880D02*
Y-107820D01*
G01X110538Y-103820D02*
X113222D01*
G01X115222Y-107820D02*
X116680Y-103820D01*
X118138Y-107820D01*
G01X117613Y-106420D02*
X115747D01*
G01X120780Y-103820D02*
X122180D01*
G01X121480D02*
Y-107820D01*
G01X120780D02*
X122180D01*
G01X124938D02*
Y-103820D01*
X127622Y-107820D01*
Y-103820D01*
G01X129855Y-107287D02*
X130322Y-107620D01*
X130847Y-107820D01*
X131313D01*
X131780Y-107620D01*
X132130Y-107287D01*
X132305Y-106820D01*
X132188Y-106353D01*
X131897Y-105953D01*
X131372Y-105687D01*
X130672Y-105553D01*
X130263Y-105287D01*
X130088Y-104820D01*
X130205Y-104353D01*
X130497Y-104020D01*
X130905Y-103820D01*
X131313D01*
X131722Y-103953D01*
X132072Y-104287D01*
G01X139980Y-103820D02*
X141380D01*
G01X140680D02*
Y-107820D01*
G01X139980D02*
X141380D01*
G01X144138D02*
Y-103820D01*
X146822Y-107820D01*
Y-103820D01*
G01X149172Y-107820D02*
Y-103820D01*
X151388D01*
G01X150572Y-105753D02*
X149172D01*
G01X155080Y-107820D02*
X154613Y-107753D01*
X154205Y-107487D01*
X153855Y-107087D01*
X153622Y-106620D01*
X153505Y-106087D01*
Y-105553D01*
X153622Y-105020D01*
X153855Y-104553D01*
X154205Y-104153D01*
X154613Y-103887D01*
X155080Y-103820D01*
X155547Y-103887D01*
X155955Y-104153D01*
X156305Y-104553D01*
X156538Y-105020D01*
X156655Y-105553D01*
Y-106087D01*
X156538Y-106620D01*
X156305Y-107087D01*
X155955Y-107487D01*
X155547Y-107753D01*
X155080Y-107820D01*
G01X158713D02*
Y-103820D01*
X160172D01*
X160638Y-104020D01*
X160930Y-104287D01*
X161047Y-104820D01*
X160930Y-105353D01*
X160580Y-105687D01*
X160172Y-105887D01*
X158713D01*
G01X160172D02*
X161047Y-107820D01*
G01X163163D02*
Y-103820D01*
X164680Y-107153D01*
X166197Y-103820D01*
Y-107820D01*
G01X168022D02*
X169480Y-103820D01*
X170938Y-107820D01*
G01X170413Y-106420D02*
X168547D01*
G01X174280Y-103820D02*
Y-107820D01*
G01X172938Y-103820D02*
X175622D01*
G01X178380D02*
X179780D01*
G01X179080D02*
Y-107820D01*
G01X178380D02*
X179780D01*
G01X183880D02*
X183413Y-107753D01*
X183005Y-107487D01*
X182655Y-107087D01*
X182422Y-106620D01*
X182305Y-106087D01*
Y-105553D01*
X182422Y-105020D01*
X182655Y-104553D01*
X183005Y-104153D01*
X183413Y-103887D01*
X183880Y-103820D01*
X184347Y-103887D01*
X184755Y-104153D01*
X185105Y-104553D01*
X185338Y-105020D01*
X185455Y-105553D01*
Y-106087D01*
X185338Y-106620D01*
X185105Y-107087D01*
X184755Y-107487D01*
X184347Y-107753D01*
X183880Y-107820D01*
G01X187338D02*
Y-103820D01*
X190022Y-107820D01*
Y-103820D01*
G01X35193Y-83000D02*
Y-75500D01*
X39487Y-83000D01*
Y-75500D01*
G01X42880Y-83000D02*
X46800Y-75500D01*
G01X42880D02*
X46800Y-83000D01*
G01X50473D02*
Y-75500D01*
X52713D01*
X53460Y-75875D01*
X54020Y-76750D01*
X54207Y-77750D01*
X54020Y-78750D01*
X53553Y-79500D01*
X52713Y-79875D01*
X50473D01*
G01X65380Y-82000D02*
X66127Y-82625D01*
X66967Y-83000D01*
X67713D01*
X68460Y-82625D01*
X69020Y-82000D01*
X69300Y-81125D01*
X69113Y-80250D01*
X68647Y-79500D01*
X67807Y-79000D01*
X66687Y-78750D01*
X66033Y-78250D01*
X65753Y-77375D01*
X65940Y-76500D01*
X66407Y-75875D01*
X67060Y-75500D01*
X67713D01*
X68367Y-75750D01*
X68927Y-76375D01*
G01X76707Y-83000D02*
X72973D01*
Y-75500D01*
X76707D01*
G01X75213Y-79125D02*
X72973D01*
G01X79913Y-83000D02*
Y-75500D01*
X82340Y-81750D01*
X84767Y-75500D01*
Y-83000D01*
G01X88720Y-75500D02*
X90960D01*
G01X89840D02*
Y-83000D01*
G01X88720D02*
X90960D01*
G01X99393Y-76125D02*
X98833Y-75750D01*
X98180Y-75500D01*
X97433D01*
X96593Y-75875D01*
X95940Y-76500D01*
X95473Y-77250D01*
X95100Y-78500D01*
X95007Y-79625D01*
X95193Y-80750D01*
X95473Y-81500D01*
X96033Y-82250D01*
X96687Y-82750D01*
X97340Y-83000D01*
X97993D01*
X98647Y-82750D01*
X99207Y-82375D01*
X99673Y-81875D01*
G01X104840Y-83000D02*
X104093Y-82875D01*
X103440Y-82375D01*
X102880Y-81625D01*
X102507Y-80750D01*
X102320Y-79750D01*
Y-78750D01*
X102507Y-77750D01*
X102880Y-76875D01*
X103440Y-76125D01*
X104093Y-75625D01*
X104840Y-75500D01*
X105587Y-75625D01*
X106240Y-76125D01*
X106800Y-76875D01*
X107173Y-77750D01*
X107360Y-78750D01*
Y-79750D01*
X107173Y-80750D01*
X106800Y-81625D01*
X106240Y-82375D01*
X105587Y-82875D01*
X104840Y-83000D01*
G01X110193D02*
Y-75500D01*
X114487Y-83000D01*
Y-75500D01*
G01X117787Y-83000D02*
Y-75500D01*
X119653D01*
X120400Y-75875D01*
X120960Y-76375D01*
X121427Y-77125D01*
X121800Y-78000D01*
X121893Y-79250D01*
X121800Y-80500D01*
X121427Y-81375D01*
X120960Y-82125D01*
X120400Y-82625D01*
X119653Y-83000D01*
X117787D01*
G01X125287Y-75500D02*
Y-80875D01*
X125660Y-82000D01*
X126407Y-82750D01*
X127340Y-83000D01*
X128273Y-82750D01*
X129020Y-82000D01*
X129393Y-80875D01*
Y-75500D01*
G01X136893Y-76125D02*
X136333Y-75750D01*
X135680Y-75500D01*
X134933D01*
X134093Y-75875D01*
X133440Y-76500D01*
X132973Y-77250D01*
X132600Y-78500D01*
X132507Y-79625D01*
X132693Y-80750D01*
X132973Y-81500D01*
X133533Y-82250D01*
X134187Y-82750D01*
X134840Y-83000D01*
X135493D01*
X136147Y-82750D01*
X136707Y-82375D01*
X137173Y-81875D01*
G01X142340Y-75500D02*
Y-83000D01*
G01X140193Y-75500D02*
X144487D01*
G01X149840Y-83000D02*
X149093Y-82875D01*
X148440Y-82375D01*
X147880Y-81625D01*
X147507Y-80750D01*
X147320Y-79750D01*
Y-78750D01*
X147507Y-77750D01*
X147880Y-76875D01*
X148440Y-76125D01*
X149093Y-75625D01*
X149840Y-75500D01*
X150587Y-75625D01*
X151240Y-76125D01*
X151800Y-76875D01*
X152173Y-77750D01*
X152360Y-78750D01*
Y-79750D01*
X152173Y-80750D01*
X151800Y-81625D01*
X151240Y-82375D01*
X150587Y-82875D01*
X149840Y-83000D01*
G01X155473D02*
Y-75500D01*
X157807D01*
X158553Y-75875D01*
X159020Y-76375D01*
X159207Y-77375D01*
X159020Y-78375D01*
X158460Y-79000D01*
X157807Y-79375D01*
X155473D01*
G01X157807D02*
X159207Y-83000D01*
G01X162880Y-82000D02*
X163627Y-82625D01*
X164467Y-83000D01*
X165213D01*
X165960Y-82625D01*
X166520Y-82000D01*
X166800Y-81125D01*
X166613Y-80250D01*
X166147Y-79500D01*
X165307Y-79000D01*
X164187Y-78750D01*
X163533Y-78250D01*
X163253Y-77375D01*
X163440Y-76500D01*
X163907Y-75875D01*
X164560Y-75500D01*
X165213D01*
X165867Y-75750D01*
X166427Y-76375D01*
G01X73172Y-158820D02*
Y-154820D01*
X75388D01*
G01X74572Y-156753D02*
X73172D01*
G01X78380Y-154820D02*
X79780D01*
G01X79080D02*
Y-158820D01*
G01X78380D02*
X79780D01*
G01X82713Y-154820D02*
Y-158820D01*
X85047D01*
G01X87163D02*
Y-154820D01*
X88680Y-158153D01*
X90197Y-154820D01*
Y-158820D01*
G01X95313Y-167320D02*
Y-161320D01*
X97193D01*
X97820Y-161620D01*
X98290Y-162320D01*
X98447Y-163120D01*
X98290Y-163920D01*
X97898Y-164520D01*
X97193Y-164820D01*
X95313D01*
G01X101613Y-167320D02*
Y-161320D01*
X103572D01*
X104198Y-161620D01*
X104590Y-162020D01*
X104747Y-162820D01*
X104590Y-163620D01*
X104120Y-164120D01*
X103572Y-164420D01*
X101613D01*
G01X103572D02*
X104747Y-167320D01*
G01X108540Y-161320D02*
X110420D01*
G01X109480D02*
Y-167320D01*
G01X108540D02*
X110420D01*
G01X113743D02*
Y-161320D01*
X115780Y-166320D01*
X117817Y-161320D01*
Y-167320D01*
G01X120122D02*
X122080Y-161320D01*
X124038Y-167320D01*
G01X123333Y-165220D02*
X120827D01*
G01X126813Y-167320D02*
Y-161320D01*
X128772D01*
X129398Y-161620D01*
X129790Y-162020D01*
X129947Y-162820D01*
X129790Y-163620D01*
X129320Y-164120D01*
X128772Y-164420D01*
X126813D01*
G01X128772D02*
X129947Y-167320D01*
G01X134680D02*
Y-164620D01*
X133113Y-161320D01*
G01X136247D02*
X134680Y-164620D01*
G01X145635Y-166520D02*
X146262Y-167020D01*
X146967Y-167320D01*
X147593D01*
X148220Y-167020D01*
X148690Y-166520D01*
X148925Y-165820D01*
X148768Y-165120D01*
X148377Y-164520D01*
X147672Y-164120D01*
X146732Y-163920D01*
X146183Y-163520D01*
X145948Y-162820D01*
X146105Y-162120D01*
X146497Y-161620D01*
X147045Y-161320D01*
X147593D01*
X148142Y-161520D01*
X148612Y-162020D01*
G01X152640Y-161320D02*
X154520D01*
G01X153580D02*
Y-167320D01*
G01X152640D02*
X154520D01*
G01X158157D02*
Y-161320D01*
X159723D01*
X160350Y-161620D01*
X160820Y-162020D01*
X161212Y-162620D01*
X161525Y-163320D01*
X161603Y-164320D01*
X161525Y-165320D01*
X161212Y-166020D01*
X160820Y-166620D01*
X160350Y-167020D01*
X159723Y-167320D01*
X158157D01*
G01X167747D02*
X164613D01*
Y-161320D01*
X167747D01*
G01X166493Y-164220D02*
X164613D01*
G01X105120Y147345D02*
X102926D01*
X102541Y147730D01*
X99330D01*
X97260Y149800D01*
Y156670D01*
X95610Y158320D01*
G01Y162320D02*
X97130Y163840D01*
Y167190D01*
X92801Y171519D01*
Y174117D01*
X92121Y174797D01*
Y178122D01*
G01X100110Y162320D02*
X98330Y164100D01*
Y167688D01*
X94001Y172017D01*
Y174117D01*
X94680Y174796D01*
Y178122D01*
G01X105120Y149315D02*
X102880D01*
X102495Y148930D01*
X99828D01*
X98460Y150298D01*
Y156670D01*
X100110Y158320D01*
G01X201280Y-162820D02*
X200813Y-162953D01*
X200463Y-163287D01*
X200230Y-163687D01*
X200055Y-164220D01*
X199997Y-164820D01*
X200055Y-165420D01*
X200230Y-165953D01*
X200463Y-166353D01*
X200813Y-166687D01*
X201280Y-166820D01*
X201747Y-166687D01*
X202097Y-166353D01*
X202330Y-165953D01*
X202505Y-165420D01*
X202563Y-164820D01*
X202505Y-164220D01*
X202330Y-163687D01*
X202097Y-163287D01*
X201747Y-162953D01*
X201280Y-162820D01*
G01X204972Y-165153D02*
X205380Y-164687D01*
X205730Y-164420D01*
X206197Y-164287D01*
X206605Y-164420D01*
X206897Y-164687D01*
X207130Y-165087D01*
X207188Y-165553D01*
X207130Y-165953D01*
X206897Y-166353D01*
X206547Y-166687D01*
X206138Y-166820D01*
X205672Y-166687D01*
X205263Y-166287D01*
X205030Y-165687D01*
X204972Y-165020D01*
X205088Y-164153D01*
X205263Y-163687D01*
X205555Y-163220D01*
X205963Y-162887D01*
X206372Y-162820D01*
X206780Y-162953D01*
X207072Y-163287D01*
G01X210122Y-165487D02*
X211638D01*
G01X214572Y-163487D02*
X214922Y-163087D01*
X215330Y-162887D01*
X215797Y-162820D01*
X216380Y-162953D01*
X216788Y-163287D01*
X216905Y-163687D01*
X216847Y-164087D01*
X216613Y-164420D01*
X215447Y-165087D01*
X214922Y-165553D01*
X214572Y-166220D01*
X214455Y-166820D01*
X216905D01*
G01X219197Y-166020D02*
X219547Y-166487D01*
X220013Y-166753D01*
X220538Y-166820D01*
X221005Y-166753D01*
X221472Y-166420D01*
X221763Y-166020D01*
X221822Y-165620D01*
X221705Y-165153D01*
X221297Y-164820D01*
X220888Y-164687D01*
X220363D01*
G01X220888D02*
X221238Y-164487D01*
X221530Y-164153D01*
X221647Y-163753D01*
X221530Y-163353D01*
X221238Y-163020D01*
X220713Y-162820D01*
X220188Y-162887D01*
X219663Y-163153D01*
G01X224522Y-165487D02*
X226038D01*
G01X230080Y-166820D02*
Y-162820D01*
X229380Y-163620D01*
G01Y-166820D02*
X230780D01*
G01X233772Y-165153D02*
X234180Y-164687D01*
X234530Y-164420D01*
X234997Y-164287D01*
X235405Y-164420D01*
X235697Y-164687D01*
X235930Y-165087D01*
X235988Y-165553D01*
X235930Y-165953D01*
X235697Y-166353D01*
X235347Y-166687D01*
X234938Y-166820D01*
X234472Y-166687D01*
X234063Y-166287D01*
X233830Y-165687D01*
X233772Y-165020D01*
X233888Y-164153D01*
X234063Y-163687D01*
X234355Y-163220D01*
X234763Y-162887D01*
X235172Y-162820D01*
X235580Y-162953D01*
X235872Y-163287D01*
G01X197997Y-158820D02*
Y-154820D01*
X199163D01*
X199630Y-155020D01*
X199980Y-155287D01*
X200272Y-155687D01*
X200505Y-156153D01*
X200563Y-156820D01*
X200505Y-157487D01*
X200272Y-157953D01*
X199980Y-158353D01*
X199630Y-158620D01*
X199163Y-158820D01*
X197997D01*
G01X202622D02*
X204080Y-154820D01*
X205538Y-158820D01*
G01X205013Y-157420D02*
X203147D01*
G01X208880Y-154820D02*
Y-158820D01*
G01X207538Y-154820D02*
X210222D01*
G01X214847Y-158820D02*
X212513D01*
Y-154820D01*
X214847D01*
G01X213913Y-156753D02*
X212513D01*
G01X197938Y-78820D02*
Y-74820D01*
X200622Y-78820D01*
Y-74820D01*
G01X202622Y-78820D02*
X204080Y-74820D01*
X205538Y-78820D01*
G01X205013Y-77420D02*
X203147D01*
G01X207363Y-78820D02*
Y-74820D01*
X208880Y-78153D01*
X210397Y-74820D01*
Y-78820D01*
G01X214847D02*
X212513D01*
Y-74820D01*
X214847D01*
G01X213913Y-76753D02*
X212513D01*
G01X207530Y-144653D02*
X211030D01*
G01X212330D02*
X215830D01*
G01X217130D02*
X220630D01*
G01X227138Y-143320D02*
Y-139320D01*
X229822Y-143320D01*
Y-139320D01*
G01X234563Y-139653D02*
X234213Y-139453D01*
X233805Y-139320D01*
X233338D01*
X232813Y-139520D01*
X232405Y-139853D01*
X232113Y-140253D01*
X231880Y-140920D01*
X231822Y-141520D01*
X231938Y-142120D01*
X232113Y-142520D01*
X232463Y-142920D01*
X232872Y-143187D01*
X233280Y-143320D01*
X233688D01*
X234097Y-143187D01*
X234447Y-142987D01*
X234738Y-142720D01*
G01X236913Y-143320D02*
Y-139320D01*
X238313D01*
X238780Y-139520D01*
X239130Y-139987D01*
X239247Y-140520D01*
X239130Y-141053D01*
X238838Y-141453D01*
X238313Y-141653D01*
X236913D01*
G01X252188Y-144653D02*
X251605Y-143987D01*
X251313Y-143320D01*
Y-140653D01*
X251605Y-139987D01*
X252188Y-139320D01*
G01X255938Y-143320D02*
Y-139320D01*
X258622Y-143320D01*
Y-139320D01*
G01X260855Y-143320D02*
X263305Y-139320D01*
G01X260855D02*
X263305Y-143320D01*
G01X265713D02*
Y-139320D01*
X267113D01*
X267580Y-139520D01*
X267930Y-139987D01*
X268047Y-140520D01*
X267930Y-141053D01*
X267638Y-141453D01*
X267113Y-141653D01*
X265713D01*
G01X277763Y-139653D02*
X277413Y-139453D01*
X277005Y-139320D01*
X276538D01*
X276013Y-139520D01*
X275605Y-139853D01*
X275313Y-140253D01*
X275080Y-140920D01*
X275022Y-141520D01*
X275138Y-142120D01*
X275313Y-142520D01*
X275663Y-142920D01*
X276072Y-143187D01*
X276480Y-143320D01*
X276888D01*
X277297Y-143187D01*
X277647Y-142987D01*
X277938Y-142720D01*
G01X281280Y-143320D02*
X280813Y-143253D01*
X280405Y-142987D01*
X280055Y-142587D01*
X279822Y-142120D01*
X279705Y-141587D01*
Y-141053D01*
X279822Y-140520D01*
X280055Y-140053D01*
X280405Y-139653D01*
X280813Y-139387D01*
X281280Y-139320D01*
X281747Y-139387D01*
X282155Y-139653D01*
X282505Y-140053D01*
X282738Y-140520D01*
X282855Y-141053D01*
Y-141587D01*
X282738Y-142120D01*
X282505Y-142587D01*
X282155Y-142987D01*
X281747Y-143253D01*
X281280Y-143320D01*
G01X284738D02*
Y-139320D01*
X287422Y-143320D01*
Y-139320D01*
G01X289772Y-143320D02*
Y-139320D01*
X291988D01*
G01X291172Y-141253D02*
X289772D01*
G01X294980Y-139320D02*
X296380D01*
G01X295680D02*
Y-143320D01*
G01X294980D02*
X296380D01*
G01X299197D02*
Y-139320D01*
X300363D01*
X300830Y-139520D01*
X301180Y-139787D01*
X301472Y-140187D01*
X301705Y-140653D01*
X301763Y-141320D01*
X301705Y-141987D01*
X301472Y-142453D01*
X301180Y-142853D01*
X300830Y-143120D01*
X300363Y-143320D01*
X299197D01*
G01X306447D02*
X304113D01*
Y-139320D01*
X306447D01*
G01X305513Y-141253D02*
X304113D01*
G01X308738Y-143320D02*
Y-139320D01*
X311422Y-143320D01*
Y-139320D01*
G01X314880D02*
Y-143320D01*
G01X313538Y-139320D02*
X316222D01*
G01X318980D02*
X320380D01*
G01X319680D02*
Y-143320D01*
G01X318980D02*
X320380D01*
G01X323022D02*
X324480Y-139320D01*
X325938Y-143320D01*
G01X325413Y-141920D02*
X323547D01*
G01X328113Y-139320D02*
Y-143320D01*
X330447D01*
G01X337713D02*
Y-139320D01*
X339113D01*
X339580Y-139520D01*
X339930Y-139987D01*
X340047Y-140520D01*
X339930Y-141053D01*
X339638Y-141453D01*
X339113Y-141653D01*
X337713D01*
G01X342513Y-143320D02*
Y-139320D01*
X343972D01*
X344438Y-139520D01*
X344730Y-139787D01*
X344847Y-140320D01*
X344730Y-140853D01*
X344380Y-141187D01*
X343972Y-141387D01*
X342513D01*
G01X343972D02*
X344847Y-143320D01*
G01X348480D02*
X348013Y-143253D01*
X347605Y-142987D01*
X347255Y-142587D01*
X347022Y-142120D01*
X346905Y-141587D01*
Y-141053D01*
X347022Y-140520D01*
X347255Y-140053D01*
X347605Y-139653D01*
X348013Y-139387D01*
X348480Y-139320D01*
X348947Y-139387D01*
X349355Y-139653D01*
X349705Y-140053D01*
X349938Y-140520D01*
X350055Y-141053D01*
Y-141587D01*
X349938Y-142120D01*
X349705Y-142587D01*
X349355Y-142987D01*
X348947Y-143253D01*
X348480Y-143320D01*
G01X352113D02*
Y-139320D01*
X353513D01*
X353980Y-139520D01*
X354330Y-139987D01*
X354447Y-140520D01*
X354330Y-141053D01*
X354038Y-141453D01*
X353513Y-141653D01*
X352113D01*
G01X356913Y-143320D02*
Y-139320D01*
X358372D01*
X358838Y-139520D01*
X359130Y-139787D01*
X359247Y-140320D01*
X359130Y-140853D01*
X358780Y-141187D01*
X358372Y-141387D01*
X356913D01*
G01X358372D02*
X359247Y-143320D01*
G01X362180Y-139320D02*
X363580D01*
G01X362880D02*
Y-143320D01*
G01X362180D02*
X363580D01*
G01X368847D02*
X366513D01*
Y-139320D01*
X368847D01*
G01X367913Y-141253D02*
X366513D01*
G01X372480Y-139320D02*
Y-143320D01*
G01X371138Y-139320D02*
X373822D01*
G01X375822Y-143320D02*
X377280Y-139320D01*
X378738Y-143320D01*
G01X378213Y-141920D02*
X376347D01*
G01X380913Y-143320D02*
Y-139320D01*
X382372D01*
X382838Y-139520D01*
X383130Y-139787D01*
X383247Y-140320D01*
X383130Y-140853D01*
X382780Y-141187D01*
X382372Y-141387D01*
X380913D01*
G01X382372D02*
X383247Y-143320D01*
G01X386880D02*
Y-141520D01*
X385713Y-139320D01*
G01X388047D02*
X386880Y-141520D01*
G01X391972Y-144653D02*
X392555Y-143987D01*
X392847Y-143320D01*
Y-140653D01*
X392555Y-139987D01*
X391972Y-139320D01*
G01X207530Y-128153D02*
X211030D01*
G01X212330D02*
X215830D01*
G01X217130D02*
X220630D01*
G01X227138Y-126820D02*
Y-122820D01*
X229822Y-126820D01*
Y-122820D01*
G01X232580D02*
X233980D01*
G01X233280D02*
Y-126820D01*
G01X232580D02*
X233980D01*
G01X236797Y-122820D02*
Y-125687D01*
X237030Y-126287D01*
X237497Y-126687D01*
X238080Y-126820D01*
X238663Y-126687D01*
X239130Y-126287D01*
X239363Y-125687D01*
Y-122820D01*
G01X242880Y-126820D02*
X242413Y-126753D01*
X242005Y-126487D01*
X241655Y-126087D01*
X241422Y-125620D01*
X241305Y-125087D01*
Y-124553D01*
X241422Y-124020D01*
X241655Y-123553D01*
X242005Y-123153D01*
X242413Y-122887D01*
X242880Y-122820D01*
X243347Y-122887D01*
X243755Y-123153D01*
X244105Y-123553D01*
X244338Y-124020D01*
X244455Y-124553D01*
Y-125087D01*
X244338Y-125620D01*
X244105Y-126087D01*
X243755Y-126487D01*
X243347Y-126753D01*
X242880Y-126820D01*
G01X252188Y-128153D02*
X251605Y-127487D01*
X251313Y-126820D01*
Y-124153D01*
X251605Y-123487D01*
X252188Y-122820D01*
G01X255938Y-126820D02*
Y-122820D01*
X258622Y-126820D01*
Y-122820D01*
G01X260855Y-126820D02*
X263305Y-122820D01*
G01X260855D02*
X263305Y-126820D01*
G01X265713D02*
Y-122820D01*
X267113D01*
X267580Y-123020D01*
X267930Y-123487D01*
X268047Y-124020D01*
X267930Y-124553D01*
X267638Y-124953D01*
X267113Y-125153D01*
X265713D01*
G01X275780Y-122820D02*
X277180D01*
G01X276480D02*
Y-126820D01*
G01X275780D02*
X277180D01*
G01X279938D02*
Y-122820D01*
X282622Y-126820D01*
Y-122820D01*
G01X286080D02*
Y-126820D01*
G01X284738Y-122820D02*
X287422D01*
G01X292047Y-126820D02*
X289713D01*
Y-122820D01*
X292047D01*
G01X291113Y-124753D02*
X289713D01*
G01X294513Y-126820D02*
Y-122820D01*
X295972D01*
X296438Y-123020D01*
X296730Y-123287D01*
X296847Y-123820D01*
X296730Y-124353D01*
X296380Y-124687D01*
X295972Y-124887D01*
X294513D01*
G01X295972D02*
X296847Y-126820D01*
G01X299138D02*
Y-122820D01*
X301822Y-126820D01*
Y-122820D01*
G01X303822Y-126820D02*
X305280Y-122820D01*
X306738Y-126820D01*
G01X306213Y-125420D02*
X304347D01*
G01X308913Y-122820D02*
Y-126820D01*
X311247D01*
G01X318397Y-122820D02*
Y-125687D01*
X318630Y-126287D01*
X319097Y-126687D01*
X319680Y-126820D01*
X320263Y-126687D01*
X320730Y-126287D01*
X320963Y-125687D01*
Y-122820D01*
G01X323255Y-126287D02*
X323722Y-126620D01*
X324247Y-126820D01*
X324713D01*
X325180Y-126620D01*
X325530Y-126287D01*
X325705Y-125820D01*
X325588Y-125353D01*
X325297Y-124953D01*
X324772Y-124687D01*
X324072Y-124553D01*
X323663Y-124287D01*
X323488Y-123820D01*
X323605Y-123353D01*
X323897Y-123020D01*
X324305Y-122820D01*
X324713D01*
X325122Y-122953D01*
X325472Y-123287D01*
G01X330447Y-126820D02*
X328113D01*
Y-122820D01*
X330447D01*
G01X329513Y-124753D02*
X328113D01*
G01X338880Y-126820D02*
X338413Y-126753D01*
X338005Y-126487D01*
X337655Y-126087D01*
X337422Y-125620D01*
X337305Y-125087D01*
Y-124553D01*
X337422Y-124020D01*
X337655Y-123553D01*
X338005Y-123153D01*
X338413Y-122887D01*
X338880Y-122820D01*
X339347Y-122887D01*
X339755Y-123153D01*
X340105Y-123553D01*
X340338Y-124020D01*
X340455Y-124553D01*
Y-125087D01*
X340338Y-125620D01*
X340105Y-126087D01*
X339755Y-126487D01*
X339347Y-126753D01*
X338880Y-126820D01*
G01X342338D02*
Y-122820D01*
X345022Y-126820D01*
Y-122820D01*
G01X347313D02*
Y-126820D01*
X349647D01*
G01X353280D02*
Y-125020D01*
X352113Y-122820D01*
G01X354447D02*
X353280Y-125020D01*
G01X358372Y-128153D02*
X358955Y-127487D01*
X359247Y-126820D01*
Y-124153D01*
X358955Y-123487D01*
X358372Y-122820D01*
G01X212235Y-127820D02*
X215525Y-121520D01*
G01X212235D02*
X215525Y-127820D01*
G01X207530Y-112153D02*
X211030D01*
G01X212330D02*
X215830D01*
G01X217130D02*
X220630D01*
G01X227313Y-110820D02*
Y-106820D01*
X228713D01*
X229180Y-107020D01*
X229530Y-107487D01*
X229647Y-108020D01*
X229530Y-108553D01*
X229238Y-108953D01*
X228713Y-109153D01*
X227313D01*
G01X231997Y-106820D02*
Y-109687D01*
X232230Y-110287D01*
X232697Y-110687D01*
X233280Y-110820D01*
X233863Y-110687D01*
X234330Y-110287D01*
X234563Y-109687D01*
Y-106820D01*
G01X238547Y-108687D02*
X238780Y-108487D01*
X238955Y-108153D01*
X239072Y-107687D01*
X238955Y-107287D01*
X238722Y-107020D01*
X238313Y-106820D01*
X236738D01*
Y-110820D01*
X238663D01*
X239072Y-110553D01*
X239305Y-110153D01*
X239422Y-109687D01*
X239305Y-109220D01*
X238955Y-108820D01*
X238547Y-108687D01*
X236738D01*
G01X242180Y-106820D02*
X243580D01*
G01X242880D02*
Y-110820D01*
G01X242180D02*
X243580D01*
G01X252188Y-112153D02*
X251605Y-111487D01*
X251313Y-110820D01*
Y-108153D01*
X251605Y-107487D01*
X252188Y-106820D01*
G01X256113Y-110820D02*
Y-106820D01*
X257513D01*
X257980Y-107020D01*
X258330Y-107487D01*
X258447Y-108020D01*
X258330Y-108553D01*
X258038Y-108953D01*
X257513Y-109153D01*
X256113D01*
G01X260797Y-106820D02*
Y-109687D01*
X261030Y-110287D01*
X261497Y-110687D01*
X262080Y-110820D01*
X262663Y-110687D01*
X263130Y-110287D01*
X263363Y-109687D01*
Y-106820D01*
G01X267347Y-108687D02*
X267580Y-108487D01*
X267755Y-108153D01*
X267872Y-107687D01*
X267755Y-107287D01*
X267522Y-107020D01*
X267113Y-106820D01*
X265538D01*
Y-110820D01*
X267463D01*
X267872Y-110553D01*
X268105Y-110153D01*
X268222Y-109687D01*
X268105Y-109220D01*
X267755Y-108820D01*
X267347Y-108687D01*
X265538D01*
G01X270513Y-106820D02*
Y-110820D01*
X272847D01*
G01X275780Y-106820D02*
X277180D01*
G01X276480D02*
Y-110820D01*
G01X275780D02*
X277180D01*
G01X282563Y-107153D02*
X282213Y-106953D01*
X281805Y-106820D01*
X281338D01*
X280813Y-107020D01*
X280405Y-107353D01*
X280113Y-107753D01*
X279880Y-108420D01*
X279822Y-109020D01*
X279938Y-109620D01*
X280113Y-110020D01*
X280463Y-110420D01*
X280872Y-110687D01*
X281280Y-110820D01*
X281688D01*
X282097Y-110687D01*
X282447Y-110487D01*
X282738Y-110220D01*
G01X290180Y-106820D02*
X291580D01*
G01X290880D02*
Y-110820D01*
G01X290180D02*
X291580D01*
G01X294338D02*
Y-106820D01*
X297022Y-110820D01*
Y-106820D01*
G01X299372Y-110820D02*
Y-106820D01*
X301588D01*
G01X300772Y-108753D02*
X299372D01*
G01X305280Y-110820D02*
X304813Y-110753D01*
X304405Y-110487D01*
X304055Y-110087D01*
X303822Y-109620D01*
X303705Y-109087D01*
Y-108553D01*
X303822Y-108020D01*
X304055Y-107553D01*
X304405Y-107153D01*
X304813Y-106887D01*
X305280Y-106820D01*
X305747Y-106887D01*
X306155Y-107153D01*
X306505Y-107553D01*
X306738Y-108020D01*
X306855Y-108553D01*
Y-109087D01*
X306738Y-109620D01*
X306505Y-110087D01*
X306155Y-110487D01*
X305747Y-110753D01*
X305280Y-110820D01*
G01X308913D02*
Y-106820D01*
X310372D01*
X310838Y-107020D01*
X311130Y-107287D01*
X311247Y-107820D01*
X311130Y-108353D01*
X310780Y-108687D01*
X310372Y-108887D01*
X308913D01*
G01X310372D02*
X311247Y-110820D01*
G01X313363D02*
Y-106820D01*
X314880Y-110153D01*
X316397Y-106820D01*
Y-110820D01*
G01X318222D02*
X319680Y-106820D01*
X321138Y-110820D01*
G01X320613Y-109420D02*
X318747D01*
G01X324480Y-106820D02*
Y-110820D01*
G01X323138Y-106820D02*
X325822D01*
G01X328580D02*
X329980D01*
G01X329280D02*
Y-110820D01*
G01X328580D02*
X329980D01*
G01X334080D02*
X333613Y-110753D01*
X333205Y-110487D01*
X332855Y-110087D01*
X332622Y-109620D01*
X332505Y-109087D01*
Y-108553D01*
X332622Y-108020D01*
X332855Y-107553D01*
X333205Y-107153D01*
X333613Y-106887D01*
X334080Y-106820D01*
X334547Y-106887D01*
X334955Y-107153D01*
X335305Y-107553D01*
X335538Y-108020D01*
X335655Y-108553D01*
Y-109087D01*
X335538Y-109620D01*
X335305Y-110087D01*
X334955Y-110487D01*
X334547Y-110753D01*
X334080Y-110820D01*
G01X337538D02*
Y-106820D01*
X340222Y-110820D01*
Y-106820D01*
G01X343972Y-112153D02*
X344555Y-111487D01*
X344847Y-110820D01*
Y-108153D01*
X344555Y-107487D01*
X343972Y-106820D01*
G01X247938Y-158820D02*
Y-154820D01*
X250622Y-158820D01*
Y-154820D01*
G01X252797D02*
Y-157687D01*
X253030Y-158287D01*
X253497Y-158687D01*
X254080Y-158820D01*
X254663Y-158687D01*
X255130Y-158287D01*
X255363Y-157687D01*
Y-154820D01*
G01X257363Y-158820D02*
Y-154820D01*
X258880Y-158153D01*
X260397Y-154820D01*
Y-158820D01*
G01X264147Y-156687D02*
X264380Y-156487D01*
X264555Y-156153D01*
X264672Y-155687D01*
X264555Y-155287D01*
X264322Y-155020D01*
X263913Y-154820D01*
X262338D01*
Y-158820D01*
X264263D01*
X264672Y-158553D01*
X264905Y-158153D01*
X265022Y-157687D01*
X264905Y-157220D01*
X264555Y-156820D01*
X264147Y-156687D01*
X262338D01*
G01X269647Y-158820D02*
X267313D01*
Y-154820D01*
X269647D01*
G01X268713Y-156753D02*
X267313D01*
G01X272113Y-158820D02*
Y-154820D01*
X273572D01*
X274038Y-155020D01*
X274330Y-155287D01*
X274447Y-155820D01*
X274330Y-156353D01*
X273980Y-156687D01*
X273572Y-156887D01*
X272113D01*
G01X273572D02*
X274447Y-158820D01*
G01X257567Y-90650D02*
Y-84350D01*
X259133D01*
X259760Y-84665D01*
X260230Y-85085D01*
X260622Y-85715D01*
X260935Y-86450D01*
X261013Y-87500D01*
X260935Y-88550D01*
X260622Y-89285D01*
X260230Y-89915D01*
X259760Y-90335D01*
X259133Y-90650D01*
X257567D01*
G01X267157D02*
X264023D01*
Y-84350D01*
X267157D01*
G01X265903Y-87395D02*
X264023D01*
G01X269932Y-84350D02*
X271890Y-90650D01*
X273848Y-84350D01*
G01X276467Y-90650D02*
Y-84350D01*
G01X279443D02*
X276467Y-88235D01*
G01X279913Y-90650D02*
X277798Y-86450D01*
G01X283550Y-84350D02*
X285430D01*
G01X284490D02*
Y-90650D01*
G01X283550D02*
X285430D01*
G01X290790Y-84350D02*
Y-90650D01*
G01X288988Y-84350D02*
X292592D01*
G01X296072Y-88550D02*
X298108D01*
G01X301353Y-90650D02*
Y-84350D01*
X303390Y-89600D01*
X305427Y-84350D01*
Y-90650D01*
G01X308123D02*
Y-84350D01*
X310003D01*
X310630Y-84665D01*
X311100Y-85400D01*
X311257Y-86240D01*
X311100Y-87080D01*
X310708Y-87710D01*
X310003Y-88025D01*
X308123D01*
G01X317713Y-84875D02*
X317243Y-84560D01*
X316695Y-84350D01*
X316068D01*
X315363Y-84665D01*
X314815Y-85190D01*
X314423Y-85820D01*
X314110Y-86870D01*
X314032Y-87815D01*
X314188Y-88760D01*
X314423Y-89390D01*
X314893Y-90020D01*
X315442Y-90440D01*
X315990Y-90650D01*
X316538D01*
X317087Y-90440D01*
X317557Y-90125D01*
X317948Y-89705D01*
G01X320567D02*
X321037Y-90230D01*
X321585Y-90545D01*
X322290Y-90650D01*
X322995Y-90440D01*
X323543Y-90020D01*
X323935Y-89285D01*
X324013Y-88445D01*
X323857Y-87605D01*
X323465Y-87080D01*
X322917Y-86660D01*
X322368Y-86555D01*
X321820Y-86660D01*
X321115Y-87080D01*
X321350Y-84350D01*
X323465D01*
G01X328433Y-90650D02*
X328590Y-89285D01*
X328825Y-88130D01*
X329138Y-87080D01*
X329530Y-85925D01*
X330157Y-84350D01*
X327023D01*
G01X335830Y-90650D02*
Y-84350D01*
X332932Y-88865D01*
X336848D01*
G01X341190Y-90650D02*
X341738Y-90545D01*
X342365Y-90230D01*
X342757Y-89705D01*
X342913Y-88970D01*
X342757Y-88235D01*
X342287Y-87605D01*
X341582Y-87290D01*
X340798D01*
X340328Y-87080D01*
X339937Y-86555D01*
X339780Y-85820D01*
X340015Y-85085D01*
X340563Y-84560D01*
X341190Y-84350D01*
X341817Y-84560D01*
X342365Y-85085D01*
X342600Y-85820D01*
X342443Y-86555D01*
X342052Y-87080D01*
X341582Y-87290D01*
X340798D01*
X340093Y-87605D01*
X339623Y-88235D01*
X339467Y-88970D01*
X339623Y-89705D01*
X340015Y-90230D01*
X340642Y-90545D01*
X341190Y-90650D01*
G01X347960Y-87500D02*
X349527D01*
Y-89390D01*
X349057Y-90020D01*
X348508Y-90440D01*
X347725Y-90650D01*
X346942Y-90440D01*
X346393Y-90020D01*
X345923Y-89390D01*
X345610Y-88655D01*
X345453Y-87815D01*
Y-87080D01*
X345610Y-86450D01*
X345923Y-85715D01*
X346393Y-85085D01*
X346863Y-84665D01*
X347490Y-84350D01*
X348038D01*
X348665Y-84560D01*
X349135Y-84980D01*
G01X282880Y-165820D02*
Y-159520D01*
X281940Y-160780D01*
G01Y-165820D02*
X283820D01*
G01X289023D02*
X289180Y-164455D01*
X289415Y-163300D01*
X289728Y-162250D01*
X290120Y-161095D01*
X290747Y-159520D01*
X287613D01*
G01X295480D02*
X294853Y-159730D01*
X294383Y-160255D01*
X294070Y-160885D01*
X293835Y-161725D01*
X293757Y-162670D01*
X293835Y-163615D01*
X294070Y-164455D01*
X294383Y-165085D01*
X294853Y-165610D01*
X295480Y-165820D01*
X296107Y-165610D01*
X296577Y-165085D01*
X296890Y-164455D01*
X297125Y-163615D01*
X297203Y-162670D01*
X297125Y-161725D01*
X296890Y-160885D01*
X296577Y-160255D01*
X296107Y-159730D01*
X295480Y-159520D01*
G01X300762Y-163720D02*
X302798D01*
G01X306592Y-160570D02*
X307062Y-159940D01*
X307610Y-159625D01*
X308237Y-159520D01*
X309020Y-159730D01*
X309568Y-160255D01*
X309725Y-160885D01*
X309647Y-161515D01*
X309333Y-162040D01*
X307767Y-163090D01*
X307062Y-163825D01*
X306592Y-164875D01*
X306435Y-165820D01*
X309725D01*
G01X313048Y-165085D02*
X313597Y-165610D01*
X314223Y-165820D01*
X314850Y-165610D01*
X315398Y-164980D01*
X315790Y-164035D01*
X315947Y-163090D01*
Y-161935D01*
X315790Y-160990D01*
X315398Y-160150D01*
X314928Y-159730D01*
X314380Y-159520D01*
X313753Y-159730D01*
X313283Y-160150D01*
X312970Y-160780D01*
X312813Y-161620D01*
X312970Y-162355D01*
X313362Y-163090D01*
X313832Y-163510D01*
X314380Y-163615D01*
X315007Y-163405D01*
X315477Y-162880D01*
X315947Y-161935D01*
G01X320680Y-159520D02*
X320053Y-159730D01*
X319583Y-160255D01*
X319270Y-160885D01*
X319035Y-161725D01*
X318957Y-162670D01*
X319035Y-163615D01*
X319270Y-164455D01*
X319583Y-165085D01*
X320053Y-165610D01*
X320680Y-165820D01*
X321307Y-165610D01*
X321777Y-165085D01*
X322090Y-164455D01*
X322325Y-163615D01*
X322403Y-162670D01*
X322325Y-161725D01*
X322090Y-160885D01*
X321777Y-160255D01*
X321307Y-159730D01*
X320680Y-159520D01*
G01X325257Y-164560D02*
X325727Y-165295D01*
X326353Y-165715D01*
X327058Y-165820D01*
X327685Y-165715D01*
X328312Y-165190D01*
X328703Y-164560D01*
X328782Y-163930D01*
X328625Y-163195D01*
X328077Y-162670D01*
X327528Y-162460D01*
X326823D01*
G01X327528D02*
X327998Y-162145D01*
X328390Y-161620D01*
X328547Y-160990D01*
X328390Y-160360D01*
X327998Y-159835D01*
X327293Y-159520D01*
X326588Y-159625D01*
X325883Y-160045D01*
G01X333280Y-159520D02*
X332653Y-159730D01*
X332183Y-160255D01*
X331870Y-160885D01*
X331635Y-161725D01*
X331557Y-162670D01*
X331635Y-163615D01*
X331870Y-164455D01*
X332183Y-165085D01*
X332653Y-165610D01*
X333280Y-165820D01*
X333907Y-165610D01*
X334377Y-165085D01*
X334690Y-164455D01*
X334925Y-163615D01*
X335003Y-162670D01*
X334925Y-161725D01*
X334690Y-160885D01*
X334377Y-160255D01*
X333907Y-159730D01*
X333280Y-159520D01*
G01X344313Y-165820D02*
Y-159520D01*
X346272D01*
X346898Y-159835D01*
X347290Y-160255D01*
X347447Y-161095D01*
X347290Y-161935D01*
X346820Y-162460D01*
X346272Y-162775D01*
X344313D01*
G01X346272D02*
X347447Y-165820D01*
G01X353747D02*
X350613D01*
Y-159520D01*
X353747D01*
G01X352493Y-162565D02*
X350613D01*
G01X356522Y-159520D02*
X358480Y-165820D01*
X360438Y-159520D01*
G01X371707Y-162460D02*
X372020Y-162145D01*
X372255Y-161620D01*
X372412Y-160885D01*
X372255Y-160255D01*
X371942Y-159835D01*
X371393Y-159520D01*
X369278D01*
Y-165820D01*
X371863D01*
X372412Y-165400D01*
X372725Y-164770D01*
X372882Y-164035D01*
X372725Y-163300D01*
X372255Y-162670D01*
X371707Y-162460D01*
X369278D01*
G01X468562Y79511D02*
X465236D01*
X464557Y80190D01*
X440625D01*
X440240Y79805D01*
X438000D01*
G01X468562Y82070D02*
X465237D01*
X464557Y81390D01*
X440625D01*
X440240Y81775D01*
X438000D01*
G54D23*
X16040Y137697D03*
G54D41*
X83470Y124730D03*
X77170D03*
X163060Y88040D03*
X156760D03*
X454090Y106190D03*
X447790D03*
G54D50*
X108339Y83731D03*
Y81763D03*
Y79794D03*
Y77826D03*
Y75857D03*
Y73889D03*
X123741D03*
Y75857D03*
Y77826D03*
Y79794D03*
Y81763D03*
Y83731D03*
G54D14*
G01X69850Y106450D02*
X62030D01*
X52340Y116140D01*
X13800D01*
X9312Y111652D01*
Y93732D01*
G01X25810Y169900D02*
X19346D01*
X16060Y166614D01*
G01X25823Y179520D02*
Y173413D01*
X25810Y173400D01*
Y169900D01*
G01X57050Y160550D02*
X51520D01*
G01X74534Y133230D02*
Y129084D01*
G01X80534Y133230D02*
Y129046D01*
G01Y139560D02*
Y133230D01*
G01X89910Y148930D02*
Y145430D01*
X89880Y145400D01*
Y144040D01*
X87540Y141700D01*
Y139650D01*
G01X75830Y150020D02*
Y141896D01*
X78166Y139560D01*
X80534D01*
G01X75830Y154650D02*
Y150020D01*
G01X83530Y167650D02*
X88330D01*
X89562Y168882D01*
Y171540D01*
G01X75830Y159760D02*
Y154650D01*
G01Y167650D02*
Y159760D01*
G01X123741Y64190D02*
Y58570D01*
G01Y64190D02*
Y70360D01*
G01X134010Y73800D02*
X130320D01*
X130290Y73830D01*
G01X139200Y73790D02*
X134020D01*
X134010Y73800D01*
G01X145451Y73790D02*
X139200D01*
G01X139420Y112150D02*
Y117820D01*
X132380D01*
X127100Y123100D01*
G01X139420Y106150D02*
X134050D01*
X127100Y113100D01*
G01X145451Y66970D02*
Y73790D01*
G01Y66970D02*
Y62470D01*
G01X151451Y66970D02*
Y72908D01*
X150569Y73790D01*
G01X151451Y62300D02*
Y66970D01*
G01X230090Y76472D02*
X225430D01*
G01Y70472D02*
X232862D01*
G01X237330Y60340D02*
X231480D01*
X231450Y60370D01*
G01X232862Y70472D02*
X232870Y70480D01*
X239324D01*
X239332Y70472D01*
G01X272420Y20400D02*
X271890Y20370D01*
X265980D01*
G01X306450Y142610D02*
Y138023D01*
X306447Y138020D01*
G01X306450Y147950D02*
Y142610D01*
G01X309719Y159743D02*
Y163870D01*
G01X302719Y159744D02*
Y163950D01*
G01X309719Y153743D02*
Y151219D01*
X306450Y147950D01*
G01X302719Y153744D02*
X309718D01*
X309719Y153743D01*
G01X364449Y75210D02*
Y79346D01*
G01D02*
X361595D01*
X360595Y78346D01*
X357935D01*
G01X365100Y118372D02*
X360440D01*
G01X380536Y25700D02*
X384500D01*
G01X380535Y32700D02*
X384510D01*
G01X380535Y57382D02*
Y52100D01*
G01Y64382D02*
X384510D01*
G01X372167Y118370D02*
Y122190D01*
G01X402610Y70715D02*
X406110D01*
X410625Y75230D01*
X412830D01*
G01X402610Y66490D02*
Y70715D01*
G01X423830Y127640D02*
Y123950D01*
G01Y127640D02*
X429000D01*
G01X423830Y133640D02*
X417460D01*
X417430Y133670D01*
G01X430420Y133640D02*
X423830D01*
G01X421720Y153840D02*
Y149730D01*
G01X415400Y153860D02*
X421700D01*
X421720Y153840D01*
G01X446500Y75460D02*
X442350D01*
G01X453910Y100400D02*
X449670D01*
G01X463740Y108060D02*
Y107460D01*
X456680Y100400D01*
X453910D01*
G01X454320Y119886D02*
X456164Y121730D01*
X463720D01*
G01X454320Y129334D02*
Y130000D01*
X457350Y133030D01*
Y134440D01*
G01X459840Y90189D02*
Y84669D01*
X459800Y84629D01*
G01X459840Y90189D02*
Y94841D01*
X464929Y99930D01*
X472810D01*
X475140Y102260D01*
Y108060D01*
G01X474720Y121730D02*
Y130290D01*
G01X467560Y134370D02*
X471810D01*
G01X457350Y134440D02*
X461490D01*
X461560Y134370D01*
X650Y171014D03*
Y175014D03*
X29030Y-22730D03*
X33030D03*
X29030Y-14080D03*
X33030D03*
X9312Y38130D03*
X13312D03*
X23430Y37050D03*
X27430D03*
X5320Y171014D03*
X28870Y152130D03*
Y156130D03*
X24570Y152170D03*
Y156170D03*
X5320Y175014D03*
X49920Y28030D03*
X45920D03*
X50010Y17680D03*
X46010D03*
X49930Y31990D03*
X45930D03*
X49980Y22040D03*
X45980D03*
X44490Y127110D03*
Y123110D03*
X76050Y53500D03*
X80050D03*
X80360Y87300D03*
Y83300D03*
X80290Y73290D03*
Y77290D03*
X71470Y112809D03*
Y116809D03*
X77070Y105310D03*
X81070D03*
X84090Y150370D03*
Y154370D03*
X71830Y154650D03*
X75830D03*
X62130Y184772D03*
Y188772D03*
X114993Y60350D03*
X97950Y72344D03*
X93950D03*
X94000Y68474D03*
X98000D03*
X94130Y87194D03*
X98130D03*
X94130Y79794D03*
X98130D03*
Y76094D03*
X94130D03*
Y83494D03*
X98130D03*
X105910Y97970D03*
Y93970D03*
X90759Y101090D03*
X94759D03*
X101910Y93970D03*
Y97970D03*
X98130Y90894D03*
X94130D03*
X109910Y93970D03*
Y97970D03*
X113910Y93970D03*
Y97970D03*
X103810Y124730D03*
Y128730D03*
X98820Y135650D03*
Y139650D03*
X100110Y158320D03*
Y162320D03*
X95610Y158320D03*
Y162320D03*
X119610Y28910D03*
X123610D03*
Y24810D03*
X119610D03*
X118993Y60350D03*
X131980Y84710D03*
Y88710D03*
X127741Y64190D03*
X123741D03*
X130290Y69830D03*
Y73830D03*
X134010Y69800D03*
Y73800D03*
X132040Y96890D03*
Y92890D03*
X131116Y139893D03*
X133944Y142721D03*
X134024Y136664D03*
X131196Y133836D03*
X139150Y164890D03*
X143150D03*
X167190Y130980D03*
X171190D03*
X162090Y123910D03*
Y119910D03*
X147550Y155639D03*
Y159639D03*
X165330Y155639D03*
Y159639D03*
X147420Y149300D03*
X151420D03*
X149150Y164890D03*
X153150D03*
X193620Y-4140D03*
X189620D03*
X190740Y141500D03*
Y145500D03*
X201860Y133880D03*
Y129880D03*
X190650Y129980D03*
Y133980D03*
X201860Y119750D03*
Y123750D03*
X200656Y149760D03*
X193650Y153950D03*
Y157950D03*
X219130Y60370D03*
Y56370D03*
Y71160D03*
Y67160D03*
X215761Y145750D03*
X219761D03*
X209850Y142171D03*
Y138171D03*
X224660Y138150D03*
Y142150D03*
X205880Y138169D03*
Y134169D03*
X221850Y132670D03*
X225850D03*
X204656Y149760D03*
X238690Y3530D03*
X234690D03*
Y-850D03*
X238690D03*
X237330Y56340D03*
Y60340D03*
X239332Y74472D03*
Y70472D03*
X235412Y64566D03*
X239412D03*
X239332Y115810D03*
Y111810D03*
X231891Y132080D03*
Y128080D03*
X277963Y13050D03*
X281963D03*
X283880Y16800D03*
Y20800D03*
X272420Y16400D03*
Y20400D03*
X276700Y9330D03*
X272700D03*
X282020Y9332D03*
X286020D03*
X302234Y4704D03*
X299406Y1876D03*
X293891Y19291D03*
X291063Y16463D03*
X305704Y8006D03*
X308532Y10834D03*
X310450Y142610D03*
X306450D03*
X302420Y142020D03*
Y138020D03*
X310447D03*
X306447D03*
X290720Y155160D03*
X294720D03*
X340049Y20800D03*
X336049D03*
X361248Y30647D03*
X357104Y30704D03*
X356683Y61383D03*
Y57383D03*
X361248Y34647D03*
X361017Y61382D03*
Y57382D03*
X357104Y34704D03*
X356918Y53618D03*
Y49618D03*
X357935Y82346D03*
Y78346D03*
Y109905D03*
Y105905D03*
X366640Y143790D03*
X362640D03*
X366640Y135190D03*
X362640D03*
X366640Y130890D03*
X362640D03*
X366640Y126590D03*
X362640D03*
Y139490D03*
X366640D03*
Y148090D03*
X362640D03*
X389760Y102570D03*
Y106570D03*
X395150Y163470D03*
X391150D03*
X427665Y548D03*
Y28748D03*
Y21698D03*
Y14648D03*
Y7616D03*
Y49880D03*
Y42830D03*
Y35780D03*
X412830Y71230D03*
Y75230D03*
X411990Y96640D03*
Y92640D03*
X427910Y106300D03*
X421595Y101580D03*
X425595D03*
X415670Y138570D03*
X419670D03*
X405150Y163470D03*
X401150D03*
X415400Y157860D03*
Y153860D03*
X447760Y4272D03*
X431665Y548D03*
X447760Y8272D03*
X431665Y28748D03*
Y21698D03*
Y14648D03*
Y7616D03*
X447390Y24230D03*
X443390D03*
X431665Y49880D03*
Y42830D03*
Y35780D03*
X449520Y87790D03*
X445520D03*
X455800Y84629D03*
X449580Y83745D03*
X445580D03*
X432450Y101660D03*
X436450D03*
X445670Y91820D03*
X449670D03*
X431910Y106300D03*
X437700Y106240D03*
X441700D03*
X445670Y100400D03*
X449670D03*
X445670Y96280D03*
X449670D03*
X446840Y134530D03*
X450840D03*
X433000Y127640D03*
X429000D03*
X455330Y143270D03*
Y139270D03*
X455825Y158980D03*
X455330Y147340D03*
Y151340D03*
X459800Y84629D03*
X461370Y143270D03*
X466920D03*
Y139270D03*
X459825Y158980D03*
X466830Y147340D03*
Y151340D03*
X461370Y147270D03*
G54D32*
G01X57586Y126860D02*
X52170D01*
G01X71086Y135960D02*
X69586Y134460D01*
Y126860D01*
G01X71086Y139560D02*
Y135960D01*
G01X102436Y2010D02*
X109330D01*
G01X92397Y13510D02*
Y19030D01*
X41460Y19970D03*
X52170Y126860D03*
X71086Y135960D03*
X109330Y2010D03*
X92397Y19030D03*
X109290Y132360D03*
X103560Y168460D03*
X130590Y149300D03*
X169640Y17640D03*
Y34380D03*
X161120Y131070D03*
X179139Y34520D03*
G54D108*
G01X111615Y136910D02*
Y134685D01*
X109290Y132360D01*
G54D24*
X16040Y147736D03*
G54D42*
X71086Y143300D03*
X80534D03*
X71086Y139560D03*
X80534D03*
X71086Y147040D03*
X80534D03*
G54D15*
X17629Y-22750D03*
X23731D03*
X17629Y-14080D03*
X23731D03*
X142041Y149300D03*
X135939D03*
X416149Y572D03*
X422251D03*
X416149Y14660D03*
X422251D03*
X416149Y7616D03*
X422251D03*
X416149Y28748D03*
X422251D03*
X416149Y21704D03*
X422251D03*
X416149Y35792D03*
X422251D03*
X416149Y42836D03*
X422251D03*
X416149Y49880D03*
X422251D03*
G54D60*
X110472Y188654D03*
G54D51*
X113600Y113100D03*
X127100D03*
X216760Y109180D03*
X260246Y154320D03*
G54D33*
X58410Y27390D03*
X69410D03*
X474720Y121730D03*
X463720D03*
G54D109*
G01X27990Y-4920D02*
X30232Y-7162D01*
Y-8478D01*
X29090Y-9620D01*
G01X32725D02*
X31582Y-8477D01*
Y-7068D01*
X33730Y-4920D01*
G54D43*
X75830Y167650D03*
X83530D03*
X451770Y61780D03*
X459470D03*
G54D52*
X97901Y112479D03*
Y107361D03*
X90759Y109920D03*
G54D61*
X145451Y73790D03*
X150569D03*
G54D16*
X27990Y1080D03*
Y-4920D03*
X33730Y1080D03*
Y-4920D03*
X12770Y21530D03*
Y27530D03*
X25810Y169900D03*
Y163900D03*
X86480Y83300D03*
Y89300D03*
X75210Y77330D03*
Y83330D03*
X86480Y77290D03*
Y71290D03*
X84320Y115920D03*
Y109920D03*
X87540Y133650D03*
Y139650D03*
X64800Y137300D03*
Y143300D03*
X89910Y160930D03*
Y154930D03*
Y148930D03*
X64650Y153550D03*
Y159550D03*
Y172650D03*
Y166650D03*
X103830Y112520D03*
Y118520D03*
X93330Y133650D03*
Y139650D03*
X139200Y67790D03*
Y73790D03*
X139420Y106150D03*
Y112150D03*
X169640Y29810D03*
Y23810D03*
Y6060D03*
Y12060D03*
Y45060D03*
Y39060D03*
X153550Y131070D03*
Y137070D03*
X179140Y29810D03*
Y23810D03*
Y6060D03*
Y12060D03*
X189170Y45059D03*
Y39059D03*
X179139Y45060D03*
Y39060D03*
X231450Y54370D03*
Y60370D03*
X225430Y70472D03*
Y76472D03*
X265980Y14370D03*
Y20370D03*
X302719Y153744D03*
Y159744D03*
X309719Y153743D03*
Y159743D03*
X367553Y51382D03*
Y57382D03*
X364449Y85346D03*
Y79346D03*
X365100Y112372D03*
Y118372D03*
X372167Y112370D03*
Y118370D03*
X386490D03*
Y112370D03*
X392990Y118370D03*
Y112370D03*
X399490Y118370D03*
Y112370D03*
X415920Y60220D03*
X423640D03*
X415920Y66220D03*
X423640D03*
X417430Y127670D03*
Y133670D03*
X423830Y133640D03*
Y127640D03*
X421720Y159840D03*
Y153840D03*
X431240Y60220D03*
X446500Y69460D03*
Y75460D03*
X431240Y66220D03*
X458460Y75430D03*
Y69430D03*
G54D34*
X47580Y96330D03*
G54D25*
X30530Y170550D03*
X51520Y160550D03*
X51540Y165550D03*
X69850Y106450D03*
X145451Y62470D03*
X151451Y62300D03*
X153550Y143000D03*
X197800Y9430D03*
X230090Y76472D03*
X243430Y24230D03*
X309719Y163870D03*
X302719Y163950D03*
X360440Y118372D03*
X384510Y32700D03*
X384500Y25700D03*
X380535Y52100D03*
X384510Y64382D03*
X372167Y122190D03*
X423830Y123950D03*
X421720Y149730D03*
X442380Y96280D03*
X453840Y94660D03*
X474720Y130290D03*
X471810Y134370D03*
X457350Y134440D03*
G54D70*
X170444Y122532D03*
Y125288D03*
Y123910D03*
X167196Y122532D03*
Y125288D03*
Y123910D03*
G54D53*
X105120Y145375D03*
Y143405D03*
Y141435D03*
Y139465D03*
Y153255D03*
Y151285D03*
Y149315D03*
Y147345D03*
X419100Y77835D03*
Y79805D03*
Y81775D03*
Y83745D03*
Y85715D03*
Y87685D03*
Y89655D03*
Y91625D03*
G54D62*
X144220Y86239D03*
X137920D03*
X144220Y94901D03*
X137920D03*
G54D44*
X70160Y177760D03*
Y185460D03*
G54D80*
X231891Y158150D03*
Y150670D03*
X223229D03*
G54D35*
X37285Y129231D03*
Y123129D03*
X77170Y112809D03*
Y118911D03*
X231891Y137379D03*
Y143481D03*
G54D26*
X16060Y158740D03*
G54D71*
X161120Y145660D03*
X166120D03*
X171120D03*
X161120Y140660D03*
X166120D03*
X171120D03*
X176120Y145660D03*
Y140660D03*
X181120D03*
G54D17*
G01X118666Y-6970D02*
X124769Y-18372D01*
G01X118666Y-6970D02*
X124769Y4432D01*
G01X118666Y-6970D02*
X125118D01*
G01X118666D02*
Y4432D01*
G01Y-18372D02*
Y-6970D01*
G01X150751Y4432D02*
X156854Y-6970D01*
G01X150751Y-18372D02*
X156854Y-6970D01*
G01X150402D02*
X156854D01*
G01D02*
Y4432D01*
G01Y-18372D02*
Y-6970D01*
G01X159248Y51878D02*
X173200Y65830D01*
G01Y51878D02*
Y65830D01*
G01D02*
X187152Y51878D01*
G01X159248Y79782D02*
X173200Y65830D01*
G01D02*
X187152Y79782D01*
G01X173200Y65830D02*
X187152D01*
G01X159248D02*
X173200D01*
G01D02*
Y79782D01*
G01X463720Y121730D02*
Y108080D01*
X463740Y108060D01*
X14200Y340D03*
X332040Y139970D03*
X448550Y186550D03*
X477110Y-9540D03*
G54D54*
X107675Y136910D03*
X109645D03*
X111615D03*
X113585D03*
X115555D03*
X117525D03*
X119495D03*
X121465D03*
X425595Y75280D03*
X423625D03*
X421655D03*
X435445D03*
X433475D03*
X431505D03*
X429535D03*
X427565D03*
G54D81*
X223229Y157363D03*
G54D90*
X446840Y119886D03*
Y129334D03*
X450580Y119886D03*
Y129334D03*
X454320Y119886D03*
Y129334D03*
G54D36*
X57586Y126860D03*
X69586D03*
G54D45*
X85920Y176843D03*
X103440D03*
G54D27*
X16060Y166614D03*
G54D18*
X16820Y33860D03*
X29590Y188790D03*
X161740Y46550D03*
X232862Y70472D03*
X231630Y101720D03*
Y109820D03*
X306450Y147950D03*
X367860Y32700D03*
X368210Y64376D03*
X365100Y105575D03*
X371350Y159340D03*
X408450Y120320D03*
X416660D03*
X438520Y127640D03*
X430420Y133640D03*
G54D72*
X189170Y9130D03*
Y27610D03*
X252570Y9130D03*
X398860Y53980D03*
X445890Y36210D03*
G54D63*
X143260Y133783D03*
Y141657D03*
G54D46*
X78888Y188654D03*
G54D55*
X114570Y146360D03*
G54D28*
X25823Y179520D03*
X92397Y2010D03*
Y13510D03*
X201857Y9430D03*
G54D37*
X37285Y144802D03*
X55395D03*
X37285Y136338D03*
X55395D03*
X37285Y188772D03*
X55395D03*
X37285Y180308D03*
X55395D03*
X455825Y-192D03*
Y8272D03*
Y166578D03*
Y175042D03*
X473935Y-192D03*
Y8272D03*
Y166578D03*
Y175042D03*
G54D19*
X23430Y9220D03*
X28430D03*
Y30480D03*
X23430D03*
X33430Y9220D03*
X38430D03*
Y30480D03*
X33430D03*
X112300Y27590D03*
X107300D03*
X102300D03*
X97300D03*
Y48850D03*
X102300D03*
X107300D03*
X112300D03*
X224690Y10410D03*
X229690D03*
Y31670D03*
X224690D03*
X234690Y10410D03*
X239690D03*
Y31670D03*
X234690D03*
G54D82*
X256309Y29330D03*
X258278D03*
Y129330D03*
X256309D03*
X260246Y29330D03*
X262215D03*
X264183D03*
X266152D03*
X268120D03*
X270089D03*
X272057D03*
X274026D03*
X275994D03*
X277963D03*
X279931D03*
X281900D03*
X283868D03*
X285837D03*
Y129330D03*
X283868D03*
X281900D03*
X279931D03*
X277963D03*
X275994D03*
X274026D03*
X272057D03*
X270089D03*
X268120D03*
X266152D03*
X264183D03*
X262215D03*
X260246D03*
X287805Y29330D03*
X289774D03*
X291742D03*
X293711D03*
X295679D03*
X297648D03*
X299616D03*
X301585D03*
X303553D03*
X305522D03*
X307490D03*
X309459D03*
X311427D03*
X313396D03*
Y129330D03*
X311427D03*
X309459D03*
X307490D03*
X305522D03*
X303553D03*
X301585D03*
X299616D03*
X297648D03*
X295679D03*
X293711D03*
X291742D03*
X289774D03*
X287805D03*
X315364Y29330D03*
X317333D03*
X319301D03*
X321270D03*
X323238D03*
X325207D03*
X327175D03*
X329144D03*
X331112D03*
X333081D03*
X335049D03*
X337018D03*
X338986D03*
X340955D03*
Y129330D03*
X338986D03*
X337018D03*
X335049D03*
X333081D03*
X331112D03*
X329144D03*
X327175D03*
X325207D03*
X323238D03*
X321270D03*
X319301D03*
X317333D03*
X315364D03*
G54D91*
X446804Y140199D03*
X431056D03*
X446804Y150041D03*
X431056D03*
G54D73*
X207540Y34863D03*
Y19877D03*
G54D64*
X124020Y139465D03*
Y141435D03*
Y143405D03*
Y145375D03*
Y147345D03*
Y149315D03*
Y151285D03*
Y153255D03*
X438000Y87685D03*
Y85715D03*
Y83745D03*
Y81775D03*
Y79805D03*
Y77835D03*
Y91625D03*
Y89655D03*
G54D29*
X15784Y179520D03*
X102436Y2010D03*
Y13510D03*
X211896Y9430D03*
G54D38*
X57050Y155550D03*
Y160550D03*
Y165550D03*
Y170550D03*
X35790D03*
Y165550D03*
Y160550D03*
Y155550D03*
G54D83*
X248632Y60629D03*
Y58661D03*
Y56692D03*
Y54724D03*
Y52755D03*
Y50787D03*
Y48818D03*
Y46850D03*
Y44881D03*
Y42913D03*
Y40944D03*
Y38976D03*
Y37007D03*
Y88188D03*
Y86220D03*
Y84251D03*
Y82283D03*
Y80314D03*
Y78346D03*
Y76377D03*
Y74409D03*
Y72440D03*
Y70472D03*
Y68503D03*
Y66535D03*
Y64566D03*
Y62598D03*
Y115747D03*
Y113779D03*
Y111810D03*
Y109842D03*
Y107873D03*
Y105905D03*
Y103936D03*
Y101968D03*
Y99999D03*
Y98031D03*
Y96062D03*
Y94094D03*
Y92125D03*
Y90157D03*
Y121653D03*
Y119684D03*
Y117716D03*
X348632Y37007D03*
Y38976D03*
Y40944D03*
Y42913D03*
Y44881D03*
Y46850D03*
Y48818D03*
Y50787D03*
Y52755D03*
Y54724D03*
Y56692D03*
Y58661D03*
Y60629D03*
Y62598D03*
Y64566D03*
Y66535D03*
Y68503D03*
Y70472D03*
Y72440D03*
Y74409D03*
Y76377D03*
Y78346D03*
Y80314D03*
Y82283D03*
Y84251D03*
Y86220D03*
Y88188D03*
Y90157D03*
Y92125D03*
Y94094D03*
Y96062D03*
Y98031D03*
Y99999D03*
Y101968D03*
Y103936D03*
Y105905D03*
Y107873D03*
Y109842D03*
Y111810D03*
Y113779D03*
Y115747D03*
Y117716D03*
Y119684D03*
Y121653D03*
G54D47*
X118666Y-6970D03*
X156854D03*
G54D92*
X479094Y63719D03*
G54D65*
X139150Y174760D03*
Y184760D03*
X175150Y-25240D03*
X149150Y174760D03*
X159150D03*
X169150D03*
X149150Y184760D03*
X159150D03*
X169150D03*
X195150Y-25240D03*
X185150D03*
X195150Y-15240D03*
X185150D03*
X189150Y174760D03*
X199150D03*
X179150D03*
X199150Y184760D03*
X179150D03*
X189150D03*
X225150Y-25240D03*
X215150D03*
X205150D03*
X225150Y-15240D03*
X215150D03*
X205150D03*
X209150Y174760D03*
X219150D03*
X209150Y184760D03*
X219150D03*
X229150D03*
X245150Y-25240D03*
X235150D03*
X245150Y-15240D03*
X235150D03*
X245150Y174760D03*
X255150D03*
X245150Y184760D03*
X255150D03*
X285150Y-25240D03*
X275150D03*
X265150D03*
X285150Y-15240D03*
X275150D03*
X265150Y174760D03*
X275150D03*
X285150D03*
X265150Y184760D03*
X275150D03*
X285150D03*
X315150Y-25240D03*
X305150D03*
X295150D03*
X315150Y-15240D03*
X305150D03*
X295150D03*
Y174760D03*
X305150D03*
X295150Y184760D03*
X305150D03*
X315150D03*
X335150Y-25240D03*
X325150D03*
X335150Y-15240D03*
X325150D03*
X335150Y174760D03*
X345150D03*
X335150Y184760D03*
X345150D03*
X365150Y-25240D03*
X355150D03*
X365150Y-15240D03*
X355150Y174760D03*
X365150D03*
X355150Y184760D03*
X365150D03*
X385150Y-25240D03*
X375150D03*
X395150D03*
Y-15240D03*
X385150D03*
X375150D03*
X385150Y174760D03*
X395150D03*
X375150D03*
X395150Y184760D03*
X375150D03*
X385150D03*
X425150Y-25240D03*
X415150D03*
X405150D03*
X425150Y-15240D03*
X415150D03*
X405150D03*
Y174760D03*
X415150D03*
X405150Y184760D03*
X415150D03*
X425150D03*
X445150Y-25240D03*
X435150D03*
X445150Y-15240D03*
X435150D03*
G54D56*
X113600Y123100D03*
X127100D03*
X156760Y99180D03*
Y109180D03*
X166760Y99180D03*
Y109180D03*
X176760Y99180D03*
Y109180D03*
X186760Y99180D03*
Y109180D03*
X196760Y99180D03*
Y109180D03*
X206760Y99180D03*
Y109180D03*
X216760Y99180D03*
X250246Y144320D03*
X260246D03*
X250246Y154320D03*
G54D74*
X204095Y56775D03*
Y74885D03*
G54D48*
X116040Y78810D03*
G54D75*
X176760Y120840D03*
Y127140D03*
X184450Y120840D03*
Y127140D03*
X206760Y120840D03*
Y127140D03*
X216760Y120840D03*
Y127140D03*
G54D66*
X137078Y157670D03*
Y159639D03*
Y155701D03*
X141802Y159639D03*
Y157670D03*
X171377D03*
Y159639D03*
Y155701D03*
X159401Y157670D03*
Y159639D03*
X154677Y155701D03*
Y159639D03*
Y157670D03*
X176101Y159639D03*
Y157670D03*
G54D93*
X467283Y70751D03*
Y88271D03*
G54D39*
X89292Y27640D03*
X78268D03*
X224690Y-1970D03*
X213666D03*
G54D57*
X115555Y155810D03*
X113585D03*
X111615D03*
X109645D03*
X107675D03*
X121465D03*
X119495D03*
X117525D03*
X421655Y94180D03*
X423625D03*
X425595D03*
X427565D03*
X429535D03*
X431505D03*
X433475D03*
X435445D03*
G54D84*
X275421Y-520D03*
X283295D03*
G54D85*
X298632Y79330D03*
G54D58*
X89562Y178122D03*
X92121D03*
X94680D03*
X97239D03*
X99798D03*
G54D67*
X139440Y155308D03*
Y160032D03*
X157039D03*
Y155308D03*
X173739D03*
Y160032D03*
G54D49*
X117024Y86511D03*
X115056D03*
X113087D03*
X111119D03*
Y71109D03*
X113087D03*
X115056D03*
X117024D03*
X118993Y86511D03*
X120961D03*
X118993Y71109D03*
X120961D03*
G54D94*
X479094Y79511D03*
G54D76*
X195161Y136793D03*
Y138171D03*
Y139549D03*
Y140927D03*
X197799D03*
Y139549D03*
Y138171D03*
Y136793D03*
X218399D03*
Y138171D03*
Y139549D03*
Y140927D03*
X215761D03*
Y139549D03*
Y138171D03*
Y136793D03*
G54D86*
X294676Y8732D03*
X301636Y15692D03*
G54D95*
X468562Y74393D03*
Y76952D03*
Y79511D03*
Y82070D03*
Y84629D03*
G54D68*
X141802Y155603D03*
X159401D03*
X176101D03*
G54D77*
X181120Y145660D03*
G54D59*
X94680Y188654D03*
G54D69*
X173200Y65830D03*
G54D96*
X463740Y108060D03*
X475140D03*
G54D87*
X378750Y143690D03*
Y141130D03*
Y138570D03*
Y136010D03*
Y133450D03*
Y130890D03*
Y148810D03*
Y146250D03*
X406150Y130890D03*
Y133450D03*
Y136010D03*
Y138570D03*
Y141130D03*
Y143690D03*
Y146250D03*
Y148810D03*
G54D78*
X200656Y155970D03*
Y157939D03*
X187494Y159908D03*
Y157939D03*
Y155970D03*
X184502D03*
Y157939D03*
X203648Y159908D03*
Y157939D03*
Y155970D03*
G54D97*
X479094Y95303D03*
G54D88*
X428550Y84730D03*
G54D79*
X200506Y159908D03*
X184352D03*
G54D89*
X429199Y112900D03*
Y119200D03*
X437861Y112900D03*
Y119200D03*
G54D98*
X476750Y142559D03*
G54D99*
Y147480D03*
M02*
