G04 ================== begin FILE IDENTIFICATION RECORD ==================*
G04 Layout Name:  LAY-29030.brd*
G04 Film Name:    L3_INT_1*
G04 File Format:  Gerber RS274X*
G04 File Origin:  Cadence Allegro 16.6-2015-S065*
G04 Origin Date:  Mon Jun 27 10:01:04 2016*
G04 *
G04 Layer:  VIA CLASS/L3_INT_1*
G04 Layer:  PIN/L3_INT_1*
G04 Layer:  ETCH/L3_INT_1*
G04 Layer:  DRAWING FORMAT/FILM_TITLE_BLOCK*
G04 Layer:  BOARD GEOMETRY/OUTLINE*
G04 *
G04 Offset:    (0.00 0.00)*
G04 Mirror:    No*
G04 Mode:      Positive*
G04 Rotation:  0*
G04 FullContactRelief:  No*
G04 UndefLineWidth:     0.00*
G04 ================== end FILE IDENTIFICATION RECORD ====================*
%FSLAX55Y55*MOIN*%
%IR0*IPPOS*OFA0.00000B0.00000*MIA0B0*SFA1.00000B1.00000*%
%ADD12C,.01*%
%ADD11C,.02*%
%ADD13C,.03*%
%ADD16C,.06*%
%ADD10C,.055*%
%ADD15C,.038*%
%ADD14C,.066*%
%ADD17C,.015*%
%ADD18C,.003*%
%ADD19C,.006*%
%ADD20C,.0045*%
%ADD21C,.0055*%
%ADD22C,.03104*%
%ADD23C,.06104*%
G75*
%LPD*%
G75*
G36*
G01X107690Y-32810D02*
Y3810D01*
X177170D01*
Y-11216D01*
G02X176493Y-11683I-500J1D01*
G03Y-18797I-1343J-3557D01*
G02X177170Y-19264I177J-468D01*
G01Y-19600D01*
X172280D01*
Y-22309D01*
G03Y-28171I2870J-2931D01*
G01Y-29230D01*
X174198D01*
X174225Y-29236D01*
G03X176075I925J3996D01*
G01X176102Y-29230D01*
X184198D01*
X184225Y-29236D01*
G03X186075I925J3996D01*
G01X186102Y-29230D01*
X194198D01*
X194225Y-29236D01*
G03X196075I925J3996D01*
G01X196102Y-29230D01*
X204198D01*
X204225Y-29236D01*
G03X206075I925J3996D01*
G01X206102Y-29230D01*
X214198D01*
X214225Y-29236D01*
G03X216075I925J3996D01*
G01X216102Y-29230D01*
X224198D01*
X224225Y-29236D01*
G03X226075I925J3996D01*
G01X226102Y-29230D01*
X234110D01*
Y-28751D01*
G02X234686Y-28257I500J0D01*
G03Y-22223I464J3017D01*
G02X234110Y-21729I-76J494D01*
G01Y-18751D01*
G02X234686Y-18257I500J0D01*
G03X238199Y-15102I464J3017D01*
G02X238698Y-14580I499J22D01*
G01X240851D01*
G02X241351Y-15099I0J-500D01*
G03X248949I3799J-141D01*
G02X249449Y-14580I500J19D01*
G01X256580D01*
Y-32810D01*
X107690D01*
G37*
%LPC*%
G75*
G54D22*
X133730Y-5450D03*
X167460Y-23950D03*
X160890Y-24100D03*
X163990Y-26500D03*
X163840Y-20920D03*
X169860Y-4540D03*
X169750Y-20D03*
X175100Y-4510D03*
G54D23*
X245150Y-25240D03*
%LPD*%
G75*
G54D10*
X3328Y103732D03*
G54D20*
G01X127370Y79794D02*
X127343Y79767D01*
Y79717D01*
X127358Y79702D01*
Y79066D01*
X125262Y76970D01*
X109738D01*
X107678Y79030D01*
X88060D01*
X72300Y63270D01*
X71530D01*
X70195Y64605D01*
G01X129230Y77830D02*
X127820D01*
X125760Y75770D01*
X109240D01*
X107180Y77830D01*
X88558D01*
X72798Y62070D01*
X71360D01*
X70195Y60905D01*
G01X127280Y83731D02*
X126512Y82963D01*
X88927D01*
X74410Y97480D01*
X72558D01*
X71280Y98758D01*
G01X129250Y81763D02*
X88429D01*
X73912Y96280D01*
X72558D01*
X71280Y95002D01*
G54D11*
G01X419530Y-70820D02*
Y-170820D01*
X19530D01*
G01D02*
Y-70820D01*
X419530D01*
X29090Y-9620D03*
X32725D03*
X44490Y131180D03*
X60460Y136338D03*
X70195Y60905D03*
Y64605D03*
X87690Y101100D03*
X71280Y98758D03*
Y95002D03*
X73440Y124700D03*
X62540Y118630D03*
X84300Y147090D03*
X68560Y154690D03*
X68790Y159550D03*
X68930Y166650D03*
X93080Y60350D03*
X116620Y63550D03*
X110190Y67440D03*
X113087Y65830D03*
X93930Y93930D03*
X93830Y98110D03*
X109910Y89350D03*
X90776Y90894D03*
X101910Y101300D03*
X113910Y90970D03*
X115555Y133430D03*
X113585Y130820D03*
X93930Y154930D03*
X91540Y164960D03*
X115555Y158960D03*
X113585Y163360D03*
X109645Y159515D03*
X107675Y161720D03*
X111615Y161410D03*
X129230Y77830D03*
X127280Y83731D03*
X129250Y81763D03*
X127370Y79794D03*
X120961Y108019D03*
X124330Y128780D03*
X120860Y128730D03*
X117525Y131310D03*
X127610Y143405D03*
X117525Y163280D03*
X121465Y159040D03*
X124020Y160250D03*
X133480Y155870D03*
X119495Y161350D03*
X144490Y159639D03*
X127160Y147345D03*
X165640Y29040D03*
X164365Y39405D03*
X154880Y53070D03*
X148880Y59644D03*
X154690Y56820D03*
X171900Y115930D03*
X164950Y120690D03*
X154677Y161930D03*
X162750Y161580D03*
X168600Y159640D03*
X150920Y161770D03*
X168510Y153640D03*
X160360Y152020D03*
X200710Y42800D03*
X174510Y38790D03*
X194710Y64820D03*
X182810Y104350D03*
X189170Y138171D03*
X201060Y141030D03*
X197799Y133880D03*
X184450Y132120D03*
X187660Y141500D03*
X201320Y138171D03*
X197070Y151530D03*
X178910Y157670D03*
X184502Y153570D03*
X190680Y157939D03*
X184820Y149080D03*
X211140Y27330D03*
X217200Y42800D03*
X206710D03*
X214420Y115230D03*
X221570Y142080D03*
X218399Y132670D03*
X212725Y137495D03*
X203648Y153580D03*
X206570Y157939D03*
X256309Y24550D03*
X255910Y46850D03*
X253820Y44881D03*
X257990Y34300D03*
X253553Y50787D03*
X257565Y52755D03*
X253580Y54724D03*
X256568Y56692D03*
X253659Y58661D03*
X254153Y76377D03*
X241600Y67320D03*
X254520Y105905D03*
X240940Y105890D03*
X255700Y99999D03*
X250720Y159730D03*
X253940Y168790D03*
X243090Y169040D03*
X250690Y164170D03*
X237080Y151530D03*
X231891Y146880D03*
X250400Y179310D03*
X268120Y2550D03*
X260175Y14785D03*
X260246Y18220D03*
X262215Y22570D03*
X277790Y49330D03*
X267025Y46470D03*
X259360Y45210D03*
X270089Y39220D03*
X266152Y37130D03*
X264183Y39080D03*
X258552Y48818D03*
X272057Y34927D03*
X263280Y71640D03*
X281900Y123560D03*
X277075Y143955D03*
X274100Y137180D03*
X274026Y134150D03*
X275200Y161650D03*
X269190Y163450D03*
X281920Y153950D03*
Y150700D03*
X277320Y168457D03*
X262970Y168570D03*
X263040Y161880D03*
X260600Y187630D03*
X314470Y-860D03*
X312230Y-4990D03*
X293415Y23825D03*
X298130Y22480D03*
X301585D03*
X305522Y19810D03*
X303553Y34110D03*
X295679Y34191D03*
X293711Y37020D03*
X291742Y34350D03*
Y116220D03*
X314080Y104800D03*
X309459Y106400D03*
X297160Y121850D03*
X293711Y119290D03*
X299616Y124210D03*
X311427Y117760D03*
X289774Y137150D03*
X297640Y139710D03*
X313140Y149900D03*
X299040Y164030D03*
X300037Y168457D03*
X288440Y179200D03*
X316670Y3510D03*
X331080Y1250D03*
X333320Y-2750D03*
X335830Y-7370D03*
X319090Y10080D03*
X328800Y5470D03*
X338986Y24596D03*
X340630Y38100D03*
X338986Y88220D03*
X337018Y84210D03*
X333081Y77105D03*
X329144Y65300D03*
X327175Y67450D03*
X325207Y71310D03*
X333550D03*
X315033Y82283D03*
X335049Y80380D03*
X331112Y73340D03*
X323238Y90140D03*
X321270Y101910D03*
X341230Y113872D03*
X319301Y97960D03*
X341216Y117716D03*
X341270Y121653D03*
X316220Y141560D03*
X320970Y134860D03*
X340955Y155840D03*
X327520Y168190D03*
X318410Y168740D03*
X329890Y155550D03*
X325370Y174750D03*
X359840Y-21000D03*
X348750Y-13350D03*
X351390Y-9700D03*
X368190Y28320D03*
X346180Y13040D03*
X343140Y86220D03*
X343813Y82283D03*
X353472Y62598D03*
X365910Y100695D03*
X353629Y113779D03*
X343678Y109842D03*
X343880Y115747D03*
X353630Y92125D03*
X353570Y96062D03*
X356380Y94094D03*
X358580Y98031D03*
X353762Y101968D03*
X343630Y119684D03*
X355320Y143570D03*
X350540Y149900D03*
X388220Y17000D03*
X391530Y37520D03*
X392210Y54150D03*
X374390Y80380D03*
X376730Y77105D03*
X376790Y84210D03*
X374710Y88220D03*
X374600Y73340D03*
X371970Y61450D03*
X374650Y91440D03*
X374550Y98800D03*
X374610Y95040D03*
X392760Y102570D03*
X388930Y96920D03*
X374530Y102570D03*
X384820Y132060D03*
X396260Y121720D03*
X381990Y121080D03*
X395510Y145850D03*
X402290Y7780D03*
X411650Y15290D03*
X407080Y56960D03*
X415920Y55960D03*
X423640Y55510D03*
X427320Y53380D03*
X423625Y97695D03*
X414310Y115620D03*
X411990Y106860D03*
X407040Y99960D03*
X399840Y96730D03*
X410030Y113660D03*
X420770Y125090D03*
X403990Y118100D03*
X399230Y138990D03*
X405150Y154500D03*
X412770Y148850D03*
X440430Y-29570D03*
X453800Y15150D03*
X431240Y55210D03*
X449155Y78190D03*
X427565Y97545D03*
X431505Y97570D03*
X444590Y111770D03*
X451810Y158980D03*
X446870Y158990D03*
G54D21*
G01X93080Y60350D02*
X85200D01*
X79580Y54730D01*
X39340D01*
X3328Y90742D01*
Y103732D01*
G01X120961Y108019D02*
X119660Y109320D01*
X99010D01*
X90790Y101100D01*
X87690D01*
G01X60460Y136338D02*
X62722Y138600D01*
X118415D01*
X127160Y147345D01*
G01X201060Y141030D02*
X195470D01*
X190560Y136120D01*
X183780D01*
X171680Y124020D01*
X137070D01*
X132275Y119225D01*
X107835D01*
X102360Y124700D01*
X73440D01*
G01X201320Y138171D02*
X194751D01*
X190700Y134120D01*
X183711D01*
X172181Y122590D01*
X139390D01*
X134030Y117230D01*
X102100D01*
X100700Y118630D01*
X62540D01*
G01X107675Y161720D02*
X104695Y158740D01*
X95088D01*
X92128Y155780D01*
X85359D01*
X84854Y156285D01*
X70155D01*
X68560Y154690D01*
G01X68790Y159550D02*
X71995Y162755D01*
X86716D01*
X89111Y160360D01*
X97650D01*
X121280Y183990D01*
X130270D01*
X135190Y179070D01*
X233060D01*
X243090Y169040D01*
G01X109645Y159515D02*
X106570Y156440D01*
X99650D01*
X90300Y147090D01*
X84300D01*
G01X68930Y166650D02*
X85240D01*
X89490Y162400D01*
X96500D01*
X120240Y186140D01*
X132000D01*
X137090Y181050D01*
X239721D01*
X241461Y179310D01*
X250400D01*
G01X365910Y100695D02*
X361935D01*
X357520Y105110D01*
X349000D01*
X345760Y101870D01*
X339090D01*
X337070Y103890D01*
X320370D01*
X312440Y95960D01*
X220970D01*
X212620Y87610D01*
X114618D01*
X108568Y93660D01*
X101320D01*
X99110Y91450D01*
X96410D01*
X93930Y93930D01*
G01X109910Y89350D02*
X113510Y85750D01*
X213337D01*
X222397Y94810D01*
X249610D01*
X249611Y94809D01*
X312916D01*
X318157Y100050D01*
X320478D01*
X320959Y99569D01*
X349459D01*
X351858Y101968D01*
X353762D01*
G01X110190Y67440D02*
X115640Y72890D01*
X137210D01*
X148030Y83710D01*
X215880D01*
X224440Y92270D01*
X313720D01*
X317512Y96062D01*
X353570D01*
G01X113087Y65830D02*
X123010D01*
X128060Y70880D01*
X139220D01*
X150280Y81940D01*
X219490D01*
X225790Y88240D01*
X233199D01*
X234814Y89855D01*
X315411D01*
X319650Y94094D01*
X356380D01*
G01X341216Y117716D02*
X318074D01*
X316010Y119780D01*
X308570D01*
X301650Y112860D01*
X286740D01*
X283165Y116435D01*
X257055D01*
X249700Y123790D01*
X236080D01*
X234110Y121820D01*
X227070D01*
X226080Y122810D01*
X200750D01*
X195745Y117805D01*
X170865D01*
X168470Y115410D01*
X149390D01*
X142710Y108730D01*
X132680D01*
X127320Y103370D01*
X100330D01*
X98790Y101830D01*
Y99240D01*
X95590Y96040D01*
X92450D01*
X90776Y94366D01*
Y90894D01*
G01X93830Y98110D02*
Y99886D01*
X99044Y105100D01*
X125800D01*
X137420Y116720D01*
X168139D01*
X170749Y119330D01*
X175690D01*
X178240Y121880D01*
X196220D01*
X199220Y124880D01*
X215160D01*
X217780Y127500D01*
X249690D01*
X258770Y118420D01*
X285470D01*
X289545Y114345D01*
X300455D01*
X307763Y121653D01*
X341270D01*
G01X101910Y101300D02*
X104150Y99060D01*
X138470D01*
X153000Y113590D01*
X202130D01*
X206200Y117660D01*
X216320D01*
X220230Y113750D01*
X252356D01*
X256426Y109680D01*
X304350D01*
X310417Y115747D01*
X343880D01*
G01X113910Y90970D02*
X136210D01*
X140545Y95305D01*
X217865D01*
X221430Y98870D01*
X235230D01*
X238260Y101900D01*
X307870D01*
X315812Y109842D01*
X343678D01*
G01X166120Y140660D02*
X162860Y137400D01*
X151010D01*
X147290Y141120D01*
X123245D01*
X115555Y133430D01*
G01X113585Y130820D02*
X115070Y129335D01*
X118615D01*
X123200Y133920D01*
X145890D01*
X148700Y131110D01*
X166640D01*
X168620Y133090D01*
Y133160D01*
X176120Y140660D01*
G01X255150Y184760D02*
X250740Y189170D01*
X120320D01*
X96110Y164960D01*
X91540D01*
G01X115555Y158960D02*
X120925Y153590D01*
X132320D01*
X135900Y150010D01*
X166656D01*
X168510Y151864D01*
Y153640D01*
G01X190680Y157939D02*
X185601D01*
X178890Y164650D01*
X158740D01*
X157000Y166390D01*
X116615D01*
X113585Y163360D01*
G01X133480Y155870D02*
X121559D01*
X116019Y161410D01*
X111615D01*
G01X116620Y63550D02*
X124180D01*
X129345Y68715D01*
X141235D01*
X152650Y80130D01*
X219831D01*
X225906Y86205D01*
X236326D01*
X236861Y86740D01*
X315910D01*
X321295Y92125D01*
X353630D01*
G01X206570Y157939D02*
X204521Y155890D01*
X195218D01*
X184800Y145472D01*
Y138850D01*
X171433Y125483D01*
X133267D01*
X129970Y128780D01*
X124330D01*
G01X181120Y140660D02*
X167940Y127480D01*
X148281D01*
X145851Y129910D01*
X131360D01*
X130220Y131050D01*
X123180D01*
X120860Y128730D01*
G01X117525Y131310D02*
X122805Y136590D01*
X146940D01*
X147890Y135640D01*
X166100D01*
X171120Y140660D01*
G01X161120D02*
X151730D01*
X148985Y143405D01*
X127610D01*
G01X154677Y161930D02*
X152007Y164600D01*
X118720D01*
X117525Y163405D01*
Y163280D01*
G01X139150Y174760D02*
X143370Y170540D01*
X155160D01*
X159070Y166630D01*
X179990D01*
X181860Y164760D01*
X231350D01*
X234230Y161880D01*
X263040D01*
G01X184502Y153570D02*
X180300D01*
X176560Y157310D01*
X165570D01*
X162830Y154570D01*
X153270D01*
X150910Y152210D01*
X143500D01*
X140110Y155600D01*
X137510D01*
X135326Y157784D01*
X122721D01*
X121465Y159040D01*
G01X168600Y159640D02*
X159280D01*
X157240Y157600D01*
X137990D01*
X135340Y160250D01*
X124020D01*
G01X150920Y161770D02*
X143092D01*
X141712Y160390D01*
X138460D01*
X136450Y162400D01*
X120545D01*
X119495Y161350D01*
G01X165640Y29040D02*
X192370D01*
X200950Y20460D01*
X276020D01*
X279385Y23825D01*
X293415D01*
G01X164365Y39405D02*
X175980Y51020D01*
X219100D01*
X221302Y48818D01*
X258552D01*
G01X148880Y59644D02*
X237570D01*
X238553Y58661D01*
X253659D01*
G01X253553Y50787D02*
X251777D01*
X251750Y50760D01*
X222930D01*
X220620Y53070D01*
X154880D01*
G01X256568Y56692D02*
X254792D01*
X254731Y56753D01*
X160207D01*
X160140Y56820D01*
X154690D01*
G01X171900Y115930D02*
X197700D01*
X201740Y119970D01*
X217640D01*
X219870Y117740D01*
X252490D01*
X258880Y111350D01*
X303160D01*
X309570Y117760D01*
X311427D01*
G01X218399Y132670D02*
X200860D01*
X192630Y124440D01*
X178130D01*
X174380Y120690D01*
X164950D01*
G01X162750Y161580D02*
X158080D01*
X156139Y159639D01*
X144490D01*
G01X160360Y152020D02*
X162238D01*
X165733Y155515D01*
X174366D01*
X180801Y149080D01*
X184820D01*
G01X149150Y174760D02*
X153245D01*
X159145Y168860D01*
X181451D01*
X183081Y167230D01*
X231760D01*
X234820Y164170D01*
X250690D01*
G01X175150Y-25240D02*
X180810Y-19580D01*
Y-8650D01*
X191520Y2060D01*
X229759D01*
X242839Y15140D01*
X257166D01*
X260246Y18220D01*
G01X185150Y-25240D02*
X190510Y-19880D01*
Y-7590D01*
X198010Y-90D01*
X245300D01*
X260175Y14785D01*
G01X195150Y-25240D02*
X200460Y-19930D01*
Y-12290D01*
X210480Y-2270D01*
X247001D01*
X268001Y18730D01*
X291629D01*
X296040Y23141D01*
Y26597D01*
X303553Y34110D01*
G01X295679Y34191D02*
X288943Y27455D01*
X250515D01*
X246390Y31580D01*
X194340D01*
X187130Y38790D01*
X174510D01*
G01X200710Y42800D02*
X202700Y44790D01*
X208170D01*
X213010Y39950D01*
X247120D01*
X256260Y30810D01*
X284820D01*
X291030Y37020D01*
X293711D01*
G01X194710Y64820D02*
X239100D01*
X241600Y67320D01*
G01X182810Y104350D02*
X201930D01*
X206760Y109180D01*
G01X214420Y115230D02*
X206586D01*
X200536Y109180D01*
X196760D01*
G01X189170Y138171D02*
X199559Y148560D01*
X230211D01*
X231891Y146880D01*
G01X197799Y133880D02*
X196039Y132120D01*
X184450D01*
G01X187660Y141500D02*
Y144950D01*
X196290Y153580D01*
X203648D01*
G01X197070Y151530D02*
X237080D01*
G01X250720Y159730D02*
X232790D01*
X231260Y158200D01*
X210920D01*
X209190Y159930D01*
X196160D01*
X192090Y155860D01*
X180720D01*
X178910Y157670D01*
G01X215150Y-25240D02*
X220250Y-20140D01*
Y-11450D01*
X223560Y-8140D01*
X249370D01*
X268730Y11220D01*
X294740D01*
X301585Y18065D01*
Y22480D01*
G01X205150Y-25240D02*
X210010Y-20380D01*
Y-12750D01*
X216780Y-5980D01*
X246660D01*
X269190Y16550D01*
X292200D01*
X298130Y22480D01*
G01X225150Y-25240D02*
X229720Y-20670D01*
Y-12830D01*
X232270Y-10280D01*
X251260D01*
X270660Y9120D01*
X297060D01*
X305522Y17582D01*
Y19810D01*
G01X262215Y22570D02*
X253908D01*
X253783Y22695D01*
X250735D01*
X246100Y27330D01*
X211140D01*
G01X217200Y42800D02*
X247570D01*
X253240Y37130D01*
X266152D01*
G01X206710Y42800D02*
X215130Y34380D01*
X249940D01*
X255280Y29040D01*
X286432D01*
X291742Y34350D01*
G01X309459Y106400D02*
X306939Y103880D01*
X235690D01*
X234580Y104990D01*
X210950D01*
X206760Y109180D01*
G01X221570Y142080D02*
X242930D01*
X245300Y139710D01*
X297640D01*
G01X299616Y124210D02*
X292777D01*
X289607Y121040D01*
X259290D01*
X244680Y135650D01*
X220189D01*
X218344Y137495D01*
X212725D01*
G01X209150Y174760D02*
X213980Y169930D01*
X232510D01*
X235970Y166470D01*
X270390D01*
X272830Y164030D01*
X299040D01*
G01X256309Y24550D02*
X270090D01*
X271410Y25870D01*
X290710D01*
X300825Y35985D01*
X305445D01*
X309500Y31930D01*
X364580D01*
X368190Y28320D01*
G01X392210Y54150D02*
X334460D01*
X329570Y59040D01*
X266690D01*
X262374Y54724D01*
X253580D01*
G01X407080Y56960D02*
X351170D01*
X346080Y62050D01*
X328900D01*
X321600Y69350D01*
X262670D01*
X255643Y76377D01*
X254153D01*
G01X254520Y105905D02*
X306055D01*
X311920Y111770D01*
X444590D01*
G01X374530Y102570D02*
X361687D01*
X357996Y106261D01*
X320572D01*
X314310Y99999D01*
X255700D01*
G01X341230Y113872D02*
X311200Y113910D01*
X305070Y107780D01*
X242830D01*
X240940Y105890D01*
G01X415150Y184760D02*
X409325Y178935D01*
X353420D01*
X350540Y176055D01*
Y173991D01*
X346779Y170230D01*
X324800D01*
X320540Y165970D01*
X315220D01*
X313180Y168010D01*
X306060D01*
X303300Y170770D01*
X260210D01*
X258230Y168790D01*
X253940D01*
G01X265150Y-25240D02*
X269480Y-29570D01*
X440430D01*
G01X275150Y-15240D02*
X280910Y-21000D01*
X359840D01*
G01X402290Y7780D02*
X308740D01*
X303510Y2550D01*
X268120D01*
G01X257990Y34300D02*
X259455Y32835D01*
X269965D01*
X272057Y34927D01*
G01X411650Y15290D02*
X391790Y35150D01*
X371410D01*
X365930Y40630D01*
X327960D01*
X324050Y44540D01*
X285030D01*
X283490Y43000D01*
X273350D01*
X269880Y46470D01*
X267025D01*
G01X277790Y49330D02*
X288960D01*
X291570Y51940D01*
X327060D01*
X335860Y43140D01*
X367280D01*
X372900Y37520D01*
X391530D01*
G01X427320Y53380D02*
X408260D01*
X404720Y49840D01*
X367260D01*
X363030Y45610D01*
X337610D01*
X328680Y54540D01*
X275950D01*
X274165Y52755D01*
X257565D01*
G01X259360Y45210D02*
X264099D01*
X270089Y39220D01*
G01X340630Y38100D02*
X339026Y36496D01*
X308684D01*
X303920Y41260D01*
X288130D01*
X284215Y37345D01*
X268685D01*
X266950Y39080D01*
X264183D01*
G01X333550Y71310D02*
X329420D01*
X324480Y76250D01*
X279090D01*
X274480Y71640D01*
X263280D01*
G01X420770Y125090D02*
X415675Y130185D01*
X374585D01*
X371470Y133300D01*
X326020D01*
X322130Y129410D01*
X292160D01*
X286310Y123560D01*
X281900D01*
G01X395510Y145850D02*
X316640D01*
X312375Y141585D01*
X285485D01*
X283115Y143955D01*
X277075D01*
G01X274026Y134150D02*
X277086Y131090D01*
X317200D01*
X320970Y134860D01*
G01X384820Y132060D02*
X376860D01*
X371855Y137065D01*
X319155D01*
X314940Y132850D01*
X286190D01*
X281860Y137180D01*
X274100D01*
G01X385150Y174760D02*
X374260Y163870D01*
X326390D01*
X324170Y161650D01*
X275200D01*
G01X375150Y174760D02*
X366320Y165930D01*
X324000D01*
X321740Y163670D01*
X314360D01*
X311930Y166100D01*
X274120D01*
X271650Y168570D01*
X262970D01*
G01X425150Y174760D02*
X410540Y160150D01*
X377800D01*
X376060Y161890D01*
X328710D01*
X326440Y159620D01*
X273020D01*
X269190Y163450D01*
G01X281920Y153950D02*
X286810D01*
X287800Y152960D01*
X300970D01*
X303560Y155550D01*
X329890D01*
G01X405150Y154500D02*
X395200D01*
X391260Y150560D01*
X362490D01*
X360510Y152540D01*
X305730D01*
X303890Y150700D01*
X281920D01*
G01X277320Y168457D02*
X300037D01*
G01X260600Y187630D02*
X262000Y189030D01*
X420880D01*
X425150Y184760D01*
G01X295150Y-15240D02*
X299340Y-19430D01*
X342670D01*
X348750Y-13350D01*
G01X415150Y-15240D02*
Y-9730D01*
X410410Y-4990D01*
X312230D01*
G01X403990Y118100D02*
X370610D01*
X366560Y122150D01*
X350020D01*
X347850Y124320D01*
X307730D01*
X299630Y116220D01*
X291742D01*
G01X396260Y121720D02*
X388040D01*
X381280Y128480D01*
X324310D01*
X323420Y127590D01*
X305690D01*
X305685Y127595D01*
X299940Y121850D01*
X297160D01*
G01X381990Y121080D02*
X376172D01*
X372842Y124410D01*
X353960D01*
X352335Y126035D01*
X306713D01*
X299968Y119290D01*
X293711D01*
G01X399230Y138990D02*
X370680D01*
X368305Y141365D01*
X319685D01*
X315470Y137150D01*
X289774D01*
G01X305150Y174760D02*
X309914Y169996D01*
X317154D01*
X318410Y168740D01*
G01X350540Y149900D02*
X313140D01*
G01X345150Y184760D02*
X339590Y179200D01*
X288440D01*
G01X315150Y-15240D02*
X320690Y-9700D01*
X351390D01*
G01X425150Y-25240D02*
X419900Y-19990D01*
Y-10390D01*
X412260Y-2750D01*
X333320D01*
G01X425150Y-15240D02*
Y-11164D01*
X414846Y-860D01*
X314470D01*
G01X435150Y-25240D02*
X430190Y-20280D01*
Y-11760D01*
X417180Y1250D01*
X331080D01*
G01X415150Y-25240D02*
X409880Y-19970D01*
Y-11800D01*
X405450Y-7370D01*
X335830D01*
G01X338986Y24596D02*
X346582Y17000D01*
X388220D01*
G01X445150Y-15240D02*
Y-7018D01*
X428052Y10080D01*
X319090D01*
G01X435150Y-15240D02*
Y-11164D01*
X420476Y3510D01*
X316670D01*
G01X445150Y-25240D02*
X439940Y-20030D01*
Y-10610D01*
X423860Y5470D01*
X328800D01*
G01X376790Y84210D02*
X375230Y82650D01*
X372751D01*
X370584Y80483D01*
X349276D01*
X345549Y84210D01*
X337018D01*
G01X374390Y80380D02*
X373134Y79124D01*
X336305D01*
X335049Y80380D01*
G01X376730Y77105D02*
X333081D01*
G01X374600Y73340D02*
X331112D01*
G01X415920Y55960D02*
X412330Y59550D01*
X352940D01*
X347190Y65300D01*
X329144D01*
G01X423640Y55510D02*
X417450Y61700D01*
X380090D01*
X374340Y67450D01*
X327175D01*
G01X431240Y55210D02*
X417100Y69350D01*
X327167D01*
X325207Y71310D01*
G01X343813Y82283D02*
X315033D01*
G01X323238Y90140D02*
X364810D01*
X366110Y91440D01*
X374650D01*
G01X338986Y88220D02*
X374710D01*
G01X314080Y104800D02*
X317120Y107840D01*
X374810D01*
X377690Y104960D01*
X400620D01*
X402520Y106860D01*
X411990D01*
G01X321270Y101910D02*
X327013D01*
X328203Y100720D01*
X346237D01*
X349477Y103960D01*
X356970D01*
X362130Y98800D01*
X374550D01*
G01X374610Y95040D02*
X358570D01*
X355650Y97960D01*
X319301D01*
G01X355320Y143570D02*
X318180D01*
X316220Y141610D01*
Y141560D01*
G01X340955Y155840D02*
Y156115D01*
X343220Y158380D01*
X365800D01*
X367640Y156540D01*
X436230D01*
X440900Y161210D01*
X449580D01*
X451810Y158980D01*
G01X355150Y174760D02*
X348580Y168190D01*
X327520D01*
G01X335150Y174760D02*
X331074D01*
X331064Y174750D01*
X325370D01*
G01X346180Y13040D02*
X451690D01*
X453800Y15150D01*
G01X449155Y78190D02*
X449085Y78260D01*
X445740D01*
X437325Y86675D01*
X376455D01*
X374240Y84460D01*
X355531D01*
X355506Y84435D01*
X353905D01*
X352120Y86220D01*
X343140D01*
G01X371970Y61450D02*
X356396D01*
X355248Y62598D01*
X353472D01*
G01X353629Y113779D02*
X355585Y115735D01*
X358491D01*
X360566Y113660D01*
X410030D01*
G01X388930Y96920D02*
X361467D01*
X360356Y98031D01*
X358580D01*
G01X414310Y115620D02*
X403762D01*
X403757Y115615D01*
X402203D01*
X402198Y115620D01*
X360280D01*
X356216Y119684D01*
X343630D01*
G01X431505Y97570D02*
X424995Y104080D01*
X415461D01*
X413951Y102570D01*
X392760D01*
G01X427565Y97545D02*
X425150Y99960D01*
X407040D01*
G01X423625Y97695D02*
X421849D01*
X420884Y96730D01*
X399840D01*
G01X412770Y148850D02*
X418140Y154220D01*
X442100D01*
X446870Y158990D01*
G54D12*
G01X19530Y-150820D02*
X419530D01*
G01X19530Y-120820D02*
Y-100820D01*
X419530D01*
G01X69530Y-170820D02*
Y-150820D01*
G01X195030Y-170820D02*
Y-150820D01*
G01X194530Y-100820D02*
Y-70820D01*
G01X244530Y-170820D02*
Y-150820D01*
X22619Y56330D03*
Y101330D03*
X69878Y-18983D03*
X100150Y-15240D03*
X125150Y174760D03*
X440150Y173990D03*
X465150Y-15580D03*
G54D13*
X109330Y2010D03*
G54D14*
X139150Y174760D03*
X175150Y-25240D03*
Y-15240D03*
X149150Y174760D03*
X195150Y-25240D03*
X185150D03*
X225150D03*
X215150D03*
X205150D03*
X209150Y174760D03*
X245150Y-15240D03*
X255150Y184760D03*
X265150Y-25240D03*
X275150Y-15240D03*
X315150D03*
X295150D03*
X305150Y174760D03*
X335150D03*
X345150Y184760D03*
X355150Y174760D03*
X385150D03*
X375150D03*
X425150Y-25240D03*
X415150D03*
X425150Y-15240D03*
X415150D03*
X425150Y174760D03*
X415150Y184760D03*
X425150D03*
X445150Y-25240D03*
X435150D03*
X445150Y-15240D03*
X435150D03*
G54D15*
X161120Y140660D03*
X166120D03*
X171120D03*
X176120D03*
X181120D03*
G54D16*
X196760Y109180D03*
X206760D03*
G54D17*
G01X93930Y154930D02*
X91670Y152670D01*
X86760D01*
X83530Y149440D01*
X83326D01*
X81950Y148064D01*
Y147860D01*
X75550Y141460D01*
X49010D01*
X44490Y136940D01*
Y131180D01*
G01X172035Y-12125D02*
X175150Y-15240D01*
G01X172035Y-18355D02*
X175150Y-15240D01*
G01X171098D02*
X175150D01*
G01D02*
Y-11188D01*
G01Y-19292D02*
Y-15240D01*
G01X245150D02*
X248265Y-18355D01*
G01X242035D02*
X245150Y-15240D01*
G01D02*
X249202D01*
G01X241098D02*
X245150D01*
G01Y-19292D02*
Y-15240D01*
G54D18*
G01X29090Y-9620D02*
X30257Y-8453D01*
Y-6003D01*
X32830Y-3430D01*
X85510D01*
X100600Y11660D01*
X140220D01*
X176000Y47440D01*
X218960D01*
X219956Y46444D01*
X248098D01*
X248240Y46470D01*
X248620Y46850D01*
X255910D01*
G01X32725Y-9620D02*
X31557Y-8452D01*
Y-6542D01*
X33369Y-4730D01*
X86049D01*
X101139Y10360D01*
X140759D01*
X176539Y46140D01*
X218421D01*
X219417Y45144D01*
X247971D01*
X248386Y44855D01*
X248529Y44881D01*
X253820D01*
G54D19*
G01X22912Y-164270D02*
X23460Y-163570D01*
X23930Y-163170D01*
X24557Y-162970D01*
X25105Y-163170D01*
X25497Y-163570D01*
X25810Y-164170D01*
X25888Y-164870D01*
X25810Y-165470D01*
X25497Y-166070D01*
X25027Y-166570D01*
X24478Y-166770D01*
X23852Y-166570D01*
X23303Y-165970D01*
X22990Y-165070D01*
X22912Y-164070D01*
X23068Y-162770D01*
X23303Y-162070D01*
X23695Y-161370D01*
X24243Y-160870D01*
X24792Y-160770D01*
X25340Y-160970D01*
X25732Y-161470D01*
G01X37000Y-166770D02*
X36373Y-166670D01*
X35825Y-166270D01*
X35355Y-165670D01*
X35042Y-164970D01*
X34885Y-164170D01*
Y-163370D01*
X35042Y-162570D01*
X35355Y-161870D01*
X35825Y-161270D01*
X36373Y-160870D01*
X37000Y-160770D01*
X37627Y-160870D01*
X38175Y-161270D01*
X38645Y-161870D01*
X38958Y-162570D01*
X39115Y-163370D01*
Y-164170D01*
X38958Y-164970D01*
X38645Y-165670D01*
X38175Y-166270D01*
X37627Y-166670D01*
X37000Y-166770D01*
G01X41812D02*
Y-160770D01*
X44788D01*
G01X43692Y-163670D02*
X41812D01*
G01X55900Y-166770D02*
Y-160770D01*
X54960Y-161970D01*
G01Y-166770D02*
X56840D01*
G01X60712Y-161770D02*
X61182Y-161170D01*
X61730Y-160870D01*
X62357Y-160770D01*
X63140Y-160970D01*
X63688Y-161470D01*
X63845Y-162070D01*
X63767Y-162670D01*
X63453Y-163170D01*
X61887Y-164170D01*
X61182Y-164870D01*
X60712Y-165870D01*
X60555Y-166770D01*
X63845D01*
G01X30938Y-147820D02*
Y-143820D01*
X33622Y-147820D01*
Y-143820D01*
G01X35855Y-147820D02*
X38305Y-143820D01*
G01X35855D02*
X38305Y-147820D01*
G01X40713D02*
Y-143820D01*
X42113D01*
X42580Y-144020D01*
X42930Y-144487D01*
X43047Y-145020D01*
X42930Y-145553D01*
X42638Y-145953D01*
X42113Y-146153D01*
X40713D01*
G01X46680Y-147953D02*
X46563Y-147887D01*
Y-147753D01*
X46680Y-147687D01*
X46797Y-147753D01*
Y-147887D01*
X46680Y-147953D01*
G01X31280Y-139820D02*
X30813Y-139753D01*
X30405Y-139487D01*
X30055Y-139087D01*
X29822Y-138620D01*
X29705Y-138087D01*
Y-137553D01*
X29822Y-137020D01*
X30055Y-136553D01*
X30405Y-136153D01*
X30813Y-135887D01*
X31280Y-135820D01*
X31747Y-135887D01*
X32155Y-136153D01*
X32505Y-136553D01*
X32738Y-137020D01*
X32855Y-137553D01*
Y-138087D01*
X32738Y-138620D01*
X32505Y-139087D01*
X32155Y-139487D01*
X31747Y-139753D01*
X31280Y-139820D01*
G01X34913D02*
Y-135820D01*
X36372D01*
X36838Y-136020D01*
X37130Y-136287D01*
X37247Y-136820D01*
X37130Y-137353D01*
X36780Y-137687D01*
X36372Y-137887D01*
X34913D01*
G01X36372D02*
X37247Y-139820D01*
G01X44980Y-135820D02*
X46380D01*
G01X45680D02*
Y-139820D01*
G01X44980D02*
X46380D01*
G01X49138D02*
Y-135820D01*
X51822Y-139820D01*
Y-135820D01*
G01X58913Y-139820D02*
Y-135820D01*
X60313D01*
X60780Y-136020D01*
X61130Y-136487D01*
X61247Y-137020D01*
X61130Y-137553D01*
X60838Y-137953D01*
X60313Y-138153D01*
X58913D01*
G01X63422Y-139820D02*
X64880Y-135820D01*
X66338Y-139820D01*
G01X65813Y-138420D02*
X63947D01*
G01X68513Y-139820D02*
Y-135820D01*
X69972D01*
X70438Y-136020D01*
X70730Y-136287D01*
X70847Y-136820D01*
X70730Y-137353D01*
X70380Y-137687D01*
X69972Y-137887D01*
X68513D01*
G01X69972D02*
X70847Y-139820D01*
G01X74480Y-135820D02*
Y-139820D01*
G01X73138Y-135820D02*
X75822D01*
G01X82330D02*
X83147Y-139820D01*
X84080Y-135820D01*
X85013Y-139820D01*
X85830Y-135820D01*
G01X88180D02*
X89580D01*
G01X88880D02*
Y-139820D01*
G01X88180D02*
X89580D01*
G01X93680Y-135820D02*
Y-139820D01*
G01X92338Y-135820D02*
X95022D01*
G01X97255Y-139820D02*
Y-135820D01*
G01X99705D02*
Y-139820D01*
G01Y-137820D02*
X97255D01*
G01X103280Y-139820D02*
X102813Y-139753D01*
X102405Y-139487D01*
X102055Y-139087D01*
X101822Y-138620D01*
X101705Y-138087D01*
Y-137553D01*
X101822Y-137020D01*
X102055Y-136553D01*
X102405Y-136153D01*
X102813Y-135887D01*
X103280Y-135820D01*
X103747Y-135887D01*
X104155Y-136153D01*
X104505Y-136553D01*
X104738Y-137020D01*
X104855Y-137553D01*
Y-138087D01*
X104738Y-138620D01*
X104505Y-139087D01*
X104155Y-139487D01*
X103747Y-139753D01*
X103280Y-139820D01*
G01X106797Y-135820D02*
Y-138687D01*
X107030Y-139287D01*
X107497Y-139687D01*
X108080Y-139820D01*
X108663Y-139687D01*
X109130Y-139287D01*
X109363Y-138687D01*
Y-135820D01*
G01X112880D02*
Y-139820D01*
G01X111538Y-135820D02*
X114222D01*
G01X122480D02*
Y-139820D01*
G01X121138Y-135820D02*
X123822D01*
G01X126055Y-139820D02*
Y-135820D01*
G01X128505D02*
Y-139820D01*
G01Y-137820D02*
X126055D01*
G01X133247Y-139820D02*
X130913D01*
Y-135820D01*
X133247D01*
G01X132313Y-137753D02*
X130913D01*
G01X142963Y-136153D02*
X142613Y-135953D01*
X142205Y-135820D01*
X141738D01*
X141213Y-136020D01*
X140805Y-136353D01*
X140513Y-136753D01*
X140280Y-137420D01*
X140222Y-138020D01*
X140338Y-138620D01*
X140513Y-139020D01*
X140863Y-139420D01*
X141272Y-139687D01*
X141680Y-139820D01*
X142088D01*
X142497Y-139687D01*
X142847Y-139487D01*
X143138Y-139220D01*
G01X146480Y-139820D02*
X146013Y-139753D01*
X145605Y-139487D01*
X145255Y-139087D01*
X145022Y-138620D01*
X144905Y-138087D01*
Y-137553D01*
X145022Y-137020D01*
X145255Y-136553D01*
X145605Y-136153D01*
X146013Y-135887D01*
X146480Y-135820D01*
X146947Y-135887D01*
X147355Y-136153D01*
X147705Y-136553D01*
X147938Y-137020D01*
X148055Y-137553D01*
Y-138087D01*
X147938Y-138620D01*
X147705Y-139087D01*
X147355Y-139487D01*
X146947Y-139753D01*
X146480Y-139820D01*
G01X149938D02*
Y-135820D01*
X152622Y-139820D01*
Y-135820D01*
G01X154855Y-139287D02*
X155322Y-139620D01*
X155847Y-139820D01*
X156313D01*
X156780Y-139620D01*
X157130Y-139287D01*
X157305Y-138820D01*
X157188Y-138353D01*
X156897Y-137953D01*
X156372Y-137687D01*
X155672Y-137553D01*
X155263Y-137287D01*
X155088Y-136820D01*
X155205Y-136353D01*
X155497Y-136020D01*
X155905Y-135820D01*
X156313D01*
X156722Y-135953D01*
X157072Y-136287D01*
G01X162047Y-139820D02*
X159713D01*
Y-135820D01*
X162047D01*
G01X161113Y-137753D02*
X159713D01*
G01X164338Y-139820D02*
Y-135820D01*
X167022Y-139820D01*
Y-135820D01*
G01X170480D02*
Y-139820D01*
G01X169138Y-135820D02*
X171822D01*
G01X180080Y-139820D02*
X179613Y-139753D01*
X179205Y-139487D01*
X178855Y-139087D01*
X178622Y-138620D01*
X178505Y-138087D01*
Y-137553D01*
X178622Y-137020D01*
X178855Y-136553D01*
X179205Y-136153D01*
X179613Y-135887D01*
X180080Y-135820D01*
X180547Y-135887D01*
X180955Y-136153D01*
X181305Y-136553D01*
X181538Y-137020D01*
X181655Y-137553D01*
Y-138087D01*
X181538Y-138620D01*
X181305Y-139087D01*
X180955Y-139487D01*
X180547Y-139753D01*
X180080Y-139820D01*
G01X183772D02*
Y-135820D01*
X185988D01*
G01X185172Y-137753D02*
X183772D01*
G01X23055Y-158287D02*
X23522Y-158620D01*
X24047Y-158820D01*
X24513D01*
X24980Y-158620D01*
X25330Y-158287D01*
X25505Y-157820D01*
X25388Y-157353D01*
X25097Y-156953D01*
X24572Y-156687D01*
X23872Y-156553D01*
X23463Y-156287D01*
X23288Y-155820D01*
X23405Y-155353D01*
X23697Y-155020D01*
X24105Y-154820D01*
X24513D01*
X24922Y-154953D01*
X25272Y-155287D01*
G01X27855Y-158820D02*
Y-154820D01*
G01X30305D02*
Y-158820D01*
G01Y-156820D02*
X27855D01*
G01X35047Y-158820D02*
X32713D01*
Y-154820D01*
X35047D01*
G01X34113Y-156753D02*
X32713D01*
G01X39847Y-158820D02*
X37513D01*
Y-154820D01*
X39847D01*
G01X38913Y-156753D02*
X37513D01*
G01X43480Y-154820D02*
Y-158820D01*
G01X42138Y-154820D02*
X44822D01*
G01X30113Y-115820D02*
Y-111820D01*
X31513D01*
X31980Y-112020D01*
X32330Y-112487D01*
X32447Y-113020D01*
X32330Y-113553D01*
X32038Y-113953D01*
X31513Y-114153D01*
X30113D01*
G01X34913Y-115820D02*
Y-111820D01*
X36372D01*
X36838Y-112020D01*
X37130Y-112287D01*
X37247Y-112820D01*
X37130Y-113353D01*
X36780Y-113687D01*
X36372Y-113887D01*
X34913D01*
G01X36372D02*
X37247Y-115820D01*
G01X40880D02*
X40413Y-115753D01*
X40005Y-115487D01*
X39655Y-115087D01*
X39422Y-114620D01*
X39305Y-114087D01*
Y-113553D01*
X39422Y-113020D01*
X39655Y-112553D01*
X40005Y-112153D01*
X40413Y-111887D01*
X40880Y-111820D01*
X41347Y-111887D01*
X41755Y-112153D01*
X42105Y-112553D01*
X42338Y-113020D01*
X42455Y-113553D01*
Y-114087D01*
X42338Y-114620D01*
X42105Y-115087D01*
X41755Y-115487D01*
X41347Y-115753D01*
X40880Y-115820D01*
G01X44513D02*
Y-111820D01*
X45913D01*
X46380Y-112020D01*
X46730Y-112487D01*
X46847Y-113020D01*
X46730Y-113553D01*
X46438Y-113953D01*
X45913Y-114153D01*
X44513D01*
G01X49313Y-115820D02*
Y-111820D01*
X50772D01*
X51238Y-112020D01*
X51530Y-112287D01*
X51647Y-112820D01*
X51530Y-113353D01*
X51180Y-113687D01*
X50772Y-113887D01*
X49313D01*
G01X50772D02*
X51647Y-115820D01*
G01X54580Y-111820D02*
X55980D01*
G01X55280D02*
Y-115820D01*
G01X54580D02*
X55980D01*
G01X61247D02*
X58913D01*
Y-111820D01*
X61247D01*
G01X60313Y-113753D02*
X58913D01*
G01X64880Y-111820D02*
Y-115820D01*
G01X63538Y-111820D02*
X66222D01*
G01X68222Y-115820D02*
X69680Y-111820D01*
X71138Y-115820D01*
G01X70613Y-114420D02*
X68747D01*
G01X73313Y-115820D02*
Y-111820D01*
X74772D01*
X75238Y-112020D01*
X75530Y-112287D01*
X75647Y-112820D01*
X75530Y-113353D01*
X75180Y-113687D01*
X74772Y-113887D01*
X73313D01*
G01X74772D02*
X75647Y-115820D01*
G01X79280D02*
Y-114020D01*
X78113Y-111820D01*
G01X80447D02*
X79280Y-114020D01*
G01X88880Y-111820D02*
Y-115820D01*
G01X87538Y-111820D02*
X90222D01*
G01X93680Y-115820D02*
X93213Y-115753D01*
X92805Y-115487D01*
X92455Y-115087D01*
X92222Y-114620D01*
X92105Y-114087D01*
Y-113553D01*
X92222Y-113020D01*
X92455Y-112553D01*
X92805Y-112153D01*
X93213Y-111887D01*
X93680Y-111820D01*
X94147Y-111887D01*
X94555Y-112153D01*
X94905Y-112553D01*
X95138Y-113020D01*
X95255Y-113553D01*
Y-114087D01*
X95138Y-114620D01*
X94905Y-115087D01*
X94555Y-115487D01*
X94147Y-115753D01*
X93680Y-115820D01*
G01X101938D02*
Y-111820D01*
X104622Y-115820D01*
Y-111820D01*
G01X106855Y-115820D02*
X109305Y-111820D01*
G01X106855D02*
X109305Y-115820D01*
G01X111713D02*
Y-111820D01*
X113113D01*
X113580Y-112020D01*
X113930Y-112487D01*
X114047Y-113020D01*
X113930Y-113553D01*
X113638Y-113953D01*
X113113Y-114153D01*
X111713D01*
G01X121022Y-115820D02*
X122480Y-111820D01*
X123938Y-115820D01*
G01X123413Y-114420D02*
X121547D01*
G01X125938Y-115820D02*
Y-111820D01*
X128622Y-115820D01*
Y-111820D01*
G01X130797Y-115820D02*
Y-111820D01*
X131963D01*
X132430Y-112020D01*
X132780Y-112287D01*
X133072Y-112687D01*
X133305Y-113153D01*
X133363Y-113820D01*
X133305Y-114487D01*
X133072Y-114953D01*
X132780Y-115353D01*
X132430Y-115620D01*
X131963Y-115820D01*
X130797D01*
G01X140455Y-115287D02*
X140922Y-115620D01*
X141447Y-115820D01*
X141913D01*
X142380Y-115620D01*
X142730Y-115287D01*
X142905Y-114820D01*
X142788Y-114353D01*
X142497Y-113953D01*
X141972Y-113687D01*
X141272Y-113553D01*
X140863Y-113287D01*
X140688Y-112820D01*
X140805Y-112353D01*
X141097Y-112020D01*
X141505Y-111820D01*
X141913D01*
X142322Y-111953D01*
X142672Y-112287D01*
G01X145255Y-115820D02*
Y-111820D01*
G01X147705D02*
Y-115820D01*
G01Y-113820D02*
X145255D01*
G01X149822Y-115820D02*
X151280Y-111820D01*
X152738Y-115820D01*
G01X152213Y-114420D02*
X150347D01*
G01X154913Y-111820D02*
Y-115820D01*
X157247D01*
G01X159713Y-111820D02*
Y-115820D01*
X162047D01*
G01X30113Y-131820D02*
Y-127820D01*
X31513D01*
X31980Y-128020D01*
X32330Y-128487D01*
X32447Y-129020D01*
X32330Y-129553D01*
X32038Y-129953D01*
X31513Y-130153D01*
X30113D01*
G01X34913Y-131820D02*
Y-127820D01*
X36372D01*
X36838Y-128020D01*
X37130Y-128287D01*
X37247Y-128820D01*
X37130Y-129353D01*
X36780Y-129687D01*
X36372Y-129887D01*
X34913D01*
G01X36372D02*
X37247Y-131820D01*
G01X40880D02*
X40413Y-131753D01*
X40005Y-131487D01*
X39655Y-131087D01*
X39422Y-130620D01*
X39305Y-130087D01*
Y-129553D01*
X39422Y-129020D01*
X39655Y-128553D01*
X40005Y-128153D01*
X40413Y-127887D01*
X40880Y-127820D01*
X41347Y-127887D01*
X41755Y-128153D01*
X42105Y-128553D01*
X42338Y-129020D01*
X42455Y-129553D01*
Y-130087D01*
X42338Y-130620D01*
X42105Y-131087D01*
X41755Y-131487D01*
X41347Y-131753D01*
X40880Y-131820D01*
G01X46963Y-128153D02*
X46613Y-127953D01*
X46205Y-127820D01*
X45738D01*
X45213Y-128020D01*
X44805Y-128353D01*
X44513Y-128753D01*
X44280Y-129420D01*
X44222Y-130020D01*
X44338Y-130620D01*
X44513Y-131020D01*
X44863Y-131420D01*
X45272Y-131687D01*
X45680Y-131820D01*
X46088D01*
X46497Y-131687D01*
X46847Y-131487D01*
X47138Y-131220D01*
G01X49197Y-127820D02*
Y-130687D01*
X49430Y-131287D01*
X49897Y-131687D01*
X50480Y-131820D01*
X51063Y-131687D01*
X51530Y-131287D01*
X51763Y-130687D01*
Y-127820D01*
G01X54113Y-131820D02*
Y-127820D01*
X55572D01*
X56038Y-128020D01*
X56330Y-128287D01*
X56447Y-128820D01*
X56330Y-129353D01*
X55980Y-129687D01*
X55572Y-129887D01*
X54113D01*
G01X55572D02*
X56447Y-131820D01*
G01X61247D02*
X58913D01*
Y-127820D01*
X61247D01*
G01X60313Y-129753D02*
X58913D01*
G01X63363Y-131820D02*
Y-127820D01*
X64880Y-131153D01*
X66397Y-127820D01*
Y-131820D01*
G01X70847D02*
X68513D01*
Y-127820D01*
X70847D01*
G01X69913Y-129753D02*
X68513D01*
G01X73138Y-131820D02*
Y-127820D01*
X75822Y-131820D01*
Y-127820D01*
G01X79280D02*
Y-131820D01*
G01X77938Y-127820D02*
X80622D01*
G01X88880Y-131820D02*
X88413Y-131753D01*
X88005Y-131487D01*
X87655Y-131087D01*
X87422Y-130620D01*
X87305Y-130087D01*
Y-129553D01*
X87422Y-129020D01*
X87655Y-128553D01*
X88005Y-128153D01*
X88413Y-127887D01*
X88880Y-127820D01*
X89347Y-127887D01*
X89755Y-128153D01*
X90105Y-128553D01*
X90338Y-129020D01*
X90455Y-129553D01*
Y-130087D01*
X90338Y-130620D01*
X90105Y-131087D01*
X89755Y-131487D01*
X89347Y-131753D01*
X88880Y-131820D01*
G01X92513D02*
Y-127820D01*
X93972D01*
X94438Y-128020D01*
X94730Y-128287D01*
X94847Y-128820D01*
X94730Y-129353D01*
X94380Y-129687D01*
X93972Y-129887D01*
X92513D01*
G01X93972D02*
X94847Y-131820D01*
G01X101763D02*
Y-127820D01*
X103280Y-131153D01*
X104797Y-127820D01*
Y-131820D01*
G01X106622D02*
X108080Y-127820D01*
X109538Y-131820D01*
G01X109013Y-130420D02*
X107147D01*
G01X111538Y-131820D02*
Y-127820D01*
X114222Y-131820D01*
Y-127820D01*
G01X116397D02*
Y-130687D01*
X116630Y-131287D01*
X117097Y-131687D01*
X117680Y-131820D01*
X118263Y-131687D01*
X118730Y-131287D01*
X118963Y-130687D01*
Y-127820D01*
G01X121372Y-131820D02*
Y-127820D01*
X123588D01*
G01X122772Y-129753D02*
X121372D01*
G01X125822Y-131820D02*
X127280Y-127820D01*
X128738Y-131820D01*
G01X128213Y-130420D02*
X126347D01*
G01X133363Y-128153D02*
X133013Y-127953D01*
X132605Y-127820D01*
X132138D01*
X131613Y-128020D01*
X131205Y-128353D01*
X130913Y-128753D01*
X130680Y-129420D01*
X130622Y-130020D01*
X130738Y-130620D01*
X130913Y-131020D01*
X131263Y-131420D01*
X131672Y-131687D01*
X132080Y-131820D01*
X132488D01*
X132897Y-131687D01*
X133247Y-131487D01*
X133538Y-131220D01*
G01X136880Y-127820D02*
Y-131820D01*
G01X135538Y-127820D02*
X138222D01*
G01X140397D02*
Y-130687D01*
X140630Y-131287D01*
X141097Y-131687D01*
X141680Y-131820D01*
X142263Y-131687D01*
X142730Y-131287D01*
X142963Y-130687D01*
Y-127820D01*
G01X145313Y-131820D02*
Y-127820D01*
X146772D01*
X147238Y-128020D01*
X147530Y-128287D01*
X147647Y-128820D01*
X147530Y-129353D01*
X147180Y-129687D01*
X146772Y-129887D01*
X145313D01*
G01X146772D02*
X147647Y-131820D01*
G01X152447D02*
X150113D01*
Y-127820D01*
X152447D01*
G01X151513Y-129753D02*
X150113D01*
G01X160180Y-127820D02*
X161580D01*
G01X160880D02*
Y-131820D01*
G01X160180D02*
X161580D01*
G01X164338D02*
Y-127820D01*
X167022Y-131820D01*
Y-127820D01*
G01X173530D02*
X174347Y-131820D01*
X175280Y-127820D01*
X176213Y-131820D01*
X177030Y-127820D01*
G01X178855Y-131820D02*
Y-127820D01*
G01X181305D02*
Y-131820D01*
G01Y-129820D02*
X178855D01*
G01X184880Y-131820D02*
X184413Y-131753D01*
X184005Y-131487D01*
X183655Y-131087D01*
X183422Y-130620D01*
X183305Y-130087D01*
Y-129553D01*
X183422Y-129020D01*
X183655Y-128553D01*
X184005Y-128153D01*
X184413Y-127887D01*
X184880Y-127820D01*
X185347Y-127887D01*
X185755Y-128153D01*
X186105Y-128553D01*
X186338Y-129020D01*
X186455Y-129553D01*
Y-130087D01*
X186338Y-130620D01*
X186105Y-131087D01*
X185755Y-131487D01*
X185347Y-131753D01*
X184880Y-131820D01*
G01X188513Y-127820D02*
Y-131820D01*
X190847D01*
G01X195647D02*
X193313D01*
Y-127820D01*
X195647D01*
G01X194713Y-129753D02*
X193313D01*
G01X29938Y-123820D02*
Y-119820D01*
X32622Y-123820D01*
Y-119820D01*
G01X36080Y-123820D02*
X35613Y-123753D01*
X35205Y-123487D01*
X34855Y-123087D01*
X34622Y-122620D01*
X34505Y-122087D01*
Y-121553D01*
X34622Y-121020D01*
X34855Y-120553D01*
X35205Y-120153D01*
X35613Y-119887D01*
X36080Y-119820D01*
X36547Y-119887D01*
X36955Y-120153D01*
X37305Y-120553D01*
X37538Y-121020D01*
X37655Y-121553D01*
Y-122087D01*
X37538Y-122620D01*
X37305Y-123087D01*
X36955Y-123487D01*
X36547Y-123753D01*
X36080Y-123820D01*
G01X40880Y-119820D02*
Y-123820D01*
G01X39538Y-119820D02*
X42222D01*
G01X50947Y-121687D02*
X51180Y-121487D01*
X51355Y-121153D01*
X51472Y-120687D01*
X51355Y-120287D01*
X51122Y-120020D01*
X50713Y-119820D01*
X49138D01*
Y-123820D01*
X51063D01*
X51472Y-123553D01*
X51705Y-123153D01*
X51822Y-122687D01*
X51705Y-122220D01*
X51355Y-121820D01*
X50947Y-121687D01*
X49138D01*
G01X56447Y-123820D02*
X54113D01*
Y-119820D01*
X56447D01*
G01X55513Y-121753D02*
X54113D01*
G01X63597Y-119820D02*
Y-122687D01*
X63830Y-123287D01*
X64297Y-123687D01*
X64880Y-123820D01*
X65463Y-123687D01*
X65930Y-123287D01*
X66163Y-122687D01*
Y-119820D01*
G01X68455Y-123287D02*
X68922Y-123620D01*
X69447Y-123820D01*
X69913D01*
X70380Y-123620D01*
X70730Y-123287D01*
X70905Y-122820D01*
X70788Y-122353D01*
X70497Y-121953D01*
X69972Y-121687D01*
X69272Y-121553D01*
X68863Y-121287D01*
X68688Y-120820D01*
X68805Y-120353D01*
X69097Y-120020D01*
X69505Y-119820D01*
X69913D01*
X70322Y-119953D01*
X70672Y-120287D01*
G01X75647Y-123820D02*
X73313D01*
Y-119820D01*
X75647D01*
G01X74713Y-121753D02*
X73313D01*
G01X77997Y-123820D02*
Y-119820D01*
X79163D01*
X79630Y-120020D01*
X79980Y-120287D01*
X80272Y-120687D01*
X80505Y-121153D01*
X80563Y-121820D01*
X80505Y-122487D01*
X80272Y-122953D01*
X79980Y-123353D01*
X79630Y-123620D01*
X79163Y-123820D01*
X77997D01*
G01X87772D02*
Y-119820D01*
X89988D01*
G01X89172Y-121753D02*
X87772D01*
G01X93680Y-123820D02*
X93213Y-123753D01*
X92805Y-123487D01*
X92455Y-123087D01*
X92222Y-122620D01*
X92105Y-122087D01*
Y-121553D01*
X92222Y-121020D01*
X92455Y-120553D01*
X92805Y-120153D01*
X93213Y-119887D01*
X93680Y-119820D01*
X94147Y-119887D01*
X94555Y-120153D01*
X94905Y-120553D01*
X95138Y-121020D01*
X95255Y-121553D01*
Y-122087D01*
X95138Y-122620D01*
X94905Y-123087D01*
X94555Y-123487D01*
X94147Y-123753D01*
X93680Y-123820D01*
G01X97313D02*
Y-119820D01*
X98772D01*
X99238Y-120020D01*
X99530Y-120287D01*
X99647Y-120820D01*
X99530Y-121353D01*
X99180Y-121687D01*
X98772Y-121887D01*
X97313D01*
G01X98772D02*
X99647Y-123820D01*
G01X109247D02*
X106913D01*
Y-119820D01*
X109247D01*
G01X108313Y-121753D02*
X106913D01*
G01X111538Y-123820D02*
Y-119820D01*
X114222Y-123820D01*
Y-119820D01*
G01X118030Y-121820D02*
X119197D01*
Y-123020D01*
X118847Y-123420D01*
X118438Y-123687D01*
X117855Y-123820D01*
X117272Y-123687D01*
X116863Y-123420D01*
X116513Y-123020D01*
X116280Y-122553D01*
X116163Y-122020D01*
Y-121553D01*
X116280Y-121153D01*
X116513Y-120687D01*
X116863Y-120287D01*
X117213Y-120020D01*
X117680Y-119820D01*
X118088D01*
X118555Y-119953D01*
X118905Y-120220D01*
G01X121780Y-119820D02*
X123180D01*
G01X122480D02*
Y-123820D01*
G01X121780D02*
X123180D01*
G01X125938D02*
Y-119820D01*
X128622Y-123820D01*
Y-119820D01*
G01X133247Y-123820D02*
X130913D01*
Y-119820D01*
X133247D01*
G01X132313Y-121753D02*
X130913D01*
G01X138047Y-123820D02*
X135713D01*
Y-119820D01*
X138047D01*
G01X137113Y-121753D02*
X135713D01*
G01X140513Y-123820D02*
Y-119820D01*
X141972D01*
X142438Y-120020D01*
X142730Y-120287D01*
X142847Y-120820D01*
X142730Y-121353D01*
X142380Y-121687D01*
X141972Y-121887D01*
X140513D01*
G01X141972D02*
X142847Y-123820D01*
G01X145780Y-119820D02*
X147180D01*
G01X146480D02*
Y-123820D01*
G01X145780D02*
X147180D01*
G01X149938D02*
Y-119820D01*
X152622Y-123820D01*
Y-119820D01*
G01X156430Y-121820D02*
X157597D01*
Y-123020D01*
X157247Y-123420D01*
X156838Y-123687D01*
X156255Y-123820D01*
X155672Y-123687D01*
X155263Y-123420D01*
X154913Y-123020D01*
X154680Y-122553D01*
X154563Y-122020D01*
Y-121553D01*
X154680Y-121153D01*
X154913Y-120687D01*
X155263Y-120287D01*
X155613Y-120020D01*
X156080Y-119820D01*
X156488D01*
X156955Y-119953D01*
X157305Y-120220D01*
G01X164397Y-123820D02*
Y-119820D01*
X165563D01*
X166030Y-120020D01*
X166380Y-120287D01*
X166672Y-120687D01*
X166905Y-121153D01*
X166963Y-121820D01*
X166905Y-122487D01*
X166672Y-122953D01*
X166380Y-123353D01*
X166030Y-123620D01*
X165563Y-123820D01*
X164397D01*
G01X171647D02*
X169313D01*
Y-119820D01*
X171647D01*
G01X170713Y-121753D02*
X169313D01*
G01X174055Y-123287D02*
X174522Y-123620D01*
X175047Y-123820D01*
X175513D01*
X175980Y-123620D01*
X176330Y-123287D01*
X176505Y-122820D01*
X176388Y-122353D01*
X176097Y-121953D01*
X175572Y-121687D01*
X174872Y-121553D01*
X174463Y-121287D01*
X174288Y-120820D01*
X174405Y-120353D01*
X174697Y-120020D01*
X175105Y-119820D01*
X175513D01*
X175922Y-119953D01*
X176272Y-120287D01*
G01X179380Y-119820D02*
X180780D01*
G01X180080D02*
Y-123820D01*
G01X179380D02*
X180780D01*
G01X185230Y-121820D02*
X186397D01*
Y-123020D01*
X186047Y-123420D01*
X185638Y-123687D01*
X185055Y-123820D01*
X184472Y-123687D01*
X184063Y-123420D01*
X183713Y-123020D01*
X183480Y-122553D01*
X183363Y-122020D01*
Y-121553D01*
X183480Y-121153D01*
X183713Y-120687D01*
X184063Y-120287D01*
X184413Y-120020D01*
X184880Y-119820D01*
X185288D01*
X185755Y-119953D01*
X186105Y-120220D01*
G01X188338Y-123820D02*
Y-119820D01*
X191022Y-123820D01*
Y-119820D01*
G01X22822Y-97820D02*
X24280Y-93820D01*
X25738Y-97820D01*
G01X25213Y-96420D02*
X23347D01*
G01X27797Y-93820D02*
Y-96687D01*
X28030Y-97287D01*
X28497Y-97687D01*
X29080Y-97820D01*
X29663Y-97687D01*
X30130Y-97287D01*
X30363Y-96687D01*
Y-93820D01*
G01X32655Y-97287D02*
X33122Y-97620D01*
X33647Y-97820D01*
X34113D01*
X34580Y-97620D01*
X34930Y-97287D01*
X35105Y-96820D01*
X34988Y-96353D01*
X34697Y-95953D01*
X34172Y-95687D01*
X33472Y-95553D01*
X33063Y-95287D01*
X32888Y-94820D01*
X33005Y-94353D01*
X33297Y-94020D01*
X33705Y-93820D01*
X34113D01*
X34522Y-93953D01*
X34872Y-94287D01*
G01X38680Y-93820D02*
Y-97820D01*
G01X37338Y-93820D02*
X40022D01*
G01X42780D02*
X44180D01*
G01X43480D02*
Y-97820D01*
G01X42780D02*
X44180D01*
G01X46938D02*
Y-93820D01*
X49622Y-97820D01*
Y-93820D01*
G01X53080Y-97953D02*
X52963Y-97887D01*
Y-97753D01*
X53080Y-97687D01*
X53197Y-97753D01*
Y-97887D01*
X53080Y-97953D01*
G01X62680Y-93820D02*
Y-97820D01*
G01X61338Y-93820D02*
X64022D01*
G01X68647Y-97820D02*
X66313D01*
Y-93820D01*
X68647D01*
G01X67713Y-95753D02*
X66313D01*
G01X71055Y-97820D02*
X73505Y-93820D01*
G01X71055D02*
X73505Y-97820D01*
G01X75622D02*
X77080Y-93820D01*
X78538Y-97820D01*
G01X78013Y-96420D02*
X76147D01*
G01X80655Y-97287D02*
X81122Y-97620D01*
X81647Y-97820D01*
X82113D01*
X82580Y-97620D01*
X82930Y-97287D01*
X83105Y-96820D01*
X82988Y-96353D01*
X82697Y-95953D01*
X82172Y-95687D01*
X81472Y-95553D01*
X81063Y-95287D01*
X80888Y-94820D01*
X81005Y-94353D01*
X81297Y-94020D01*
X81705Y-93820D01*
X82113D01*
X82522Y-93953D01*
X82872Y-94287D01*
G01X91363Y-97820D02*
X91480Y-96953D01*
X91655Y-96220D01*
X91888Y-95553D01*
X92180Y-94820D01*
X92647Y-93820D01*
X90313D01*
G01X96280Y-97820D02*
X96688Y-97753D01*
X97155Y-97553D01*
X97447Y-97220D01*
X97563Y-96753D01*
X97447Y-96287D01*
X97097Y-95887D01*
X96572Y-95687D01*
X95988D01*
X95638Y-95553D01*
X95347Y-95220D01*
X95230Y-94753D01*
X95405Y-94287D01*
X95813Y-93953D01*
X96280Y-93820D01*
X96747Y-93953D01*
X97155Y-94287D01*
X97330Y-94753D01*
X97213Y-95220D01*
X96922Y-95553D01*
X96572Y-95687D01*
X95988D01*
X95463Y-95887D01*
X95113Y-96287D01*
X94997Y-96753D01*
X95113Y-97220D01*
X95405Y-97553D01*
X95872Y-97753D01*
X96280Y-97820D01*
G01X100963D02*
X101080Y-96953D01*
X101255Y-96220D01*
X101488Y-95553D01*
X101780Y-94820D01*
X102247Y-93820D01*
X99913D01*
G01X104597Y-97020D02*
X104947Y-97487D01*
X105413Y-97753D01*
X105938Y-97820D01*
X106405Y-97753D01*
X106872Y-97420D01*
X107163Y-97020D01*
X107222Y-96620D01*
X107105Y-96153D01*
X106697Y-95820D01*
X106288Y-95687D01*
X105763D01*
G01X106288D02*
X106638Y-95487D01*
X106930Y-95153D01*
X107047Y-94753D01*
X106930Y-94353D01*
X106638Y-94020D01*
X106113Y-93820D01*
X105588Y-93887D01*
X105063Y-94153D01*
G01X109397Y-97220D02*
X109747Y-97553D01*
X110155Y-97753D01*
X110680Y-97820D01*
X111205Y-97687D01*
X111613Y-97420D01*
X111905Y-96953D01*
X111963Y-96420D01*
X111847Y-95887D01*
X111555Y-95553D01*
X111147Y-95287D01*
X110738Y-95220D01*
X110330Y-95287D01*
X109805Y-95553D01*
X109980Y-93820D01*
X111555D01*
G01X118997D02*
Y-96687D01*
X119230Y-97287D01*
X119697Y-97687D01*
X120280Y-97820D01*
X120863Y-97687D01*
X121330Y-97287D01*
X121563Y-96687D01*
Y-93820D01*
G01X123855Y-97287D02*
X124322Y-97620D01*
X124847Y-97820D01*
X125313D01*
X125780Y-97620D01*
X126130Y-97287D01*
X126305Y-96820D01*
X126188Y-96353D01*
X125897Y-95953D01*
X125372Y-95687D01*
X124672Y-95553D01*
X124263Y-95287D01*
X124088Y-94820D01*
X124205Y-94353D01*
X124497Y-94020D01*
X124905Y-93820D01*
X125313D01*
X125722Y-93953D01*
X126072Y-94287D01*
G01X128422Y-97820D02*
X129880Y-93820D01*
X131338Y-97820D01*
G01X130813Y-96420D02*
X128947D01*
G01X23172Y-89153D02*
X23580Y-88687D01*
X23930Y-88420D01*
X24397Y-88287D01*
X24805Y-88420D01*
X25097Y-88687D01*
X25330Y-89087D01*
X25388Y-89553D01*
X25330Y-89953D01*
X25097Y-90353D01*
X24747Y-90687D01*
X24338Y-90820D01*
X23872Y-90687D01*
X23463Y-90287D01*
X23230Y-89687D01*
X23172Y-89020D01*
X23288Y-88153D01*
X23463Y-87687D01*
X23755Y-87220D01*
X24163Y-86887D01*
X24572Y-86820D01*
X24980Y-86953D01*
X25272Y-87287D01*
G01X27797Y-90220D02*
X28147Y-90553D01*
X28555Y-90753D01*
X29080Y-90820D01*
X29605Y-90687D01*
X30013Y-90420D01*
X30305Y-89953D01*
X30363Y-89420D01*
X30247Y-88887D01*
X29955Y-88553D01*
X29547Y-88287D01*
X29138Y-88220D01*
X28730Y-88287D01*
X28205Y-88553D01*
X28380Y-86820D01*
X29955D01*
G01X33880D02*
X33413Y-86953D01*
X33063Y-87287D01*
X32830Y-87687D01*
X32655Y-88220D01*
X32597Y-88820D01*
X32655Y-89420D01*
X32830Y-89953D01*
X33063Y-90353D01*
X33413Y-90687D01*
X33880Y-90820D01*
X34347Y-90687D01*
X34697Y-90353D01*
X34930Y-89953D01*
X35105Y-89420D01*
X35163Y-88820D01*
X35105Y-88220D01*
X34930Y-87687D01*
X34697Y-87287D01*
X34347Y-86953D01*
X33880Y-86820D01*
G01X38680Y-90820D02*
Y-86820D01*
X37980Y-87620D01*
G01Y-90820D02*
X39380D01*
G01X46530Y-86820D02*
X47347Y-90820D01*
X48280Y-86820D01*
X49213Y-90820D01*
X50030Y-86820D01*
G01X52380D02*
X53780D01*
G01X53080D02*
Y-90820D01*
G01X52380D02*
X53780D01*
G01X56713Y-86820D02*
Y-90820D01*
X59047D01*
G01X61513Y-86820D02*
Y-90820D01*
X63847D01*
G01X66780Y-86820D02*
X68180D01*
G01X67480D02*
Y-90820D01*
G01X66780D02*
X68180D01*
G01X70822D02*
X72280Y-86820D01*
X73738Y-90820D01*
G01X73213Y-89420D02*
X71347D01*
G01X75563Y-90820D02*
Y-86820D01*
X77080Y-90153D01*
X78597Y-86820D01*
Y-90820D01*
G01X87963Y-87153D02*
X87613Y-86953D01*
X87205Y-86820D01*
X86738D01*
X86213Y-87020D01*
X85805Y-87353D01*
X85513Y-87753D01*
X85280Y-88420D01*
X85222Y-89020D01*
X85338Y-89620D01*
X85513Y-90020D01*
X85863Y-90420D01*
X86272Y-90687D01*
X86680Y-90820D01*
X87088D01*
X87497Y-90687D01*
X87847Y-90487D01*
X88138Y-90220D01*
G01X90022Y-90820D02*
X91480Y-86820D01*
X92938Y-90820D01*
G01X92413Y-89420D02*
X90547D01*
G01X94938Y-90820D02*
Y-86820D01*
X97622Y-90820D01*
Y-86820D01*
G01X99738Y-90820D02*
Y-86820D01*
X102422Y-90820D01*
Y-86820D01*
G01X105880Y-90820D02*
X105413Y-90753D01*
X105005Y-90487D01*
X104655Y-90087D01*
X104422Y-89620D01*
X104305Y-89087D01*
Y-88553D01*
X104422Y-88020D01*
X104655Y-87553D01*
X105005Y-87153D01*
X105413Y-86887D01*
X105880Y-86820D01*
X106347Y-86887D01*
X106755Y-87153D01*
X107105Y-87553D01*
X107338Y-88020D01*
X107455Y-88553D01*
Y-89087D01*
X107338Y-89620D01*
X107105Y-90087D01*
X106755Y-90487D01*
X106347Y-90753D01*
X105880Y-90820D01*
G01X109338D02*
Y-86820D01*
X112022Y-90820D01*
Y-86820D01*
G01X118997Y-90820D02*
Y-86820D01*
X120163D01*
X120630Y-87020D01*
X120980Y-87287D01*
X121272Y-87687D01*
X121505Y-88153D01*
X121563Y-88820D01*
X121505Y-89487D01*
X121272Y-89953D01*
X120980Y-90353D01*
X120630Y-90620D01*
X120163Y-90820D01*
X118997D01*
G01X123913D02*
Y-86820D01*
X125372D01*
X125838Y-87020D01*
X126130Y-87287D01*
X126247Y-87820D01*
X126130Y-88353D01*
X125780Y-88687D01*
X125372Y-88887D01*
X123913D01*
G01X125372D02*
X126247Y-90820D01*
G01X129180Y-86820D02*
X130580D01*
G01X129880D02*
Y-90820D01*
G01X129180D02*
X130580D01*
G01X133222Y-86820D02*
X134680Y-90820D01*
X136138Y-86820D01*
G01X140647Y-90820D02*
X138313D01*
Y-86820D01*
X140647D01*
G01X139713Y-88753D02*
X138313D01*
G01X147330Y-86820D02*
X148147Y-90820D01*
X149080Y-86820D01*
X150013Y-90820D01*
X150830Y-86820D01*
G01X155047Y-90820D02*
X152713D01*
Y-86820D01*
X155047D01*
G01X154113Y-88753D02*
X152713D01*
G01X157455Y-90287D02*
X157922Y-90620D01*
X158447Y-90820D01*
X158913D01*
X159380Y-90620D01*
X159730Y-90287D01*
X159905Y-89820D01*
X159788Y-89353D01*
X159497Y-88953D01*
X158972Y-88687D01*
X158272Y-88553D01*
X157863Y-88287D01*
X157688Y-87820D01*
X157805Y-87353D01*
X158097Y-87020D01*
X158505Y-86820D01*
X158913D01*
X159322Y-86953D01*
X159672Y-87287D01*
G01X163480Y-86820D02*
Y-90820D01*
G01X162138Y-86820D02*
X164822D01*
G01X30280Y-103820D02*
Y-107820D01*
G01X28938Y-103820D02*
X31622D01*
G01X33855Y-107820D02*
Y-103820D01*
G01X36305D02*
Y-107820D01*
G01Y-105820D02*
X33855D01*
G01X39180Y-103820D02*
X40580D01*
G01X39880D02*
Y-107820D01*
G01X39180D02*
X40580D01*
G01X43455Y-107287D02*
X43922Y-107620D01*
X44447Y-107820D01*
X44913D01*
X45380Y-107620D01*
X45730Y-107287D01*
X45905Y-106820D01*
X45788Y-106353D01*
X45497Y-105953D01*
X44972Y-105687D01*
X44272Y-105553D01*
X43863Y-105287D01*
X43688Y-104820D01*
X43805Y-104353D01*
X44097Y-104020D01*
X44505Y-103820D01*
X44913D01*
X45322Y-103953D01*
X45672Y-104287D01*
G01X52997Y-107820D02*
Y-103820D01*
X54163D01*
X54630Y-104020D01*
X54980Y-104287D01*
X55272Y-104687D01*
X55505Y-105153D01*
X55563Y-105820D01*
X55505Y-106487D01*
X55272Y-106953D01*
X54980Y-107353D01*
X54630Y-107620D01*
X54163Y-107820D01*
X52997D01*
G01X59080D02*
X58613Y-107753D01*
X58205Y-107487D01*
X57855Y-107087D01*
X57622Y-106620D01*
X57505Y-106087D01*
Y-105553D01*
X57622Y-105020D01*
X57855Y-104553D01*
X58205Y-104153D01*
X58613Y-103887D01*
X59080Y-103820D01*
X59547Y-103887D01*
X59955Y-104153D01*
X60305Y-104553D01*
X60538Y-105020D01*
X60655Y-105553D01*
Y-106087D01*
X60538Y-106620D01*
X60305Y-107087D01*
X59955Y-107487D01*
X59547Y-107753D01*
X59080Y-107820D01*
G01X65163Y-104153D02*
X64813Y-103953D01*
X64405Y-103820D01*
X63938D01*
X63413Y-104020D01*
X63005Y-104353D01*
X62713Y-104753D01*
X62480Y-105420D01*
X62422Y-106020D01*
X62538Y-106620D01*
X62713Y-107020D01*
X63063Y-107420D01*
X63472Y-107687D01*
X63880Y-107820D01*
X64288D01*
X64697Y-107687D01*
X65047Y-107487D01*
X65338Y-107220D01*
G01X67397Y-103820D02*
Y-106687D01*
X67630Y-107287D01*
X68097Y-107687D01*
X68680Y-107820D01*
X69263Y-107687D01*
X69730Y-107287D01*
X69963Y-106687D01*
Y-103820D01*
G01X71963Y-107820D02*
Y-103820D01*
X73480Y-107153D01*
X74997Y-103820D01*
Y-107820D01*
G01X79447D02*
X77113D01*
Y-103820D01*
X79447D01*
G01X78513Y-105753D02*
X77113D01*
G01X81738Y-107820D02*
Y-103820D01*
X84422Y-107820D01*
Y-103820D01*
G01X87880D02*
Y-107820D01*
G01X86538Y-103820D02*
X89222D01*
G01X98763Y-104153D02*
X98413Y-103953D01*
X98005Y-103820D01*
X97538D01*
X97013Y-104020D01*
X96605Y-104353D01*
X96313Y-104753D01*
X96080Y-105420D01*
X96022Y-106020D01*
X96138Y-106620D01*
X96313Y-107020D01*
X96663Y-107420D01*
X97072Y-107687D01*
X97480Y-107820D01*
X97888D01*
X98297Y-107687D01*
X98647Y-107487D01*
X98938Y-107220D01*
G01X102280Y-107820D02*
X101813Y-107753D01*
X101405Y-107487D01*
X101055Y-107087D01*
X100822Y-106620D01*
X100705Y-106087D01*
Y-105553D01*
X100822Y-105020D01*
X101055Y-104553D01*
X101405Y-104153D01*
X101813Y-103887D01*
X102280Y-103820D01*
X102747Y-103887D01*
X103155Y-104153D01*
X103505Y-104553D01*
X103738Y-105020D01*
X103855Y-105553D01*
Y-106087D01*
X103738Y-106620D01*
X103505Y-107087D01*
X103155Y-107487D01*
X102747Y-107753D01*
X102280Y-107820D01*
G01X105738D02*
Y-103820D01*
X108422Y-107820D01*
Y-103820D01*
G01X111880D02*
Y-107820D01*
G01X110538Y-103820D02*
X113222D01*
G01X115222Y-107820D02*
X116680Y-103820D01*
X118138Y-107820D01*
G01X117613Y-106420D02*
X115747D01*
G01X120780Y-103820D02*
X122180D01*
G01X121480D02*
Y-107820D01*
G01X120780D02*
X122180D01*
G01X124938D02*
Y-103820D01*
X127622Y-107820D01*
Y-103820D01*
G01X129855Y-107287D02*
X130322Y-107620D01*
X130847Y-107820D01*
X131313D01*
X131780Y-107620D01*
X132130Y-107287D01*
X132305Y-106820D01*
X132188Y-106353D01*
X131897Y-105953D01*
X131372Y-105687D01*
X130672Y-105553D01*
X130263Y-105287D01*
X130088Y-104820D01*
X130205Y-104353D01*
X130497Y-104020D01*
X130905Y-103820D01*
X131313D01*
X131722Y-103953D01*
X132072Y-104287D01*
G01X139980Y-103820D02*
X141380D01*
G01X140680D02*
Y-107820D01*
G01X139980D02*
X141380D01*
G01X144138D02*
Y-103820D01*
X146822Y-107820D01*
Y-103820D01*
G01X149172Y-107820D02*
Y-103820D01*
X151388D01*
G01X150572Y-105753D02*
X149172D01*
G01X155080Y-107820D02*
X154613Y-107753D01*
X154205Y-107487D01*
X153855Y-107087D01*
X153622Y-106620D01*
X153505Y-106087D01*
Y-105553D01*
X153622Y-105020D01*
X153855Y-104553D01*
X154205Y-104153D01*
X154613Y-103887D01*
X155080Y-103820D01*
X155547Y-103887D01*
X155955Y-104153D01*
X156305Y-104553D01*
X156538Y-105020D01*
X156655Y-105553D01*
Y-106087D01*
X156538Y-106620D01*
X156305Y-107087D01*
X155955Y-107487D01*
X155547Y-107753D01*
X155080Y-107820D01*
G01X158713D02*
Y-103820D01*
X160172D01*
X160638Y-104020D01*
X160930Y-104287D01*
X161047Y-104820D01*
X160930Y-105353D01*
X160580Y-105687D01*
X160172Y-105887D01*
X158713D01*
G01X160172D02*
X161047Y-107820D01*
G01X163163D02*
Y-103820D01*
X164680Y-107153D01*
X166197Y-103820D01*
Y-107820D01*
G01X168022D02*
X169480Y-103820D01*
X170938Y-107820D01*
G01X170413Y-106420D02*
X168547D01*
G01X174280Y-103820D02*
Y-107820D01*
G01X172938Y-103820D02*
X175622D01*
G01X178380D02*
X179780D01*
G01X179080D02*
Y-107820D01*
G01X178380D02*
X179780D01*
G01X183880D02*
X183413Y-107753D01*
X183005Y-107487D01*
X182655Y-107087D01*
X182422Y-106620D01*
X182305Y-106087D01*
Y-105553D01*
X182422Y-105020D01*
X182655Y-104553D01*
X183005Y-104153D01*
X183413Y-103887D01*
X183880Y-103820D01*
X184347Y-103887D01*
X184755Y-104153D01*
X185105Y-104553D01*
X185338Y-105020D01*
X185455Y-105553D01*
Y-106087D01*
X185338Y-106620D01*
X185105Y-107087D01*
X184755Y-107487D01*
X184347Y-107753D01*
X183880Y-107820D01*
G01X187338D02*
Y-103820D01*
X190022Y-107820D01*
Y-103820D01*
G01X35193Y-83000D02*
Y-75500D01*
X39487Y-83000D01*
Y-75500D01*
G01X42880Y-83000D02*
X46800Y-75500D01*
G01X42880D02*
X46800Y-83000D01*
G01X50473D02*
Y-75500D01*
X52713D01*
X53460Y-75875D01*
X54020Y-76750D01*
X54207Y-77750D01*
X54020Y-78750D01*
X53553Y-79500D01*
X52713Y-79875D01*
X50473D01*
G01X65380Y-82000D02*
X66127Y-82625D01*
X66967Y-83000D01*
X67713D01*
X68460Y-82625D01*
X69020Y-82000D01*
X69300Y-81125D01*
X69113Y-80250D01*
X68647Y-79500D01*
X67807Y-79000D01*
X66687Y-78750D01*
X66033Y-78250D01*
X65753Y-77375D01*
X65940Y-76500D01*
X66407Y-75875D01*
X67060Y-75500D01*
X67713D01*
X68367Y-75750D01*
X68927Y-76375D01*
G01X76707Y-83000D02*
X72973D01*
Y-75500D01*
X76707D01*
G01X75213Y-79125D02*
X72973D01*
G01X79913Y-83000D02*
Y-75500D01*
X82340Y-81750D01*
X84767Y-75500D01*
Y-83000D01*
G01X88720Y-75500D02*
X90960D01*
G01X89840D02*
Y-83000D01*
G01X88720D02*
X90960D01*
G01X99393Y-76125D02*
X98833Y-75750D01*
X98180Y-75500D01*
X97433D01*
X96593Y-75875D01*
X95940Y-76500D01*
X95473Y-77250D01*
X95100Y-78500D01*
X95007Y-79625D01*
X95193Y-80750D01*
X95473Y-81500D01*
X96033Y-82250D01*
X96687Y-82750D01*
X97340Y-83000D01*
X97993D01*
X98647Y-82750D01*
X99207Y-82375D01*
X99673Y-81875D01*
G01X104840Y-83000D02*
X104093Y-82875D01*
X103440Y-82375D01*
X102880Y-81625D01*
X102507Y-80750D01*
X102320Y-79750D01*
Y-78750D01*
X102507Y-77750D01*
X102880Y-76875D01*
X103440Y-76125D01*
X104093Y-75625D01*
X104840Y-75500D01*
X105587Y-75625D01*
X106240Y-76125D01*
X106800Y-76875D01*
X107173Y-77750D01*
X107360Y-78750D01*
Y-79750D01*
X107173Y-80750D01*
X106800Y-81625D01*
X106240Y-82375D01*
X105587Y-82875D01*
X104840Y-83000D01*
G01X110193D02*
Y-75500D01*
X114487Y-83000D01*
Y-75500D01*
G01X117787Y-83000D02*
Y-75500D01*
X119653D01*
X120400Y-75875D01*
X120960Y-76375D01*
X121427Y-77125D01*
X121800Y-78000D01*
X121893Y-79250D01*
X121800Y-80500D01*
X121427Y-81375D01*
X120960Y-82125D01*
X120400Y-82625D01*
X119653Y-83000D01*
X117787D01*
G01X125287Y-75500D02*
Y-80875D01*
X125660Y-82000D01*
X126407Y-82750D01*
X127340Y-83000D01*
X128273Y-82750D01*
X129020Y-82000D01*
X129393Y-80875D01*
Y-75500D01*
G01X136893Y-76125D02*
X136333Y-75750D01*
X135680Y-75500D01*
X134933D01*
X134093Y-75875D01*
X133440Y-76500D01*
X132973Y-77250D01*
X132600Y-78500D01*
X132507Y-79625D01*
X132693Y-80750D01*
X132973Y-81500D01*
X133533Y-82250D01*
X134187Y-82750D01*
X134840Y-83000D01*
X135493D01*
X136147Y-82750D01*
X136707Y-82375D01*
X137173Y-81875D01*
G01X142340Y-75500D02*
Y-83000D01*
G01X140193Y-75500D02*
X144487D01*
G01X149840Y-83000D02*
X149093Y-82875D01*
X148440Y-82375D01*
X147880Y-81625D01*
X147507Y-80750D01*
X147320Y-79750D01*
Y-78750D01*
X147507Y-77750D01*
X147880Y-76875D01*
X148440Y-76125D01*
X149093Y-75625D01*
X149840Y-75500D01*
X150587Y-75625D01*
X151240Y-76125D01*
X151800Y-76875D01*
X152173Y-77750D01*
X152360Y-78750D01*
Y-79750D01*
X152173Y-80750D01*
X151800Y-81625D01*
X151240Y-82375D01*
X150587Y-82875D01*
X149840Y-83000D01*
G01X155473D02*
Y-75500D01*
X157807D01*
X158553Y-75875D01*
X159020Y-76375D01*
X159207Y-77375D01*
X159020Y-78375D01*
X158460Y-79000D01*
X157807Y-79375D01*
X155473D01*
G01X157807D02*
X159207Y-83000D01*
G01X162880Y-82000D02*
X163627Y-82625D01*
X164467Y-83000D01*
X165213D01*
X165960Y-82625D01*
X166520Y-82000D01*
X166800Y-81125D01*
X166613Y-80250D01*
X166147Y-79500D01*
X165307Y-79000D01*
X164187Y-78750D01*
X163533Y-78250D01*
X163253Y-77375D01*
X163440Y-76500D01*
X163907Y-75875D01*
X164560Y-75500D01*
X165213D01*
X165867Y-75750D01*
X166427Y-76375D01*
G01X83720Y-159350D02*
X85600D01*
G01X84660D02*
Y-165350D01*
G01X83720D02*
X85600D01*
G01X89158D02*
Y-159350D01*
X92762Y-165350D01*
Y-159350D01*
G01X97260D02*
Y-165350D01*
G01X95458Y-159350D02*
X99062D01*
G01X105127Y-165350D02*
X101993D01*
Y-159350D01*
X105127D01*
G01X103873Y-162250D02*
X101993D01*
G01X108293Y-165350D02*
Y-159350D01*
X110252D01*
X110878Y-159650D01*
X111270Y-160050D01*
X111427Y-160850D01*
X111270Y-161650D01*
X110800Y-162150D01*
X110252Y-162450D01*
X108293D01*
G01X110252D02*
X111427Y-165350D01*
G01X114358D02*
Y-159350D01*
X117962Y-165350D01*
Y-159350D01*
G01X120502Y-165350D02*
X122460Y-159350D01*
X124418Y-165350D01*
G01X123713Y-163250D02*
X121207D01*
G01X127193Y-159350D02*
Y-165350D01*
X130327D01*
G01X139793Y-159350D02*
Y-165350D01*
X142927D01*
G01X145702D02*
X147660Y-159350D01*
X149618Y-165350D01*
G01X148913Y-163250D02*
X146407D01*
G01X153960Y-165350D02*
Y-162650D01*
X152393Y-159350D01*
G01X155527D02*
X153960Y-162650D01*
G01X161827Y-165350D02*
X158693D01*
Y-159350D01*
X161827D01*
G01X160573Y-162250D02*
X158693D01*
G01X164993Y-165350D02*
Y-159350D01*
X166952D01*
X167578Y-159650D01*
X167970Y-160050D01*
X168127Y-160850D01*
X167970Y-161650D01*
X167500Y-162150D01*
X166952Y-162450D01*
X164993D01*
G01X166952D02*
X168127Y-165350D01*
G01X179160D02*
Y-159350D01*
X178220Y-160550D01*
G01Y-165350D02*
X180100D01*
G01X73172Y-158820D02*
Y-154820D01*
X75388D01*
G01X74572Y-156753D02*
X73172D01*
G01X78380Y-154820D02*
X79780D01*
G01X79080D02*
Y-158820D01*
G01X78380D02*
X79780D01*
G01X82713Y-154820D02*
Y-158820D01*
X85047D01*
G01X87163D02*
Y-154820D01*
X88680Y-158153D01*
X90197Y-154820D01*
Y-158820D01*
G01X201280Y-162820D02*
X200813Y-162953D01*
X200463Y-163287D01*
X200230Y-163687D01*
X200055Y-164220D01*
X199997Y-164820D01*
X200055Y-165420D01*
X200230Y-165953D01*
X200463Y-166353D01*
X200813Y-166687D01*
X201280Y-166820D01*
X201747Y-166687D01*
X202097Y-166353D01*
X202330Y-165953D01*
X202505Y-165420D01*
X202563Y-164820D01*
X202505Y-164220D01*
X202330Y-163687D01*
X202097Y-163287D01*
X201747Y-162953D01*
X201280Y-162820D01*
G01X204972Y-165153D02*
X205380Y-164687D01*
X205730Y-164420D01*
X206197Y-164287D01*
X206605Y-164420D01*
X206897Y-164687D01*
X207130Y-165087D01*
X207188Y-165553D01*
X207130Y-165953D01*
X206897Y-166353D01*
X206547Y-166687D01*
X206138Y-166820D01*
X205672Y-166687D01*
X205263Y-166287D01*
X205030Y-165687D01*
X204972Y-165020D01*
X205088Y-164153D01*
X205263Y-163687D01*
X205555Y-163220D01*
X205963Y-162887D01*
X206372Y-162820D01*
X206780Y-162953D01*
X207072Y-163287D01*
G01X210122Y-165487D02*
X211638D01*
G01X214572Y-163487D02*
X214922Y-163087D01*
X215330Y-162887D01*
X215797Y-162820D01*
X216380Y-162953D01*
X216788Y-163287D01*
X216905Y-163687D01*
X216847Y-164087D01*
X216613Y-164420D01*
X215447Y-165087D01*
X214922Y-165553D01*
X214572Y-166220D01*
X214455Y-166820D01*
X216905D01*
G01X219197Y-166020D02*
X219547Y-166487D01*
X220013Y-166753D01*
X220538Y-166820D01*
X221005Y-166753D01*
X221472Y-166420D01*
X221763Y-166020D01*
X221822Y-165620D01*
X221705Y-165153D01*
X221297Y-164820D01*
X220888Y-164687D01*
X220363D01*
G01X220888D02*
X221238Y-164487D01*
X221530Y-164153D01*
X221647Y-163753D01*
X221530Y-163353D01*
X221238Y-163020D01*
X220713Y-162820D01*
X220188Y-162887D01*
X219663Y-163153D01*
G01X224522Y-165487D02*
X226038D01*
G01X230080Y-166820D02*
Y-162820D01*
X229380Y-163620D01*
G01Y-166820D02*
X230780D01*
G01X233772Y-165153D02*
X234180Y-164687D01*
X234530Y-164420D01*
X234997Y-164287D01*
X235405Y-164420D01*
X235697Y-164687D01*
X235930Y-165087D01*
X235988Y-165553D01*
X235930Y-165953D01*
X235697Y-166353D01*
X235347Y-166687D01*
X234938Y-166820D01*
X234472Y-166687D01*
X234063Y-166287D01*
X233830Y-165687D01*
X233772Y-165020D01*
X233888Y-164153D01*
X234063Y-163687D01*
X234355Y-163220D01*
X234763Y-162887D01*
X235172Y-162820D01*
X235580Y-162953D01*
X235872Y-163287D01*
G01X197997Y-158820D02*
Y-154820D01*
X199163D01*
X199630Y-155020D01*
X199980Y-155287D01*
X200272Y-155687D01*
X200505Y-156153D01*
X200563Y-156820D01*
X200505Y-157487D01*
X200272Y-157953D01*
X199980Y-158353D01*
X199630Y-158620D01*
X199163Y-158820D01*
X197997D01*
G01X202622D02*
X204080Y-154820D01*
X205538Y-158820D01*
G01X205013Y-157420D02*
X203147D01*
G01X208880Y-154820D02*
Y-158820D01*
G01X207538Y-154820D02*
X210222D01*
G01X214847Y-158820D02*
X212513D01*
Y-154820D01*
X214847D01*
G01X213913Y-156753D02*
X212513D01*
G01X197938Y-78820D02*
Y-74820D01*
X200622Y-78820D01*
Y-74820D01*
G01X202622Y-78820D02*
X204080Y-74820D01*
X205538Y-78820D01*
G01X205013Y-77420D02*
X203147D01*
G01X207363Y-78820D02*
Y-74820D01*
X208880Y-78153D01*
X210397Y-74820D01*
Y-78820D01*
G01X214847D02*
X212513D01*
Y-74820D01*
X214847D01*
G01X213913Y-76753D02*
X212513D01*
G01X207530Y-144653D02*
X211030D01*
G01X212330D02*
X215830D01*
G01X217130D02*
X220630D01*
G01X227138Y-143320D02*
Y-139320D01*
X229822Y-143320D01*
Y-139320D01*
G01X234563Y-139653D02*
X234213Y-139453D01*
X233805Y-139320D01*
X233338D01*
X232813Y-139520D01*
X232405Y-139853D01*
X232113Y-140253D01*
X231880Y-140920D01*
X231822Y-141520D01*
X231938Y-142120D01*
X232113Y-142520D01*
X232463Y-142920D01*
X232872Y-143187D01*
X233280Y-143320D01*
X233688D01*
X234097Y-143187D01*
X234447Y-142987D01*
X234738Y-142720D01*
G01X236913Y-143320D02*
Y-139320D01*
X238313D01*
X238780Y-139520D01*
X239130Y-139987D01*
X239247Y-140520D01*
X239130Y-141053D01*
X238838Y-141453D01*
X238313Y-141653D01*
X236913D01*
G01X252188Y-144653D02*
X251605Y-143987D01*
X251313Y-143320D01*
Y-140653D01*
X251605Y-139987D01*
X252188Y-139320D01*
G01X255938Y-143320D02*
Y-139320D01*
X258622Y-143320D01*
Y-139320D01*
G01X260855Y-143320D02*
X263305Y-139320D01*
G01X260855D02*
X263305Y-143320D01*
G01X265713D02*
Y-139320D01*
X267113D01*
X267580Y-139520D01*
X267930Y-139987D01*
X268047Y-140520D01*
X267930Y-141053D01*
X267638Y-141453D01*
X267113Y-141653D01*
X265713D01*
G01X277763Y-139653D02*
X277413Y-139453D01*
X277005Y-139320D01*
X276538D01*
X276013Y-139520D01*
X275605Y-139853D01*
X275313Y-140253D01*
X275080Y-140920D01*
X275022Y-141520D01*
X275138Y-142120D01*
X275313Y-142520D01*
X275663Y-142920D01*
X276072Y-143187D01*
X276480Y-143320D01*
X276888D01*
X277297Y-143187D01*
X277647Y-142987D01*
X277938Y-142720D01*
G01X281280Y-143320D02*
X280813Y-143253D01*
X280405Y-142987D01*
X280055Y-142587D01*
X279822Y-142120D01*
X279705Y-141587D01*
Y-141053D01*
X279822Y-140520D01*
X280055Y-140053D01*
X280405Y-139653D01*
X280813Y-139387D01*
X281280Y-139320D01*
X281747Y-139387D01*
X282155Y-139653D01*
X282505Y-140053D01*
X282738Y-140520D01*
X282855Y-141053D01*
Y-141587D01*
X282738Y-142120D01*
X282505Y-142587D01*
X282155Y-142987D01*
X281747Y-143253D01*
X281280Y-143320D01*
G01X284738D02*
Y-139320D01*
X287422Y-143320D01*
Y-139320D01*
G01X289772Y-143320D02*
Y-139320D01*
X291988D01*
G01X291172Y-141253D02*
X289772D01*
G01X294980Y-139320D02*
X296380D01*
G01X295680D02*
Y-143320D01*
G01X294980D02*
X296380D01*
G01X299197D02*
Y-139320D01*
X300363D01*
X300830Y-139520D01*
X301180Y-139787D01*
X301472Y-140187D01*
X301705Y-140653D01*
X301763Y-141320D01*
X301705Y-141987D01*
X301472Y-142453D01*
X301180Y-142853D01*
X300830Y-143120D01*
X300363Y-143320D01*
X299197D01*
G01X306447D02*
X304113D01*
Y-139320D01*
X306447D01*
G01X305513Y-141253D02*
X304113D01*
G01X308738Y-143320D02*
Y-139320D01*
X311422Y-143320D01*
Y-139320D01*
G01X314880D02*
Y-143320D01*
G01X313538Y-139320D02*
X316222D01*
G01X318980D02*
X320380D01*
G01X319680D02*
Y-143320D01*
G01X318980D02*
X320380D01*
G01X323022D02*
X324480Y-139320D01*
X325938Y-143320D01*
G01X325413Y-141920D02*
X323547D01*
G01X328113Y-139320D02*
Y-143320D01*
X330447D01*
G01X337713D02*
Y-139320D01*
X339113D01*
X339580Y-139520D01*
X339930Y-139987D01*
X340047Y-140520D01*
X339930Y-141053D01*
X339638Y-141453D01*
X339113Y-141653D01*
X337713D01*
G01X342513Y-143320D02*
Y-139320D01*
X343972D01*
X344438Y-139520D01*
X344730Y-139787D01*
X344847Y-140320D01*
X344730Y-140853D01*
X344380Y-141187D01*
X343972Y-141387D01*
X342513D01*
G01X343972D02*
X344847Y-143320D01*
G01X348480D02*
X348013Y-143253D01*
X347605Y-142987D01*
X347255Y-142587D01*
X347022Y-142120D01*
X346905Y-141587D01*
Y-141053D01*
X347022Y-140520D01*
X347255Y-140053D01*
X347605Y-139653D01*
X348013Y-139387D01*
X348480Y-139320D01*
X348947Y-139387D01*
X349355Y-139653D01*
X349705Y-140053D01*
X349938Y-140520D01*
X350055Y-141053D01*
Y-141587D01*
X349938Y-142120D01*
X349705Y-142587D01*
X349355Y-142987D01*
X348947Y-143253D01*
X348480Y-143320D01*
G01X352113D02*
Y-139320D01*
X353513D01*
X353980Y-139520D01*
X354330Y-139987D01*
X354447Y-140520D01*
X354330Y-141053D01*
X354038Y-141453D01*
X353513Y-141653D01*
X352113D01*
G01X356913Y-143320D02*
Y-139320D01*
X358372D01*
X358838Y-139520D01*
X359130Y-139787D01*
X359247Y-140320D01*
X359130Y-140853D01*
X358780Y-141187D01*
X358372Y-141387D01*
X356913D01*
G01X358372D02*
X359247Y-143320D01*
G01X362180Y-139320D02*
X363580D01*
G01X362880D02*
Y-143320D01*
G01X362180D02*
X363580D01*
G01X368847D02*
X366513D01*
Y-139320D01*
X368847D01*
G01X367913Y-141253D02*
X366513D01*
G01X372480Y-139320D02*
Y-143320D01*
G01X371138Y-139320D02*
X373822D01*
G01X375822Y-143320D02*
X377280Y-139320D01*
X378738Y-143320D01*
G01X378213Y-141920D02*
X376347D01*
G01X380913Y-143320D02*
Y-139320D01*
X382372D01*
X382838Y-139520D01*
X383130Y-139787D01*
X383247Y-140320D01*
X383130Y-140853D01*
X382780Y-141187D01*
X382372Y-141387D01*
X380913D01*
G01X382372D02*
X383247Y-143320D01*
G01X386880D02*
Y-141520D01*
X385713Y-139320D01*
G01X388047D02*
X386880Y-141520D01*
G01X391972Y-144653D02*
X392555Y-143987D01*
X392847Y-143320D01*
Y-140653D01*
X392555Y-139987D01*
X391972Y-139320D01*
G01X207530Y-128153D02*
X211030D01*
G01X212330D02*
X215830D01*
G01X217130D02*
X220630D01*
G01X227138Y-126820D02*
Y-122820D01*
X229822Y-126820D01*
Y-122820D01*
G01X232580D02*
X233980D01*
G01X233280D02*
Y-126820D01*
G01X232580D02*
X233980D01*
G01X236797Y-122820D02*
Y-125687D01*
X237030Y-126287D01*
X237497Y-126687D01*
X238080Y-126820D01*
X238663Y-126687D01*
X239130Y-126287D01*
X239363Y-125687D01*
Y-122820D01*
G01X242880Y-126820D02*
X242413Y-126753D01*
X242005Y-126487D01*
X241655Y-126087D01*
X241422Y-125620D01*
X241305Y-125087D01*
Y-124553D01*
X241422Y-124020D01*
X241655Y-123553D01*
X242005Y-123153D01*
X242413Y-122887D01*
X242880Y-122820D01*
X243347Y-122887D01*
X243755Y-123153D01*
X244105Y-123553D01*
X244338Y-124020D01*
X244455Y-124553D01*
Y-125087D01*
X244338Y-125620D01*
X244105Y-126087D01*
X243755Y-126487D01*
X243347Y-126753D01*
X242880Y-126820D01*
G01X252188Y-128153D02*
X251605Y-127487D01*
X251313Y-126820D01*
Y-124153D01*
X251605Y-123487D01*
X252188Y-122820D01*
G01X255938Y-126820D02*
Y-122820D01*
X258622Y-126820D01*
Y-122820D01*
G01X260855Y-126820D02*
X263305Y-122820D01*
G01X260855D02*
X263305Y-126820D01*
G01X265713D02*
Y-122820D01*
X267113D01*
X267580Y-123020D01*
X267930Y-123487D01*
X268047Y-124020D01*
X267930Y-124553D01*
X267638Y-124953D01*
X267113Y-125153D01*
X265713D01*
G01X275780Y-122820D02*
X277180D01*
G01X276480D02*
Y-126820D01*
G01X275780D02*
X277180D01*
G01X279938D02*
Y-122820D01*
X282622Y-126820D01*
Y-122820D01*
G01X286080D02*
Y-126820D01*
G01X284738Y-122820D02*
X287422D01*
G01X292047Y-126820D02*
X289713D01*
Y-122820D01*
X292047D01*
G01X291113Y-124753D02*
X289713D01*
G01X294513Y-126820D02*
Y-122820D01*
X295972D01*
X296438Y-123020D01*
X296730Y-123287D01*
X296847Y-123820D01*
X296730Y-124353D01*
X296380Y-124687D01*
X295972Y-124887D01*
X294513D01*
G01X295972D02*
X296847Y-126820D01*
G01X299138D02*
Y-122820D01*
X301822Y-126820D01*
Y-122820D01*
G01X303822Y-126820D02*
X305280Y-122820D01*
X306738Y-126820D01*
G01X306213Y-125420D02*
X304347D01*
G01X308913Y-122820D02*
Y-126820D01*
X311247D01*
G01X318397Y-122820D02*
Y-125687D01*
X318630Y-126287D01*
X319097Y-126687D01*
X319680Y-126820D01*
X320263Y-126687D01*
X320730Y-126287D01*
X320963Y-125687D01*
Y-122820D01*
G01X323255Y-126287D02*
X323722Y-126620D01*
X324247Y-126820D01*
X324713D01*
X325180Y-126620D01*
X325530Y-126287D01*
X325705Y-125820D01*
X325588Y-125353D01*
X325297Y-124953D01*
X324772Y-124687D01*
X324072Y-124553D01*
X323663Y-124287D01*
X323488Y-123820D01*
X323605Y-123353D01*
X323897Y-123020D01*
X324305Y-122820D01*
X324713D01*
X325122Y-122953D01*
X325472Y-123287D01*
G01X330447Y-126820D02*
X328113D01*
Y-122820D01*
X330447D01*
G01X329513Y-124753D02*
X328113D01*
G01X338880Y-126820D02*
X338413Y-126753D01*
X338005Y-126487D01*
X337655Y-126087D01*
X337422Y-125620D01*
X337305Y-125087D01*
Y-124553D01*
X337422Y-124020D01*
X337655Y-123553D01*
X338005Y-123153D01*
X338413Y-122887D01*
X338880Y-122820D01*
X339347Y-122887D01*
X339755Y-123153D01*
X340105Y-123553D01*
X340338Y-124020D01*
X340455Y-124553D01*
Y-125087D01*
X340338Y-125620D01*
X340105Y-126087D01*
X339755Y-126487D01*
X339347Y-126753D01*
X338880Y-126820D01*
G01X342338D02*
Y-122820D01*
X345022Y-126820D01*
Y-122820D01*
G01X347313D02*
Y-126820D01*
X349647D01*
G01X353280D02*
Y-125020D01*
X352113Y-122820D01*
G01X354447D02*
X353280Y-125020D01*
G01X358372Y-128153D02*
X358955Y-127487D01*
X359247Y-126820D01*
Y-124153D01*
X358955Y-123487D01*
X358372Y-122820D01*
G01X212235Y-127820D02*
X215525Y-121520D01*
G01X212235D02*
X215525Y-127820D01*
G01X207530Y-112153D02*
X211030D01*
G01X212330D02*
X215830D01*
G01X217130D02*
X220630D01*
G01X227313Y-110820D02*
Y-106820D01*
X228713D01*
X229180Y-107020D01*
X229530Y-107487D01*
X229647Y-108020D01*
X229530Y-108553D01*
X229238Y-108953D01*
X228713Y-109153D01*
X227313D01*
G01X231997Y-106820D02*
Y-109687D01*
X232230Y-110287D01*
X232697Y-110687D01*
X233280Y-110820D01*
X233863Y-110687D01*
X234330Y-110287D01*
X234563Y-109687D01*
Y-106820D01*
G01X238547Y-108687D02*
X238780Y-108487D01*
X238955Y-108153D01*
X239072Y-107687D01*
X238955Y-107287D01*
X238722Y-107020D01*
X238313Y-106820D01*
X236738D01*
Y-110820D01*
X238663D01*
X239072Y-110553D01*
X239305Y-110153D01*
X239422Y-109687D01*
X239305Y-109220D01*
X238955Y-108820D01*
X238547Y-108687D01*
X236738D01*
G01X242180Y-106820D02*
X243580D01*
G01X242880D02*
Y-110820D01*
G01X242180D02*
X243580D01*
G01X252188Y-112153D02*
X251605Y-111487D01*
X251313Y-110820D01*
Y-108153D01*
X251605Y-107487D01*
X252188Y-106820D01*
G01X256113Y-110820D02*
Y-106820D01*
X257513D01*
X257980Y-107020D01*
X258330Y-107487D01*
X258447Y-108020D01*
X258330Y-108553D01*
X258038Y-108953D01*
X257513Y-109153D01*
X256113D01*
G01X260797Y-106820D02*
Y-109687D01*
X261030Y-110287D01*
X261497Y-110687D01*
X262080Y-110820D01*
X262663Y-110687D01*
X263130Y-110287D01*
X263363Y-109687D01*
Y-106820D01*
G01X267347Y-108687D02*
X267580Y-108487D01*
X267755Y-108153D01*
X267872Y-107687D01*
X267755Y-107287D01*
X267522Y-107020D01*
X267113Y-106820D01*
X265538D01*
Y-110820D01*
X267463D01*
X267872Y-110553D01*
X268105Y-110153D01*
X268222Y-109687D01*
X268105Y-109220D01*
X267755Y-108820D01*
X267347Y-108687D01*
X265538D01*
G01X270513Y-106820D02*
Y-110820D01*
X272847D01*
G01X275780Y-106820D02*
X277180D01*
G01X276480D02*
Y-110820D01*
G01X275780D02*
X277180D01*
G01X282563Y-107153D02*
X282213Y-106953D01*
X281805Y-106820D01*
X281338D01*
X280813Y-107020D01*
X280405Y-107353D01*
X280113Y-107753D01*
X279880Y-108420D01*
X279822Y-109020D01*
X279938Y-109620D01*
X280113Y-110020D01*
X280463Y-110420D01*
X280872Y-110687D01*
X281280Y-110820D01*
X281688D01*
X282097Y-110687D01*
X282447Y-110487D01*
X282738Y-110220D01*
G01X290180Y-106820D02*
X291580D01*
G01X290880D02*
Y-110820D01*
G01X290180D02*
X291580D01*
G01X294338D02*
Y-106820D01*
X297022Y-110820D01*
Y-106820D01*
G01X299372Y-110820D02*
Y-106820D01*
X301588D01*
G01X300772Y-108753D02*
X299372D01*
G01X305280Y-110820D02*
X304813Y-110753D01*
X304405Y-110487D01*
X304055Y-110087D01*
X303822Y-109620D01*
X303705Y-109087D01*
Y-108553D01*
X303822Y-108020D01*
X304055Y-107553D01*
X304405Y-107153D01*
X304813Y-106887D01*
X305280Y-106820D01*
X305747Y-106887D01*
X306155Y-107153D01*
X306505Y-107553D01*
X306738Y-108020D01*
X306855Y-108553D01*
Y-109087D01*
X306738Y-109620D01*
X306505Y-110087D01*
X306155Y-110487D01*
X305747Y-110753D01*
X305280Y-110820D01*
G01X308913D02*
Y-106820D01*
X310372D01*
X310838Y-107020D01*
X311130Y-107287D01*
X311247Y-107820D01*
X311130Y-108353D01*
X310780Y-108687D01*
X310372Y-108887D01*
X308913D01*
G01X310372D02*
X311247Y-110820D01*
G01X313363D02*
Y-106820D01*
X314880Y-110153D01*
X316397Y-106820D01*
Y-110820D01*
G01X318222D02*
X319680Y-106820D01*
X321138Y-110820D01*
G01X320613Y-109420D02*
X318747D01*
G01X324480Y-106820D02*
Y-110820D01*
G01X323138Y-106820D02*
X325822D01*
G01X328580D02*
X329980D01*
G01X329280D02*
Y-110820D01*
G01X328580D02*
X329980D01*
G01X334080D02*
X333613Y-110753D01*
X333205Y-110487D01*
X332855Y-110087D01*
X332622Y-109620D01*
X332505Y-109087D01*
Y-108553D01*
X332622Y-108020D01*
X332855Y-107553D01*
X333205Y-107153D01*
X333613Y-106887D01*
X334080Y-106820D01*
X334547Y-106887D01*
X334955Y-107153D01*
X335305Y-107553D01*
X335538Y-108020D01*
X335655Y-108553D01*
Y-109087D01*
X335538Y-109620D01*
X335305Y-110087D01*
X334955Y-110487D01*
X334547Y-110753D01*
X334080Y-110820D01*
G01X337538D02*
Y-106820D01*
X340222Y-110820D01*
Y-106820D01*
G01X343972Y-112153D02*
X344555Y-111487D01*
X344847Y-110820D01*
Y-108153D01*
X344555Y-107487D01*
X343972Y-106820D01*
G01X247938Y-158820D02*
Y-154820D01*
X250622Y-158820D01*
Y-154820D01*
G01X252797D02*
Y-157687D01*
X253030Y-158287D01*
X253497Y-158687D01*
X254080Y-158820D01*
X254663Y-158687D01*
X255130Y-158287D01*
X255363Y-157687D01*
Y-154820D01*
G01X257363Y-158820D02*
Y-154820D01*
X258880Y-158153D01*
X260397Y-154820D01*
Y-158820D01*
G01X264147Y-156687D02*
X264380Y-156487D01*
X264555Y-156153D01*
X264672Y-155687D01*
X264555Y-155287D01*
X264322Y-155020D01*
X263913Y-154820D01*
X262338D01*
Y-158820D01*
X264263D01*
X264672Y-158553D01*
X264905Y-158153D01*
X265022Y-157687D01*
X264905Y-157220D01*
X264555Y-156820D01*
X264147Y-156687D01*
X262338D01*
G01X269647Y-158820D02*
X267313D01*
Y-154820D01*
X269647D01*
G01X268713Y-156753D02*
X267313D01*
G01X272113Y-158820D02*
Y-154820D01*
X273572D01*
X274038Y-155020D01*
X274330Y-155287D01*
X274447Y-155820D01*
X274330Y-156353D01*
X273980Y-156687D01*
X273572Y-156887D01*
X272113D01*
G01X273572D02*
X274447Y-158820D01*
G01X257567Y-90650D02*
Y-84350D01*
X259133D01*
X259760Y-84665D01*
X260230Y-85085D01*
X260622Y-85715D01*
X260935Y-86450D01*
X261013Y-87500D01*
X260935Y-88550D01*
X260622Y-89285D01*
X260230Y-89915D01*
X259760Y-90335D01*
X259133Y-90650D01*
X257567D01*
G01X267157D02*
X264023D01*
Y-84350D01*
X267157D01*
G01X265903Y-87395D02*
X264023D01*
G01X269932Y-84350D02*
X271890Y-90650D01*
X273848Y-84350D01*
G01X276467Y-90650D02*
Y-84350D01*
G01X279443D02*
X276467Y-88235D01*
G01X279913Y-90650D02*
X277798Y-86450D01*
G01X283550Y-84350D02*
X285430D01*
G01X284490D02*
Y-90650D01*
G01X283550D02*
X285430D01*
G01X290790Y-84350D02*
Y-90650D01*
G01X288988Y-84350D02*
X292592D01*
G01X296072Y-88550D02*
X298108D01*
G01X301353Y-90650D02*
Y-84350D01*
X303390Y-89600D01*
X305427Y-84350D01*
Y-90650D01*
G01X308123D02*
Y-84350D01*
X310003D01*
X310630Y-84665D01*
X311100Y-85400D01*
X311257Y-86240D01*
X311100Y-87080D01*
X310708Y-87710D01*
X310003Y-88025D01*
X308123D01*
G01X317713Y-84875D02*
X317243Y-84560D01*
X316695Y-84350D01*
X316068D01*
X315363Y-84665D01*
X314815Y-85190D01*
X314423Y-85820D01*
X314110Y-86870D01*
X314032Y-87815D01*
X314188Y-88760D01*
X314423Y-89390D01*
X314893Y-90020D01*
X315442Y-90440D01*
X315990Y-90650D01*
X316538D01*
X317087Y-90440D01*
X317557Y-90125D01*
X317948Y-89705D01*
G01X320567D02*
X321037Y-90230D01*
X321585Y-90545D01*
X322290Y-90650D01*
X322995Y-90440D01*
X323543Y-90020D01*
X323935Y-89285D01*
X324013Y-88445D01*
X323857Y-87605D01*
X323465Y-87080D01*
X322917Y-86660D01*
X322368Y-86555D01*
X321820Y-86660D01*
X321115Y-87080D01*
X321350Y-84350D01*
X323465D01*
G01X328433Y-90650D02*
X328590Y-89285D01*
X328825Y-88130D01*
X329138Y-87080D01*
X329530Y-85925D01*
X330157Y-84350D01*
X327023D01*
G01X335830Y-90650D02*
Y-84350D01*
X332932Y-88865D01*
X336848D01*
G01X341190Y-90650D02*
X341738Y-90545D01*
X342365Y-90230D01*
X342757Y-89705D01*
X342913Y-88970D01*
X342757Y-88235D01*
X342287Y-87605D01*
X341582Y-87290D01*
X340798D01*
X340328Y-87080D01*
X339937Y-86555D01*
X339780Y-85820D01*
X340015Y-85085D01*
X340563Y-84560D01*
X341190Y-84350D01*
X341817Y-84560D01*
X342365Y-85085D01*
X342600Y-85820D01*
X342443Y-86555D01*
X342052Y-87080D01*
X341582Y-87290D01*
X340798D01*
X340093Y-87605D01*
X339623Y-88235D01*
X339467Y-88970D01*
X339623Y-89705D01*
X340015Y-90230D01*
X340642Y-90545D01*
X341190Y-90650D01*
G01X347960Y-87500D02*
X349527D01*
Y-89390D01*
X349057Y-90020D01*
X348508Y-90440D01*
X347725Y-90650D01*
X346942Y-90440D01*
X346393Y-90020D01*
X345923Y-89390D01*
X345610Y-88655D01*
X345453Y-87815D01*
Y-87080D01*
X345610Y-86450D01*
X345923Y-85715D01*
X346393Y-85085D01*
X346863Y-84665D01*
X347490Y-84350D01*
X348038D01*
X348665Y-84560D01*
X349135Y-84980D01*
G01X282880Y-165820D02*
Y-159520D01*
X281940Y-160780D01*
G01Y-165820D02*
X283820D01*
G01X289023D02*
X289180Y-164455D01*
X289415Y-163300D01*
X289728Y-162250D01*
X290120Y-161095D01*
X290747Y-159520D01*
X287613D01*
G01X295480D02*
X294853Y-159730D01*
X294383Y-160255D01*
X294070Y-160885D01*
X293835Y-161725D01*
X293757Y-162670D01*
X293835Y-163615D01*
X294070Y-164455D01*
X294383Y-165085D01*
X294853Y-165610D01*
X295480Y-165820D01*
X296107Y-165610D01*
X296577Y-165085D01*
X296890Y-164455D01*
X297125Y-163615D01*
X297203Y-162670D01*
X297125Y-161725D01*
X296890Y-160885D01*
X296577Y-160255D01*
X296107Y-159730D01*
X295480Y-159520D01*
G01X300762Y-163720D02*
X302798D01*
G01X306592Y-160570D02*
X307062Y-159940D01*
X307610Y-159625D01*
X308237Y-159520D01*
X309020Y-159730D01*
X309568Y-160255D01*
X309725Y-160885D01*
X309647Y-161515D01*
X309333Y-162040D01*
X307767Y-163090D01*
X307062Y-163825D01*
X306592Y-164875D01*
X306435Y-165820D01*
X309725D01*
G01X313048Y-165085D02*
X313597Y-165610D01*
X314223Y-165820D01*
X314850Y-165610D01*
X315398Y-164980D01*
X315790Y-164035D01*
X315947Y-163090D01*
Y-161935D01*
X315790Y-160990D01*
X315398Y-160150D01*
X314928Y-159730D01*
X314380Y-159520D01*
X313753Y-159730D01*
X313283Y-160150D01*
X312970Y-160780D01*
X312813Y-161620D01*
X312970Y-162355D01*
X313362Y-163090D01*
X313832Y-163510D01*
X314380Y-163615D01*
X315007Y-163405D01*
X315477Y-162880D01*
X315947Y-161935D01*
G01X320680Y-159520D02*
X320053Y-159730D01*
X319583Y-160255D01*
X319270Y-160885D01*
X319035Y-161725D01*
X318957Y-162670D01*
X319035Y-163615D01*
X319270Y-164455D01*
X319583Y-165085D01*
X320053Y-165610D01*
X320680Y-165820D01*
X321307Y-165610D01*
X321777Y-165085D01*
X322090Y-164455D01*
X322325Y-163615D01*
X322403Y-162670D01*
X322325Y-161725D01*
X322090Y-160885D01*
X321777Y-160255D01*
X321307Y-159730D01*
X320680Y-159520D01*
G01X325257Y-164560D02*
X325727Y-165295D01*
X326353Y-165715D01*
X327058Y-165820D01*
X327685Y-165715D01*
X328312Y-165190D01*
X328703Y-164560D01*
X328782Y-163930D01*
X328625Y-163195D01*
X328077Y-162670D01*
X327528Y-162460D01*
X326823D01*
G01X327528D02*
X327998Y-162145D01*
X328390Y-161620D01*
X328547Y-160990D01*
X328390Y-160360D01*
X327998Y-159835D01*
X327293Y-159520D01*
X326588Y-159625D01*
X325883Y-160045D01*
G01X333280Y-159520D02*
X332653Y-159730D01*
X332183Y-160255D01*
X331870Y-160885D01*
X331635Y-161725D01*
X331557Y-162670D01*
X331635Y-163615D01*
X331870Y-164455D01*
X332183Y-165085D01*
X332653Y-165610D01*
X333280Y-165820D01*
X333907Y-165610D01*
X334377Y-165085D01*
X334690Y-164455D01*
X334925Y-163615D01*
X335003Y-162670D01*
X334925Y-161725D01*
X334690Y-160885D01*
X334377Y-160255D01*
X333907Y-159730D01*
X333280Y-159520D01*
G01X344313Y-165820D02*
Y-159520D01*
X346272D01*
X346898Y-159835D01*
X347290Y-160255D01*
X347447Y-161095D01*
X347290Y-161935D01*
X346820Y-162460D01*
X346272Y-162775D01*
X344313D01*
G01X346272D02*
X347447Y-165820D01*
G01X353747D02*
X350613D01*
Y-159520D01*
X353747D01*
G01X352493Y-162565D02*
X350613D01*
G01X356522Y-159520D02*
X358480Y-165820D01*
X360438Y-159520D01*
G01X371707Y-162460D02*
X372020Y-162145D01*
X372255Y-161620D01*
X372412Y-160885D01*
X372255Y-160255D01*
X371942Y-159835D01*
X371393Y-159520D01*
X369278D01*
Y-165820D01*
X371863D01*
X372412Y-165400D01*
X372725Y-164770D01*
X372882Y-164035D01*
X372725Y-163300D01*
X372255Y-162670D01*
X371707Y-162460D01*
X369278D01*
M02*
