G04 ================== begin FILE IDENTIFICATION RECORD ==================*
G04 Layout Name:  LAY-29030.brd*
G04 Film Name:    L4_INT_2*
G04 File Format:  Gerber RS274X*
G04 File Origin:  Cadence Allegro 16.6-2015-S065*
G04 Origin Date:  Mon Jun 27 10:01:04 2016*
G04 *
G04 Layer:  VIA CLASS/L4_INT_2*
G04 Layer:  PIN/L4_INT_2*
G04 Layer:  ETCH/L4_INT_2*
G04 Layer:  DRAWING FORMAT/FILM_TITLE_BLOCK*
G04 Layer:  BOARD GEOMETRY/OUTLINE*
G04 *
G04 Offset:    (0.00 0.00)*
G04 Mirror:    No*
G04 Mode:      Positive*
G04 Rotation:  0*
G04 FullContactRelief:  No*
G04 UndefLineWidth:     0.00*
G04 ================== end FILE IDENTIFICATION RECORD ====================*
%FSLAX55Y55*MOIN*%
%IR0*IPPOS*OFA0.00000B0.00000*MIA0B0*SFA1.00000B1.00000*%
%ADD10C,.01*%
%ADD11C,.02*%
%ADD12C,.03*%
%ADD13C,.06*%
%ADD14C,.065*%
%ADD15C,.066*%
%ADD16C,.015*%
%ADD17C,.006*%
%ADD18C,.0055*%
%ADD19C,.03104*%
%ADD21C,.06104*%
%ADD20C,.03904*%
G75*
%LPD*%
G75*
G36*
G01X152110Y-32820D02*
X151240Y-31950D01*
Y10860D01*
X150140Y11960D01*
X84365D01*
G03X81375I-1495J-2190D01*
G01X70979D01*
G03X67989I-1495J-2190D01*
G01X61977D01*
X61946Y12174D01*
G03X58874I-1536J-224D01*
G01X58843Y11960D01*
X56467D01*
X56436Y12174D01*
G03X53364I-1536J-224D01*
G01X53333Y11960D01*
X50507D01*
G03X47517I-1495J-2190D01*
G01X46170D01*
X45840Y11630D01*
Y-15271D01*
G02X45360Y-15771I-500J0D01*
G03X43019Y-17406I109J-2649D01*
G01X42955Y-17560D01*
X24030D01*
Y25060D01*
X43420Y44450D01*
X125457D01*
G02X125840Y43629I0J-500D01*
G03X130440I2300J-1929D01*
G02X130823Y44450I383J321D01*
G01X134532D01*
G02X134956Y43685I0J-500D01*
G03X141324I3184J-1985D01*
G02X141748Y44450I424J265D01*
G01X145457D01*
G02X145840Y43629I0J-500D01*
G03X150513Y39861I2300J-1929D01*
G02X151262Y39908I395J-306D01*
G01X171610Y19560D01*
Y1517D01*
G02X170779Y1142I-500J0D01*
G03Y-1182I-1029J-1162D01*
G02X171610Y-1557I331J-375D01*
G01Y-2913D01*
G02X170805Y-3309I-500J0D01*
G03Y-5771I-945J-1231D01*
G02X171610Y-6167I305J-396D01*
G01Y-15310D01*
X172090D01*
X172112Y-15536D01*
G03X178188I3038J296D01*
G01X178210Y-15310D01*
X182090D01*
X182112Y-15536D01*
G03X188188I3038J296D01*
G01X188210Y-15310D01*
X191042D01*
X191059Y-15542D01*
G03X199241I4091J302D01*
G01X199258Y-15310D01*
X202090D01*
X202112Y-15536D01*
G03X208188I3038J296D01*
G01X208210Y-15310D01*
X211342D01*
X211360Y-15540D01*
G03X218940I3790J300D01*
G01X218958Y-15310D01*
X222090D01*
X222112Y-15536D01*
G03X227098Y-17589I3038J296D01*
G01X227274Y-17444D01*
X232205Y-22375D01*
X232052Y-22551D01*
G03X238618Y-27430I3098J-2689D01*
G01X241682D01*
G03X248618I3468J2190D01*
G01X263024D01*
G03X267276I2126J2190D01*
G01X271682D01*
G03X278618I3468J2190D01*
G01X281682D01*
G03X288618I3468J2190D01*
G01X291682D01*
G03X298618I3468J2190D01*
G01X301682D01*
G03X308618I3468J2190D01*
G01X311682D01*
G03X318618I3468J2190D01*
G01X321682D01*
G03X328618I3468J2190D01*
G01X331682D01*
G03X338618I3468J2190D01*
G01X351682D01*
G03X358618I3468J2190D01*
G01X361682D01*
G03X368618I3468J2190D01*
G01X371682D01*
G03X378618I3468J2190D01*
G01X381682D01*
G03X388618I3468J2190D01*
G01X393024D01*
G03X397276I2126J2190D01*
G01X403024D01*
G03X407276I2126J2190D01*
G01X413024D01*
G03X414858Y-22202I2126J2190D01*
G02X414310Y-21704I-48J498D01*
G01Y-18776D01*
G02X414858Y-18278I500J0D01*
G03Y-12202I292J3038D01*
G02X414310Y-11704I-48J498D01*
G01Y12990D01*
X433450Y32130D01*
Y65270D01*
X445910D01*
X447878Y63302D01*
Y56305D01*
X448820Y55364D01*
Y23980D01*
X447554Y22714D01*
X447454Y22712D01*
G03X445938Y21196I36J-1552D01*
G01X445936Y21096D01*
X436400Y11560D01*
Y-11768D01*
G02X435794Y-12257I-500J0D01*
G03Y-18223I-644J-2983D01*
G02X436400Y-18712I106J-489D01*
G01Y-21768D01*
G02X435794Y-22257I-500J0D01*
G03Y-28223I-644J-2983D01*
G02X436400Y-28712I106J-489D01*
G01Y-29070D01*
X432650Y-32820D01*
X152110D01*
G37*
%LPC*%
G75*
G54D19*
X29090Y-9620D03*
X28430Y15130D03*
X32725Y-9620D03*
X41970Y27630D03*
X60410Y17460D03*
X54870D03*
X42030Y33230D03*
X51310Y42270D03*
X56820D03*
Y36760D03*
X51310D03*
X116050Y27590D03*
X99930Y39260D03*
X105440D03*
X110960D03*
X113710Y42020D03*
X108200D03*
X102680D03*
X97140Y42110D03*
X126680Y24810D03*
X160890Y-24100D03*
X431665Y3815D03*
Y24995D03*
Y18085D03*
Y10885D03*
G54D21*
X175150Y-25240D03*
X195150D03*
X185150D03*
X225150D03*
X215150D03*
X205150D03*
X425150D03*
Y-15240D03*
G54D20*
X92397Y19030D03*
%LPD*%
G75*
G54D10*
G01X19530Y-150820D02*
X419530D01*
G01X19530Y-120820D02*
Y-100820D01*
X419530D01*
G01X69530Y-170820D02*
Y-150820D01*
G01X195030Y-170820D02*
Y-150820D01*
G01X194530Y-100820D02*
Y-70820D01*
G01X244530Y-170820D02*
Y-150820D01*
X22619Y56330D03*
Y101330D03*
X69878Y-18983D03*
X100150Y-15240D03*
X125150Y174760D03*
X440150Y173990D03*
X465150Y-15580D03*
G54D11*
G01X419530Y-70820D02*
Y-170820D01*
X19530D01*
G01D02*
Y-70820D01*
X419530D01*
X36430Y-14080D03*
X62540Y118630D03*
X85960Y160930D03*
X65230Y188772D03*
X90720Y75590D03*
X90774Y68474D03*
X108339Y70959D03*
X90550Y72344D03*
X93930Y93930D03*
X93830Y98110D03*
X100860Y128730D03*
X107520Y124730D03*
X93930Y154930D03*
X91540Y164960D03*
X101817Y154513D03*
X120961Y67790D03*
Y108019D03*
X144520Y127830D03*
Y155603D03*
X144490Y159639D03*
X129750Y145640D03*
X167460Y-23950D03*
X163990Y-26500D03*
X163840Y-20920D03*
X165640Y29040D03*
X164365Y39405D03*
X154880Y53070D03*
X148880Y59644D03*
X154690Y56820D03*
X164950Y120690D03*
X162290Y156740D03*
X200710Y42800D03*
X174510Y38790D03*
X194710Y64820D03*
X193490Y92920D03*
X182810Y104350D03*
X180790Y127130D03*
X186830Y151280D03*
X211140Y27330D03*
X217200Y42800D03*
X206710D03*
X226400Y90157D03*
X214420Y115230D03*
X212880Y142171D03*
X221670Y120840D03*
Y138190D03*
X257990Y34300D03*
X255930Y42913D03*
X253620Y40944D03*
X241600Y67320D03*
X235570Y88030D03*
X240940Y105890D03*
X256309Y134480D03*
X243090Y121653D03*
X237080Y119684D03*
X253940Y168790D03*
X243090Y169040D03*
X237080Y151530D03*
X250400Y179310D03*
X268120Y2550D03*
X279410Y45030D03*
X283650Y52060D03*
X277790Y49330D03*
X270330Y56320D03*
X267025Y46470D03*
X259360Y45210D03*
X286050Y47480D03*
X268120Y34710D03*
X282630Y84760D03*
X270450Y74409D03*
X277250Y80314D03*
X274930Y78346D03*
X268080Y62600D03*
X263280Y71640D03*
X260940Y65480D03*
X258710Y69270D03*
X280900Y63370D03*
X260700Y113779D03*
X271400Y98020D03*
X258510Y98031D03*
X267900Y98020D03*
X262860Y97940D03*
X281730Y114560D03*
X269190Y163450D03*
X260600Y187630D03*
X267530Y179640D03*
X293415Y23825D03*
X297648Y36450D03*
X310230Y41370D03*
X312210Y38810D03*
X301580Y49880D03*
X289774Y38890D03*
X311490Y98000D03*
X305100Y98070D03*
X313140Y149900D03*
X299040Y164030D03*
X325207Y-2990D03*
X325905Y-7145D03*
X321270Y34350D03*
X340630Y38100D03*
X319390Y42690D03*
X319301Y38371D03*
X315033Y82283D03*
X316220Y141560D03*
X327520Y168190D03*
X329890Y155550D03*
X325370Y174750D03*
X359840Y-21000D03*
X348750Y-13350D03*
X351390Y-9700D03*
X368190Y28320D03*
X369240Y46020D03*
X343571Y58661D03*
X365150Y71390D03*
X354452Y82308D03*
X358940Y71360D03*
X354750Y86260D03*
X354480Y109830D03*
X360000Y93200D03*
X355320Y143570D03*
X350540Y149900D03*
X388220Y17000D03*
X380310Y39355D03*
X391530Y37520D03*
X392210Y54150D03*
X371970Y61450D03*
X388930Y96920D03*
X374530Y102570D03*
X384820Y132060D03*
X395510Y145850D03*
X412010Y28748D03*
Y21704D03*
Y7616D03*
X407080Y56960D03*
X412640Y49880D03*
X427320Y53380D03*
X412010Y42836D03*
Y35792D03*
X414310Y115620D03*
X410030Y113660D03*
X420770Y125090D03*
X399230Y138990D03*
X412770Y148850D03*
X440430Y-29570D03*
X443842Y8272D03*
X453800Y15150D03*
X442490Y55750D03*
X446450Y53100D03*
X446460Y58390D03*
X449155Y78190D03*
X442490Y61030D03*
X446380Y63670D03*
X452330Y75430D03*
X438000Y74590D03*
X441310Y90790D03*
X444590Y111770D03*
X442930Y134530D03*
X446870Y158990D03*
G54D12*
G01X100860Y128730D02*
X102982Y130852D01*
X103046D01*
X108026Y135832D01*
Y156444D01*
X95940Y168530D01*
X85340D01*
X83218Y166408D01*
Y162166D01*
X84454Y160930D01*
X85960D01*
X41460Y19970D03*
X169640Y17640D03*
G54D13*
X113600Y123100D03*
G54D14*
X138140Y41700D03*
G54D15*
X139150Y184760D03*
X149150D03*
X159150D03*
X169150D03*
X195150Y-15240D03*
X189150Y174760D03*
X199150D03*
X179150D03*
X199150Y184760D03*
X179150D03*
X189150D03*
X215150Y-15240D03*
X219150Y174760D03*
X229150D03*
X209150Y184760D03*
X219150D03*
X229150D03*
X245150Y-25240D03*
X235150D03*
X245150Y174760D03*
X255150D03*
X245150Y184760D03*
X255150D03*
X285150Y-25240D03*
X275150D03*
X285150Y-15240D03*
X265150D03*
Y174760D03*
X275150D03*
X285150D03*
X265150Y184760D03*
X275150D03*
X285150D03*
X315150Y-25240D03*
X305150D03*
X295150D03*
X305150Y-15240D03*
X295150D03*
Y174760D03*
Y184760D03*
X335150Y-25240D03*
X325150D03*
X335150Y-15240D03*
X345150Y174760D03*
X335150Y184760D03*
X365150Y-25240D03*
X355150D03*
X365150Y-15240D03*
X355150D03*
X365150Y174760D03*
X355150Y184760D03*
X365150D03*
X385150Y-25240D03*
X375150D03*
X395150Y-15240D03*
X385150D03*
X375150D03*
X395150Y174760D03*
Y184760D03*
X405150Y-15240D03*
Y184760D03*
G54D16*
G01X93930Y154930D02*
X101400D01*
X101817Y154513D01*
G01X138140Y41700D02*
X141220Y38620D01*
G01X135060D02*
X138140Y41700D01*
G01D02*
X142142D01*
G01X134138D02*
X138140D01*
G01Y37698D02*
Y41700D01*
G01X215150Y-15240D02*
X218265Y-18355D01*
G01X212035D02*
X215150Y-15240D01*
G01Y-19292D02*
Y-15240D01*
G54D17*
G01X24853Y-166360D02*
X25010Y-165060D01*
X25245Y-163960D01*
X25558Y-162960D01*
X25950Y-161860D01*
X26577Y-160360D01*
X23443D01*
G01X37610Y-166360D02*
X36983Y-166260D01*
X36435Y-165860D01*
X35965Y-165260D01*
X35652Y-164560D01*
X35495Y-163760D01*
Y-162960D01*
X35652Y-162160D01*
X35965Y-161460D01*
X36435Y-160860D01*
X36983Y-160460D01*
X37610Y-160360D01*
X38237Y-160460D01*
X38785Y-160860D01*
X39255Y-161460D01*
X39568Y-162160D01*
X39725Y-162960D01*
Y-163760D01*
X39568Y-164560D01*
X39255Y-165260D01*
X38785Y-165860D01*
X38237Y-166260D01*
X37610Y-166360D01*
G01X42422D02*
Y-160360D01*
X45398D01*
G01X44302Y-163260D02*
X42422D01*
G01X56510Y-166360D02*
Y-160360D01*
X55570Y-161560D01*
G01Y-166360D02*
X57450D01*
G01X61322Y-161360D02*
X61792Y-160760D01*
X62340Y-160460D01*
X62967Y-160360D01*
X63750Y-160560D01*
X64298Y-161060D01*
X64455Y-161660D01*
X64377Y-162260D01*
X64063Y-162760D01*
X62497Y-163760D01*
X61792Y-164460D01*
X61322Y-165460D01*
X61165Y-166360D01*
X64455D01*
G01X30938Y-147820D02*
Y-143820D01*
X33622Y-147820D01*
Y-143820D01*
G01X35855Y-147820D02*
X38305Y-143820D01*
G01X35855D02*
X38305Y-147820D01*
G01X40713D02*
Y-143820D01*
X42113D01*
X42580Y-144020D01*
X42930Y-144487D01*
X43047Y-145020D01*
X42930Y-145553D01*
X42638Y-145953D01*
X42113Y-146153D01*
X40713D01*
G01X46680Y-147953D02*
X46563Y-147887D01*
Y-147753D01*
X46680Y-147687D01*
X46797Y-147753D01*
Y-147887D01*
X46680Y-147953D01*
G01X31280Y-139820D02*
X30813Y-139753D01*
X30405Y-139487D01*
X30055Y-139087D01*
X29822Y-138620D01*
X29705Y-138087D01*
Y-137553D01*
X29822Y-137020D01*
X30055Y-136553D01*
X30405Y-136153D01*
X30813Y-135887D01*
X31280Y-135820D01*
X31747Y-135887D01*
X32155Y-136153D01*
X32505Y-136553D01*
X32738Y-137020D01*
X32855Y-137553D01*
Y-138087D01*
X32738Y-138620D01*
X32505Y-139087D01*
X32155Y-139487D01*
X31747Y-139753D01*
X31280Y-139820D01*
G01X34913D02*
Y-135820D01*
X36372D01*
X36838Y-136020D01*
X37130Y-136287D01*
X37247Y-136820D01*
X37130Y-137353D01*
X36780Y-137687D01*
X36372Y-137887D01*
X34913D01*
G01X36372D02*
X37247Y-139820D01*
G01X44980Y-135820D02*
X46380D01*
G01X45680D02*
Y-139820D01*
G01X44980D02*
X46380D01*
G01X49138D02*
Y-135820D01*
X51822Y-139820D01*
Y-135820D01*
G01X58913Y-139820D02*
Y-135820D01*
X60313D01*
X60780Y-136020D01*
X61130Y-136487D01*
X61247Y-137020D01*
X61130Y-137553D01*
X60838Y-137953D01*
X60313Y-138153D01*
X58913D01*
G01X63422Y-139820D02*
X64880Y-135820D01*
X66338Y-139820D01*
G01X65813Y-138420D02*
X63947D01*
G01X68513Y-139820D02*
Y-135820D01*
X69972D01*
X70438Y-136020D01*
X70730Y-136287D01*
X70847Y-136820D01*
X70730Y-137353D01*
X70380Y-137687D01*
X69972Y-137887D01*
X68513D01*
G01X69972D02*
X70847Y-139820D01*
G01X74480Y-135820D02*
Y-139820D01*
G01X73138Y-135820D02*
X75822D01*
G01X82330D02*
X83147Y-139820D01*
X84080Y-135820D01*
X85013Y-139820D01*
X85830Y-135820D01*
G01X88180D02*
X89580D01*
G01X88880D02*
Y-139820D01*
G01X88180D02*
X89580D01*
G01X93680Y-135820D02*
Y-139820D01*
G01X92338Y-135820D02*
X95022D01*
G01X97255Y-139820D02*
Y-135820D01*
G01X99705D02*
Y-139820D01*
G01Y-137820D02*
X97255D01*
G01X103280Y-139820D02*
X102813Y-139753D01*
X102405Y-139487D01*
X102055Y-139087D01*
X101822Y-138620D01*
X101705Y-138087D01*
Y-137553D01*
X101822Y-137020D01*
X102055Y-136553D01*
X102405Y-136153D01*
X102813Y-135887D01*
X103280Y-135820D01*
X103747Y-135887D01*
X104155Y-136153D01*
X104505Y-136553D01*
X104738Y-137020D01*
X104855Y-137553D01*
Y-138087D01*
X104738Y-138620D01*
X104505Y-139087D01*
X104155Y-139487D01*
X103747Y-139753D01*
X103280Y-139820D01*
G01X106797Y-135820D02*
Y-138687D01*
X107030Y-139287D01*
X107497Y-139687D01*
X108080Y-139820D01*
X108663Y-139687D01*
X109130Y-139287D01*
X109363Y-138687D01*
Y-135820D01*
G01X112880D02*
Y-139820D01*
G01X111538Y-135820D02*
X114222D01*
G01X122480D02*
Y-139820D01*
G01X121138Y-135820D02*
X123822D01*
G01X126055Y-139820D02*
Y-135820D01*
G01X128505D02*
Y-139820D01*
G01Y-137820D02*
X126055D01*
G01X133247Y-139820D02*
X130913D01*
Y-135820D01*
X133247D01*
G01X132313Y-137753D02*
X130913D01*
G01X142963Y-136153D02*
X142613Y-135953D01*
X142205Y-135820D01*
X141738D01*
X141213Y-136020D01*
X140805Y-136353D01*
X140513Y-136753D01*
X140280Y-137420D01*
X140222Y-138020D01*
X140338Y-138620D01*
X140513Y-139020D01*
X140863Y-139420D01*
X141272Y-139687D01*
X141680Y-139820D01*
X142088D01*
X142497Y-139687D01*
X142847Y-139487D01*
X143138Y-139220D01*
G01X146480Y-139820D02*
X146013Y-139753D01*
X145605Y-139487D01*
X145255Y-139087D01*
X145022Y-138620D01*
X144905Y-138087D01*
Y-137553D01*
X145022Y-137020D01*
X145255Y-136553D01*
X145605Y-136153D01*
X146013Y-135887D01*
X146480Y-135820D01*
X146947Y-135887D01*
X147355Y-136153D01*
X147705Y-136553D01*
X147938Y-137020D01*
X148055Y-137553D01*
Y-138087D01*
X147938Y-138620D01*
X147705Y-139087D01*
X147355Y-139487D01*
X146947Y-139753D01*
X146480Y-139820D01*
G01X149938D02*
Y-135820D01*
X152622Y-139820D01*
Y-135820D01*
G01X154855Y-139287D02*
X155322Y-139620D01*
X155847Y-139820D01*
X156313D01*
X156780Y-139620D01*
X157130Y-139287D01*
X157305Y-138820D01*
X157188Y-138353D01*
X156897Y-137953D01*
X156372Y-137687D01*
X155672Y-137553D01*
X155263Y-137287D01*
X155088Y-136820D01*
X155205Y-136353D01*
X155497Y-136020D01*
X155905Y-135820D01*
X156313D01*
X156722Y-135953D01*
X157072Y-136287D01*
G01X162047Y-139820D02*
X159713D01*
Y-135820D01*
X162047D01*
G01X161113Y-137753D02*
X159713D01*
G01X164338Y-139820D02*
Y-135820D01*
X167022Y-139820D01*
Y-135820D01*
G01X170480D02*
Y-139820D01*
G01X169138Y-135820D02*
X171822D01*
G01X180080Y-139820D02*
X179613Y-139753D01*
X179205Y-139487D01*
X178855Y-139087D01*
X178622Y-138620D01*
X178505Y-138087D01*
Y-137553D01*
X178622Y-137020D01*
X178855Y-136553D01*
X179205Y-136153D01*
X179613Y-135887D01*
X180080Y-135820D01*
X180547Y-135887D01*
X180955Y-136153D01*
X181305Y-136553D01*
X181538Y-137020D01*
X181655Y-137553D01*
Y-138087D01*
X181538Y-138620D01*
X181305Y-139087D01*
X180955Y-139487D01*
X180547Y-139753D01*
X180080Y-139820D01*
G01X183772D02*
Y-135820D01*
X185988D01*
G01X185172Y-137753D02*
X183772D01*
G01X23055Y-158287D02*
X23522Y-158620D01*
X24047Y-158820D01*
X24513D01*
X24980Y-158620D01*
X25330Y-158287D01*
X25505Y-157820D01*
X25388Y-157353D01*
X25097Y-156953D01*
X24572Y-156687D01*
X23872Y-156553D01*
X23463Y-156287D01*
X23288Y-155820D01*
X23405Y-155353D01*
X23697Y-155020D01*
X24105Y-154820D01*
X24513D01*
X24922Y-154953D01*
X25272Y-155287D01*
G01X27855Y-158820D02*
Y-154820D01*
G01X30305D02*
Y-158820D01*
G01Y-156820D02*
X27855D01*
G01X35047Y-158820D02*
X32713D01*
Y-154820D01*
X35047D01*
G01X34113Y-156753D02*
X32713D01*
G01X39847Y-158820D02*
X37513D01*
Y-154820D01*
X39847D01*
G01X38913Y-156753D02*
X37513D01*
G01X43480Y-154820D02*
Y-158820D01*
G01X42138Y-154820D02*
X44822D01*
G01X30113Y-115820D02*
Y-111820D01*
X31513D01*
X31980Y-112020D01*
X32330Y-112487D01*
X32447Y-113020D01*
X32330Y-113553D01*
X32038Y-113953D01*
X31513Y-114153D01*
X30113D01*
G01X34913Y-115820D02*
Y-111820D01*
X36372D01*
X36838Y-112020D01*
X37130Y-112287D01*
X37247Y-112820D01*
X37130Y-113353D01*
X36780Y-113687D01*
X36372Y-113887D01*
X34913D01*
G01X36372D02*
X37247Y-115820D01*
G01X40880D02*
X40413Y-115753D01*
X40005Y-115487D01*
X39655Y-115087D01*
X39422Y-114620D01*
X39305Y-114087D01*
Y-113553D01*
X39422Y-113020D01*
X39655Y-112553D01*
X40005Y-112153D01*
X40413Y-111887D01*
X40880Y-111820D01*
X41347Y-111887D01*
X41755Y-112153D01*
X42105Y-112553D01*
X42338Y-113020D01*
X42455Y-113553D01*
Y-114087D01*
X42338Y-114620D01*
X42105Y-115087D01*
X41755Y-115487D01*
X41347Y-115753D01*
X40880Y-115820D01*
G01X44513D02*
Y-111820D01*
X45913D01*
X46380Y-112020D01*
X46730Y-112487D01*
X46847Y-113020D01*
X46730Y-113553D01*
X46438Y-113953D01*
X45913Y-114153D01*
X44513D01*
G01X49313Y-115820D02*
Y-111820D01*
X50772D01*
X51238Y-112020D01*
X51530Y-112287D01*
X51647Y-112820D01*
X51530Y-113353D01*
X51180Y-113687D01*
X50772Y-113887D01*
X49313D01*
G01X50772D02*
X51647Y-115820D01*
G01X54580Y-111820D02*
X55980D01*
G01X55280D02*
Y-115820D01*
G01X54580D02*
X55980D01*
G01X61247D02*
X58913D01*
Y-111820D01*
X61247D01*
G01X60313Y-113753D02*
X58913D01*
G01X64880Y-111820D02*
Y-115820D01*
G01X63538Y-111820D02*
X66222D01*
G01X68222Y-115820D02*
X69680Y-111820D01*
X71138Y-115820D01*
G01X70613Y-114420D02*
X68747D01*
G01X73313Y-115820D02*
Y-111820D01*
X74772D01*
X75238Y-112020D01*
X75530Y-112287D01*
X75647Y-112820D01*
X75530Y-113353D01*
X75180Y-113687D01*
X74772Y-113887D01*
X73313D01*
G01X74772D02*
X75647Y-115820D01*
G01X79280D02*
Y-114020D01*
X78113Y-111820D01*
G01X80447D02*
X79280Y-114020D01*
G01X88880Y-111820D02*
Y-115820D01*
G01X87538Y-111820D02*
X90222D01*
G01X93680Y-115820D02*
X93213Y-115753D01*
X92805Y-115487D01*
X92455Y-115087D01*
X92222Y-114620D01*
X92105Y-114087D01*
Y-113553D01*
X92222Y-113020D01*
X92455Y-112553D01*
X92805Y-112153D01*
X93213Y-111887D01*
X93680Y-111820D01*
X94147Y-111887D01*
X94555Y-112153D01*
X94905Y-112553D01*
X95138Y-113020D01*
X95255Y-113553D01*
Y-114087D01*
X95138Y-114620D01*
X94905Y-115087D01*
X94555Y-115487D01*
X94147Y-115753D01*
X93680Y-115820D01*
G01X101938D02*
Y-111820D01*
X104622Y-115820D01*
Y-111820D01*
G01X106855Y-115820D02*
X109305Y-111820D01*
G01X106855D02*
X109305Y-115820D01*
G01X111713D02*
Y-111820D01*
X113113D01*
X113580Y-112020D01*
X113930Y-112487D01*
X114047Y-113020D01*
X113930Y-113553D01*
X113638Y-113953D01*
X113113Y-114153D01*
X111713D01*
G01X121022Y-115820D02*
X122480Y-111820D01*
X123938Y-115820D01*
G01X123413Y-114420D02*
X121547D01*
G01X125938Y-115820D02*
Y-111820D01*
X128622Y-115820D01*
Y-111820D01*
G01X130797Y-115820D02*
Y-111820D01*
X131963D01*
X132430Y-112020D01*
X132780Y-112287D01*
X133072Y-112687D01*
X133305Y-113153D01*
X133363Y-113820D01*
X133305Y-114487D01*
X133072Y-114953D01*
X132780Y-115353D01*
X132430Y-115620D01*
X131963Y-115820D01*
X130797D01*
G01X140455Y-115287D02*
X140922Y-115620D01*
X141447Y-115820D01*
X141913D01*
X142380Y-115620D01*
X142730Y-115287D01*
X142905Y-114820D01*
X142788Y-114353D01*
X142497Y-113953D01*
X141972Y-113687D01*
X141272Y-113553D01*
X140863Y-113287D01*
X140688Y-112820D01*
X140805Y-112353D01*
X141097Y-112020D01*
X141505Y-111820D01*
X141913D01*
X142322Y-111953D01*
X142672Y-112287D01*
G01X145255Y-115820D02*
Y-111820D01*
G01X147705D02*
Y-115820D01*
G01Y-113820D02*
X145255D01*
G01X149822Y-115820D02*
X151280Y-111820D01*
X152738Y-115820D01*
G01X152213Y-114420D02*
X150347D01*
G01X154913Y-111820D02*
Y-115820D01*
X157247D01*
G01X159713Y-111820D02*
Y-115820D01*
X162047D01*
G01X30113Y-131820D02*
Y-127820D01*
X31513D01*
X31980Y-128020D01*
X32330Y-128487D01*
X32447Y-129020D01*
X32330Y-129553D01*
X32038Y-129953D01*
X31513Y-130153D01*
X30113D01*
G01X34913Y-131820D02*
Y-127820D01*
X36372D01*
X36838Y-128020D01*
X37130Y-128287D01*
X37247Y-128820D01*
X37130Y-129353D01*
X36780Y-129687D01*
X36372Y-129887D01*
X34913D01*
G01X36372D02*
X37247Y-131820D01*
G01X40880D02*
X40413Y-131753D01*
X40005Y-131487D01*
X39655Y-131087D01*
X39422Y-130620D01*
X39305Y-130087D01*
Y-129553D01*
X39422Y-129020D01*
X39655Y-128553D01*
X40005Y-128153D01*
X40413Y-127887D01*
X40880Y-127820D01*
X41347Y-127887D01*
X41755Y-128153D01*
X42105Y-128553D01*
X42338Y-129020D01*
X42455Y-129553D01*
Y-130087D01*
X42338Y-130620D01*
X42105Y-131087D01*
X41755Y-131487D01*
X41347Y-131753D01*
X40880Y-131820D01*
G01X46963Y-128153D02*
X46613Y-127953D01*
X46205Y-127820D01*
X45738D01*
X45213Y-128020D01*
X44805Y-128353D01*
X44513Y-128753D01*
X44280Y-129420D01*
X44222Y-130020D01*
X44338Y-130620D01*
X44513Y-131020D01*
X44863Y-131420D01*
X45272Y-131687D01*
X45680Y-131820D01*
X46088D01*
X46497Y-131687D01*
X46847Y-131487D01*
X47138Y-131220D01*
G01X49197Y-127820D02*
Y-130687D01*
X49430Y-131287D01*
X49897Y-131687D01*
X50480Y-131820D01*
X51063Y-131687D01*
X51530Y-131287D01*
X51763Y-130687D01*
Y-127820D01*
G01X54113Y-131820D02*
Y-127820D01*
X55572D01*
X56038Y-128020D01*
X56330Y-128287D01*
X56447Y-128820D01*
X56330Y-129353D01*
X55980Y-129687D01*
X55572Y-129887D01*
X54113D01*
G01X55572D02*
X56447Y-131820D01*
G01X61247D02*
X58913D01*
Y-127820D01*
X61247D01*
G01X60313Y-129753D02*
X58913D01*
G01X63363Y-131820D02*
Y-127820D01*
X64880Y-131153D01*
X66397Y-127820D01*
Y-131820D01*
G01X70847D02*
X68513D01*
Y-127820D01*
X70847D01*
G01X69913Y-129753D02*
X68513D01*
G01X73138Y-131820D02*
Y-127820D01*
X75822Y-131820D01*
Y-127820D01*
G01X79280D02*
Y-131820D01*
G01X77938Y-127820D02*
X80622D01*
G01X88880Y-131820D02*
X88413Y-131753D01*
X88005Y-131487D01*
X87655Y-131087D01*
X87422Y-130620D01*
X87305Y-130087D01*
Y-129553D01*
X87422Y-129020D01*
X87655Y-128553D01*
X88005Y-128153D01*
X88413Y-127887D01*
X88880Y-127820D01*
X89347Y-127887D01*
X89755Y-128153D01*
X90105Y-128553D01*
X90338Y-129020D01*
X90455Y-129553D01*
Y-130087D01*
X90338Y-130620D01*
X90105Y-131087D01*
X89755Y-131487D01*
X89347Y-131753D01*
X88880Y-131820D01*
G01X92513D02*
Y-127820D01*
X93972D01*
X94438Y-128020D01*
X94730Y-128287D01*
X94847Y-128820D01*
X94730Y-129353D01*
X94380Y-129687D01*
X93972Y-129887D01*
X92513D01*
G01X93972D02*
X94847Y-131820D01*
G01X101763D02*
Y-127820D01*
X103280Y-131153D01*
X104797Y-127820D01*
Y-131820D01*
G01X106622D02*
X108080Y-127820D01*
X109538Y-131820D01*
G01X109013Y-130420D02*
X107147D01*
G01X111538Y-131820D02*
Y-127820D01*
X114222Y-131820D01*
Y-127820D01*
G01X116397D02*
Y-130687D01*
X116630Y-131287D01*
X117097Y-131687D01*
X117680Y-131820D01*
X118263Y-131687D01*
X118730Y-131287D01*
X118963Y-130687D01*
Y-127820D01*
G01X121372Y-131820D02*
Y-127820D01*
X123588D01*
G01X122772Y-129753D02*
X121372D01*
G01X125822Y-131820D02*
X127280Y-127820D01*
X128738Y-131820D01*
G01X128213Y-130420D02*
X126347D01*
G01X133363Y-128153D02*
X133013Y-127953D01*
X132605Y-127820D01*
X132138D01*
X131613Y-128020D01*
X131205Y-128353D01*
X130913Y-128753D01*
X130680Y-129420D01*
X130622Y-130020D01*
X130738Y-130620D01*
X130913Y-131020D01*
X131263Y-131420D01*
X131672Y-131687D01*
X132080Y-131820D01*
X132488D01*
X132897Y-131687D01*
X133247Y-131487D01*
X133538Y-131220D01*
G01X136880Y-127820D02*
Y-131820D01*
G01X135538Y-127820D02*
X138222D01*
G01X140397D02*
Y-130687D01*
X140630Y-131287D01*
X141097Y-131687D01*
X141680Y-131820D01*
X142263Y-131687D01*
X142730Y-131287D01*
X142963Y-130687D01*
Y-127820D01*
G01X145313Y-131820D02*
Y-127820D01*
X146772D01*
X147238Y-128020D01*
X147530Y-128287D01*
X147647Y-128820D01*
X147530Y-129353D01*
X147180Y-129687D01*
X146772Y-129887D01*
X145313D01*
G01X146772D02*
X147647Y-131820D01*
G01X152447D02*
X150113D01*
Y-127820D01*
X152447D01*
G01X151513Y-129753D02*
X150113D01*
G01X160180Y-127820D02*
X161580D01*
G01X160880D02*
Y-131820D01*
G01X160180D02*
X161580D01*
G01X164338D02*
Y-127820D01*
X167022Y-131820D01*
Y-127820D01*
G01X173530D02*
X174347Y-131820D01*
X175280Y-127820D01*
X176213Y-131820D01*
X177030Y-127820D01*
G01X178855Y-131820D02*
Y-127820D01*
G01X181305D02*
Y-131820D01*
G01Y-129820D02*
X178855D01*
G01X184880Y-131820D02*
X184413Y-131753D01*
X184005Y-131487D01*
X183655Y-131087D01*
X183422Y-130620D01*
X183305Y-130087D01*
Y-129553D01*
X183422Y-129020D01*
X183655Y-128553D01*
X184005Y-128153D01*
X184413Y-127887D01*
X184880Y-127820D01*
X185347Y-127887D01*
X185755Y-128153D01*
X186105Y-128553D01*
X186338Y-129020D01*
X186455Y-129553D01*
Y-130087D01*
X186338Y-130620D01*
X186105Y-131087D01*
X185755Y-131487D01*
X185347Y-131753D01*
X184880Y-131820D01*
G01X188513Y-127820D02*
Y-131820D01*
X190847D01*
G01X195647D02*
X193313D01*
Y-127820D01*
X195647D01*
G01X194713Y-129753D02*
X193313D01*
G01X29938Y-123820D02*
Y-119820D01*
X32622Y-123820D01*
Y-119820D01*
G01X36080Y-123820D02*
X35613Y-123753D01*
X35205Y-123487D01*
X34855Y-123087D01*
X34622Y-122620D01*
X34505Y-122087D01*
Y-121553D01*
X34622Y-121020D01*
X34855Y-120553D01*
X35205Y-120153D01*
X35613Y-119887D01*
X36080Y-119820D01*
X36547Y-119887D01*
X36955Y-120153D01*
X37305Y-120553D01*
X37538Y-121020D01*
X37655Y-121553D01*
Y-122087D01*
X37538Y-122620D01*
X37305Y-123087D01*
X36955Y-123487D01*
X36547Y-123753D01*
X36080Y-123820D01*
G01X40880Y-119820D02*
Y-123820D01*
G01X39538Y-119820D02*
X42222D01*
G01X50947Y-121687D02*
X51180Y-121487D01*
X51355Y-121153D01*
X51472Y-120687D01*
X51355Y-120287D01*
X51122Y-120020D01*
X50713Y-119820D01*
X49138D01*
Y-123820D01*
X51063D01*
X51472Y-123553D01*
X51705Y-123153D01*
X51822Y-122687D01*
X51705Y-122220D01*
X51355Y-121820D01*
X50947Y-121687D01*
X49138D01*
G01X56447Y-123820D02*
X54113D01*
Y-119820D01*
X56447D01*
G01X55513Y-121753D02*
X54113D01*
G01X63597Y-119820D02*
Y-122687D01*
X63830Y-123287D01*
X64297Y-123687D01*
X64880Y-123820D01*
X65463Y-123687D01*
X65930Y-123287D01*
X66163Y-122687D01*
Y-119820D01*
G01X68455Y-123287D02*
X68922Y-123620D01*
X69447Y-123820D01*
X69913D01*
X70380Y-123620D01*
X70730Y-123287D01*
X70905Y-122820D01*
X70788Y-122353D01*
X70497Y-121953D01*
X69972Y-121687D01*
X69272Y-121553D01*
X68863Y-121287D01*
X68688Y-120820D01*
X68805Y-120353D01*
X69097Y-120020D01*
X69505Y-119820D01*
X69913D01*
X70322Y-119953D01*
X70672Y-120287D01*
G01X75647Y-123820D02*
X73313D01*
Y-119820D01*
X75647D01*
G01X74713Y-121753D02*
X73313D01*
G01X77997Y-123820D02*
Y-119820D01*
X79163D01*
X79630Y-120020D01*
X79980Y-120287D01*
X80272Y-120687D01*
X80505Y-121153D01*
X80563Y-121820D01*
X80505Y-122487D01*
X80272Y-122953D01*
X79980Y-123353D01*
X79630Y-123620D01*
X79163Y-123820D01*
X77997D01*
G01X87772D02*
Y-119820D01*
X89988D01*
G01X89172Y-121753D02*
X87772D01*
G01X93680Y-123820D02*
X93213Y-123753D01*
X92805Y-123487D01*
X92455Y-123087D01*
X92222Y-122620D01*
X92105Y-122087D01*
Y-121553D01*
X92222Y-121020D01*
X92455Y-120553D01*
X92805Y-120153D01*
X93213Y-119887D01*
X93680Y-119820D01*
X94147Y-119887D01*
X94555Y-120153D01*
X94905Y-120553D01*
X95138Y-121020D01*
X95255Y-121553D01*
Y-122087D01*
X95138Y-122620D01*
X94905Y-123087D01*
X94555Y-123487D01*
X94147Y-123753D01*
X93680Y-123820D01*
G01X97313D02*
Y-119820D01*
X98772D01*
X99238Y-120020D01*
X99530Y-120287D01*
X99647Y-120820D01*
X99530Y-121353D01*
X99180Y-121687D01*
X98772Y-121887D01*
X97313D01*
G01X98772D02*
X99647Y-123820D01*
G01X109247D02*
X106913D01*
Y-119820D01*
X109247D01*
G01X108313Y-121753D02*
X106913D01*
G01X111538Y-123820D02*
Y-119820D01*
X114222Y-123820D01*
Y-119820D01*
G01X118030Y-121820D02*
X119197D01*
Y-123020D01*
X118847Y-123420D01*
X118438Y-123687D01*
X117855Y-123820D01*
X117272Y-123687D01*
X116863Y-123420D01*
X116513Y-123020D01*
X116280Y-122553D01*
X116163Y-122020D01*
Y-121553D01*
X116280Y-121153D01*
X116513Y-120687D01*
X116863Y-120287D01*
X117213Y-120020D01*
X117680Y-119820D01*
X118088D01*
X118555Y-119953D01*
X118905Y-120220D01*
G01X121780Y-119820D02*
X123180D01*
G01X122480D02*
Y-123820D01*
G01X121780D02*
X123180D01*
G01X125938D02*
Y-119820D01*
X128622Y-123820D01*
Y-119820D01*
G01X133247Y-123820D02*
X130913D01*
Y-119820D01*
X133247D01*
G01X132313Y-121753D02*
X130913D01*
G01X138047Y-123820D02*
X135713D01*
Y-119820D01*
X138047D01*
G01X137113Y-121753D02*
X135713D01*
G01X140513Y-123820D02*
Y-119820D01*
X141972D01*
X142438Y-120020D01*
X142730Y-120287D01*
X142847Y-120820D01*
X142730Y-121353D01*
X142380Y-121687D01*
X141972Y-121887D01*
X140513D01*
G01X141972D02*
X142847Y-123820D01*
G01X145780Y-119820D02*
X147180D01*
G01X146480D02*
Y-123820D01*
G01X145780D02*
X147180D01*
G01X149938D02*
Y-119820D01*
X152622Y-123820D01*
Y-119820D01*
G01X156430Y-121820D02*
X157597D01*
Y-123020D01*
X157247Y-123420D01*
X156838Y-123687D01*
X156255Y-123820D01*
X155672Y-123687D01*
X155263Y-123420D01*
X154913Y-123020D01*
X154680Y-122553D01*
X154563Y-122020D01*
Y-121553D01*
X154680Y-121153D01*
X154913Y-120687D01*
X155263Y-120287D01*
X155613Y-120020D01*
X156080Y-119820D01*
X156488D01*
X156955Y-119953D01*
X157305Y-120220D01*
G01X164397Y-123820D02*
Y-119820D01*
X165563D01*
X166030Y-120020D01*
X166380Y-120287D01*
X166672Y-120687D01*
X166905Y-121153D01*
X166963Y-121820D01*
X166905Y-122487D01*
X166672Y-122953D01*
X166380Y-123353D01*
X166030Y-123620D01*
X165563Y-123820D01*
X164397D01*
G01X171647D02*
X169313D01*
Y-119820D01*
X171647D01*
G01X170713Y-121753D02*
X169313D01*
G01X174055Y-123287D02*
X174522Y-123620D01*
X175047Y-123820D01*
X175513D01*
X175980Y-123620D01*
X176330Y-123287D01*
X176505Y-122820D01*
X176388Y-122353D01*
X176097Y-121953D01*
X175572Y-121687D01*
X174872Y-121553D01*
X174463Y-121287D01*
X174288Y-120820D01*
X174405Y-120353D01*
X174697Y-120020D01*
X175105Y-119820D01*
X175513D01*
X175922Y-119953D01*
X176272Y-120287D01*
G01X179380Y-119820D02*
X180780D01*
G01X180080D02*
Y-123820D01*
G01X179380D02*
X180780D01*
G01X185230Y-121820D02*
X186397D01*
Y-123020D01*
X186047Y-123420D01*
X185638Y-123687D01*
X185055Y-123820D01*
X184472Y-123687D01*
X184063Y-123420D01*
X183713Y-123020D01*
X183480Y-122553D01*
X183363Y-122020D01*
Y-121553D01*
X183480Y-121153D01*
X183713Y-120687D01*
X184063Y-120287D01*
X184413Y-120020D01*
X184880Y-119820D01*
X185288D01*
X185755Y-119953D01*
X186105Y-120220D01*
G01X188338Y-123820D02*
Y-119820D01*
X191022Y-123820D01*
Y-119820D01*
G01X22822Y-97820D02*
X24280Y-93820D01*
X25738Y-97820D01*
G01X25213Y-96420D02*
X23347D01*
G01X27797Y-93820D02*
Y-96687D01*
X28030Y-97287D01*
X28497Y-97687D01*
X29080Y-97820D01*
X29663Y-97687D01*
X30130Y-97287D01*
X30363Y-96687D01*
Y-93820D01*
G01X32655Y-97287D02*
X33122Y-97620D01*
X33647Y-97820D01*
X34113D01*
X34580Y-97620D01*
X34930Y-97287D01*
X35105Y-96820D01*
X34988Y-96353D01*
X34697Y-95953D01*
X34172Y-95687D01*
X33472Y-95553D01*
X33063Y-95287D01*
X32888Y-94820D01*
X33005Y-94353D01*
X33297Y-94020D01*
X33705Y-93820D01*
X34113D01*
X34522Y-93953D01*
X34872Y-94287D01*
G01X38680Y-93820D02*
Y-97820D01*
G01X37338Y-93820D02*
X40022D01*
G01X42780D02*
X44180D01*
G01X43480D02*
Y-97820D01*
G01X42780D02*
X44180D01*
G01X46938D02*
Y-93820D01*
X49622Y-97820D01*
Y-93820D01*
G01X53080Y-97953D02*
X52963Y-97887D01*
Y-97753D01*
X53080Y-97687D01*
X53197Y-97753D01*
Y-97887D01*
X53080Y-97953D01*
G01X62680Y-93820D02*
Y-97820D01*
G01X61338Y-93820D02*
X64022D01*
G01X68647Y-97820D02*
X66313D01*
Y-93820D01*
X68647D01*
G01X67713Y-95753D02*
X66313D01*
G01X71055Y-97820D02*
X73505Y-93820D01*
G01X71055D02*
X73505Y-97820D01*
G01X75622D02*
X77080Y-93820D01*
X78538Y-97820D01*
G01X78013Y-96420D02*
X76147D01*
G01X80655Y-97287D02*
X81122Y-97620D01*
X81647Y-97820D01*
X82113D01*
X82580Y-97620D01*
X82930Y-97287D01*
X83105Y-96820D01*
X82988Y-96353D01*
X82697Y-95953D01*
X82172Y-95687D01*
X81472Y-95553D01*
X81063Y-95287D01*
X80888Y-94820D01*
X81005Y-94353D01*
X81297Y-94020D01*
X81705Y-93820D01*
X82113D01*
X82522Y-93953D01*
X82872Y-94287D01*
G01X91363Y-97820D02*
X91480Y-96953D01*
X91655Y-96220D01*
X91888Y-95553D01*
X92180Y-94820D01*
X92647Y-93820D01*
X90313D01*
G01X96280Y-97820D02*
X96688Y-97753D01*
X97155Y-97553D01*
X97447Y-97220D01*
X97563Y-96753D01*
X97447Y-96287D01*
X97097Y-95887D01*
X96572Y-95687D01*
X95988D01*
X95638Y-95553D01*
X95347Y-95220D01*
X95230Y-94753D01*
X95405Y-94287D01*
X95813Y-93953D01*
X96280Y-93820D01*
X96747Y-93953D01*
X97155Y-94287D01*
X97330Y-94753D01*
X97213Y-95220D01*
X96922Y-95553D01*
X96572Y-95687D01*
X95988D01*
X95463Y-95887D01*
X95113Y-96287D01*
X94997Y-96753D01*
X95113Y-97220D01*
X95405Y-97553D01*
X95872Y-97753D01*
X96280Y-97820D01*
G01X100963D02*
X101080Y-96953D01*
X101255Y-96220D01*
X101488Y-95553D01*
X101780Y-94820D01*
X102247Y-93820D01*
X99913D01*
G01X104597Y-97020D02*
X104947Y-97487D01*
X105413Y-97753D01*
X105938Y-97820D01*
X106405Y-97753D01*
X106872Y-97420D01*
X107163Y-97020D01*
X107222Y-96620D01*
X107105Y-96153D01*
X106697Y-95820D01*
X106288Y-95687D01*
X105763D01*
G01X106288D02*
X106638Y-95487D01*
X106930Y-95153D01*
X107047Y-94753D01*
X106930Y-94353D01*
X106638Y-94020D01*
X106113Y-93820D01*
X105588Y-93887D01*
X105063Y-94153D01*
G01X109397Y-97220D02*
X109747Y-97553D01*
X110155Y-97753D01*
X110680Y-97820D01*
X111205Y-97687D01*
X111613Y-97420D01*
X111905Y-96953D01*
X111963Y-96420D01*
X111847Y-95887D01*
X111555Y-95553D01*
X111147Y-95287D01*
X110738Y-95220D01*
X110330Y-95287D01*
X109805Y-95553D01*
X109980Y-93820D01*
X111555D01*
G01X118997D02*
Y-96687D01*
X119230Y-97287D01*
X119697Y-97687D01*
X120280Y-97820D01*
X120863Y-97687D01*
X121330Y-97287D01*
X121563Y-96687D01*
Y-93820D01*
G01X123855Y-97287D02*
X124322Y-97620D01*
X124847Y-97820D01*
X125313D01*
X125780Y-97620D01*
X126130Y-97287D01*
X126305Y-96820D01*
X126188Y-96353D01*
X125897Y-95953D01*
X125372Y-95687D01*
X124672Y-95553D01*
X124263Y-95287D01*
X124088Y-94820D01*
X124205Y-94353D01*
X124497Y-94020D01*
X124905Y-93820D01*
X125313D01*
X125722Y-93953D01*
X126072Y-94287D01*
G01X128422Y-97820D02*
X129880Y-93820D01*
X131338Y-97820D01*
G01X130813Y-96420D02*
X128947D01*
G01X23172Y-89153D02*
X23580Y-88687D01*
X23930Y-88420D01*
X24397Y-88287D01*
X24805Y-88420D01*
X25097Y-88687D01*
X25330Y-89087D01*
X25388Y-89553D01*
X25330Y-89953D01*
X25097Y-90353D01*
X24747Y-90687D01*
X24338Y-90820D01*
X23872Y-90687D01*
X23463Y-90287D01*
X23230Y-89687D01*
X23172Y-89020D01*
X23288Y-88153D01*
X23463Y-87687D01*
X23755Y-87220D01*
X24163Y-86887D01*
X24572Y-86820D01*
X24980Y-86953D01*
X25272Y-87287D01*
G01X27797Y-90220D02*
X28147Y-90553D01*
X28555Y-90753D01*
X29080Y-90820D01*
X29605Y-90687D01*
X30013Y-90420D01*
X30305Y-89953D01*
X30363Y-89420D01*
X30247Y-88887D01*
X29955Y-88553D01*
X29547Y-88287D01*
X29138Y-88220D01*
X28730Y-88287D01*
X28205Y-88553D01*
X28380Y-86820D01*
X29955D01*
G01X33880D02*
X33413Y-86953D01*
X33063Y-87287D01*
X32830Y-87687D01*
X32655Y-88220D01*
X32597Y-88820D01*
X32655Y-89420D01*
X32830Y-89953D01*
X33063Y-90353D01*
X33413Y-90687D01*
X33880Y-90820D01*
X34347Y-90687D01*
X34697Y-90353D01*
X34930Y-89953D01*
X35105Y-89420D01*
X35163Y-88820D01*
X35105Y-88220D01*
X34930Y-87687D01*
X34697Y-87287D01*
X34347Y-86953D01*
X33880Y-86820D01*
G01X38680Y-90820D02*
Y-86820D01*
X37980Y-87620D01*
G01Y-90820D02*
X39380D01*
G01X46530Y-86820D02*
X47347Y-90820D01*
X48280Y-86820D01*
X49213Y-90820D01*
X50030Y-86820D01*
G01X52380D02*
X53780D01*
G01X53080D02*
Y-90820D01*
G01X52380D02*
X53780D01*
G01X56713Y-86820D02*
Y-90820D01*
X59047D01*
G01X61513Y-86820D02*
Y-90820D01*
X63847D01*
G01X66780Y-86820D02*
X68180D01*
G01X67480D02*
Y-90820D01*
G01X66780D02*
X68180D01*
G01X70822D02*
X72280Y-86820D01*
X73738Y-90820D01*
G01X73213Y-89420D02*
X71347D01*
G01X75563Y-90820D02*
Y-86820D01*
X77080Y-90153D01*
X78597Y-86820D01*
Y-90820D01*
G01X87963Y-87153D02*
X87613Y-86953D01*
X87205Y-86820D01*
X86738D01*
X86213Y-87020D01*
X85805Y-87353D01*
X85513Y-87753D01*
X85280Y-88420D01*
X85222Y-89020D01*
X85338Y-89620D01*
X85513Y-90020D01*
X85863Y-90420D01*
X86272Y-90687D01*
X86680Y-90820D01*
X87088D01*
X87497Y-90687D01*
X87847Y-90487D01*
X88138Y-90220D01*
G01X90022Y-90820D02*
X91480Y-86820D01*
X92938Y-90820D01*
G01X92413Y-89420D02*
X90547D01*
G01X94938Y-90820D02*
Y-86820D01*
X97622Y-90820D01*
Y-86820D01*
G01X99738Y-90820D02*
Y-86820D01*
X102422Y-90820D01*
Y-86820D01*
G01X105880Y-90820D02*
X105413Y-90753D01*
X105005Y-90487D01*
X104655Y-90087D01*
X104422Y-89620D01*
X104305Y-89087D01*
Y-88553D01*
X104422Y-88020D01*
X104655Y-87553D01*
X105005Y-87153D01*
X105413Y-86887D01*
X105880Y-86820D01*
X106347Y-86887D01*
X106755Y-87153D01*
X107105Y-87553D01*
X107338Y-88020D01*
X107455Y-88553D01*
Y-89087D01*
X107338Y-89620D01*
X107105Y-90087D01*
X106755Y-90487D01*
X106347Y-90753D01*
X105880Y-90820D01*
G01X109338D02*
Y-86820D01*
X112022Y-90820D01*
Y-86820D01*
G01X118997Y-90820D02*
Y-86820D01*
X120163D01*
X120630Y-87020D01*
X120980Y-87287D01*
X121272Y-87687D01*
X121505Y-88153D01*
X121563Y-88820D01*
X121505Y-89487D01*
X121272Y-89953D01*
X120980Y-90353D01*
X120630Y-90620D01*
X120163Y-90820D01*
X118997D01*
G01X123913D02*
Y-86820D01*
X125372D01*
X125838Y-87020D01*
X126130Y-87287D01*
X126247Y-87820D01*
X126130Y-88353D01*
X125780Y-88687D01*
X125372Y-88887D01*
X123913D01*
G01X125372D02*
X126247Y-90820D01*
G01X129180Y-86820D02*
X130580D01*
G01X129880D02*
Y-90820D01*
G01X129180D02*
X130580D01*
G01X133222Y-86820D02*
X134680Y-90820D01*
X136138Y-86820D01*
G01X140647Y-90820D02*
X138313D01*
Y-86820D01*
X140647D01*
G01X139713Y-88753D02*
X138313D01*
G01X147330Y-86820D02*
X148147Y-90820D01*
X149080Y-86820D01*
X150013Y-90820D01*
X150830Y-86820D01*
G01X155047Y-90820D02*
X152713D01*
Y-86820D01*
X155047D01*
G01X154113Y-88753D02*
X152713D01*
G01X157455Y-90287D02*
X157922Y-90620D01*
X158447Y-90820D01*
X158913D01*
X159380Y-90620D01*
X159730Y-90287D01*
X159905Y-89820D01*
X159788Y-89353D01*
X159497Y-88953D01*
X158972Y-88687D01*
X158272Y-88553D01*
X157863Y-88287D01*
X157688Y-87820D01*
X157805Y-87353D01*
X158097Y-87020D01*
X158505Y-86820D01*
X158913D01*
X159322Y-86953D01*
X159672Y-87287D01*
G01X163480Y-86820D02*
Y-90820D01*
G01X162138Y-86820D02*
X164822D01*
G01X30280Y-103820D02*
Y-107820D01*
G01X28938Y-103820D02*
X31622D01*
G01X33855Y-107820D02*
Y-103820D01*
G01X36305D02*
Y-107820D01*
G01Y-105820D02*
X33855D01*
G01X39180Y-103820D02*
X40580D01*
G01X39880D02*
Y-107820D01*
G01X39180D02*
X40580D01*
G01X43455Y-107287D02*
X43922Y-107620D01*
X44447Y-107820D01*
X44913D01*
X45380Y-107620D01*
X45730Y-107287D01*
X45905Y-106820D01*
X45788Y-106353D01*
X45497Y-105953D01*
X44972Y-105687D01*
X44272Y-105553D01*
X43863Y-105287D01*
X43688Y-104820D01*
X43805Y-104353D01*
X44097Y-104020D01*
X44505Y-103820D01*
X44913D01*
X45322Y-103953D01*
X45672Y-104287D01*
G01X52997Y-107820D02*
Y-103820D01*
X54163D01*
X54630Y-104020D01*
X54980Y-104287D01*
X55272Y-104687D01*
X55505Y-105153D01*
X55563Y-105820D01*
X55505Y-106487D01*
X55272Y-106953D01*
X54980Y-107353D01*
X54630Y-107620D01*
X54163Y-107820D01*
X52997D01*
G01X59080D02*
X58613Y-107753D01*
X58205Y-107487D01*
X57855Y-107087D01*
X57622Y-106620D01*
X57505Y-106087D01*
Y-105553D01*
X57622Y-105020D01*
X57855Y-104553D01*
X58205Y-104153D01*
X58613Y-103887D01*
X59080Y-103820D01*
X59547Y-103887D01*
X59955Y-104153D01*
X60305Y-104553D01*
X60538Y-105020D01*
X60655Y-105553D01*
Y-106087D01*
X60538Y-106620D01*
X60305Y-107087D01*
X59955Y-107487D01*
X59547Y-107753D01*
X59080Y-107820D01*
G01X65163Y-104153D02*
X64813Y-103953D01*
X64405Y-103820D01*
X63938D01*
X63413Y-104020D01*
X63005Y-104353D01*
X62713Y-104753D01*
X62480Y-105420D01*
X62422Y-106020D01*
X62538Y-106620D01*
X62713Y-107020D01*
X63063Y-107420D01*
X63472Y-107687D01*
X63880Y-107820D01*
X64288D01*
X64697Y-107687D01*
X65047Y-107487D01*
X65338Y-107220D01*
G01X67397Y-103820D02*
Y-106687D01*
X67630Y-107287D01*
X68097Y-107687D01*
X68680Y-107820D01*
X69263Y-107687D01*
X69730Y-107287D01*
X69963Y-106687D01*
Y-103820D01*
G01X71963Y-107820D02*
Y-103820D01*
X73480Y-107153D01*
X74997Y-103820D01*
Y-107820D01*
G01X79447D02*
X77113D01*
Y-103820D01*
X79447D01*
G01X78513Y-105753D02*
X77113D01*
G01X81738Y-107820D02*
Y-103820D01*
X84422Y-107820D01*
Y-103820D01*
G01X87880D02*
Y-107820D01*
G01X86538Y-103820D02*
X89222D01*
G01X98763Y-104153D02*
X98413Y-103953D01*
X98005Y-103820D01*
X97538D01*
X97013Y-104020D01*
X96605Y-104353D01*
X96313Y-104753D01*
X96080Y-105420D01*
X96022Y-106020D01*
X96138Y-106620D01*
X96313Y-107020D01*
X96663Y-107420D01*
X97072Y-107687D01*
X97480Y-107820D01*
X97888D01*
X98297Y-107687D01*
X98647Y-107487D01*
X98938Y-107220D01*
G01X102280Y-107820D02*
X101813Y-107753D01*
X101405Y-107487D01*
X101055Y-107087D01*
X100822Y-106620D01*
X100705Y-106087D01*
Y-105553D01*
X100822Y-105020D01*
X101055Y-104553D01*
X101405Y-104153D01*
X101813Y-103887D01*
X102280Y-103820D01*
X102747Y-103887D01*
X103155Y-104153D01*
X103505Y-104553D01*
X103738Y-105020D01*
X103855Y-105553D01*
Y-106087D01*
X103738Y-106620D01*
X103505Y-107087D01*
X103155Y-107487D01*
X102747Y-107753D01*
X102280Y-107820D01*
G01X105738D02*
Y-103820D01*
X108422Y-107820D01*
Y-103820D01*
G01X111880D02*
Y-107820D01*
G01X110538Y-103820D02*
X113222D01*
G01X115222Y-107820D02*
X116680Y-103820D01*
X118138Y-107820D01*
G01X117613Y-106420D02*
X115747D01*
G01X120780Y-103820D02*
X122180D01*
G01X121480D02*
Y-107820D01*
G01X120780D02*
X122180D01*
G01X124938D02*
Y-103820D01*
X127622Y-107820D01*
Y-103820D01*
G01X129855Y-107287D02*
X130322Y-107620D01*
X130847Y-107820D01*
X131313D01*
X131780Y-107620D01*
X132130Y-107287D01*
X132305Y-106820D01*
X132188Y-106353D01*
X131897Y-105953D01*
X131372Y-105687D01*
X130672Y-105553D01*
X130263Y-105287D01*
X130088Y-104820D01*
X130205Y-104353D01*
X130497Y-104020D01*
X130905Y-103820D01*
X131313D01*
X131722Y-103953D01*
X132072Y-104287D01*
G01X139980Y-103820D02*
X141380D01*
G01X140680D02*
Y-107820D01*
G01X139980D02*
X141380D01*
G01X144138D02*
Y-103820D01*
X146822Y-107820D01*
Y-103820D01*
G01X149172Y-107820D02*
Y-103820D01*
X151388D01*
G01X150572Y-105753D02*
X149172D01*
G01X155080Y-107820D02*
X154613Y-107753D01*
X154205Y-107487D01*
X153855Y-107087D01*
X153622Y-106620D01*
X153505Y-106087D01*
Y-105553D01*
X153622Y-105020D01*
X153855Y-104553D01*
X154205Y-104153D01*
X154613Y-103887D01*
X155080Y-103820D01*
X155547Y-103887D01*
X155955Y-104153D01*
X156305Y-104553D01*
X156538Y-105020D01*
X156655Y-105553D01*
Y-106087D01*
X156538Y-106620D01*
X156305Y-107087D01*
X155955Y-107487D01*
X155547Y-107753D01*
X155080Y-107820D01*
G01X158713D02*
Y-103820D01*
X160172D01*
X160638Y-104020D01*
X160930Y-104287D01*
X161047Y-104820D01*
X160930Y-105353D01*
X160580Y-105687D01*
X160172Y-105887D01*
X158713D01*
G01X160172D02*
X161047Y-107820D01*
G01X163163D02*
Y-103820D01*
X164680Y-107153D01*
X166197Y-103820D01*
Y-107820D01*
G01X168022D02*
X169480Y-103820D01*
X170938Y-107820D01*
G01X170413Y-106420D02*
X168547D01*
G01X174280Y-103820D02*
Y-107820D01*
G01X172938Y-103820D02*
X175622D01*
G01X178380D02*
X179780D01*
G01X179080D02*
Y-107820D01*
G01X178380D02*
X179780D01*
G01X183880D02*
X183413Y-107753D01*
X183005Y-107487D01*
X182655Y-107087D01*
X182422Y-106620D01*
X182305Y-106087D01*
Y-105553D01*
X182422Y-105020D01*
X182655Y-104553D01*
X183005Y-104153D01*
X183413Y-103887D01*
X183880Y-103820D01*
X184347Y-103887D01*
X184755Y-104153D01*
X185105Y-104553D01*
X185338Y-105020D01*
X185455Y-105553D01*
Y-106087D01*
X185338Y-106620D01*
X185105Y-107087D01*
X184755Y-107487D01*
X184347Y-107753D01*
X183880Y-107820D01*
G01X187338D02*
Y-103820D01*
X190022Y-107820D01*
Y-103820D01*
G01X35193Y-83000D02*
Y-75500D01*
X39487Y-83000D01*
Y-75500D01*
G01X42880Y-83000D02*
X46800Y-75500D01*
G01X42880D02*
X46800Y-83000D01*
G01X50473D02*
Y-75500D01*
X52713D01*
X53460Y-75875D01*
X54020Y-76750D01*
X54207Y-77750D01*
X54020Y-78750D01*
X53553Y-79500D01*
X52713Y-79875D01*
X50473D01*
G01X65380Y-82000D02*
X66127Y-82625D01*
X66967Y-83000D01*
X67713D01*
X68460Y-82625D01*
X69020Y-82000D01*
X69300Y-81125D01*
X69113Y-80250D01*
X68647Y-79500D01*
X67807Y-79000D01*
X66687Y-78750D01*
X66033Y-78250D01*
X65753Y-77375D01*
X65940Y-76500D01*
X66407Y-75875D01*
X67060Y-75500D01*
X67713D01*
X68367Y-75750D01*
X68927Y-76375D01*
G01X76707Y-83000D02*
X72973D01*
Y-75500D01*
X76707D01*
G01X75213Y-79125D02*
X72973D01*
G01X79913Y-83000D02*
Y-75500D01*
X82340Y-81750D01*
X84767Y-75500D01*
Y-83000D01*
G01X88720Y-75500D02*
X90960D01*
G01X89840D02*
Y-83000D01*
G01X88720D02*
X90960D01*
G01X99393Y-76125D02*
X98833Y-75750D01*
X98180Y-75500D01*
X97433D01*
X96593Y-75875D01*
X95940Y-76500D01*
X95473Y-77250D01*
X95100Y-78500D01*
X95007Y-79625D01*
X95193Y-80750D01*
X95473Y-81500D01*
X96033Y-82250D01*
X96687Y-82750D01*
X97340Y-83000D01*
X97993D01*
X98647Y-82750D01*
X99207Y-82375D01*
X99673Y-81875D01*
G01X104840Y-83000D02*
X104093Y-82875D01*
X103440Y-82375D01*
X102880Y-81625D01*
X102507Y-80750D01*
X102320Y-79750D01*
Y-78750D01*
X102507Y-77750D01*
X102880Y-76875D01*
X103440Y-76125D01*
X104093Y-75625D01*
X104840Y-75500D01*
X105587Y-75625D01*
X106240Y-76125D01*
X106800Y-76875D01*
X107173Y-77750D01*
X107360Y-78750D01*
Y-79750D01*
X107173Y-80750D01*
X106800Y-81625D01*
X106240Y-82375D01*
X105587Y-82875D01*
X104840Y-83000D01*
G01X110193D02*
Y-75500D01*
X114487Y-83000D01*
Y-75500D01*
G01X117787Y-83000D02*
Y-75500D01*
X119653D01*
X120400Y-75875D01*
X120960Y-76375D01*
X121427Y-77125D01*
X121800Y-78000D01*
X121893Y-79250D01*
X121800Y-80500D01*
X121427Y-81375D01*
X120960Y-82125D01*
X120400Y-82625D01*
X119653Y-83000D01*
X117787D01*
G01X125287Y-75500D02*
Y-80875D01*
X125660Y-82000D01*
X126407Y-82750D01*
X127340Y-83000D01*
X128273Y-82750D01*
X129020Y-82000D01*
X129393Y-80875D01*
Y-75500D01*
G01X136893Y-76125D02*
X136333Y-75750D01*
X135680Y-75500D01*
X134933D01*
X134093Y-75875D01*
X133440Y-76500D01*
X132973Y-77250D01*
X132600Y-78500D01*
X132507Y-79625D01*
X132693Y-80750D01*
X132973Y-81500D01*
X133533Y-82250D01*
X134187Y-82750D01*
X134840Y-83000D01*
X135493D01*
X136147Y-82750D01*
X136707Y-82375D01*
X137173Y-81875D01*
G01X142340Y-75500D02*
Y-83000D01*
G01X140193Y-75500D02*
X144487D01*
G01X149840Y-83000D02*
X149093Y-82875D01*
X148440Y-82375D01*
X147880Y-81625D01*
X147507Y-80750D01*
X147320Y-79750D01*
Y-78750D01*
X147507Y-77750D01*
X147880Y-76875D01*
X148440Y-76125D01*
X149093Y-75625D01*
X149840Y-75500D01*
X150587Y-75625D01*
X151240Y-76125D01*
X151800Y-76875D01*
X152173Y-77750D01*
X152360Y-78750D01*
Y-79750D01*
X152173Y-80750D01*
X151800Y-81625D01*
X151240Y-82375D01*
X150587Y-82875D01*
X149840Y-83000D01*
G01X155473D02*
Y-75500D01*
X157807D01*
X158553Y-75875D01*
X159020Y-76375D01*
X159207Y-77375D01*
X159020Y-78375D01*
X158460Y-79000D01*
X157807Y-79375D01*
X155473D01*
G01X157807D02*
X159207Y-83000D01*
G01X162880Y-82000D02*
X163627Y-82625D01*
X164467Y-83000D01*
X165213D01*
X165960Y-82625D01*
X166520Y-82000D01*
X166800Y-81125D01*
X166613Y-80250D01*
X166147Y-79500D01*
X165307Y-79000D01*
X164187Y-78750D01*
X163533Y-78250D01*
X163253Y-77375D01*
X163440Y-76500D01*
X163907Y-75875D01*
X164560Y-75500D01*
X165213D01*
X165867Y-75750D01*
X166427Y-76375D01*
G01X84330Y-159140D02*
X86210D01*
G01X85270D02*
Y-165140D01*
G01X84330D02*
X86210D01*
G01X89768D02*
Y-159140D01*
X93372Y-165140D01*
Y-159140D01*
G01X97870D02*
Y-165140D01*
G01X96068Y-159140D02*
X99672D01*
G01X105737Y-165140D02*
X102603D01*
Y-159140D01*
X105737D01*
G01X104483Y-162040D02*
X102603D01*
G01X108903Y-165140D02*
Y-159140D01*
X110862D01*
X111488Y-159440D01*
X111880Y-159840D01*
X112037Y-160640D01*
X111880Y-161440D01*
X111410Y-161940D01*
X110862Y-162240D01*
X108903D01*
G01X110862D02*
X112037Y-165140D01*
G01X114968D02*
Y-159140D01*
X118572Y-165140D01*
Y-159140D01*
G01X121112Y-165140D02*
X123070Y-159140D01*
X125028Y-165140D01*
G01X124323Y-163040D02*
X121817D01*
G01X127803Y-159140D02*
Y-165140D01*
X130937D01*
G01X140403Y-159140D02*
Y-165140D01*
X143537D01*
G01X146312D02*
X148270Y-159140D01*
X150228Y-165140D01*
G01X149523Y-163040D02*
X147017D01*
G01X154570Y-165140D02*
Y-162440D01*
X153003Y-159140D01*
G01X156137D02*
X154570Y-162440D01*
G01X162437Y-165140D02*
X159303D01*
Y-159140D01*
X162437D01*
G01X161183Y-162040D02*
X159303D01*
G01X165603Y-165140D02*
Y-159140D01*
X167562D01*
X168188Y-159440D01*
X168580Y-159840D01*
X168737Y-160640D01*
X168580Y-161440D01*
X168110Y-161940D01*
X167562Y-162240D01*
X165603D01*
G01X167562D02*
X168737Y-165140D01*
G01X178282Y-160140D02*
X178752Y-159540D01*
X179300Y-159240D01*
X179927Y-159140D01*
X180710Y-159340D01*
X181258Y-159840D01*
X181415Y-160440D01*
X181337Y-161040D01*
X181023Y-161540D01*
X179457Y-162540D01*
X178752Y-163240D01*
X178282Y-164240D01*
X178125Y-165140D01*
X181415D01*
G01X73172Y-158820D02*
Y-154820D01*
X75388D01*
G01X74572Y-156753D02*
X73172D01*
G01X78380Y-154820D02*
X79780D01*
G01X79080D02*
Y-158820D01*
G01X78380D02*
X79780D01*
G01X82713Y-154820D02*
Y-158820D01*
X85047D01*
G01X87163D02*
Y-154820D01*
X88680Y-158153D01*
X90197Y-154820D01*
Y-158820D01*
G01X201280Y-162820D02*
X200813Y-162953D01*
X200463Y-163287D01*
X200230Y-163687D01*
X200055Y-164220D01*
X199997Y-164820D01*
X200055Y-165420D01*
X200230Y-165953D01*
X200463Y-166353D01*
X200813Y-166687D01*
X201280Y-166820D01*
X201747Y-166687D01*
X202097Y-166353D01*
X202330Y-165953D01*
X202505Y-165420D01*
X202563Y-164820D01*
X202505Y-164220D01*
X202330Y-163687D01*
X202097Y-163287D01*
X201747Y-162953D01*
X201280Y-162820D01*
G01X204972Y-165153D02*
X205380Y-164687D01*
X205730Y-164420D01*
X206197Y-164287D01*
X206605Y-164420D01*
X206897Y-164687D01*
X207130Y-165087D01*
X207188Y-165553D01*
X207130Y-165953D01*
X206897Y-166353D01*
X206547Y-166687D01*
X206138Y-166820D01*
X205672Y-166687D01*
X205263Y-166287D01*
X205030Y-165687D01*
X204972Y-165020D01*
X205088Y-164153D01*
X205263Y-163687D01*
X205555Y-163220D01*
X205963Y-162887D01*
X206372Y-162820D01*
X206780Y-162953D01*
X207072Y-163287D01*
G01X210122Y-165487D02*
X211638D01*
G01X214572Y-163487D02*
X214922Y-163087D01*
X215330Y-162887D01*
X215797Y-162820D01*
X216380Y-162953D01*
X216788Y-163287D01*
X216905Y-163687D01*
X216847Y-164087D01*
X216613Y-164420D01*
X215447Y-165087D01*
X214922Y-165553D01*
X214572Y-166220D01*
X214455Y-166820D01*
X216905D01*
G01X219197Y-166020D02*
X219547Y-166487D01*
X220013Y-166753D01*
X220538Y-166820D01*
X221005Y-166753D01*
X221472Y-166420D01*
X221763Y-166020D01*
X221822Y-165620D01*
X221705Y-165153D01*
X221297Y-164820D01*
X220888Y-164687D01*
X220363D01*
G01X220888D02*
X221238Y-164487D01*
X221530Y-164153D01*
X221647Y-163753D01*
X221530Y-163353D01*
X221238Y-163020D01*
X220713Y-162820D01*
X220188Y-162887D01*
X219663Y-163153D01*
G01X224522Y-165487D02*
X226038D01*
G01X230080Y-166820D02*
Y-162820D01*
X229380Y-163620D01*
G01Y-166820D02*
X230780D01*
G01X233772Y-165153D02*
X234180Y-164687D01*
X234530Y-164420D01*
X234997Y-164287D01*
X235405Y-164420D01*
X235697Y-164687D01*
X235930Y-165087D01*
X235988Y-165553D01*
X235930Y-165953D01*
X235697Y-166353D01*
X235347Y-166687D01*
X234938Y-166820D01*
X234472Y-166687D01*
X234063Y-166287D01*
X233830Y-165687D01*
X233772Y-165020D01*
X233888Y-164153D01*
X234063Y-163687D01*
X234355Y-163220D01*
X234763Y-162887D01*
X235172Y-162820D01*
X235580Y-162953D01*
X235872Y-163287D01*
G01X197997Y-158820D02*
Y-154820D01*
X199163D01*
X199630Y-155020D01*
X199980Y-155287D01*
X200272Y-155687D01*
X200505Y-156153D01*
X200563Y-156820D01*
X200505Y-157487D01*
X200272Y-157953D01*
X199980Y-158353D01*
X199630Y-158620D01*
X199163Y-158820D01*
X197997D01*
G01X202622D02*
X204080Y-154820D01*
X205538Y-158820D01*
G01X205013Y-157420D02*
X203147D01*
G01X208880Y-154820D02*
Y-158820D01*
G01X207538Y-154820D02*
X210222D01*
G01X214847Y-158820D02*
X212513D01*
Y-154820D01*
X214847D01*
G01X213913Y-156753D02*
X212513D01*
G01X197938Y-78820D02*
Y-74820D01*
X200622Y-78820D01*
Y-74820D01*
G01X202622Y-78820D02*
X204080Y-74820D01*
X205538Y-78820D01*
G01X205013Y-77420D02*
X203147D01*
G01X207363Y-78820D02*
Y-74820D01*
X208880Y-78153D01*
X210397Y-74820D01*
Y-78820D01*
G01X214847D02*
X212513D01*
Y-74820D01*
X214847D01*
G01X213913Y-76753D02*
X212513D01*
G01X207530Y-144653D02*
X211030D01*
G01X212330D02*
X215830D01*
G01X217130D02*
X220630D01*
G01X227138Y-143320D02*
Y-139320D01*
X229822Y-143320D01*
Y-139320D01*
G01X234563Y-139653D02*
X234213Y-139453D01*
X233805Y-139320D01*
X233338D01*
X232813Y-139520D01*
X232405Y-139853D01*
X232113Y-140253D01*
X231880Y-140920D01*
X231822Y-141520D01*
X231938Y-142120D01*
X232113Y-142520D01*
X232463Y-142920D01*
X232872Y-143187D01*
X233280Y-143320D01*
X233688D01*
X234097Y-143187D01*
X234447Y-142987D01*
X234738Y-142720D01*
G01X236913Y-143320D02*
Y-139320D01*
X238313D01*
X238780Y-139520D01*
X239130Y-139987D01*
X239247Y-140520D01*
X239130Y-141053D01*
X238838Y-141453D01*
X238313Y-141653D01*
X236913D01*
G01X252188Y-144653D02*
X251605Y-143987D01*
X251313Y-143320D01*
Y-140653D01*
X251605Y-139987D01*
X252188Y-139320D01*
G01X255938Y-143320D02*
Y-139320D01*
X258622Y-143320D01*
Y-139320D01*
G01X260855Y-143320D02*
X263305Y-139320D01*
G01X260855D02*
X263305Y-143320D01*
G01X265713D02*
Y-139320D01*
X267113D01*
X267580Y-139520D01*
X267930Y-139987D01*
X268047Y-140520D01*
X267930Y-141053D01*
X267638Y-141453D01*
X267113Y-141653D01*
X265713D01*
G01X277763Y-139653D02*
X277413Y-139453D01*
X277005Y-139320D01*
X276538D01*
X276013Y-139520D01*
X275605Y-139853D01*
X275313Y-140253D01*
X275080Y-140920D01*
X275022Y-141520D01*
X275138Y-142120D01*
X275313Y-142520D01*
X275663Y-142920D01*
X276072Y-143187D01*
X276480Y-143320D01*
X276888D01*
X277297Y-143187D01*
X277647Y-142987D01*
X277938Y-142720D01*
G01X281280Y-143320D02*
X280813Y-143253D01*
X280405Y-142987D01*
X280055Y-142587D01*
X279822Y-142120D01*
X279705Y-141587D01*
Y-141053D01*
X279822Y-140520D01*
X280055Y-140053D01*
X280405Y-139653D01*
X280813Y-139387D01*
X281280Y-139320D01*
X281747Y-139387D01*
X282155Y-139653D01*
X282505Y-140053D01*
X282738Y-140520D01*
X282855Y-141053D01*
Y-141587D01*
X282738Y-142120D01*
X282505Y-142587D01*
X282155Y-142987D01*
X281747Y-143253D01*
X281280Y-143320D01*
G01X284738D02*
Y-139320D01*
X287422Y-143320D01*
Y-139320D01*
G01X289772Y-143320D02*
Y-139320D01*
X291988D01*
G01X291172Y-141253D02*
X289772D01*
G01X294980Y-139320D02*
X296380D01*
G01X295680D02*
Y-143320D01*
G01X294980D02*
X296380D01*
G01X299197D02*
Y-139320D01*
X300363D01*
X300830Y-139520D01*
X301180Y-139787D01*
X301472Y-140187D01*
X301705Y-140653D01*
X301763Y-141320D01*
X301705Y-141987D01*
X301472Y-142453D01*
X301180Y-142853D01*
X300830Y-143120D01*
X300363Y-143320D01*
X299197D01*
G01X306447D02*
X304113D01*
Y-139320D01*
X306447D01*
G01X305513Y-141253D02*
X304113D01*
G01X308738Y-143320D02*
Y-139320D01*
X311422Y-143320D01*
Y-139320D01*
G01X314880D02*
Y-143320D01*
G01X313538Y-139320D02*
X316222D01*
G01X318980D02*
X320380D01*
G01X319680D02*
Y-143320D01*
G01X318980D02*
X320380D01*
G01X323022D02*
X324480Y-139320D01*
X325938Y-143320D01*
G01X325413Y-141920D02*
X323547D01*
G01X328113Y-139320D02*
Y-143320D01*
X330447D01*
G01X337713D02*
Y-139320D01*
X339113D01*
X339580Y-139520D01*
X339930Y-139987D01*
X340047Y-140520D01*
X339930Y-141053D01*
X339638Y-141453D01*
X339113Y-141653D01*
X337713D01*
G01X342513Y-143320D02*
Y-139320D01*
X343972D01*
X344438Y-139520D01*
X344730Y-139787D01*
X344847Y-140320D01*
X344730Y-140853D01*
X344380Y-141187D01*
X343972Y-141387D01*
X342513D01*
G01X343972D02*
X344847Y-143320D01*
G01X348480D02*
X348013Y-143253D01*
X347605Y-142987D01*
X347255Y-142587D01*
X347022Y-142120D01*
X346905Y-141587D01*
Y-141053D01*
X347022Y-140520D01*
X347255Y-140053D01*
X347605Y-139653D01*
X348013Y-139387D01*
X348480Y-139320D01*
X348947Y-139387D01*
X349355Y-139653D01*
X349705Y-140053D01*
X349938Y-140520D01*
X350055Y-141053D01*
Y-141587D01*
X349938Y-142120D01*
X349705Y-142587D01*
X349355Y-142987D01*
X348947Y-143253D01*
X348480Y-143320D01*
G01X352113D02*
Y-139320D01*
X353513D01*
X353980Y-139520D01*
X354330Y-139987D01*
X354447Y-140520D01*
X354330Y-141053D01*
X354038Y-141453D01*
X353513Y-141653D01*
X352113D01*
G01X356913Y-143320D02*
Y-139320D01*
X358372D01*
X358838Y-139520D01*
X359130Y-139787D01*
X359247Y-140320D01*
X359130Y-140853D01*
X358780Y-141187D01*
X358372Y-141387D01*
X356913D01*
G01X358372D02*
X359247Y-143320D01*
G01X362180Y-139320D02*
X363580D01*
G01X362880D02*
Y-143320D01*
G01X362180D02*
X363580D01*
G01X368847D02*
X366513D01*
Y-139320D01*
X368847D01*
G01X367913Y-141253D02*
X366513D01*
G01X372480Y-139320D02*
Y-143320D01*
G01X371138Y-139320D02*
X373822D01*
G01X375822Y-143320D02*
X377280Y-139320D01*
X378738Y-143320D01*
G01X378213Y-141920D02*
X376347D01*
G01X380913Y-143320D02*
Y-139320D01*
X382372D01*
X382838Y-139520D01*
X383130Y-139787D01*
X383247Y-140320D01*
X383130Y-140853D01*
X382780Y-141187D01*
X382372Y-141387D01*
X380913D01*
G01X382372D02*
X383247Y-143320D01*
G01X386880D02*
Y-141520D01*
X385713Y-139320D01*
G01X388047D02*
X386880Y-141520D01*
G01X391972Y-144653D02*
X392555Y-143987D01*
X392847Y-143320D01*
Y-140653D01*
X392555Y-139987D01*
X391972Y-139320D01*
G01X207530Y-128153D02*
X211030D01*
G01X212330D02*
X215830D01*
G01X217130D02*
X220630D01*
G01X227138Y-126820D02*
Y-122820D01*
X229822Y-126820D01*
Y-122820D01*
G01X232580D02*
X233980D01*
G01X233280D02*
Y-126820D01*
G01X232580D02*
X233980D01*
G01X236797Y-122820D02*
Y-125687D01*
X237030Y-126287D01*
X237497Y-126687D01*
X238080Y-126820D01*
X238663Y-126687D01*
X239130Y-126287D01*
X239363Y-125687D01*
Y-122820D01*
G01X242880Y-126820D02*
X242413Y-126753D01*
X242005Y-126487D01*
X241655Y-126087D01*
X241422Y-125620D01*
X241305Y-125087D01*
Y-124553D01*
X241422Y-124020D01*
X241655Y-123553D01*
X242005Y-123153D01*
X242413Y-122887D01*
X242880Y-122820D01*
X243347Y-122887D01*
X243755Y-123153D01*
X244105Y-123553D01*
X244338Y-124020D01*
X244455Y-124553D01*
Y-125087D01*
X244338Y-125620D01*
X244105Y-126087D01*
X243755Y-126487D01*
X243347Y-126753D01*
X242880Y-126820D01*
G01X252188Y-128153D02*
X251605Y-127487D01*
X251313Y-126820D01*
Y-124153D01*
X251605Y-123487D01*
X252188Y-122820D01*
G01X255938Y-126820D02*
Y-122820D01*
X258622Y-126820D01*
Y-122820D01*
G01X260855Y-126820D02*
X263305Y-122820D01*
G01X260855D02*
X263305Y-126820D01*
G01X265713D02*
Y-122820D01*
X267113D01*
X267580Y-123020D01*
X267930Y-123487D01*
X268047Y-124020D01*
X267930Y-124553D01*
X267638Y-124953D01*
X267113Y-125153D01*
X265713D01*
G01X275780Y-122820D02*
X277180D01*
G01X276480D02*
Y-126820D01*
G01X275780D02*
X277180D01*
G01X279938D02*
Y-122820D01*
X282622Y-126820D01*
Y-122820D01*
G01X286080D02*
Y-126820D01*
G01X284738Y-122820D02*
X287422D01*
G01X292047Y-126820D02*
X289713D01*
Y-122820D01*
X292047D01*
G01X291113Y-124753D02*
X289713D01*
G01X294513Y-126820D02*
Y-122820D01*
X295972D01*
X296438Y-123020D01*
X296730Y-123287D01*
X296847Y-123820D01*
X296730Y-124353D01*
X296380Y-124687D01*
X295972Y-124887D01*
X294513D01*
G01X295972D02*
X296847Y-126820D01*
G01X299138D02*
Y-122820D01*
X301822Y-126820D01*
Y-122820D01*
G01X303822Y-126820D02*
X305280Y-122820D01*
X306738Y-126820D01*
G01X306213Y-125420D02*
X304347D01*
G01X308913Y-122820D02*
Y-126820D01*
X311247D01*
G01X318397Y-122820D02*
Y-125687D01*
X318630Y-126287D01*
X319097Y-126687D01*
X319680Y-126820D01*
X320263Y-126687D01*
X320730Y-126287D01*
X320963Y-125687D01*
Y-122820D01*
G01X323255Y-126287D02*
X323722Y-126620D01*
X324247Y-126820D01*
X324713D01*
X325180Y-126620D01*
X325530Y-126287D01*
X325705Y-125820D01*
X325588Y-125353D01*
X325297Y-124953D01*
X324772Y-124687D01*
X324072Y-124553D01*
X323663Y-124287D01*
X323488Y-123820D01*
X323605Y-123353D01*
X323897Y-123020D01*
X324305Y-122820D01*
X324713D01*
X325122Y-122953D01*
X325472Y-123287D01*
G01X330447Y-126820D02*
X328113D01*
Y-122820D01*
X330447D01*
G01X329513Y-124753D02*
X328113D01*
G01X338880Y-126820D02*
X338413Y-126753D01*
X338005Y-126487D01*
X337655Y-126087D01*
X337422Y-125620D01*
X337305Y-125087D01*
Y-124553D01*
X337422Y-124020D01*
X337655Y-123553D01*
X338005Y-123153D01*
X338413Y-122887D01*
X338880Y-122820D01*
X339347Y-122887D01*
X339755Y-123153D01*
X340105Y-123553D01*
X340338Y-124020D01*
X340455Y-124553D01*
Y-125087D01*
X340338Y-125620D01*
X340105Y-126087D01*
X339755Y-126487D01*
X339347Y-126753D01*
X338880Y-126820D01*
G01X342338D02*
Y-122820D01*
X345022Y-126820D01*
Y-122820D01*
G01X347313D02*
Y-126820D01*
X349647D01*
G01X353280D02*
Y-125020D01*
X352113Y-122820D01*
G01X354447D02*
X353280Y-125020D01*
G01X358372Y-128153D02*
X358955Y-127487D01*
X359247Y-126820D01*
Y-124153D01*
X358955Y-123487D01*
X358372Y-122820D01*
G01X212235Y-127820D02*
X215525Y-121520D01*
G01X212235D02*
X215525Y-127820D01*
G01X207530Y-112153D02*
X211030D01*
G01X212330D02*
X215830D01*
G01X217130D02*
X220630D01*
G01X227313Y-110820D02*
Y-106820D01*
X228713D01*
X229180Y-107020D01*
X229530Y-107487D01*
X229647Y-108020D01*
X229530Y-108553D01*
X229238Y-108953D01*
X228713Y-109153D01*
X227313D01*
G01X231997Y-106820D02*
Y-109687D01*
X232230Y-110287D01*
X232697Y-110687D01*
X233280Y-110820D01*
X233863Y-110687D01*
X234330Y-110287D01*
X234563Y-109687D01*
Y-106820D01*
G01X238547Y-108687D02*
X238780Y-108487D01*
X238955Y-108153D01*
X239072Y-107687D01*
X238955Y-107287D01*
X238722Y-107020D01*
X238313Y-106820D01*
X236738D01*
Y-110820D01*
X238663D01*
X239072Y-110553D01*
X239305Y-110153D01*
X239422Y-109687D01*
X239305Y-109220D01*
X238955Y-108820D01*
X238547Y-108687D01*
X236738D01*
G01X242180Y-106820D02*
X243580D01*
G01X242880D02*
Y-110820D01*
G01X242180D02*
X243580D01*
G01X252188Y-112153D02*
X251605Y-111487D01*
X251313Y-110820D01*
Y-108153D01*
X251605Y-107487D01*
X252188Y-106820D01*
G01X256113Y-110820D02*
Y-106820D01*
X257513D01*
X257980Y-107020D01*
X258330Y-107487D01*
X258447Y-108020D01*
X258330Y-108553D01*
X258038Y-108953D01*
X257513Y-109153D01*
X256113D01*
G01X260797Y-106820D02*
Y-109687D01*
X261030Y-110287D01*
X261497Y-110687D01*
X262080Y-110820D01*
X262663Y-110687D01*
X263130Y-110287D01*
X263363Y-109687D01*
Y-106820D01*
G01X267347Y-108687D02*
X267580Y-108487D01*
X267755Y-108153D01*
X267872Y-107687D01*
X267755Y-107287D01*
X267522Y-107020D01*
X267113Y-106820D01*
X265538D01*
Y-110820D01*
X267463D01*
X267872Y-110553D01*
X268105Y-110153D01*
X268222Y-109687D01*
X268105Y-109220D01*
X267755Y-108820D01*
X267347Y-108687D01*
X265538D01*
G01X270513Y-106820D02*
Y-110820D01*
X272847D01*
G01X275780Y-106820D02*
X277180D01*
G01X276480D02*
Y-110820D01*
G01X275780D02*
X277180D01*
G01X282563Y-107153D02*
X282213Y-106953D01*
X281805Y-106820D01*
X281338D01*
X280813Y-107020D01*
X280405Y-107353D01*
X280113Y-107753D01*
X279880Y-108420D01*
X279822Y-109020D01*
X279938Y-109620D01*
X280113Y-110020D01*
X280463Y-110420D01*
X280872Y-110687D01*
X281280Y-110820D01*
X281688D01*
X282097Y-110687D01*
X282447Y-110487D01*
X282738Y-110220D01*
G01X290180Y-106820D02*
X291580D01*
G01X290880D02*
Y-110820D01*
G01X290180D02*
X291580D01*
G01X294338D02*
Y-106820D01*
X297022Y-110820D01*
Y-106820D01*
G01X299372Y-110820D02*
Y-106820D01*
X301588D01*
G01X300772Y-108753D02*
X299372D01*
G01X305280Y-110820D02*
X304813Y-110753D01*
X304405Y-110487D01*
X304055Y-110087D01*
X303822Y-109620D01*
X303705Y-109087D01*
Y-108553D01*
X303822Y-108020D01*
X304055Y-107553D01*
X304405Y-107153D01*
X304813Y-106887D01*
X305280Y-106820D01*
X305747Y-106887D01*
X306155Y-107153D01*
X306505Y-107553D01*
X306738Y-108020D01*
X306855Y-108553D01*
Y-109087D01*
X306738Y-109620D01*
X306505Y-110087D01*
X306155Y-110487D01*
X305747Y-110753D01*
X305280Y-110820D01*
G01X308913D02*
Y-106820D01*
X310372D01*
X310838Y-107020D01*
X311130Y-107287D01*
X311247Y-107820D01*
X311130Y-108353D01*
X310780Y-108687D01*
X310372Y-108887D01*
X308913D01*
G01X310372D02*
X311247Y-110820D01*
G01X313363D02*
Y-106820D01*
X314880Y-110153D01*
X316397Y-106820D01*
Y-110820D01*
G01X318222D02*
X319680Y-106820D01*
X321138Y-110820D01*
G01X320613Y-109420D02*
X318747D01*
G01X324480Y-106820D02*
Y-110820D01*
G01X323138Y-106820D02*
X325822D01*
G01X328580D02*
X329980D01*
G01X329280D02*
Y-110820D01*
G01X328580D02*
X329980D01*
G01X334080D02*
X333613Y-110753D01*
X333205Y-110487D01*
X332855Y-110087D01*
X332622Y-109620D01*
X332505Y-109087D01*
Y-108553D01*
X332622Y-108020D01*
X332855Y-107553D01*
X333205Y-107153D01*
X333613Y-106887D01*
X334080Y-106820D01*
X334547Y-106887D01*
X334955Y-107153D01*
X335305Y-107553D01*
X335538Y-108020D01*
X335655Y-108553D01*
Y-109087D01*
X335538Y-109620D01*
X335305Y-110087D01*
X334955Y-110487D01*
X334547Y-110753D01*
X334080Y-110820D01*
G01X337538D02*
Y-106820D01*
X340222Y-110820D01*
Y-106820D01*
G01X343972Y-112153D02*
X344555Y-111487D01*
X344847Y-110820D01*
Y-108153D01*
X344555Y-107487D01*
X343972Y-106820D01*
G01X247938Y-158820D02*
Y-154820D01*
X250622Y-158820D01*
Y-154820D01*
G01X252797D02*
Y-157687D01*
X253030Y-158287D01*
X253497Y-158687D01*
X254080Y-158820D01*
X254663Y-158687D01*
X255130Y-158287D01*
X255363Y-157687D01*
Y-154820D01*
G01X257363Y-158820D02*
Y-154820D01*
X258880Y-158153D01*
X260397Y-154820D01*
Y-158820D01*
G01X264147Y-156687D02*
X264380Y-156487D01*
X264555Y-156153D01*
X264672Y-155687D01*
X264555Y-155287D01*
X264322Y-155020D01*
X263913Y-154820D01*
X262338D01*
Y-158820D01*
X264263D01*
X264672Y-158553D01*
X264905Y-158153D01*
X265022Y-157687D01*
X264905Y-157220D01*
X264555Y-156820D01*
X264147Y-156687D01*
X262338D01*
G01X269647Y-158820D02*
X267313D01*
Y-154820D01*
X269647D01*
G01X268713Y-156753D02*
X267313D01*
G01X272113Y-158820D02*
Y-154820D01*
X273572D01*
X274038Y-155020D01*
X274330Y-155287D01*
X274447Y-155820D01*
X274330Y-156353D01*
X273980Y-156687D01*
X273572Y-156887D01*
X272113D01*
G01X273572D02*
X274447Y-158820D01*
G01X257567Y-90650D02*
Y-84350D01*
X259133D01*
X259760Y-84665D01*
X260230Y-85085D01*
X260622Y-85715D01*
X260935Y-86450D01*
X261013Y-87500D01*
X260935Y-88550D01*
X260622Y-89285D01*
X260230Y-89915D01*
X259760Y-90335D01*
X259133Y-90650D01*
X257567D01*
G01X267157D02*
X264023D01*
Y-84350D01*
X267157D01*
G01X265903Y-87395D02*
X264023D01*
G01X269932Y-84350D02*
X271890Y-90650D01*
X273848Y-84350D01*
G01X276467Y-90650D02*
Y-84350D01*
G01X279443D02*
X276467Y-88235D01*
G01X279913Y-90650D02*
X277798Y-86450D01*
G01X283550Y-84350D02*
X285430D01*
G01X284490D02*
Y-90650D01*
G01X283550D02*
X285430D01*
G01X290790Y-84350D02*
Y-90650D01*
G01X288988Y-84350D02*
X292592D01*
G01X296072Y-88550D02*
X298108D01*
G01X301353Y-90650D02*
Y-84350D01*
X303390Y-89600D01*
X305427Y-84350D01*
Y-90650D01*
G01X308123D02*
Y-84350D01*
X310003D01*
X310630Y-84665D01*
X311100Y-85400D01*
X311257Y-86240D01*
X311100Y-87080D01*
X310708Y-87710D01*
X310003Y-88025D01*
X308123D01*
G01X317713Y-84875D02*
X317243Y-84560D01*
X316695Y-84350D01*
X316068D01*
X315363Y-84665D01*
X314815Y-85190D01*
X314423Y-85820D01*
X314110Y-86870D01*
X314032Y-87815D01*
X314188Y-88760D01*
X314423Y-89390D01*
X314893Y-90020D01*
X315442Y-90440D01*
X315990Y-90650D01*
X316538D01*
X317087Y-90440D01*
X317557Y-90125D01*
X317948Y-89705D01*
G01X320567D02*
X321037Y-90230D01*
X321585Y-90545D01*
X322290Y-90650D01*
X322995Y-90440D01*
X323543Y-90020D01*
X323935Y-89285D01*
X324013Y-88445D01*
X323857Y-87605D01*
X323465Y-87080D01*
X322917Y-86660D01*
X322368Y-86555D01*
X321820Y-86660D01*
X321115Y-87080D01*
X321350Y-84350D01*
X323465D01*
G01X328433Y-90650D02*
X328590Y-89285D01*
X328825Y-88130D01*
X329138Y-87080D01*
X329530Y-85925D01*
X330157Y-84350D01*
X327023D01*
G01X335830Y-90650D02*
Y-84350D01*
X332932Y-88865D01*
X336848D01*
G01X341190Y-90650D02*
X341738Y-90545D01*
X342365Y-90230D01*
X342757Y-89705D01*
X342913Y-88970D01*
X342757Y-88235D01*
X342287Y-87605D01*
X341582Y-87290D01*
X340798D01*
X340328Y-87080D01*
X339937Y-86555D01*
X339780Y-85820D01*
X340015Y-85085D01*
X340563Y-84560D01*
X341190Y-84350D01*
X341817Y-84560D01*
X342365Y-85085D01*
X342600Y-85820D01*
X342443Y-86555D01*
X342052Y-87080D01*
X341582Y-87290D01*
X340798D01*
X340093Y-87605D01*
X339623Y-88235D01*
X339467Y-88970D01*
X339623Y-89705D01*
X340015Y-90230D01*
X340642Y-90545D01*
X341190Y-90650D01*
G01X347960Y-87500D02*
X349527D01*
Y-89390D01*
X349057Y-90020D01*
X348508Y-90440D01*
X347725Y-90650D01*
X346942Y-90440D01*
X346393Y-90020D01*
X345923Y-89390D01*
X345610Y-88655D01*
X345453Y-87815D01*
Y-87080D01*
X345610Y-86450D01*
X345923Y-85715D01*
X346393Y-85085D01*
X346863Y-84665D01*
X347490Y-84350D01*
X348038D01*
X348665Y-84560D01*
X349135Y-84980D01*
G01X282880Y-165820D02*
Y-159520D01*
X281940Y-160780D01*
G01Y-165820D02*
X283820D01*
G01X289023D02*
X289180Y-164455D01*
X289415Y-163300D01*
X289728Y-162250D01*
X290120Y-161095D01*
X290747Y-159520D01*
X287613D01*
G01X295480D02*
X294853Y-159730D01*
X294383Y-160255D01*
X294070Y-160885D01*
X293835Y-161725D01*
X293757Y-162670D01*
X293835Y-163615D01*
X294070Y-164455D01*
X294383Y-165085D01*
X294853Y-165610D01*
X295480Y-165820D01*
X296107Y-165610D01*
X296577Y-165085D01*
X296890Y-164455D01*
X297125Y-163615D01*
X297203Y-162670D01*
X297125Y-161725D01*
X296890Y-160885D01*
X296577Y-160255D01*
X296107Y-159730D01*
X295480Y-159520D01*
G01X300762Y-163720D02*
X302798D01*
G01X306592Y-160570D02*
X307062Y-159940D01*
X307610Y-159625D01*
X308237Y-159520D01*
X309020Y-159730D01*
X309568Y-160255D01*
X309725Y-160885D01*
X309647Y-161515D01*
X309333Y-162040D01*
X307767Y-163090D01*
X307062Y-163825D01*
X306592Y-164875D01*
X306435Y-165820D01*
X309725D01*
G01X313048Y-165085D02*
X313597Y-165610D01*
X314223Y-165820D01*
X314850Y-165610D01*
X315398Y-164980D01*
X315790Y-164035D01*
X315947Y-163090D01*
Y-161935D01*
X315790Y-160990D01*
X315398Y-160150D01*
X314928Y-159730D01*
X314380Y-159520D01*
X313753Y-159730D01*
X313283Y-160150D01*
X312970Y-160780D01*
X312813Y-161620D01*
X312970Y-162355D01*
X313362Y-163090D01*
X313832Y-163510D01*
X314380Y-163615D01*
X315007Y-163405D01*
X315477Y-162880D01*
X315947Y-161935D01*
G01X320680Y-159520D02*
X320053Y-159730D01*
X319583Y-160255D01*
X319270Y-160885D01*
X319035Y-161725D01*
X318957Y-162670D01*
X319035Y-163615D01*
X319270Y-164455D01*
X319583Y-165085D01*
X320053Y-165610D01*
X320680Y-165820D01*
X321307Y-165610D01*
X321777Y-165085D01*
X322090Y-164455D01*
X322325Y-163615D01*
X322403Y-162670D01*
X322325Y-161725D01*
X322090Y-160885D01*
X321777Y-160255D01*
X321307Y-159730D01*
X320680Y-159520D01*
G01X325257Y-164560D02*
X325727Y-165295D01*
X326353Y-165715D01*
X327058Y-165820D01*
X327685Y-165715D01*
X328312Y-165190D01*
X328703Y-164560D01*
X328782Y-163930D01*
X328625Y-163195D01*
X328077Y-162670D01*
X327528Y-162460D01*
X326823D01*
G01X327528D02*
X327998Y-162145D01*
X328390Y-161620D01*
X328547Y-160990D01*
X328390Y-160360D01*
X327998Y-159835D01*
X327293Y-159520D01*
X326588Y-159625D01*
X325883Y-160045D01*
G01X333280Y-159520D02*
X332653Y-159730D01*
X332183Y-160255D01*
X331870Y-160885D01*
X331635Y-161725D01*
X331557Y-162670D01*
X331635Y-163615D01*
X331870Y-164455D01*
X332183Y-165085D01*
X332653Y-165610D01*
X333280Y-165820D01*
X333907Y-165610D01*
X334377Y-165085D01*
X334690Y-164455D01*
X334925Y-163615D01*
X335003Y-162670D01*
X334925Y-161725D01*
X334690Y-160885D01*
X334377Y-160255D01*
X333907Y-159730D01*
X333280Y-159520D01*
G01X344313Y-165820D02*
Y-159520D01*
X346272D01*
X346898Y-159835D01*
X347290Y-160255D01*
X347447Y-161095D01*
X347290Y-161935D01*
X346820Y-162460D01*
X346272Y-162775D01*
X344313D01*
G01X346272D02*
X347447Y-165820D01*
G01X353747D02*
X350613D01*
Y-159520D01*
X353747D01*
G01X352493Y-162565D02*
X350613D01*
G01X356522Y-159520D02*
X358480Y-165820D01*
X360438Y-159520D01*
G01X371707Y-162460D02*
X372020Y-162145D01*
X372255Y-161620D01*
X372412Y-160885D01*
X372255Y-160255D01*
X371942Y-159835D01*
X371393Y-159520D01*
X369278D01*
Y-165820D01*
X371863D01*
X372412Y-165400D01*
X372725Y-164770D01*
X372882Y-164035D01*
X372725Y-163300D01*
X372255Y-162670D01*
X371707Y-162460D01*
X369278D01*
G54D18*
G01X62540Y118630D02*
Y177982D01*
X65230Y180672D01*
Y188772D01*
G01X165640Y29040D02*
Y34176D01*
X150966Y48850D01*
X123170D01*
X104640Y67380D01*
Y119280D01*
X107520Y122160D01*
Y124730D01*
G01X93930Y93930D02*
Y75760D01*
X90550Y72380D01*
Y72344D01*
G01X93830Y98110D02*
X96140Y95800D01*
Y73840D01*
X90774Y68474D01*
G01X90720Y75590D02*
Y78630D01*
X88730Y80620D01*
Y96470D01*
X90284Y98024D01*
Y150885D01*
X90225Y150944D01*
Y152456D01*
X90284Y152515D01*
Y163704D01*
X91540Y164960D01*
G01X108339Y70959D02*
X107083Y72215D01*
Y116583D01*
X113600Y123100D01*
G01X120961Y67790D02*
X122350Y69179D01*
Y106630D01*
X120961Y108019D01*
G01X144490Y159639D02*
X140267D01*
X129750Y149122D01*
Y145640D01*
G01X139150Y184760D02*
X144850Y179060D01*
Y169680D01*
X146920Y167610D01*
Y69160D01*
X148880Y67200D01*
Y59644D01*
G01X169150Y184760D02*
X163560Y179170D01*
Y165042D01*
X154105Y155587D01*
Y146715D01*
X156200Y144620D01*
Y134010D01*
X162400Y127810D01*
Y95902D01*
X167740Y90562D01*
Y42780D01*
X164365Y39405D01*
G01X159150Y184760D02*
X154880Y180490D01*
Y166430D01*
X152802Y164352D01*
Y147112D01*
X151360Y145670D01*
Y128190D01*
X153610Y125940D01*
Y114811D01*
X152180Y113381D01*
Y77831D01*
X160210Y69801D01*
Y58400D01*
X154880Y53070D01*
G01X149150Y184760D02*
X153325Y180585D01*
Y171995D01*
X148785Y167455D01*
Y126995D01*
X151600Y124180D01*
Y116990D01*
X149620Y115010D01*
Y73740D01*
X154690Y68670D01*
Y56820D01*
G01X179150Y174760D02*
Y160900D01*
X176940Y158690D01*
Y154308D01*
X184050Y147198D01*
Y139010D01*
X174130Y129090D01*
Y113720D01*
X171650Y111240D01*
Y41650D01*
X174510Y38790D01*
G01X144520Y155603D02*
Y127830D01*
G01X162290Y156740D02*
X158050Y152500D01*
Y136970D01*
X164950Y130070D01*
Y120690D01*
G01X195150Y-15240D02*
X232470Y22080D01*
Y56040D01*
X241600Y65170D01*
Y67320D01*
G01X189150Y174760D02*
Y165420D01*
X190050Y164520D01*
Y160890D01*
X188210Y159050D01*
Y153070D01*
X191180Y150100D01*
Y137270D01*
X188880Y134970D01*
Y119270D01*
X190990Y117160D01*
Y86170D01*
X197950Y79210D01*
Y45560D01*
X200710Y42800D01*
G01X194710Y64820D02*
Y75590D01*
X180790Y89510D01*
Y127130D01*
G01X186830Y151280D02*
Y147620D01*
X185730Y146520D01*
Y135070D01*
X186950Y133850D01*
Y117330D01*
X185850Y116230D01*
Y116220D01*
X182810Y113180D01*
Y104350D01*
G01X189150Y184760D02*
X193790Y180120D01*
Y149400D01*
X195740Y147450D01*
Y138870D01*
X190960Y134090D01*
Y121340D01*
X192234Y120066D01*
Y94176D01*
X193490Y92920D01*
G01X199150Y174760D02*
Y165390D01*
X197870Y164110D01*
Y160881D01*
X199480Y159271D01*
Y146470D01*
X203865Y142085D01*
Y113926D01*
X202080Y112141D01*
Y47430D01*
X206710Y42800D01*
G01X179150Y184760D02*
X185530Y191140D01*
X376500D01*
X380090Y187550D01*
Y171100D01*
X374530Y165540D01*
Y102570D01*
G01X199150Y184760D02*
X204310Y179600D01*
Y166860D01*
X208550Y162620D01*
Y139040D01*
X207400Y137890D01*
Y118170D01*
X211140Y114430D01*
Y27330D01*
G01X209150Y184760D02*
X214280Y179630D01*
Y163702D01*
X216660Y161322D01*
Y149642D01*
X223962Y142340D01*
Y93652D01*
X217200Y86890D01*
Y42800D01*
G01X219150Y174760D02*
Y162980D01*
X227725Y154405D01*
Y119986D01*
X226400Y118661D01*
Y90157D01*
G01X214420Y115230D02*
Y133148D01*
X210850Y136718D01*
Y140141D01*
X212880Y142171D01*
G01X221670Y138190D02*
Y120840D01*
G01X219150Y184760D02*
X224270Y179640D01*
X230175D01*
X233780Y176035D01*
Y114530D01*
X237420Y110890D01*
Y92100D01*
X246450Y83070D01*
Y70091D01*
X260990Y55551D01*
Y46840D01*
X259360Y45210D01*
G01X235150Y-25240D02*
X240770Y-19620D01*
Y-9270D01*
X246760Y-3280D01*
Y34084D01*
X253620Y40944D01*
G01X245150Y-25240D02*
X249750Y-20640D01*
Y30110D01*
X255930Y36290D01*
Y42913D01*
G01X255150Y174760D02*
X248200Y167810D01*
Y158860D01*
X246360Y157020D01*
Y140370D01*
X249950Y136780D01*
Y91370D01*
X260940Y80380D01*
Y65480D01*
G01X229150Y184760D02*
X239040Y174870D01*
Y94160D01*
X251260Y81940D01*
Y68910D01*
X263050Y57120D01*
Y44690D01*
X257990Y39630D01*
Y34300D01*
G01X245150Y174760D02*
Y122860D01*
X246400Y121610D01*
Y91181D01*
X258710Y78871D01*
Y69270D01*
G01X245150Y184760D02*
X240940Y180550D01*
Y105890D01*
G01X229150Y174760D02*
Y117060D01*
X235570Y110640D01*
Y88030D01*
G01X256309Y134480D02*
Y138541D01*
X255360Y139490D01*
Y167558D01*
X259325Y171523D01*
Y176995D01*
X257010Y179310D01*
X250400D01*
G01X243090Y169040D02*
Y121653D01*
G01X262860Y97940D02*
Y135190D01*
X256580Y141470D01*
Y164000D01*
X260600Y168020D01*
Y187630D01*
G01X253940Y168790D02*
Y130570D01*
X258510Y126000D01*
Y98031D01*
G01X237080Y119684D02*
Y151530D01*
G01X354480Y109830D02*
X351630Y112680D01*
Y118510D01*
X353130Y120010D01*
Y163410D01*
X358520Y168800D01*
Y180080D01*
X359490Y181050D01*
Y187630D01*
X357430Y189690D01*
X258160D01*
X255150Y186680D01*
Y184760D01*
G01X275150Y-25240D02*
X279770Y-20620D01*
Y-4530D01*
X282410Y-1890D01*
Y9449D01*
X279380Y12479D01*
Y29500D01*
X277920Y30960D01*
Y41110D01*
X279410Y42600D01*
Y45030D01*
G01X285150Y-25240D02*
X289325Y-21065D01*
Y34705D01*
X286050Y37980D01*
Y47480D01*
G01X265150Y-15240D02*
Y24400D01*
X260190Y29360D01*
Y38600D01*
X265150Y43560D01*
Y58460D01*
X263280Y60330D01*
Y71640D01*
G01X285150Y-15240D02*
Y11620D01*
X281920Y14850D01*
Y49510D01*
X280900Y50530D01*
Y63370D01*
G01X268120Y2550D02*
Y13629D01*
X268115Y13634D01*
Y15106D01*
X268120Y15111D01*
Y34710D01*
G01X277790Y49330D02*
Y64660D01*
X279135Y66005D01*
Y89945D01*
X281730Y92540D01*
Y114560D01*
G01X285150Y174760D02*
Y143000D01*
X283850Y141700D01*
Y90870D01*
X280285Y87305D01*
Y83305D01*
X283650Y79940D01*
Y52060D01*
G01X260700Y113779D02*
Y86020D01*
X265715Y81005D01*
Y60926D01*
X267025Y59616D01*
Y46470D01*
G01X275150Y174760D02*
Y165751D01*
X273225Y163826D01*
Y143365D01*
X277480Y139110D01*
Y131500D01*
X275180Y129200D01*
Y94869D01*
X272650Y92339D01*
Y58640D01*
X270330Y56320D01*
G01X295150Y184760D02*
X290780Y180390D01*
Y161600D01*
X287290Y158110D01*
Y89420D01*
X282630Y84760D01*
G01X265150Y184760D02*
X270970Y178940D01*
Y169440D01*
X271595Y168815D01*
Y123525D01*
X273275Y121845D01*
Y96215D01*
X270450Y93390D01*
Y74409D01*
G01X285150Y184760D02*
X280840Y180450D01*
Y157910D01*
X279596Y156666D01*
Y149415D01*
X281750Y147261D01*
Y127484D01*
X279596Y125330D01*
Y93716D01*
X277250Y91370D01*
Y80314D01*
G01X275150Y184760D02*
X279410Y180500D01*
Y160230D01*
X277510Y158330D01*
Y146650D01*
X279410Y144750D01*
Y129500D01*
X277440Y127530D01*
Y94490D01*
X274930Y91980D01*
Y78346D01*
G01X265150Y174760D02*
Y91480D01*
X268080Y88550D01*
Y62600D01*
G01X269190Y163450D02*
Y119641D01*
X271400Y117431D01*
Y98020D01*
G01X267530Y179640D02*
X269370Y177800D01*
Y168860D01*
X266880Y166370D01*
Y114960D01*
X267900Y113940D01*
Y98020D01*
G01X295150Y-25240D02*
X299710Y-20680D01*
Y11280D01*
X303450Y15020D01*
Y24500D01*
X301580Y26370D01*
Y49880D01*
G01X305150Y-25240D02*
X310355Y-20035D01*
Y7325D01*
X319301Y16271D01*
Y38371D01*
G01X295150Y-15240D02*
Y10150D01*
X297785Y12785D01*
Y19455D01*
X293415Y23825D01*
G01X305150Y-15240D02*
Y12580D01*
X308033Y15463D01*
Y48843D01*
X315033Y55843D01*
Y82283D01*
G01X310230Y41370D02*
X317340Y48480D01*
Y137100D01*
X320030Y139790D01*
Y164200D01*
X325370Y169540D01*
Y174750D01*
G01X297648Y36450D02*
Y60208D01*
X302790Y65350D01*
Y133201D01*
X300390Y135601D01*
Y162680D01*
X299040Y164030D01*
G01X312210Y38810D02*
X319490Y46090D01*
Y93950D01*
X323145Y97605D01*
Y101387D01*
X323120Y101412D01*
Y163790D01*
X327520Y168190D01*
G01X295150Y174760D02*
Y125570D01*
X289774Y120194D01*
Y38890D01*
G01X311490Y98000D02*
Y112570D01*
X314620Y115700D01*
Y139960D01*
X316220Y141560D01*
G01X313140Y149900D02*
Y135690D01*
X305100Y127650D01*
Y98070D01*
G01X315150Y-25240D02*
X321270Y-19120D01*
Y34350D01*
G01X325150Y-25240D02*
X329130Y-21260D01*
Y-10370D01*
X325905Y-7145D01*
G01X335150Y-25240D02*
X334760D01*
X330840Y-21320D01*
Y-8623D01*
X325207Y-2990D01*
G01X335150Y-15240D02*
Y-9790D01*
X323680Y1680D01*
Y38400D01*
X319390Y42690D01*
G01X345150Y174760D02*
Y166310D01*
X347900Y163560D01*
Y94160D01*
X340630Y86890D01*
Y38100D01*
G01X335150Y184760D02*
X329890Y179500D01*
Y155550D01*
G01X365150Y-25240D02*
X370430Y-19960D01*
Y25839D01*
X372690Y28099D01*
Y36910D01*
X369240Y40360D01*
Y46020D01*
G01X355150Y-25240D02*
X343571Y-13661D01*
Y58661D01*
G01X365150Y-15240D02*
Y71390D01*
G01X355150Y-15240D02*
Y48300D01*
X358940Y52090D01*
Y71360D01*
G01X360000Y93200D02*
Y75430D01*
X362970Y72460D01*
Y40130D01*
X359840Y37000D01*
Y-21000D01*
G01X348750Y-13350D02*
Y15460D01*
X346757Y17453D01*
Y74613D01*
X354452Y82308D01*
G01X354750Y86260D02*
X357120Y83890D01*
Y73020D01*
X351390Y67290D01*
Y-9700D01*
G01X365150Y174760D02*
Y160460D01*
X369310Y156300D01*
Y101230D01*
X371860Y98680D01*
Y63992D01*
X367260Y59392D01*
Y37980D01*
X370560Y34680D01*
Y30690D01*
X368190Y28320D01*
G01X365150Y184760D02*
X359900Y179510D01*
Y167410D01*
X355320Y162830D01*
Y143570D01*
G01X355150Y184760D02*
Y183450D01*
X350540Y178840D01*
Y149900D01*
G01X385150Y-25240D02*
X390500Y-19890D01*
Y14720D01*
X388220Y17000D01*
G01X375150Y-25240D02*
X380310Y-20080D01*
Y39355D01*
G01X395150Y-15240D02*
Y33900D01*
X391530Y37520D01*
G01X384820Y132060D02*
Y91390D01*
X386580Y89630D01*
Y22170D01*
X385150Y20740D01*
Y-15240D01*
G01X375150D02*
Y38910D01*
X371970Y42090D01*
Y61450D01*
G01X395150Y184760D02*
X399325Y180585D01*
Y164696D01*
X392950Y158318D01*
Y107880D01*
X395760Y105070D01*
Y77800D01*
X392210Y74250D01*
Y54150D01*
G01X395150Y174760D02*
X387795Y167405D01*
Y102505D01*
X388930Y101370D01*
Y96920D01*
G01X405150Y-15240D02*
Y109670D01*
X399900Y114920D01*
Y121550D01*
X395510Y125940D01*
Y145850D01*
G01X407080Y56960D02*
Y12546D01*
X412010Y7616D01*
G01Y28748D02*
X409120Y31638D01*
Y103560D01*
X407490Y105190D01*
Y117410D01*
X399230Y125670D01*
Y138990D01*
G01X412010Y21704D02*
X420240Y29934D01*
Y74690D01*
X417130Y77800D01*
Y96919D01*
X420770Y100559D01*
Y125090D01*
G01X412770Y148850D02*
X414475Y147145D01*
Y140374D01*
X414375Y140274D01*
Y119234D01*
X415514Y118095D01*
X417376D01*
X419535Y115936D01*
Y105366D01*
X415210Y101041D01*
Y75560D01*
X418135Y72635D01*
Y39805D01*
X414122Y35792D01*
X412010D01*
G01Y42836D02*
X410754Y44092D01*
Y57544D01*
X411625Y58415D01*
Y104075D01*
X410030Y105670D01*
Y113660D01*
G01X414310Y115620D02*
Y102880D01*
X413410Y101980D01*
Y56870D01*
X412640Y56100D01*
Y49880D01*
G01X405150Y184760D02*
X410520Y179390D01*
Y153970D01*
X426490Y138000D01*
Y103960D01*
X421750Y99220D01*
Y96090D01*
X424730Y93110D01*
Y76560D01*
X423390Y75220D01*
Y70650D01*
X427320Y66720D01*
Y53380D01*
G01X440430Y-29570D02*
Y-14950D01*
X453800Y-1580D01*
Y15150D01*
G01X449155Y78190D02*
Y56834D01*
X450760Y55229D01*
Y19820D01*
X443842Y12902D01*
Y8272D01*
G01X438000Y74590D02*
Y76366D01*
X436910Y77456D01*
Y116290D01*
X442930Y122310D01*
Y134530D01*
G01X441310Y90790D02*
X452330Y79770D01*
Y75430D01*
G01X444590Y111770D02*
Y128121D01*
X446870Y130401D01*
Y158990D01*
M02*
