G04 ================== begin FILE IDENTIFICATION RECORD ==================*
G04 Layout Name:  LAY-29030.brd*
G04 Film Name:    L6_SS.art*
G04 File Format:  Gerber RS274X*
G04 File Origin:  Cadence Allegro 16.6-2015-S065*
G04 Origin Date:  Mon Jun 27 10:01:04 2016*
G04 *
G04 Layer:  PACKAGE GEOMETRY/SHORT_LAYER_BOTTOM*
G04 Layer:  VIA CLASS/BOTTOM*
G04 Layer:  PIN/BOTTOM*
G04 Layer:  ETCH/BOTTOM*
G04 Layer:  DRAWING FORMAT/FILM_TITLE_BLOCK*
G04 Layer:  BOARD GEOMETRY/OUTLINE*
G04 *
G04 Offset:    (0.00 0.00)*
G04 Mirror:    No*
G04 Mode:      Positive*
G04 Rotation:  0*
G04 FullContactRelief:  No*
G04 UndefLineWidth:     8.00*
G04 ================== end FILE IDENTIFICATION RECORD ====================*
%FSLAX55Y55*MOIN*%
%IR0*IPPOS*OFA0.00000B0.00000*MIA0B0*SFA1.00000B1.00000*%
%ADD16C,.01*%
%ADD10C,.02*%
%ADD24C,.03*%
%ADD14C,.04*%
%ADD29C,.06*%
%ADD23O,.057X.136*%
%ADD19C,.024*%
%ADD22O,.057X.147*%
%ADD15C,.036*%
%ADD37C,.037*%
%ADD13C,.055*%
%ADD32C,.038*%
%ADD11C,.065*%
%ADD31C,.066*%
%ADD28R,.06X.06*%
%ADD21C,.059*%
%ADD38R,.037X.037*%
%ADD25R,.055X.055*%
%ADD17C,.089*%
%ADD33R,.038X.038*%
%ADD12R,.065X.065*%
%ADD18R,.066X.066*%
%ADD20R,.059X.059*%
%AMMACRO34*
4,1,22,.01782,-.028,
-.01782,-.028,
-.021237,-.027701,
-.024551,-.026813,
-.02766,-.025363,
-.03047,-.023396,
-.032896,-.02097,
-.034863,-.01816,
-.036313,-.015051,
-.037201,-.011737,
-.0375,-.00832,
-.0375,.028,
.0375,.028,
.0375,-.00832,
.037201,-.011737,
.036313,-.015051,
.034863,-.01816,
.032896,-.02097,
.03047,-.023396,
.02766,-.025363,
.024551,-.026813,
.021237,-.027701,
.01782,-.028,
0.0*
%
%ADD34MACRO34*%
%AMMACRO30*
4,1,22,.028,.01782,
.028,-.01782,
.027701,-.021237,
.026813,-.024551,
.025363,-.02766,
.023396,-.03047,
.02097,-.032896,
.01816,-.034863,
.015051,-.036313,
.011737,-.037201,
.00832,-.0375,
-.028,-.0375,
-.028,.0375,
.00832,.0375,
.011737,.037201,
.015051,.036313,
.01816,.034863,
.02097,.032896,
.023396,.03047,
.025363,.02766,
.026813,.024551,
.027701,.021237,
.028,.01782,
0.0*
%
%ADD30MACRO30*%
%ADD26O,.042X.05*%
%ADD35O,.05X.042*%
%AMMACRO27*
4,1,22,-.028,-.01782,
-.028,.01782,
-.027701,.021237,
-.026813,.024551,
-.025363,.02766,
-.023396,.03047,
-.02097,.032896,
-.01816,.034863,
-.015051,.036313,
-.011737,.037201,
-.00832,.0375,
.028,.0375,
.028,-.0375,
-.00832,-.0375,
-.011737,-.037201,
-.015051,-.036313,
-.01816,-.034863,
-.02097,-.032896,
-.023396,-.03047,
-.025363,-.02766,
-.026813,-.024551,
-.027701,-.021237,
-.028,-.01782,
0.0*
%
%ADD27MACRO27*%
%AMMACRO36*
4,1,22,-.01782,.028,
.01782,.028,
.021237,.027701,
.024551,.026813,
.02766,.025363,
.03047,.023396,
.032896,.02097,
.034863,.01816,
.036313,.015051,
.037201,.011737,
.0375,.00832,
.0375,-.028,
-.0375,-.028,
-.0375,.00832,
-.037201,.011737,
-.036313,.015051,
-.034863,.01816,
-.032896,.02097,
-.03047,.023396,
-.02766,.025363,
-.024551,.026813,
-.021237,.027701,
-.01782,.028,
0.0*
%
%ADD36MACRO36*%
%ADD39C,.05*%
%ADD40C,.015*%
%ADD41C,.025*%
%ADD42C,.008*%
%ADD43C,.006*%
%ADD44C,.0065*%
%ADD68O,.07104X.15004*%
%ADD54C,.05004*%
%ADD67O,.07304X.15204*%
%ADD63C,.07004*%
%ADD55C,.03404*%
%ADD64C,.04404*%
%ADD57C,.08004*%
%ADD51C,.08104*%
%ADD69C,.04604*%
%ADD60C,.08204*%
%ADD46O,.06702X.15702*%
%ADD62C,.07404*%
%ADD58C,.03804*%
%ADD47C,.07504*%
%ADD61C,.07604*%
%ADD50C,.06904*%
%ADD48C,.07904*%
%ADD65C,.10504*%
%ADD56C,.15004*%
%ADD66C,.16203*%
%ADD59R,.08004X.08004*%
%ADD53R,.07304X.07304*%
%ADD45O,.05804X.06604*%
%ADD52R,.07504X.07504*%
%ADD49R,.07904X.07904*%
G75*
%LPD*%
G75*
G36*
G01X25400Y-32790D02*
G02X-7000Y-390I0J32400D01*
G01Y-379D01*
X-7100Y159611D01*
G02X25300Y192010I32400J-1D01*
G01X75074D01*
G02X75544Y191341I0J-500D01*
G03X75386Y190436I2513J-905D01*
G01Y188898D01*
G03Y188410I3192J-244D01*
G01Y186872D01*
G03X78056Y184202I2670J0D01*
G01X82390D01*
Y185452D01*
X106870D01*
Y184102D01*
X111304D01*
G03X114074Y186872I0J2770D01*
G01Y190436D01*
G03X113920Y191346I-2770J-1D01*
G02X114392Y192010I472J164D01*
G01X236118D01*
Y170912D01*
X233152D01*
Y178762D01*
X225148D01*
Y170912D01*
X222159D01*
G02X221825Y171783I0J500D01*
G03X216475I-2675J2977D01*
G02X216141Y170912I-334J-371D01*
G01X212159D01*
G02X211825Y171783I0J500D01*
G03X206475I-2675J2977D01*
G02X206141Y170912I-334J-371D01*
G01X202159D01*
G02X201825Y171783I0J500D01*
G03X196475I-2675J2977D01*
G02X196141Y170912I-334J-371D01*
G01X192159D01*
G02X191825Y171783I0J500D01*
G03X186475I-2675J2977D01*
G02X186141Y170912I-334J-371D01*
G01X182159D01*
G02X181825Y171783I0J500D01*
G03X176475I-2675J2977D01*
G02X176141Y170912I-334J-371D01*
G01X171851D01*
G02X171537Y171801I0J500D01*
G03X166763I-2387J2959D01*
G02X166449Y170912I-314J-389D01*
G01X162307D01*
G02X161964Y171775I0J500D01*
G03X156336I-2814J2985D01*
G02X155993Y170912I-343J-363D01*
G01X152159D01*
G02X151825Y171783I0J500D01*
G03X146475I-2675J2977D01*
G02X146141Y170912I-334J-371D01*
G01X142159D01*
G02X141825Y171783I0J500D01*
G03X136475I-2675J2977D01*
G02X136141Y170912I-334J-371D01*
G01X132418D01*
G02X131964Y171621I0J500D01*
G03X118336I-6814J3139D01*
G02X117882Y170912I-454J-209D01*
G01X33088D01*
Y137602D01*
X20915Y125428D01*
G02X20062Y125782I-353J354D01*
G01Y131742D01*
X12058D01*
Y123738D01*
X18018D01*
G02X18372Y122885I0J-500D01*
G01X12118Y116632D01*
Y96941D01*
G02X11327Y96535I-500J0D01*
G03X7860Y90600I-2015J-2803D01*
G01Y63923D01*
X7433Y63495D01*
G02X6579Y63859I-354J354D01*
G03X3397Y60677I-3251J69D01*
G02X3761Y59823I10J-500D01*
G01X3532Y59595D01*
Y48909D01*
X11655Y40786D01*
X11673Y40723D01*
G03X12118Y39969I1639J459D01*
G01Y-9472D01*
X27378D01*
X27390Y-9708D01*
G03X30397Y-10710I1700J88D01*
G02X31186Y-10737I384J-320D01*
G03X34625Y-9710I1539J1117D01*
G01X34636Y-9472D01*
X43459D01*
G02X43812Y-10325I0J-500D01*
G01X34978Y-19159D01*
Y-21841D01*
G03X37882I1452J-889D01*
G01Y-20361D01*
X45381Y-12862D01*
X65704D01*
G02X66002Y-13763I0J-500D01*
G03X73753I3876J-5220D01*
G02X74051Y-12862I298J401D01*
G01X89301D01*
X95391Y-6772D01*
X127609D01*
X152454Y-31616D01*
X198668D01*
Y-32790D01*
X142282D01*
Y-24078D01*
X96278D01*
Y-32790D01*
X25400D01*
G37*
G36*
G01X329236Y166310D02*
G02X328846Y167123I0J500D01*
G03X326194I-1326J1067D01*
G02X325804Y166310I-390J-313D01*
G01X301498D01*
G02X301167Y167184I1J500D01*
G03X299636Y166803I-1130J1273D01*
G01X299827Y166757D01*
Y166310D01*
X299040D01*
X298930Y166200D01*
Y165741D01*
X298726Y165703D01*
G03Y162357I314J-1673D01*
G01X298930Y162319D01*
Y150830D01*
X283629D01*
X283589Y151031D01*
G03X283069Y151956I-1670J-330D01*
G02Y152694I337J369D01*
G03X280771I-1149J1256D01*
G02Y151956I-337J-369D01*
G03X280251Y151031I1150J-1255D01*
G01X280211Y150830D01*
X263948D01*
Y158022D01*
X256544D01*
Y150830D01*
X253198D01*
G02X252847Y151686I0J500D01*
G03X252095Y157527I-2601J2634D01*
G02X252006Y158329I249J434D01*
G03X249210Y158574I-1286J1401D01*
G02X248983Y157800I-397J-304D01*
G03X247645Y151686I1263J-3480D01*
G02X247294Y150830I-351J-356D01*
G01X241760D01*
Y128480D01*
X213460D01*
Y116635D01*
G03Y113825I960J-1405D01*
G01Y112882D01*
X213058D01*
Y105478D01*
X213460D01*
Y103489D01*
X213305Y103425D01*
G03X212863Y103140I552J-1342D01*
G01X210657D01*
G03X208669I-994J-1057D01*
G01X204851D01*
G03X202863I-994J-1057D01*
G01X200657D01*
G03X198669I-994J-1057D01*
G01X194851D01*
G03X192863I-994J-1057D01*
G01X184894D01*
G02X184421Y103801I0J500D01*
G03X181199I-1611J549D01*
G02X180726Y103140I-473J-161D01*
G01X170657D01*
G03X168669I-994J-1057D01*
G01X164851D01*
G03X162863I-994J-1057D01*
G01X156290D01*
Y104978D01*
G02X156786Y105478I500J0D01*
G03Y112882I-26J3702D01*
G02X156290Y113382I4J500D01*
G01Y133210D01*
X182329D01*
G02X182810Y132576I-1J-500D01*
G03X186090I1640J-456D01*
G02X186571Y133210I482J134D01*
G01X190830D01*
Y137241D01*
X190858Y137295D01*
G03Y139047I-1688J876D01*
G01X190830Y139101D01*
Y146820D01*
X201560D01*
X202550Y147810D01*
Y151461D01*
G02X203186Y151942I500J0D01*
G03Y155218I462J1638D01*
G02X202550Y155699I-136J481D01*
G01Y164880D01*
X202330Y165100D01*
X198530D01*
Y160060D01*
G02X197896Y159579I-500J1D01*
G03X196445Y159320I-456J-1640D01*
G01X191988D01*
G03X189372I-1308J-1381D01*
G01X186470D01*
X186360Y159430D01*
Y164930D01*
X186190Y165100D01*
X180500D01*
Y160638D01*
G03X179682Y159688I790J-1508D01*
G02X179142Y159356I-473J163D01*
G03X179753Y156191I-232J-1686D01*
G02X180500Y155757I247J-434D01*
G01Y151000D01*
X173090D01*
Y156500D01*
X172000Y157590D01*
X170435D01*
G02X170053Y158413I0J500D01*
G03X167147I-1453J1227D01*
G02X166765Y157590I-382J-323D01*
G01X163765D01*
G03X160815I-1475J-850D01*
G01X158210D01*
Y151220D01*
X138720D01*
X138500Y151440D01*
Y156230D01*
X138330Y156400D01*
X135315D01*
X135253Y156559D01*
G03X131707I-1773J-689D01*
G01X131645Y156400D01*
X94791D01*
X94735Y156430D01*
G03X93125I-805J-1500D01*
G01X93069Y156400D01*
X87973D01*
G02X87514Y157098I0J500D01*
G03X87139Y158988I-1564J672D01*
G02X87142Y159705I350J357D01*
G03X84771Y159712I-1182J1225D01*
G02X84768Y158995I-350J-357D01*
G03X84386Y157098I1182J-1225D01*
G02X83927Y156400I-459J-198D01*
G01X69395D01*
X69345Y156422D01*
G03X67775I-785J-1732D01*
G01X67725Y156400D01*
X44810D01*
Y133374D01*
G02X44351Y132876I-500J0D01*
G03Y129484I139J-1696D01*
G02X44810Y128986I-41J-498D01*
G01Y99782D01*
X44128D01*
Y92878D01*
X44810D01*
Y88390D01*
G03Y84270I2770J-2060D01*
G01Y78390D01*
G03Y74270I2770J-2060D01*
G01Y68390D01*
G03Y64270I2770J-2060D01*
G01Y24270D01*
X38310D01*
X38200Y24224D01*
Y14690D01*
X38530Y14360D01*
X172750D01*
Y-2440D01*
X172920Y-2610D01*
X190710D01*
Y-21720D01*
X187054D01*
G03X183246I-1904J-3520D01*
G01X177054D01*
G03X173300Y-21692I-1903J-3520D01*
G01X173245Y-21720D01*
X171380D01*
X152490Y-2830D01*
X93200D01*
X87360Y-8670D01*
X34373D01*
G03X31077I-1648J-950D01*
G01X30502D01*
G03X27678I-1412J-950D01*
G01X12920D01*
Y38983D01*
G02X13395Y39482I500J0D01*
G03X13771Y42821I-83J1700D01*
G01X13708Y42839D01*
X12920Y43627D01*
Y116300D01*
X33890Y137270D01*
Y170110D01*
X119263D01*
G03X131037I5887J4650D01*
G01X236920D01*
Y191460D01*
X453340D01*
X478720Y166080D01*
Y150032D01*
X474198D01*
Y144928D01*
X474338D01*
G02X474733Y144122I0J-500D01*
G03X477979Y140323I2017J-1562D01*
G02X478720Y139885I241J-438D01*
G01Y98904D01*
X477312D01*
G03X474542Y96135I0J-2770D01*
G01Y91702D01*
X475892D01*
Y67320D01*
X474542D01*
Y62887D01*
G03X477310Y60118I2769J0D01*
G01X478720D01*
Y5390D01*
X465252Y-8078D01*
X465149D01*
G03X457648Y-15579I1J-7502D01*
G01Y-15682D01*
X449601Y-23729D01*
G02X448793Y-23582I-353J354D01*
G03X443492Y-28883I-3643J-1658D01*
G02X443639Y-29691I-207J-455D01*
G01X441590Y-31740D01*
X440532D01*
Y-31282D01*
X440737Y-31244D01*
G03X439321Y-30861I-307J1674D01*
G02X438995Y-31740I-326J-379D01*
G01X389570D01*
Y-9770D01*
X437500D01*
X449680Y2410D01*
Y33410D01*
X458428Y42158D01*
X466882D01*
Y50262D01*
X460830D01*
X460310Y50782D01*
Y162780D01*
X388080D01*
Y125330D01*
X359290D01*
X354780Y129840D01*
Y141368D01*
G02X355289Y141868I500J0D01*
G03Y145272I31J1702D01*
G02X354780Y145772I-9J500D01*
G01Y166310D01*
X329236D01*
G37*
G36*
G01X173552Y-1808D02*
Y15162D01*
X171479D01*
G02X171139Y16028I0J500D01*
G03X169640Y19842I-1499J1612D01*
G01X150102D01*
X140342Y29602D01*
Y38418D01*
G03X135938I-2202J3282D01*
G01Y27778D01*
X147702Y16015D01*
G02X147348Y15162I-354J-353D01*
G01X39002D01*
Y18109D01*
G02X39864Y18453I500J0D01*
G03Y21487I1596J1517D01*
G02X39002Y21831I-362J344D01*
G01Y23468D01*
X45612D01*
Y62661D01*
G02X46297Y63125I500J0D01*
G03Y69535I1283J3205D01*
G02X45612Y69999I-185J464D01*
G01Y72661D01*
G02X46297Y73125I500J0D01*
G03X50713Y77780I1283J3205D01*
G01X50640Y77938D01*
X53005Y80304D01*
X54175D01*
X54234Y80137D01*
G03Y82523I3346J1193D01*
G01X54175Y82356D01*
X52155D01*
X49188Y79390D01*
X49030Y79463D01*
G03X46297Y79535I-1450J-3133D01*
G02X45612Y79999I-185J464D01*
G01Y82661D01*
G02X46297Y83125I500J0D01*
G03Y89535I1283J3205D01*
G02X45612Y89999I-185J464D01*
G01Y92878D01*
X51032D01*
Y99782D01*
X45612D01*
Y129900D01*
G03Y132460I-1122J1280D01*
G01Y155598D01*
X66193D01*
G02X66686Y155013I0J-500D01*
G03X70434I1874J-323D01*
G02X70927Y155598I493J85D01*
G01X91734D01*
G02X92233Y155060I1J-500D01*
G03X95627I1697J-130D01*
G02X96126Y155598I498J38D01*
G01X99028D01*
Y152808D01*
X99828Y152008D01*
X103158D01*
Y143612D01*
X102221D01*
X102179Y143810D01*
G03X100270Y145356I-1909J-406D01*
G01X96712D01*
X96687Y145332D01*
X94060D01*
X79154Y130426D01*
G03X81914Y127666I1380J-1380D01*
G01X94485Y140237D01*
G02X95338Y139884I353J-354D01*
G01Y134598D01*
X99788D01*
Y130052D01*
G03Y127408I1072J-1322D01*
G01Y125802D01*
X74991D01*
G03X71889I-1551J-1102D01*
G01X68062D01*
Y126322D01*
X73288Y131548D01*
Y135960D01*
G03X68884I-2202J0D01*
G01Y133372D01*
X63658Y128146D01*
Y120743D01*
G02X63018Y120263I-500J0D01*
G03Y116997I-478J-1633D01*
G02X63658Y116517I140J-480D01*
G01Y51608D01*
X82158Y33108D01*
X122662D01*
X127374Y37821D01*
X127501Y37800D01*
G03X124240Y41061I639J3900D01*
G01X124261Y40934D01*
X120838Y37512D01*
X83982D01*
X68062Y53432D01*
Y59428D01*
G02X68932Y59764I500J0D01*
G03X71118Y62335I1263J1141D01*
G02Y63175I271J420D01*
G03X68932Y65746I-923J1430D01*
G02X68062Y66082I-370J336D01*
G01Y102238D01*
X85583D01*
G02X86061Y101594I0J-500D01*
G03X89319I1629J-494D01*
G02X89797Y102238I478J144D01*
G01X94588D01*
Y100297D01*
G02X94030Y99800I-500J-1D01*
G03Y96420I-200J-1690D01*
G02X94588Y95923I58J-496D01*
G01Y95589D01*
X94312D01*
X94286Y95594D01*
G03X94053Y92232I-356J-1664D01*
G02X94588Y91734I35J-498D01*
G01Y82548D01*
X95388Y81748D01*
X106372D01*
Y91438D01*
X108108D01*
G02X108483Y90608I0J-500D01*
G03X110899Y90975I1427J-1258D01*
G01X110778Y91048D01*
Y91438D01*
X111708D01*
G02X112208Y90946I0J-500D01*
G03X115612I1702J24D01*
G02X116112Y91438I500J-8D01*
G01X129752D01*
X133092Y94778D01*
Y114602D01*
X132938Y114755D01*
G02X133292Y115608I354J353D01*
G01X133668D01*
Y71368D01*
X136198D01*
Y60208D01*
X143250D01*
Y58553D01*
X137658Y52962D01*
X97412D01*
X92574Y57800D01*
G02X92962Y58652I353J353D01*
G03X91382Y60232I118J1698D01*
G02X90530Y59844I-499J-35D01*
G01X88682Y61692D01*
Y66676D01*
G02X89513Y67050I500J0D01*
G03X91660Y70157I1261J1424D01*
G02X91588Y70995I233J442D01*
G03X91762Y73538I-1038J1348D01*
G02X91801Y74275I357J351D01*
G03X89531Y76808I-1081J1315D01*
G02X88682Y77165I-349J357D01*
G01Y89098D01*
G02X89513Y89472I500J0D01*
G03Y92316I1263J1422D01*
G02X88682Y92690I-331J374D01*
G01Y92910D01*
G03X84278I-2202J0D01*
G01Y59868D01*
X95588Y48558D01*
X139482D01*
X147652Y56729D01*
Y57566D01*
G02X148318Y58038I500J0D01*
G03X150581Y59694I562J1606D01*
G02X151081Y60208I500J14D01*
G01X153642D01*
Y79518D01*
X154792Y80668D01*
X188968D01*
Y41522D01*
X188192Y40745D01*
G03X188369Y40318I177J-177D01*
G01X192948D01*
Y32222D01*
G02X192095Y31868I-500J0D01*
G01X187242Y36722D01*
X179139D01*
G03Y32318I0J-2202D01*
G01X185418D01*
X195708Y22028D01*
X250382D01*
X254022Y25668D01*
X254196D01*
G02X254676Y25028I0J-500D01*
G03X257942I1633J-478D01*
G02X258422Y25668I480J140D01*
G01X261088D01*
X261778Y24979D01*
G02X261604Y24159I-354J-353D01*
G03X263804Y21959I611J-1589D01*
G02X264624Y22133I467J-180D01*
G01X271038Y15718D01*
X296069D01*
X297629Y14158D01*
X308102D01*
X311792Y17848D01*
X346088D01*
X347958Y15978D01*
X382992D01*
X386702Y19688D01*
Y25700D01*
G03X384500Y27902I-2202J0D01*
G01X381912D01*
X374702Y35112D01*
Y41288D01*
X378639D01*
G02X379018Y40463I-1J-500D01*
G03X381468Y38108I1292J-1107D01*
G02X382308Y37742I340J-366D01*
G01Y32700D01*
G03X382953Y31143I2202J0D01*
G01X390598Y23498D01*
Y15522D01*
X387218Y12142D01*
X348346D01*
G02X347854Y12732I0J500D01*
G03X344506I-1674J308D01*
G02X344014Y12142I-492J-90D01*
G01X338032D01*
X333982Y16192D01*
X314258D01*
X311538Y13472D01*
X262221D01*
G02X261757Y14156I0J500D01*
G03X261267Y16091I-1582J629D01*
G02X261283Y16870I321J383D01*
G03X259154Y16914I-1037J1350D01*
G02X259138Y16135I-321J-383D01*
G03X258593Y14156I1037J-1350D01*
G02X258129Y13472I-464J-184D01*
G01X253882D01*
X246582Y20772D01*
X194712D01*
X187232Y28252D01*
X178882D01*
X171197Y35937D01*
G03X168083Y32823I-1557J-1557D01*
G01X177058Y23848D01*
X185408D01*
X192888Y16368D01*
X244758D01*
X252058Y9068D01*
X313362D01*
X316082Y11788D01*
X317249D01*
G02X317667Y11014I0J-500D01*
G03X320513I1423J-934D01*
G02X320931Y11788I418J274D01*
G01X332158D01*
X336208Y7738D01*
X389042D01*
X395002Y13698D01*
Y25322D01*
X386712Y33612D01*
Y100863D01*
X374368Y113206D01*
Y122190D01*
G03X373780Y123688I-2202J0D01*
G02X374146Y124528I366J340D01*
G01X388882D01*
Y161978D01*
X459508D01*
Y153182D01*
X418968D01*
X418168Y152382D01*
Y123147D01*
G02X417501Y122677I-500J1D01*
G03X418733Y118918I-841J-2357D01*
G01X440528D01*
Y111932D01*
X411857D01*
G02X411442Y112710I0J500D01*
G03X408618I-1412J950D01*
G02X408203Y111932I-415J-278D01*
G01X387888D01*
Y98266D01*
G03Y95574I1042J-1346D01*
G01Y34368D01*
X397108Y25148D01*
Y5632D01*
X330506D01*
X330464Y5829D01*
G03X327136I-1664J-359D01*
G01X327094Y5632D01*
X220672D01*
Y15182D01*
X184212D01*
Y21732D01*
X174528D01*
Y-1808D01*
X173552D01*
G37*
G36*
G01X95390Y94807D02*
Y97428D01*
X95408Y97473D01*
G03Y98747I-1578J637D01*
G01X95390Y98792D01*
Y103040D01*
X68740D01*
X68520Y103260D01*
Y114380D01*
X87601D01*
X87700Y114359D01*
X87722Y114350D01*
G03X89059Y114359I658J1570D01*
G01X89107Y114380D01*
X109898D01*
Y109398D01*
X117302D01*
Y114380D01*
X123598D01*
Y109598D01*
X130602D01*
Y114380D01*
X132180D01*
X132290Y114270D01*
Y95110D01*
X129420Y92240D01*
X115043D01*
G03X112777I-1133J-1270D01*
G01X105570D01*
Y82550D01*
X95720D01*
X95390Y82880D01*
Y93053D01*
X95421Y93109D01*
G03Y94751I-1491J821D01*
G01X95390Y94807D01*
G37*
G36*
G01X148318Y61250D02*
G02X147652Y61722I-166J472D01*
G01Y62470D01*
G03X143250I-2201J0D01*
G01Y61010D01*
X137000D01*
Y62881D01*
G02X137886Y63198I500J-1D01*
G03Y65362I1314J1082D01*
G02X137000Y65679I-386J318D01*
G01Y72120D01*
X136950Y72170D01*
X134470D01*
Y116410D01*
X130902D01*
Y116902D01*
X123298D01*
Y116410D01*
X117302D01*
Y116802D01*
X109898D01*
Y116410D01*
X90019D01*
X89955Y116565D01*
G03X86805I-1575J-645D01*
G01X86741Y116410D01*
X68540D01*
Y125000D01*
X71047D01*
G02X71545Y124542I0J-500D01*
G03X75335I1895J158D01*
G02X75833Y125000I498J-42D01*
G01X100590D01*
Y133710D01*
X107050D01*
Y127960D01*
X119342D01*
G03X122115Y127581I1518J770D01*
G02X122868Y127563I369J-338D01*
G03X126046Y127960I1462J1217D01*
G01X134580D01*
Y124950D01*
X144500D01*
Y90530D01*
X218140D01*
Y94977D01*
X218151Y95012D01*
G03X218212Y95428I-1391J416D01*
G01Y95662D01*
X218357Y95729D01*
G03Y102631I-1597J3451D01*
G01X218212Y102698D01*
Y102932D01*
G03X218151Y103348I-1452J0D01*
G01X218140Y103383D01*
Y105478D01*
X220462D01*
Y112882D01*
X218140D01*
Y126430D01*
X234440D01*
Y116515D01*
X234421Y116468D01*
X234420Y116467D01*
G03Y115153I1570J-657D01*
G01X234421Y115152D01*
X234440Y115105D01*
Y111737D01*
G02X233555Y111418I-500J0D01*
G03Y108222I-1925J-1598D01*
G02X234440Y107903I385J-319D01*
G01Y103637D01*
G02X233555Y103318I-500J0D01*
G03Y100122I-1925J-1598D01*
G02X234440Y99803I385J-319D01*
G01Y89303D01*
G03X234045Y87274I1130J-1273D01*
G02X233598Y86552I-448J-222D01*
G01X232448D01*
Y83910D01*
X223190D01*
Y38095D01*
X223171Y38048D01*
X223170Y38047D01*
G03Y36733I1570J-657D01*
G01X223171Y36732D01*
X223190Y36685D01*
Y28240D01*
X214980D01*
Y32360D01*
X214950Y32330D01*
X193750D01*
Y41120D01*
X189770D01*
Y81470D01*
X154460D01*
X152840Y79850D01*
Y61010D01*
X149895D01*
G03X148318Y61250I-1015J-1366D01*
G37*
G36*
G01X137230Y126440D02*
Y129850D01*
X125902D01*
G03X122758I-1572J-1070D01*
G01X122142D01*
G03X119578I-1282J-1120D01*
G01X119057D01*
G02X118861Y130255I0J250D01*
G03X117703Y133003I-1336J1055D01*
G02X117256Y133484I53J497D01*
G03X113884Y133108I-1701J-53D01*
G02X113436Y132516I-491J-94D01*
G03X111922Y130457I149J-1696D01*
G02X111434Y129850I-488J-107D01*
G01X108680D01*
Y135400D01*
X106667D01*
G02X106207Y136095I0J500D01*
G03X103073I-1567J665D01*
G02X102613Y135400I-460J-195D01*
G01X96140D01*
Y141428D01*
X98303D01*
X98328Y141454D01*
X100270D01*
G03X102072Y142656I0J1952D01*
G01X102136Y142810D01*
X103960D01*
Y152520D01*
X103670Y152810D01*
X102683D01*
X102633Y152833D01*
G03X101217I-708J-1548D01*
G01X101167Y152810D01*
X100160D01*
X99830Y153140D01*
Y155570D01*
X131592D01*
X131641Y155384D01*
G03X135319I1839J486D01*
G01X135368Y155570D01*
X137370D01*
X137670Y155270D01*
Y150170D01*
X159917D01*
X159944Y150164D01*
G03X160075Y153901I416J1856D01*
G02X159500Y154395I-75J494D01*
G01Y155850D01*
X160839D01*
G03X163741I1451J890D01*
G01X172288D01*
Y150198D01*
X172400D01*
Y149870D01*
X181400D01*
Y157419D01*
X181604Y157457D01*
G03Y160803I-314J1673D01*
G01X181400Y160841D01*
Y162760D01*
X182480Y163840D01*
X185530D01*
Y157310D01*
X188878D01*
X188944Y157162D01*
G03X189696Y156312I1735J778D01*
G02X189676Y155445I-259J-428D01*
G03X191442Y155361I814J-1495D01*
G02X191505Y156225I280J414D01*
G03X192416Y157162I-825J1714D01*
G01X192482Y157310D01*
X195851D01*
X195920Y157173D01*
G03X199034Y157342I1520J766D01*
G01X199053Y157393D01*
X199410Y157750D01*
Y163810D01*
X201748D01*
Y148688D01*
X200760Y147700D01*
X190070D01*
Y147622D01*
X190028D01*
Y140546D01*
G02X189454Y140052I-500J0D01*
G03X189211Y140073I-285J-1881D01*
G02X189017Y140473I6J250D01*
G03X187220Y139856I-1357J1027D01*
G02X187523Y139123I-130J-483D01*
G03X189454Y136290I1647J-952D01*
G02X190028Y135796I74J-494D01*
G01Y134012D01*
X155488D01*
Y133990D01*
X154290D01*
Y126440D01*
X146534D01*
G02X146077Y127142I0J500D01*
G03X142963I-1557J688D01*
G02X142506Y126440I-457J-202D01*
G01X142000D01*
G02X141536Y127128I-1J500D01*
G03X138384I-1576J642D01*
G02X137920Y126440I-463J-188D01*
G01X137230D01*
G37*
G36*
G01X153656Y-28714D02*
X129428Y-4485D01*
G02X129781Y-3632I353J353D01*
G01X152158D01*
X171048Y-22522D01*
X171233D01*
G02X171668Y-23268I0J-500D01*
G03X172145Y-27883I3482J-1972D01*
G02X171770Y-28714I-375J-331D01*
G01X153656D01*
G37*
G36*
G01X145302Y91332D02*
Y125638D01*
X155488D01*
Y112657D01*
G03Y105703I1272J-3477D01*
G01Y102657D01*
G03X159627Y101522I1272J-3477D01*
G02X160014Y102338I387J316D01*
G01X163769D01*
G02X164142Y101506I0J-500D01*
G03X169378I2618J-2326D01*
G02X169751Y102338I373J332D01*
G01X173506D01*
G02X173893Y101522I0J-500D01*
G03X179627I2867J-2342D01*
G02X180014Y102338I387J316D01*
G01X183506D01*
G02X183893Y101522I0J-500D01*
G03X189627I2867J-2342D01*
G02X190014Y102338I387J316D01*
G01X193769D01*
G02X194142Y101506I0J-500D01*
G03X199378I2618J-2326D01*
G02X199751Y102338I373J332D01*
G01X203769D01*
G02X204142Y101506I0J-500D01*
G03X209378I2618J-2326D01*
G02X209751Y102338I373J332D01*
G01X213769D01*
G02X214142Y101506I0J-500D01*
G03X216829Y95679I2618J-2326D01*
G02X217338Y95179I9J-500D01*
G01Y91332D01*
X195404D01*
G02X194969Y92079I0J500D01*
G03X192011I-1479J841D01*
G02X191576Y91332I-435J-247D01*
G01X145302D01*
G37*
G36*
G01X199470Y-31770D02*
Y-9520D01*
G03Y-7300I-1290J1110D01*
G01Y-1260D01*
X175330D01*
Y20930D01*
X183410D01*
Y17852D01*
G02X182647Y17427I-500J0D01*
G03X182979Y14803I-897J-1446D01*
G02X183410Y14630I181J-173D01*
G01Y14380D01*
X219870D01*
Y4830D01*
X240169D01*
G02X240634Y4148I-1J-500D01*
G03X243806I1586J-618D01*
G02X244271Y4830I466J182D01*
G01X314626D01*
G02X315090Y4144I0J-500D01*
G03X318250I1580J-634D01*
G02X318714Y4830I464J186D01*
G01X327216D01*
X327285Y4694D01*
G03X330315I1515J776D01*
G01X330384Y4830D01*
X397910D01*
Y25480D01*
X388690Y34700D01*
Y94968D01*
G02X388939Y95218I250J0D01*
G03Y98622I-9J1702D01*
G02X388690Y98872I1J250D01*
G01Y111130D01*
X440150D01*
Y92297D01*
G03Y89283I1160J-1507D01*
G01Y76048D01*
G02X439275Y75717I-500J0D01*
G03Y73463I-1275J-1127D01*
G02X440150Y73132I375J-331D01*
G01Y-3430D01*
X436840Y-6740D01*
X380870D01*
Y-31770D01*
X199470D01*
G37*
G36*
G01X191512Y-12012D02*
Y-2062D01*
X198668D01*
Y-11900D01*
G02X197833Y-12271I-500J0D01*
G03X192360Y-12371I-2683J-2969D01*
G02X191512Y-12012I-348J359D01*
G37*
G36*
G01X299453Y18562D02*
X297893Y20122D01*
X272862D01*
X262912Y30072D01*
X252198D01*
X248558Y26432D01*
X245632D01*
Y53362D01*
X230028Y68965D01*
Y69774D01*
X230453D01*
X230513Y69610D01*
G03X230917Y72046I2349J862D01*
G02X230028Y72361I-389J314D01*
G01Y73297D01*
X231647Y74915D01*
G03X228533Y78029I-1557J1557D01*
G01X225626Y75121D01*
Y67141D01*
X241228Y51538D01*
Y26432D01*
X213306D01*
G02X212814Y27022I0J500D01*
G03X209466I-1674J308D01*
G02X208974Y26432I-492J-90D01*
G01X197532D01*
X193288Y30675D01*
G02X193642Y31528I354J353D01*
G01X214178D01*
Y27438D01*
X223992D01*
Y83108D01*
X232448D01*
Y78548D01*
X240452D01*
Y86552D01*
X237543D01*
G02X237095Y87274I0J500D01*
G03X235703Y89727I-1525J756D01*
G02X235242Y90225I39J498D01*
G01Y117936D01*
G02X236045Y118333I500J0D01*
G03Y121035I1035J1351D01*
G02X235242Y121432I-303J397D01*
G01Y127678D01*
X242562D01*
Y150028D01*
X280349D01*
X280420Y149897D01*
G03X283420I1500J803D01*
G01X283491Y150028D01*
X286718D01*
Y141838D01*
X294722D01*
Y150028D01*
X299732D01*
Y162468D01*
X299861Y162539D01*
G03X300110Y162707I-824J1489D01*
G02X300518Y162512I158J-194D01*
G01Y161399D01*
X305238Y156678D01*
X310308D01*
X350816Y116170D01*
X352149D01*
G02X352457Y115277I-1J-500D01*
G03X352960Y111999I1172J-1498D01*
G02X353137Y111177I-176J-468D01*
G03X355149Y111610I1343J-1347D01*
G02X354972Y112432I176J468D01*
G03X354801Y115277I-1343J1347D01*
G02X355109Y116170I309J393D01*
G01X358834D01*
Y99983D01*
G02X358583Y99733I-250J0D01*
G03X359982Y97066I-3J-1702D01*
G02X360747Y97136I412J-284D01*
G01X368728Y89154D01*
Y68178D01*
X378334Y58573D01*
Y54302D01*
X374168D01*
X370298Y50432D01*
Y48150D01*
G02X369672Y47666I-500J0D01*
G03Y44374I-432J-1646D01*
G02X370298Y43890I126J-484D01*
G01Y34992D01*
G02X369476Y34610I-500J0D01*
G03X366887Y30395I-1616J-1910D01*
G02X367033Y29568I-194J-461D01*
G03X369147Y29727I1157J-1248D01*
G02X369167Y30567I281J414D01*
G03X370308Y32185I-1307J2133D01*
G02X371151Y32435I489J-103D01*
G01X380088Y23498D01*
X382298D01*
Y21512D01*
X381168Y20382D01*
X349782D01*
X347912Y22252D01*
X309968D01*
X307940Y20223D01*
G02X307118Y20403I-353J354D01*
G03X303921Y19231I-1596J-593D01*
G02X303451Y18562I-470J-169D01*
G01X299453D01*
G37*
G36*
G01X214262Y102647D02*
Y105478D01*
X217338D01*
Y103181D01*
G02X216829Y102681I-500J0D01*
G03X215011Y102214I-70J-3501D01*
G02X214262Y102647I-249J433D01*
G37*
G36*
G01X312132Y161082D02*
X307062D01*
X304920Y163223D01*
Y163950D01*
G03X304744Y164813I-2201J1D01*
G02X305204Y165508I460J195D01*
G01X307269D01*
G02X307723Y164798I0J-500D01*
G03X309719Y161668I1996J-929D01*
G01X313831D01*
X313881Y161718D01*
X315139D01*
X355431Y121427D01*
G02X355077Y120574I-354J-353D01*
G01X352640D01*
X312132Y161082D01*
G37*
G36*
G01X353125Y129959D02*
X330033Y153051D01*
G02X330274Y153892I354J354D01*
G03X328232Y155934I-384J1658D01*
G02X327391Y155693I-487J113D01*
G01X318429Y164655D01*
G02X318783Y165508I354J353D01*
G01X353978D01*
Y144617D01*
G03Y142523I1342J-1047D01*
G01Y130313D01*
G02X353125Y129959I-500J0D01*
G37*
G36*
G01X382308Y62032D02*
G02X381455Y61678I-500J0D01*
G01X373132Y70002D01*
Y71142D01*
G02X373833Y71599I500J0D01*
G03Y75081I767J1741D01*
G02X373132Y75538I-201J457D01*
G01Y78101D01*
G02X373789Y78575I500J0D01*
G03X374472Y78480I599J1805D01*
G02X374959Y77798I21J-500D01*
G03X376648Y79005I1771J-693D01*
G02X376161Y79687I-21J500D01*
G03X373789Y82185I-1771J693D01*
G02X373132Y82659I-157J474D01*
G01Y86300D01*
G02X373876Y86736I500J0D01*
G03X375847Y89486I834J1484D01*
G02X375834Y90217I335J372D01*
G03X375743Y92745I-1184J1223D01*
G02X375761Y93526I321J383D01*
G03X375635Y96642I-1151J1514D01*
G02X375597Y97458I269J421D01*
G03X375422Y100262I-1047J1342D01*
G02X375417Y101118I256J430D01*
G03X373658Y101108I-888J1452D01*
G02X373663Y100252I-256J-430D01*
G03X373547Y97425I887J-1452D01*
G02X373535Y96609I-295J-404D01*
G03X373493Y93501I1075J-1569D01*
G02X373528Y92720I-294J-404D01*
G03X373060Y92046I1123J-1279D01*
G02X372239Y91871I-467J178D01*
G01X366106Y98003D01*
G02X366345Y98843I354J353D01*
G03X364008Y100704I-435J1852D01*
G01Y100601D01*
X363758Y100351D01*
X363236Y100873D01*
Y102901D01*
G02X363964Y103346I500J0D01*
G03Y107804I1136J2229D01*
G02X363236Y108249I-228J445D01*
G01Y118689D01*
X362790Y119135D01*
G02X363144Y119988I354J353D01*
G01X369966D01*
Y111382D01*
X382308Y99039D01*
Y62032D01*
G37*
G36*
G01X448878Y33742D02*
Y2742D01*
X437168Y-8968D01*
X388768D01*
Y-11993D01*
G02X387922Y-12354I-500J0D01*
G03X382502Y-12239I-2772J-2886D01*
G02X381672Y-11864I-330J375D01*
G01Y-7542D01*
X437172D01*
X440952Y-3762D01*
Y50248D01*
X459078D01*
Y43942D01*
X448878Y33742D01*
G37*
G36*
G01X457643Y51050D02*
X441330D01*
Y88875D01*
X441549Y88903D01*
G03Y92677I-239J1887D01*
G01X441330Y92705D01*
Y93942D01*
G02X441944Y94429I500J0D01*
G03Y98131I436J1851D01*
G02X441330Y98618I-114J487D01*
G01Y119720D01*
X419660D01*
G02X419161Y120237I1J500D01*
G03X418987Y121238I-2501J81D01*
G01X418970Y121282D01*
Y123433D01*
X418991Y123481D01*
G03X419002Y123508I-1571J656D01*
G02X419761Y123720I462J-191D01*
G03X419765Y126464I1009J1371D01*
G02X418970Y126867I-295J403D01*
G01Y152050D01*
X419300Y152380D01*
X458730D01*
Y149471D01*
G02X458246Y148971I-500J0D01*
G03Y145569I54J-1701D01*
G02X458730Y145069I-16J-500D01*
G01Y51660D01*
G03X457643Y51050I98J-1448D01*
G37*
G36*
G01X442527Y-31936D02*
X445221Y-29243D01*
X445318Y-29238D01*
G03X449148Y-25408I-168J3998D01*
G01X449153Y-25311D01*
X457088Y-17375D01*
G02X457924Y-17594I354J-353D01*
G03X467164Y-8354I7226J2014D01*
G02X466945Y-7518I134J482D01*
G01X479522Y5058D01*
Y60118D01*
X480876D01*
G03X482082Y60394I1J2769D01*
G02X482800Y59944I218J-450D01*
G01Y-390D01*
G02X450400Y-32790I-32400J0D01*
G01X442881D01*
G02X442527Y-31936I-1J500D01*
G37*
G36*
G01X482082Y98628D02*
G03X480876Y98904I-1205J-2493D01*
G01X479522D01*
Y166412D01*
X455195Y190738D01*
G02X455629Y191585I354J354D01*
G02X482800Y159610I-5229J-31975D01*
G01Y99078D01*
G02X482082Y98628I-500J0D01*
G37*
%LPC*%
G75*
G36*
G01X19040Y186852D02*
X19140D01*
G02X19040I-50J-5002D01*
G37*
G36*
G01X19413Y169562D02*
G03X19009Y168768I0J-500D01*
G02X13111I-2949J-2154D01*
G03X12707Y169562I-404J294D01*
G01X10303D01*
G02Y172466I-889J1452D01*
G01X21387D01*
X26851Y167002D01*
X29711D01*
G02Y164098I889J-1452D01*
G01X25649D01*
X20185Y169562D01*
X19413D01*
G37*
G36*
G01X24460Y-15928D02*
X24560D01*
G02X24460I-50J-5002D01*
G37*
G36*
G01X466879Y73552D02*
X467683D01*
G02Y67950I0J-2801D01*
G01X466883D01*
G02X464375Y71999I0J2801D01*
G03X463844Y72714I-448J222D01*
G02X465208Y73958I-282J1679D01*
G03X465872Y73364I483J-128D01*
G02X466879Y73552I1009J-2613D01*
G37*
G36*
G01X222583Y139626D02*
G02X220684Y139578I-914J-1436D01*
G03X220639Y140421I-289J407D01*
G02X219846Y141276I931J1659D01*
G03X219167Y141511I-453J-211D01*
G02X219876Y143876I-768J1519D01*
G03X220572Y143699I434J249D01*
G02X222585Y140471I998J-1619D01*
G03X222583Y139626I266J-423D01*
G37*
G36*
G01X145383Y157298D02*
G02X143632Y157285I-863J-1695D01*
G03X143646Y158161I-234J442D01*
G02X145356Y158174I844J1478D01*
G03X145383Y157298I254J-431D01*
G37*
G36*
G01X152549Y160788D02*
G02X152460Y162887I-1629J982D01*
G03X153276Y162896I405J293D01*
G02X154867Y163621I1401J-966D01*
G03X155403Y163980I55J497D01*
G02X156849Y161819I1636J-470D01*
G03X156313Y161460I-55J-497D01*
G02X153363Y160848I-1636J470D01*
G03X152549Y160788I-386J-318D01*
G37*
G36*
G01X316815Y170758D02*
X311148D01*
Y178762D01*
X319152D01*
Y170758D01*
X318986D01*
Y170349D01*
X319130Y170282D01*
G02X317177Y169914I-721J-1542D01*
G03X316815Y170758I-362J344D01*
G37*
G36*
G01X255195Y169939D02*
G02X253231Y170337I-1255J-1149D01*
G03X253259Y171233I-208J455D01*
G02X255518Y170775I1891J3527D01*
G03X255195Y169939I46J-498D01*
G37*
G36*
G01X244505Y169986D02*
G02X242603Y170671I-1415J-946D01*
G03X242759Y171551I-143J479D01*
G02X244946Y170763I2392J3209D01*
G03X244505Y169986I-25J-499D01*
G37*
G36*
G01X268184Y177370D02*
G02X265338Y178758I-3034J-2610D01*
G03X265854Y179344I24J499D01*
G02X265898Y180124I1676J297D01*
G03X265389Y180765I-479J142D01*
G02X261193Y185356I-239J3995D01*
G03X260676Y185930I-495J74D01*
G02X259880Y186088I-76J1700D01*
G03X259177Y185540I-212J-453D01*
G02X258072Y187639I-4027J-780D01*
G03X258921Y187908I356J351D01*
G02X262167Y188294I1679J-278D01*
G03X262908Y188075I460J195D01*
G02X268050Y182002I2242J-3315D01*
G03X268212Y181199I362J-345D01*
G02X268329Y178137I-682J-1559D01*
G03X268184Y177370I234J-442D01*
G37*
G36*
G01X466020Y14942D02*
X466120D01*
G02X466020I-50J-5002D01*
G37*
G36*
G01X166644Y120853D02*
G03X167154Y120401I498J48D01*
G02X165502Y118537I42J-1701D01*
G03X164992Y118989I-498J-48D01*
G02X166644Y120853I-42J1701D01*
G37*
G36*
G01X202446Y140042D02*
G03X202505Y139393I407J-290D01*
G02X199934Y139159I-1185J-1222D01*
G03X199875Y139808I-407J290D01*
G02X202446Y140042I1185J1222D01*
G37*
G36*
G01X119766Y159133D02*
G03X119318Y159657I-499J27D01*
G02X117793Y161331I177J1693D01*
G03X117541Y161578I-250J-3D01*
G02X119227Y163299I-16J1702D01*
G03X119479Y163052I250J3D01*
G02X121194Y161257I16J-1702D01*
G03X121642Y160733I499J-27D01*
G02X121894Y160687I-179J-1693D01*
G03X122474Y160962I126J484D01*
G02X123591Y158603I1546J-712D01*
G03X123011Y158328I-126J-484D01*
G02X119766Y159133I-1546J712D01*
G37*
G36*
G01X107943Y159527D02*
G03X107496Y160027I-500J3D01*
G02X109363Y161499I179J1693D01*
G03X109615Y161217I248J-32D01*
G02X109661I23J-1702D01*
G03X109914Y161460I3J250D01*
G02X111631Y163112I1701J-50D01*
G03X111883Y163362I2J250D01*
G02X113569Y161658I1702J-2D01*
G03X113317Y161408I-2J-250D01*
G02X111599Y159708I-1702J2D01*
G03X111346Y159465I-3J-250D01*
G02X107943Y159527I-1701J50D01*
G37*
G36*
G01X175155Y163644D02*
G03X175861Y163513I417J277D01*
G02X175429Y161181I984J-1388D01*
G03X174723Y161312I-417J-277D01*
G02X175155Y163644I-984J1388D01*
G37*
G36*
G01X288882Y177556D02*
G03X288583Y176817I130J-483D01*
G02X286118Y178643I-3433J-2057D01*
G03X286739Y179145I121J485D01*
G02X288882Y177556I1701J55D01*
G37*
G36*
G01X466883Y91172D02*
X467683D01*
G02Y85370I0J-2901D01*
G01X466883D01*
G02Y91172I0J2901D01*
G37*
G36*
G01X127528Y77842D02*
G03X127290Y78094I-250J2D01*
G02X127307Y81495I80J1700D01*
G03X127548Y81747I-9J250D01*
G02Y81777I1702J15D01*
G03X127296Y82029I-250J2D01*
G02X128973Y83903I-16J1702D01*
G03X129421Y83456I498J51D01*
G02X129313Y80062I-172J-1693D01*
G03X129072Y79810I9J-250D01*
G02Y79782I-1702J-14D01*
G03X129310Y79530I250J-2D01*
G02X127528Y77842I-80J-1700D01*
G37*
G36*
G01X187032Y42148D02*
X155758D01*
Y50901D01*
G03X155173Y51393I-500J0D01*
G02X153918Y54474I-293J1677D01*
G03X153875Y55326I-282J413D01*
G02X155129Y58464I816J1494D01*
G03X155758Y58947I129J483D01*
G01Y79222D01*
X187032D01*
Y42148D01*
G37*
G36*
G01X72169Y96454D02*
G02X70391I-889J-1452D01*
G03Y97306I-261J426D01*
G02X72169I889J1452D01*
G03Y96454I261J-426D01*
G37*
G36*
G01X112660Y67478D02*
G02X111462Y65323I427J-1648D01*
G03X110820Y65645I-477J-150D01*
G02X108602Y68487I-630J1795D01*
G03X108220Y69261I-417J275D01*
G02X109806Y70095I119J1698D01*
G03X110227Y69342I431J-253D01*
G02X112047Y67853I-37J-1902D01*
G03X112660Y67478I488J109D01*
G37*
G36*
G01X216139Y44131D02*
G02X215587Y42258I1061J-1331D01*
G03X214801Y42489I-474J-160D01*
G02X215353Y44362I-1061J1331D01*
G03X216139Y44131I474J160D01*
G37*
G36*
G01X167659Y152166D02*
G03X166937Y151898I-250J-433D01*
G02X166181Y153934I-1607J562D01*
G03X166903Y154202I250J433D01*
G02X167659Y152166I1607J-562D01*
G37*
G36*
G01X129798Y143939D02*
G03X129312Y143431I14J-500D01*
G02X127793Y145097I-1702J-26D01*
G03X128067Y145383I27J248D01*
G02X128052Y145520I1683J254D01*
G03X127721Y145738I-249J-18D01*
G02X128826Y147696I-561J1607D01*
G03X129414Y147308I489J102D01*
G02X129798Y143939I336J-1668D01*
G37*
G36*
G01X164023Y139120D02*
G03X163217I-403J-296D01*
G02X159510Y142704I-2097J1540D01*
G03X159500Y143497I-309J393D01*
G02X163283Y147280I1620J2163D01*
G03X164076Y147270I400J299D01*
G02X168164I2044J-1610D01*
G03X168957Y147280I393J309D01*
G02X173230Y147348I2163J-1620D01*
G03X174010I390J313D01*
G02X177891Y147701I2110J-1688D01*
G03X178718Y148062I327J378D01*
G01X182680D01*
G03X183166Y148679I0J500D01*
G02X184672Y150776I1654J401D01*
G03X185128Y151275I-44J498D01*
G02X185135Y151430I1702J1D01*
G03X184841Y151698I-249J22D01*
G02X186403Y153499I-339J1872D01*
G03X186886Y152981I500J-18D01*
G02X186978Y149584I-55J-1701D01*
G03X186522Y149085I44J-498D01*
G02X184203Y147494I-1702J-5D01*
G03X183522Y147028I-181J-466D01*
G01Y143258D01*
X183404D01*
G03X183036Y142420I0J-500D01*
G02X179023Y139120I-1916J-1760D01*
G03X178217I-403J-296D01*
G02X174023I-2097J1540D01*
G03X173217I-403J-296D01*
G02X169023I-2097J1540D01*
G03X168217I-403J-296D01*
G02X164023I-2097J1540D01*
G37*
G36*
G01X392740Y39433D02*
G03X392735Y38722I349J-358D01*
G02X390340Y38737I-1205J-1202D01*
G03X390345Y39448I-349J358D01*
G02X392740Y39433I1205J1202D01*
G37*
G36*
G01X429132Y96467D02*
G02X425964Y96519I-1567J1078D01*
G03X425144Y96550I-421J-270D01*
G02X425226Y98721I-1519J1144D01*
G03X426046Y98690I421J270D01*
G02X429118Y98643I1519J-1145D01*
G03X429938Y98648I408J289D01*
G02X429952Y96472I1567J-1078D01*
G03X429132Y96467I-408J-289D01*
G37*
G36*
G01X398636Y65212D02*
G02X397344Y64300I223J-1687D01*
G03X396834Y65023I-445J227D01*
G02X398126Y65935I-223J1687D01*
G03X398636Y65212I445J-227D01*
G37*
G36*
G01X359694Y-19304D02*
G02X358443Y-20027I146J-1696D01*
G03X358033Y-19242I-410J285D01*
G01X351148D01*
Y-11396D01*
X350961Y-11347D01*
G02X352891Y-10503I429J1647D01*
G03X353332Y-11238I441J-235D01*
G01X359152D01*
Y-18806D01*
G03X359694Y-19304I500J0D01*
G37*
G36*
G01X275306Y135979D02*
G03X275289Y135291I354J-353D01*
G02X272820Y135351I-1263J-1141D01*
G03X272837Y136039I-354J353D01*
G02X275306Y135979I1263J1141D01*
G37*
G36*
G01X343484Y113887D02*
G03X342892Y113505I-104J-489D01*
G02X340394Y115355I-1662J367D01*
G03X340391Y116227I-246J435D01*
G02X341620Y119369I825J1489D01*
G03X341929Y119621I59J243D01*
G02Y119737I1701J58D01*
G03X341627Y119989I-250J7D01*
G02X342963Y121828I-357J1664D01*
G03X343499Y121381I497J51D01*
G02X344635Y118311I131J-1697D01*
G03X344712Y117457I295J-404D01*
G02X343484Y113887I-833J-1710D01*
G37*
G36*
G01X355309Y91845D02*
G02X354154Y93744I-1679J280D01*
G03X354481Y93995I77J238D01*
G02X354482Y94210I1899J99D01*
G03X354147Y94461I-250J16D01*
G02X355251Y96331I-577J1601D01*
G03X355877Y95928I494J79D01*
G02X358164Y94753I503J-1834D01*
G03X358943Y94534I469J173D01*
G02X358444Y92511I1057J-1334D01*
G03X357652Y92680I-457J-203D01*
G02X355922Y92248I-1272J1414D01*
G03X355309Y91845I-120J-485D01*
G37*
G36*
G01X299465Y21425D02*
G02X296567Y23153I-1335J1056D01*
G03X296107Y23850I-459J197D01*
G01X295131D01*
X295106Y23629D01*
G02X292013Y22860I-1691J196D01*
G03X291248Y22930I-412J-284D01*
G01X290047Y21728D01*
X274040D01*
G02X272483Y22373I0J2202D01*
G01X260522Y34334D01*
G03X259674Y34053I-353J-353D01*
G02X256334Y34693I-1684J247D01*
G03X255848Y35308I-486J115D01*
G01X251058D01*
X246318Y40048D01*
Y54108D01*
X240418Y60008D01*
G02X243532Y63122I1557J1557D01*
G01X250722Y55932D01*
Y41872D01*
X251212Y41382D01*
G03X252032Y41556I353J353D01*
G02X253933Y42617I1588J-612D01*
G03X254229Y42869I46J246D01*
G02X254228Y42933I1701J59D01*
G03X253958Y43185I-250J3D01*
G02X253743Y46581I-138J1696D01*
G03X254217Y47028I-23J499D01*
G02X256256Y48516I1693J-178D01*
G03X256856Y48963I102J490D01*
G02X259767Y47626I1696J-145D01*
G03X259950Y46806I356J-351D01*
G02X257663Y45079I-590J-1596D01*
G03X256880Y45451I-498J-39D01*
G02X255790Y45152I-970J1399D01*
G03X255522Y44900I-18J-249D01*
G02Y44861I-1702J-20D01*
G03X255792Y44609I250J-3D01*
G02X255837Y41214I138J-1696D01*
G03X255313Y40766I-27J-499D01*
G02X255225Y40378I-1693J180D01*
G03X255697Y39712I471J-166D01*
G01X261372D01*
X261721Y39362D01*
G03X262553Y39571I353J354D01*
G02X265885Y39082I1630J-491D01*
G03X266137Y38832I250J0D01*
G02X267845Y36953I15J-1702D01*
G03X268292Y36403I497J-53D01*
G02X268853Y33174I-172J-1693D01*
G03X268714Y32369I215J-452D01*
G01X274952Y26132D01*
X288223D01*
X289757Y27665D01*
G03X289403Y28518I-354J353D01*
G01X287186D01*
X269494Y46211D01*
G03X268660Y45997I-354J-353D01*
G02X266552Y48105I-1635J473D01*
G03X266766Y48939I-139J480D01*
G01X259082Y56622D01*
G03X258238Y56365I-353J-354D01*
G02X255959Y55103I-1670J327D01*
G03X255281Y54656I-178J-467D01*
G02X254189Y56313I-1701J68D01*
G03X254867Y56760I178J467D01*
G02X254883Y56935I1701J-67D01*
G03X254511Y57188I-247J36D01*
G02X255359Y58750I-852J1474D01*
G03X256019Y58303I499J26D01*
G02X256241Y58362I547J-1611D01*
G03X256498Y59206I-97J491D01*
G01X246508Y69196D01*
Y101848D01*
X243205Y105151D01*
G03X242418Y105046I-353J-354D01*
G02X240923Y107592I-1478J844D01*
G03X241418Y108092I-5J500D01*
G01Y111810D01*
G02X242063Y113367I2202J0D01*
G01X260478Y131782D01*
X291359D01*
X296979Y137402D01*
G03X296856Y138199I-353J353D01*
G02X299151Y140494I784J1511D01*
G03X299948Y140371I444J230D01*
G01X304248Y144671D01*
Y146761D01*
G02X308652I2202J1189D01*
G01Y142847D01*
X303866Y138062D01*
G03X304096Y137223I353J-354D01*
G02X305110Y136647I-542J-2134D01*
G01X311239Y130518D01*
X329416D01*
X337692Y122242D01*
Y104065D01*
X350632Y91125D01*
Y80752D01*
X352520D01*
G03X352959Y81491I0J500D01*
G02X355945I1493J817D01*
G03X356384Y80752I439J-239D01*
G01X361667D01*
X365829Y76590D01*
G02X365751Y73756I-1380J-1380D01*
G03X365872Y72931I334J-372D01*
G02X363928Y72574I-722J-1541D01*
G03X363748Y73389I-359J348D01*
G02X363069Y73830I700J1821D01*
G01X360051Y76848D01*
X350632D01*
Y38197D01*
X339435Y27000D01*
G03X339606Y26181I353J-354D01*
G02X337401Y23976I-620J-1585D01*
G03X336582Y24147I-465J-182D01*
G01X336285Y23850D01*
X303608D01*
G03X303148Y23153I-1J-500D01*
G02X300250Y21425I-1563J-672D01*
G03X299465I-393J-310D01*
G37*
G36*
G01X452209Y70638D02*
G03X452924Y70631I361J346D01*
G02X452901Y68252I1206J-1201D01*
G03X452186Y68259I-361J-346D01*
G02X452209Y70638I-1206J1201D01*
G37*
G54D68*
X69484Y5820D03*
X82870D03*
G54D54*
X29590Y188790D03*
X371350Y159340D03*
X16820Y33860D03*
X408450Y120320D03*
X368210Y64376D03*
X438520Y127640D03*
X430420Y133640D03*
G54D67*
X49012Y5820D03*
G54D63*
X166760Y109180D03*
X127100Y123100D03*
G54D55*
X36430Y-14080D03*
X65230Y188772D03*
X470100Y147340D03*
X463320Y158980D03*
X469970Y143270D03*
X453800Y15150D03*
X384820Y132060D03*
X359290Y148090D03*
X359660Y139490D03*
X359540Y130890D03*
X325370Y174750D03*
X263040Y161880D03*
X262970Y168570D03*
X277320Y168457D03*
X269190Y163450D03*
X275200Y161650D03*
X250400Y179310D03*
X231891Y146880D03*
X237080Y151530D03*
X250690Y164170D03*
X206570Y157939D03*
X223229Y162149D03*
X204656Y146500D03*
X214240Y161090D03*
X212880Y142171D03*
X212725Y137495D03*
X201860Y116150D03*
X197799Y143519D03*
X193660Y129980D03*
X180790Y127130D03*
X197420Y126220D03*
X150660Y155639D03*
X171900Y115930D03*
X141055Y162385D03*
X91540Y164960D03*
X68930Y166650D03*
X68790Y159550D03*
X54900Y11950D03*
Y6430D03*
X60410D03*
Y11950D03*
X54900Y920D03*
X60410D03*
X30490Y37050D03*
X28430Y15130D03*
X84300Y147090D03*
X165640Y29040D03*
X164365Y39405D03*
X174510Y38790D03*
X388220Y17000D03*
X395510Y145850D03*
X403990Y118100D03*
X399230Y138990D03*
X405150Y154500D03*
X412770Y148850D03*
X451810Y158980D03*
X446870Y158990D03*
X98130Y94080D03*
X77070Y108380D03*
X101910Y90790D03*
Y101300D03*
X129740Y102470D03*
X120961Y108019D03*
X128490Y95400D03*
X221670Y120840D03*
X226400Y90157D03*
X219130Y74350D03*
X220600Y78410D03*
X206710Y42800D03*
X194710Y64820D03*
X195420Y44210D03*
X200710Y42800D03*
X107520Y124730D03*
X112290Y144180D03*
X116850Y144110D03*
X112310Y148570D03*
X116780Y148600D03*
X127900Y138550D03*
X136135Y138775D03*
X167460Y-23950D03*
X163990Y-26500D03*
X163840Y-20920D03*
X268120Y2550D03*
X314470Y-860D03*
X312230Y-4990D03*
X325207Y-2990D03*
X325905Y-7145D03*
X331080Y1250D03*
X333320Y-2750D03*
X335830Y-7370D03*
X348750Y-13350D03*
X392210Y54150D03*
X392760Y102570D03*
X411650Y15290D03*
X412010Y28748D03*
Y21704D03*
Y7616D03*
X412640Y49880D03*
X427320Y53380D03*
X412010Y42836D03*
Y35792D03*
X422730Y84850D03*
X416310Y71230D03*
X418590Y101840D03*
X407040Y99960D03*
X399840Y96730D03*
X434330Y84760D03*
X428560Y79010D03*
X428550Y84730D03*
X428520Y90530D03*
X434940Y107440D03*
X253553Y50787D03*
X257565Y52755D03*
X241600Y67320D03*
X270089Y39220D03*
X272057Y34927D03*
X277075Y143955D03*
X313140Y149900D03*
X316220Y141560D03*
X320970Y134860D03*
X358940Y71360D03*
X354750Y86260D03*
X353472Y62598D03*
X353762Y101968D03*
X371970Y61450D03*
X350540Y149900D03*
X443842Y8272D03*
X422980Y138570D03*
X451770Y56800D03*
X449155Y78190D03*
X452330Y75430D03*
X452690Y83745D03*
X444590Y111770D03*
X454090Y109630D03*
X433440Y123440D03*
X450580Y125460D03*
X453890Y134530D03*
G54D64*
X109330Y2010D03*
G54D57*
X139150Y184760D03*
X149150D03*
X159150D03*
X169150D03*
X199150D03*
X179150D03*
X189150D03*
X209150D03*
X219150D03*
X229150D03*
X435150Y-15240D03*
X445150D03*
X435150Y-25240D03*
X425150Y184760D03*
X415150D03*
X405150D03*
X415150Y174760D03*
X405150D03*
Y-15240D03*
X415150D03*
X425150D03*
X415150Y-25240D03*
X425150D03*
X395150Y184760D03*
X375150Y174760D03*
X395150D03*
X385150D03*
X395150Y-15240D03*
X365150Y184760D03*
X355150D03*
X365150Y174760D03*
X355150D03*
X345150Y184760D03*
X335150D03*
X345150Y174760D03*
X335150D03*
X315150Y184760D03*
X305150D03*
X295150D03*
X305150Y174760D03*
X295150D03*
X285150Y184760D03*
X275150D03*
Y174760D03*
X245150Y184760D03*
X225150Y-25240D03*
X215150D03*
X205150D03*
X245150D03*
X235150D03*
X285150D03*
X275150D03*
X265150D03*
X285150Y-15240D03*
X275150D03*
X315150Y-25240D03*
X305150D03*
X295150D03*
X315150Y-15240D03*
X305150D03*
X295150D03*
X335150Y-25240D03*
X325150D03*
X335150Y-15240D03*
X325150D03*
X365150Y-25240D03*
X355150D03*
X365150Y-15240D03*
X375150Y-25240D03*
Y-15240D03*
G54D51*
X0Y137750D03*
G54D60*
X405150Y-25240D03*
X375150Y184760D03*
X225150Y-15240D03*
X215150D03*
X245150D03*
X235150D03*
G54D46*
X84445Y-22920D03*
X45469D03*
G54D62*
X206760Y109180D03*
X196760D03*
X186760D03*
X176760D03*
X113600Y123100D03*
X250246Y144320D03*
X260246D03*
G54D58*
X471810Y134370D03*
X474720Y130290D03*
X218399Y132670D03*
X197799Y133880D03*
X162750Y161580D03*
X115555Y158960D03*
X51540Y165550D03*
X60460Y136338D03*
X75830Y150020D03*
X116620Y63550D03*
X120961Y67790D03*
X396260Y121720D03*
X381990Y121080D03*
X414310Y115620D03*
X197070Y151530D03*
X197800Y9430D03*
X402290Y7780D03*
X407080Y56960D03*
X415920Y55960D03*
X423640Y55510D03*
X411990Y106860D03*
X431240Y55210D03*
X256309Y134480D03*
X243090Y121653D03*
X289774Y137150D03*
X343678Y109842D03*
X340955Y155840D03*
X376790Y84210D03*
X453910Y100400D03*
X453840Y94660D03*
X442930Y134530D03*
G54D47*
X0Y0D03*
Y147750D03*
X462830Y26210D03*
G54D61*
X385150Y184760D03*
X395150Y-25240D03*
X185150Y-15240D03*
X205150D03*
G54D50*
X3328Y103732D03*
X57580Y61330D03*
Y71330D03*
Y91330D03*
G54D48*
X0Y10000D03*
Y20000D03*
Y127750D03*
X462830Y36210D03*
G54D65*
X34627Y109440D03*
Y48220D03*
G54D56*
X100150Y-15240D03*
X440150Y173990D03*
G54D66*
X22619Y101330D03*
Y56330D03*
G54D59*
X425150Y174760D03*
X175150Y-15240D03*
X265150D03*
G54D53*
X16060Y158740D03*
G54D45*
X103440Y176843D03*
X85920D03*
G54D52*
X0Y157750D03*
G54D49*
Y30000D03*
X148140Y41700D03*
%LPD*%
G75*
G36*
G01X156560Y42950D02*
Y52797D01*
X156563Y52815D01*
G03Y53325I-1683J255D01*
G01X156560Y53343D01*
Y78420D01*
X186230D01*
Y42950D01*
X156560D01*
G37*
G36*
G01X327175Y28254D02*
G02X326821Y29107I0J500D01*
G01X329813Y32098D01*
X335049D01*
G03Y36502I0J2202D01*
G01X327989D01*
X324409Y32922D01*
X323267D01*
G02X322813Y33632I0J500D01*
G03X319727I-1543J718D01*
G02X319273Y32922I-454J-210D01*
G01X305645D01*
G02X305170Y33578I0J500D01*
G03X301936I-1617J532D01*
G02X301461Y32922I-475J-156D01*
G01X297742D01*
G02X297274Y33596I0J500D01*
G03X297380Y34245I-1595J594D01*
G02X297827Y34757I500J15D01*
G03X295947Y36396I-179J1693D01*
G02X295500Y35884I-500J-15D01*
G03X295477Y35881I209J-1689D01*
G02X295225Y36243I-29J248D01*
G03X292049Y36652I-1514J777D01*
G02X291602Y36046I-488J-108D01*
G03X290199Y33632I140J-1696D01*
G02X289745Y32922I-454J-210D01*
G01X289010D01*
X279426Y42506D01*
G02X279695Y43352I353J353D01*
G03X277732Y45315I-285J1678D01*
G02X276886Y45046I-493J84D01*
G01X250912Y71020D01*
Y103672D01*
X245822Y108762D01*
Y110898D01*
X262302Y127378D01*
X293183D01*
X300581Y134777D01*
G02X301420Y134547I354J-353D01*
G03X301996Y133533I2134J542D01*
G01X309415Y126114D01*
X327592D01*
X333288Y120418D01*
Y102241D01*
X346228Y89301D01*
Y40021D01*
X334461Y28254D01*
X327175D01*
G37*
%LPC*%
G75*
G36*
G01X299415Y122319D02*
G03X298862Y121828I-53J-497D01*
G02X297206Y123551I-1702J22D01*
G03X297718Y124084I13J500D01*
G02X299415Y122319I1898J126D01*
G37*
G36*
G01X277149Y78615D02*
G03X276623Y78168I-29J-499D01*
G02X275031Y80045I-1693J178D01*
G03X275557Y80492I29J499D01*
G02X277149Y78615I1693J-178D01*
G37*
G36*
G01X332810Y73463D02*
G03X333363Y73002I498J36D01*
G02X331852Y71187I187J-1692D01*
G03X331299Y71648I-498J-36D01*
G02X332810Y73463I-187J1692D01*
G37*
G36*
G01X328877Y67481D02*
G03X329324Y66992I500J8D01*
G02X327442Y65269I-180J-1692D01*
G03X326995Y65758I-500J-8D01*
G02X328877Y67481I180J1692D01*
G37*
G36*
G01X311908Y41087D02*
G03X312358Y40506I493J-83D01*
G02X310532Y39093I-148J-1696D01*
G03X310082Y39674I-493J83D01*
G02X311908Y41087I148J1696D01*
G37*
G36*
G01X293511Y116920D02*
G02X291641Y118119I-1768J-700D01*
G03X292090Y118771I-27J499D01*
G02X293915Y117600I1621J519D01*
G03X293511Y116920I61J-496D01*
G37*
G36*
G01X258036Y99666D02*
G02X256812Y97917I474J-1635D01*
G03X256174Y98364I-499J-33D01*
G02X257398Y100113I-474J1635D01*
G03X258036Y99666I499J33D01*
G37*
G36*
G01X269253Y96987D02*
G02Y99053I-1353J1033D01*
G03X270047I397J303D01*
G02Y96987I1353J-1033D01*
G03X269253I-397J-303D01*
G37*
G36*
G01X344439Y83866D02*
G02X342697Y83568I-626J-1583D01*
G03X342529Y84419I-328J377D01*
G02X344314Y84724I611J1801D01*
G03X344439Y83866I309J-393D01*
G37*
G36*
G01X334567Y77935D02*
G02X333116Y78807I-1486J-830D01*
G03X333563Y79550I10J500D01*
G02X335014Y78678I1486J830D01*
G03X334567Y77935I-10J-500D01*
G37*
G54D55*
X254153Y76377D03*
X283650Y52060D03*
X277790Y49330D03*
X270330Y56320D03*
X286050Y47480D03*
X282630Y84760D03*
X270450Y74409D03*
X268080Y62600D03*
X263280Y71640D03*
X260940Y65480D03*
X258710Y69270D03*
X280900Y63370D03*
X262860Y97940D03*
X281730Y114560D03*
X301580Y49880D03*
X289774Y38890D03*
X314080Y104800D03*
X311490Y98000D03*
X305100Y98070D03*
X309459Y106400D03*
X340630Y38100D03*
X319390Y42690D03*
X319301Y38371D03*
X337018Y84210D03*
X325207Y71310D03*
X315033Y82283D03*
X319301Y97960D03*
X343571Y58661D03*
G54D69*
X161740Y46550D03*
G54D58*
X254520Y105905D03*
X260700Y113779D03*
X281900Y123560D03*
X311427Y117760D03*
X338986Y88220D03*
X323238Y90140D03*
X321270Y101910D03*
%LPD*%
G75*
G54D10*
G01X419530Y-70820D02*
Y-170820D01*
X19530D01*
G01D02*
Y-70820D01*
X419530D01*
X-4360Y-7940D03*
X-5270Y4050D03*
Y14240D03*
X-5200Y23330D03*
Y42740D03*
Y56320D03*
Y69900D03*
Y90270D03*
Y103850D03*
Y117440D03*
X-3330Y169850D03*
X2900Y180670D03*
X19230Y-30470D03*
X6790Y-24520D03*
X29090Y-9620D03*
X14210Y-22750D03*
X14200Y-14080D03*
X28430Y15130D03*
X13312Y41182D03*
X30490Y37050D03*
X31622Y144802D03*
X7530Y148170D03*
Y154960D03*
Y161780D03*
X28870Y149010D03*
X24570Y149080D03*
X9414Y171014D03*
X30600Y165550D03*
X10570Y186790D03*
X21180Y190610D03*
X32338Y180308D03*
X58920Y-28800D03*
X52130D03*
X58920Y-15220D03*
Y-22010D03*
X52130D03*
Y-15220D03*
X36430Y-22730D03*
Y-14080D03*
X60410Y920D03*
X54900D03*
X41970Y27630D03*
X60410Y11950D03*
Y6430D03*
X54900D03*
Y11950D03*
X60410Y17460D03*
X54870D03*
X51750Y60430D03*
X42030Y33230D03*
X51310Y42270D03*
X56820D03*
Y36760D03*
X51310D03*
X51970Y71040D03*
X52180Y90260D03*
X44490Y131180D03*
X50512Y144802D03*
X50182Y180308D03*
X72430Y-28870D03*
X65640D03*
X69450Y57650D03*
X76050Y50430D03*
X70195Y60905D03*
X69610Y67820D03*
X77190Y73290D03*
X77260Y87300D03*
X86480Y67070D03*
X70195Y64605D03*
X69450Y92470D03*
X69350Y100960D03*
X86380Y97670D03*
X87690Y101100D03*
X88380Y115920D03*
X77070Y108380D03*
X71280Y98758D03*
Y95002D03*
X86480Y92910D03*
X74534Y129084D03*
X80534Y129046D03*
X87540Y129870D03*
X71470Y121310D03*
X62540Y118630D03*
X64800Y133370D03*
X84360Y143300D03*
X84300Y147090D03*
X79910Y154460D03*
X85950Y157770D03*
X85960Y160930D03*
X68790Y159550D03*
X68930Y166650D03*
X64970Y177760D03*
X65230Y188772D03*
X62130Y181520D03*
X116050Y27590D03*
X95680Y57520D03*
X93080Y60350D03*
X99930Y39260D03*
X105440D03*
X110960D03*
X113710Y42020D03*
X108200D03*
X102680D03*
X97140Y42110D03*
X90720Y75590D03*
X111890Y78860D03*
X90960Y65170D03*
X116040Y78810D03*
X101330Y85110D03*
X113087Y65830D03*
X108339Y70959D03*
X91000Y85030D03*
X90550Y72344D03*
X117024Y67980D03*
X101180Y75800D03*
X93930Y93930D03*
X93830Y98110D03*
X102041Y107361D03*
X101910Y90790D03*
Y101300D03*
X109910Y101070D03*
X113910Y90970D03*
X98130Y94080D03*
X100270Y143405D03*
X100860Y128730D03*
X109290Y132360D03*
X112290Y144180D03*
X116850Y144110D03*
X115555Y133430D03*
X113585Y130820D03*
X104640Y136760D03*
X93330Y129640D03*
X98820Y132490D03*
X107520Y124730D03*
X101850Y140690D03*
X93930Y154930D03*
X91540Y164960D03*
X113585Y163360D03*
X109645Y159515D03*
X107675Y161720D03*
X112310Y148570D03*
X116780Y148600D03*
X111615Y161410D03*
X99798Y173572D03*
X101817Y154513D03*
X101925Y151285D03*
X133730Y-5450D03*
X126680Y24810D03*
X134150Y54200D03*
X133610Y58570D03*
X120180Y78780D03*
X131980Y81630D03*
X131250Y64190D03*
X139200Y64280D03*
X134010Y66770D03*
X130290Y66840D03*
X129230Y77830D03*
X127280Y83731D03*
X129250Y81763D03*
X127370Y79794D03*
X129740Y102470D03*
X120961Y108019D03*
X128490Y95400D03*
X139960Y127770D03*
X127900Y138550D03*
X120860Y128730D03*
X117525Y131310D03*
X144520Y127830D03*
X127610Y143405D03*
X136135Y138775D03*
X117525Y163280D03*
X121465Y159040D03*
X124020Y160250D03*
X143150Y168500D03*
X141055Y162385D03*
X119495Y161350D03*
X144490Y159639D03*
X139440Y152650D03*
X136260Y152980D03*
X129750Y145640D03*
X127160Y147345D03*
X167460Y-23950D03*
X160890Y-24100D03*
X163990Y-26500D03*
X163840Y-20920D03*
X169860Y-4540D03*
X169750Y-20D03*
X165640Y29040D03*
X164365Y39405D03*
X157760Y49580D03*
X169720Y49620D03*
X165350Y49770D03*
X154880Y53070D03*
X148880Y59644D03*
X154690Y56820D03*
X157760Y75810D03*
X157740Y68200D03*
X157610Y61590D03*
X171900Y115930D03*
X163060Y92590D03*
X171190Y128010D03*
X167196Y118700D03*
X164950Y120690D03*
X158610Y119910D03*
X149710Y120120D03*
X154677Y161930D03*
X168510Y153640D03*
X152790Y168370D03*
X155980Y152340D03*
X171377Y153160D03*
X150660Y155639D03*
X165330Y152460D03*
X162290Y156740D03*
X157039Y163510D03*
X180390Y-4510D03*
X175100D03*
X198180Y-8410D03*
X193620Y-7770D03*
X181750Y15980D03*
X176320Y15870D03*
X181830Y19560D03*
X176380Y19530D03*
X177710Y49140D03*
X183140D03*
X200710Y42800D03*
X196170Y34710D03*
X196230Y39420D03*
X195420Y44210D03*
X174510Y38790D03*
X194710Y64820D03*
X193490Y92920D03*
X182810Y104350D03*
X197420Y126220D03*
X193710Y145500D03*
X201060Y141030D03*
X180790Y127130D03*
X194320Y134610D03*
X184450Y132120D03*
X193660Y129980D03*
X197799Y143519D03*
X187660Y141500D03*
X201320Y138171D03*
X178910Y157670D03*
X184820Y149080D03*
X186830Y151280D03*
X190490Y153950D03*
X181290Y159130D03*
X174060Y152350D03*
X200506Y162574D03*
X197440Y157939D03*
X187494Y162736D03*
X184352Y162630D03*
X176845Y162125D03*
X173739Y162700D03*
X218390Y29540D03*
X211140Y27330D03*
X217200Y42800D03*
X218170Y37220D03*
X206710Y42800D03*
X213740Y43820D03*
X224740Y37390D03*
X229650Y37560D03*
X227480Y54370D03*
X220600Y78410D03*
X219130Y74350D03*
X226400Y90157D03*
X214420Y115230D03*
X201860Y116150D03*
X215761Y134550D03*
X225850Y129560D03*
X212290Y127140D03*
X218399Y143030D03*
X212725Y137495D03*
X212880Y142171D03*
X209850Y134930D03*
X201860Y126800D03*
X221670Y120840D03*
Y138190D03*
X224660Y145750D03*
X214240Y161090D03*
X204656Y146500D03*
X223229Y162149D03*
X203648Y162602D03*
Y153580D03*
X206570Y157939D03*
X242220Y3530D03*
X238690Y-4110D03*
X252570Y18580D03*
X248850Y32460D03*
X256309Y24550D03*
X243150Y10410D03*
X255910Y46850D03*
X253820Y44881D03*
X257990Y34300D03*
X234820Y37560D03*
X239820Y37590D03*
X253553Y50787D03*
X257565Y52755D03*
X253580Y54724D03*
X256568Y56692D03*
X253659Y58661D03*
X255930Y42913D03*
X253620Y40944D03*
X237330Y53360D03*
X254153Y76377D03*
X241600Y67320D03*
X254260Y72420D03*
X255020Y69320D03*
X241975Y61565D03*
X235570Y88030D03*
X236172Y74472D03*
X235412Y67530D03*
X242510Y99360D03*
X235990Y115810D03*
X240940Y105890D03*
X243620Y111810D03*
X255700Y99999D03*
X253612Y109842D03*
X237080Y119684D03*
X231891Y124531D03*
X236855Y157085D03*
X253940Y168790D03*
X243090Y169040D03*
X250690Y164170D03*
X237080Y151530D03*
X231891Y146880D03*
X250400Y179310D03*
X268120Y2550D03*
X262720Y16720D03*
X260175Y14785D03*
X260246Y18220D03*
X270100Y14510D03*
X274040Y23930D03*
X262215Y22570D03*
X279390Y6740D03*
X286120Y14560D03*
X274190Y50310D03*
X283868Y34950D03*
X279410Y45030D03*
X283650Y52060D03*
X277790Y49330D03*
X270330Y56320D03*
X267025Y46470D03*
X259360Y45210D03*
X270089Y39220D03*
X266152Y37130D03*
X264183Y39080D03*
X286050Y47480D03*
X258552Y48818D03*
X268120Y34710D03*
X272057Y34927D03*
X275994Y34200D03*
X279931Y34031D03*
X281160Y72500D03*
X280960Y67180D03*
X280980Y78460D03*
X282630Y84760D03*
X270450Y74409D03*
X274760Y74770D03*
X286270Y66980D03*
X286240Y79410D03*
X277250Y80314D03*
X274930Y78346D03*
X268080Y62600D03*
X263280Y71640D03*
X260940Y65480D03*
X258710Y69270D03*
X280900Y63370D03*
X271400Y98020D03*
X258510Y98031D03*
X267900Y98020D03*
X262860Y97940D03*
X281730Y114560D03*
X277075Y143955D03*
X274100Y137180D03*
X274026Y134150D03*
X275200Y161650D03*
X269190Y163450D03*
X281920Y153950D03*
Y150700D03*
X277320Y168457D03*
X262970Y168570D03*
X263040Y161880D03*
X260600Y187630D03*
X267530Y179640D03*
X314470Y-860D03*
X312230Y-4990D03*
X293415Y23825D03*
X295447Y14757D03*
X298130Y22480D03*
X301585D03*
X302234Y7970D03*
X305522Y19810D03*
X312210Y34410D03*
X293880Y49710D03*
X297648Y36450D03*
X303553Y34110D03*
X310230Y41370D03*
X312210Y38810D03*
X301580Y49880D03*
X295679Y34191D03*
X289774Y38890D03*
X293711Y37020D03*
X291742Y34350D03*
X310980Y66950D03*
X298640Y73140D03*
X298670Y84390D03*
X298660Y66930D03*
X310980Y79300D03*
X298632Y79330D03*
X313370Y101830D03*
X308260Y98110D03*
X314080Y104800D03*
X311490Y98000D03*
X305100Y98070D03*
X309459Y106400D03*
X297160Y121850D03*
X293711Y119290D03*
X308790Y134780D03*
X297640Y139710D03*
X302420Y145450D03*
X303553Y135090D03*
X306140Y163840D03*
X297970Y155160D03*
X313140Y149900D03*
X299040Y164030D03*
X310450Y146030D03*
X300037Y168457D03*
X288440Y179200D03*
X325207Y-2990D03*
X325905Y-7145D03*
X316670Y3510D03*
X331080Y1250D03*
X333320Y-2750D03*
X335830Y-7370D03*
X341250Y16940D03*
X319090Y10080D03*
X328800Y5470D03*
X338986Y24596D03*
X335060Y38600D03*
X338390Y34460D03*
X335049Y34300D03*
X321270Y34350D03*
X340630Y38100D03*
X319390Y42690D03*
X319301Y38371D03*
X337018Y84210D03*
X333081Y77105D03*
X329144Y65300D03*
X327175Y67450D03*
X325207Y71310D03*
X321980Y84260D03*
X321910Y79280D03*
X322010Y73100D03*
X333550Y71310D03*
X315033Y82283D03*
X335049Y80380D03*
X331112Y73340D03*
X341230Y113872D03*
X319301Y97960D03*
X325400Y135160D03*
X341216Y117716D03*
X341270Y121653D03*
X316220Y141560D03*
X320970Y134860D03*
X332910Y155490D03*
X327520Y168190D03*
X318410Y168740D03*
X329890Y155550D03*
X325370Y174750D03*
X359840Y-21000D03*
X348750Y-13350D03*
X351390Y-9700D03*
X357650Y14940D03*
X368190Y28320D03*
X361820Y27220D03*
X346180Y13040D03*
X357104Y27406D03*
X360150Y49618D03*
X348632Y34362D03*
X369240Y46020D03*
X353810Y51427D03*
X343571Y58661D03*
X365150Y71390D03*
X357935Y86310D03*
X354452Y82308D03*
X358940Y71360D03*
X353780Y75229D03*
X343813Y82283D03*
X354750Y86260D03*
X353472Y62598D03*
X356683Y64590D03*
X361017Y64453D03*
X357640Y113860D03*
X363430Y92130D03*
X353630Y92125D03*
X353570Y96062D03*
X360000Y93200D03*
X358580Y98031D03*
X353762Y101968D03*
X343150Y103936D03*
X350920Y124090D03*
X343630Y119684D03*
X350440Y139270D03*
X355320Y143570D03*
X359530Y126590D03*
X359540Y130890D03*
Y135190D03*
X359660Y139490D03*
X359380Y143790D03*
X344170Y155840D03*
X350540Y149900D03*
X359290Y148090D03*
X387480Y-10130D03*
X388530Y20050D03*
X388220Y17000D03*
X382680Y14940D03*
X377720Y14930D03*
X391550Y40650D03*
X380310Y39355D03*
X391530Y37520D03*
X392210Y54150D03*
X398860Y63525D03*
X377360Y67525D03*
X396610Y66710D03*
X374710Y88220D03*
X371970Y61450D03*
X374650Y91440D03*
X374550Y98800D03*
X371660Y105580D03*
X392760Y102570D03*
X388930Y96920D03*
X374530Y102570D03*
X389760Y109780D03*
X384820Y132060D03*
X378550Y123510D03*
X371210Y141610D03*
X395710Y149240D03*
X391150Y166530D03*
X395510Y145850D03*
X411650Y15290D03*
X412010Y28748D03*
Y21704D03*
Y7616D03*
X412640Y49880D03*
X427320Y53380D03*
X412010Y42836D03*
Y35792D03*
X422730Y84850D03*
X416310Y71230D03*
X425595Y71980D03*
X402610Y66490D03*
X419030Y94550D03*
X422730Y115080D03*
X417710Y115180D03*
X418590Y101840D03*
X407040Y99960D03*
X399840Y96730D03*
X410030Y113660D03*
X399460Y142550D03*
X412550Y118920D03*
X420770Y125090D03*
X403990Y118100D03*
X399230Y138990D03*
X406350Y124700D03*
X417430Y124160D03*
X412650Y141130D03*
X422980Y138570D03*
X405150Y154500D03*
X412770Y148850D03*
X415400Y160890D03*
X401150Y166660D03*
X426080Y159840D03*
X448910Y-31370D03*
X440430Y-29570D03*
X454210Y-22570D03*
X450078Y-192D03*
X444752Y4272D03*
X431665Y3815D03*
X443842Y8272D03*
X453800Y15150D03*
X447490Y21160D03*
X431665Y32585D03*
Y24995D03*
Y18085D03*
Y10885D03*
X442490Y55750D03*
X446450Y53100D03*
X446460Y58390D03*
X451770Y56800D03*
X431665Y46555D03*
Y39345D03*
X449155Y78190D03*
X434330Y84760D03*
X428560Y79010D03*
X442490Y61030D03*
X446380Y63670D03*
X452330Y75430D03*
X438000Y74590D03*
X428550Y84730D03*
X450980Y69460D03*
X454130Y69430D03*
X442350Y75460D03*
Y86650D03*
X431505Y71955D03*
X452690Y83745D03*
X428520Y90530D03*
X444590Y111770D03*
X434940Y107440D03*
X454090Y109630D03*
X433440Y123440D03*
X450580Y125460D03*
X453890Y134530D03*
X451810Y158980D03*
X443110Y158860D03*
X446870Y158990D03*
X460810Y-29170D03*
X481170Y-4060D03*
X471250Y-5650D03*
X473900Y-19970D03*
X481010Y2700D03*
Y13530D03*
Y24360D03*
X456660Y43580D03*
X456300Y48850D03*
X481010Y35190D03*
Y46020D03*
X481040Y56870D03*
X463563Y74393D03*
X481100Y121730D03*
X469970Y143270D03*
X463320Y158980D03*
X470100Y147340D03*
X458300Y147270D03*
X455825Y179065D03*
G54D20*
X16060Y158740D03*
G54D11*
X0Y0D03*
Y10000D03*
Y20000D03*
Y127750D03*
Y137750D03*
Y147750D03*
X128140Y41700D03*
X138140D03*
X462830Y26210D03*
Y36210D03*
G54D30*
X110472Y188654D03*
G54D12*
X0Y30000D03*
Y157750D03*
X148140Y41700D03*
X462830Y46210D03*
G54D21*
X16060Y166614D03*
G54D40*
G01X0Y0D02*
X3080Y-3080D01*
G01X-3080Y3080D02*
X0Y0D01*
G01D02*
X3080Y3080D01*
G01X-3080Y-3080D02*
X0Y0D01*
G01D02*
X4002D01*
G01X-4002D02*
X0D01*
G01D02*
Y4002D01*
G01Y-4002D02*
Y0D01*
G01X602Y66654D02*
X3328Y63928D01*
G01D02*
X6054Y66654D01*
G01X602Y61202D02*
X3328Y63928D01*
G01D02*
X6830D01*
G01X-174D02*
X3328D01*
G01D02*
Y67430D01*
G01Y60426D02*
Y63928D01*
G01X0Y147750D02*
X3080Y144670D01*
G01X-3080D02*
X0Y147750D01*
G01Y143748D02*
Y147750D01*
G01X-3080Y150830D02*
X0Y147750D01*
G01D02*
X3080Y150830D01*
G01X0Y147750D02*
X4002D01*
G01X-4002D02*
X0D01*
G01D02*
Y151752D01*
G01Y157750D02*
X4002Y153748D01*
G01X-4002Y161752D02*
X0Y157750D01*
G01D02*
X4002Y161752D01*
G01X-4002Y153748D02*
X0Y157750D01*
G01D02*
X4002D01*
G01X-4002D02*
X0D01*
G01D02*
Y161752D01*
G01Y153748D02*
Y157750D01*
G01X9312Y93732D02*
Y63322D01*
X4984Y58994D01*
Y49510D01*
X13312Y41182D01*
G01X9414Y171014D02*
X20786D01*
X26250Y165550D01*
X30600D01*
G01X45469Y-22920D02*
X49071Y-31022D01*
G01X41867D02*
X45469Y-22920D01*
G01Y-31022D02*
Y-22920D01*
G01D02*
X49071Y-14818D01*
G01X45469Y-22920D02*
X49071D01*
G01X41867D02*
X45469D01*
G01D02*
Y-14818D01*
G01X199955Y-30165D02*
X153055D01*
X128210Y-5320D01*
X94790D01*
X88700Y-11410D01*
X44780D01*
X36430Y-19760D01*
Y-22730D01*
G01X84445Y-22920D02*
X88047Y-31022D01*
G01X80843D02*
X84445Y-22920D01*
G01Y-31022D02*
Y-22920D01*
G01X80843Y-14818D02*
X84445Y-22920D01*
G01D02*
X88047Y-14818D01*
G01X84445Y-22920D02*
X88047D01*
G01X80843D02*
X84445D01*
G01D02*
Y-14818D01*
G01X127100Y113100D02*
X130852Y109348D01*
G01X123348D02*
X127100Y113100D01*
G01D02*
X130852D01*
G01X123348D02*
X127100D01*
G01Y109348D02*
Y113100D01*
G01Y123100D02*
X130003Y120197D01*
G01X124197Y126003D02*
X127100Y123100D01*
G01D02*
X130003Y126003D01*
G01X124197Y120197D02*
X127100Y123100D01*
G01D02*
X130852D01*
G01X123348D02*
X127100D01*
G01D02*
Y126852D01*
G01Y119348D02*
Y123100D01*
G01X161740Y46550D02*
X163795Y44495D01*
G01X159685Y48605D02*
X161740Y46550D01*
G01D02*
X163795Y48605D01*
G01X159685Y44495D02*
X161740Y46550D01*
G01D02*
X164292D01*
G01X159188D02*
X161740D01*
G01D02*
Y49102D01*
G01Y43998D02*
Y46550D01*
G01X166760Y99180D02*
X169663Y96277D01*
G01X163857Y102083D02*
X166760Y99180D01*
G01D02*
X169663Y102083D01*
G01X163857Y96277D02*
X166760Y99180D01*
G01D02*
X170512D01*
G01X163008D02*
X166760D01*
G01Y95428D02*
Y99180D01*
G01Y109180D02*
X169663Y106277D01*
G01X163857Y112083D02*
X166760Y109180D01*
G01D02*
X169663Y112083D01*
G01X163857Y106277D02*
X166760Y109180D01*
G01D02*
X170512D01*
G01X163008D02*
X166760D01*
G01D02*
Y112932D01*
G01Y105428D02*
Y109180D01*
G01X169150Y174760D02*
X172265Y171645D01*
G01X166035D02*
X169150Y174760D01*
G01X166035Y177875D02*
X169150Y174760D01*
G01D02*
X172265Y177875D01*
G01X169150Y174760D02*
X173202D01*
G01X165098D02*
X169150D01*
G01D02*
Y178812D01*
G01X199980Y-30190D02*
X199955Y-30165D01*
G01X185150Y-15240D02*
X188265Y-18355D01*
G01X182035Y-12125D02*
X185150Y-15240D01*
G01D02*
X188265Y-12125D01*
G01X182035Y-18355D02*
X185150Y-15240D01*
G01D02*
X189202D01*
G01X181098D02*
X185150D01*
G01D02*
Y-11188D01*
G01Y-19292D02*
Y-15240D01*
G01X196760Y99180D02*
X199663Y96277D01*
G01X193857Y102083D02*
X196760Y99180D01*
G01D02*
X199663Y102083D01*
G01X193857Y96277D02*
X196760Y99180D01*
G01D02*
X200512D01*
G01X193008D02*
X196760D01*
G01Y95428D02*
Y99180D01*
G01X181120Y145660D02*
X183772Y143008D01*
G01X178468Y148312D02*
X181120Y145660D01*
G01D02*
X183772D01*
G01X181120D02*
Y148312D01*
G01X205150Y-15240D02*
X208265Y-18355D01*
G01X202035Y-12125D02*
X205150Y-15240D01*
G01D02*
X208265Y-12125D01*
G01X202035Y-18355D02*
X205150Y-15240D01*
G01D02*
X209202D01*
G01X201098D02*
X205150D01*
G01D02*
Y-11188D01*
G01Y-19292D02*
Y-15240D01*
G01X206760Y99180D02*
X209663Y96277D01*
G01X203857Y102083D02*
X206760Y99180D01*
G01D02*
X209663Y102083D01*
G01X203857Y96277D02*
X206760Y99180D01*
G01D02*
X210512D01*
G01X203008D02*
X206760D01*
G01Y95428D02*
Y99180D01*
G01X213857Y102083D02*
X216760Y99180D01*
G01X213857Y96277D02*
X216760Y99180D01*
G01X213008D02*
X216760D01*
G01D02*
Y102932D01*
G01Y95428D02*
Y99180D01*
G01X395150Y-25240D02*
X398265Y-28355D01*
G01X392035Y-22125D02*
X395150Y-25240D01*
G01D02*
X398265Y-22125D01*
G01X392035Y-28355D02*
X395150Y-25240D01*
G01D02*
X399202D01*
G01X391098D02*
X395150D01*
G01D02*
Y-21188D01*
G01Y-29292D02*
Y-25240D01*
G01X385150Y184760D02*
X388265Y181645D01*
G01X382035Y187875D02*
X385150Y184760D01*
G01D02*
X388265Y187875D01*
G01X382035Y181645D02*
X385150Y184760D01*
G01D02*
X389202D01*
G01X381098D02*
X385150D01*
G01D02*
Y188812D01*
G01Y180708D02*
Y184760D01*
G01X462830Y26210D02*
X465910Y23130D01*
G01X459750Y29290D02*
X462830Y26210D01*
G01D02*
X465910Y29290D01*
G01X459750Y23130D02*
X462830Y26210D01*
G01D02*
X466832D01*
G01X458828D02*
X462830D01*
G01D02*
Y30212D01*
G01Y22208D02*
Y26210D01*
G01X458828Y44209D02*
X462830Y46210D01*
G01X458828Y50212D02*
X462830Y46210D01*
G01X458828D02*
X462830D01*
G54D31*
X139150Y174760D03*
Y184760D03*
X175150Y-25240D03*
X149150Y174760D03*
X159150D03*
X169150D03*
X149150Y184760D03*
X159150D03*
X169150D03*
X195150Y-25240D03*
X185150D03*
X195150Y-15240D03*
X185150D03*
X189150Y174760D03*
X199150D03*
X179150D03*
X199150Y184760D03*
X179150D03*
X189150D03*
X225150Y-25240D03*
X215150D03*
X205150D03*
X225150Y-15240D03*
X215150D03*
X205150D03*
X209150Y174760D03*
X219150D03*
X209150Y184760D03*
X219150D03*
X229150D03*
X245150Y-25240D03*
X235150D03*
X245150Y-15240D03*
X235150D03*
X245150Y174760D03*
X255150D03*
X245150Y184760D03*
X255150D03*
X285150Y-25240D03*
X275150D03*
X265150D03*
X285150Y-15240D03*
X275150D03*
X265150Y174760D03*
X275150D03*
X285150D03*
X265150Y184760D03*
X275150D03*
X285150D03*
X315150Y-25240D03*
X305150D03*
X295150D03*
X315150Y-15240D03*
X305150D03*
X295150D03*
Y174760D03*
X305150D03*
X295150Y184760D03*
X305150D03*
X315150D03*
X335150Y-25240D03*
X325150D03*
X335150Y-15240D03*
X325150D03*
X335150Y174760D03*
X345150D03*
X335150Y184760D03*
X345150D03*
X365150Y-25240D03*
X355150D03*
X365150Y-15240D03*
X355150Y174760D03*
X365150D03*
X355150Y184760D03*
X365150D03*
X385150Y-25240D03*
X375150D03*
X395150D03*
Y-15240D03*
X385150D03*
X375150D03*
X385150Y174760D03*
X395150D03*
X375150D03*
X395150Y184760D03*
X375150D03*
X385150D03*
X425150Y-25240D03*
X415150D03*
X405150D03*
X425150Y-15240D03*
X415150D03*
X405150D03*
Y174760D03*
X415150D03*
X405150Y184760D03*
X415150D03*
X425150D03*
X445150Y-25240D03*
X435150D03*
X445150Y-15240D03*
X435150D03*
G54D13*
X3328Y63928D03*
Y103732D03*
X9312Y53928D03*
Y93732D03*
X57580Y61330D03*
X47580Y86330D03*
Y76330D03*
Y66330D03*
X57580Y71330D03*
Y81330D03*
Y91330D03*
G54D22*
X45469Y-22920D03*
X84445D03*
G54D41*
G01X80534Y129046D02*
X94868Y143380D01*
X97495D01*
X97520Y143405D01*
X100270D01*
G01X364449Y75210D02*
X360859Y78800D01*
X348430D01*
G54D32*
X161120Y145660D03*
X166120D03*
X171120D03*
X161120Y140660D03*
X166120D03*
X171120D03*
X176120Y145660D03*
Y140660D03*
X181120D03*
G54D23*
X49012Y5820D03*
X69484D03*
X82870D03*
G54D14*
X24460Y-20930D03*
X19040Y181850D03*
X466020Y9940D03*
G54D42*
G01X25400Y-35390D02*
X450400D01*
G03X485400Y-390I0J35000D01*
G01Y159610D01*
G03X450400Y194610I-35000J0D01*
G01X25300D01*
G03X-9700Y159610I0J-35000D01*
G01X-9600Y-380D01*
Y-390D01*
G03X25400Y-35390I35000J0D01*
G54D33*
X181120Y145660D03*
G54D15*
X16820Y33860D03*
X29590Y188790D03*
X161740Y46550D03*
X232862Y70472D03*
X231630Y101720D03*
Y109820D03*
X306450Y147950D03*
X367860Y32700D03*
X368210Y64376D03*
X365100Y105575D03*
X371350Y159340D03*
X408450Y120320D03*
X416660D03*
X438520Y127640D03*
X430420Y133640D03*
G54D24*
G01X71086Y135960D02*
Y132460D01*
X65860Y127234D01*
Y52520D01*
X83070Y35310D01*
X121750D01*
X128140Y41700D01*
G01X86480Y67070D02*
Y60780D01*
X96500Y50760D01*
X138570D01*
X145451Y57641D01*
Y62470D01*
G01X86480Y67070D02*
Y92910D01*
G01X138140Y41700D02*
Y28690D01*
X149190Y17640D01*
X169640D01*
G01Y34380D02*
X177970Y26050D01*
X186320D01*
X193800Y18570D01*
X245670D01*
X252970Y11270D01*
X312450D01*
X315170Y13990D01*
X333070D01*
X337120Y9940D01*
X388130D01*
X392800Y14610D01*
Y24410D01*
X384510Y32700D01*
G01X179139Y34520D02*
X186330D01*
X196620Y24230D01*
X243430D01*
G01D02*
Y52450D01*
X227827Y68053D01*
Y74209D01*
X230090Y76472D01*
G01X243430Y24230D02*
X249470D01*
X253110Y27870D01*
X262000D01*
X271950Y17920D01*
X296981D01*
X298541Y16360D01*
X307190D01*
X310880Y20050D01*
X347000D01*
X348870Y18180D01*
X382080D01*
X384500Y20600D01*
Y25700D01*
G01X274040Y23930D02*
X260460Y37510D01*
X251970D01*
X248520Y40960D01*
Y55020D01*
X241975Y61565D01*
G01X283868Y34950D02*
X248710Y70108D01*
Y102760D01*
X243620Y107850D01*
Y111810D01*
G01X306450Y147950D02*
Y143759D01*
X292271Y129580D01*
X261390D01*
X243620Y111810D01*
G01X274040Y23930D02*
X289135D01*
X292130Y26925D01*
X294700D01*
X295573Y26052D01*
X335373D01*
X348430Y39109D01*
Y78800D01*
G01X283868Y34950D02*
X288098Y30720D01*
X325321D01*
X328901Y34300D01*
X335049D01*
G01X348430Y78800D02*
Y90213D01*
X335490Y103153D01*
Y121330D01*
X328504Y128316D01*
X310327D01*
X303553Y135090D01*
G01X309719Y163870D02*
X312919D01*
X312969Y163920D01*
X316051D01*
X357780Y122191D01*
X357783Y122190D01*
X372167D01*
G01X302719Y163950D02*
Y162311D01*
X306150Y158880D01*
X311220D01*
X351728Y118372D01*
X360440D01*
G01D02*
X361035Y117777D01*
Y99961D01*
X370930Y90066D01*
Y69090D01*
X380535Y59485D01*
Y52100D01*
G01X384500Y25700D02*
X381000D01*
X372500Y34200D01*
Y49520D01*
X375080Y52100D01*
X380535D01*
G01X384510Y32700D02*
Y64382D01*
G01D02*
Y99951D01*
X372167Y112294D01*
Y122190D01*
X41460Y19970D03*
X52170Y126860D03*
X71086Y135960D03*
X109330Y2010D03*
X92397Y19030D03*
X169640Y17640D03*
Y34380D03*
X179139Y34520D03*
G54D43*
G01X24158Y-166020D02*
X24707Y-166520D01*
X25333Y-166720D01*
X25960Y-166520D01*
X26508Y-165920D01*
X26900Y-165020D01*
X27057Y-164120D01*
Y-163020D01*
X26900Y-162120D01*
X26508Y-161320D01*
X26038Y-160920D01*
X25490Y-160720D01*
X24863Y-160920D01*
X24393Y-161320D01*
X24080Y-161920D01*
X23923Y-162720D01*
X24080Y-163420D01*
X24472Y-164120D01*
X24942Y-164520D01*
X25490Y-164620D01*
X26117Y-164420D01*
X26587Y-163920D01*
X27057Y-163020D01*
G01X38090Y-166720D02*
X37463Y-166620D01*
X36915Y-166220D01*
X36445Y-165620D01*
X36132Y-164920D01*
X35975Y-164120D01*
Y-163320D01*
X36132Y-162520D01*
X36445Y-161820D01*
X36915Y-161220D01*
X37463Y-160820D01*
X38090Y-160720D01*
X38717Y-160820D01*
X39265Y-161220D01*
X39735Y-161820D01*
X40048Y-162520D01*
X40205Y-163320D01*
Y-164120D01*
X40048Y-164920D01*
X39735Y-165620D01*
X39265Y-166220D01*
X38717Y-166620D01*
X38090Y-166720D01*
G01X42902D02*
Y-160720D01*
X45878D01*
G01X44782Y-163620D02*
X42902D01*
G01X56990Y-166720D02*
Y-160720D01*
X56050Y-161920D01*
G01Y-166720D02*
X57930D01*
G01X61802Y-161720D02*
X62272Y-161120D01*
X62820Y-160820D01*
X63447Y-160720D01*
X64230Y-160920D01*
X64778Y-161420D01*
X64935Y-162020D01*
X64857Y-162620D01*
X64543Y-163120D01*
X62977Y-164120D01*
X62272Y-164820D01*
X61802Y-165820D01*
X61645Y-166720D01*
X64935D01*
G01X30938Y-147820D02*
Y-143820D01*
X33622Y-147820D01*
Y-143820D01*
G01X35855Y-147820D02*
X38305Y-143820D01*
G01X35855D02*
X38305Y-147820D01*
G01X40713D02*
Y-143820D01*
X42113D01*
X42580Y-144020D01*
X42930Y-144487D01*
X43047Y-145020D01*
X42930Y-145553D01*
X42638Y-145953D01*
X42113Y-146153D01*
X40713D01*
G01X46680Y-147953D02*
X46563Y-147887D01*
Y-147753D01*
X46680Y-147687D01*
X46797Y-147753D01*
Y-147887D01*
X46680Y-147953D01*
G01X31280Y-139820D02*
X30813Y-139753D01*
X30405Y-139487D01*
X30055Y-139087D01*
X29822Y-138620D01*
X29705Y-138087D01*
Y-137553D01*
X29822Y-137020D01*
X30055Y-136553D01*
X30405Y-136153D01*
X30813Y-135887D01*
X31280Y-135820D01*
X31747Y-135887D01*
X32155Y-136153D01*
X32505Y-136553D01*
X32738Y-137020D01*
X32855Y-137553D01*
Y-138087D01*
X32738Y-138620D01*
X32505Y-139087D01*
X32155Y-139487D01*
X31747Y-139753D01*
X31280Y-139820D01*
G01X34913D02*
Y-135820D01*
X36372D01*
X36838Y-136020D01*
X37130Y-136287D01*
X37247Y-136820D01*
X37130Y-137353D01*
X36780Y-137687D01*
X36372Y-137887D01*
X34913D01*
G01X36372D02*
X37247Y-139820D01*
G01X44980Y-135820D02*
X46380D01*
G01X45680D02*
Y-139820D01*
G01X44980D02*
X46380D01*
G01X49138D02*
Y-135820D01*
X51822Y-139820D01*
Y-135820D01*
G01X58913Y-139820D02*
Y-135820D01*
X60313D01*
X60780Y-136020D01*
X61130Y-136487D01*
X61247Y-137020D01*
X61130Y-137553D01*
X60838Y-137953D01*
X60313Y-138153D01*
X58913D01*
G01X63422Y-139820D02*
X64880Y-135820D01*
X66338Y-139820D01*
G01X65813Y-138420D02*
X63947D01*
G01X68513Y-139820D02*
Y-135820D01*
X69972D01*
X70438Y-136020D01*
X70730Y-136287D01*
X70847Y-136820D01*
X70730Y-137353D01*
X70380Y-137687D01*
X69972Y-137887D01*
X68513D01*
G01X69972D02*
X70847Y-139820D01*
G01X74480Y-135820D02*
Y-139820D01*
G01X73138Y-135820D02*
X75822D01*
G01X82330D02*
X83147Y-139820D01*
X84080Y-135820D01*
X85013Y-139820D01*
X85830Y-135820D01*
G01X88180D02*
X89580D01*
G01X88880D02*
Y-139820D01*
G01X88180D02*
X89580D01*
G01X93680Y-135820D02*
Y-139820D01*
G01X92338Y-135820D02*
X95022D01*
G01X97255Y-139820D02*
Y-135820D01*
G01X99705D02*
Y-139820D01*
G01Y-137820D02*
X97255D01*
G01X103280Y-139820D02*
X102813Y-139753D01*
X102405Y-139487D01*
X102055Y-139087D01*
X101822Y-138620D01*
X101705Y-138087D01*
Y-137553D01*
X101822Y-137020D01*
X102055Y-136553D01*
X102405Y-136153D01*
X102813Y-135887D01*
X103280Y-135820D01*
X103747Y-135887D01*
X104155Y-136153D01*
X104505Y-136553D01*
X104738Y-137020D01*
X104855Y-137553D01*
Y-138087D01*
X104738Y-138620D01*
X104505Y-139087D01*
X104155Y-139487D01*
X103747Y-139753D01*
X103280Y-139820D01*
G01X106797Y-135820D02*
Y-138687D01*
X107030Y-139287D01*
X107497Y-139687D01*
X108080Y-139820D01*
X108663Y-139687D01*
X109130Y-139287D01*
X109363Y-138687D01*
Y-135820D01*
G01X112880D02*
Y-139820D01*
G01X111538Y-135820D02*
X114222D01*
G01X122480D02*
Y-139820D01*
G01X121138Y-135820D02*
X123822D01*
G01X126055Y-139820D02*
Y-135820D01*
G01X128505D02*
Y-139820D01*
G01Y-137820D02*
X126055D01*
G01X133247Y-139820D02*
X130913D01*
Y-135820D01*
X133247D01*
G01X132313Y-137753D02*
X130913D01*
G01X142963Y-136153D02*
X142613Y-135953D01*
X142205Y-135820D01*
X141738D01*
X141213Y-136020D01*
X140805Y-136353D01*
X140513Y-136753D01*
X140280Y-137420D01*
X140222Y-138020D01*
X140338Y-138620D01*
X140513Y-139020D01*
X140863Y-139420D01*
X141272Y-139687D01*
X141680Y-139820D01*
X142088D01*
X142497Y-139687D01*
X142847Y-139487D01*
X143138Y-139220D01*
G01X146480Y-139820D02*
X146013Y-139753D01*
X145605Y-139487D01*
X145255Y-139087D01*
X145022Y-138620D01*
X144905Y-138087D01*
Y-137553D01*
X145022Y-137020D01*
X145255Y-136553D01*
X145605Y-136153D01*
X146013Y-135887D01*
X146480Y-135820D01*
X146947Y-135887D01*
X147355Y-136153D01*
X147705Y-136553D01*
X147938Y-137020D01*
X148055Y-137553D01*
Y-138087D01*
X147938Y-138620D01*
X147705Y-139087D01*
X147355Y-139487D01*
X146947Y-139753D01*
X146480Y-139820D01*
G01X149938D02*
Y-135820D01*
X152622Y-139820D01*
Y-135820D01*
G01X154855Y-139287D02*
X155322Y-139620D01*
X155847Y-139820D01*
X156313D01*
X156780Y-139620D01*
X157130Y-139287D01*
X157305Y-138820D01*
X157188Y-138353D01*
X156897Y-137953D01*
X156372Y-137687D01*
X155672Y-137553D01*
X155263Y-137287D01*
X155088Y-136820D01*
X155205Y-136353D01*
X155497Y-136020D01*
X155905Y-135820D01*
X156313D01*
X156722Y-135953D01*
X157072Y-136287D01*
G01X162047Y-139820D02*
X159713D01*
Y-135820D01*
X162047D01*
G01X161113Y-137753D02*
X159713D01*
G01X164338Y-139820D02*
Y-135820D01*
X167022Y-139820D01*
Y-135820D01*
G01X170480D02*
Y-139820D01*
G01X169138Y-135820D02*
X171822D01*
G01X180080Y-139820D02*
X179613Y-139753D01*
X179205Y-139487D01*
X178855Y-139087D01*
X178622Y-138620D01*
X178505Y-138087D01*
Y-137553D01*
X178622Y-137020D01*
X178855Y-136553D01*
X179205Y-136153D01*
X179613Y-135887D01*
X180080Y-135820D01*
X180547Y-135887D01*
X180955Y-136153D01*
X181305Y-136553D01*
X181538Y-137020D01*
X181655Y-137553D01*
Y-138087D01*
X181538Y-138620D01*
X181305Y-139087D01*
X180955Y-139487D01*
X180547Y-139753D01*
X180080Y-139820D01*
G01X183772D02*
Y-135820D01*
X185988D01*
G01X185172Y-137753D02*
X183772D01*
G01X23055Y-158287D02*
X23522Y-158620D01*
X24047Y-158820D01*
X24513D01*
X24980Y-158620D01*
X25330Y-158287D01*
X25505Y-157820D01*
X25388Y-157353D01*
X25097Y-156953D01*
X24572Y-156687D01*
X23872Y-156553D01*
X23463Y-156287D01*
X23288Y-155820D01*
X23405Y-155353D01*
X23697Y-155020D01*
X24105Y-154820D01*
X24513D01*
X24922Y-154953D01*
X25272Y-155287D01*
G01X27855Y-158820D02*
Y-154820D01*
G01X30305D02*
Y-158820D01*
G01Y-156820D02*
X27855D01*
G01X35047Y-158820D02*
X32713D01*
Y-154820D01*
X35047D01*
G01X34113Y-156753D02*
X32713D01*
G01X39847Y-158820D02*
X37513D01*
Y-154820D01*
X39847D01*
G01X38913Y-156753D02*
X37513D01*
G01X43480Y-154820D02*
Y-158820D01*
G01X42138Y-154820D02*
X44822D01*
G01X30113Y-115820D02*
Y-111820D01*
X31513D01*
X31980Y-112020D01*
X32330Y-112487D01*
X32447Y-113020D01*
X32330Y-113553D01*
X32038Y-113953D01*
X31513Y-114153D01*
X30113D01*
G01X34913Y-115820D02*
Y-111820D01*
X36372D01*
X36838Y-112020D01*
X37130Y-112287D01*
X37247Y-112820D01*
X37130Y-113353D01*
X36780Y-113687D01*
X36372Y-113887D01*
X34913D01*
G01X36372D02*
X37247Y-115820D01*
G01X40880D02*
X40413Y-115753D01*
X40005Y-115487D01*
X39655Y-115087D01*
X39422Y-114620D01*
X39305Y-114087D01*
Y-113553D01*
X39422Y-113020D01*
X39655Y-112553D01*
X40005Y-112153D01*
X40413Y-111887D01*
X40880Y-111820D01*
X41347Y-111887D01*
X41755Y-112153D01*
X42105Y-112553D01*
X42338Y-113020D01*
X42455Y-113553D01*
Y-114087D01*
X42338Y-114620D01*
X42105Y-115087D01*
X41755Y-115487D01*
X41347Y-115753D01*
X40880Y-115820D01*
G01X44513D02*
Y-111820D01*
X45913D01*
X46380Y-112020D01*
X46730Y-112487D01*
X46847Y-113020D01*
X46730Y-113553D01*
X46438Y-113953D01*
X45913Y-114153D01*
X44513D01*
G01X49313Y-115820D02*
Y-111820D01*
X50772D01*
X51238Y-112020D01*
X51530Y-112287D01*
X51647Y-112820D01*
X51530Y-113353D01*
X51180Y-113687D01*
X50772Y-113887D01*
X49313D01*
G01X50772D02*
X51647Y-115820D01*
G01X54580Y-111820D02*
X55980D01*
G01X55280D02*
Y-115820D01*
G01X54580D02*
X55980D01*
G01X61247D02*
X58913D01*
Y-111820D01*
X61247D01*
G01X60313Y-113753D02*
X58913D01*
G01X64880Y-111820D02*
Y-115820D01*
G01X63538Y-111820D02*
X66222D01*
G01X68222Y-115820D02*
X69680Y-111820D01*
X71138Y-115820D01*
G01X70613Y-114420D02*
X68747D01*
G01X73313Y-115820D02*
Y-111820D01*
X74772D01*
X75238Y-112020D01*
X75530Y-112287D01*
X75647Y-112820D01*
X75530Y-113353D01*
X75180Y-113687D01*
X74772Y-113887D01*
X73313D01*
G01X74772D02*
X75647Y-115820D01*
G01X79280D02*
Y-114020D01*
X78113Y-111820D01*
G01X80447D02*
X79280Y-114020D01*
G01X88880Y-111820D02*
Y-115820D01*
G01X87538Y-111820D02*
X90222D01*
G01X93680Y-115820D02*
X93213Y-115753D01*
X92805Y-115487D01*
X92455Y-115087D01*
X92222Y-114620D01*
X92105Y-114087D01*
Y-113553D01*
X92222Y-113020D01*
X92455Y-112553D01*
X92805Y-112153D01*
X93213Y-111887D01*
X93680Y-111820D01*
X94147Y-111887D01*
X94555Y-112153D01*
X94905Y-112553D01*
X95138Y-113020D01*
X95255Y-113553D01*
Y-114087D01*
X95138Y-114620D01*
X94905Y-115087D01*
X94555Y-115487D01*
X94147Y-115753D01*
X93680Y-115820D01*
G01X101938D02*
Y-111820D01*
X104622Y-115820D01*
Y-111820D01*
G01X106855Y-115820D02*
X109305Y-111820D01*
G01X106855D02*
X109305Y-115820D01*
G01X111713D02*
Y-111820D01*
X113113D01*
X113580Y-112020D01*
X113930Y-112487D01*
X114047Y-113020D01*
X113930Y-113553D01*
X113638Y-113953D01*
X113113Y-114153D01*
X111713D01*
G01X121022Y-115820D02*
X122480Y-111820D01*
X123938Y-115820D01*
G01X123413Y-114420D02*
X121547D01*
G01X125938Y-115820D02*
Y-111820D01*
X128622Y-115820D01*
Y-111820D01*
G01X130797Y-115820D02*
Y-111820D01*
X131963D01*
X132430Y-112020D01*
X132780Y-112287D01*
X133072Y-112687D01*
X133305Y-113153D01*
X133363Y-113820D01*
X133305Y-114487D01*
X133072Y-114953D01*
X132780Y-115353D01*
X132430Y-115620D01*
X131963Y-115820D01*
X130797D01*
G01X140455Y-115287D02*
X140922Y-115620D01*
X141447Y-115820D01*
X141913D01*
X142380Y-115620D01*
X142730Y-115287D01*
X142905Y-114820D01*
X142788Y-114353D01*
X142497Y-113953D01*
X141972Y-113687D01*
X141272Y-113553D01*
X140863Y-113287D01*
X140688Y-112820D01*
X140805Y-112353D01*
X141097Y-112020D01*
X141505Y-111820D01*
X141913D01*
X142322Y-111953D01*
X142672Y-112287D01*
G01X145255Y-115820D02*
Y-111820D01*
G01X147705D02*
Y-115820D01*
G01Y-113820D02*
X145255D01*
G01X149822Y-115820D02*
X151280Y-111820D01*
X152738Y-115820D01*
G01X152213Y-114420D02*
X150347D01*
G01X154913Y-111820D02*
Y-115820D01*
X157247D01*
G01X159713Y-111820D02*
Y-115820D01*
X162047D01*
G01X30113Y-131820D02*
Y-127820D01*
X31513D01*
X31980Y-128020D01*
X32330Y-128487D01*
X32447Y-129020D01*
X32330Y-129553D01*
X32038Y-129953D01*
X31513Y-130153D01*
X30113D01*
G01X34913Y-131820D02*
Y-127820D01*
X36372D01*
X36838Y-128020D01*
X37130Y-128287D01*
X37247Y-128820D01*
X37130Y-129353D01*
X36780Y-129687D01*
X36372Y-129887D01*
X34913D01*
G01X36372D02*
X37247Y-131820D01*
G01X40880D02*
X40413Y-131753D01*
X40005Y-131487D01*
X39655Y-131087D01*
X39422Y-130620D01*
X39305Y-130087D01*
Y-129553D01*
X39422Y-129020D01*
X39655Y-128553D01*
X40005Y-128153D01*
X40413Y-127887D01*
X40880Y-127820D01*
X41347Y-127887D01*
X41755Y-128153D01*
X42105Y-128553D01*
X42338Y-129020D01*
X42455Y-129553D01*
Y-130087D01*
X42338Y-130620D01*
X42105Y-131087D01*
X41755Y-131487D01*
X41347Y-131753D01*
X40880Y-131820D01*
G01X46963Y-128153D02*
X46613Y-127953D01*
X46205Y-127820D01*
X45738D01*
X45213Y-128020D01*
X44805Y-128353D01*
X44513Y-128753D01*
X44280Y-129420D01*
X44222Y-130020D01*
X44338Y-130620D01*
X44513Y-131020D01*
X44863Y-131420D01*
X45272Y-131687D01*
X45680Y-131820D01*
X46088D01*
X46497Y-131687D01*
X46847Y-131487D01*
X47138Y-131220D01*
G01X49197Y-127820D02*
Y-130687D01*
X49430Y-131287D01*
X49897Y-131687D01*
X50480Y-131820D01*
X51063Y-131687D01*
X51530Y-131287D01*
X51763Y-130687D01*
Y-127820D01*
G01X54113Y-131820D02*
Y-127820D01*
X55572D01*
X56038Y-128020D01*
X56330Y-128287D01*
X56447Y-128820D01*
X56330Y-129353D01*
X55980Y-129687D01*
X55572Y-129887D01*
X54113D01*
G01X55572D02*
X56447Y-131820D01*
G01X61247D02*
X58913D01*
Y-127820D01*
X61247D01*
G01X60313Y-129753D02*
X58913D01*
G01X63363Y-131820D02*
Y-127820D01*
X64880Y-131153D01*
X66397Y-127820D01*
Y-131820D01*
G01X70847D02*
X68513D01*
Y-127820D01*
X70847D01*
G01X69913Y-129753D02*
X68513D01*
G01X73138Y-131820D02*
Y-127820D01*
X75822Y-131820D01*
Y-127820D01*
G01X79280D02*
Y-131820D01*
G01X77938Y-127820D02*
X80622D01*
G01X88880Y-131820D02*
X88413Y-131753D01*
X88005Y-131487D01*
X87655Y-131087D01*
X87422Y-130620D01*
X87305Y-130087D01*
Y-129553D01*
X87422Y-129020D01*
X87655Y-128553D01*
X88005Y-128153D01*
X88413Y-127887D01*
X88880Y-127820D01*
X89347Y-127887D01*
X89755Y-128153D01*
X90105Y-128553D01*
X90338Y-129020D01*
X90455Y-129553D01*
Y-130087D01*
X90338Y-130620D01*
X90105Y-131087D01*
X89755Y-131487D01*
X89347Y-131753D01*
X88880Y-131820D01*
G01X92513D02*
Y-127820D01*
X93972D01*
X94438Y-128020D01*
X94730Y-128287D01*
X94847Y-128820D01*
X94730Y-129353D01*
X94380Y-129687D01*
X93972Y-129887D01*
X92513D01*
G01X93972D02*
X94847Y-131820D01*
G01X101763D02*
Y-127820D01*
X103280Y-131153D01*
X104797Y-127820D01*
Y-131820D01*
G01X106622D02*
X108080Y-127820D01*
X109538Y-131820D01*
G01X109013Y-130420D02*
X107147D01*
G01X111538Y-131820D02*
Y-127820D01*
X114222Y-131820D01*
Y-127820D01*
G01X116397D02*
Y-130687D01*
X116630Y-131287D01*
X117097Y-131687D01*
X117680Y-131820D01*
X118263Y-131687D01*
X118730Y-131287D01*
X118963Y-130687D01*
Y-127820D01*
G01X121372Y-131820D02*
Y-127820D01*
X123588D01*
G01X122772Y-129753D02*
X121372D01*
G01X125822Y-131820D02*
X127280Y-127820D01*
X128738Y-131820D01*
G01X128213Y-130420D02*
X126347D01*
G01X133363Y-128153D02*
X133013Y-127953D01*
X132605Y-127820D01*
X132138D01*
X131613Y-128020D01*
X131205Y-128353D01*
X130913Y-128753D01*
X130680Y-129420D01*
X130622Y-130020D01*
X130738Y-130620D01*
X130913Y-131020D01*
X131263Y-131420D01*
X131672Y-131687D01*
X132080Y-131820D01*
X132488D01*
X132897Y-131687D01*
X133247Y-131487D01*
X133538Y-131220D01*
G01X136880Y-127820D02*
Y-131820D01*
G01X135538Y-127820D02*
X138222D01*
G01X140397D02*
Y-130687D01*
X140630Y-131287D01*
X141097Y-131687D01*
X141680Y-131820D01*
X142263Y-131687D01*
X142730Y-131287D01*
X142963Y-130687D01*
Y-127820D01*
G01X145313Y-131820D02*
Y-127820D01*
X146772D01*
X147238Y-128020D01*
X147530Y-128287D01*
X147647Y-128820D01*
X147530Y-129353D01*
X147180Y-129687D01*
X146772Y-129887D01*
X145313D01*
G01X146772D02*
X147647Y-131820D01*
G01X152447D02*
X150113D01*
Y-127820D01*
X152447D01*
G01X151513Y-129753D02*
X150113D01*
G01X160180Y-127820D02*
X161580D01*
G01X160880D02*
Y-131820D01*
G01X160180D02*
X161580D01*
G01X164338D02*
Y-127820D01*
X167022Y-131820D01*
Y-127820D01*
G01X173530D02*
X174347Y-131820D01*
X175280Y-127820D01*
X176213Y-131820D01*
X177030Y-127820D01*
G01X178855Y-131820D02*
Y-127820D01*
G01X181305D02*
Y-131820D01*
G01Y-129820D02*
X178855D01*
G01X184880Y-131820D02*
X184413Y-131753D01*
X184005Y-131487D01*
X183655Y-131087D01*
X183422Y-130620D01*
X183305Y-130087D01*
Y-129553D01*
X183422Y-129020D01*
X183655Y-128553D01*
X184005Y-128153D01*
X184413Y-127887D01*
X184880Y-127820D01*
X185347Y-127887D01*
X185755Y-128153D01*
X186105Y-128553D01*
X186338Y-129020D01*
X186455Y-129553D01*
Y-130087D01*
X186338Y-130620D01*
X186105Y-131087D01*
X185755Y-131487D01*
X185347Y-131753D01*
X184880Y-131820D01*
G01X188513Y-127820D02*
Y-131820D01*
X190847D01*
G01X195647D02*
X193313D01*
Y-127820D01*
X195647D01*
G01X194713Y-129753D02*
X193313D01*
G01X29938Y-123820D02*
Y-119820D01*
X32622Y-123820D01*
Y-119820D01*
G01X36080Y-123820D02*
X35613Y-123753D01*
X35205Y-123487D01*
X34855Y-123087D01*
X34622Y-122620D01*
X34505Y-122087D01*
Y-121553D01*
X34622Y-121020D01*
X34855Y-120553D01*
X35205Y-120153D01*
X35613Y-119887D01*
X36080Y-119820D01*
X36547Y-119887D01*
X36955Y-120153D01*
X37305Y-120553D01*
X37538Y-121020D01*
X37655Y-121553D01*
Y-122087D01*
X37538Y-122620D01*
X37305Y-123087D01*
X36955Y-123487D01*
X36547Y-123753D01*
X36080Y-123820D01*
G01X40880Y-119820D02*
Y-123820D01*
G01X39538Y-119820D02*
X42222D01*
G01X50947Y-121687D02*
X51180Y-121487D01*
X51355Y-121153D01*
X51472Y-120687D01*
X51355Y-120287D01*
X51122Y-120020D01*
X50713Y-119820D01*
X49138D01*
Y-123820D01*
X51063D01*
X51472Y-123553D01*
X51705Y-123153D01*
X51822Y-122687D01*
X51705Y-122220D01*
X51355Y-121820D01*
X50947Y-121687D01*
X49138D01*
G01X56447Y-123820D02*
X54113D01*
Y-119820D01*
X56447D01*
G01X55513Y-121753D02*
X54113D01*
G01X63597Y-119820D02*
Y-122687D01*
X63830Y-123287D01*
X64297Y-123687D01*
X64880Y-123820D01*
X65463Y-123687D01*
X65930Y-123287D01*
X66163Y-122687D01*
Y-119820D01*
G01X68455Y-123287D02*
X68922Y-123620D01*
X69447Y-123820D01*
X69913D01*
X70380Y-123620D01*
X70730Y-123287D01*
X70905Y-122820D01*
X70788Y-122353D01*
X70497Y-121953D01*
X69972Y-121687D01*
X69272Y-121553D01*
X68863Y-121287D01*
X68688Y-120820D01*
X68805Y-120353D01*
X69097Y-120020D01*
X69505Y-119820D01*
X69913D01*
X70322Y-119953D01*
X70672Y-120287D01*
G01X75647Y-123820D02*
X73313D01*
Y-119820D01*
X75647D01*
G01X74713Y-121753D02*
X73313D01*
G01X77997Y-123820D02*
Y-119820D01*
X79163D01*
X79630Y-120020D01*
X79980Y-120287D01*
X80272Y-120687D01*
X80505Y-121153D01*
X80563Y-121820D01*
X80505Y-122487D01*
X80272Y-122953D01*
X79980Y-123353D01*
X79630Y-123620D01*
X79163Y-123820D01*
X77997D01*
G01X87772D02*
Y-119820D01*
X89988D01*
G01X89172Y-121753D02*
X87772D01*
G01X93680Y-123820D02*
X93213Y-123753D01*
X92805Y-123487D01*
X92455Y-123087D01*
X92222Y-122620D01*
X92105Y-122087D01*
Y-121553D01*
X92222Y-121020D01*
X92455Y-120553D01*
X92805Y-120153D01*
X93213Y-119887D01*
X93680Y-119820D01*
X94147Y-119887D01*
X94555Y-120153D01*
X94905Y-120553D01*
X95138Y-121020D01*
X95255Y-121553D01*
Y-122087D01*
X95138Y-122620D01*
X94905Y-123087D01*
X94555Y-123487D01*
X94147Y-123753D01*
X93680Y-123820D01*
G01X97313D02*
Y-119820D01*
X98772D01*
X99238Y-120020D01*
X99530Y-120287D01*
X99647Y-120820D01*
X99530Y-121353D01*
X99180Y-121687D01*
X98772Y-121887D01*
X97313D01*
G01X98772D02*
X99647Y-123820D01*
G01X109247D02*
X106913D01*
Y-119820D01*
X109247D01*
G01X108313Y-121753D02*
X106913D01*
G01X111538Y-123820D02*
Y-119820D01*
X114222Y-123820D01*
Y-119820D01*
G01X118030Y-121820D02*
X119197D01*
Y-123020D01*
X118847Y-123420D01*
X118438Y-123687D01*
X117855Y-123820D01*
X117272Y-123687D01*
X116863Y-123420D01*
X116513Y-123020D01*
X116280Y-122553D01*
X116163Y-122020D01*
Y-121553D01*
X116280Y-121153D01*
X116513Y-120687D01*
X116863Y-120287D01*
X117213Y-120020D01*
X117680Y-119820D01*
X118088D01*
X118555Y-119953D01*
X118905Y-120220D01*
G01X121780Y-119820D02*
X123180D01*
G01X122480D02*
Y-123820D01*
G01X121780D02*
X123180D01*
G01X125938D02*
Y-119820D01*
X128622Y-123820D01*
Y-119820D01*
G01X133247Y-123820D02*
X130913D01*
Y-119820D01*
X133247D01*
G01X132313Y-121753D02*
X130913D01*
G01X138047Y-123820D02*
X135713D01*
Y-119820D01*
X138047D01*
G01X137113Y-121753D02*
X135713D01*
G01X140513Y-123820D02*
Y-119820D01*
X141972D01*
X142438Y-120020D01*
X142730Y-120287D01*
X142847Y-120820D01*
X142730Y-121353D01*
X142380Y-121687D01*
X141972Y-121887D01*
X140513D01*
G01X141972D02*
X142847Y-123820D01*
G01X145780Y-119820D02*
X147180D01*
G01X146480D02*
Y-123820D01*
G01X145780D02*
X147180D01*
G01X149938D02*
Y-119820D01*
X152622Y-123820D01*
Y-119820D01*
G01X156430Y-121820D02*
X157597D01*
Y-123020D01*
X157247Y-123420D01*
X156838Y-123687D01*
X156255Y-123820D01*
X155672Y-123687D01*
X155263Y-123420D01*
X154913Y-123020D01*
X154680Y-122553D01*
X154563Y-122020D01*
Y-121553D01*
X154680Y-121153D01*
X154913Y-120687D01*
X155263Y-120287D01*
X155613Y-120020D01*
X156080Y-119820D01*
X156488D01*
X156955Y-119953D01*
X157305Y-120220D01*
G01X164397Y-123820D02*
Y-119820D01*
X165563D01*
X166030Y-120020D01*
X166380Y-120287D01*
X166672Y-120687D01*
X166905Y-121153D01*
X166963Y-121820D01*
X166905Y-122487D01*
X166672Y-122953D01*
X166380Y-123353D01*
X166030Y-123620D01*
X165563Y-123820D01*
X164397D01*
G01X171647D02*
X169313D01*
Y-119820D01*
X171647D01*
G01X170713Y-121753D02*
X169313D01*
G01X174055Y-123287D02*
X174522Y-123620D01*
X175047Y-123820D01*
X175513D01*
X175980Y-123620D01*
X176330Y-123287D01*
X176505Y-122820D01*
X176388Y-122353D01*
X176097Y-121953D01*
X175572Y-121687D01*
X174872Y-121553D01*
X174463Y-121287D01*
X174288Y-120820D01*
X174405Y-120353D01*
X174697Y-120020D01*
X175105Y-119820D01*
X175513D01*
X175922Y-119953D01*
X176272Y-120287D01*
G01X179380Y-119820D02*
X180780D01*
G01X180080D02*
Y-123820D01*
G01X179380D02*
X180780D01*
G01X185230Y-121820D02*
X186397D01*
Y-123020D01*
X186047Y-123420D01*
X185638Y-123687D01*
X185055Y-123820D01*
X184472Y-123687D01*
X184063Y-123420D01*
X183713Y-123020D01*
X183480Y-122553D01*
X183363Y-122020D01*
Y-121553D01*
X183480Y-121153D01*
X183713Y-120687D01*
X184063Y-120287D01*
X184413Y-120020D01*
X184880Y-119820D01*
X185288D01*
X185755Y-119953D01*
X186105Y-120220D01*
G01X188338Y-123820D02*
Y-119820D01*
X191022Y-123820D01*
Y-119820D01*
G01X22822Y-97820D02*
X24280Y-93820D01*
X25738Y-97820D01*
G01X25213Y-96420D02*
X23347D01*
G01X27797Y-93820D02*
Y-96687D01*
X28030Y-97287D01*
X28497Y-97687D01*
X29080Y-97820D01*
X29663Y-97687D01*
X30130Y-97287D01*
X30363Y-96687D01*
Y-93820D01*
G01X32655Y-97287D02*
X33122Y-97620D01*
X33647Y-97820D01*
X34113D01*
X34580Y-97620D01*
X34930Y-97287D01*
X35105Y-96820D01*
X34988Y-96353D01*
X34697Y-95953D01*
X34172Y-95687D01*
X33472Y-95553D01*
X33063Y-95287D01*
X32888Y-94820D01*
X33005Y-94353D01*
X33297Y-94020D01*
X33705Y-93820D01*
X34113D01*
X34522Y-93953D01*
X34872Y-94287D01*
G01X38680Y-93820D02*
Y-97820D01*
G01X37338Y-93820D02*
X40022D01*
G01X42780D02*
X44180D01*
G01X43480D02*
Y-97820D01*
G01X42780D02*
X44180D01*
G01X46938D02*
Y-93820D01*
X49622Y-97820D01*
Y-93820D01*
G01X53080Y-97953D02*
X52963Y-97887D01*
Y-97753D01*
X53080Y-97687D01*
X53197Y-97753D01*
Y-97887D01*
X53080Y-97953D01*
G01X62680Y-93820D02*
Y-97820D01*
G01X61338Y-93820D02*
X64022D01*
G01X68647Y-97820D02*
X66313D01*
Y-93820D01*
X68647D01*
G01X67713Y-95753D02*
X66313D01*
G01X71055Y-97820D02*
X73505Y-93820D01*
G01X71055D02*
X73505Y-97820D01*
G01X75622D02*
X77080Y-93820D01*
X78538Y-97820D01*
G01X78013Y-96420D02*
X76147D01*
G01X80655Y-97287D02*
X81122Y-97620D01*
X81647Y-97820D01*
X82113D01*
X82580Y-97620D01*
X82930Y-97287D01*
X83105Y-96820D01*
X82988Y-96353D01*
X82697Y-95953D01*
X82172Y-95687D01*
X81472Y-95553D01*
X81063Y-95287D01*
X80888Y-94820D01*
X81005Y-94353D01*
X81297Y-94020D01*
X81705Y-93820D01*
X82113D01*
X82522Y-93953D01*
X82872Y-94287D01*
G01X91363Y-97820D02*
X91480Y-96953D01*
X91655Y-96220D01*
X91888Y-95553D01*
X92180Y-94820D01*
X92647Y-93820D01*
X90313D01*
G01X96280Y-97820D02*
X96688Y-97753D01*
X97155Y-97553D01*
X97447Y-97220D01*
X97563Y-96753D01*
X97447Y-96287D01*
X97097Y-95887D01*
X96572Y-95687D01*
X95988D01*
X95638Y-95553D01*
X95347Y-95220D01*
X95230Y-94753D01*
X95405Y-94287D01*
X95813Y-93953D01*
X96280Y-93820D01*
X96747Y-93953D01*
X97155Y-94287D01*
X97330Y-94753D01*
X97213Y-95220D01*
X96922Y-95553D01*
X96572Y-95687D01*
X95988D01*
X95463Y-95887D01*
X95113Y-96287D01*
X94997Y-96753D01*
X95113Y-97220D01*
X95405Y-97553D01*
X95872Y-97753D01*
X96280Y-97820D01*
G01X100963D02*
X101080Y-96953D01*
X101255Y-96220D01*
X101488Y-95553D01*
X101780Y-94820D01*
X102247Y-93820D01*
X99913D01*
G01X104597Y-97020D02*
X104947Y-97487D01*
X105413Y-97753D01*
X105938Y-97820D01*
X106405Y-97753D01*
X106872Y-97420D01*
X107163Y-97020D01*
X107222Y-96620D01*
X107105Y-96153D01*
X106697Y-95820D01*
X106288Y-95687D01*
X105763D01*
G01X106288D02*
X106638Y-95487D01*
X106930Y-95153D01*
X107047Y-94753D01*
X106930Y-94353D01*
X106638Y-94020D01*
X106113Y-93820D01*
X105588Y-93887D01*
X105063Y-94153D01*
G01X109397Y-97220D02*
X109747Y-97553D01*
X110155Y-97753D01*
X110680Y-97820D01*
X111205Y-97687D01*
X111613Y-97420D01*
X111905Y-96953D01*
X111963Y-96420D01*
X111847Y-95887D01*
X111555Y-95553D01*
X111147Y-95287D01*
X110738Y-95220D01*
X110330Y-95287D01*
X109805Y-95553D01*
X109980Y-93820D01*
X111555D01*
G01X118997D02*
Y-96687D01*
X119230Y-97287D01*
X119697Y-97687D01*
X120280Y-97820D01*
X120863Y-97687D01*
X121330Y-97287D01*
X121563Y-96687D01*
Y-93820D01*
G01X123855Y-97287D02*
X124322Y-97620D01*
X124847Y-97820D01*
X125313D01*
X125780Y-97620D01*
X126130Y-97287D01*
X126305Y-96820D01*
X126188Y-96353D01*
X125897Y-95953D01*
X125372Y-95687D01*
X124672Y-95553D01*
X124263Y-95287D01*
X124088Y-94820D01*
X124205Y-94353D01*
X124497Y-94020D01*
X124905Y-93820D01*
X125313D01*
X125722Y-93953D01*
X126072Y-94287D01*
G01X128422Y-97820D02*
X129880Y-93820D01*
X131338Y-97820D01*
G01X130813Y-96420D02*
X128947D01*
G01X23172Y-89153D02*
X23580Y-88687D01*
X23930Y-88420D01*
X24397Y-88287D01*
X24805Y-88420D01*
X25097Y-88687D01*
X25330Y-89087D01*
X25388Y-89553D01*
X25330Y-89953D01*
X25097Y-90353D01*
X24747Y-90687D01*
X24338Y-90820D01*
X23872Y-90687D01*
X23463Y-90287D01*
X23230Y-89687D01*
X23172Y-89020D01*
X23288Y-88153D01*
X23463Y-87687D01*
X23755Y-87220D01*
X24163Y-86887D01*
X24572Y-86820D01*
X24980Y-86953D01*
X25272Y-87287D01*
G01X27797Y-90220D02*
X28147Y-90553D01*
X28555Y-90753D01*
X29080Y-90820D01*
X29605Y-90687D01*
X30013Y-90420D01*
X30305Y-89953D01*
X30363Y-89420D01*
X30247Y-88887D01*
X29955Y-88553D01*
X29547Y-88287D01*
X29138Y-88220D01*
X28730Y-88287D01*
X28205Y-88553D01*
X28380Y-86820D01*
X29955D01*
G01X33880D02*
X33413Y-86953D01*
X33063Y-87287D01*
X32830Y-87687D01*
X32655Y-88220D01*
X32597Y-88820D01*
X32655Y-89420D01*
X32830Y-89953D01*
X33063Y-90353D01*
X33413Y-90687D01*
X33880Y-90820D01*
X34347Y-90687D01*
X34697Y-90353D01*
X34930Y-89953D01*
X35105Y-89420D01*
X35163Y-88820D01*
X35105Y-88220D01*
X34930Y-87687D01*
X34697Y-87287D01*
X34347Y-86953D01*
X33880Y-86820D01*
G01X38680Y-90820D02*
Y-86820D01*
X37980Y-87620D01*
G01Y-90820D02*
X39380D01*
G01X46530Y-86820D02*
X47347Y-90820D01*
X48280Y-86820D01*
X49213Y-90820D01*
X50030Y-86820D01*
G01X52380D02*
X53780D01*
G01X53080D02*
Y-90820D01*
G01X52380D02*
X53780D01*
G01X56713Y-86820D02*
Y-90820D01*
X59047D01*
G01X61513Y-86820D02*
Y-90820D01*
X63847D01*
G01X66780Y-86820D02*
X68180D01*
G01X67480D02*
Y-90820D01*
G01X66780D02*
X68180D01*
G01X70822D02*
X72280Y-86820D01*
X73738Y-90820D01*
G01X73213Y-89420D02*
X71347D01*
G01X75563Y-90820D02*
Y-86820D01*
X77080Y-90153D01*
X78597Y-86820D01*
Y-90820D01*
G01X87963Y-87153D02*
X87613Y-86953D01*
X87205Y-86820D01*
X86738D01*
X86213Y-87020D01*
X85805Y-87353D01*
X85513Y-87753D01*
X85280Y-88420D01*
X85222Y-89020D01*
X85338Y-89620D01*
X85513Y-90020D01*
X85863Y-90420D01*
X86272Y-90687D01*
X86680Y-90820D01*
X87088D01*
X87497Y-90687D01*
X87847Y-90487D01*
X88138Y-90220D01*
G01X90022Y-90820D02*
X91480Y-86820D01*
X92938Y-90820D01*
G01X92413Y-89420D02*
X90547D01*
G01X94938Y-90820D02*
Y-86820D01*
X97622Y-90820D01*
Y-86820D01*
G01X99738Y-90820D02*
Y-86820D01*
X102422Y-90820D01*
Y-86820D01*
G01X105880Y-90820D02*
X105413Y-90753D01*
X105005Y-90487D01*
X104655Y-90087D01*
X104422Y-89620D01*
X104305Y-89087D01*
Y-88553D01*
X104422Y-88020D01*
X104655Y-87553D01*
X105005Y-87153D01*
X105413Y-86887D01*
X105880Y-86820D01*
X106347Y-86887D01*
X106755Y-87153D01*
X107105Y-87553D01*
X107338Y-88020D01*
X107455Y-88553D01*
Y-89087D01*
X107338Y-89620D01*
X107105Y-90087D01*
X106755Y-90487D01*
X106347Y-90753D01*
X105880Y-90820D01*
G01X109338D02*
Y-86820D01*
X112022Y-90820D01*
Y-86820D01*
G01X118997Y-90820D02*
Y-86820D01*
X120163D01*
X120630Y-87020D01*
X120980Y-87287D01*
X121272Y-87687D01*
X121505Y-88153D01*
X121563Y-88820D01*
X121505Y-89487D01*
X121272Y-89953D01*
X120980Y-90353D01*
X120630Y-90620D01*
X120163Y-90820D01*
X118997D01*
G01X123913D02*
Y-86820D01*
X125372D01*
X125838Y-87020D01*
X126130Y-87287D01*
X126247Y-87820D01*
X126130Y-88353D01*
X125780Y-88687D01*
X125372Y-88887D01*
X123913D01*
G01X125372D02*
X126247Y-90820D01*
G01X129180Y-86820D02*
X130580D01*
G01X129880D02*
Y-90820D01*
G01X129180D02*
X130580D01*
G01X133222Y-86820D02*
X134680Y-90820D01*
X136138Y-86820D01*
G01X140647Y-90820D02*
X138313D01*
Y-86820D01*
X140647D01*
G01X139713Y-88753D02*
X138313D01*
G01X147330Y-86820D02*
X148147Y-90820D01*
X149080Y-86820D01*
X150013Y-90820D01*
X150830Y-86820D01*
G01X155047Y-90820D02*
X152713D01*
Y-86820D01*
X155047D01*
G01X154113Y-88753D02*
X152713D01*
G01X157455Y-90287D02*
X157922Y-90620D01*
X158447Y-90820D01*
X158913D01*
X159380Y-90620D01*
X159730Y-90287D01*
X159905Y-89820D01*
X159788Y-89353D01*
X159497Y-88953D01*
X158972Y-88687D01*
X158272Y-88553D01*
X157863Y-88287D01*
X157688Y-87820D01*
X157805Y-87353D01*
X158097Y-87020D01*
X158505Y-86820D01*
X158913D01*
X159322Y-86953D01*
X159672Y-87287D01*
G01X163480Y-86820D02*
Y-90820D01*
G01X162138Y-86820D02*
X164822D01*
G01X30280Y-103820D02*
Y-107820D01*
G01X28938Y-103820D02*
X31622D01*
G01X33855Y-107820D02*
Y-103820D01*
G01X36305D02*
Y-107820D01*
G01Y-105820D02*
X33855D01*
G01X39180Y-103820D02*
X40580D01*
G01X39880D02*
Y-107820D01*
G01X39180D02*
X40580D01*
G01X43455Y-107287D02*
X43922Y-107620D01*
X44447Y-107820D01*
X44913D01*
X45380Y-107620D01*
X45730Y-107287D01*
X45905Y-106820D01*
X45788Y-106353D01*
X45497Y-105953D01*
X44972Y-105687D01*
X44272Y-105553D01*
X43863Y-105287D01*
X43688Y-104820D01*
X43805Y-104353D01*
X44097Y-104020D01*
X44505Y-103820D01*
X44913D01*
X45322Y-103953D01*
X45672Y-104287D01*
G01X52997Y-107820D02*
Y-103820D01*
X54163D01*
X54630Y-104020D01*
X54980Y-104287D01*
X55272Y-104687D01*
X55505Y-105153D01*
X55563Y-105820D01*
X55505Y-106487D01*
X55272Y-106953D01*
X54980Y-107353D01*
X54630Y-107620D01*
X54163Y-107820D01*
X52997D01*
G01X59080D02*
X58613Y-107753D01*
X58205Y-107487D01*
X57855Y-107087D01*
X57622Y-106620D01*
X57505Y-106087D01*
Y-105553D01*
X57622Y-105020D01*
X57855Y-104553D01*
X58205Y-104153D01*
X58613Y-103887D01*
X59080Y-103820D01*
X59547Y-103887D01*
X59955Y-104153D01*
X60305Y-104553D01*
X60538Y-105020D01*
X60655Y-105553D01*
Y-106087D01*
X60538Y-106620D01*
X60305Y-107087D01*
X59955Y-107487D01*
X59547Y-107753D01*
X59080Y-107820D01*
G01X65163Y-104153D02*
X64813Y-103953D01*
X64405Y-103820D01*
X63938D01*
X63413Y-104020D01*
X63005Y-104353D01*
X62713Y-104753D01*
X62480Y-105420D01*
X62422Y-106020D01*
X62538Y-106620D01*
X62713Y-107020D01*
X63063Y-107420D01*
X63472Y-107687D01*
X63880Y-107820D01*
X64288D01*
X64697Y-107687D01*
X65047Y-107487D01*
X65338Y-107220D01*
G01X67397Y-103820D02*
Y-106687D01*
X67630Y-107287D01*
X68097Y-107687D01*
X68680Y-107820D01*
X69263Y-107687D01*
X69730Y-107287D01*
X69963Y-106687D01*
Y-103820D01*
G01X71963Y-107820D02*
Y-103820D01*
X73480Y-107153D01*
X74997Y-103820D01*
Y-107820D01*
G01X79447D02*
X77113D01*
Y-103820D01*
X79447D01*
G01X78513Y-105753D02*
X77113D01*
G01X81738Y-107820D02*
Y-103820D01*
X84422Y-107820D01*
Y-103820D01*
G01X87880D02*
Y-107820D01*
G01X86538Y-103820D02*
X89222D01*
G01X98763Y-104153D02*
X98413Y-103953D01*
X98005Y-103820D01*
X97538D01*
X97013Y-104020D01*
X96605Y-104353D01*
X96313Y-104753D01*
X96080Y-105420D01*
X96022Y-106020D01*
X96138Y-106620D01*
X96313Y-107020D01*
X96663Y-107420D01*
X97072Y-107687D01*
X97480Y-107820D01*
X97888D01*
X98297Y-107687D01*
X98647Y-107487D01*
X98938Y-107220D01*
G01X102280Y-107820D02*
X101813Y-107753D01*
X101405Y-107487D01*
X101055Y-107087D01*
X100822Y-106620D01*
X100705Y-106087D01*
Y-105553D01*
X100822Y-105020D01*
X101055Y-104553D01*
X101405Y-104153D01*
X101813Y-103887D01*
X102280Y-103820D01*
X102747Y-103887D01*
X103155Y-104153D01*
X103505Y-104553D01*
X103738Y-105020D01*
X103855Y-105553D01*
Y-106087D01*
X103738Y-106620D01*
X103505Y-107087D01*
X103155Y-107487D01*
X102747Y-107753D01*
X102280Y-107820D01*
G01X105738D02*
Y-103820D01*
X108422Y-107820D01*
Y-103820D01*
G01X111880D02*
Y-107820D01*
G01X110538Y-103820D02*
X113222D01*
G01X115222Y-107820D02*
X116680Y-103820D01*
X118138Y-107820D01*
G01X117613Y-106420D02*
X115747D01*
G01X120780Y-103820D02*
X122180D01*
G01X121480D02*
Y-107820D01*
G01X120780D02*
X122180D01*
G01X124938D02*
Y-103820D01*
X127622Y-107820D01*
Y-103820D01*
G01X129855Y-107287D02*
X130322Y-107620D01*
X130847Y-107820D01*
X131313D01*
X131780Y-107620D01*
X132130Y-107287D01*
X132305Y-106820D01*
X132188Y-106353D01*
X131897Y-105953D01*
X131372Y-105687D01*
X130672Y-105553D01*
X130263Y-105287D01*
X130088Y-104820D01*
X130205Y-104353D01*
X130497Y-104020D01*
X130905Y-103820D01*
X131313D01*
X131722Y-103953D01*
X132072Y-104287D01*
G01X139980Y-103820D02*
X141380D01*
G01X140680D02*
Y-107820D01*
G01X139980D02*
X141380D01*
G01X144138D02*
Y-103820D01*
X146822Y-107820D01*
Y-103820D01*
G01X149172Y-107820D02*
Y-103820D01*
X151388D01*
G01X150572Y-105753D02*
X149172D01*
G01X155080Y-107820D02*
X154613Y-107753D01*
X154205Y-107487D01*
X153855Y-107087D01*
X153622Y-106620D01*
X153505Y-106087D01*
Y-105553D01*
X153622Y-105020D01*
X153855Y-104553D01*
X154205Y-104153D01*
X154613Y-103887D01*
X155080Y-103820D01*
X155547Y-103887D01*
X155955Y-104153D01*
X156305Y-104553D01*
X156538Y-105020D01*
X156655Y-105553D01*
Y-106087D01*
X156538Y-106620D01*
X156305Y-107087D01*
X155955Y-107487D01*
X155547Y-107753D01*
X155080Y-107820D01*
G01X158713D02*
Y-103820D01*
X160172D01*
X160638Y-104020D01*
X160930Y-104287D01*
X161047Y-104820D01*
X160930Y-105353D01*
X160580Y-105687D01*
X160172Y-105887D01*
X158713D01*
G01X160172D02*
X161047Y-107820D01*
G01X163163D02*
Y-103820D01*
X164680Y-107153D01*
X166197Y-103820D01*
Y-107820D01*
G01X168022D02*
X169480Y-103820D01*
X170938Y-107820D01*
G01X170413Y-106420D02*
X168547D01*
G01X174280Y-103820D02*
Y-107820D01*
G01X172938Y-103820D02*
X175622D01*
G01X178380D02*
X179780D01*
G01X179080D02*
Y-107820D01*
G01X178380D02*
X179780D01*
G01X183880D02*
X183413Y-107753D01*
X183005Y-107487D01*
X182655Y-107087D01*
X182422Y-106620D01*
X182305Y-106087D01*
Y-105553D01*
X182422Y-105020D01*
X182655Y-104553D01*
X183005Y-104153D01*
X183413Y-103887D01*
X183880Y-103820D01*
X184347Y-103887D01*
X184755Y-104153D01*
X185105Y-104553D01*
X185338Y-105020D01*
X185455Y-105553D01*
Y-106087D01*
X185338Y-106620D01*
X185105Y-107087D01*
X184755Y-107487D01*
X184347Y-107753D01*
X183880Y-107820D01*
G01X187338D02*
Y-103820D01*
X190022Y-107820D01*
Y-103820D01*
G01X35193Y-83000D02*
Y-75500D01*
X39487Y-83000D01*
Y-75500D01*
G01X42880Y-83000D02*
X46800Y-75500D01*
G01X42880D02*
X46800Y-83000D01*
G01X50473D02*
Y-75500D01*
X52713D01*
X53460Y-75875D01*
X54020Y-76750D01*
X54207Y-77750D01*
X54020Y-78750D01*
X53553Y-79500D01*
X52713Y-79875D01*
X50473D01*
G01X65380Y-82000D02*
X66127Y-82625D01*
X66967Y-83000D01*
X67713D01*
X68460Y-82625D01*
X69020Y-82000D01*
X69300Y-81125D01*
X69113Y-80250D01*
X68647Y-79500D01*
X67807Y-79000D01*
X66687Y-78750D01*
X66033Y-78250D01*
X65753Y-77375D01*
X65940Y-76500D01*
X66407Y-75875D01*
X67060Y-75500D01*
X67713D01*
X68367Y-75750D01*
X68927Y-76375D01*
G01X76707Y-83000D02*
X72973D01*
Y-75500D01*
X76707D01*
G01X75213Y-79125D02*
X72973D01*
G01X79913Y-83000D02*
Y-75500D01*
X82340Y-81750D01*
X84767Y-75500D01*
Y-83000D01*
G01X88720Y-75500D02*
X90960D01*
G01X89840D02*
Y-83000D01*
G01X88720D02*
X90960D01*
G01X99393Y-76125D02*
X98833Y-75750D01*
X98180Y-75500D01*
X97433D01*
X96593Y-75875D01*
X95940Y-76500D01*
X95473Y-77250D01*
X95100Y-78500D01*
X95007Y-79625D01*
X95193Y-80750D01*
X95473Y-81500D01*
X96033Y-82250D01*
X96687Y-82750D01*
X97340Y-83000D01*
X97993D01*
X98647Y-82750D01*
X99207Y-82375D01*
X99673Y-81875D01*
G01X104840Y-83000D02*
X104093Y-82875D01*
X103440Y-82375D01*
X102880Y-81625D01*
X102507Y-80750D01*
X102320Y-79750D01*
Y-78750D01*
X102507Y-77750D01*
X102880Y-76875D01*
X103440Y-76125D01*
X104093Y-75625D01*
X104840Y-75500D01*
X105587Y-75625D01*
X106240Y-76125D01*
X106800Y-76875D01*
X107173Y-77750D01*
X107360Y-78750D01*
Y-79750D01*
X107173Y-80750D01*
X106800Y-81625D01*
X106240Y-82375D01*
X105587Y-82875D01*
X104840Y-83000D01*
G01X110193D02*
Y-75500D01*
X114487Y-83000D01*
Y-75500D01*
G01X117787Y-83000D02*
Y-75500D01*
X119653D01*
X120400Y-75875D01*
X120960Y-76375D01*
X121427Y-77125D01*
X121800Y-78000D01*
X121893Y-79250D01*
X121800Y-80500D01*
X121427Y-81375D01*
X120960Y-82125D01*
X120400Y-82625D01*
X119653Y-83000D01*
X117787D01*
G01X125287Y-75500D02*
Y-80875D01*
X125660Y-82000D01*
X126407Y-82750D01*
X127340Y-83000D01*
X128273Y-82750D01*
X129020Y-82000D01*
X129393Y-80875D01*
Y-75500D01*
G01X136893Y-76125D02*
X136333Y-75750D01*
X135680Y-75500D01*
X134933D01*
X134093Y-75875D01*
X133440Y-76500D01*
X132973Y-77250D01*
X132600Y-78500D01*
X132507Y-79625D01*
X132693Y-80750D01*
X132973Y-81500D01*
X133533Y-82250D01*
X134187Y-82750D01*
X134840Y-83000D01*
X135493D01*
X136147Y-82750D01*
X136707Y-82375D01*
X137173Y-81875D01*
G01X142340Y-75500D02*
Y-83000D01*
G01X140193Y-75500D02*
X144487D01*
G01X149840Y-83000D02*
X149093Y-82875D01*
X148440Y-82375D01*
X147880Y-81625D01*
X147507Y-80750D01*
X147320Y-79750D01*
Y-78750D01*
X147507Y-77750D01*
X147880Y-76875D01*
X148440Y-76125D01*
X149093Y-75625D01*
X149840Y-75500D01*
X150587Y-75625D01*
X151240Y-76125D01*
X151800Y-76875D01*
X152173Y-77750D01*
X152360Y-78750D01*
Y-79750D01*
X152173Y-80750D01*
X151800Y-81625D01*
X151240Y-82375D01*
X150587Y-82875D01*
X149840Y-83000D01*
G01X155473D02*
Y-75500D01*
X157807D01*
X158553Y-75875D01*
X159020Y-76375D01*
X159207Y-77375D01*
X159020Y-78375D01*
X158460Y-79000D01*
X157807Y-79375D01*
X155473D01*
G01X157807D02*
X159207Y-83000D01*
G01X162880Y-82000D02*
X163627Y-82625D01*
X164467Y-83000D01*
X165213D01*
X165960Y-82625D01*
X166520Y-82000D01*
X166800Y-81125D01*
X166613Y-80250D01*
X166147Y-79500D01*
X165307Y-79000D01*
X164187Y-78750D01*
X163533Y-78250D01*
X163253Y-77375D01*
X163440Y-76500D01*
X163907Y-75875D01*
X164560Y-75500D01*
X165213D01*
X165867Y-75750D01*
X166427Y-76375D01*
G01X73172Y-158820D02*
Y-154820D01*
X75388D01*
G01X74572Y-156753D02*
X73172D01*
G01X78380Y-154820D02*
X79780D01*
G01X79080D02*
Y-158820D01*
G01X78380D02*
X79780D01*
G01X82713Y-154820D02*
Y-158820D01*
X85047D01*
G01X87163D02*
Y-154820D01*
X88680Y-158153D01*
X90197Y-154820D01*
Y-158820D01*
G01X92735Y-166520D02*
X93362Y-167020D01*
X94067Y-167320D01*
X94693D01*
X95320Y-167020D01*
X95790Y-166520D01*
X96025Y-165820D01*
X95868Y-165120D01*
X95477Y-164520D01*
X94772Y-164120D01*
X93832Y-163920D01*
X93283Y-163520D01*
X93048Y-162820D01*
X93205Y-162120D01*
X93597Y-161620D01*
X94145Y-161320D01*
X94693D01*
X95242Y-161520D01*
X95712Y-162020D01*
G01X102247Y-167320D02*
X99113D01*
Y-161320D01*
X102247D01*
G01X100993Y-164220D02*
X99113D01*
G01X108703Y-161820D02*
X108233Y-161520D01*
X107685Y-161320D01*
X107058D01*
X106353Y-161620D01*
X105805Y-162120D01*
X105413Y-162720D01*
X105100Y-163720D01*
X105022Y-164620D01*
X105178Y-165520D01*
X105413Y-166120D01*
X105883Y-166720D01*
X106432Y-167120D01*
X106980Y-167320D01*
X107528D01*
X108077Y-167120D01*
X108547Y-166820D01*
X108938Y-166420D01*
G01X113280Y-167320D02*
X112653Y-167220D01*
X112105Y-166820D01*
X111635Y-166220D01*
X111322Y-165520D01*
X111165Y-164720D01*
Y-163920D01*
X111322Y-163120D01*
X111635Y-162420D01*
X112105Y-161820D01*
X112653Y-161420D01*
X113280Y-161320D01*
X113907Y-161420D01*
X114455Y-161820D01*
X114925Y-162420D01*
X115238Y-163120D01*
X115395Y-163920D01*
Y-164720D01*
X115238Y-165520D01*
X114925Y-166220D01*
X114455Y-166820D01*
X113907Y-167220D01*
X113280Y-167320D01*
G01X117778D02*
Y-161320D01*
X121382Y-167320D01*
Y-161320D01*
G01X124157Y-167320D02*
Y-161320D01*
X125723D01*
X126350Y-161620D01*
X126820Y-162020D01*
X127212Y-162620D01*
X127525Y-163320D01*
X127603Y-164320D01*
X127525Y-165320D01*
X127212Y-166020D01*
X126820Y-166620D01*
X126350Y-167020D01*
X125723Y-167320D01*
X124157D01*
G01X130222D02*
X132180Y-161320D01*
X134138Y-167320D01*
G01X133433Y-165220D02*
X130927D01*
G01X136913Y-167320D02*
Y-161320D01*
X138872D01*
X139498Y-161620D01*
X139890Y-162020D01*
X140047Y-162820D01*
X139890Y-163620D01*
X139420Y-164120D01*
X138872Y-164420D01*
X136913D01*
G01X138872D02*
X140047Y-167320D01*
G01X144780D02*
Y-164620D01*
X143213Y-161320D01*
G01X146347D02*
X144780Y-164620D01*
G01X155735Y-166520D02*
X156362Y-167020D01*
X157067Y-167320D01*
X157693D01*
X158320Y-167020D01*
X158790Y-166520D01*
X159025Y-165820D01*
X158868Y-165120D01*
X158477Y-164520D01*
X157772Y-164120D01*
X156832Y-163920D01*
X156283Y-163520D01*
X156048Y-162820D01*
X156205Y-162120D01*
X156597Y-161620D01*
X157145Y-161320D01*
X157693D01*
X158242Y-161520D01*
X158712Y-162020D01*
G01X162740Y-161320D02*
X164620D01*
G01X163680D02*
Y-167320D01*
G01X162740D02*
X164620D01*
G01X168257D02*
Y-161320D01*
X169823D01*
X170450Y-161620D01*
X170920Y-162020D01*
X171312Y-162620D01*
X171625Y-163320D01*
X171703Y-164320D01*
X171625Y-165320D01*
X171312Y-166020D01*
X170920Y-166620D01*
X170450Y-167020D01*
X169823Y-167320D01*
X168257D01*
G01X177847D02*
X174713D01*
Y-161320D01*
X177847D01*
G01X176593Y-164220D02*
X174713D01*
G01X138180Y-29880D02*
Y-27080D01*
X138620Y-27640D01*
G01Y-29880D02*
X137740D01*
G01X135553D02*
X135480Y-29273D01*
X135370Y-28760D01*
X135223Y-28293D01*
X135040Y-27780D01*
X134747Y-27080D01*
X136213D01*
G01X132780D02*
X133073Y-27173D01*
X133293Y-27407D01*
X133440Y-27687D01*
X133550Y-28060D01*
X133587Y-28480D01*
X133550Y-28900D01*
X133440Y-29273D01*
X133293Y-29553D01*
X133073Y-29787D01*
X132780Y-29880D01*
X132487Y-29787D01*
X132267Y-29553D01*
X132120Y-29273D01*
X132010Y-28900D01*
X131973Y-28480D01*
X132010Y-28060D01*
X132120Y-27687D01*
X132267Y-27407D01*
X132487Y-27173D01*
X132780Y-27080D01*
G01X130557Y-28947D02*
X129603D01*
G01X128077Y-27547D02*
X127857Y-27267D01*
X127600Y-27127D01*
X127307Y-27080D01*
X126940Y-27173D01*
X126683Y-27407D01*
X126610Y-27687D01*
X126647Y-27967D01*
X126793Y-28200D01*
X127527Y-28667D01*
X127857Y-28993D01*
X128077Y-29460D01*
X128150Y-29880D01*
X126610D01*
G01X125303Y-29553D02*
X125047Y-29787D01*
X124753Y-29880D01*
X124460Y-29787D01*
X124203Y-29507D01*
X124020Y-29087D01*
X123947Y-28667D01*
Y-28153D01*
X124020Y-27733D01*
X124203Y-27360D01*
X124423Y-27173D01*
X124680Y-27080D01*
X124973Y-27173D01*
X125193Y-27360D01*
X125340Y-27640D01*
X125413Y-28013D01*
X125340Y-28340D01*
X125157Y-28667D01*
X124937Y-28853D01*
X124680Y-28900D01*
X124387Y-28807D01*
X124167Y-28573D01*
X123947Y-28153D01*
G01X121980Y-27080D02*
X122273Y-27173D01*
X122493Y-27407D01*
X122640Y-27687D01*
X122750Y-28060D01*
X122787Y-28480D01*
X122750Y-28900D01*
X122640Y-29273D01*
X122493Y-29553D01*
X122273Y-29787D01*
X121980Y-29880D01*
X121687Y-29787D01*
X121467Y-29553D01*
X121320Y-29273D01*
X121210Y-28900D01*
X121173Y-28480D01*
X121210Y-28060D01*
X121320Y-27687D01*
X121467Y-27407D01*
X121687Y-27173D01*
X121980Y-27080D01*
G01X120087Y-29320D02*
X119867Y-29647D01*
X119573Y-29833D01*
X119243Y-29880D01*
X118950Y-29833D01*
X118657Y-29600D01*
X118473Y-29320D01*
X118437Y-29040D01*
X118510Y-28713D01*
X118767Y-28480D01*
X119023Y-28387D01*
X119353D01*
G01X119023D02*
X118803Y-28247D01*
X118620Y-28013D01*
X118547Y-27733D01*
X118620Y-27453D01*
X118803Y-27220D01*
X119133Y-27080D01*
X119463Y-27127D01*
X119793Y-27313D01*
G01X116580Y-27080D02*
X116873Y-27173D01*
X117093Y-27407D01*
X117240Y-27687D01*
X117350Y-28060D01*
X117387Y-28480D01*
X117350Y-28900D01*
X117240Y-29273D01*
X117093Y-29553D01*
X116873Y-29787D01*
X116580Y-29880D01*
X116287Y-29787D01*
X116067Y-29553D01*
X115920Y-29273D01*
X115810Y-28900D01*
X115773Y-28480D01*
X115810Y-28060D01*
X115920Y-27687D01*
X116067Y-27407D01*
X116287Y-27173D01*
X116580Y-27080D01*
G01X111913Y-29880D02*
Y-27080D01*
X110997D01*
X110703Y-27220D01*
X110520Y-27407D01*
X110447Y-27780D01*
X110520Y-28153D01*
X110740Y-28387D01*
X110997Y-28527D01*
X111913D01*
G01X110997D02*
X110447Y-29880D01*
G01X107747D02*
X109213D01*
Y-27080D01*
X107747D01*
G01X108333Y-28433D02*
X109213D01*
G01X106697Y-27080D02*
X105780Y-29880D01*
X104863Y-27080D01*
G01X100087Y-28387D02*
X99940Y-28247D01*
X99830Y-28013D01*
X99757Y-27687D01*
X99830Y-27407D01*
X99977Y-27220D01*
X100233Y-27080D01*
X101223D01*
Y-29880D01*
X100013D01*
X99757Y-29693D01*
X99610Y-29413D01*
X99537Y-29087D01*
X99610Y-28760D01*
X99830Y-28480D01*
X100087Y-28387D01*
X101223D01*
G01X201280Y-162820D02*
X200813Y-162953D01*
X200463Y-163287D01*
X200230Y-163687D01*
X200055Y-164220D01*
X199997Y-164820D01*
X200055Y-165420D01*
X200230Y-165953D01*
X200463Y-166353D01*
X200813Y-166687D01*
X201280Y-166820D01*
X201747Y-166687D01*
X202097Y-166353D01*
X202330Y-165953D01*
X202505Y-165420D01*
X202563Y-164820D01*
X202505Y-164220D01*
X202330Y-163687D01*
X202097Y-163287D01*
X201747Y-162953D01*
X201280Y-162820D01*
G01X204972Y-165153D02*
X205380Y-164687D01*
X205730Y-164420D01*
X206197Y-164287D01*
X206605Y-164420D01*
X206897Y-164687D01*
X207130Y-165087D01*
X207188Y-165553D01*
X207130Y-165953D01*
X206897Y-166353D01*
X206547Y-166687D01*
X206138Y-166820D01*
X205672Y-166687D01*
X205263Y-166287D01*
X205030Y-165687D01*
X204972Y-165020D01*
X205088Y-164153D01*
X205263Y-163687D01*
X205555Y-163220D01*
X205963Y-162887D01*
X206372Y-162820D01*
X206780Y-162953D01*
X207072Y-163287D01*
G01X210122Y-165487D02*
X211638D01*
G01X214572Y-163487D02*
X214922Y-163087D01*
X215330Y-162887D01*
X215797Y-162820D01*
X216380Y-162953D01*
X216788Y-163287D01*
X216905Y-163687D01*
X216847Y-164087D01*
X216613Y-164420D01*
X215447Y-165087D01*
X214922Y-165553D01*
X214572Y-166220D01*
X214455Y-166820D01*
X216905D01*
G01X219197Y-166020D02*
X219547Y-166487D01*
X220013Y-166753D01*
X220538Y-166820D01*
X221005Y-166753D01*
X221472Y-166420D01*
X221763Y-166020D01*
X221822Y-165620D01*
X221705Y-165153D01*
X221297Y-164820D01*
X220888Y-164687D01*
X220363D01*
G01X220888D02*
X221238Y-164487D01*
X221530Y-164153D01*
X221647Y-163753D01*
X221530Y-163353D01*
X221238Y-163020D01*
X220713Y-162820D01*
X220188Y-162887D01*
X219663Y-163153D01*
G01X224522Y-165487D02*
X226038D01*
G01X230080Y-166820D02*
Y-162820D01*
X229380Y-163620D01*
G01Y-166820D02*
X230780D01*
G01X233772Y-165153D02*
X234180Y-164687D01*
X234530Y-164420D01*
X234997Y-164287D01*
X235405Y-164420D01*
X235697Y-164687D01*
X235930Y-165087D01*
X235988Y-165553D01*
X235930Y-165953D01*
X235697Y-166353D01*
X235347Y-166687D01*
X234938Y-166820D01*
X234472Y-166687D01*
X234063Y-166287D01*
X233830Y-165687D01*
X233772Y-165020D01*
X233888Y-164153D01*
X234063Y-163687D01*
X234355Y-163220D01*
X234763Y-162887D01*
X235172Y-162820D01*
X235580Y-162953D01*
X235872Y-163287D01*
G01X197997Y-158820D02*
Y-154820D01*
X199163D01*
X199630Y-155020D01*
X199980Y-155287D01*
X200272Y-155687D01*
X200505Y-156153D01*
X200563Y-156820D01*
X200505Y-157487D01*
X200272Y-157953D01*
X199980Y-158353D01*
X199630Y-158620D01*
X199163Y-158820D01*
X197997D01*
G01X202622D02*
X204080Y-154820D01*
X205538Y-158820D01*
G01X205013Y-157420D02*
X203147D01*
G01X208880Y-154820D02*
Y-158820D01*
G01X207538Y-154820D02*
X210222D01*
G01X214847Y-158820D02*
X212513D01*
Y-154820D01*
X214847D01*
G01X213913Y-156753D02*
X212513D01*
G01X197938Y-78820D02*
Y-74820D01*
X200622Y-78820D01*
Y-74820D01*
G01X202622Y-78820D02*
X204080Y-74820D01*
X205538Y-78820D01*
G01X205013Y-77420D02*
X203147D01*
G01X207363Y-78820D02*
Y-74820D01*
X208880Y-78153D01*
X210397Y-74820D01*
Y-78820D01*
G01X214847D02*
X212513D01*
Y-74820D01*
X214847D01*
G01X213913Y-76753D02*
X212513D01*
G01X207530Y-144653D02*
X211030D01*
G01X212330D02*
X215830D01*
G01X217130D02*
X220630D01*
G01X227138Y-143320D02*
Y-139320D01*
X229822Y-143320D01*
Y-139320D01*
G01X234563Y-139653D02*
X234213Y-139453D01*
X233805Y-139320D01*
X233338D01*
X232813Y-139520D01*
X232405Y-139853D01*
X232113Y-140253D01*
X231880Y-140920D01*
X231822Y-141520D01*
X231938Y-142120D01*
X232113Y-142520D01*
X232463Y-142920D01*
X232872Y-143187D01*
X233280Y-143320D01*
X233688D01*
X234097Y-143187D01*
X234447Y-142987D01*
X234738Y-142720D01*
G01X236913Y-143320D02*
Y-139320D01*
X238313D01*
X238780Y-139520D01*
X239130Y-139987D01*
X239247Y-140520D01*
X239130Y-141053D01*
X238838Y-141453D01*
X238313Y-141653D01*
X236913D01*
G01X252188Y-144653D02*
X251605Y-143987D01*
X251313Y-143320D01*
Y-140653D01*
X251605Y-139987D01*
X252188Y-139320D01*
G01X255938Y-143320D02*
Y-139320D01*
X258622Y-143320D01*
Y-139320D01*
G01X260855Y-143320D02*
X263305Y-139320D01*
G01X260855D02*
X263305Y-143320D01*
G01X265713D02*
Y-139320D01*
X267113D01*
X267580Y-139520D01*
X267930Y-139987D01*
X268047Y-140520D01*
X267930Y-141053D01*
X267638Y-141453D01*
X267113Y-141653D01*
X265713D01*
G01X277763Y-139653D02*
X277413Y-139453D01*
X277005Y-139320D01*
X276538D01*
X276013Y-139520D01*
X275605Y-139853D01*
X275313Y-140253D01*
X275080Y-140920D01*
X275022Y-141520D01*
X275138Y-142120D01*
X275313Y-142520D01*
X275663Y-142920D01*
X276072Y-143187D01*
X276480Y-143320D01*
X276888D01*
X277297Y-143187D01*
X277647Y-142987D01*
X277938Y-142720D01*
G01X281280Y-143320D02*
X280813Y-143253D01*
X280405Y-142987D01*
X280055Y-142587D01*
X279822Y-142120D01*
X279705Y-141587D01*
Y-141053D01*
X279822Y-140520D01*
X280055Y-140053D01*
X280405Y-139653D01*
X280813Y-139387D01*
X281280Y-139320D01*
X281747Y-139387D01*
X282155Y-139653D01*
X282505Y-140053D01*
X282738Y-140520D01*
X282855Y-141053D01*
Y-141587D01*
X282738Y-142120D01*
X282505Y-142587D01*
X282155Y-142987D01*
X281747Y-143253D01*
X281280Y-143320D01*
G01X284738D02*
Y-139320D01*
X287422Y-143320D01*
Y-139320D01*
G01X289772Y-143320D02*
Y-139320D01*
X291988D01*
G01X291172Y-141253D02*
X289772D01*
G01X294980Y-139320D02*
X296380D01*
G01X295680D02*
Y-143320D01*
G01X294980D02*
X296380D01*
G01X299197D02*
Y-139320D01*
X300363D01*
X300830Y-139520D01*
X301180Y-139787D01*
X301472Y-140187D01*
X301705Y-140653D01*
X301763Y-141320D01*
X301705Y-141987D01*
X301472Y-142453D01*
X301180Y-142853D01*
X300830Y-143120D01*
X300363Y-143320D01*
X299197D01*
G01X306447D02*
X304113D01*
Y-139320D01*
X306447D01*
G01X305513Y-141253D02*
X304113D01*
G01X308738Y-143320D02*
Y-139320D01*
X311422Y-143320D01*
Y-139320D01*
G01X314880D02*
Y-143320D01*
G01X313538Y-139320D02*
X316222D01*
G01X318980D02*
X320380D01*
G01X319680D02*
Y-143320D01*
G01X318980D02*
X320380D01*
G01X323022D02*
X324480Y-139320D01*
X325938Y-143320D01*
G01X325413Y-141920D02*
X323547D01*
G01X328113Y-139320D02*
Y-143320D01*
X330447D01*
G01X337713D02*
Y-139320D01*
X339113D01*
X339580Y-139520D01*
X339930Y-139987D01*
X340047Y-140520D01*
X339930Y-141053D01*
X339638Y-141453D01*
X339113Y-141653D01*
X337713D01*
G01X342513Y-143320D02*
Y-139320D01*
X343972D01*
X344438Y-139520D01*
X344730Y-139787D01*
X344847Y-140320D01*
X344730Y-140853D01*
X344380Y-141187D01*
X343972Y-141387D01*
X342513D01*
G01X343972D02*
X344847Y-143320D01*
G01X348480D02*
X348013Y-143253D01*
X347605Y-142987D01*
X347255Y-142587D01*
X347022Y-142120D01*
X346905Y-141587D01*
Y-141053D01*
X347022Y-140520D01*
X347255Y-140053D01*
X347605Y-139653D01*
X348013Y-139387D01*
X348480Y-139320D01*
X348947Y-139387D01*
X349355Y-139653D01*
X349705Y-140053D01*
X349938Y-140520D01*
X350055Y-141053D01*
Y-141587D01*
X349938Y-142120D01*
X349705Y-142587D01*
X349355Y-142987D01*
X348947Y-143253D01*
X348480Y-143320D01*
G01X352113D02*
Y-139320D01*
X353513D01*
X353980Y-139520D01*
X354330Y-139987D01*
X354447Y-140520D01*
X354330Y-141053D01*
X354038Y-141453D01*
X353513Y-141653D01*
X352113D01*
G01X356913Y-143320D02*
Y-139320D01*
X358372D01*
X358838Y-139520D01*
X359130Y-139787D01*
X359247Y-140320D01*
X359130Y-140853D01*
X358780Y-141187D01*
X358372Y-141387D01*
X356913D01*
G01X358372D02*
X359247Y-143320D01*
G01X362180Y-139320D02*
X363580D01*
G01X362880D02*
Y-143320D01*
G01X362180D02*
X363580D01*
G01X368847D02*
X366513D01*
Y-139320D01*
X368847D01*
G01X367913Y-141253D02*
X366513D01*
G01X372480Y-139320D02*
Y-143320D01*
G01X371138Y-139320D02*
X373822D01*
G01X375822Y-143320D02*
X377280Y-139320D01*
X378738Y-143320D01*
G01X378213Y-141920D02*
X376347D01*
G01X380913Y-143320D02*
Y-139320D01*
X382372D01*
X382838Y-139520D01*
X383130Y-139787D01*
X383247Y-140320D01*
X383130Y-140853D01*
X382780Y-141187D01*
X382372Y-141387D01*
X380913D01*
G01X382372D02*
X383247Y-143320D01*
G01X386880D02*
Y-141520D01*
X385713Y-139320D01*
G01X388047D02*
X386880Y-141520D01*
G01X391972Y-144653D02*
X392555Y-143987D01*
X392847Y-143320D01*
Y-140653D01*
X392555Y-139987D01*
X391972Y-139320D01*
G01X207530Y-128153D02*
X211030D01*
G01X212330D02*
X215830D01*
G01X217130D02*
X220630D01*
G01X227138Y-126820D02*
Y-122820D01*
X229822Y-126820D01*
Y-122820D01*
G01X232580D02*
X233980D01*
G01X233280D02*
Y-126820D01*
G01X232580D02*
X233980D01*
G01X236797Y-122820D02*
Y-125687D01*
X237030Y-126287D01*
X237497Y-126687D01*
X238080Y-126820D01*
X238663Y-126687D01*
X239130Y-126287D01*
X239363Y-125687D01*
Y-122820D01*
G01X242880Y-126820D02*
X242413Y-126753D01*
X242005Y-126487D01*
X241655Y-126087D01*
X241422Y-125620D01*
X241305Y-125087D01*
Y-124553D01*
X241422Y-124020D01*
X241655Y-123553D01*
X242005Y-123153D01*
X242413Y-122887D01*
X242880Y-122820D01*
X243347Y-122887D01*
X243755Y-123153D01*
X244105Y-123553D01*
X244338Y-124020D01*
X244455Y-124553D01*
Y-125087D01*
X244338Y-125620D01*
X244105Y-126087D01*
X243755Y-126487D01*
X243347Y-126753D01*
X242880Y-126820D01*
G01X252188Y-128153D02*
X251605Y-127487D01*
X251313Y-126820D01*
Y-124153D01*
X251605Y-123487D01*
X252188Y-122820D01*
G01X255938Y-126820D02*
Y-122820D01*
X258622Y-126820D01*
Y-122820D01*
G01X260855Y-126820D02*
X263305Y-122820D01*
G01X260855D02*
X263305Y-126820D01*
G01X265713D02*
Y-122820D01*
X267113D01*
X267580Y-123020D01*
X267930Y-123487D01*
X268047Y-124020D01*
X267930Y-124553D01*
X267638Y-124953D01*
X267113Y-125153D01*
X265713D01*
G01X275780Y-122820D02*
X277180D01*
G01X276480D02*
Y-126820D01*
G01X275780D02*
X277180D01*
G01X279938D02*
Y-122820D01*
X282622Y-126820D01*
Y-122820D01*
G01X286080D02*
Y-126820D01*
G01X284738Y-122820D02*
X287422D01*
G01X292047Y-126820D02*
X289713D01*
Y-122820D01*
X292047D01*
G01X291113Y-124753D02*
X289713D01*
G01X294513Y-126820D02*
Y-122820D01*
X295972D01*
X296438Y-123020D01*
X296730Y-123287D01*
X296847Y-123820D01*
X296730Y-124353D01*
X296380Y-124687D01*
X295972Y-124887D01*
X294513D01*
G01X295972D02*
X296847Y-126820D01*
G01X299138D02*
Y-122820D01*
X301822Y-126820D01*
Y-122820D01*
G01X303822Y-126820D02*
X305280Y-122820D01*
X306738Y-126820D01*
G01X306213Y-125420D02*
X304347D01*
G01X308913Y-122820D02*
Y-126820D01*
X311247D01*
G01X318397Y-122820D02*
Y-125687D01*
X318630Y-126287D01*
X319097Y-126687D01*
X319680Y-126820D01*
X320263Y-126687D01*
X320730Y-126287D01*
X320963Y-125687D01*
Y-122820D01*
G01X323255Y-126287D02*
X323722Y-126620D01*
X324247Y-126820D01*
X324713D01*
X325180Y-126620D01*
X325530Y-126287D01*
X325705Y-125820D01*
X325588Y-125353D01*
X325297Y-124953D01*
X324772Y-124687D01*
X324072Y-124553D01*
X323663Y-124287D01*
X323488Y-123820D01*
X323605Y-123353D01*
X323897Y-123020D01*
X324305Y-122820D01*
X324713D01*
X325122Y-122953D01*
X325472Y-123287D01*
G01X330447Y-126820D02*
X328113D01*
Y-122820D01*
X330447D01*
G01X329513Y-124753D02*
X328113D01*
G01X338880Y-126820D02*
X338413Y-126753D01*
X338005Y-126487D01*
X337655Y-126087D01*
X337422Y-125620D01*
X337305Y-125087D01*
Y-124553D01*
X337422Y-124020D01*
X337655Y-123553D01*
X338005Y-123153D01*
X338413Y-122887D01*
X338880Y-122820D01*
X339347Y-122887D01*
X339755Y-123153D01*
X340105Y-123553D01*
X340338Y-124020D01*
X340455Y-124553D01*
Y-125087D01*
X340338Y-125620D01*
X340105Y-126087D01*
X339755Y-126487D01*
X339347Y-126753D01*
X338880Y-126820D01*
G01X342338D02*
Y-122820D01*
X345022Y-126820D01*
Y-122820D01*
G01X347313D02*
Y-126820D01*
X349647D01*
G01X353280D02*
Y-125020D01*
X352113Y-122820D01*
G01X354447D02*
X353280Y-125020D01*
G01X358372Y-128153D02*
X358955Y-127487D01*
X359247Y-126820D01*
Y-124153D01*
X358955Y-123487D01*
X358372Y-122820D01*
G01X212235Y-127820D02*
X215525Y-121520D01*
G01X212235D02*
X215525Y-127820D01*
G01X207530Y-112153D02*
X211030D01*
G01X212330D02*
X215830D01*
G01X217130D02*
X220630D01*
G01X227313Y-110820D02*
Y-106820D01*
X228713D01*
X229180Y-107020D01*
X229530Y-107487D01*
X229647Y-108020D01*
X229530Y-108553D01*
X229238Y-108953D01*
X228713Y-109153D01*
X227313D01*
G01X231997Y-106820D02*
Y-109687D01*
X232230Y-110287D01*
X232697Y-110687D01*
X233280Y-110820D01*
X233863Y-110687D01*
X234330Y-110287D01*
X234563Y-109687D01*
Y-106820D01*
G01X238547Y-108687D02*
X238780Y-108487D01*
X238955Y-108153D01*
X239072Y-107687D01*
X238955Y-107287D01*
X238722Y-107020D01*
X238313Y-106820D01*
X236738D01*
Y-110820D01*
X238663D01*
X239072Y-110553D01*
X239305Y-110153D01*
X239422Y-109687D01*
X239305Y-109220D01*
X238955Y-108820D01*
X238547Y-108687D01*
X236738D01*
G01X242180Y-106820D02*
X243580D01*
G01X242880D02*
Y-110820D01*
G01X242180D02*
X243580D01*
G01X252188Y-112153D02*
X251605Y-111487D01*
X251313Y-110820D01*
Y-108153D01*
X251605Y-107487D01*
X252188Y-106820D01*
G01X256113Y-110820D02*
Y-106820D01*
X257513D01*
X257980Y-107020D01*
X258330Y-107487D01*
X258447Y-108020D01*
X258330Y-108553D01*
X258038Y-108953D01*
X257513Y-109153D01*
X256113D01*
G01X260797Y-106820D02*
Y-109687D01*
X261030Y-110287D01*
X261497Y-110687D01*
X262080Y-110820D01*
X262663Y-110687D01*
X263130Y-110287D01*
X263363Y-109687D01*
Y-106820D01*
G01X267347Y-108687D02*
X267580Y-108487D01*
X267755Y-108153D01*
X267872Y-107687D01*
X267755Y-107287D01*
X267522Y-107020D01*
X267113Y-106820D01*
X265538D01*
Y-110820D01*
X267463D01*
X267872Y-110553D01*
X268105Y-110153D01*
X268222Y-109687D01*
X268105Y-109220D01*
X267755Y-108820D01*
X267347Y-108687D01*
X265538D01*
G01X270513Y-106820D02*
Y-110820D01*
X272847D01*
G01X275780Y-106820D02*
X277180D01*
G01X276480D02*
Y-110820D01*
G01X275780D02*
X277180D01*
G01X282563Y-107153D02*
X282213Y-106953D01*
X281805Y-106820D01*
X281338D01*
X280813Y-107020D01*
X280405Y-107353D01*
X280113Y-107753D01*
X279880Y-108420D01*
X279822Y-109020D01*
X279938Y-109620D01*
X280113Y-110020D01*
X280463Y-110420D01*
X280872Y-110687D01*
X281280Y-110820D01*
X281688D01*
X282097Y-110687D01*
X282447Y-110487D01*
X282738Y-110220D01*
G01X290180Y-106820D02*
X291580D01*
G01X290880D02*
Y-110820D01*
G01X290180D02*
X291580D01*
G01X294338D02*
Y-106820D01*
X297022Y-110820D01*
Y-106820D01*
G01X299372Y-110820D02*
Y-106820D01*
X301588D01*
G01X300772Y-108753D02*
X299372D01*
G01X305280Y-110820D02*
X304813Y-110753D01*
X304405Y-110487D01*
X304055Y-110087D01*
X303822Y-109620D01*
X303705Y-109087D01*
Y-108553D01*
X303822Y-108020D01*
X304055Y-107553D01*
X304405Y-107153D01*
X304813Y-106887D01*
X305280Y-106820D01*
X305747Y-106887D01*
X306155Y-107153D01*
X306505Y-107553D01*
X306738Y-108020D01*
X306855Y-108553D01*
Y-109087D01*
X306738Y-109620D01*
X306505Y-110087D01*
X306155Y-110487D01*
X305747Y-110753D01*
X305280Y-110820D01*
G01X308913D02*
Y-106820D01*
X310372D01*
X310838Y-107020D01*
X311130Y-107287D01*
X311247Y-107820D01*
X311130Y-108353D01*
X310780Y-108687D01*
X310372Y-108887D01*
X308913D01*
G01X310372D02*
X311247Y-110820D01*
G01X313363D02*
Y-106820D01*
X314880Y-110153D01*
X316397Y-106820D01*
Y-110820D01*
G01X318222D02*
X319680Y-106820D01*
X321138Y-110820D01*
G01X320613Y-109420D02*
X318747D01*
G01X324480Y-106820D02*
Y-110820D01*
G01X323138Y-106820D02*
X325822D01*
G01X328580D02*
X329980D01*
G01X329280D02*
Y-110820D01*
G01X328580D02*
X329980D01*
G01X334080D02*
X333613Y-110753D01*
X333205Y-110487D01*
X332855Y-110087D01*
X332622Y-109620D01*
X332505Y-109087D01*
Y-108553D01*
X332622Y-108020D01*
X332855Y-107553D01*
X333205Y-107153D01*
X333613Y-106887D01*
X334080Y-106820D01*
X334547Y-106887D01*
X334955Y-107153D01*
X335305Y-107553D01*
X335538Y-108020D01*
X335655Y-108553D01*
Y-109087D01*
X335538Y-109620D01*
X335305Y-110087D01*
X334955Y-110487D01*
X334547Y-110753D01*
X334080Y-110820D01*
G01X337538D02*
Y-106820D01*
X340222Y-110820D01*
Y-106820D01*
G01X343972Y-112153D02*
X344555Y-111487D01*
X344847Y-110820D01*
Y-108153D01*
X344555Y-107487D01*
X343972Y-106820D01*
G01X247938Y-158820D02*
Y-154820D01*
X250622Y-158820D01*
Y-154820D01*
G01X252797D02*
Y-157687D01*
X253030Y-158287D01*
X253497Y-158687D01*
X254080Y-158820D01*
X254663Y-158687D01*
X255130Y-158287D01*
X255363Y-157687D01*
Y-154820D01*
G01X257363Y-158820D02*
Y-154820D01*
X258880Y-158153D01*
X260397Y-154820D01*
Y-158820D01*
G01X264147Y-156687D02*
X264380Y-156487D01*
X264555Y-156153D01*
X264672Y-155687D01*
X264555Y-155287D01*
X264322Y-155020D01*
X263913Y-154820D01*
X262338D01*
Y-158820D01*
X264263D01*
X264672Y-158553D01*
X264905Y-158153D01*
X265022Y-157687D01*
X264905Y-157220D01*
X264555Y-156820D01*
X264147Y-156687D01*
X262338D01*
G01X269647Y-158820D02*
X267313D01*
Y-154820D01*
X269647D01*
G01X268713Y-156753D02*
X267313D01*
G01X272113Y-158820D02*
Y-154820D01*
X273572D01*
X274038Y-155020D01*
X274330Y-155287D01*
X274447Y-155820D01*
X274330Y-156353D01*
X273980Y-156687D01*
X273572Y-156887D01*
X272113D01*
G01X273572D02*
X274447Y-158820D01*
G01X257567Y-90650D02*
Y-84350D01*
X259133D01*
X259760Y-84665D01*
X260230Y-85085D01*
X260622Y-85715D01*
X260935Y-86450D01*
X261013Y-87500D01*
X260935Y-88550D01*
X260622Y-89285D01*
X260230Y-89915D01*
X259760Y-90335D01*
X259133Y-90650D01*
X257567D01*
G01X267157D02*
X264023D01*
Y-84350D01*
X267157D01*
G01X265903Y-87395D02*
X264023D01*
G01X269932Y-84350D02*
X271890Y-90650D01*
X273848Y-84350D01*
G01X276467Y-90650D02*
Y-84350D01*
G01X279443D02*
X276467Y-88235D01*
G01X279913Y-90650D02*
X277798Y-86450D01*
G01X283550Y-84350D02*
X285430D01*
G01X284490D02*
Y-90650D01*
G01X283550D02*
X285430D01*
G01X290790Y-84350D02*
Y-90650D01*
G01X288988Y-84350D02*
X292592D01*
G01X296072Y-88550D02*
X298108D01*
G01X301353Y-90650D02*
Y-84350D01*
X303390Y-89600D01*
X305427Y-84350D01*
Y-90650D01*
G01X308123D02*
Y-84350D01*
X310003D01*
X310630Y-84665D01*
X311100Y-85400D01*
X311257Y-86240D01*
X311100Y-87080D01*
X310708Y-87710D01*
X310003Y-88025D01*
X308123D01*
G01X317713Y-84875D02*
X317243Y-84560D01*
X316695Y-84350D01*
X316068D01*
X315363Y-84665D01*
X314815Y-85190D01*
X314423Y-85820D01*
X314110Y-86870D01*
X314032Y-87815D01*
X314188Y-88760D01*
X314423Y-89390D01*
X314893Y-90020D01*
X315442Y-90440D01*
X315990Y-90650D01*
X316538D01*
X317087Y-90440D01*
X317557Y-90125D01*
X317948Y-89705D01*
G01X320567D02*
X321037Y-90230D01*
X321585Y-90545D01*
X322290Y-90650D01*
X322995Y-90440D01*
X323543Y-90020D01*
X323935Y-89285D01*
X324013Y-88445D01*
X323857Y-87605D01*
X323465Y-87080D01*
X322917Y-86660D01*
X322368Y-86555D01*
X321820Y-86660D01*
X321115Y-87080D01*
X321350Y-84350D01*
X323465D01*
G01X328433Y-90650D02*
X328590Y-89285D01*
X328825Y-88130D01*
X329138Y-87080D01*
X329530Y-85925D01*
X330157Y-84350D01*
X327023D01*
G01X335830Y-90650D02*
Y-84350D01*
X332932Y-88865D01*
X336848D01*
G01X341190Y-90650D02*
X341738Y-90545D01*
X342365Y-90230D01*
X342757Y-89705D01*
X342913Y-88970D01*
X342757Y-88235D01*
X342287Y-87605D01*
X341582Y-87290D01*
X340798D01*
X340328Y-87080D01*
X339937Y-86555D01*
X339780Y-85820D01*
X340015Y-85085D01*
X340563Y-84560D01*
X341190Y-84350D01*
X341817Y-84560D01*
X342365Y-85085D01*
X342600Y-85820D01*
X342443Y-86555D01*
X342052Y-87080D01*
X341582Y-87290D01*
X340798D01*
X340093Y-87605D01*
X339623Y-88235D01*
X339467Y-88970D01*
X339623Y-89705D01*
X340015Y-90230D01*
X340642Y-90545D01*
X341190Y-90650D01*
G01X347960Y-87500D02*
X349527D01*
Y-89390D01*
X349057Y-90020D01*
X348508Y-90440D01*
X347725Y-90650D01*
X346942Y-90440D01*
X346393Y-90020D01*
X345923Y-89390D01*
X345610Y-88655D01*
X345453Y-87815D01*
Y-87080D01*
X345610Y-86450D01*
X345923Y-85715D01*
X346393Y-85085D01*
X346863Y-84665D01*
X347490Y-84350D01*
X348038D01*
X348665Y-84560D01*
X349135Y-84980D01*
G01X282880Y-165820D02*
Y-159520D01*
X281940Y-160780D01*
G01Y-165820D02*
X283820D01*
G01X289023D02*
X289180Y-164455D01*
X289415Y-163300D01*
X289728Y-162250D01*
X290120Y-161095D01*
X290747Y-159520D01*
X287613D01*
G01X295480D02*
X294853Y-159730D01*
X294383Y-160255D01*
X294070Y-160885D01*
X293835Y-161725D01*
X293757Y-162670D01*
X293835Y-163615D01*
X294070Y-164455D01*
X294383Y-165085D01*
X294853Y-165610D01*
X295480Y-165820D01*
X296107Y-165610D01*
X296577Y-165085D01*
X296890Y-164455D01*
X297125Y-163615D01*
X297203Y-162670D01*
X297125Y-161725D01*
X296890Y-160885D01*
X296577Y-160255D01*
X296107Y-159730D01*
X295480Y-159520D01*
G01X300762Y-163720D02*
X302798D01*
G01X306592Y-160570D02*
X307062Y-159940D01*
X307610Y-159625D01*
X308237Y-159520D01*
X309020Y-159730D01*
X309568Y-160255D01*
X309725Y-160885D01*
X309647Y-161515D01*
X309333Y-162040D01*
X307767Y-163090D01*
X307062Y-163825D01*
X306592Y-164875D01*
X306435Y-165820D01*
X309725D01*
G01X313048Y-165085D02*
X313597Y-165610D01*
X314223Y-165820D01*
X314850Y-165610D01*
X315398Y-164980D01*
X315790Y-164035D01*
X315947Y-163090D01*
Y-161935D01*
X315790Y-160990D01*
X315398Y-160150D01*
X314928Y-159730D01*
X314380Y-159520D01*
X313753Y-159730D01*
X313283Y-160150D01*
X312970Y-160780D01*
X312813Y-161620D01*
X312970Y-162355D01*
X313362Y-163090D01*
X313832Y-163510D01*
X314380Y-163615D01*
X315007Y-163405D01*
X315477Y-162880D01*
X315947Y-161935D01*
G01X320680Y-159520D02*
X320053Y-159730D01*
X319583Y-160255D01*
X319270Y-160885D01*
X319035Y-161725D01*
X318957Y-162670D01*
X319035Y-163615D01*
X319270Y-164455D01*
X319583Y-165085D01*
X320053Y-165610D01*
X320680Y-165820D01*
X321307Y-165610D01*
X321777Y-165085D01*
X322090Y-164455D01*
X322325Y-163615D01*
X322403Y-162670D01*
X322325Y-161725D01*
X322090Y-160885D01*
X321777Y-160255D01*
X321307Y-159730D01*
X320680Y-159520D01*
G01X325257Y-164560D02*
X325727Y-165295D01*
X326353Y-165715D01*
X327058Y-165820D01*
X327685Y-165715D01*
X328312Y-165190D01*
X328703Y-164560D01*
X328782Y-163930D01*
X328625Y-163195D01*
X328077Y-162670D01*
X327528Y-162460D01*
X326823D01*
G01X327528D02*
X327998Y-162145D01*
X328390Y-161620D01*
X328547Y-160990D01*
X328390Y-160360D01*
X327998Y-159835D01*
X327293Y-159520D01*
X326588Y-159625D01*
X325883Y-160045D01*
G01X333280Y-159520D02*
X332653Y-159730D01*
X332183Y-160255D01*
X331870Y-160885D01*
X331635Y-161725D01*
X331557Y-162670D01*
X331635Y-163615D01*
X331870Y-164455D01*
X332183Y-165085D01*
X332653Y-165610D01*
X333280Y-165820D01*
X333907Y-165610D01*
X334377Y-165085D01*
X334690Y-164455D01*
X334925Y-163615D01*
X335003Y-162670D01*
X334925Y-161725D01*
X334690Y-160885D01*
X334377Y-160255D01*
X333907Y-159730D01*
X333280Y-159520D01*
G01X344313Y-165820D02*
Y-159520D01*
X346272D01*
X346898Y-159835D01*
X347290Y-160255D01*
X347447Y-161095D01*
X347290Y-161935D01*
X346820Y-162460D01*
X346272Y-162775D01*
X344313D01*
G01X346272D02*
X347447Y-165820D01*
G01X353747D02*
X350613D01*
Y-159520D01*
X353747D01*
G01X352493Y-162565D02*
X350613D01*
G01X356522Y-159520D02*
X358480Y-165820D01*
X360438Y-159520D01*
G01X371707Y-162460D02*
X372020Y-162145D01*
X372255Y-161620D01*
X372412Y-160885D01*
X372255Y-160255D01*
X371942Y-159835D01*
X371393Y-159520D01*
X369278D01*
Y-165820D01*
X371863D01*
X372412Y-165400D01*
X372725Y-164770D01*
X372882Y-164035D01*
X372725Y-163300D01*
X372255Y-162670D01*
X371707Y-162460D01*
X369278D01*
G54D34*
X479094Y63719D03*
G54D25*
X47580Y96330D03*
G54D16*
G01X19530Y-150820D02*
X419530D01*
G01X19530Y-120820D02*
Y-100820D01*
X419530D01*
G01X69530Y-170820D02*
Y-150820D01*
G01X195030Y-170820D02*
Y-150820D01*
G01X194530Y-100820D02*
Y-70820D01*
G01X244530Y-170820D02*
Y-150820D01*
X22619Y56330D03*
Y101330D03*
X69878Y-18983D03*
X100150Y-15240D03*
X125150Y174760D03*
X440150Y173990D03*
X465150Y-15580D03*
G54D44*
G01X57580Y81330D02*
X52580D01*
X47580Y76330D01*
G54D35*
X467283Y70751D03*
Y88271D03*
G54D26*
X85920Y176843D03*
X103440D03*
G54D17*
X34627Y48220D03*
Y109440D03*
G54D36*
X479094Y95303D03*
G54D27*
X78888Y188654D03*
G54D18*
X16060Y127740D03*
X175150Y-15240D03*
X229150Y174760D03*
X236450Y82550D03*
X265150Y-15240D03*
X290720Y145840D03*
X315150Y174760D03*
X355150Y-15240D03*
X378060Y45290D03*
X425150Y174760D03*
G54D28*
X113600Y113100D03*
X127100D03*
X216760Y109180D03*
X260246Y154320D03*
G54D37*
X476750Y142559D03*
G54D19*
X30530Y170550D03*
X32725Y-9620D03*
X60460Y136338D03*
X51520Y160550D03*
X51540Y165550D03*
X69850Y106450D03*
X73440Y124700D03*
X75830Y150020D03*
X68560Y154690D03*
X116620Y63550D03*
X110190Y67440D03*
X90774Y68474D03*
X109910Y89350D03*
X90776Y90894D03*
X115555Y158960D03*
X120961Y67790D03*
X145451Y62470D03*
X124330Y128780D03*
X144520Y155603D03*
X133480Y155870D03*
X151451Y62300D03*
X153550Y143000D03*
X162750Y161580D03*
X168600Y159640D03*
X150920Y161770D03*
X160360Y152020D03*
X197800Y9430D03*
X189170Y138171D03*
X197799Y133880D03*
X197070Y151530D03*
X184502Y153570D03*
X190680Y157939D03*
X230090Y76472D03*
X221570Y142080D03*
X218399Y132670D03*
X243430Y24230D03*
X254520Y105905D03*
X256309Y134480D03*
X243090Y121653D03*
X250720Y159730D03*
X260700Y113779D03*
X281900Y123560D03*
X291742Y116220D03*
X299616Y124210D03*
X311427Y117760D03*
X289774Y137150D03*
X309719Y163870D03*
X302719Y163950D03*
X338986Y88220D03*
X323238Y90140D03*
X321270Y101910D03*
X340955Y155840D03*
X364449Y75210D03*
X343140Y86220D03*
X365910Y100695D03*
X353629Y113779D03*
X354480Y109830D03*
X343678Y109842D03*
X343880Y115747D03*
X356380Y94094D03*
X360440Y118372D03*
X384510Y32700D03*
X384500Y25700D03*
X380535Y52100D03*
X374390Y80380D03*
X376730Y77105D03*
X376790Y84210D03*
X374600Y73340D03*
X384510Y64382D03*
X374610Y95040D03*
X396260Y121720D03*
X381990Y121080D03*
X372167Y122190D03*
X402290Y7780D03*
X407080Y56960D03*
X415920Y55960D03*
X423640Y55510D03*
X423625Y97695D03*
X414310Y115620D03*
X411990Y106860D03*
X423830Y123950D03*
X421720Y149730D03*
X431240Y55210D03*
X453910Y100400D03*
X441310Y90790D03*
X427565Y97545D03*
X431505Y97570D03*
X442380Y96280D03*
X453840Y94660D03*
X442930Y134530D03*
X474720Y130290D03*
X471810Y134370D03*
X457350Y134440D03*
G54D38*
X476750Y147480D03*
G54D29*
X113600Y123100D03*
X127100D03*
X156760Y99180D03*
Y109180D03*
X166760Y99180D03*
Y109180D03*
X176760Y99180D03*
Y109180D03*
X186760Y99180D03*
Y109180D03*
X196760Y99180D03*
Y109180D03*
X206760Y99180D03*
Y109180D03*
X216760Y99180D03*
X250246Y144320D03*
X260246D03*
X250246Y154320D03*
G54D39*
G01X78578Y188654D02*
X110782D01*
G01X479094Y95613D02*
Y63409D01*
M02*
