G04 ================== begin FILE IDENTIFICATION RECORD ==================*
G04 Layout Name:  LAY-29030.brd*
G04 Film Name:    sss.art*
G04 File Format:  Gerber RS274X*
G04 File Origin:  Cadence Allegro 16.6-2015-S065*
G04 Origin Date:  Mon Jun 27 10:01:04 2016*
G04 *
G04 Layer:  REF DES/SILKSCREEN_BOTTOM*
G04 Layer:  PACKAGE GEOMETRY/SILKSCREEN_BOTTOM*
G04 Layer:  DRAWING FORMAT/FILM_TITLE_BLOCK*
G04 Layer:  BOARD GEOMETRY/OUTLINE*
G04 Layer:  BOARD GEOMETRY/SILKSCREEN_BOTTOM*
G04 *
G04 Offset:    (0.00 0.00)*
G04 Mirror:    No*
G04 Mode:      Positive*
G04 Rotation:  0*
G04 FullContactRelief:  No*
G04 UndefLineWidth:     8.00*
G04 ================== end FILE IDENTIFICATION RECORD ====================*
%FSLAX55Y55*MOIN*%
%IR0*IPPOS*OFA0.00000B0.00000*MIA0B0*SFA1.00000B1.00000*%
%ADD10C,.01*%
%ADD11C,.02*%
%ADD12C,.005*%
%ADD13C,.008*%
%ADD14C,.006*%
%ADD15C,.007*%
G75*
%LPD*%
G75*
G36*
G01X416010Y87800D02*
X421410Y78950D01*
X416010Y70150D01*
X415960D01*
Y74050D01*
X406060D01*
X405660Y74100D01*
X405410Y74150D01*
X405210Y74200D01*
X404760Y74350D01*
X404510Y74450D01*
X404110Y74650D01*
X403660Y74950D01*
X402960Y75650D01*
X402810Y75850D01*
X402610Y76150D01*
X402260Y76850D01*
X402160Y77100D01*
X402060Y77400D01*
X401960Y77750D01*
X401860Y78250D01*
X401810Y78550D01*
X401760Y79050D01*
Y82550D01*
X401810Y83100D01*
X401860Y83450D01*
X401960Y83950D01*
X402010Y84150D01*
X402210Y84750D01*
X402260Y84850D01*
X402310Y85000D01*
X402410Y85200D01*
X402510Y85350D01*
X402610Y85550D01*
X402710Y85700D01*
X402860Y85900D01*
X403110Y86200D01*
X403410Y86450D01*
X403560Y86600D01*
X403760Y86750D01*
X403910Y86850D01*
X404260Y87050D01*
X404460Y87150D01*
X404960Y87350D01*
X405260Y87450D01*
X405610Y87550D01*
X406110Y87650D01*
X406760Y87750D01*
X407310Y87800D01*
X416010D01*
G37*
G36*
G01X437560D02*
X432110Y78950D01*
X437560Y70100D01*
X431095D01*
X427435Y75950D01*
X423760Y70100D01*
X417285D01*
X422735Y79000D01*
X417310Y87800D01*
X423760D01*
X427440Y81950D01*
X431060Y87800D01*
X437560D01*
G37*
G36*
G01X453560Y70100D02*
Y87800D01*
X448080D01*
X438910Y77150D01*
Y87800D01*
X438860D01*
X433430Y78950D01*
X438905Y70080D01*
X448110Y80800D01*
Y70100D01*
X453560D01*
G37*
%LPC*%
G75*
G36*
G01X408470Y78400D02*
X415960D01*
Y83450D01*
X409110Y83445D01*
X408310Y83350D01*
X407910Y83250D01*
X407710Y83150D01*
X407460Y83000D01*
X407260Y82800D01*
X407110Y82600D01*
X406960Y82250D01*
X406910Y81950D01*
X406860Y81700D01*
Y80500D01*
X406910Y80250D01*
X406960Y79950D01*
X407060Y79550D01*
X407260Y79150D01*
X407360Y79000D01*
X407510Y78850D01*
X407710Y78700D01*
X408060Y78500D01*
X408470Y78400D01*
G37*
%LPD*%
G75*
G54D10*
G01X19530Y-150820D02*
X419530D01*
G01X19530Y-120820D02*
Y-100820D01*
X419530D01*
G01X69530Y-170820D02*
Y-150820D01*
G01X108120Y-22040D02*
X127120Y-9840D01*
G01X133220Y-22040D02*
X108420D01*
X120720Y2860D01*
X133320Y-22040D01*
G01X195030Y-170820D02*
Y-150820D01*
G01X194530Y-100820D02*
Y-70820D01*
G01X244530Y-170820D02*
Y-150820D01*
G01X347080Y56340D02*
X247080D01*
Y81340D01*
X347080D01*
Y56340D01*
G01X267210Y110500D02*
X317210D01*
Y85500D01*
X267210D01*
Y110500D01*
G54D11*
G01X419530Y-70820D02*
Y-170820D01*
X19530D01*
G01D02*
Y-70820D01*
X419530D01*
G54D12*
G01X201088Y144400D02*
G03I-1700J0D01*
G01X196088D02*
G03I-1700J0D01*
G01X244288Y154400D02*
X189388D01*
Y139400D01*
X244288D01*
Y154400D01*
G01X201088Y149400D02*
G03I-1700J0D01*
G01X196088D02*
G03I-1700J0D01*
G01X244130Y950D02*
X200730D01*
Y15550D01*
X244030D01*
X244130Y15350D01*
Y950D01*
G01X216630Y5450D02*
G03I-1700J0D01*
G01Y10450D02*
G03I-1700J0D01*
G01X221630Y5450D02*
G03I-1700J0D01*
G01X231630D02*
G03I-1700J0D01*
G01X226630D02*
G03I-1700J0D01*
G01X221630Y10450D02*
G03I-1700J0D01*
G01X226630D02*
G03I-1700J0D01*
G01X231630D02*
G03I-1700J0D01*
G01X211630Y5450D02*
G03I-1700J0D01*
G01X206630D02*
G03I-1700J0D01*
G01Y8750D02*
X203230D01*
Y12050D01*
X206630D01*
Y8750D01*
G01X211630Y10450D02*
G03I-1700J0D01*
G01X206088Y144400D02*
G03I-1700J0D01*
G01X231088D02*
G03I-1700J0D01*
G01X226088D02*
G03I-1700J0D01*
G01X221088D02*
G03I-1700J0D01*
G01X216088D02*
G03I-1700J0D01*
G01X211088D02*
G03I-1700J0D01*
G01X206088Y149400D02*
G03I-1700J0D01*
G01X231088D02*
G03I-1700J0D01*
G01X226088D02*
G03I-1700J0D01*
G01X221088D02*
G03I-1700J0D01*
G01X216088D02*
G03I-1700J0D01*
G01X211088D02*
G03I-1700J0D01*
G01X236630Y5450D02*
G03I-1700J0D01*
G01Y10450D02*
G03I-1700J0D01*
G01X241630Y5450D02*
G03I-1700J0D01*
G01Y10450D02*
G03I-1700J0D01*
G01X236088Y144400D02*
G03I-1700J0D01*
G01X237688Y146100D02*
X241088D01*
Y142700D01*
X237688D01*
Y146100D01*
G01X236088Y149400D02*
G03I-1700J0D01*
G01X241088D02*
G03I-1700J0D01*
G01X285950Y5000D02*
G03I-1700J0D01*
G01X323450Y500D02*
X280050D01*
Y15100D01*
X323350D01*
X323450Y14900D01*
Y500D01*
G01X285950Y8300D02*
X282550D01*
Y11600D01*
X285950D01*
Y8300D01*
G01X295950Y5000D02*
G03I-1700J0D01*
G01X290950D02*
G03I-1700J0D01*
G01X300950D02*
G03I-1700J0D01*
G01X305950D02*
G03I-1700J0D01*
G01X310950D02*
G03I-1700J0D01*
G01X315950D02*
G03I-1700J0D01*
G01Y10000D02*
G03I-1700J0D01*
G01X290950D02*
G03I-1700J0D01*
G01X295950D02*
G03I-1700J0D01*
G01X300950D02*
G03I-1700J0D01*
G01X305950D02*
G03I-1700J0D01*
G01X310950D02*
G03I-1700J0D01*
G01X305820Y132240D02*
G03I-1700J0D01*
G01X310820D02*
G03I-1700J0D01*
G01Y137240D02*
G03I-1700J0D01*
G01X305820D02*
G03I-1700J0D01*
G01X315820Y132240D02*
G03I-1700J0D01*
G01Y137240D02*
G03I-1700J0D01*
G01X299920Y141740D02*
X343320D01*
Y127140D01*
X300020D01*
X299920Y127340D01*
Y141740D01*
G01X320950Y5000D02*
G03I-1700J0D01*
G01Y10000D02*
G03I-1700J0D01*
G01X340820Y137240D02*
G03I-1700J0D01*
G01X335820Y132240D02*
G03I-1700J0D01*
G01X337420Y133940D02*
X340820D01*
Y130640D01*
X337420D01*
Y133940D01*
G01X335820Y137240D02*
G03I-1700J0D01*
G01X330820Y132240D02*
G03I-1700J0D01*
G01Y137240D02*
G03I-1700J0D01*
G01X320820Y132240D02*
G03I-1700J0D01*
G01X325820D02*
G03I-1700J0D01*
G01Y137240D02*
G03I-1700J0D01*
G01X320820D02*
G03I-1700J0D01*
G01X365298Y131830D02*
G03I-1700J0D01*
G01X370298D02*
G03I-1700J0D01*
G01X360298D02*
G03I-1700J0D01*
G01X355298D02*
G03I-1700J0D01*
G01X403498Y141830D02*
X348598D01*
Y126830D01*
X403498D01*
Y141830D01*
G01X365298Y136830D02*
G03I-1700J0D01*
G01X370298D02*
G03I-1700J0D01*
G01X360298D02*
G03I-1700J0D01*
G01X355298D02*
G03I-1700J0D01*
G01X384942Y90D02*
X439842D01*
Y15090D01*
X384942D01*
Y90D01*
G01X391542Y8390D02*
X388142D01*
Y11790D01*
X391542D01*
Y8390D01*
G01X396542Y10090D02*
G03I-1700J0D01*
G01X391542Y5090D02*
G03I-1700J0D01*
G01X396542D02*
G03I-1700J0D01*
G01X395298Y131830D02*
G03I-1700J0D01*
G01X396898Y133530D02*
X400298D01*
Y130130D01*
X396898D01*
Y133530D01*
G01X385298Y131830D02*
G03I-1700J0D01*
G01X390298D02*
G03I-1700J0D01*
G01X380298D02*
G03I-1700J0D01*
G01X395298Y136830D02*
G03I-1700J0D01*
G01X400298D02*
G03I-1700J0D01*
G01X385298D02*
G03I-1700J0D01*
G01X390298D02*
G03I-1700J0D01*
G01X380298D02*
G03I-1700J0D01*
G01X375298Y131830D02*
G03I-1700J0D01*
G01Y136830D02*
G03I-1700J0D01*
G01X416542Y10090D02*
G03I-1700J0D01*
G01X401542D02*
G03I-1700J0D01*
G01X411542D02*
G03I-1700J0D01*
G01X406542D02*
G03I-1700J0D01*
G01X426542D02*
G03I-1700J0D01*
G01X421542D02*
G03I-1700J0D01*
G01X416542Y5090D02*
G03I-1700J0D01*
G01X401542D02*
G03I-1700J0D01*
G01X411542D02*
G03I-1700J0D01*
G01X406542D02*
G03I-1700J0D01*
G01X426542D02*
G03I-1700J0D01*
G01X421542D02*
G03I-1700J0D01*
G01X436542Y10090D02*
G03I-1700J0D01*
G01X431542D02*
G03I-1700J0D01*
G01X436542Y5090D02*
G03I-1700J0D01*
G01X431542D02*
G03I-1700J0D01*
G54D13*
G01X25400Y-35390D02*
X450400D01*
G03X485400Y-390I0J35000D01*
G01Y159610D01*
G03X450400Y194610I-35000J0D01*
G01X25300D01*
G03X-9700Y159610I0J-35000D01*
G01X-9600Y-380D01*
Y-390D01*
G03X25400Y-35390I35000J0D01*
G01X113520Y-12740D02*
G02X115920Y-13840I0J-3168D01*
G03X116620Y-14440I2331J2011D01*
G01X120220Y-15640D01*
G02X122720Y-18040I0J-2502D01*
G03X123620Y-18340I572J217D01*
G01X123720Y-18140D01*
G03X123620Y-16440I-1530J763D01*
G03X122920Y-15440I-17462J-11479D01*
G03X120920Y-14240I-2459J-1832D01*
G01X114820Y-9540D02*
G02X115520Y-9640I0J-2500D01*
G03X116120Y-9740I720J2469D01*
G03X117620I750J16061D01*
G03X120120Y-9340I-529J11319D01*
G02X124020Y-10140I1168J-4210D01*
G02X124520Y-10840I-987J-1234D01*
G03X125220Y-11640I1358J482D01*
G01X125720Y-12040D01*
X126320Y-12540D01*
G02X126920Y-13640I-1090J-1308D01*
G01Y-13740D01*
X126820Y-14140D01*
X126720Y-14740D01*
X126620Y-15540D01*
Y-16840D01*
G02X125920Y-18540I-2414J0D01*
G02X125120Y-17940I-350J367D01*
G01X125420Y-17340D01*
X125220Y-15940D01*
G02X125320Y-15140I1511J217D01*
G03X125620Y-14340I-13600J5556D01*
G01X125020Y-14240D01*
G02X124520Y-14040I207J1242D01*
G02X123020Y-12940I15546J22772D01*
G01X335040Y44170D02*
G02X334540Y41670I1500J-1600D01*
G01X340440Y42670D02*
G03I-3900J0D01*
G54D14*
G01X-1810Y-7833D02*
Y-5033D01*
X-453Y-7040D01*
X-2287D01*
G01X-430Y34447D02*
Y37247D01*
X10Y36687D01*
G01Y34447D02*
X-870D01*
G01X4850Y68395D02*
Y71195D01*
X5290Y70635D01*
G01Y68395D02*
X4410D01*
G01X2847Y70728D02*
X2627Y71008D01*
X2370Y71148D01*
X2077Y71195D01*
X1710Y71102D01*
X1453Y70868D01*
X1380Y70588D01*
X1417Y70308D01*
X1563Y70075D01*
X2297Y69608D01*
X2627Y69282D01*
X2847Y68815D01*
X2920Y68395D01*
X1380D01*
G01X4670Y108205D02*
Y111005D01*
X5110Y110445D01*
G01Y108205D02*
X4230D01*
G01X1530D02*
Y111005D01*
X2887Y108998D01*
X1053D01*
G01X-170Y118607D02*
Y121407D01*
X1187Y119400D01*
X-647D01*
G01X300Y162837D02*
Y165637D01*
X740Y165077D01*
G01Y162837D02*
X-140D01*
G01X22190Y-167730D02*
Y-161730D01*
X21250Y-162930D01*
G01Y-167730D02*
X23130D01*
G01X28490D02*
Y-161730D01*
X27550Y-162930D01*
G01Y-167730D02*
X29430D01*
G01X41090D02*
X40463Y-167630D01*
X39915Y-167230D01*
X39445Y-166630D01*
X39132Y-165930D01*
X38975Y-165130D01*
Y-164330D01*
X39132Y-163530D01*
X39445Y-162830D01*
X39915Y-162230D01*
X40463Y-161830D01*
X41090Y-161730D01*
X41717Y-161830D01*
X42265Y-162230D01*
X42735Y-162830D01*
X43048Y-163530D01*
X43205Y-164330D01*
Y-165130D01*
X43048Y-165930D01*
X42735Y-166630D01*
X42265Y-167230D01*
X41717Y-167630D01*
X41090Y-167730D01*
G01X45902D02*
Y-161730D01*
X48878D01*
G01X47782Y-164630D02*
X45902D01*
G01X59990Y-167730D02*
Y-161730D01*
X59050Y-162930D01*
G01Y-167730D02*
X60930D01*
G01X64802Y-162730D02*
X65272Y-162130D01*
X65820Y-161830D01*
X66447Y-161730D01*
X67230Y-161930D01*
X67778Y-162430D01*
X67935Y-163030D01*
X67857Y-163630D01*
X67543Y-164130D01*
X65977Y-165130D01*
X65272Y-165830D01*
X64802Y-166830D01*
X64645Y-167730D01*
X67935D01*
G01X30938Y-147820D02*
Y-143820D01*
X33622Y-147820D01*
Y-143820D01*
G01X35855Y-147820D02*
X38305Y-143820D01*
G01X35855D02*
X38305Y-147820D01*
G01X40713D02*
Y-143820D01*
X42113D01*
X42580Y-144020D01*
X42930Y-144487D01*
X43047Y-145020D01*
X42930Y-145553D01*
X42638Y-145953D01*
X42113Y-146153D01*
X40713D01*
G01X46680Y-147953D02*
X46563Y-147887D01*
Y-147753D01*
X46680Y-147687D01*
X46797Y-147753D01*
Y-147887D01*
X46680Y-147953D01*
G01X31280Y-139820D02*
X30813Y-139753D01*
X30405Y-139487D01*
X30055Y-139087D01*
X29822Y-138620D01*
X29705Y-138087D01*
Y-137553D01*
X29822Y-137020D01*
X30055Y-136553D01*
X30405Y-136153D01*
X30813Y-135887D01*
X31280Y-135820D01*
X31747Y-135887D01*
X32155Y-136153D01*
X32505Y-136553D01*
X32738Y-137020D01*
X32855Y-137553D01*
Y-138087D01*
X32738Y-138620D01*
X32505Y-139087D01*
X32155Y-139487D01*
X31747Y-139753D01*
X31280Y-139820D01*
G01X34913D02*
Y-135820D01*
X36372D01*
X36838Y-136020D01*
X37130Y-136287D01*
X37247Y-136820D01*
X37130Y-137353D01*
X36780Y-137687D01*
X36372Y-137887D01*
X34913D01*
G01X36372D02*
X37247Y-139820D01*
G01X44980Y-135820D02*
X46380D01*
G01X45680D02*
Y-139820D01*
G01X44980D02*
X46380D01*
G01X49138D02*
Y-135820D01*
X51822Y-139820D01*
Y-135820D01*
G01X58913Y-139820D02*
Y-135820D01*
X60313D01*
X60780Y-136020D01*
X61130Y-136487D01*
X61247Y-137020D01*
X61130Y-137553D01*
X60838Y-137953D01*
X60313Y-138153D01*
X58913D01*
G01X63422Y-139820D02*
X64880Y-135820D01*
X66338Y-139820D01*
G01X65813Y-138420D02*
X63947D01*
G01X68513Y-139820D02*
Y-135820D01*
X69972D01*
X70438Y-136020D01*
X70730Y-136287D01*
X70847Y-136820D01*
X70730Y-137353D01*
X70380Y-137687D01*
X69972Y-137887D01*
X68513D01*
G01X69972D02*
X70847Y-139820D01*
G01X74480Y-135820D02*
Y-139820D01*
G01X73138Y-135820D02*
X75822D01*
G01X82330D02*
X83147Y-139820D01*
X84080Y-135820D01*
X85013Y-139820D01*
X85830Y-135820D01*
G01X88180D02*
X89580D01*
G01X88880D02*
Y-139820D01*
G01X88180D02*
X89580D01*
G01X93680Y-135820D02*
Y-139820D01*
G01X92338Y-135820D02*
X95022D01*
G01X97255Y-139820D02*
Y-135820D01*
G01X99705D02*
Y-139820D01*
G01Y-137820D02*
X97255D01*
G01X103280Y-139820D02*
X102813Y-139753D01*
X102405Y-139487D01*
X102055Y-139087D01*
X101822Y-138620D01*
X101705Y-138087D01*
Y-137553D01*
X101822Y-137020D01*
X102055Y-136553D01*
X102405Y-136153D01*
X102813Y-135887D01*
X103280Y-135820D01*
X103747Y-135887D01*
X104155Y-136153D01*
X104505Y-136553D01*
X104738Y-137020D01*
X104855Y-137553D01*
Y-138087D01*
X104738Y-138620D01*
X104505Y-139087D01*
X104155Y-139487D01*
X103747Y-139753D01*
X103280Y-139820D01*
G01X106797Y-135820D02*
Y-138687D01*
X107030Y-139287D01*
X107497Y-139687D01*
X108080Y-139820D01*
X108663Y-139687D01*
X109130Y-139287D01*
X109363Y-138687D01*
Y-135820D01*
G01X112880D02*
Y-139820D01*
G01X111538Y-135820D02*
X114222D01*
G01X122480D02*
Y-139820D01*
G01X121138Y-135820D02*
X123822D01*
G01X126055Y-139820D02*
Y-135820D01*
G01X128505D02*
Y-139820D01*
G01Y-137820D02*
X126055D01*
G01X133247Y-139820D02*
X130913D01*
Y-135820D01*
X133247D01*
G01X132313Y-137753D02*
X130913D01*
G01X142963Y-136153D02*
X142613Y-135953D01*
X142205Y-135820D01*
X141738D01*
X141213Y-136020D01*
X140805Y-136353D01*
X140513Y-136753D01*
X140280Y-137420D01*
X140222Y-138020D01*
X140338Y-138620D01*
X140513Y-139020D01*
X140863Y-139420D01*
X141272Y-139687D01*
X141680Y-139820D01*
X142088D01*
X142497Y-139687D01*
X142847Y-139487D01*
X143138Y-139220D01*
G01X146480Y-139820D02*
X146013Y-139753D01*
X145605Y-139487D01*
X145255Y-139087D01*
X145022Y-138620D01*
X144905Y-138087D01*
Y-137553D01*
X145022Y-137020D01*
X145255Y-136553D01*
X145605Y-136153D01*
X146013Y-135887D01*
X146480Y-135820D01*
X146947Y-135887D01*
X147355Y-136153D01*
X147705Y-136553D01*
X147938Y-137020D01*
X148055Y-137553D01*
Y-138087D01*
X147938Y-138620D01*
X147705Y-139087D01*
X147355Y-139487D01*
X146947Y-139753D01*
X146480Y-139820D01*
G01X149938D02*
Y-135820D01*
X152622Y-139820D01*
Y-135820D01*
G01X154855Y-139287D02*
X155322Y-139620D01*
X155847Y-139820D01*
X156313D01*
X156780Y-139620D01*
X157130Y-139287D01*
X157305Y-138820D01*
X157188Y-138353D01*
X156897Y-137953D01*
X156372Y-137687D01*
X155672Y-137553D01*
X155263Y-137287D01*
X155088Y-136820D01*
X155205Y-136353D01*
X155497Y-136020D01*
X155905Y-135820D01*
X156313D01*
X156722Y-135953D01*
X157072Y-136287D01*
G01X162047Y-139820D02*
X159713D01*
Y-135820D01*
X162047D01*
G01X161113Y-137753D02*
X159713D01*
G01X164338Y-139820D02*
Y-135820D01*
X167022Y-139820D01*
Y-135820D01*
G01X170480D02*
Y-139820D01*
G01X169138Y-135820D02*
X171822D01*
G01X180080Y-139820D02*
X179613Y-139753D01*
X179205Y-139487D01*
X178855Y-139087D01*
X178622Y-138620D01*
X178505Y-138087D01*
Y-137553D01*
X178622Y-137020D01*
X178855Y-136553D01*
X179205Y-136153D01*
X179613Y-135887D01*
X180080Y-135820D01*
X180547Y-135887D01*
X180955Y-136153D01*
X181305Y-136553D01*
X181538Y-137020D01*
X181655Y-137553D01*
Y-138087D01*
X181538Y-138620D01*
X181305Y-139087D01*
X180955Y-139487D01*
X180547Y-139753D01*
X180080Y-139820D01*
G01X183772D02*
Y-135820D01*
X185988D01*
G01X185172Y-137753D02*
X183772D01*
G01X23055Y-158287D02*
X23522Y-158620D01*
X24047Y-158820D01*
X24513D01*
X24980Y-158620D01*
X25330Y-158287D01*
X25505Y-157820D01*
X25388Y-157353D01*
X25097Y-156953D01*
X24572Y-156687D01*
X23872Y-156553D01*
X23463Y-156287D01*
X23288Y-155820D01*
X23405Y-155353D01*
X23697Y-155020D01*
X24105Y-154820D01*
X24513D01*
X24922Y-154953D01*
X25272Y-155287D01*
G01X27855Y-158820D02*
Y-154820D01*
G01X30305D02*
Y-158820D01*
G01Y-156820D02*
X27855D01*
G01X35047Y-158820D02*
X32713D01*
Y-154820D01*
X35047D01*
G01X34113Y-156753D02*
X32713D01*
G01X39847Y-158820D02*
X37513D01*
Y-154820D01*
X39847D01*
G01X38913Y-156753D02*
X37513D01*
G01X43480Y-154820D02*
Y-158820D01*
G01X42138Y-154820D02*
X44822D01*
G01X30113Y-115820D02*
Y-111820D01*
X31513D01*
X31980Y-112020D01*
X32330Y-112487D01*
X32447Y-113020D01*
X32330Y-113553D01*
X32038Y-113953D01*
X31513Y-114153D01*
X30113D01*
G01X34913Y-115820D02*
Y-111820D01*
X36372D01*
X36838Y-112020D01*
X37130Y-112287D01*
X37247Y-112820D01*
X37130Y-113353D01*
X36780Y-113687D01*
X36372Y-113887D01*
X34913D01*
G01X36372D02*
X37247Y-115820D01*
G01X40880D02*
X40413Y-115753D01*
X40005Y-115487D01*
X39655Y-115087D01*
X39422Y-114620D01*
X39305Y-114087D01*
Y-113553D01*
X39422Y-113020D01*
X39655Y-112553D01*
X40005Y-112153D01*
X40413Y-111887D01*
X40880Y-111820D01*
X41347Y-111887D01*
X41755Y-112153D01*
X42105Y-112553D01*
X42338Y-113020D01*
X42455Y-113553D01*
Y-114087D01*
X42338Y-114620D01*
X42105Y-115087D01*
X41755Y-115487D01*
X41347Y-115753D01*
X40880Y-115820D01*
G01X44513D02*
Y-111820D01*
X45913D01*
X46380Y-112020D01*
X46730Y-112487D01*
X46847Y-113020D01*
X46730Y-113553D01*
X46438Y-113953D01*
X45913Y-114153D01*
X44513D01*
G01X49313Y-115820D02*
Y-111820D01*
X50772D01*
X51238Y-112020D01*
X51530Y-112287D01*
X51647Y-112820D01*
X51530Y-113353D01*
X51180Y-113687D01*
X50772Y-113887D01*
X49313D01*
G01X50772D02*
X51647Y-115820D01*
G01X54580Y-111820D02*
X55980D01*
G01X55280D02*
Y-115820D01*
G01X54580D02*
X55980D01*
G01X61247D02*
X58913D01*
Y-111820D01*
X61247D01*
G01X60313Y-113753D02*
X58913D01*
G01X64880Y-111820D02*
Y-115820D01*
G01X63538Y-111820D02*
X66222D01*
G01X68222Y-115820D02*
X69680Y-111820D01*
X71138Y-115820D01*
G01X70613Y-114420D02*
X68747D01*
G01X73313Y-115820D02*
Y-111820D01*
X74772D01*
X75238Y-112020D01*
X75530Y-112287D01*
X75647Y-112820D01*
X75530Y-113353D01*
X75180Y-113687D01*
X74772Y-113887D01*
X73313D01*
G01X74772D02*
X75647Y-115820D01*
G01X79280D02*
Y-114020D01*
X78113Y-111820D01*
G01X80447D02*
X79280Y-114020D01*
G01X88880Y-111820D02*
Y-115820D01*
G01X87538Y-111820D02*
X90222D01*
G01X93680Y-115820D02*
X93213Y-115753D01*
X92805Y-115487D01*
X92455Y-115087D01*
X92222Y-114620D01*
X92105Y-114087D01*
Y-113553D01*
X92222Y-113020D01*
X92455Y-112553D01*
X92805Y-112153D01*
X93213Y-111887D01*
X93680Y-111820D01*
X94147Y-111887D01*
X94555Y-112153D01*
X94905Y-112553D01*
X95138Y-113020D01*
X95255Y-113553D01*
Y-114087D01*
X95138Y-114620D01*
X94905Y-115087D01*
X94555Y-115487D01*
X94147Y-115753D01*
X93680Y-115820D01*
G01X101938D02*
Y-111820D01*
X104622Y-115820D01*
Y-111820D01*
G01X106855Y-115820D02*
X109305Y-111820D01*
G01X106855D02*
X109305Y-115820D01*
G01X111713D02*
Y-111820D01*
X113113D01*
X113580Y-112020D01*
X113930Y-112487D01*
X114047Y-113020D01*
X113930Y-113553D01*
X113638Y-113953D01*
X113113Y-114153D01*
X111713D01*
G01X121022Y-115820D02*
X122480Y-111820D01*
X123938Y-115820D01*
G01X123413Y-114420D02*
X121547D01*
G01X125938Y-115820D02*
Y-111820D01*
X128622Y-115820D01*
Y-111820D01*
G01X130797Y-115820D02*
Y-111820D01*
X131963D01*
X132430Y-112020D01*
X132780Y-112287D01*
X133072Y-112687D01*
X133305Y-113153D01*
X133363Y-113820D01*
X133305Y-114487D01*
X133072Y-114953D01*
X132780Y-115353D01*
X132430Y-115620D01*
X131963Y-115820D01*
X130797D01*
G01X140455Y-115287D02*
X140922Y-115620D01*
X141447Y-115820D01*
X141913D01*
X142380Y-115620D01*
X142730Y-115287D01*
X142905Y-114820D01*
X142788Y-114353D01*
X142497Y-113953D01*
X141972Y-113687D01*
X141272Y-113553D01*
X140863Y-113287D01*
X140688Y-112820D01*
X140805Y-112353D01*
X141097Y-112020D01*
X141505Y-111820D01*
X141913D01*
X142322Y-111953D01*
X142672Y-112287D01*
G01X145255Y-115820D02*
Y-111820D01*
G01X147705D02*
Y-115820D01*
G01Y-113820D02*
X145255D01*
G01X149822Y-115820D02*
X151280Y-111820D01*
X152738Y-115820D01*
G01X152213Y-114420D02*
X150347D01*
G01X154913Y-111820D02*
Y-115820D01*
X157247D01*
G01X159713Y-111820D02*
Y-115820D01*
X162047D01*
G01X30113Y-131820D02*
Y-127820D01*
X31513D01*
X31980Y-128020D01*
X32330Y-128487D01*
X32447Y-129020D01*
X32330Y-129553D01*
X32038Y-129953D01*
X31513Y-130153D01*
X30113D01*
G01X34913Y-131820D02*
Y-127820D01*
X36372D01*
X36838Y-128020D01*
X37130Y-128287D01*
X37247Y-128820D01*
X37130Y-129353D01*
X36780Y-129687D01*
X36372Y-129887D01*
X34913D01*
G01X36372D02*
X37247Y-131820D01*
G01X40880D02*
X40413Y-131753D01*
X40005Y-131487D01*
X39655Y-131087D01*
X39422Y-130620D01*
X39305Y-130087D01*
Y-129553D01*
X39422Y-129020D01*
X39655Y-128553D01*
X40005Y-128153D01*
X40413Y-127887D01*
X40880Y-127820D01*
X41347Y-127887D01*
X41755Y-128153D01*
X42105Y-128553D01*
X42338Y-129020D01*
X42455Y-129553D01*
Y-130087D01*
X42338Y-130620D01*
X42105Y-131087D01*
X41755Y-131487D01*
X41347Y-131753D01*
X40880Y-131820D01*
G01X46963Y-128153D02*
X46613Y-127953D01*
X46205Y-127820D01*
X45738D01*
X45213Y-128020D01*
X44805Y-128353D01*
X44513Y-128753D01*
X44280Y-129420D01*
X44222Y-130020D01*
X44338Y-130620D01*
X44513Y-131020D01*
X44863Y-131420D01*
X45272Y-131687D01*
X45680Y-131820D01*
X46088D01*
X46497Y-131687D01*
X46847Y-131487D01*
X47138Y-131220D01*
G01X49197Y-127820D02*
Y-130687D01*
X49430Y-131287D01*
X49897Y-131687D01*
X50480Y-131820D01*
X51063Y-131687D01*
X51530Y-131287D01*
X51763Y-130687D01*
Y-127820D01*
G01X54113Y-131820D02*
Y-127820D01*
X55572D01*
X56038Y-128020D01*
X56330Y-128287D01*
X56447Y-128820D01*
X56330Y-129353D01*
X55980Y-129687D01*
X55572Y-129887D01*
X54113D01*
G01X55572D02*
X56447Y-131820D01*
G01X61247D02*
X58913D01*
Y-127820D01*
X61247D01*
G01X60313Y-129753D02*
X58913D01*
G01X63363Y-131820D02*
Y-127820D01*
X64880Y-131153D01*
X66397Y-127820D01*
Y-131820D01*
G01X70847D02*
X68513D01*
Y-127820D01*
X70847D01*
G01X69913Y-129753D02*
X68513D01*
G01X73138Y-131820D02*
Y-127820D01*
X75822Y-131820D01*
Y-127820D01*
G01X79280D02*
Y-131820D01*
G01X77938Y-127820D02*
X80622D01*
G01X88880Y-131820D02*
X88413Y-131753D01*
X88005Y-131487D01*
X87655Y-131087D01*
X87422Y-130620D01*
X87305Y-130087D01*
Y-129553D01*
X87422Y-129020D01*
X87655Y-128553D01*
X88005Y-128153D01*
X88413Y-127887D01*
X88880Y-127820D01*
X89347Y-127887D01*
X89755Y-128153D01*
X90105Y-128553D01*
X90338Y-129020D01*
X90455Y-129553D01*
Y-130087D01*
X90338Y-130620D01*
X90105Y-131087D01*
X89755Y-131487D01*
X89347Y-131753D01*
X88880Y-131820D01*
G01X92513D02*
Y-127820D01*
X93972D01*
X94438Y-128020D01*
X94730Y-128287D01*
X94847Y-128820D01*
X94730Y-129353D01*
X94380Y-129687D01*
X93972Y-129887D01*
X92513D01*
G01X93972D02*
X94847Y-131820D01*
G01X101763D02*
Y-127820D01*
X103280Y-131153D01*
X104797Y-127820D01*
Y-131820D01*
G01X106622D02*
X108080Y-127820D01*
X109538Y-131820D01*
G01X109013Y-130420D02*
X107147D01*
G01X111538Y-131820D02*
Y-127820D01*
X114222Y-131820D01*
Y-127820D01*
G01X116397D02*
Y-130687D01*
X116630Y-131287D01*
X117097Y-131687D01*
X117680Y-131820D01*
X118263Y-131687D01*
X118730Y-131287D01*
X118963Y-130687D01*
Y-127820D01*
G01X121372Y-131820D02*
Y-127820D01*
X123588D01*
G01X122772Y-129753D02*
X121372D01*
G01X125822Y-131820D02*
X127280Y-127820D01*
X128738Y-131820D01*
G01X128213Y-130420D02*
X126347D01*
G01X133363Y-128153D02*
X133013Y-127953D01*
X132605Y-127820D01*
X132138D01*
X131613Y-128020D01*
X131205Y-128353D01*
X130913Y-128753D01*
X130680Y-129420D01*
X130622Y-130020D01*
X130738Y-130620D01*
X130913Y-131020D01*
X131263Y-131420D01*
X131672Y-131687D01*
X132080Y-131820D01*
X132488D01*
X132897Y-131687D01*
X133247Y-131487D01*
X133538Y-131220D01*
G01X136880Y-127820D02*
Y-131820D01*
G01X135538Y-127820D02*
X138222D01*
G01X140397D02*
Y-130687D01*
X140630Y-131287D01*
X141097Y-131687D01*
X141680Y-131820D01*
X142263Y-131687D01*
X142730Y-131287D01*
X142963Y-130687D01*
Y-127820D01*
G01X145313Y-131820D02*
Y-127820D01*
X146772D01*
X147238Y-128020D01*
X147530Y-128287D01*
X147647Y-128820D01*
X147530Y-129353D01*
X147180Y-129687D01*
X146772Y-129887D01*
X145313D01*
G01X146772D02*
X147647Y-131820D01*
G01X152447D02*
X150113D01*
Y-127820D01*
X152447D01*
G01X151513Y-129753D02*
X150113D01*
G01X160180Y-127820D02*
X161580D01*
G01X160880D02*
Y-131820D01*
G01X160180D02*
X161580D01*
G01X164338D02*
Y-127820D01*
X167022Y-131820D01*
Y-127820D01*
G01X173530D02*
X174347Y-131820D01*
X175280Y-127820D01*
X176213Y-131820D01*
X177030Y-127820D01*
G01X178855Y-131820D02*
Y-127820D01*
G01X181305D02*
Y-131820D01*
G01Y-129820D02*
X178855D01*
G01X184880Y-131820D02*
X184413Y-131753D01*
X184005Y-131487D01*
X183655Y-131087D01*
X183422Y-130620D01*
X183305Y-130087D01*
Y-129553D01*
X183422Y-129020D01*
X183655Y-128553D01*
X184005Y-128153D01*
X184413Y-127887D01*
X184880Y-127820D01*
X185347Y-127887D01*
X185755Y-128153D01*
X186105Y-128553D01*
X186338Y-129020D01*
X186455Y-129553D01*
Y-130087D01*
X186338Y-130620D01*
X186105Y-131087D01*
X185755Y-131487D01*
X185347Y-131753D01*
X184880Y-131820D01*
G01X188513Y-127820D02*
Y-131820D01*
X190847D01*
G01X195647D02*
X193313D01*
Y-127820D01*
X195647D01*
G01X194713Y-129753D02*
X193313D01*
G01X29938Y-123820D02*
Y-119820D01*
X32622Y-123820D01*
Y-119820D01*
G01X36080Y-123820D02*
X35613Y-123753D01*
X35205Y-123487D01*
X34855Y-123087D01*
X34622Y-122620D01*
X34505Y-122087D01*
Y-121553D01*
X34622Y-121020D01*
X34855Y-120553D01*
X35205Y-120153D01*
X35613Y-119887D01*
X36080Y-119820D01*
X36547Y-119887D01*
X36955Y-120153D01*
X37305Y-120553D01*
X37538Y-121020D01*
X37655Y-121553D01*
Y-122087D01*
X37538Y-122620D01*
X37305Y-123087D01*
X36955Y-123487D01*
X36547Y-123753D01*
X36080Y-123820D01*
G01X40880Y-119820D02*
Y-123820D01*
G01X39538Y-119820D02*
X42222D01*
G01X50947Y-121687D02*
X51180Y-121487D01*
X51355Y-121153D01*
X51472Y-120687D01*
X51355Y-120287D01*
X51122Y-120020D01*
X50713Y-119820D01*
X49138D01*
Y-123820D01*
X51063D01*
X51472Y-123553D01*
X51705Y-123153D01*
X51822Y-122687D01*
X51705Y-122220D01*
X51355Y-121820D01*
X50947Y-121687D01*
X49138D01*
G01X56447Y-123820D02*
X54113D01*
Y-119820D01*
X56447D01*
G01X55513Y-121753D02*
X54113D01*
G01X63597Y-119820D02*
Y-122687D01*
X63830Y-123287D01*
X64297Y-123687D01*
X64880Y-123820D01*
X65463Y-123687D01*
X65930Y-123287D01*
X66163Y-122687D01*
Y-119820D01*
G01X68455Y-123287D02*
X68922Y-123620D01*
X69447Y-123820D01*
X69913D01*
X70380Y-123620D01*
X70730Y-123287D01*
X70905Y-122820D01*
X70788Y-122353D01*
X70497Y-121953D01*
X69972Y-121687D01*
X69272Y-121553D01*
X68863Y-121287D01*
X68688Y-120820D01*
X68805Y-120353D01*
X69097Y-120020D01*
X69505Y-119820D01*
X69913D01*
X70322Y-119953D01*
X70672Y-120287D01*
G01X75647Y-123820D02*
X73313D01*
Y-119820D01*
X75647D01*
G01X74713Y-121753D02*
X73313D01*
G01X77997Y-123820D02*
Y-119820D01*
X79163D01*
X79630Y-120020D01*
X79980Y-120287D01*
X80272Y-120687D01*
X80505Y-121153D01*
X80563Y-121820D01*
X80505Y-122487D01*
X80272Y-122953D01*
X79980Y-123353D01*
X79630Y-123620D01*
X79163Y-123820D01*
X77997D01*
G01X87772D02*
Y-119820D01*
X89988D01*
G01X89172Y-121753D02*
X87772D01*
G01X93680Y-123820D02*
X93213Y-123753D01*
X92805Y-123487D01*
X92455Y-123087D01*
X92222Y-122620D01*
X92105Y-122087D01*
Y-121553D01*
X92222Y-121020D01*
X92455Y-120553D01*
X92805Y-120153D01*
X93213Y-119887D01*
X93680Y-119820D01*
X94147Y-119887D01*
X94555Y-120153D01*
X94905Y-120553D01*
X95138Y-121020D01*
X95255Y-121553D01*
Y-122087D01*
X95138Y-122620D01*
X94905Y-123087D01*
X94555Y-123487D01*
X94147Y-123753D01*
X93680Y-123820D01*
G01X97313D02*
Y-119820D01*
X98772D01*
X99238Y-120020D01*
X99530Y-120287D01*
X99647Y-120820D01*
X99530Y-121353D01*
X99180Y-121687D01*
X98772Y-121887D01*
X97313D01*
G01X98772D02*
X99647Y-123820D01*
G01X109247D02*
X106913D01*
Y-119820D01*
X109247D01*
G01X108313Y-121753D02*
X106913D01*
G01X111538Y-123820D02*
Y-119820D01*
X114222Y-123820D01*
Y-119820D01*
G01X118030Y-121820D02*
X119197D01*
Y-123020D01*
X118847Y-123420D01*
X118438Y-123687D01*
X117855Y-123820D01*
X117272Y-123687D01*
X116863Y-123420D01*
X116513Y-123020D01*
X116280Y-122553D01*
X116163Y-122020D01*
Y-121553D01*
X116280Y-121153D01*
X116513Y-120687D01*
X116863Y-120287D01*
X117213Y-120020D01*
X117680Y-119820D01*
X118088D01*
X118555Y-119953D01*
X118905Y-120220D01*
G01X121780Y-119820D02*
X123180D01*
G01X122480D02*
Y-123820D01*
G01X121780D02*
X123180D01*
G01X125938D02*
Y-119820D01*
X128622Y-123820D01*
Y-119820D01*
G01X133247Y-123820D02*
X130913D01*
Y-119820D01*
X133247D01*
G01X132313Y-121753D02*
X130913D01*
G01X138047Y-123820D02*
X135713D01*
Y-119820D01*
X138047D01*
G01X137113Y-121753D02*
X135713D01*
G01X140513Y-123820D02*
Y-119820D01*
X141972D01*
X142438Y-120020D01*
X142730Y-120287D01*
X142847Y-120820D01*
X142730Y-121353D01*
X142380Y-121687D01*
X141972Y-121887D01*
X140513D01*
G01X141972D02*
X142847Y-123820D01*
G01X145780Y-119820D02*
X147180D01*
G01X146480D02*
Y-123820D01*
G01X145780D02*
X147180D01*
G01X149938D02*
Y-119820D01*
X152622Y-123820D01*
Y-119820D01*
G01X156430Y-121820D02*
X157597D01*
Y-123020D01*
X157247Y-123420D01*
X156838Y-123687D01*
X156255Y-123820D01*
X155672Y-123687D01*
X155263Y-123420D01*
X154913Y-123020D01*
X154680Y-122553D01*
X154563Y-122020D01*
Y-121553D01*
X154680Y-121153D01*
X154913Y-120687D01*
X155263Y-120287D01*
X155613Y-120020D01*
X156080Y-119820D01*
X156488D01*
X156955Y-119953D01*
X157305Y-120220D01*
G01X164397Y-123820D02*
Y-119820D01*
X165563D01*
X166030Y-120020D01*
X166380Y-120287D01*
X166672Y-120687D01*
X166905Y-121153D01*
X166963Y-121820D01*
X166905Y-122487D01*
X166672Y-122953D01*
X166380Y-123353D01*
X166030Y-123620D01*
X165563Y-123820D01*
X164397D01*
G01X171647D02*
X169313D01*
Y-119820D01*
X171647D01*
G01X170713Y-121753D02*
X169313D01*
G01X174055Y-123287D02*
X174522Y-123620D01*
X175047Y-123820D01*
X175513D01*
X175980Y-123620D01*
X176330Y-123287D01*
X176505Y-122820D01*
X176388Y-122353D01*
X176097Y-121953D01*
X175572Y-121687D01*
X174872Y-121553D01*
X174463Y-121287D01*
X174288Y-120820D01*
X174405Y-120353D01*
X174697Y-120020D01*
X175105Y-119820D01*
X175513D01*
X175922Y-119953D01*
X176272Y-120287D01*
G01X179380Y-119820D02*
X180780D01*
G01X180080D02*
Y-123820D01*
G01X179380D02*
X180780D01*
G01X185230Y-121820D02*
X186397D01*
Y-123020D01*
X186047Y-123420D01*
X185638Y-123687D01*
X185055Y-123820D01*
X184472Y-123687D01*
X184063Y-123420D01*
X183713Y-123020D01*
X183480Y-122553D01*
X183363Y-122020D01*
Y-121553D01*
X183480Y-121153D01*
X183713Y-120687D01*
X184063Y-120287D01*
X184413Y-120020D01*
X184880Y-119820D01*
X185288D01*
X185755Y-119953D01*
X186105Y-120220D01*
G01X188338Y-123820D02*
Y-119820D01*
X191022Y-123820D01*
Y-119820D01*
G01X22822Y-97820D02*
X24280Y-93820D01*
X25738Y-97820D01*
G01X25213Y-96420D02*
X23347D01*
G01X27797Y-93820D02*
Y-96687D01*
X28030Y-97287D01*
X28497Y-97687D01*
X29080Y-97820D01*
X29663Y-97687D01*
X30130Y-97287D01*
X30363Y-96687D01*
Y-93820D01*
G01X32655Y-97287D02*
X33122Y-97620D01*
X33647Y-97820D01*
X34113D01*
X34580Y-97620D01*
X34930Y-97287D01*
X35105Y-96820D01*
X34988Y-96353D01*
X34697Y-95953D01*
X34172Y-95687D01*
X33472Y-95553D01*
X33063Y-95287D01*
X32888Y-94820D01*
X33005Y-94353D01*
X33297Y-94020D01*
X33705Y-93820D01*
X34113D01*
X34522Y-93953D01*
X34872Y-94287D01*
G01X38680Y-93820D02*
Y-97820D01*
G01X37338Y-93820D02*
X40022D01*
G01X42780D02*
X44180D01*
G01X43480D02*
Y-97820D01*
G01X42780D02*
X44180D01*
G01X46938D02*
Y-93820D01*
X49622Y-97820D01*
Y-93820D01*
G01X53080Y-97953D02*
X52963Y-97887D01*
Y-97753D01*
X53080Y-97687D01*
X53197Y-97753D01*
Y-97887D01*
X53080Y-97953D01*
G01X62680Y-93820D02*
Y-97820D01*
G01X61338Y-93820D02*
X64022D01*
G01X68647Y-97820D02*
X66313D01*
Y-93820D01*
X68647D01*
G01X67713Y-95753D02*
X66313D01*
G01X71055Y-97820D02*
X73505Y-93820D01*
G01X71055D02*
X73505Y-97820D01*
G01X75622D02*
X77080Y-93820D01*
X78538Y-97820D01*
G01X78013Y-96420D02*
X76147D01*
G01X80655Y-97287D02*
X81122Y-97620D01*
X81647Y-97820D01*
X82113D01*
X82580Y-97620D01*
X82930Y-97287D01*
X83105Y-96820D01*
X82988Y-96353D01*
X82697Y-95953D01*
X82172Y-95687D01*
X81472Y-95553D01*
X81063Y-95287D01*
X80888Y-94820D01*
X81005Y-94353D01*
X81297Y-94020D01*
X81705Y-93820D01*
X82113D01*
X82522Y-93953D01*
X82872Y-94287D01*
G01X91363Y-97820D02*
X91480Y-96953D01*
X91655Y-96220D01*
X91888Y-95553D01*
X92180Y-94820D01*
X92647Y-93820D01*
X90313D01*
G01X96280Y-97820D02*
X96688Y-97753D01*
X97155Y-97553D01*
X97447Y-97220D01*
X97563Y-96753D01*
X97447Y-96287D01*
X97097Y-95887D01*
X96572Y-95687D01*
X95988D01*
X95638Y-95553D01*
X95347Y-95220D01*
X95230Y-94753D01*
X95405Y-94287D01*
X95813Y-93953D01*
X96280Y-93820D01*
X96747Y-93953D01*
X97155Y-94287D01*
X97330Y-94753D01*
X97213Y-95220D01*
X96922Y-95553D01*
X96572Y-95687D01*
X95988D01*
X95463Y-95887D01*
X95113Y-96287D01*
X94997Y-96753D01*
X95113Y-97220D01*
X95405Y-97553D01*
X95872Y-97753D01*
X96280Y-97820D01*
G01X100963D02*
X101080Y-96953D01*
X101255Y-96220D01*
X101488Y-95553D01*
X101780Y-94820D01*
X102247Y-93820D01*
X99913D01*
G01X104597Y-97020D02*
X104947Y-97487D01*
X105413Y-97753D01*
X105938Y-97820D01*
X106405Y-97753D01*
X106872Y-97420D01*
X107163Y-97020D01*
X107222Y-96620D01*
X107105Y-96153D01*
X106697Y-95820D01*
X106288Y-95687D01*
X105763D01*
G01X106288D02*
X106638Y-95487D01*
X106930Y-95153D01*
X107047Y-94753D01*
X106930Y-94353D01*
X106638Y-94020D01*
X106113Y-93820D01*
X105588Y-93887D01*
X105063Y-94153D01*
G01X109397Y-97220D02*
X109747Y-97553D01*
X110155Y-97753D01*
X110680Y-97820D01*
X111205Y-97687D01*
X111613Y-97420D01*
X111905Y-96953D01*
X111963Y-96420D01*
X111847Y-95887D01*
X111555Y-95553D01*
X111147Y-95287D01*
X110738Y-95220D01*
X110330Y-95287D01*
X109805Y-95553D01*
X109980Y-93820D01*
X111555D01*
G01X118997D02*
Y-96687D01*
X119230Y-97287D01*
X119697Y-97687D01*
X120280Y-97820D01*
X120863Y-97687D01*
X121330Y-97287D01*
X121563Y-96687D01*
Y-93820D01*
G01X123855Y-97287D02*
X124322Y-97620D01*
X124847Y-97820D01*
X125313D01*
X125780Y-97620D01*
X126130Y-97287D01*
X126305Y-96820D01*
X126188Y-96353D01*
X125897Y-95953D01*
X125372Y-95687D01*
X124672Y-95553D01*
X124263Y-95287D01*
X124088Y-94820D01*
X124205Y-94353D01*
X124497Y-94020D01*
X124905Y-93820D01*
X125313D01*
X125722Y-93953D01*
X126072Y-94287D01*
G01X128422Y-97820D02*
X129880Y-93820D01*
X131338Y-97820D01*
G01X130813Y-96420D02*
X128947D01*
G01X23172Y-89153D02*
X23580Y-88687D01*
X23930Y-88420D01*
X24397Y-88287D01*
X24805Y-88420D01*
X25097Y-88687D01*
X25330Y-89087D01*
X25388Y-89553D01*
X25330Y-89953D01*
X25097Y-90353D01*
X24747Y-90687D01*
X24338Y-90820D01*
X23872Y-90687D01*
X23463Y-90287D01*
X23230Y-89687D01*
X23172Y-89020D01*
X23288Y-88153D01*
X23463Y-87687D01*
X23755Y-87220D01*
X24163Y-86887D01*
X24572Y-86820D01*
X24980Y-86953D01*
X25272Y-87287D01*
G01X27797Y-90220D02*
X28147Y-90553D01*
X28555Y-90753D01*
X29080Y-90820D01*
X29605Y-90687D01*
X30013Y-90420D01*
X30305Y-89953D01*
X30363Y-89420D01*
X30247Y-88887D01*
X29955Y-88553D01*
X29547Y-88287D01*
X29138Y-88220D01*
X28730Y-88287D01*
X28205Y-88553D01*
X28380Y-86820D01*
X29955D01*
G01X33880D02*
X33413Y-86953D01*
X33063Y-87287D01*
X32830Y-87687D01*
X32655Y-88220D01*
X32597Y-88820D01*
X32655Y-89420D01*
X32830Y-89953D01*
X33063Y-90353D01*
X33413Y-90687D01*
X33880Y-90820D01*
X34347Y-90687D01*
X34697Y-90353D01*
X34930Y-89953D01*
X35105Y-89420D01*
X35163Y-88820D01*
X35105Y-88220D01*
X34930Y-87687D01*
X34697Y-87287D01*
X34347Y-86953D01*
X33880Y-86820D01*
G01X38680Y-90820D02*
Y-86820D01*
X37980Y-87620D01*
G01Y-90820D02*
X39380D01*
G01X46530Y-86820D02*
X47347Y-90820D01*
X48280Y-86820D01*
X49213Y-90820D01*
X50030Y-86820D01*
G01X52380D02*
X53780D01*
G01X53080D02*
Y-90820D01*
G01X52380D02*
X53780D01*
G01X56713Y-86820D02*
Y-90820D01*
X59047D01*
G01X61513Y-86820D02*
Y-90820D01*
X63847D01*
G01X66780Y-86820D02*
X68180D01*
G01X67480D02*
Y-90820D01*
G01X66780D02*
X68180D01*
G01X70822D02*
X72280Y-86820D01*
X73738Y-90820D01*
G01X73213Y-89420D02*
X71347D01*
G01X75563Y-90820D02*
Y-86820D01*
X77080Y-90153D01*
X78597Y-86820D01*
Y-90820D01*
G01X87963Y-87153D02*
X87613Y-86953D01*
X87205Y-86820D01*
X86738D01*
X86213Y-87020D01*
X85805Y-87353D01*
X85513Y-87753D01*
X85280Y-88420D01*
X85222Y-89020D01*
X85338Y-89620D01*
X85513Y-90020D01*
X85863Y-90420D01*
X86272Y-90687D01*
X86680Y-90820D01*
X87088D01*
X87497Y-90687D01*
X87847Y-90487D01*
X88138Y-90220D01*
G01X90022Y-90820D02*
X91480Y-86820D01*
X92938Y-90820D01*
G01X92413Y-89420D02*
X90547D01*
G01X94938Y-90820D02*
Y-86820D01*
X97622Y-90820D01*
Y-86820D01*
G01X99738Y-90820D02*
Y-86820D01*
X102422Y-90820D01*
Y-86820D01*
G01X105880Y-90820D02*
X105413Y-90753D01*
X105005Y-90487D01*
X104655Y-90087D01*
X104422Y-89620D01*
X104305Y-89087D01*
Y-88553D01*
X104422Y-88020D01*
X104655Y-87553D01*
X105005Y-87153D01*
X105413Y-86887D01*
X105880Y-86820D01*
X106347Y-86887D01*
X106755Y-87153D01*
X107105Y-87553D01*
X107338Y-88020D01*
X107455Y-88553D01*
Y-89087D01*
X107338Y-89620D01*
X107105Y-90087D01*
X106755Y-90487D01*
X106347Y-90753D01*
X105880Y-90820D01*
G01X109338D02*
Y-86820D01*
X112022Y-90820D01*
Y-86820D01*
G01X118997Y-90820D02*
Y-86820D01*
X120163D01*
X120630Y-87020D01*
X120980Y-87287D01*
X121272Y-87687D01*
X121505Y-88153D01*
X121563Y-88820D01*
X121505Y-89487D01*
X121272Y-89953D01*
X120980Y-90353D01*
X120630Y-90620D01*
X120163Y-90820D01*
X118997D01*
G01X123913D02*
Y-86820D01*
X125372D01*
X125838Y-87020D01*
X126130Y-87287D01*
X126247Y-87820D01*
X126130Y-88353D01*
X125780Y-88687D01*
X125372Y-88887D01*
X123913D01*
G01X125372D02*
X126247Y-90820D01*
G01X129180Y-86820D02*
X130580D01*
G01X129880D02*
Y-90820D01*
G01X129180D02*
X130580D01*
G01X133222Y-86820D02*
X134680Y-90820D01*
X136138Y-86820D01*
G01X140647Y-90820D02*
X138313D01*
Y-86820D01*
X140647D01*
G01X139713Y-88753D02*
X138313D01*
G01X147330Y-86820D02*
X148147Y-90820D01*
X149080Y-86820D01*
X150013Y-90820D01*
X150830Y-86820D01*
G01X155047Y-90820D02*
X152713D01*
Y-86820D01*
X155047D01*
G01X154113Y-88753D02*
X152713D01*
G01X157455Y-90287D02*
X157922Y-90620D01*
X158447Y-90820D01*
X158913D01*
X159380Y-90620D01*
X159730Y-90287D01*
X159905Y-89820D01*
X159788Y-89353D01*
X159497Y-88953D01*
X158972Y-88687D01*
X158272Y-88553D01*
X157863Y-88287D01*
X157688Y-87820D01*
X157805Y-87353D01*
X158097Y-87020D01*
X158505Y-86820D01*
X158913D01*
X159322Y-86953D01*
X159672Y-87287D01*
G01X163480Y-86820D02*
Y-90820D01*
G01X162138Y-86820D02*
X164822D01*
G01X30280Y-103820D02*
Y-107820D01*
G01X28938Y-103820D02*
X31622D01*
G01X33855Y-107820D02*
Y-103820D01*
G01X36305D02*
Y-107820D01*
G01Y-105820D02*
X33855D01*
G01X39180Y-103820D02*
X40580D01*
G01X39880D02*
Y-107820D01*
G01X39180D02*
X40580D01*
G01X43455Y-107287D02*
X43922Y-107620D01*
X44447Y-107820D01*
X44913D01*
X45380Y-107620D01*
X45730Y-107287D01*
X45905Y-106820D01*
X45788Y-106353D01*
X45497Y-105953D01*
X44972Y-105687D01*
X44272Y-105553D01*
X43863Y-105287D01*
X43688Y-104820D01*
X43805Y-104353D01*
X44097Y-104020D01*
X44505Y-103820D01*
X44913D01*
X45322Y-103953D01*
X45672Y-104287D01*
G01X52997Y-107820D02*
Y-103820D01*
X54163D01*
X54630Y-104020D01*
X54980Y-104287D01*
X55272Y-104687D01*
X55505Y-105153D01*
X55563Y-105820D01*
X55505Y-106487D01*
X55272Y-106953D01*
X54980Y-107353D01*
X54630Y-107620D01*
X54163Y-107820D01*
X52997D01*
G01X59080D02*
X58613Y-107753D01*
X58205Y-107487D01*
X57855Y-107087D01*
X57622Y-106620D01*
X57505Y-106087D01*
Y-105553D01*
X57622Y-105020D01*
X57855Y-104553D01*
X58205Y-104153D01*
X58613Y-103887D01*
X59080Y-103820D01*
X59547Y-103887D01*
X59955Y-104153D01*
X60305Y-104553D01*
X60538Y-105020D01*
X60655Y-105553D01*
Y-106087D01*
X60538Y-106620D01*
X60305Y-107087D01*
X59955Y-107487D01*
X59547Y-107753D01*
X59080Y-107820D01*
G01X65163Y-104153D02*
X64813Y-103953D01*
X64405Y-103820D01*
X63938D01*
X63413Y-104020D01*
X63005Y-104353D01*
X62713Y-104753D01*
X62480Y-105420D01*
X62422Y-106020D01*
X62538Y-106620D01*
X62713Y-107020D01*
X63063Y-107420D01*
X63472Y-107687D01*
X63880Y-107820D01*
X64288D01*
X64697Y-107687D01*
X65047Y-107487D01*
X65338Y-107220D01*
G01X67397Y-103820D02*
Y-106687D01*
X67630Y-107287D01*
X68097Y-107687D01*
X68680Y-107820D01*
X69263Y-107687D01*
X69730Y-107287D01*
X69963Y-106687D01*
Y-103820D01*
G01X71963Y-107820D02*
Y-103820D01*
X73480Y-107153D01*
X74997Y-103820D01*
Y-107820D01*
G01X79447D02*
X77113D01*
Y-103820D01*
X79447D01*
G01X78513Y-105753D02*
X77113D01*
G01X81738Y-107820D02*
Y-103820D01*
X84422Y-107820D01*
Y-103820D01*
G01X87880D02*
Y-107820D01*
G01X86538Y-103820D02*
X89222D01*
G01X98763Y-104153D02*
X98413Y-103953D01*
X98005Y-103820D01*
X97538D01*
X97013Y-104020D01*
X96605Y-104353D01*
X96313Y-104753D01*
X96080Y-105420D01*
X96022Y-106020D01*
X96138Y-106620D01*
X96313Y-107020D01*
X96663Y-107420D01*
X97072Y-107687D01*
X97480Y-107820D01*
X97888D01*
X98297Y-107687D01*
X98647Y-107487D01*
X98938Y-107220D01*
G01X102280Y-107820D02*
X101813Y-107753D01*
X101405Y-107487D01*
X101055Y-107087D01*
X100822Y-106620D01*
X100705Y-106087D01*
Y-105553D01*
X100822Y-105020D01*
X101055Y-104553D01*
X101405Y-104153D01*
X101813Y-103887D01*
X102280Y-103820D01*
X102747Y-103887D01*
X103155Y-104153D01*
X103505Y-104553D01*
X103738Y-105020D01*
X103855Y-105553D01*
Y-106087D01*
X103738Y-106620D01*
X103505Y-107087D01*
X103155Y-107487D01*
X102747Y-107753D01*
X102280Y-107820D01*
G01X105738D02*
Y-103820D01*
X108422Y-107820D01*
Y-103820D01*
G01X111880D02*
Y-107820D01*
G01X110538Y-103820D02*
X113222D01*
G01X115222Y-107820D02*
X116680Y-103820D01*
X118138Y-107820D01*
G01X117613Y-106420D02*
X115747D01*
G01X120780Y-103820D02*
X122180D01*
G01X121480D02*
Y-107820D01*
G01X120780D02*
X122180D01*
G01X124938D02*
Y-103820D01*
X127622Y-107820D01*
Y-103820D01*
G01X129855Y-107287D02*
X130322Y-107620D01*
X130847Y-107820D01*
X131313D01*
X131780Y-107620D01*
X132130Y-107287D01*
X132305Y-106820D01*
X132188Y-106353D01*
X131897Y-105953D01*
X131372Y-105687D01*
X130672Y-105553D01*
X130263Y-105287D01*
X130088Y-104820D01*
X130205Y-104353D01*
X130497Y-104020D01*
X130905Y-103820D01*
X131313D01*
X131722Y-103953D01*
X132072Y-104287D01*
G01X139980Y-103820D02*
X141380D01*
G01X140680D02*
Y-107820D01*
G01X139980D02*
X141380D01*
G01X144138D02*
Y-103820D01*
X146822Y-107820D01*
Y-103820D01*
G01X149172Y-107820D02*
Y-103820D01*
X151388D01*
G01X150572Y-105753D02*
X149172D01*
G01X155080Y-107820D02*
X154613Y-107753D01*
X154205Y-107487D01*
X153855Y-107087D01*
X153622Y-106620D01*
X153505Y-106087D01*
Y-105553D01*
X153622Y-105020D01*
X153855Y-104553D01*
X154205Y-104153D01*
X154613Y-103887D01*
X155080Y-103820D01*
X155547Y-103887D01*
X155955Y-104153D01*
X156305Y-104553D01*
X156538Y-105020D01*
X156655Y-105553D01*
Y-106087D01*
X156538Y-106620D01*
X156305Y-107087D01*
X155955Y-107487D01*
X155547Y-107753D01*
X155080Y-107820D01*
G01X158713D02*
Y-103820D01*
X160172D01*
X160638Y-104020D01*
X160930Y-104287D01*
X161047Y-104820D01*
X160930Y-105353D01*
X160580Y-105687D01*
X160172Y-105887D01*
X158713D01*
G01X160172D02*
X161047Y-107820D01*
G01X163163D02*
Y-103820D01*
X164680Y-107153D01*
X166197Y-103820D01*
Y-107820D01*
G01X168022D02*
X169480Y-103820D01*
X170938Y-107820D01*
G01X170413Y-106420D02*
X168547D01*
G01X174280Y-103820D02*
Y-107820D01*
G01X172938Y-103820D02*
X175622D01*
G01X178380D02*
X179780D01*
G01X179080D02*
Y-107820D01*
G01X178380D02*
X179780D01*
G01X183880D02*
X183413Y-107753D01*
X183005Y-107487D01*
X182655Y-107087D01*
X182422Y-106620D01*
X182305Y-106087D01*
Y-105553D01*
X182422Y-105020D01*
X182655Y-104553D01*
X183005Y-104153D01*
X183413Y-103887D01*
X183880Y-103820D01*
X184347Y-103887D01*
X184755Y-104153D01*
X185105Y-104553D01*
X185338Y-105020D01*
X185455Y-105553D01*
Y-106087D01*
X185338Y-106620D01*
X185105Y-107087D01*
X184755Y-107487D01*
X184347Y-107753D01*
X183880Y-107820D01*
G01X187338D02*
Y-103820D01*
X190022Y-107820D01*
Y-103820D01*
G01X15593Y29897D02*
X15813Y30037D01*
X16070Y30130D01*
X16363D01*
X16693Y29990D01*
X16950Y29757D01*
X17133Y29477D01*
X17280Y29010D01*
X17317Y28590D01*
X17243Y28170D01*
X17133Y27890D01*
X16913Y27610D01*
X16657Y27423D01*
X16400Y27330D01*
X16143D01*
X15887Y27423D01*
X15667Y27563D01*
X15483Y27750D01*
G01X14617Y27330D02*
X13700Y30130D01*
X12783Y27330D01*
G01X13113Y28310D02*
X14287D01*
G01X11843Y27330D02*
Y30130D01*
X10157Y27330D01*
Y30130D01*
G01X9400Y26397D02*
X7200D01*
G01X6370Y27330D02*
Y30130D01*
G01X4830D02*
Y27330D01*
G01Y28730D02*
X6370D01*
G01X15523Y20567D02*
X15743Y20707D01*
X16000Y20800D01*
X16293D01*
X16623Y20660D01*
X16880Y20427D01*
X17063Y20147D01*
X17210Y19680D01*
X17247Y19260D01*
X17173Y18840D01*
X17063Y18560D01*
X16843Y18280D01*
X16587Y18093D01*
X16330Y18000D01*
X16073D01*
X15817Y18093D01*
X15597Y18233D01*
X15413Y18420D01*
G01X14547Y18000D02*
X13630Y20800D01*
X12713Y18000D01*
G01X13043Y18980D02*
X14217D01*
G01X11773Y18000D02*
Y20800D01*
X10087Y18000D01*
Y20800D01*
G01X9330Y17067D02*
X7130D01*
G01X6263Y20800D02*
Y18000D01*
X4797D01*
G01X8043Y34530D02*
Y37330D01*
X7163D01*
X6870Y37190D01*
X6650Y36863D01*
X6577Y36490D01*
X6650Y36117D01*
X6833Y35837D01*
X7163Y35697D01*
X8043D01*
G01X5417Y34950D02*
X5197Y34717D01*
X4940Y34577D01*
X4610Y34530D01*
X4280Y34623D01*
X4023Y34810D01*
X3840Y35137D01*
X3803Y35510D01*
X3877Y35883D01*
X4060Y36117D01*
X4317Y36303D01*
X4573Y36350D01*
X4830Y36303D01*
X5160Y36117D01*
X5050Y37330D01*
X4060D01*
G01X10630Y58025D02*
Y60825D01*
X11070Y60265D01*
G01Y58025D02*
X10190D01*
G01X7930D02*
Y60825D01*
X8370Y60265D01*
G01Y58025D02*
X7490D01*
G01X39527Y73750D02*
X40993D01*
Y76550D01*
X39527D01*
G01X40113Y75197D02*
X40993D01*
G01X37560Y76550D02*
Y73750D01*
G01X38403Y76550D02*
X36717D01*
G01X35630Y73750D02*
Y76550D01*
G01X34090D02*
Y73750D01*
G01Y75150D02*
X35630D01*
G01X31427Y73750D02*
X32893D01*
Y76550D01*
X31427D01*
G01X32013Y75197D02*
X32893D01*
G01X30193Y73750D02*
Y76550D01*
X29277D01*
X28983Y76410D01*
X28800Y76223D01*
X28727Y75850D01*
X28800Y75477D01*
X29020Y75243D01*
X29277Y75103D01*
X30193D01*
G01X29277D02*
X28727Y73750D01*
G01X27603D02*
Y76550D01*
X25917Y73750D01*
Y76550D01*
G01X23327Y73750D02*
X24793D01*
Y76550D01*
X23327D01*
G01X23913Y75197D02*
X24793D01*
G01X21360Y76550D02*
Y73750D01*
G01X22203Y76550D02*
X20517D01*
G01X10520Y86315D02*
Y89115D01*
X10960Y88555D01*
G01Y86315D02*
X10080D01*
G01X8627Y86875D02*
X8407Y86548D01*
X8113Y86362D01*
X7783Y86315D01*
X7490Y86362D01*
X7197Y86595D01*
X7013Y86875D01*
X6977Y87155D01*
X7050Y87482D01*
X7307Y87715D01*
X7563Y87808D01*
X7893D01*
G01X7563D02*
X7343Y87948D01*
X7160Y88182D01*
X7087Y88462D01*
X7160Y88742D01*
X7343Y88975D01*
X7673Y89115D01*
X8003Y89068D01*
X8333Y88882D01*
G01X11413Y129160D02*
Y126360D01*
X9947D01*
G01X8420Y129160D02*
X7540D01*
G01X7980D02*
Y126360D01*
G01X8420D02*
X7540D01*
G01X6123D02*
Y129160D01*
X4437Y126360D01*
Y129160D01*
G01X22377Y122160D02*
X21460Y119360D01*
X20543Y122160D01*
G01X19530Y119733D02*
X19237Y119500D01*
X18907Y119360D01*
X18613D01*
X18320Y119500D01*
X18100Y119733D01*
X17990Y120060D01*
X18063Y120387D01*
X18247Y120667D01*
X18577Y120853D01*
X19017Y120947D01*
X19273Y121133D01*
X19383Y121460D01*
X19310Y121787D01*
X19127Y122020D01*
X18870Y122160D01*
X18613D01*
X18357Y122067D01*
X18137Y121833D01*
G01X16867Y122160D02*
Y120153D01*
X16720Y119733D01*
X16427Y119453D01*
X16060Y119360D01*
X15693Y119453D01*
X15400Y119733D01*
X15253Y120153D01*
Y122160D01*
G01X14093Y119360D02*
Y122160D01*
X13213D01*
X12920Y122020D01*
X12700Y121693D01*
X12627Y121320D01*
X12700Y120947D01*
X12883Y120667D01*
X13213Y120527D01*
X14093D01*
G01X10660Y119360D02*
Y122160D01*
X11100Y121600D01*
G01Y119360D02*
X10220D01*
G01X11620Y148530D02*
X10887D01*
Y147690D01*
X11107Y147410D01*
X11363Y147223D01*
X11730Y147130D01*
X12097Y147223D01*
X12353Y147410D01*
X12573Y147690D01*
X12720Y148017D01*
X12793Y148390D01*
Y148717D01*
X12720Y148997D01*
X12573Y149323D01*
X12353Y149603D01*
X12133Y149790D01*
X11840Y149930D01*
X11583D01*
X11290Y149837D01*
X11070Y149650D01*
G01X9983Y147130D02*
Y149930D01*
X8297Y147130D01*
Y149930D01*
G01X7247Y147130D02*
Y149930D01*
X6513D01*
X6220Y149790D01*
X6000Y149603D01*
X5817Y149323D01*
X5670Y148997D01*
X5633Y148530D01*
X5670Y148063D01*
X5817Y147737D01*
X6000Y147457D01*
X6220Y147270D01*
X6513Y147130D01*
X7247D01*
G01X18374Y152063D02*
X18191Y151783D01*
X17971Y151596D01*
X17714Y151503D01*
X17421Y151596D01*
X17201Y151783D01*
X16981Y152063D01*
X16908Y152436D01*
Y154303D01*
G01X15748Y151923D02*
X15528Y151690D01*
X15271Y151550D01*
X14941Y151503D01*
X14611Y151596D01*
X14354Y151783D01*
X14171Y152110D01*
X14134Y152483D01*
X14208Y152856D01*
X14391Y153090D01*
X14648Y153276D01*
X14904Y153323D01*
X15161Y153276D01*
X15491Y153090D01*
X15381Y154303D01*
X14391D01*
G01X21225Y155436D02*
Y158236D01*
X21665Y157676D01*
G01Y155436D02*
X20785D01*
G01X9223Y156100D02*
Y158900D01*
X8343D01*
X8050Y158760D01*
X7830Y158433D01*
X7757Y158060D01*
X7830Y157687D01*
X8013Y157407D01*
X8343Y157267D01*
X9223D01*
G01X6597Y156660D02*
X6377Y156333D01*
X6083Y156147D01*
X5753Y156100D01*
X5460Y156147D01*
X5167Y156380D01*
X4983Y156660D01*
X4947Y156940D01*
X5020Y157267D01*
X5277Y157500D01*
X5533Y157593D01*
X5863D01*
G01X5533D02*
X5313Y157733D01*
X5130Y157967D01*
X5057Y158247D01*
X5130Y158527D01*
X5313Y158760D01*
X5643Y158900D01*
X5973Y158853D01*
X6303Y158667D01*
G01X35193Y-83000D02*
Y-75500D01*
X39487Y-83000D01*
Y-75500D01*
G01X42880Y-83000D02*
X46800Y-75500D01*
G01X42880D02*
X46800Y-83000D01*
G01X50473D02*
Y-75500D01*
X52713D01*
X53460Y-75875D01*
X54020Y-76750D01*
X54207Y-77750D01*
X54020Y-78750D01*
X53553Y-79500D01*
X52713Y-79875D01*
X50473D01*
G01X65380Y-82000D02*
X66127Y-82625D01*
X66967Y-83000D01*
X67713D01*
X68460Y-82625D01*
X69020Y-82000D01*
X69300Y-81125D01*
X69113Y-80250D01*
X68647Y-79500D01*
X67807Y-79000D01*
X66687Y-78750D01*
X66033Y-78250D01*
X65753Y-77375D01*
X65940Y-76500D01*
X66407Y-75875D01*
X67060Y-75500D01*
X67713D01*
X68367Y-75750D01*
X68927Y-76375D01*
G01X76707Y-83000D02*
X72973D01*
Y-75500D01*
X76707D01*
G01X75213Y-79125D02*
X72973D01*
G01X79913Y-83000D02*
Y-75500D01*
X82340Y-81750D01*
X84767Y-75500D01*
Y-83000D01*
G01X88720Y-75500D02*
X90960D01*
G01X89840D02*
Y-83000D01*
G01X88720D02*
X90960D01*
G01X99393Y-76125D02*
X98833Y-75750D01*
X98180Y-75500D01*
X97433D01*
X96593Y-75875D01*
X95940Y-76500D01*
X95473Y-77250D01*
X95100Y-78500D01*
X95007Y-79625D01*
X95193Y-80750D01*
X95473Y-81500D01*
X96033Y-82250D01*
X96687Y-82750D01*
X97340Y-83000D01*
X97993D01*
X98647Y-82750D01*
X99207Y-82375D01*
X99673Y-81875D01*
G01X104840Y-83000D02*
X104093Y-82875D01*
X103440Y-82375D01*
X102880Y-81625D01*
X102507Y-80750D01*
X102320Y-79750D01*
Y-78750D01*
X102507Y-77750D01*
X102880Y-76875D01*
X103440Y-76125D01*
X104093Y-75625D01*
X104840Y-75500D01*
X105587Y-75625D01*
X106240Y-76125D01*
X106800Y-76875D01*
X107173Y-77750D01*
X107360Y-78750D01*
Y-79750D01*
X107173Y-80750D01*
X106800Y-81625D01*
X106240Y-82375D01*
X105587Y-82875D01*
X104840Y-83000D01*
G01X110193D02*
Y-75500D01*
X114487Y-83000D01*
Y-75500D01*
G01X117787Y-83000D02*
Y-75500D01*
X119653D01*
X120400Y-75875D01*
X120960Y-76375D01*
X121427Y-77125D01*
X121800Y-78000D01*
X121893Y-79250D01*
X121800Y-80500D01*
X121427Y-81375D01*
X120960Y-82125D01*
X120400Y-82625D01*
X119653Y-83000D01*
X117787D01*
G01X125287Y-75500D02*
Y-80875D01*
X125660Y-82000D01*
X126407Y-82750D01*
X127340Y-83000D01*
X128273Y-82750D01*
X129020Y-82000D01*
X129393Y-80875D01*
Y-75500D01*
G01X136893Y-76125D02*
X136333Y-75750D01*
X135680Y-75500D01*
X134933D01*
X134093Y-75875D01*
X133440Y-76500D01*
X132973Y-77250D01*
X132600Y-78500D01*
X132507Y-79625D01*
X132693Y-80750D01*
X132973Y-81500D01*
X133533Y-82250D01*
X134187Y-82750D01*
X134840Y-83000D01*
X135493D01*
X136147Y-82750D01*
X136707Y-82375D01*
X137173Y-81875D01*
G01X142340Y-75500D02*
Y-83000D01*
G01X140193Y-75500D02*
X144487D01*
G01X149840Y-83000D02*
X149093Y-82875D01*
X148440Y-82375D01*
X147880Y-81625D01*
X147507Y-80750D01*
X147320Y-79750D01*
Y-78750D01*
X147507Y-77750D01*
X147880Y-76875D01*
X148440Y-76125D01*
X149093Y-75625D01*
X149840Y-75500D01*
X150587Y-75625D01*
X151240Y-76125D01*
X151800Y-76875D01*
X152173Y-77750D01*
X152360Y-78750D01*
Y-79750D01*
X152173Y-80750D01*
X151800Y-81625D01*
X151240Y-82375D01*
X150587Y-82875D01*
X149840Y-83000D01*
G01X155473D02*
Y-75500D01*
X157807D01*
X158553Y-75875D01*
X159020Y-76375D01*
X159207Y-77375D01*
X159020Y-78375D01*
X158460Y-79000D01*
X157807Y-79375D01*
X155473D01*
G01X157807D02*
X159207Y-83000D01*
G01X162880Y-82000D02*
X163627Y-82625D01*
X164467Y-83000D01*
X165213D01*
X165960Y-82625D01*
X166520Y-82000D01*
X166800Y-81125D01*
X166613Y-80250D01*
X166147Y-79500D01*
X165307Y-79000D01*
X164187Y-78750D01*
X163533Y-78250D01*
X163253Y-77375D01*
X163440Y-76500D01*
X163907Y-75875D01*
X164560Y-75500D01*
X165213D01*
X165867Y-75750D01*
X166427Y-76375D01*
G01X49388Y16854D02*
X49168Y17134D01*
X48911Y17274D01*
X48618Y17321D01*
X48251Y17228D01*
X47994Y16994D01*
X47921Y16714D01*
X47958Y16434D01*
X48104Y16201D01*
X48838Y15734D01*
X49168Y15408D01*
X49388Y14941D01*
X49461Y14521D01*
X47921D01*
G01X57800Y52725D02*
X57543Y52772D01*
X57250Y52912D01*
X57067Y53145D01*
X56993Y53472D01*
X57067Y53798D01*
X57287Y54078D01*
X57617Y54218D01*
X57983D01*
X58203Y54312D01*
X58387Y54545D01*
X58460Y54872D01*
X58350Y55198D01*
X58093Y55432D01*
X57800Y55525D01*
X57507Y55432D01*
X57250Y55198D01*
X57140Y54872D01*
X57213Y54545D01*
X57397Y54312D01*
X57617Y54218D01*
X57983D01*
X58313Y54078D01*
X58533Y53798D01*
X58607Y53472D01*
X58533Y53145D01*
X58350Y52912D01*
X58057Y52772D01*
X57800Y52725D01*
G01X47653Y58305D02*
X47580Y58912D01*
X47470Y59425D01*
X47323Y59892D01*
X47140Y60405D01*
X46847Y61105D01*
X48313D01*
G01X41579Y79725D02*
X41396Y79445D01*
X41176Y79258D01*
X40919Y79165D01*
X40626Y79258D01*
X40406Y79445D01*
X40186Y79725D01*
X40113Y80098D01*
Y81965D01*
G01X38146Y79165D02*
Y81965D01*
X38586Y81405D01*
G01Y79165D02*
X37706D01*
G01X35446Y81965D02*
X35739Y81872D01*
X35959Y81638D01*
X36106Y81358D01*
X36216Y80985D01*
X36253Y80565D01*
X36216Y80145D01*
X36106Y79772D01*
X35959Y79492D01*
X35739Y79258D01*
X35446Y79165D01*
X35153Y79258D01*
X34933Y79492D01*
X34786Y79772D01*
X34676Y80145D01*
X34639Y80565D01*
X34676Y80985D01*
X34786Y81358D01*
X34933Y81638D01*
X35153Y81872D01*
X35446Y81965D01*
G01X58267Y98378D02*
X58047Y98658D01*
X57790Y98798D01*
X57497Y98845D01*
X57130Y98752D01*
X56873Y98518D01*
X56800Y98238D01*
X56837Y97958D01*
X56983Y97725D01*
X57717Y97258D01*
X58047Y96932D01*
X58267Y96465D01*
X58340Y96045D01*
X56800D01*
G01X47400Y101255D02*
Y104055D01*
X47840Y103495D01*
G01Y101255D02*
X46960D01*
G01X70235Y-166520D02*
X70862Y-167020D01*
X71567Y-167320D01*
X72193D01*
X72820Y-167020D01*
X73290Y-166520D01*
X73525Y-165820D01*
X73368Y-165120D01*
X72977Y-164520D01*
X72272Y-164120D01*
X71332Y-163920D01*
X70783Y-163520D01*
X70548Y-162820D01*
X70705Y-162120D01*
X71097Y-161620D01*
X71645Y-161320D01*
X72193D01*
X72742Y-161520D01*
X73212Y-162020D01*
G01X79747Y-167320D02*
X76613D01*
Y-161320D01*
X79747D01*
G01X78493Y-164220D02*
X76613D01*
G01X86203Y-161820D02*
X85733Y-161520D01*
X85185Y-161320D01*
X84558D01*
X83853Y-161620D01*
X83305Y-162120D01*
X82913Y-162720D01*
X82600Y-163720D01*
X82522Y-164620D01*
X82678Y-165520D01*
X82913Y-166120D01*
X83383Y-166720D01*
X83932Y-167120D01*
X84480Y-167320D01*
X85028D01*
X85577Y-167120D01*
X86047Y-166820D01*
X86438Y-166420D01*
G01X90780Y-167320D02*
X90153Y-167220D01*
X89605Y-166820D01*
X89135Y-166220D01*
X88822Y-165520D01*
X88665Y-164720D01*
Y-163920D01*
X88822Y-163120D01*
X89135Y-162420D01*
X89605Y-161820D01*
X90153Y-161420D01*
X90780Y-161320D01*
X91407Y-161420D01*
X91955Y-161820D01*
X92425Y-162420D01*
X92738Y-163120D01*
X92895Y-163920D01*
Y-164720D01*
X92738Y-165520D01*
X92425Y-166220D01*
X91955Y-166820D01*
X91407Y-167220D01*
X90780Y-167320D01*
G01X95278D02*
Y-161320D01*
X98882Y-167320D01*
Y-161320D01*
G01X101657Y-167320D02*
Y-161320D01*
X103223D01*
X103850Y-161620D01*
X104320Y-162020D01*
X104712Y-162620D01*
X105025Y-163320D01*
X105103Y-164320D01*
X105025Y-165320D01*
X104712Y-166020D01*
X104320Y-166620D01*
X103850Y-167020D01*
X103223Y-167320D01*
X101657D01*
G01X107722D02*
X109680Y-161320D01*
X111638Y-167320D01*
G01X110933Y-165220D02*
X108427D01*
G01X114413Y-167320D02*
Y-161320D01*
X116372D01*
X116998Y-161620D01*
X117390Y-162020D01*
X117547Y-162820D01*
X117390Y-163620D01*
X116920Y-164120D01*
X116372Y-164420D01*
X114413D01*
G01X116372D02*
X117547Y-167320D01*
G01X122280D02*
Y-164620D01*
X120713Y-161320D01*
G01X123847D02*
X122280Y-164620D01*
G01X133235Y-166520D02*
X133862Y-167020D01*
X134567Y-167320D01*
X135193D01*
X135820Y-167020D01*
X136290Y-166520D01*
X136525Y-165820D01*
X136368Y-165120D01*
X135977Y-164520D01*
X135272Y-164120D01*
X134332Y-163920D01*
X133783Y-163520D01*
X133548Y-162820D01*
X133705Y-162120D01*
X134097Y-161620D01*
X134645Y-161320D01*
X135193D01*
X135742Y-161520D01*
X136212Y-162020D01*
G01X140240Y-161320D02*
X142120D01*
G01X141180D02*
Y-167320D01*
G01X140240D02*
X142120D01*
G01X145913Y-161320D02*
Y-167320D01*
X149047D01*
G01X152057D02*
Y-161320D01*
G01X155033D02*
X152057Y-165020D01*
G01X155503Y-167320D02*
X153388Y-163320D01*
G01X158435Y-166520D02*
X159062Y-167020D01*
X159767Y-167320D01*
X160393D01*
X161020Y-167020D01*
X161490Y-166520D01*
X161725Y-165820D01*
X161568Y-165120D01*
X161177Y-164520D01*
X160472Y-164120D01*
X159532Y-163920D01*
X158983Y-163520D01*
X158748Y-162820D01*
X158905Y-162120D01*
X159297Y-161620D01*
X159845Y-161320D01*
X160393D01*
X160942Y-161520D01*
X161412Y-162020D01*
G01X168103Y-161820D02*
X167633Y-161520D01*
X167085Y-161320D01*
X166458D01*
X165753Y-161620D01*
X165205Y-162120D01*
X164813Y-162720D01*
X164500Y-163720D01*
X164422Y-164620D01*
X164578Y-165520D01*
X164813Y-166120D01*
X165283Y-166720D01*
X165832Y-167120D01*
X166380Y-167320D01*
X166928D01*
X167477Y-167120D01*
X167947Y-166820D01*
X168338Y-166420D01*
G01X171113Y-167320D02*
Y-161320D01*
X173072D01*
X173698Y-161620D01*
X174090Y-162020D01*
X174247Y-162820D01*
X174090Y-163620D01*
X173620Y-164120D01*
X173072Y-164420D01*
X171113D01*
G01X173072D02*
X174247Y-167320D01*
G01X180547D02*
X177413D01*
Y-161320D01*
X180547D01*
G01X179293Y-164220D02*
X177413D01*
G01X186847Y-167320D02*
X183713D01*
Y-161320D01*
X186847D01*
G01X185593Y-164220D02*
X183713D01*
G01X189778Y-167320D02*
Y-161320D01*
X193382Y-167320D01*
Y-161320D01*
G01X73172Y-158820D02*
Y-154820D01*
X75388D01*
G01X74572Y-156753D02*
X73172D01*
G01X78380Y-154820D02*
X79780D01*
G01X79080D02*
Y-158820D01*
G01X78380D02*
X79780D01*
G01X82713Y-154820D02*
Y-158820D01*
X85047D01*
G01X87163D02*
Y-154820D01*
X88680Y-158153D01*
X90197Y-154820D01*
Y-158820D01*
G01X82863Y14292D02*
Y17092D01*
X83303Y16532D01*
G01Y14292D02*
X82423D01*
G01X70643Y15009D02*
X70423Y14682D01*
X70129Y14496D01*
X69799Y14449D01*
X69506Y14496D01*
X69213Y14729D01*
X69029Y15009D01*
X68993Y15289D01*
X69066Y15616D01*
X69323Y15849D01*
X69579Y15942D01*
X69909D01*
G01X69579D02*
X69359Y16082D01*
X69176Y16316D01*
X69103Y16596D01*
X69176Y16876D01*
X69359Y17109D01*
X69689Y17249D01*
X70019Y17202D01*
X70349Y17016D01*
G01X92491Y4350D02*
Y7150D01*
X91611D01*
X91318Y7010D01*
X91098Y6683D01*
X91025Y6310D01*
X91098Y5937D01*
X91281Y5657D01*
X91611Y5517D01*
X92491D01*
G01X89755D02*
X89498Y5843D01*
X89278Y6030D01*
X88985Y6123D01*
X88728Y6030D01*
X88545Y5843D01*
X88398Y5563D01*
X88361Y5237D01*
X88398Y4957D01*
X88545Y4677D01*
X88765Y4443D01*
X89021Y4350D01*
X89315Y4443D01*
X89571Y4723D01*
X89718Y5143D01*
X89755Y5610D01*
X89681Y6217D01*
X89571Y6543D01*
X89388Y6870D01*
X89131Y7103D01*
X88875Y7150D01*
X88618Y7057D01*
X88435Y6823D01*
G01X116023Y106100D02*
X115840Y105820D01*
X115620Y105633D01*
X115363Y105540D01*
X115070Y105633D01*
X114850Y105820D01*
X114630Y106100D01*
X114557Y106473D01*
Y108340D01*
G01X112663Y105540D02*
X112590Y106147D01*
X112480Y106660D01*
X112333Y107127D01*
X112150Y107640D01*
X111857Y108340D01*
X113323D01*
G01X98995Y186347D02*
X98698Y186118D01*
X98367Y185982D01*
X98073Y185985D01*
X97782Y186129D01*
X97565Y186365D01*
X97459Y186693D01*
X97536Y187019D01*
X97723Y187296D01*
X98055Y187479D01*
X98496Y187567D01*
X98755Y187750D01*
X98869Y188076D01*
X98800Y188403D01*
X98619Y188639D01*
X98364Y188782D01*
X98108Y188785D01*
X97850Y188695D01*
X97627Y188464D01*
G01X96327Y186007D02*
X96361Y188806D01*
X95628Y188815D01*
X95333Y188679D01*
X95110Y188495D01*
X94924Y188217D01*
X94773Y187892D01*
X94731Y187426D01*
X94762Y186959D01*
X94904Y186631D01*
X95084Y186348D01*
X95302Y186159D01*
X95593Y186016D01*
X96327Y186007D01*
G01X93737Y186038D02*
X92854Y188849D01*
X91903Y186061D01*
G01X92245Y187037D02*
X93419Y187022D01*
G01X139190Y36217D02*
X139423Y35997D01*
X139563Y35740D01*
X139610Y35410D01*
X139517Y35080D01*
X139330Y34823D01*
X139003Y34640D01*
X138630Y34603D01*
X138257Y34677D01*
X138023Y34860D01*
X137837Y35117D01*
X137790Y35373D01*
X137837Y35630D01*
X138023Y35960D01*
X136810Y35850D01*
Y34860D01*
G01Y33627D02*
X139610Y32710D01*
X136810Y31793D01*
G01Y30010D02*
X136903Y30303D01*
X137137Y30523D01*
X137417Y30670D01*
X137790Y30780D01*
X138210Y30817D01*
X138630Y30780D01*
X139003Y30670D01*
X139283Y30523D01*
X139517Y30303D01*
X139610Y30010D01*
X139517Y29717D01*
X139283Y29497D01*
X139003Y29350D01*
X138630Y29240D01*
X138210Y29203D01*
X137790Y29240D01*
X137417Y29350D01*
X137137Y29497D01*
X136903Y29717D01*
X136810Y30010D01*
G01X140543Y28410D02*
Y26210D01*
G01X139237Y25380D02*
X139470Y25087D01*
X139610Y24757D01*
Y24463D01*
X139470Y24170D01*
X139237Y23950D01*
X138910Y23840D01*
X138583Y23913D01*
X138303Y24097D01*
X138117Y24427D01*
X138023Y24867D01*
X137837Y25123D01*
X137510Y25233D01*
X137183Y25160D01*
X136950Y24977D01*
X136810Y24720D01*
Y24463D01*
X136903Y24207D01*
X137137Y23987D01*
G01X139610Y22643D02*
X136810D01*
Y21727D01*
X136950Y21433D01*
X137137Y21250D01*
X137510Y21177D01*
X137883Y21250D01*
X138117Y21470D01*
X138257Y21727D01*
Y22643D01*
G01Y21727D02*
X139610Y21177D01*
G01X129140Y36307D02*
X129373Y36087D01*
X129513Y35830D01*
X129560Y35500D01*
X129467Y35170D01*
X129280Y34913D01*
X128953Y34730D01*
X128580Y34693D01*
X128207Y34767D01*
X127973Y34950D01*
X127787Y35207D01*
X127740Y35463D01*
X127787Y35720D01*
X127973Y36050D01*
X126760Y35940D01*
Y34950D01*
G01Y33717D02*
X129560Y32800D01*
X126760Y31883D01*
G01X130493Y31200D02*
Y29000D01*
G01X126760Y27400D02*
X129560D01*
G01X126760Y28243D02*
Y26557D01*
G01X128160Y24480D02*
Y23747D01*
X129000D01*
X129280Y23967D01*
X129467Y24223D01*
X129560Y24590D01*
X129467Y24957D01*
X129280Y25213D01*
X129000Y25433D01*
X128673Y25580D01*
X128300Y25653D01*
X127973D01*
X127693Y25580D01*
X127367Y25433D01*
X127087Y25213D01*
X126900Y24993D01*
X126760Y24700D01*
Y24443D01*
X126853Y24150D01*
X127040Y23930D01*
G01X126760Y22000D02*
X129560D01*
G01X126760Y22843D02*
Y21157D01*
G01X141930Y47003D02*
X141747Y46723D01*
X141527Y46536D01*
X141270Y46443D01*
X140977Y46536D01*
X140757Y46723D01*
X140537Y47003D01*
X140464Y47376D01*
Y49243D01*
G01X138497Y46443D02*
Y49243D01*
X138937Y48683D01*
G01Y46443D02*
X138057D01*
G01X135797D02*
Y49243D01*
X136237Y48683D01*
G01Y46443D02*
X135357D01*
G01X129303Y106200D02*
X129120Y105920D01*
X128900Y105733D01*
X128643Y105640D01*
X128350Y105733D01*
X128130Y105920D01*
X127910Y106200D01*
X127837Y106573D01*
Y108440D01*
G01X125870Y105640D02*
X125613Y105687D01*
X125320Y105827D01*
X125137Y106060D01*
X125063Y106387D01*
X125137Y106713D01*
X125357Y106993D01*
X125687Y107133D01*
X126053D01*
X126273Y107227D01*
X126457Y107460D01*
X126530Y107787D01*
X126420Y108113D01*
X126163Y108347D01*
X125870Y108440D01*
X125577Y108347D01*
X125320Y108113D01*
X125210Y107787D01*
X125283Y107460D01*
X125467Y107227D01*
X125687Y107133D01*
X126053D01*
X126383Y106993D01*
X126603Y106713D01*
X126677Y106387D01*
X126603Y106060D01*
X126420Y105827D01*
X126127Y105687D01*
X125870Y105640D01*
G01X132260Y109470D02*
Y112270D01*
X132700Y111710D01*
G01Y109470D02*
X131820D01*
G01X118280Y109480D02*
Y112280D01*
X118720Y111720D01*
G01Y109480D02*
X117840D01*
G01X140350Y166320D02*
Y169120D01*
X140790Y168560D01*
G01Y166320D02*
X139910D01*
G01X138273Y166647D02*
X138017Y166413D01*
X137723Y166320D01*
X137430Y166413D01*
X137173Y166693D01*
X136990Y167113D01*
X136917Y167533D01*
Y168047D01*
X136990Y168467D01*
X137173Y168840D01*
X137393Y169027D01*
X137650Y169120D01*
X137943Y169027D01*
X138163Y168840D01*
X138310Y168560D01*
X138383Y168187D01*
X138310Y167860D01*
X138127Y167533D01*
X137907Y167347D01*
X137650Y167300D01*
X137357Y167393D01*
X137137Y167627D01*
X136917Y168047D01*
G01X141327Y192363D02*
X141107Y192643D01*
X140850Y192783D01*
X140557Y192830D01*
X140190Y192737D01*
X139933Y192503D01*
X139860Y192223D01*
X139897Y191943D01*
X140043Y191710D01*
X140777Y191243D01*
X141107Y190917D01*
X141327Y190450D01*
X141400Y190030D01*
X139860D01*
G01X137930Y192830D02*
X138223Y192737D01*
X138443Y192503D01*
X138590Y192223D01*
X138700Y191850D01*
X138737Y191430D01*
X138700Y191010D01*
X138590Y190637D01*
X138443Y190357D01*
X138223Y190123D01*
X137930Y190030D01*
X137637Y190123D01*
X137417Y190357D01*
X137270Y190637D01*
X137160Y191010D01*
X137123Y191430D01*
X137160Y191850D01*
X137270Y192223D01*
X137417Y192503D01*
X137637Y192737D01*
X137930Y192830D01*
G01X149000Y36267D02*
X149233Y36047D01*
X149373Y35790D01*
X149420Y35460D01*
X149327Y35130D01*
X149140Y34873D01*
X148813Y34690D01*
X148440Y34653D01*
X148067Y34727D01*
X147833Y34910D01*
X147647Y35167D01*
X147600Y35423D01*
X147647Y35680D01*
X147833Y36010D01*
X146620Y35900D01*
Y34910D01*
G01Y33677D02*
X149420Y32760D01*
X146620Y31843D01*
G01Y30060D02*
X146713Y30353D01*
X146947Y30573D01*
X147227Y30720D01*
X147600Y30830D01*
X148020Y30867D01*
X148440Y30830D01*
X148813Y30720D01*
X149093Y30573D01*
X149327Y30353D01*
X149420Y30060D01*
X149327Y29767D01*
X149093Y29547D01*
X148813Y29400D01*
X148440Y29290D01*
X148020Y29253D01*
X147600Y29290D01*
X147227Y29400D01*
X146947Y29547D01*
X146713Y29767D01*
X146620Y30060D01*
G01X150353Y28460D02*
Y26260D01*
G01X149047Y25430D02*
X149280Y25137D01*
X149420Y24807D01*
Y24513D01*
X149280Y24220D01*
X149047Y24000D01*
X148720Y23890D01*
X148393Y23963D01*
X148113Y24147D01*
X147927Y24477D01*
X147833Y24917D01*
X147647Y25173D01*
X147320Y25283D01*
X146993Y25210D01*
X146760Y25027D01*
X146620Y24770D01*
Y24513D01*
X146713Y24257D01*
X146947Y24037D01*
G01X146620Y23060D02*
X149420Y22547D01*
X146620Y21960D01*
X149420Y21373D01*
X146620Y20860D01*
G01X153460Y36990D02*
Y39790D01*
X153900Y39230D01*
G01Y36990D02*
X153020D01*
G01X157860Y91810D02*
Y94610D01*
X158300Y94050D01*
G01Y91810D02*
X157420D01*
G01X154720D02*
Y94610D01*
X156077Y92603D01*
X154243D01*
G01X158420Y113790D02*
Y116590D01*
X158860Y116030D01*
G01Y113790D02*
X157980D01*
G01X156527Y114350D02*
X156307Y114023D01*
X156013Y113837D01*
X155683Y113790D01*
X155390Y113837D01*
X155097Y114070D01*
X154913Y114350D01*
X154877Y114630D01*
X154950Y114957D01*
X155207Y115190D01*
X155463Y115283D01*
X155793D01*
G01X155463D02*
X155243Y115423D01*
X155060Y115657D01*
X154987Y115937D01*
X155060Y116217D01*
X155243Y116450D01*
X155573Y116590D01*
X155903Y116543D01*
X156233Y116357D01*
G01X159660Y134227D02*
Y137027D01*
X160100Y136467D01*
G01Y134227D02*
X159220D01*
G01X156960Y137027D02*
X157253Y136934D01*
X157473Y136700D01*
X157620Y136420D01*
X157730Y136047D01*
X157767Y135627D01*
X157730Y135207D01*
X157620Y134834D01*
X157473Y134554D01*
X157253Y134320D01*
X156960Y134227D01*
X156667Y134320D01*
X156447Y134554D01*
X156300Y134834D01*
X156190Y135207D01*
X156153Y135627D01*
X156190Y136047D01*
X156300Y136420D01*
X156447Y136700D01*
X156667Y136934D01*
X156960Y137027D01*
G01X158643Y147954D02*
X158387Y147720D01*
X158093Y147627D01*
X157800Y147720D01*
X157543Y148000D01*
X157360Y148420D01*
X157287Y148840D01*
Y149354D01*
X157360Y149774D01*
X157543Y150147D01*
X157763Y150334D01*
X158020Y150427D01*
X158313Y150334D01*
X158533Y150147D01*
X158680Y149867D01*
X158753Y149494D01*
X158680Y149167D01*
X158497Y148840D01*
X158277Y148654D01*
X158020Y148607D01*
X157727Y148700D01*
X157507Y148934D01*
X157287Y149354D01*
G01X172033Y149810D02*
X171850Y149530D01*
X171630Y149343D01*
X171373Y149250D01*
X171080Y149343D01*
X170860Y149530D01*
X170640Y149810D01*
X170567Y150183D01*
Y152050D01*
G01X169297Y150417D02*
X169040Y150743D01*
X168820Y150930D01*
X168527Y151023D01*
X168270Y150930D01*
X168087Y150743D01*
X167940Y150463D01*
X167903Y150137D01*
X167940Y149857D01*
X168087Y149577D01*
X168307Y149343D01*
X168563Y149250D01*
X168857Y149343D01*
X169113Y149623D01*
X169260Y150043D01*
X169297Y150510D01*
X169223Y151117D01*
X169113Y151443D01*
X168930Y151770D01*
X168673Y152003D01*
X168417Y152050D01*
X168160Y151957D01*
X167977Y151723D01*
G01X201280Y-162820D02*
X200813Y-162953D01*
X200463Y-163287D01*
X200230Y-163687D01*
X200055Y-164220D01*
X199997Y-164820D01*
X200055Y-165420D01*
X200230Y-165953D01*
X200463Y-166353D01*
X200813Y-166687D01*
X201280Y-166820D01*
X201747Y-166687D01*
X202097Y-166353D01*
X202330Y-165953D01*
X202505Y-165420D01*
X202563Y-164820D01*
X202505Y-164220D01*
X202330Y-163687D01*
X202097Y-163287D01*
X201747Y-162953D01*
X201280Y-162820D01*
G01X204972Y-165153D02*
X205380Y-164687D01*
X205730Y-164420D01*
X206197Y-164287D01*
X206605Y-164420D01*
X206897Y-164687D01*
X207130Y-165087D01*
X207188Y-165553D01*
X207130Y-165953D01*
X206897Y-166353D01*
X206547Y-166687D01*
X206138Y-166820D01*
X205672Y-166687D01*
X205263Y-166287D01*
X205030Y-165687D01*
X204972Y-165020D01*
X205088Y-164153D01*
X205263Y-163687D01*
X205555Y-163220D01*
X205963Y-162887D01*
X206372Y-162820D01*
X206780Y-162953D01*
X207072Y-163287D01*
G01X210122Y-165487D02*
X211638D01*
G01X214572Y-163487D02*
X214922Y-163087D01*
X215330Y-162887D01*
X215797Y-162820D01*
X216380Y-162953D01*
X216788Y-163287D01*
X216905Y-163687D01*
X216847Y-164087D01*
X216613Y-164420D01*
X215447Y-165087D01*
X214922Y-165553D01*
X214572Y-166220D01*
X214455Y-166820D01*
X216905D01*
G01X219197Y-166020D02*
X219547Y-166487D01*
X220013Y-166753D01*
X220538Y-166820D01*
X221005Y-166753D01*
X221472Y-166420D01*
X221763Y-166020D01*
X221822Y-165620D01*
X221705Y-165153D01*
X221297Y-164820D01*
X220888Y-164687D01*
X220363D01*
G01X220888D02*
X221238Y-164487D01*
X221530Y-164153D01*
X221647Y-163753D01*
X221530Y-163353D01*
X221238Y-163020D01*
X220713Y-162820D01*
X220188Y-162887D01*
X219663Y-163153D01*
G01X224522Y-165487D02*
X226038D01*
G01X230080Y-166820D02*
Y-162820D01*
X229380Y-163620D01*
G01Y-166820D02*
X230780D01*
G01X233772Y-165153D02*
X234180Y-164687D01*
X234530Y-164420D01*
X234997Y-164287D01*
X235405Y-164420D01*
X235697Y-164687D01*
X235930Y-165087D01*
X235988Y-165553D01*
X235930Y-165953D01*
X235697Y-166353D01*
X235347Y-166687D01*
X234938Y-166820D01*
X234472Y-166687D01*
X234063Y-166287D01*
X233830Y-165687D01*
X233772Y-165020D01*
X233888Y-164153D01*
X234063Y-163687D01*
X234355Y-163220D01*
X234763Y-162887D01*
X235172Y-162820D01*
X235580Y-162953D01*
X235872Y-163287D01*
G01X197997Y-158820D02*
Y-154820D01*
X199163D01*
X199630Y-155020D01*
X199980Y-155287D01*
X200272Y-155687D01*
X200505Y-156153D01*
X200563Y-156820D01*
X200505Y-157487D01*
X200272Y-157953D01*
X199980Y-158353D01*
X199630Y-158620D01*
X199163Y-158820D01*
X197997D01*
G01X202622D02*
X204080Y-154820D01*
X205538Y-158820D01*
G01X205013Y-157420D02*
X203147D01*
G01X208880Y-154820D02*
Y-158820D01*
G01X207538Y-154820D02*
X210222D01*
G01X214847Y-158820D02*
X212513D01*
Y-154820D01*
X214847D01*
G01X213913Y-156753D02*
X212513D01*
G01X197938Y-78820D02*
Y-74820D01*
X200622Y-78820D01*
Y-74820D01*
G01X202622Y-78820D02*
X204080Y-74820D01*
X205538Y-78820D01*
G01X205013Y-77420D02*
X203147D01*
G01X207363Y-78820D02*
Y-74820D01*
X208880Y-78153D01*
X210397Y-74820D01*
Y-78820D01*
G01X214847D02*
X212513D01*
Y-74820D01*
X214847D01*
G01X213913Y-76753D02*
X212513D01*
G01X176747Y-31207D02*
X176527Y-30927D01*
X176270Y-30787D01*
X175977Y-30740D01*
X175610Y-30833D01*
X175353Y-31067D01*
X175280Y-31347D01*
X175317Y-31627D01*
X175463Y-31860D01*
X176197Y-32327D01*
X176527Y-32653D01*
X176747Y-33120D01*
X176820Y-33540D01*
X175280D01*
G01X176430Y-10110D02*
Y-7310D01*
X176870Y-7870D01*
G01Y-10110D02*
X175990D01*
G01X188483Y113550D02*
Y116350D01*
X187603D01*
X187310Y116210D01*
X187090Y115883D01*
X187017Y115510D01*
X187090Y115137D01*
X187273Y114857D01*
X187603Y114717D01*
X188483D01*
G01X184610Y113550D02*
Y116350D01*
X185967Y114343D01*
X184133D01*
G01X195580Y137703D02*
X192780D01*
Y136823D01*
X192920Y136530D01*
X193247Y136310D01*
X193620Y136237D01*
X193993Y136310D01*
X194273Y136493D01*
X194413Y136823D01*
Y137703D01*
G01X192780Y134710D02*
Y133830D01*
G01Y134270D02*
X195580D01*
G01Y134710D02*
Y133830D01*
G01Y131570D02*
X192780D01*
X193340Y132010D01*
G01X195580D02*
Y131130D01*
G01X202690Y137893D02*
X199890D01*
Y137013D01*
X200030Y136720D01*
X200357Y136500D01*
X200730Y136427D01*
X201103Y136500D01*
X201383Y136683D01*
X201523Y137013D01*
Y137893D01*
G01X199890Y134900D02*
Y134020D01*
G01Y134460D02*
X202690D01*
G01Y134900D02*
Y134020D01*
G01X199890Y131760D02*
X199983Y132053D01*
X200217Y132273D01*
X200497Y132420D01*
X200870Y132530D01*
X201290Y132567D01*
X201710Y132530D01*
X202083Y132420D01*
X202363Y132273D01*
X202597Y132053D01*
X202690Y131760D01*
X202597Y131467D01*
X202363Y131247D01*
X202083Y131100D01*
X201710Y130990D01*
X201290Y130953D01*
X200870Y130990D01*
X200497Y131100D01*
X200217Y131247D01*
X199983Y131467D01*
X199890Y131760D01*
G01X183567Y136960D02*
X183347Y137240D01*
X183090Y137380D01*
X182797Y137427D01*
X182430Y137334D01*
X182173Y137100D01*
X182100Y136820D01*
X182137Y136540D01*
X182283Y136307D01*
X183017Y135840D01*
X183347Y135514D01*
X183567Y135047D01*
X183640Y134627D01*
X182100D01*
G01X185683Y165660D02*
X185500Y165380D01*
X185280Y165193D01*
X185023Y165100D01*
X184730Y165193D01*
X184510Y165380D01*
X184290Y165660D01*
X184217Y166033D01*
Y167900D01*
G01X183057Y165660D02*
X182837Y165333D01*
X182543Y165147D01*
X182213Y165100D01*
X181920Y165147D01*
X181627Y165380D01*
X181443Y165660D01*
X181407Y165940D01*
X181480Y166267D01*
X181737Y166500D01*
X181993Y166593D01*
X182323D01*
G01X181993D02*
X181773Y166733D01*
X181590Y166967D01*
X181517Y167247D01*
X181590Y167527D01*
X181773Y167760D01*
X182103Y167900D01*
X182433Y167853D01*
X182763Y167667D01*
G01X195480Y162263D02*
X192680D01*
Y161383D01*
X192820Y161090D01*
X193147Y160870D01*
X193520Y160797D01*
X193893Y160870D01*
X194173Y161053D01*
X194313Y161383D01*
Y162263D01*
G01X194080Y158610D02*
Y157877D01*
X194920D01*
X195200Y158097D01*
X195387Y158353D01*
X195480Y158720D01*
X195387Y159087D01*
X195200Y159343D01*
X194920Y159563D01*
X194593Y159710D01*
X194220Y159783D01*
X193893D01*
X193613Y159710D01*
X193287Y159563D01*
X193007Y159343D01*
X192820Y159123D01*
X192680Y158830D01*
Y158573D01*
X192773Y158280D01*
X192960Y158060D01*
G01X195153Y156753D02*
X195387Y156497D01*
X195480Y156203D01*
X195387Y155910D01*
X195107Y155653D01*
X194687Y155470D01*
X194267Y155397D01*
X193753D01*
X193333Y155470D01*
X192960Y155653D01*
X192773Y155873D01*
X192680Y156130D01*
X192773Y156423D01*
X192960Y156643D01*
X193240Y156790D01*
X193613Y156863D01*
X193940Y156790D01*
X194267Y156607D01*
X194453Y156387D01*
X194500Y156130D01*
X194407Y155837D01*
X194173Y155617D01*
X193753Y155397D01*
G01X200710Y162493D02*
X197910D01*
Y161613D01*
X198050Y161320D01*
X198377Y161100D01*
X198750Y161027D01*
X199123Y161100D01*
X199403Y161283D01*
X199543Y161613D01*
Y162493D01*
G01X199310Y158840D02*
Y158107D01*
X200150D01*
X200430Y158327D01*
X200617Y158583D01*
X200710Y158950D01*
X200617Y159317D01*
X200430Y159573D01*
X200150Y159793D01*
X199823Y159940D01*
X199450Y160013D01*
X199123D01*
X198843Y159940D01*
X198517Y159793D01*
X198237Y159573D01*
X198050Y159353D01*
X197910Y159060D01*
Y158803D01*
X198003Y158510D01*
X198190Y158290D01*
G01X200710Y156360D02*
X200663Y156103D01*
X200523Y155810D01*
X200290Y155627D01*
X199963Y155553D01*
X199637Y155627D01*
X199357Y155847D01*
X199217Y156177D01*
Y156543D01*
X199123Y156763D01*
X198890Y156947D01*
X198563Y157020D01*
X198237Y156910D01*
X198003Y156653D01*
X197910Y156360D01*
X198003Y156067D01*
X198237Y155810D01*
X198563Y155700D01*
X198890Y155773D01*
X199123Y155957D01*
X199217Y156177D01*
Y156543D01*
X199357Y156873D01*
X199637Y157093D01*
X199963Y157167D01*
X200290Y157093D01*
X200523Y156910D01*
X200663Y156617D01*
X200710Y156360D01*
G01X182200Y149227D02*
Y152027D01*
X182640Y151467D01*
G01Y149227D02*
X181760D01*
G01X207530Y-144653D02*
X211030D01*
G01X212330D02*
X215830D01*
G01X217130D02*
X220630D01*
G01X227138Y-143320D02*
Y-139320D01*
X229822Y-143320D01*
Y-139320D01*
G01X234563Y-139653D02*
X234213Y-139453D01*
X233805Y-139320D01*
X233338D01*
X232813Y-139520D01*
X232405Y-139853D01*
X232113Y-140253D01*
X231880Y-140920D01*
X231822Y-141520D01*
X231938Y-142120D01*
X232113Y-142520D01*
X232463Y-142920D01*
X232872Y-143187D01*
X233280Y-143320D01*
X233688D01*
X234097Y-143187D01*
X234447Y-142987D01*
X234738Y-142720D01*
G01X236913Y-143320D02*
Y-139320D01*
X238313D01*
X238780Y-139520D01*
X239130Y-139987D01*
X239247Y-140520D01*
X239130Y-141053D01*
X238838Y-141453D01*
X238313Y-141653D01*
X236913D01*
G01X252188Y-144653D02*
X251605Y-143987D01*
X251313Y-143320D01*
Y-140653D01*
X251605Y-139987D01*
X252188Y-139320D01*
G01X255938Y-143320D02*
Y-139320D01*
X258622Y-143320D01*
Y-139320D01*
G01X260855Y-143320D02*
X263305Y-139320D01*
G01X260855D02*
X263305Y-143320D01*
G01X265713D02*
Y-139320D01*
X267113D01*
X267580Y-139520D01*
X267930Y-139987D01*
X268047Y-140520D01*
X267930Y-141053D01*
X267638Y-141453D01*
X267113Y-141653D01*
X265713D01*
G01X277763Y-139653D02*
X277413Y-139453D01*
X277005Y-139320D01*
X276538D01*
X276013Y-139520D01*
X275605Y-139853D01*
X275313Y-140253D01*
X275080Y-140920D01*
X275022Y-141520D01*
X275138Y-142120D01*
X275313Y-142520D01*
X275663Y-142920D01*
X276072Y-143187D01*
X276480Y-143320D01*
X276888D01*
X277297Y-143187D01*
X277647Y-142987D01*
X277938Y-142720D01*
G01X281280Y-143320D02*
X280813Y-143253D01*
X280405Y-142987D01*
X280055Y-142587D01*
X279822Y-142120D01*
X279705Y-141587D01*
Y-141053D01*
X279822Y-140520D01*
X280055Y-140053D01*
X280405Y-139653D01*
X280813Y-139387D01*
X281280Y-139320D01*
X281747Y-139387D01*
X282155Y-139653D01*
X282505Y-140053D01*
X282738Y-140520D01*
X282855Y-141053D01*
Y-141587D01*
X282738Y-142120D01*
X282505Y-142587D01*
X282155Y-142987D01*
X281747Y-143253D01*
X281280Y-143320D01*
G01X284738D02*
Y-139320D01*
X287422Y-143320D01*
Y-139320D01*
G01X289772Y-143320D02*
Y-139320D01*
X291988D01*
G01X291172Y-141253D02*
X289772D01*
G01X294980Y-139320D02*
X296380D01*
G01X295680D02*
Y-143320D01*
G01X294980D02*
X296380D01*
G01X299197D02*
Y-139320D01*
X300363D01*
X300830Y-139520D01*
X301180Y-139787D01*
X301472Y-140187D01*
X301705Y-140653D01*
X301763Y-141320D01*
X301705Y-141987D01*
X301472Y-142453D01*
X301180Y-142853D01*
X300830Y-143120D01*
X300363Y-143320D01*
X299197D01*
G01X306447D02*
X304113D01*
Y-139320D01*
X306447D01*
G01X305513Y-141253D02*
X304113D01*
G01X308738Y-143320D02*
Y-139320D01*
X311422Y-143320D01*
Y-139320D01*
G01X314880D02*
Y-143320D01*
G01X313538Y-139320D02*
X316222D01*
G01X318980D02*
X320380D01*
G01X319680D02*
Y-143320D01*
G01X318980D02*
X320380D01*
G01X323022D02*
X324480Y-139320D01*
X325938Y-143320D01*
G01X325413Y-141920D02*
X323547D01*
G01X328113Y-139320D02*
Y-143320D01*
X330447D01*
G01X337713D02*
Y-139320D01*
X339113D01*
X339580Y-139520D01*
X339930Y-139987D01*
X340047Y-140520D01*
X339930Y-141053D01*
X339638Y-141453D01*
X339113Y-141653D01*
X337713D01*
G01X342513Y-143320D02*
Y-139320D01*
X343972D01*
X344438Y-139520D01*
X344730Y-139787D01*
X344847Y-140320D01*
X344730Y-140853D01*
X344380Y-141187D01*
X343972Y-141387D01*
X342513D01*
G01X343972D02*
X344847Y-143320D01*
G01X348480D02*
X348013Y-143253D01*
X347605Y-142987D01*
X347255Y-142587D01*
X347022Y-142120D01*
X346905Y-141587D01*
Y-141053D01*
X347022Y-140520D01*
X347255Y-140053D01*
X347605Y-139653D01*
X348013Y-139387D01*
X348480Y-139320D01*
X348947Y-139387D01*
X349355Y-139653D01*
X349705Y-140053D01*
X349938Y-140520D01*
X350055Y-141053D01*
Y-141587D01*
X349938Y-142120D01*
X349705Y-142587D01*
X349355Y-142987D01*
X348947Y-143253D01*
X348480Y-143320D01*
G01X352113D02*
Y-139320D01*
X353513D01*
X353980Y-139520D01*
X354330Y-139987D01*
X354447Y-140520D01*
X354330Y-141053D01*
X354038Y-141453D01*
X353513Y-141653D01*
X352113D01*
G01X356913Y-143320D02*
Y-139320D01*
X358372D01*
X358838Y-139520D01*
X359130Y-139787D01*
X359247Y-140320D01*
X359130Y-140853D01*
X358780Y-141187D01*
X358372Y-141387D01*
X356913D01*
G01X358372D02*
X359247Y-143320D01*
G01X362180Y-139320D02*
X363580D01*
G01X362880D02*
Y-143320D01*
G01X362180D02*
X363580D01*
G01X368847D02*
X366513D01*
Y-139320D01*
X368847D01*
G01X367913Y-141253D02*
X366513D01*
G01X372480Y-139320D02*
Y-143320D01*
G01X371138Y-139320D02*
X373822D01*
G01X375822Y-143320D02*
X377280Y-139320D01*
X378738Y-143320D01*
G01X378213Y-141920D02*
X376347D01*
G01X380913Y-143320D02*
Y-139320D01*
X382372D01*
X382838Y-139520D01*
X383130Y-139787D01*
X383247Y-140320D01*
X383130Y-140853D01*
X382780Y-141187D01*
X382372Y-141387D01*
X380913D01*
G01X382372D02*
X383247Y-143320D01*
G01X386880D02*
Y-141520D01*
X385713Y-139320D01*
G01X388047D02*
X386880Y-141520D01*
G01X391972Y-144653D02*
X392555Y-143987D01*
X392847Y-143320D01*
Y-140653D01*
X392555Y-139987D01*
X391972Y-139320D01*
G01X207530Y-128153D02*
X211030D01*
G01X212330D02*
X215830D01*
G01X217130D02*
X220630D01*
G01X227138Y-126820D02*
Y-122820D01*
X229822Y-126820D01*
Y-122820D01*
G01X232580D02*
X233980D01*
G01X233280D02*
Y-126820D01*
G01X232580D02*
X233980D01*
G01X236797Y-122820D02*
Y-125687D01*
X237030Y-126287D01*
X237497Y-126687D01*
X238080Y-126820D01*
X238663Y-126687D01*
X239130Y-126287D01*
X239363Y-125687D01*
Y-122820D01*
G01X242880Y-126820D02*
X242413Y-126753D01*
X242005Y-126487D01*
X241655Y-126087D01*
X241422Y-125620D01*
X241305Y-125087D01*
Y-124553D01*
X241422Y-124020D01*
X241655Y-123553D01*
X242005Y-123153D01*
X242413Y-122887D01*
X242880Y-122820D01*
X243347Y-122887D01*
X243755Y-123153D01*
X244105Y-123553D01*
X244338Y-124020D01*
X244455Y-124553D01*
Y-125087D01*
X244338Y-125620D01*
X244105Y-126087D01*
X243755Y-126487D01*
X243347Y-126753D01*
X242880Y-126820D01*
G01X252188Y-128153D02*
X251605Y-127487D01*
X251313Y-126820D01*
Y-124153D01*
X251605Y-123487D01*
X252188Y-122820D01*
G01X255938Y-126820D02*
Y-122820D01*
X258622Y-126820D01*
Y-122820D01*
G01X260855Y-126820D02*
X263305Y-122820D01*
G01X260855D02*
X263305Y-126820D01*
G01X265713D02*
Y-122820D01*
X267113D01*
X267580Y-123020D01*
X267930Y-123487D01*
X268047Y-124020D01*
X267930Y-124553D01*
X267638Y-124953D01*
X267113Y-125153D01*
X265713D01*
G01X275780Y-122820D02*
X277180D01*
G01X276480D02*
Y-126820D01*
G01X275780D02*
X277180D01*
G01X279938D02*
Y-122820D01*
X282622Y-126820D01*
Y-122820D01*
G01X286080D02*
Y-126820D01*
G01X284738Y-122820D02*
X287422D01*
G01X292047Y-126820D02*
X289713D01*
Y-122820D01*
X292047D01*
G01X291113Y-124753D02*
X289713D01*
G01X294513Y-126820D02*
Y-122820D01*
X295972D01*
X296438Y-123020D01*
X296730Y-123287D01*
X296847Y-123820D01*
X296730Y-124353D01*
X296380Y-124687D01*
X295972Y-124887D01*
X294513D01*
G01X295972D02*
X296847Y-126820D01*
G01X299138D02*
Y-122820D01*
X301822Y-126820D01*
Y-122820D01*
G01X303822Y-126820D02*
X305280Y-122820D01*
X306738Y-126820D01*
G01X306213Y-125420D02*
X304347D01*
G01X308913Y-122820D02*
Y-126820D01*
X311247D01*
G01X318397Y-122820D02*
Y-125687D01*
X318630Y-126287D01*
X319097Y-126687D01*
X319680Y-126820D01*
X320263Y-126687D01*
X320730Y-126287D01*
X320963Y-125687D01*
Y-122820D01*
G01X323255Y-126287D02*
X323722Y-126620D01*
X324247Y-126820D01*
X324713D01*
X325180Y-126620D01*
X325530Y-126287D01*
X325705Y-125820D01*
X325588Y-125353D01*
X325297Y-124953D01*
X324772Y-124687D01*
X324072Y-124553D01*
X323663Y-124287D01*
X323488Y-123820D01*
X323605Y-123353D01*
X323897Y-123020D01*
X324305Y-122820D01*
X324713D01*
X325122Y-122953D01*
X325472Y-123287D01*
G01X330447Y-126820D02*
X328113D01*
Y-122820D01*
X330447D01*
G01X329513Y-124753D02*
X328113D01*
G01X338880Y-126820D02*
X338413Y-126753D01*
X338005Y-126487D01*
X337655Y-126087D01*
X337422Y-125620D01*
X337305Y-125087D01*
Y-124553D01*
X337422Y-124020D01*
X337655Y-123553D01*
X338005Y-123153D01*
X338413Y-122887D01*
X338880Y-122820D01*
X339347Y-122887D01*
X339755Y-123153D01*
X340105Y-123553D01*
X340338Y-124020D01*
X340455Y-124553D01*
Y-125087D01*
X340338Y-125620D01*
X340105Y-126087D01*
X339755Y-126487D01*
X339347Y-126753D01*
X338880Y-126820D01*
G01X342338D02*
Y-122820D01*
X345022Y-126820D01*
Y-122820D01*
G01X347313D02*
Y-126820D01*
X349647D01*
G01X353280D02*
Y-125020D01*
X352113Y-122820D01*
G01X354447D02*
X353280Y-125020D01*
G01X358372Y-128153D02*
X358955Y-127487D01*
X359247Y-126820D01*
Y-124153D01*
X358955Y-123487D01*
X358372Y-122820D01*
G01X212235Y-127820D02*
X215525Y-121520D01*
G01X212235D02*
X215525Y-127820D01*
G01X207530Y-112153D02*
X211030D01*
G01X212330D02*
X215830D01*
G01X217130D02*
X220630D01*
G01X227313Y-110820D02*
Y-106820D01*
X228713D01*
X229180Y-107020D01*
X229530Y-107487D01*
X229647Y-108020D01*
X229530Y-108553D01*
X229238Y-108953D01*
X228713Y-109153D01*
X227313D01*
G01X231997Y-106820D02*
Y-109687D01*
X232230Y-110287D01*
X232697Y-110687D01*
X233280Y-110820D01*
X233863Y-110687D01*
X234330Y-110287D01*
X234563Y-109687D01*
Y-106820D01*
G01X238547Y-108687D02*
X238780Y-108487D01*
X238955Y-108153D01*
X239072Y-107687D01*
X238955Y-107287D01*
X238722Y-107020D01*
X238313Y-106820D01*
X236738D01*
Y-110820D01*
X238663D01*
X239072Y-110553D01*
X239305Y-110153D01*
X239422Y-109687D01*
X239305Y-109220D01*
X238955Y-108820D01*
X238547Y-108687D01*
X236738D01*
G01X242180Y-106820D02*
X243580D01*
G01X242880D02*
Y-110820D01*
G01X242180D02*
X243580D01*
G01X252188Y-112153D02*
X251605Y-111487D01*
X251313Y-110820D01*
Y-108153D01*
X251605Y-107487D01*
X252188Y-106820D01*
G01X256113Y-110820D02*
Y-106820D01*
X257513D01*
X257980Y-107020D01*
X258330Y-107487D01*
X258447Y-108020D01*
X258330Y-108553D01*
X258038Y-108953D01*
X257513Y-109153D01*
X256113D01*
G01X260797Y-106820D02*
Y-109687D01*
X261030Y-110287D01*
X261497Y-110687D01*
X262080Y-110820D01*
X262663Y-110687D01*
X263130Y-110287D01*
X263363Y-109687D01*
Y-106820D01*
G01X267347Y-108687D02*
X267580Y-108487D01*
X267755Y-108153D01*
X267872Y-107687D01*
X267755Y-107287D01*
X267522Y-107020D01*
X267113Y-106820D01*
X265538D01*
Y-110820D01*
X267463D01*
X267872Y-110553D01*
X268105Y-110153D01*
X268222Y-109687D01*
X268105Y-109220D01*
X267755Y-108820D01*
X267347Y-108687D01*
X265538D01*
G01X270513Y-106820D02*
Y-110820D01*
X272847D01*
G01X275780Y-106820D02*
X277180D01*
G01X276480D02*
Y-110820D01*
G01X275780D02*
X277180D01*
G01X282563Y-107153D02*
X282213Y-106953D01*
X281805Y-106820D01*
X281338D01*
X280813Y-107020D01*
X280405Y-107353D01*
X280113Y-107753D01*
X279880Y-108420D01*
X279822Y-109020D01*
X279938Y-109620D01*
X280113Y-110020D01*
X280463Y-110420D01*
X280872Y-110687D01*
X281280Y-110820D01*
X281688D01*
X282097Y-110687D01*
X282447Y-110487D01*
X282738Y-110220D01*
G01X290180Y-106820D02*
X291580D01*
G01X290880D02*
Y-110820D01*
G01X290180D02*
X291580D01*
G01X294338D02*
Y-106820D01*
X297022Y-110820D01*
Y-106820D01*
G01X299372Y-110820D02*
Y-106820D01*
X301588D01*
G01X300772Y-108753D02*
X299372D01*
G01X305280Y-110820D02*
X304813Y-110753D01*
X304405Y-110487D01*
X304055Y-110087D01*
X303822Y-109620D01*
X303705Y-109087D01*
Y-108553D01*
X303822Y-108020D01*
X304055Y-107553D01*
X304405Y-107153D01*
X304813Y-106887D01*
X305280Y-106820D01*
X305747Y-106887D01*
X306155Y-107153D01*
X306505Y-107553D01*
X306738Y-108020D01*
X306855Y-108553D01*
Y-109087D01*
X306738Y-109620D01*
X306505Y-110087D01*
X306155Y-110487D01*
X305747Y-110753D01*
X305280Y-110820D01*
G01X308913D02*
Y-106820D01*
X310372D01*
X310838Y-107020D01*
X311130Y-107287D01*
X311247Y-107820D01*
X311130Y-108353D01*
X310780Y-108687D01*
X310372Y-108887D01*
X308913D01*
G01X310372D02*
X311247Y-110820D01*
G01X313363D02*
Y-106820D01*
X314880Y-110153D01*
X316397Y-106820D01*
Y-110820D01*
G01X318222D02*
X319680Y-106820D01*
X321138Y-110820D01*
G01X320613Y-109420D02*
X318747D01*
G01X324480Y-106820D02*
Y-110820D01*
G01X323138Y-106820D02*
X325822D01*
G01X328580D02*
X329980D01*
G01X329280D02*
Y-110820D01*
G01X328580D02*
X329980D01*
G01X334080D02*
X333613Y-110753D01*
X333205Y-110487D01*
X332855Y-110087D01*
X332622Y-109620D01*
X332505Y-109087D01*
Y-108553D01*
X332622Y-108020D01*
X332855Y-107553D01*
X333205Y-107153D01*
X333613Y-106887D01*
X334080Y-106820D01*
X334547Y-106887D01*
X334955Y-107153D01*
X335305Y-107553D01*
X335538Y-108020D01*
X335655Y-108553D01*
Y-109087D01*
X335538Y-109620D01*
X335305Y-110087D01*
X334955Y-110487D01*
X334547Y-110753D01*
X334080Y-110820D01*
G01X337538D02*
Y-106820D01*
X340222Y-110820D01*
Y-106820D01*
G01X343972Y-112153D02*
X344555Y-111487D01*
X344847Y-110820D01*
Y-108153D01*
X344555Y-107487D01*
X343972Y-106820D01*
G01X214163Y-32880D02*
X213980Y-33160D01*
X213760Y-33347D01*
X213503Y-33440D01*
X213210Y-33347D01*
X212990Y-33160D01*
X212770Y-32880D01*
X212697Y-32507D01*
Y-30640D01*
G01X210730Y-33440D02*
Y-30640D01*
X211170Y-31200D01*
G01Y-33440D02*
X210290D01*
G01X208837Y-32880D02*
X208617Y-33207D01*
X208323Y-33393D01*
X207993Y-33440D01*
X207700Y-33393D01*
X207407Y-33160D01*
X207223Y-32880D01*
X207187Y-32600D01*
X207260Y-32273D01*
X207517Y-32040D01*
X207773Y-31947D01*
X208103D01*
G01X207773D02*
X207553Y-31807D01*
X207370Y-31573D01*
X207297Y-31293D01*
X207370Y-31013D01*
X207553Y-30780D01*
X207883Y-30640D01*
X208213Y-30687D01*
X208543Y-30873D01*
G01X231340Y-687D02*
X228540D01*
Y-1567D01*
X228680Y-1860D01*
X229007Y-2080D01*
X229380Y-2153D01*
X229753Y-2080D01*
X230033Y-1897D01*
X230173Y-1567D01*
Y-687D01*
G01X231340Y-3423D02*
X228540D01*
Y-4817D01*
G01X229893Y-4303D02*
Y-3423D01*
G01X231340Y-6747D02*
X230733Y-6820D01*
X230220Y-6930D01*
X229753Y-7077D01*
X229240Y-7260D01*
X228540Y-7553D01*
Y-6087D01*
G01X226620Y-747D02*
X223820D01*
Y-1627D01*
X223960Y-1920D01*
X224287Y-2140D01*
X224660Y-2213D01*
X225033Y-2140D01*
X225313Y-1957D01*
X225453Y-1627D01*
Y-747D01*
G01X226620Y-3483D02*
X223820D01*
Y-4877D01*
G01X225173Y-4363D02*
Y-3483D01*
G01X226200Y-6073D02*
X226433Y-6293D01*
X226573Y-6550D01*
X226620Y-6880D01*
X226527Y-7210D01*
X226340Y-7467D01*
X226013Y-7650D01*
X225640Y-7687D01*
X225267Y-7613D01*
X225033Y-7430D01*
X224847Y-7173D01*
X224800Y-6917D01*
X224847Y-6660D01*
X225033Y-6330D01*
X223820Y-6440D01*
Y-7430D01*
G01X211210Y-607D02*
X208410D01*
Y-1487D01*
X208550Y-1780D01*
X208877Y-2000D01*
X209250Y-2073D01*
X209623Y-2000D01*
X209903Y-1817D01*
X210043Y-1487D01*
Y-607D01*
G01X211210Y-3343D02*
X208410D01*
Y-4737D01*
G01X209763Y-4223D02*
Y-3343D01*
G01X211210Y-6740D02*
X208410D01*
X208970Y-6300D01*
G01X211210D02*
Y-7180D01*
G01X208410Y-9440D02*
X208503Y-9147D01*
X208737Y-8927D01*
X209017Y-8780D01*
X209390Y-8670D01*
X209810Y-8633D01*
X210230Y-8670D01*
X210603Y-8780D01*
X210883Y-8927D01*
X211117Y-9147D01*
X211210Y-9440D01*
X211117Y-9733D01*
X210883Y-9953D01*
X210603Y-10100D01*
X210230Y-10210D01*
X209810Y-10247D01*
X209390Y-10210D01*
X209017Y-10100D01*
X208737Y-9953D01*
X208503Y-9733D01*
X208410Y-9440D01*
G01X206030Y-507D02*
X203230D01*
Y-1387D01*
X203370Y-1680D01*
X203697Y-1900D01*
X204070Y-1973D01*
X204443Y-1900D01*
X204723Y-1717D01*
X204863Y-1387D01*
Y-507D01*
G01X206030Y-3243D02*
X203230D01*
Y-4637D01*
G01X204583Y-4123D02*
Y-3243D01*
G01X206030Y-6640D02*
X203230D01*
X203790Y-6200D01*
G01X206030D02*
Y-7080D01*
G01Y-9340D02*
X203230D01*
X203790Y-8900D01*
G01X206030D02*
Y-9780D01*
G01X216220Y-707D02*
X213420D01*
Y-1587D01*
X213560Y-1880D01*
X213887Y-2100D01*
X214260Y-2173D01*
X214633Y-2100D01*
X214913Y-1917D01*
X215053Y-1587D01*
Y-707D01*
G01X216220Y-3443D02*
X213420D01*
Y-4837D01*
G01X214773Y-4323D02*
Y-3443D01*
G01X215053Y-6143D02*
X214727Y-6400D01*
X214540Y-6620D01*
X214447Y-6913D01*
X214540Y-7170D01*
X214727Y-7353D01*
X215007Y-7500D01*
X215333Y-7537D01*
X215613Y-7500D01*
X215893Y-7353D01*
X216127Y-7133D01*
X216220Y-6877D01*
X216127Y-6583D01*
X215847Y-6327D01*
X215427Y-6180D01*
X214960Y-6143D01*
X214353Y-6217D01*
X214027Y-6327D01*
X213700Y-6510D01*
X213467Y-6767D01*
X213420Y-7023D01*
X213513Y-7280D01*
X213747Y-7463D01*
G01X221350Y-747D02*
X218550D01*
Y-1627D01*
X218690Y-1920D01*
X219017Y-2140D01*
X219390Y-2213D01*
X219763Y-2140D01*
X220043Y-1957D01*
X220183Y-1627D01*
Y-747D01*
G01X221350Y-3483D02*
X218550D01*
Y-4877D01*
G01X219903Y-4363D02*
Y-3483D01*
G01X221350Y-7320D02*
X218550D01*
X220557Y-5963D01*
Y-7797D01*
G01X205840Y31560D02*
X203040D01*
X203600Y32000D01*
G01X205840D02*
Y31120D01*
G01X203507Y29557D02*
X203227Y29337D01*
X203087Y29080D01*
X203040Y28787D01*
X203133Y28420D01*
X203367Y28163D01*
X203647Y28090D01*
X203927Y28127D01*
X204160Y28273D01*
X204627Y29007D01*
X204953Y29337D01*
X205420Y29557D01*
X205840Y29630D01*
Y28090D01*
G01X203040Y27077D02*
X205840Y26160D01*
X203040Y25243D01*
G01X206773Y24560D02*
Y22360D01*
G01X203040Y21200D02*
Y20320D01*
G01Y20760D02*
X205840D01*
G01Y21200D02*
Y20320D01*
G01Y18903D02*
X203040D01*
X205840Y17217D01*
X203040D01*
G01X211180Y34553D02*
X208380D01*
Y33673D01*
X208520Y33380D01*
X208847Y33160D01*
X209220Y33087D01*
X209593Y33160D01*
X209873Y33343D01*
X210013Y33673D01*
Y34553D01*
G01X211180Y30387D02*
Y31853D01*
X208380D01*
Y30387D01*
G01X209733Y30973D02*
Y31853D01*
G01X211180Y29153D02*
X208380D01*
Y28237D01*
X208520Y27943D01*
X208707Y27760D01*
X209080Y27687D01*
X209453Y27760D01*
X209687Y27980D01*
X209827Y28237D01*
Y29153D01*
G01Y28237D02*
X211180Y27687D01*
G01X212113Y26820D02*
Y24620D01*
G01X211180Y23790D02*
X208380D01*
G01Y22250D02*
X211180D01*
G01X209780D02*
Y23790D01*
G01X208380Y21237D02*
X211180Y20320D01*
X208380Y19403D01*
G01X211180Y18537D02*
X208380Y17620D01*
X211180Y16703D01*
G01X210200Y17033D02*
Y18207D01*
G01X216580Y38253D02*
X213780D01*
X216113Y37300D01*
X213780Y36347D01*
X216580D01*
G01X214013Y33793D02*
X213873Y34013D01*
X213780Y34270D01*
Y34563D01*
X213920Y34893D01*
X214153Y35150D01*
X214433Y35333D01*
X214900Y35480D01*
X215320Y35517D01*
X215740Y35443D01*
X216020Y35333D01*
X216300Y35113D01*
X216487Y34857D01*
X216580Y34600D01*
Y34343D01*
X216487Y34087D01*
X216347Y33867D01*
X216160Y33683D01*
G01X213780Y32707D02*
X215787D01*
X216207Y32560D01*
X216487Y32267D01*
X216580Y31900D01*
X216487Y31533D01*
X216207Y31240D01*
X215787Y31093D01*
X213780D01*
G01X215647Y29677D02*
Y28723D01*
G01X216580Y27233D02*
X213780D01*
Y26317D01*
X213920Y26023D01*
X214107Y25840D01*
X214480Y25767D01*
X214853Y25840D01*
X215087Y26060D01*
X215227Y26317D01*
Y27233D01*
G01Y26317D02*
X216580Y25767D01*
G01X216207Y24570D02*
X216440Y24277D01*
X216580Y23947D01*
Y23653D01*
X216440Y23360D01*
X216207Y23140D01*
X215880Y23030D01*
X215553Y23103D01*
X215273Y23287D01*
X215087Y23617D01*
X214993Y24057D01*
X214807Y24313D01*
X214480Y24423D01*
X214153Y24350D01*
X213920Y24167D01*
X213780Y23910D01*
Y23653D01*
X213873Y23397D01*
X214107Y23177D01*
G01X213780Y21100D02*
X216580D01*
G01X213780Y21943D02*
Y20257D01*
G01X216580Y19170D02*
X213780Y17630D01*
G01Y19170D02*
X216580Y17630D01*
G01X220420Y32237D02*
X220747Y32017D01*
X220933Y31723D01*
X220980Y31393D01*
X220933Y31100D01*
X220700Y30807D01*
X220420Y30623D01*
X220140Y30587D01*
X219813Y30660D01*
X219580Y30917D01*
X219487Y31173D01*
Y31503D01*
G01Y31173D02*
X219347Y30953D01*
X219113Y30770D01*
X218833Y30697D01*
X218553Y30770D01*
X218320Y30953D01*
X218180Y31283D01*
X218227Y31613D01*
X218413Y31943D01*
G01X218180Y29647D02*
X220980Y28730D01*
X218180Y27813D01*
G01X220420Y26837D02*
X220747Y26617D01*
X220933Y26323D01*
X220980Y25993D01*
X220933Y25700D01*
X220700Y25407D01*
X220420Y25223D01*
X220140Y25187D01*
X219813Y25260D01*
X219580Y25517D01*
X219487Y25773D01*
Y26103D01*
G01Y25773D02*
X219347Y25553D01*
X219113Y25370D01*
X218833Y25297D01*
X218553Y25370D01*
X218320Y25553D01*
X218180Y25883D01*
X218227Y26213D01*
X218413Y26543D01*
G01X221913Y24430D02*
Y22230D01*
G01X220607Y21400D02*
X220840Y21107D01*
X220980Y20777D01*
Y20483D01*
X220840Y20190D01*
X220607Y19970D01*
X220280Y19860D01*
X219953Y19933D01*
X219673Y20117D01*
X219487Y20447D01*
X219393Y20887D01*
X219207Y21143D01*
X218880Y21253D01*
X218553Y21180D01*
X218320Y20997D01*
X218180Y20740D01*
Y20483D01*
X218273Y20227D01*
X218507Y20007D01*
G01X220980Y18663D02*
X218180D01*
Y17747D01*
X218320Y17453D01*
X218507Y17270D01*
X218880Y17197D01*
X219253Y17270D01*
X219487Y17490D01*
X219627Y17747D01*
Y18663D01*
G01Y17747D02*
X220980Y17197D01*
G01X225700Y31997D02*
X225933Y31777D01*
X226073Y31520D01*
X226120Y31190D01*
X226027Y30860D01*
X225840Y30603D01*
X225513Y30420D01*
X225140Y30383D01*
X224767Y30457D01*
X224533Y30640D01*
X224347Y30897D01*
X224300Y31153D01*
X224347Y31410D01*
X224533Y31740D01*
X223320Y31630D01*
Y30640D01*
G01Y29407D02*
X226120Y28490D01*
X223320Y27573D01*
G01Y25790D02*
X223413Y26083D01*
X223647Y26303D01*
X223927Y26450D01*
X224300Y26560D01*
X224720Y26597D01*
X225140Y26560D01*
X225513Y26450D01*
X225793Y26303D01*
X226027Y26083D01*
X226120Y25790D01*
X226027Y25497D01*
X225793Y25277D01*
X225513Y25130D01*
X225140Y25020D01*
X224720Y24983D01*
X224300Y25020D01*
X223927Y25130D01*
X223647Y25277D01*
X223413Y25497D01*
X223320Y25790D01*
G01X227053Y24190D02*
Y21990D01*
G01X225747Y21160D02*
X225980Y20867D01*
X226120Y20537D01*
Y20243D01*
X225980Y19950D01*
X225747Y19730D01*
X225420Y19620D01*
X225093Y19693D01*
X224813Y19877D01*
X224627Y20207D01*
X224533Y20647D01*
X224347Y20903D01*
X224020Y21013D01*
X223693Y20940D01*
X223460Y20757D01*
X223320Y20500D01*
Y20243D01*
X223413Y19987D01*
X223647Y19767D01*
G01X226120Y18423D02*
X223320D01*
Y17507D01*
X223460Y17213D01*
X223647Y17030D01*
X224020Y16957D01*
X224393Y17030D01*
X224627Y17250D01*
X224767Y17507D01*
Y18423D01*
G01Y17507D02*
X226120Y16957D01*
G01X229390Y22740D02*
Y22007D01*
X230230D01*
X230510Y22227D01*
X230697Y22483D01*
X230790Y22850D01*
X230697Y23217D01*
X230510Y23473D01*
X230230Y23693D01*
X229903Y23840D01*
X229530Y23913D01*
X229203D01*
X228923Y23840D01*
X228597Y23693D01*
X228317Y23473D01*
X228130Y23253D01*
X227990Y22960D01*
Y22703D01*
X228083Y22410D01*
X228270Y22190D01*
G01X230790Y21103D02*
X227990D01*
X230790Y19417D01*
X227990D01*
G01X230790Y18367D02*
X227990D01*
Y17633D01*
X228130Y17340D01*
X228317Y17120D01*
X228597Y16937D01*
X228923Y16790D01*
X229390Y16753D01*
X229857Y16790D01*
X230183Y16937D01*
X230463Y17120D01*
X230650Y17340D01*
X230790Y17633D01*
Y18367D01*
G01X229929Y83671D02*
Y80871D01*
G01X230772Y83671D02*
X229086D01*
G01X227962Y80871D02*
Y83671D01*
X227082D01*
X226789Y83531D01*
X226569Y83204D01*
X226496Y82831D01*
X226569Y82458D01*
X226752Y82178D01*
X227082Y82038D01*
X227962D01*
G01X225299Y80871D02*
Y83671D01*
G01X223759D02*
Y80871D01*
G01Y82271D02*
X225299D01*
G01X222526Y83204D02*
X222306Y83484D01*
X222049Y83624D01*
X221756Y83671D01*
X221389Y83578D01*
X221132Y83344D01*
X221059Y83064D01*
X221096Y82784D01*
X221242Y82551D01*
X221976Y82084D01*
X222306Y81758D01*
X222526Y81291D01*
X222599Y80871D01*
X221059D01*
G01X218877Y93953D02*
X218657Y94233D01*
X218400Y94373D01*
X218107Y94420D01*
X217740Y94327D01*
X217483Y94093D01*
X217410Y93813D01*
X217447Y93533D01*
X217593Y93300D01*
X218327Y92833D01*
X218657Y92507D01*
X218877Y92040D01*
X218950Y91620D01*
X217410D01*
G01X218100Y113300D02*
Y116100D01*
X218540Y115540D01*
G01Y113300D02*
X217660D01*
G01X206650Y137293D02*
X203850D01*
X206650Y135607D01*
X203850D01*
G01X204083Y132943D02*
X203943Y133163D01*
X203850Y133420D01*
Y133713D01*
X203990Y134043D01*
X204223Y134300D01*
X204503Y134483D01*
X204970Y134630D01*
X205390Y134667D01*
X205810Y134593D01*
X206090Y134483D01*
X206370Y134263D01*
X206557Y134007D01*
X206650Y133750D01*
Y133493D01*
X206557Y133237D01*
X206417Y133017D01*
X206230Y132833D01*
G01X222990Y137683D02*
X220190D01*
Y136803D01*
X220330Y136510D01*
X220657Y136290D01*
X221030Y136217D01*
X221403Y136290D01*
X221683Y136473D01*
X221823Y136803D01*
Y137683D01*
G01X222990Y134947D02*
X220190D01*
Y133553D01*
G01X221543Y134067D02*
Y134947D01*
G01X222990Y131550D02*
X220190D01*
X220750Y131990D01*
G01X222990D02*
Y131110D01*
G01X227280Y137953D02*
X224480D01*
Y137073D01*
X224620Y136780D01*
X224947Y136560D01*
X225320Y136487D01*
X225693Y136560D01*
X225973Y136743D01*
X226113Y137073D01*
Y137953D01*
G01X227280Y135217D02*
X224480D01*
Y133823D01*
G01X225833Y134337D02*
Y135217D01*
G01X224480Y131820D02*
X224573Y132113D01*
X224807Y132333D01*
X225087Y132480D01*
X225460Y132590D01*
X225880Y132627D01*
X226300Y132590D01*
X226673Y132480D01*
X226953Y132333D01*
X227187Y132113D01*
X227280Y131820D01*
X227187Y131527D01*
X226953Y131307D01*
X226673Y131160D01*
X226300Y131050D01*
X225880Y131013D01*
X225460Y131050D01*
X225087Y131160D01*
X224807Y131307D01*
X224573Y131527D01*
X224480Y131820D01*
G01X215450Y137513D02*
X212650D01*
Y136633D01*
X212790Y136340D01*
X213117Y136120D01*
X213490Y136047D01*
X213863Y136120D01*
X214143Y136303D01*
X214283Y136633D01*
Y137513D01*
G01X215450Y134777D02*
X212650D01*
Y133383D01*
G01X214003Y133897D02*
Y134777D01*
G01X213117Y132077D02*
X212837Y131857D01*
X212697Y131600D01*
X212650Y131307D01*
X212743Y130940D01*
X212977Y130683D01*
X213257Y130610D01*
X213537Y130647D01*
X213770Y130793D01*
X214237Y131527D01*
X214563Y131857D01*
X215030Y132077D01*
X215450Y132150D01*
Y130610D01*
G01X209340Y136340D02*
Y135607D01*
X210180D01*
X210460Y135827D01*
X210647Y136083D01*
X210740Y136450D01*
X210647Y136817D01*
X210460Y137073D01*
X210180Y137293D01*
X209853Y137440D01*
X209480Y137513D01*
X209153D01*
X208873Y137440D01*
X208547Y137293D01*
X208267Y137073D01*
X208080Y136853D01*
X207940Y136560D01*
Y136303D01*
X208033Y136010D01*
X208220Y135790D01*
G01X210740Y134703D02*
X207940D01*
X210740Y133017D01*
X207940D01*
G01X210740Y131967D02*
X207940D01*
Y131233D01*
X208080Y130940D01*
X208267Y130720D01*
X208547Y130537D01*
X208873Y130390D01*
X209340Y130353D01*
X209807Y130390D01*
X210133Y130537D01*
X210413Y130720D01*
X210600Y130940D01*
X210740Y131233D01*
Y131967D01*
G01X229050Y167450D02*
Y170250D01*
X229490Y169690D01*
G01Y167450D02*
X228610D01*
G01X205950Y162383D02*
X203150D01*
Y161503D01*
X203290Y161210D01*
X203617Y160990D01*
X203990Y160917D01*
X204363Y160990D01*
X204643Y161173D01*
X204783Y161503D01*
Y162383D01*
G01X204550Y158730D02*
Y157997D01*
X205390D01*
X205670Y158217D01*
X205857Y158473D01*
X205950Y158840D01*
X205857Y159207D01*
X205670Y159463D01*
X205390Y159683D01*
X205063Y159830D01*
X204690Y159903D01*
X204363D01*
X204083Y159830D01*
X203757Y159683D01*
X203477Y159463D01*
X203290Y159243D01*
X203150Y158950D01*
Y158693D01*
X203243Y158400D01*
X203430Y158180D01*
G01X205950Y156323D02*
X205343Y156250D01*
X204830Y156140D01*
X204363Y155993D01*
X203850Y155810D01*
X203150Y155517D01*
Y156983D01*
G01X210860Y162443D02*
X208060D01*
Y161563D01*
X208200Y161270D01*
X208527Y161050D01*
X208900Y160977D01*
X209273Y161050D01*
X209553Y161233D01*
X209693Y161563D01*
Y162443D01*
G01X209460Y158790D02*
Y158057D01*
X210300D01*
X210580Y158277D01*
X210767Y158533D01*
X210860Y158900D01*
X210767Y159267D01*
X210580Y159523D01*
X210300Y159743D01*
X209973Y159890D01*
X209600Y159963D01*
X209273D01*
X208993Y159890D01*
X208667Y159743D01*
X208387Y159523D01*
X208200Y159303D01*
X208060Y159010D01*
Y158753D01*
X208153Y158460D01*
X208340Y158240D01*
G01X209693Y157007D02*
X209367Y156750D01*
X209180Y156530D01*
X209087Y156237D01*
X209180Y155980D01*
X209367Y155797D01*
X209647Y155650D01*
X209973Y155613D01*
X210253Y155650D01*
X210533Y155797D01*
X210767Y156017D01*
X210860Y156273D01*
X210767Y156567D01*
X210487Y156823D01*
X210067Y156970D01*
X209600Y157007D01*
X208993Y156933D01*
X208667Y156823D01*
X208340Y156640D01*
X208107Y156383D01*
X208060Y156127D01*
X208153Y155870D01*
X208387Y155687D01*
G01X216120Y162443D02*
X213320D01*
Y161563D01*
X213460Y161270D01*
X213787Y161050D01*
X214160Y160977D01*
X214533Y161050D01*
X214813Y161233D01*
X214953Y161563D01*
Y162443D01*
G01X213320Y159450D02*
Y158570D01*
G01Y159010D02*
X216120D01*
G01Y159450D02*
Y158570D01*
G01Y156383D02*
X215513Y156310D01*
X215000Y156200D01*
X214533Y156053D01*
X214020Y155870D01*
X213320Y155577D01*
Y157043D01*
G01X221000Y162513D02*
X218200D01*
Y161633D01*
X218340Y161340D01*
X218667Y161120D01*
X219040Y161047D01*
X219413Y161120D01*
X219693Y161303D01*
X219833Y161633D01*
Y162513D01*
G01X218200Y159520D02*
Y158640D01*
G01Y159080D02*
X221000D01*
G01Y159520D02*
Y158640D01*
G01X219833Y157077D02*
X219507Y156820D01*
X219320Y156600D01*
X219227Y156307D01*
X219320Y156050D01*
X219507Y155867D01*
X219787Y155720D01*
X220113Y155683D01*
X220393Y155720D01*
X220673Y155867D01*
X220907Y156087D01*
X221000Y156343D01*
X220907Y156637D01*
X220627Y156893D01*
X220207Y157040D01*
X219740Y157077D01*
X219133Y157003D01*
X218807Y156893D01*
X218480Y156710D01*
X218247Y156453D01*
X218200Y156197D01*
X218293Y155940D01*
X218527Y155757D01*
G01X226010Y165453D02*
X223210D01*
Y164573D01*
X223350Y164280D01*
X223677Y164060D01*
X224050Y163987D01*
X224423Y164060D01*
X224703Y164243D01*
X224843Y164573D01*
Y165453D01*
G01X226010Y162937D02*
X223210Y162020D01*
X226010Y161103D01*
G01X225030Y161433D02*
Y162607D01*
G01X226010Y159320D02*
X223210D01*
X223770Y159760D01*
G01X226010D02*
Y158880D01*
G01X225590Y157427D02*
X225823Y157207D01*
X225963Y156950D01*
X226010Y156620D01*
X225917Y156290D01*
X225730Y156033D01*
X225403Y155850D01*
X225030Y155813D01*
X224657Y155887D01*
X224423Y156070D01*
X224237Y156327D01*
X224190Y156583D01*
X224237Y156840D01*
X224423Y157170D01*
X223210Y157060D01*
Y156070D01*
G01X230840Y165313D02*
X228040D01*
Y164433D01*
X228180Y164140D01*
X228507Y163920D01*
X228880Y163847D01*
X229253Y163920D01*
X229533Y164103D01*
X229673Y164433D01*
Y165313D01*
G01X230840Y162797D02*
X228040Y161880D01*
X230840Y160963D01*
G01X229860Y161293D02*
Y162467D01*
G01X230840Y159180D02*
X228040D01*
X228600Y159620D01*
G01X230840D02*
Y158740D01*
G01Y156040D02*
X228040D01*
X230047Y157397D01*
Y155563D01*
G01X230027Y192083D02*
X229807Y192363D01*
X229550Y192503D01*
X229257Y192550D01*
X228890Y192457D01*
X228633Y192223D01*
X228560Y191943D01*
X228597Y191663D01*
X228743Y191430D01*
X229477Y190963D01*
X229807Y190637D01*
X230027Y190170D01*
X230100Y189750D01*
X228560D01*
G01X247938Y-158820D02*
Y-154820D01*
X250622Y-158820D01*
Y-154820D01*
G01X252797D02*
Y-157687D01*
X253030Y-158287D01*
X253497Y-158687D01*
X254080Y-158820D01*
X254663Y-158687D01*
X255130Y-158287D01*
X255363Y-157687D01*
Y-154820D01*
G01X257363Y-158820D02*
Y-154820D01*
X258880Y-158153D01*
X260397Y-154820D01*
Y-158820D01*
G01X264147Y-156687D02*
X264380Y-156487D01*
X264555Y-156153D01*
X264672Y-155687D01*
X264555Y-155287D01*
X264322Y-155020D01*
X263913Y-154820D01*
X262338D01*
Y-158820D01*
X264263D01*
X264672Y-158553D01*
X264905Y-158153D01*
X265022Y-157687D01*
X264905Y-157220D01*
X264555Y-156820D01*
X264147Y-156687D01*
X262338D01*
G01X269647Y-158820D02*
X267313D01*
Y-154820D01*
X269647D01*
G01X268713Y-156753D02*
X267313D01*
G01X272113Y-158820D02*
Y-154820D01*
X273572D01*
X274038Y-155020D01*
X274330Y-155287D01*
X274447Y-155820D01*
X274330Y-156353D01*
X273980Y-156687D01*
X273572Y-156887D01*
X272113D01*
G01X273572D02*
X274447Y-158820D01*
G01X257567Y-90650D02*
Y-84350D01*
X259133D01*
X259760Y-84665D01*
X260230Y-85085D01*
X260622Y-85715D01*
X260935Y-86450D01*
X261013Y-87500D01*
X260935Y-88550D01*
X260622Y-89285D01*
X260230Y-89915D01*
X259760Y-90335D01*
X259133Y-90650D01*
X257567D01*
G01X267157D02*
X264023D01*
Y-84350D01*
X267157D01*
G01X265903Y-87395D02*
X264023D01*
G01X269932Y-84350D02*
X271890Y-90650D01*
X273848Y-84350D01*
G01X276467Y-90650D02*
Y-84350D01*
G01X279443D02*
X276467Y-88235D01*
G01X279913Y-90650D02*
X277798Y-86450D01*
G01X283550Y-84350D02*
X285430D01*
G01X284490D02*
Y-90650D01*
G01X283550D02*
X285430D01*
G01X290790Y-84350D02*
Y-90650D01*
G01X288988Y-84350D02*
X292592D01*
G01X296072Y-88550D02*
X298108D01*
G01X301353Y-90650D02*
Y-84350D01*
X303390Y-89600D01*
X305427Y-84350D01*
Y-90650D01*
G01X308123D02*
Y-84350D01*
X310003D01*
X310630Y-84665D01*
X311100Y-85400D01*
X311257Y-86240D01*
X311100Y-87080D01*
X310708Y-87710D01*
X310003Y-88025D01*
X308123D01*
G01X317713Y-84875D02*
X317243Y-84560D01*
X316695Y-84350D01*
X316068D01*
X315363Y-84665D01*
X314815Y-85190D01*
X314423Y-85820D01*
X314110Y-86870D01*
X314032Y-87815D01*
X314188Y-88760D01*
X314423Y-89390D01*
X314893Y-90020D01*
X315442Y-90440D01*
X315990Y-90650D01*
X316538D01*
X317087Y-90440D01*
X317557Y-90125D01*
X317948Y-89705D01*
G01X320567D02*
X321037Y-90230D01*
X321585Y-90545D01*
X322290Y-90650D01*
X322995Y-90440D01*
X323543Y-90020D01*
X323935Y-89285D01*
X324013Y-88445D01*
X323857Y-87605D01*
X323465Y-87080D01*
X322917Y-86660D01*
X322368Y-86555D01*
X321820Y-86660D01*
X321115Y-87080D01*
X321350Y-84350D01*
X323465D01*
G01X328433Y-90650D02*
X328590Y-89285D01*
X328825Y-88130D01*
X329138Y-87080D01*
X329530Y-85925D01*
X330157Y-84350D01*
X327023D01*
G01X335830Y-90650D02*
Y-84350D01*
X332932Y-88865D01*
X336848D01*
G01X341190Y-90650D02*
X341738Y-90545D01*
X342365Y-90230D01*
X342757Y-89705D01*
X342913Y-88970D01*
X342757Y-88235D01*
X342287Y-87605D01*
X341582Y-87290D01*
X340798D01*
X340328Y-87080D01*
X339937Y-86555D01*
X339780Y-85820D01*
X340015Y-85085D01*
X340563Y-84560D01*
X341190Y-84350D01*
X341817Y-84560D01*
X342365Y-85085D01*
X342600Y-85820D01*
X342443Y-86555D01*
X342052Y-87080D01*
X341582Y-87290D01*
X340798D01*
X340093Y-87605D01*
X339623Y-88235D01*
X339467Y-88970D01*
X339623Y-89705D01*
X340015Y-90230D01*
X340642Y-90545D01*
X341190Y-90650D01*
G01X347960Y-87500D02*
X349527D01*
Y-89390D01*
X349057Y-90020D01*
X348508Y-90440D01*
X347725Y-90650D01*
X346942Y-90440D01*
X346393Y-90020D01*
X345923Y-89390D01*
X345610Y-88655D01*
X345453Y-87815D01*
Y-87080D01*
X345610Y-86450D01*
X345923Y-85715D01*
X346393Y-85085D01*
X346863Y-84665D01*
X347490Y-84350D01*
X348038D01*
X348665Y-84560D01*
X349135Y-84980D01*
G01X248350Y-32500D02*
Y-29700D01*
X248790Y-30260D01*
G01Y-32500D02*
X247910D01*
G01X246347Y-31333D02*
X246090Y-31007D01*
X245870Y-30820D01*
X245577Y-30727D01*
X245320Y-30820D01*
X245137Y-31007D01*
X244990Y-31287D01*
X244953Y-31613D01*
X244990Y-31893D01*
X245137Y-32173D01*
X245357Y-32407D01*
X245613Y-32500D01*
X245907Y-32407D01*
X246163Y-32127D01*
X246310Y-31707D01*
X246347Y-31240D01*
X246273Y-30633D01*
X246163Y-30307D01*
X245980Y-29980D01*
X245723Y-29747D01*
X245467Y-29700D01*
X245210Y-29793D01*
X245027Y-30027D01*
G01X247980Y-10540D02*
Y-7740D01*
X248420Y-8300D01*
G01Y-10540D02*
X247540D01*
G01X246087Y-10120D02*
X245867Y-10353D01*
X245610Y-10493D01*
X245280Y-10540D01*
X244950Y-10447D01*
X244693Y-10260D01*
X244510Y-9933D01*
X244473Y-9560D01*
X244547Y-9187D01*
X244730Y-8953D01*
X244987Y-8767D01*
X245243Y-8720D01*
X245500Y-8767D01*
X245830Y-8953D01*
X245720Y-7740D01*
X244730D01*
G01X241910Y-727D02*
X239110D01*
Y-1607D01*
X239250Y-1900D01*
X239577Y-2120D01*
X239950Y-2193D01*
X240323Y-2120D01*
X240603Y-1937D01*
X240743Y-1607D01*
Y-727D01*
G01X241910Y-3463D02*
X239110D01*
Y-4857D01*
G01X240463Y-4343D02*
Y-3463D01*
G01X241583Y-6237D02*
X241817Y-6493D01*
X241910Y-6787D01*
X241817Y-7080D01*
X241537Y-7337D01*
X241117Y-7520D01*
X240697Y-7593D01*
X240183D01*
X239763Y-7520D01*
X239390Y-7337D01*
X239203Y-7117D01*
X239110Y-6860D01*
X239203Y-6567D01*
X239390Y-6347D01*
X239670Y-6200D01*
X240043Y-6127D01*
X240370Y-6200D01*
X240697Y-6383D01*
X240883Y-6603D01*
X240930Y-6860D01*
X240837Y-7153D01*
X240603Y-7373D01*
X240183Y-7593D01*
G01X236590Y-607D02*
X233790D01*
Y-1487D01*
X233930Y-1780D01*
X234257Y-2000D01*
X234630Y-2073D01*
X235003Y-2000D01*
X235283Y-1817D01*
X235423Y-1487D01*
Y-607D01*
G01X236590Y-3343D02*
X233790D01*
Y-4737D01*
G01X235143Y-4223D02*
Y-3343D01*
G01X236590Y-6740D02*
X236543Y-6997D01*
X236403Y-7290D01*
X236170Y-7473D01*
X235843Y-7547D01*
X235517Y-7473D01*
X235237Y-7253D01*
X235097Y-6923D01*
Y-6557D01*
X235003Y-6337D01*
X234770Y-6153D01*
X234443Y-6080D01*
X234117Y-6190D01*
X233883Y-6447D01*
X233790Y-6740D01*
X233883Y-7033D01*
X234117Y-7290D01*
X234443Y-7400D01*
X234770Y-7327D01*
X235003Y-7143D01*
X235097Y-6923D01*
Y-6557D01*
X235237Y-6227D01*
X235517Y-6007D01*
X235843Y-5933D01*
X236170Y-6007D01*
X236403Y-6190D01*
X236543Y-6483D01*
X236590Y-6740D01*
G01X240540Y31250D02*
X237740D01*
X238300Y31690D01*
G01X240540D02*
Y30810D01*
G01X238207Y29247D02*
X237927Y29027D01*
X237787Y28770D01*
X237740Y28477D01*
X237833Y28110D01*
X238067Y27853D01*
X238347Y27780D01*
X238627Y27817D01*
X238860Y27963D01*
X239327Y28697D01*
X239653Y29027D01*
X240120Y29247D01*
X240540Y29320D01*
Y27780D01*
G01X237740Y26767D02*
X240540Y25850D01*
X237740Y24933D01*
G01X241473Y24250D02*
Y22050D01*
G01X237740Y20890D02*
Y20010D01*
G01Y20450D02*
X240540D01*
G01Y20890D02*
Y20010D01*
G01Y18593D02*
X237740D01*
X240540Y16907D01*
X237740D01*
G01X234480Y22800D02*
Y22067D01*
X235320D01*
X235600Y22287D01*
X235787Y22543D01*
X235880Y22910D01*
X235787Y23277D01*
X235600Y23533D01*
X235320Y23753D01*
X234993Y23900D01*
X234620Y23973D01*
X234293D01*
X234013Y23900D01*
X233687Y23753D01*
X233407Y23533D01*
X233220Y23313D01*
X233080Y23020D01*
Y22763D01*
X233173Y22470D01*
X233360Y22250D01*
G01X235880Y21163D02*
X233080D01*
X235880Y19477D01*
X233080D01*
G01X235880Y18427D02*
X233080D01*
Y17693D01*
X233220Y17400D01*
X233407Y17180D01*
X233687Y16997D01*
X234013Y16850D01*
X234480Y16813D01*
X234947Y16850D01*
X235273Y16997D01*
X235553Y17180D01*
X235740Y17400D01*
X235880Y17693D01*
Y18427D01*
G01X328678Y44920D02*
X328208Y45550D01*
X327660Y45865D01*
X327033Y45970D01*
X326250Y45760D01*
X325702Y45235D01*
X325545Y44605D01*
X325623Y43975D01*
X325937Y43450D01*
X327503Y42400D01*
X328208Y41665D01*
X328678Y40615D01*
X328835Y39670D01*
X325545D01*
G01X320890Y45970D02*
X321517Y45760D01*
X321987Y45235D01*
X322300Y44605D01*
X322535Y43765D01*
X322613Y42820D01*
X322535Y41875D01*
X322300Y41035D01*
X321987Y40405D01*
X321517Y39880D01*
X320890Y39670D01*
X320263Y39880D01*
X319793Y40405D01*
X319480Y41035D01*
X319245Y41875D01*
X319167Y42820D01*
X319245Y43765D01*
X319480Y44605D01*
X319793Y45235D01*
X320263Y45760D01*
X320890Y45970D01*
G01X314590Y39670D02*
Y45970D01*
X315530Y44710D01*
G01Y39670D02*
X313650D01*
G01X309778Y42295D02*
X309230Y43030D01*
X308760Y43450D01*
X308133Y43660D01*
X307585Y43450D01*
X307193Y43030D01*
X306880Y42400D01*
X306802Y41665D01*
X306880Y41035D01*
X307193Y40405D01*
X307663Y39880D01*
X308212Y39670D01*
X308838Y39880D01*
X309387Y40510D01*
X309700Y41455D01*
X309778Y42505D01*
X309622Y43870D01*
X309387Y44605D01*
X308995Y45340D01*
X308447Y45865D01*
X307898Y45970D01*
X307350Y45760D01*
X306958Y45235D01*
G01X297492Y39670D02*
Y45970D01*
X293888Y39670D01*
Y45970D01*
G01X291035Y39670D02*
X287745Y45970D01*
G01X291035D02*
X287745Y39670D01*
G01X284657D02*
Y45970D01*
X282777D01*
X282150Y45655D01*
X281680Y44920D01*
X281523Y44080D01*
X281680Y43240D01*
X282072Y42610D01*
X282777Y42295D01*
X284657D01*
G01X269863Y43030D02*
X269550Y43345D01*
X269315Y43870D01*
X269158Y44605D01*
X269315Y45235D01*
X269628Y45655D01*
X270177Y45970D01*
X272292D01*
Y39670D01*
X269707D01*
X269158Y40090D01*
X268845Y40720D01*
X268688Y41455D01*
X268845Y42190D01*
X269315Y42820D01*
X269863Y43030D01*
X272292D01*
G01X264190Y39460D02*
X264347Y39565D01*
Y39775D01*
X264190Y39880D01*
X264033Y39775D01*
Y39565D01*
X264190Y39460D01*
G01X259848Y45970D02*
X257890Y39670D01*
X255932Y45970D01*
G01X251590Y39460D02*
X251747Y39565D01*
Y39775D01*
X251590Y39880D01*
X251433Y39775D01*
Y39565D01*
X251590Y39460D01*
G01X236700Y137963D02*
X233900D01*
Y137083D01*
X234040Y136790D01*
X234367Y136570D01*
X234740Y136497D01*
X235113Y136570D01*
X235393Y136753D01*
X235533Y137083D01*
Y137963D01*
G01X236700Y135447D02*
X233900Y134530D01*
X236700Y133613D01*
G01X235720Y133943D02*
Y135117D01*
G01X234367Y132527D02*
X234087Y132307D01*
X233947Y132050D01*
X233900Y131757D01*
X233993Y131390D01*
X234227Y131133D01*
X234507Y131060D01*
X234787Y131097D01*
X235020Y131243D01*
X235487Y131977D01*
X235813Y132307D01*
X236280Y132527D01*
X236700Y132600D01*
Y131060D01*
G01X241790Y137843D02*
X238990D01*
Y136963D01*
X239130Y136670D01*
X239457Y136450D01*
X239830Y136377D01*
X240203Y136450D01*
X240483Y136633D01*
X240623Y136963D01*
Y137843D01*
G01X241790Y135327D02*
X238990Y134410D01*
X241790Y133493D01*
G01X240810Y133823D02*
Y134997D01*
G01X241790Y131710D02*
X238990D01*
X239550Y132150D01*
G01X241790D02*
Y131270D01*
G01X231780Y137853D02*
X228980D01*
Y136973D01*
X229120Y136680D01*
X229447Y136460D01*
X229820Y136387D01*
X230193Y136460D01*
X230473Y136643D01*
X230613Y136973D01*
Y137853D01*
G01X231780Y135117D02*
X228980D01*
Y133723D01*
G01X230333Y134237D02*
Y135117D01*
G01X231220Y132527D02*
X231547Y132307D01*
X231733Y132013D01*
X231780Y131683D01*
X231733Y131390D01*
X231500Y131097D01*
X231220Y130913D01*
X230940Y130877D01*
X230613Y130950D01*
X230380Y131207D01*
X230287Y131463D01*
Y131793D01*
G01Y131463D02*
X230147Y131243D01*
X229913Y131060D01*
X229633Y130987D01*
X229353Y131060D01*
X229120Y131243D01*
X228980Y131573D01*
X229027Y131903D01*
X229213Y132233D01*
G01X245815Y138631D02*
Y141431D01*
X247172Y139424D01*
X245338D01*
G01X256948Y137501D02*
Y140301D01*
X256068D01*
X255775Y140161D01*
X255555Y139834D01*
X255482Y139461D01*
X255555Y139088D01*
X255738Y138808D01*
X256068Y138668D01*
X256948D01*
G01X253515Y137501D02*
Y140301D01*
X253955Y139741D01*
G01Y137501D02*
X253075D01*
G01X244980Y166320D02*
Y169120D01*
X245420Y168560D01*
G01Y166320D02*
X244540D01*
G01X243087Y166740D02*
X242867Y166507D01*
X242610Y166367D01*
X242280Y166320D01*
X241950Y166413D01*
X241693Y166600D01*
X241510Y166927D01*
X241473Y167300D01*
X241547Y167673D01*
X241730Y167907D01*
X241987Y168093D01*
X242243Y168140D01*
X242500Y168093D01*
X242830Y167907D01*
X242720Y169120D01*
X241730D01*
G01X235760Y165273D02*
X232960D01*
Y164393D01*
X233100Y164100D01*
X233427Y163880D01*
X233800Y163807D01*
X234173Y163880D01*
X234453Y164063D01*
X234593Y164393D01*
Y165273D01*
G01X235760Y162757D02*
X232960Y161840D01*
X235760Y160923D01*
G01X234780Y161253D02*
Y162427D01*
G01X235760Y159140D02*
X232960D01*
X233520Y159580D01*
G01X235760D02*
Y158700D01*
G01X235200Y157247D02*
X235527Y157027D01*
X235713Y156733D01*
X235760Y156403D01*
X235713Y156110D01*
X235480Y155817D01*
X235200Y155633D01*
X234920Y155597D01*
X234593Y155670D01*
X234360Y155927D01*
X234267Y156183D01*
Y156513D01*
G01Y156183D02*
X234127Y155963D01*
X233893Y155780D01*
X233613Y155707D01*
X233333Y155780D01*
X233100Y155963D01*
X232960Y156293D01*
X233007Y156623D01*
X233193Y156953D01*
G01X241000Y165153D02*
X238200D01*
Y164273D01*
X238340Y163980D01*
X238667Y163760D01*
X239040Y163687D01*
X239413Y163760D01*
X239693Y163943D01*
X239833Y164273D01*
Y165153D01*
G01X241000Y162637D02*
X238200Y161720D01*
X241000Y160803D01*
G01X240020Y161133D02*
Y162307D01*
G01X241000Y159020D02*
X238200D01*
X238760Y159460D01*
G01X241000D02*
Y158580D01*
G01X238667Y157017D02*
X238387Y156797D01*
X238247Y156540D01*
X238200Y156247D01*
X238293Y155880D01*
X238527Y155623D01*
X238807Y155550D01*
X239087Y155587D01*
X239320Y155733D01*
X239787Y156467D01*
X240113Y156797D01*
X240580Y157017D01*
X241000Y157090D01*
Y155550D01*
G01X247372Y157993D02*
X247152Y157666D01*
X246858Y157480D01*
X246528Y157433D01*
X246235Y157480D01*
X245942Y157713D01*
X245758Y157993D01*
X245722Y158273D01*
X245795Y158600D01*
X246052Y158833D01*
X246308Y158926D01*
X246638D01*
G01X246308D02*
X246088Y159066D01*
X245905Y159300D01*
X245832Y159580D01*
X245905Y159860D01*
X246088Y160093D01*
X246418Y160233D01*
X246748Y160186D01*
X247078Y160000D01*
G01X248650Y190600D02*
Y193400D01*
X249090Y192840D01*
G01Y190600D02*
X248210D01*
G01X246647Y191767D02*
X246390Y192093D01*
X246170Y192280D01*
X245877Y192373D01*
X245620Y192280D01*
X245437Y192093D01*
X245290Y191813D01*
X245253Y191487D01*
X245290Y191207D01*
X245437Y190927D01*
X245657Y190693D01*
X245913Y190600D01*
X246207Y190693D01*
X246463Y190973D01*
X246610Y191393D01*
X246647Y191860D01*
X246573Y192467D01*
X246463Y192793D01*
X246280Y193120D01*
X246023Y193353D01*
X245767Y193400D01*
X245510Y193307D01*
X245327Y193073D01*
G01X282880Y-165820D02*
Y-159520D01*
X281940Y-160780D01*
G01Y-165820D02*
X283820D01*
G01X289023D02*
X289180Y-164455D01*
X289415Y-163300D01*
X289728Y-162250D01*
X290120Y-161095D01*
X290747Y-159520D01*
X287613D01*
G01X295480D02*
X294853Y-159730D01*
X294383Y-160255D01*
X294070Y-160885D01*
X293835Y-161725D01*
X293757Y-162670D01*
X293835Y-163615D01*
X294070Y-164455D01*
X294383Y-165085D01*
X294853Y-165610D01*
X295480Y-165820D01*
X296107Y-165610D01*
X296577Y-165085D01*
X296890Y-164455D01*
X297125Y-163615D01*
X297203Y-162670D01*
X297125Y-161725D01*
X296890Y-160885D01*
X296577Y-160255D01*
X296107Y-159730D01*
X295480Y-159520D01*
G01X300762Y-163720D02*
X302798D01*
G01X306592Y-160570D02*
X307062Y-159940D01*
X307610Y-159625D01*
X308237Y-159520D01*
X309020Y-159730D01*
X309568Y-160255D01*
X309725Y-160885D01*
X309647Y-161515D01*
X309333Y-162040D01*
X307767Y-163090D01*
X307062Y-163825D01*
X306592Y-164875D01*
X306435Y-165820D01*
X309725D01*
G01X313048Y-165085D02*
X313597Y-165610D01*
X314223Y-165820D01*
X314850Y-165610D01*
X315398Y-164980D01*
X315790Y-164035D01*
X315947Y-163090D01*
Y-161935D01*
X315790Y-160990D01*
X315398Y-160150D01*
X314928Y-159730D01*
X314380Y-159520D01*
X313753Y-159730D01*
X313283Y-160150D01*
X312970Y-160780D01*
X312813Y-161620D01*
X312970Y-162355D01*
X313362Y-163090D01*
X313832Y-163510D01*
X314380Y-163615D01*
X315007Y-163405D01*
X315477Y-162880D01*
X315947Y-161935D01*
G01X320680Y-159520D02*
X320053Y-159730D01*
X319583Y-160255D01*
X319270Y-160885D01*
X319035Y-161725D01*
X318957Y-162670D01*
X319035Y-163615D01*
X319270Y-164455D01*
X319583Y-165085D01*
X320053Y-165610D01*
X320680Y-165820D01*
X321307Y-165610D01*
X321777Y-165085D01*
X322090Y-164455D01*
X322325Y-163615D01*
X322403Y-162670D01*
X322325Y-161725D01*
X322090Y-160885D01*
X321777Y-160255D01*
X321307Y-159730D01*
X320680Y-159520D01*
G01X325257Y-164560D02*
X325727Y-165295D01*
X326353Y-165715D01*
X327058Y-165820D01*
X327685Y-165715D01*
X328312Y-165190D01*
X328703Y-164560D01*
X328782Y-163930D01*
X328625Y-163195D01*
X328077Y-162670D01*
X327528Y-162460D01*
X326823D01*
G01X327528D02*
X327998Y-162145D01*
X328390Y-161620D01*
X328547Y-160990D01*
X328390Y-160360D01*
X327998Y-159835D01*
X327293Y-159520D01*
X326588Y-159625D01*
X325883Y-160045D01*
G01X333280Y-159520D02*
X332653Y-159730D01*
X332183Y-160255D01*
X331870Y-160885D01*
X331635Y-161725D01*
X331557Y-162670D01*
X331635Y-163615D01*
X331870Y-164455D01*
X332183Y-165085D01*
X332653Y-165610D01*
X333280Y-165820D01*
X333907Y-165610D01*
X334377Y-165085D01*
X334690Y-164455D01*
X334925Y-163615D01*
X335003Y-162670D01*
X334925Y-161725D01*
X334690Y-160885D01*
X334377Y-160255D01*
X333907Y-159730D01*
X333280Y-159520D01*
G01X344313Y-165820D02*
Y-159520D01*
X346272D01*
X346898Y-159835D01*
X347290Y-160255D01*
X347447Y-161095D01*
X347290Y-161935D01*
X346820Y-162460D01*
X346272Y-162775D01*
X344313D01*
G01X346272D02*
X347447Y-165820D01*
G01X353747D02*
X350613D01*
Y-159520D01*
X353747D01*
G01X352493Y-162565D02*
X350613D01*
G01X356522Y-159520D02*
X358480Y-165820D01*
X360438Y-159520D01*
G01X371707Y-162460D02*
X372020Y-162145D01*
X372255Y-161620D01*
X372412Y-160885D01*
X372255Y-160255D01*
X371942Y-159835D01*
X371393Y-159520D01*
X369278D01*
Y-165820D01*
X371863D01*
X372412Y-165400D01*
X372725Y-164770D01*
X372882Y-164035D01*
X372725Y-163300D01*
X372255Y-162670D01*
X371707Y-162460D01*
X369278D01*
G01X266427Y-30917D02*
X266207Y-30637D01*
X265950Y-30497D01*
X265657Y-30450D01*
X265290Y-30543D01*
X265033Y-30777D01*
X264960Y-31057D01*
X264997Y-31337D01*
X265143Y-31570D01*
X265877Y-32037D01*
X266207Y-32363D01*
X266427Y-32830D01*
X266500Y-33250D01*
X264960D01*
G01X265730Y-9540D02*
Y-6740D01*
X266170Y-7300D01*
G01Y-9540D02*
X265290D01*
G01X285350Y-1547D02*
X282550D01*
Y-2427D01*
X282690Y-2720D01*
X283017Y-2940D01*
X283390Y-3013D01*
X283763Y-2940D01*
X284043Y-2757D01*
X284183Y-2427D01*
Y-1547D01*
G01X283857Y-5273D02*
X283717Y-5420D01*
X283483Y-5530D01*
X283157Y-5603D01*
X282877Y-5530D01*
X282690Y-5383D01*
X282550Y-5127D01*
Y-4137D01*
X285350D01*
Y-5347D01*
X285163Y-5603D01*
X284883Y-5750D01*
X284557Y-5823D01*
X284230Y-5750D01*
X283950Y-5530D01*
X283857Y-5273D01*
Y-4137D01*
G01X285350Y-8120D02*
X282550D01*
X284557Y-6763D01*
Y-8597D01*
G01X285520Y26683D02*
X282720D01*
Y25803D01*
X282860Y25510D01*
X283187Y25290D01*
X283560Y25217D01*
X283933Y25290D01*
X284213Y25473D01*
X284353Y25803D01*
Y26683D01*
G01X284120Y23030D02*
Y22297D01*
X284960D01*
X285240Y22517D01*
X285427Y22773D01*
X285520Y23140D01*
X285427Y23507D01*
X285240Y23763D01*
X284960Y23983D01*
X284633Y24130D01*
X284260Y24203D01*
X283933D01*
X283653Y24130D01*
X283327Y23983D01*
X283047Y23763D01*
X282860Y23543D01*
X282720Y23250D01*
Y22993D01*
X282813Y22700D01*
X283000Y22480D01*
G01X285520Y20550D02*
X282720D01*
X283280Y20990D01*
G01X285520D02*
Y20110D01*
G01X284960Y18657D02*
X285287Y18437D01*
X285473Y18143D01*
X285520Y17813D01*
X285473Y17520D01*
X285240Y17227D01*
X284960Y17043D01*
X284680Y17007D01*
X284353Y17080D01*
X284120Y17337D01*
X284027Y17593D01*
Y17923D01*
G01Y17593D02*
X283887Y17373D01*
X283653Y17190D01*
X283373Y17117D01*
X283093Y17190D01*
X282860Y17373D01*
X282720Y17703D01*
X282767Y18033D01*
X282953Y18363D01*
G01X266461Y144083D02*
X266241Y144363D01*
X265984Y144503D01*
X265691Y144550D01*
X265324Y144457D01*
X265067Y144223D01*
X264994Y143943D01*
X265031Y143663D01*
X265177Y143430D01*
X265911Y142963D01*
X266241Y142637D01*
X266461Y142170D01*
X266534Y141750D01*
X264994D01*
G01X282043Y165470D02*
X281860Y165190D01*
X281640Y165003D01*
X281383Y164910D01*
X281090Y165003D01*
X280870Y165190D01*
X280650Y165470D01*
X280577Y165843D01*
Y167710D01*
G01X279307Y167243D02*
X279087Y167523D01*
X278830Y167663D01*
X278537Y167710D01*
X278170Y167617D01*
X277913Y167383D01*
X277840Y167103D01*
X277877Y166823D01*
X278023Y166590D01*
X278757Y166123D01*
X279087Y165797D01*
X279307Y165330D01*
X279380Y164910D01*
X277840D01*
G01X265364Y156420D02*
Y159220D01*
X265804Y158660D01*
G01Y156420D02*
X264924D01*
G01X304163Y-32690D02*
X303980Y-32970D01*
X303760Y-33157D01*
X303503Y-33250D01*
X303210Y-33157D01*
X302990Y-32970D01*
X302770Y-32690D01*
X302697Y-32317D01*
Y-30450D01*
G01X300730Y-33250D02*
Y-30450D01*
X301170Y-31010D01*
G01Y-33250D02*
X300290D01*
G01X297590D02*
Y-30450D01*
X298947Y-32457D01*
X297113D01*
G01X290630Y-1457D02*
X287830D01*
Y-2337D01*
X287970Y-2630D01*
X288297Y-2850D01*
X288670Y-2923D01*
X289043Y-2850D01*
X289323Y-2667D01*
X289463Y-2337D01*
Y-1457D01*
G01X289137Y-5183D02*
X288997Y-5330D01*
X288763Y-5440D01*
X288437Y-5513D01*
X288157Y-5440D01*
X287970Y-5293D01*
X287830Y-5037D01*
Y-4047D01*
X290630D01*
Y-5257D01*
X290443Y-5513D01*
X290163Y-5660D01*
X289837Y-5733D01*
X289510Y-5660D01*
X289230Y-5440D01*
X289137Y-5183D01*
Y-4047D01*
G01X290210Y-6783D02*
X290443Y-7003D01*
X290583Y-7260D01*
X290630Y-7590D01*
X290537Y-7920D01*
X290350Y-8177D01*
X290023Y-8360D01*
X289650Y-8397D01*
X289277Y-8323D01*
X289043Y-8140D01*
X288857Y-7883D01*
X288810Y-7627D01*
X288857Y-7370D01*
X289043Y-7040D01*
X287830Y-7150D01*
Y-8140D01*
G01X295830Y-1527D02*
X293030D01*
Y-2407D01*
X293170Y-2700D01*
X293497Y-2920D01*
X293870Y-2993D01*
X294243Y-2920D01*
X294523Y-2737D01*
X294663Y-2407D01*
Y-1527D01*
G01X294337Y-5253D02*
X294197Y-5400D01*
X293963Y-5510D01*
X293637Y-5583D01*
X293357Y-5510D01*
X293170Y-5363D01*
X293030Y-5107D01*
Y-4117D01*
X295830D01*
Y-5327D01*
X295643Y-5583D01*
X295363Y-5730D01*
X295037Y-5803D01*
X294710Y-5730D01*
X294430Y-5510D01*
X294337Y-5253D01*
Y-4117D01*
G01X294663Y-6963D02*
X294337Y-7220D01*
X294150Y-7440D01*
X294057Y-7733D01*
X294150Y-7990D01*
X294337Y-8173D01*
X294617Y-8320D01*
X294943Y-8357D01*
X295223Y-8320D01*
X295503Y-8173D01*
X295737Y-7953D01*
X295830Y-7697D01*
X295737Y-7403D01*
X295457Y-7147D01*
X295037Y-7000D01*
X294570Y-6963D01*
X293963Y-7037D01*
X293637Y-7147D01*
X293310Y-7330D01*
X293077Y-7587D01*
X293030Y-7843D01*
X293123Y-8100D01*
X293357Y-8283D01*
G01X300960Y-1567D02*
X298160D01*
Y-2447D01*
X298300Y-2740D01*
X298627Y-2960D01*
X299000Y-3033D01*
X299373Y-2960D01*
X299653Y-2777D01*
X299793Y-2447D01*
Y-1567D01*
G01X299467Y-5293D02*
X299327Y-5440D01*
X299093Y-5550D01*
X298767Y-5623D01*
X298487Y-5550D01*
X298300Y-5403D01*
X298160Y-5147D01*
Y-4157D01*
X300960D01*
Y-5367D01*
X300773Y-5623D01*
X300493Y-5770D01*
X300167Y-5843D01*
X299840Y-5770D01*
X299560Y-5550D01*
X299467Y-5293D01*
Y-4157D01*
G01X300960Y-7627D02*
X300353Y-7700D01*
X299840Y-7810D01*
X299373Y-7957D01*
X298860Y-8140D01*
X298160Y-8433D01*
Y-6967D01*
G01X306230Y-1697D02*
X303430D01*
Y-2577D01*
X303570Y-2870D01*
X303897Y-3090D01*
X304270Y-3163D01*
X304643Y-3090D01*
X304923Y-2907D01*
X305063Y-2577D01*
Y-1697D01*
G01X306230Y-4323D02*
X303430D01*
Y-5057D01*
X303570Y-5350D01*
X303757Y-5570D01*
X304037Y-5753D01*
X304363Y-5900D01*
X304830Y-5937D01*
X305297Y-5900D01*
X305623Y-5753D01*
X305903Y-5570D01*
X306090Y-5350D01*
X306230Y-5057D01*
Y-4323D01*
G01X303430Y-7830D02*
X303523Y-7537D01*
X303757Y-7317D01*
X304037Y-7170D01*
X304410Y-7060D01*
X304830Y-7023D01*
X305250Y-7060D01*
X305623Y-7170D01*
X305903Y-7317D01*
X306137Y-7537D01*
X306230Y-7830D01*
X306137Y-8123D01*
X305903Y-8343D01*
X305623Y-8490D01*
X305250Y-8600D01*
X304830Y-8637D01*
X304410Y-8600D01*
X304037Y-8490D01*
X303757Y-8343D01*
X303523Y-8123D01*
X303430Y-7830D01*
G01X311580Y-1737D02*
X308780D01*
Y-2617D01*
X308920Y-2910D01*
X309247Y-3130D01*
X309620Y-3203D01*
X309993Y-3130D01*
X310273Y-2947D01*
X310413Y-2617D01*
Y-1737D01*
G01X311580Y-4363D02*
X308780D01*
Y-5097D01*
X308920Y-5390D01*
X309107Y-5610D01*
X309387Y-5793D01*
X309713Y-5940D01*
X310180Y-5977D01*
X310647Y-5940D01*
X310973Y-5793D01*
X311253Y-5610D01*
X311440Y-5390D01*
X311580Y-5097D01*
Y-4363D01*
G01Y-7870D02*
X308780D01*
X309340Y-7430D01*
G01X311580D02*
Y-8310D01*
G01X290680Y26493D02*
X287880D01*
Y25613D01*
X288020Y25320D01*
X288347Y25100D01*
X288720Y25027D01*
X289093Y25100D01*
X289373Y25283D01*
X289513Y25613D01*
Y26493D01*
G01X289280Y22840D02*
Y22107D01*
X290120D01*
X290400Y22327D01*
X290587Y22583D01*
X290680Y22950D01*
X290587Y23317D01*
X290400Y23573D01*
X290120Y23793D01*
X289793Y23940D01*
X289420Y24013D01*
X289093D01*
X288813Y23940D01*
X288487Y23793D01*
X288207Y23573D01*
X288020Y23353D01*
X287880Y23060D01*
Y22803D01*
X287973Y22510D01*
X288160Y22290D01*
G01X290680Y20360D02*
X287880D01*
X288440Y20800D01*
G01X290680D02*
Y19920D01*
G01X288347Y18357D02*
X288067Y18137D01*
X287927Y17880D01*
X287880Y17587D01*
X287973Y17220D01*
X288207Y16963D01*
X288487Y16890D01*
X288767Y16927D01*
X289000Y17073D01*
X289467Y17807D01*
X289793Y18137D01*
X290260Y18357D01*
X290680Y18430D01*
Y16890D01*
G01X295800Y24163D02*
X293000D01*
Y23283D01*
X293140Y22990D01*
X293467Y22770D01*
X293840Y22697D01*
X294213Y22770D01*
X294493Y22953D01*
X294633Y23283D01*
Y24163D01*
G01X293000Y21170D02*
Y20290D01*
G01Y20730D02*
X295800D01*
G01Y21170D02*
Y20290D01*
G01Y18030D02*
X295753Y17773D01*
X295613Y17480D01*
X295380Y17297D01*
X295053Y17223D01*
X294727Y17297D01*
X294447Y17517D01*
X294307Y17847D01*
Y18213D01*
X294213Y18433D01*
X293980Y18617D01*
X293653Y18690D01*
X293327Y18580D01*
X293093Y18323D01*
X293000Y18030D01*
X293093Y17737D01*
X293327Y17480D01*
X293653Y17370D01*
X293980Y17443D01*
X294213Y17627D01*
X294307Y17847D01*
Y18213D01*
X294447Y18543D01*
X294727Y18763D01*
X295053Y18837D01*
X295380Y18763D01*
X295613Y18580D01*
X295753Y18287D01*
X295800Y18030D01*
G01X301020Y26413D02*
X298220D01*
Y25533D01*
X298360Y25240D01*
X298687Y25020D01*
X299060Y24947D01*
X299433Y25020D01*
X299713Y25203D01*
X299853Y25533D01*
Y26413D01*
G01X298220Y23420D02*
Y22540D01*
G01Y22980D02*
X301020D01*
G01Y23420D02*
Y22540D01*
G01Y20280D02*
X298220D01*
X298780Y20720D01*
G01X301020D02*
Y19840D01*
G01Y17580D02*
X298220D01*
X298780Y18020D01*
G01X301020D02*
Y17140D01*
G01X306050Y26373D02*
X303250D01*
Y25493D01*
X303390Y25200D01*
X303717Y24980D01*
X304090Y24907D01*
X304463Y24980D01*
X304743Y25163D01*
X304883Y25493D01*
Y26373D01*
G01X303250Y23380D02*
Y22500D01*
G01Y22940D02*
X306050D01*
G01Y23380D02*
Y22500D01*
G01Y20240D02*
X303250D01*
X303810Y20680D01*
G01X306050D02*
Y19800D01*
G01X303717Y18237D02*
X303437Y18017D01*
X303297Y17760D01*
X303250Y17467D01*
X303343Y17100D01*
X303577Y16843D01*
X303857Y16770D01*
X304137Y16807D01*
X304370Y16953D01*
X304837Y17687D01*
X305163Y18017D01*
X305630Y18237D01*
X306050Y18310D01*
Y16770D01*
G01X316070Y26383D02*
X313270D01*
Y25503D01*
X313410Y25210D01*
X313737Y24990D01*
X314110Y24917D01*
X314483Y24990D01*
X314763Y25173D01*
X314903Y25503D01*
Y26383D01*
G01X313270Y23390D02*
Y22510D01*
G01Y22950D02*
X316070D01*
G01Y23390D02*
Y22510D01*
G01Y20250D02*
X313270D01*
X313830Y20690D01*
G01X316070D02*
Y19810D01*
G01Y17110D02*
X313270D01*
X315277Y18467D01*
Y16633D01*
G01X310650Y26223D02*
X307850D01*
Y25343D01*
X307990Y25050D01*
X308317Y24830D01*
X308690Y24757D01*
X309063Y24830D01*
X309343Y25013D01*
X309483Y25343D01*
Y26223D01*
G01X307850Y23230D02*
Y22350D01*
G01Y22790D02*
X310650D01*
G01Y23230D02*
Y22350D01*
G01Y20090D02*
X307850D01*
X308410Y20530D01*
G01X310650D02*
Y19650D01*
G01X310090Y18197D02*
X310417Y17977D01*
X310603Y17683D01*
X310650Y17353D01*
X310603Y17060D01*
X310370Y16767D01*
X310090Y16583D01*
X309810Y16547D01*
X309483Y16620D01*
X309250Y16877D01*
X309157Y17133D01*
Y17463D01*
G01Y17133D02*
X309017Y16913D01*
X308783Y16730D01*
X308503Y16657D01*
X308223Y16730D01*
X307990Y16913D01*
X307850Y17243D01*
X307897Y17573D01*
X308083Y17903D01*
G01X294893Y101960D02*
X294820Y102567D01*
X294710Y103080D01*
X294563Y103547D01*
X294380Y104060D01*
X294087Y104760D01*
X295553D01*
G01X292120D02*
X292413Y104667D01*
X292633Y104433D01*
X292780Y104153D01*
X292890Y103780D01*
X292927Y103360D01*
X292890Y102940D01*
X292780Y102567D01*
X292633Y102287D01*
X292413Y102053D01*
X292120Y101960D01*
X291827Y102053D01*
X291607Y102287D01*
X291460Y102567D01*
X291350Y102940D01*
X291313Y103360D01*
X291350Y103780D01*
X291460Y104153D01*
X291607Y104433D01*
X291827Y104667D01*
X292120Y104760D01*
G01X289420D02*
X289713Y104667D01*
X289933Y104433D01*
X290080Y104153D01*
X290190Y103780D01*
X290227Y103360D01*
X290190Y102940D01*
X290080Y102567D01*
X289933Y102287D01*
X289713Y102053D01*
X289420Y101960D01*
X289127Y102053D01*
X288907Y102287D01*
X288760Y102567D01*
X288650Y102940D01*
X288613Y103360D01*
X288650Y103780D01*
X288760Y104153D01*
X288907Y104433D01*
X289127Y104667D01*
X289420Y104760D01*
G01X295270Y92083D02*
X294977Y91850D01*
X294647Y91710D01*
X294353D01*
X294060Y91850D01*
X293840Y92083D01*
X293730Y92410D01*
X293803Y92737D01*
X293987Y93017D01*
X294317Y93203D01*
X294757Y93297D01*
X295013Y93483D01*
X295123Y93810D01*
X295050Y94137D01*
X294867Y94370D01*
X294610Y94510D01*
X294353D01*
X294097Y94417D01*
X293877Y94183D01*
G01X290993Y94277D02*
X291213Y94417D01*
X291470Y94510D01*
X291763D01*
X292093Y94370D01*
X292350Y94137D01*
X292533Y93857D01*
X292680Y93390D01*
X292717Y92970D01*
X292643Y92550D01*
X292533Y92270D01*
X292313Y91990D01*
X292057Y91803D01*
X291800Y91710D01*
X291543D01*
X291287Y91803D01*
X291067Y91943D01*
X290883Y92130D01*
G01X289870Y91710D02*
Y94510D01*
G01X288330D02*
Y91710D01*
G01Y93110D02*
X289870D01*
G01X315900Y125003D02*
X313100D01*
Y124123D01*
X313240Y123830D01*
X313567Y123610D01*
X313940Y123537D01*
X314313Y123610D01*
X314593Y123793D01*
X314733Y124123D01*
Y125003D01*
G01X314407Y121277D02*
X314267Y121130D01*
X314033Y121020D01*
X313707Y120947D01*
X313427Y121020D01*
X313240Y121167D01*
X313100Y121423D01*
Y122413D01*
X315900D01*
Y121203D01*
X315713Y120947D01*
X315433Y120800D01*
X315107Y120727D01*
X314780Y120800D01*
X314500Y121020D01*
X314407Y121277D01*
Y122413D01*
G01X315900Y118870D02*
X313100D01*
X313660Y119310D01*
G01X315900D02*
Y118430D01*
G01X315340Y116977D02*
X315667Y116757D01*
X315853Y116463D01*
X315900Y116133D01*
X315853Y115840D01*
X315620Y115547D01*
X315340Y115363D01*
X315060Y115327D01*
X314733Y115400D01*
X314500Y115657D01*
X314407Y115913D01*
Y116243D01*
G01Y115913D02*
X314267Y115693D01*
X314033Y115510D01*
X313753Y115437D01*
X313473Y115510D01*
X313240Y115693D01*
X313100Y116023D01*
X313147Y116353D01*
X313333Y116683D01*
G01X309550Y124913D02*
X306750D01*
Y124033D01*
X306890Y123740D01*
X307217Y123520D01*
X307590Y123447D01*
X307963Y123520D01*
X308243Y123703D01*
X308383Y124033D01*
Y124913D01*
G01X308057Y121187D02*
X307917Y121040D01*
X307683Y120930D01*
X307357Y120857D01*
X307077Y120930D01*
X306890Y121077D01*
X306750Y121333D01*
Y122323D01*
X309550D01*
Y121113D01*
X309363Y120857D01*
X309083Y120710D01*
X308757Y120637D01*
X308430Y120710D01*
X308150Y120930D01*
X308057Y121187D01*
Y122323D01*
G01X309550Y118780D02*
X306750D01*
X307310Y119220D01*
G01X309550D02*
Y118340D01*
G01Y115640D02*
X306750D01*
X308757Y116997D01*
Y115163D01*
G01X304700Y125033D02*
X301900D01*
Y124153D01*
X302040Y123860D01*
X302367Y123640D01*
X302740Y123567D01*
X303113Y123640D01*
X303393Y123823D01*
X303533Y124153D01*
Y125033D01*
G01X303207Y121307D02*
X303067Y121160D01*
X302833Y121050D01*
X302507Y120977D01*
X302227Y121050D01*
X302040Y121197D01*
X301900Y121453D01*
Y122443D01*
X304700D01*
Y121233D01*
X304513Y120977D01*
X304233Y120830D01*
X303907Y120757D01*
X303580Y120830D01*
X303300Y121050D01*
X303207Y121307D01*
Y122443D01*
G01X304700Y118900D02*
X301900D01*
X302460Y119340D01*
G01X304700D02*
Y118460D01*
G01X304280Y117007D02*
X304513Y116787D01*
X304653Y116530D01*
X304700Y116200D01*
X304607Y115870D01*
X304420Y115613D01*
X304093Y115430D01*
X303720Y115393D01*
X303347Y115467D01*
X303113Y115650D01*
X302927Y115907D01*
X302880Y116163D01*
X302927Y116420D01*
X303113Y116750D01*
X301900Y116640D01*
Y115650D01*
G01X303440Y152923D02*
X300640D01*
Y152043D01*
X300780Y151750D01*
X301107Y151530D01*
X301480Y151457D01*
X301853Y151530D01*
X302133Y151713D01*
X302273Y152043D01*
Y152923D01*
G01X303440Y148757D02*
Y150223D01*
X300640D01*
Y148757D01*
G01X301993Y149343D02*
Y150223D01*
G01X303440Y146790D02*
X300640D01*
X301200Y147230D01*
G01X303440D02*
Y146350D01*
G01X302880Y144897D02*
X303207Y144677D01*
X303393Y144383D01*
X303440Y144053D01*
X303393Y143760D01*
X303160Y143467D01*
X302880Y143283D01*
X302600Y143247D01*
X302273Y143320D01*
X302040Y143577D01*
X301947Y143833D01*
Y144163D01*
G01Y143833D02*
X301807Y143613D01*
X301573Y143430D01*
X301293Y143357D01*
X301013Y143430D01*
X300780Y143613D01*
X300640Y143943D01*
X300687Y144273D01*
X300873Y144603D01*
G01X312070Y152613D02*
X309270D01*
Y151733D01*
X309410Y151440D01*
X309737Y151220D01*
X310110Y151147D01*
X310483Y151220D01*
X310763Y151403D01*
X310903Y151733D01*
Y152613D01*
G01X312070Y148447D02*
Y149913D01*
X309270D01*
Y148447D01*
G01X310623Y149033D02*
Y149913D01*
G01X312070Y146480D02*
X309270D01*
X309830Y146920D01*
G01X312070D02*
Y146040D01*
G01X309737Y144477D02*
X309457Y144257D01*
X309317Y144000D01*
X309270Y143707D01*
X309363Y143340D01*
X309597Y143083D01*
X309877Y143010D01*
X310157Y143047D01*
X310390Y143193D01*
X310857Y143927D01*
X311183Y144257D01*
X311650Y144477D01*
X312070Y144550D01*
Y143010D01*
G01X294780Y154869D02*
Y152069D01*
G01X295623Y154869D02*
X293937D01*
G01X292813Y152069D02*
Y154869D01*
X291933D01*
X291640Y154729D01*
X291420Y154402D01*
X291347Y154029D01*
X291420Y153656D01*
X291603Y153376D01*
X291933Y153236D01*
X292813D01*
G01X290150Y152069D02*
Y154869D01*
G01X288610D02*
Y152069D01*
G01Y153469D02*
X290150D01*
G01X286680Y152069D02*
Y154869D01*
X287120Y154309D01*
G01Y152069D02*
X286240D01*
G01X336000Y-32550D02*
Y-29750D01*
X336440Y-30310D01*
G01Y-32550D02*
X335560D01*
G01X333997Y-31383D02*
X333740Y-31057D01*
X333520Y-30870D01*
X333227Y-30777D01*
X332970Y-30870D01*
X332787Y-31057D01*
X332640Y-31337D01*
X332603Y-31663D01*
X332640Y-31943D01*
X332787Y-32223D01*
X333007Y-32457D01*
X333263Y-32550D01*
X333557Y-32457D01*
X333813Y-32177D01*
X333960Y-31757D01*
X333997Y-31290D01*
X333923Y-30683D01*
X333813Y-30357D01*
X333630Y-30030D01*
X333373Y-29797D01*
X333117Y-29750D01*
X332860Y-29843D01*
X332677Y-30077D01*
G01X337320Y-10620D02*
Y-7820D01*
X337760Y-8380D01*
G01Y-10620D02*
X336880D01*
G01X335427Y-10200D02*
X335207Y-10433D01*
X334950Y-10573D01*
X334620Y-10620D01*
X334290Y-10527D01*
X334033Y-10340D01*
X333850Y-10013D01*
X333813Y-9640D01*
X333887Y-9267D01*
X334070Y-9033D01*
X334327Y-8847D01*
X334583Y-8800D01*
X334840Y-8847D01*
X335170Y-9033D01*
X335060Y-7820D01*
X334070D01*
G01X316670Y-1677D02*
X313870D01*
Y-2557D01*
X314010Y-2850D01*
X314337Y-3070D01*
X314710Y-3143D01*
X315083Y-3070D01*
X315363Y-2887D01*
X315503Y-2557D01*
Y-1677D01*
G01X316670Y-4303D02*
X313870D01*
Y-5037D01*
X314010Y-5330D01*
X314197Y-5550D01*
X314477Y-5733D01*
X314803Y-5880D01*
X315270Y-5917D01*
X315737Y-5880D01*
X316063Y-5733D01*
X316343Y-5550D01*
X316530Y-5330D01*
X316670Y-5037D01*
Y-4303D01*
G01X314337Y-7113D02*
X314057Y-7333D01*
X313917Y-7590D01*
X313870Y-7883D01*
X313963Y-8250D01*
X314197Y-8507D01*
X314477Y-8580D01*
X314757Y-8543D01*
X314990Y-8397D01*
X315457Y-7663D01*
X315783Y-7333D01*
X316250Y-7113D01*
X316670Y-7040D01*
Y-8580D01*
G01X321990Y-1617D02*
X319190D01*
Y-2497D01*
X319330Y-2790D01*
X319657Y-3010D01*
X320030Y-3083D01*
X320403Y-3010D01*
X320683Y-2827D01*
X320823Y-2497D01*
Y-1617D01*
G01X321990Y-4243D02*
X319190D01*
Y-4977D01*
X319330Y-5270D01*
X319517Y-5490D01*
X319797Y-5673D01*
X320123Y-5820D01*
X320590Y-5857D01*
X321057Y-5820D01*
X321383Y-5673D01*
X321663Y-5490D01*
X321850Y-5270D01*
X321990Y-4977D01*
Y-4243D01*
G01X321430Y-6943D02*
X321757Y-7163D01*
X321943Y-7457D01*
X321990Y-7787D01*
X321943Y-8080D01*
X321710Y-8373D01*
X321430Y-8557D01*
X321150Y-8593D01*
X320823Y-8520D01*
X320590Y-8263D01*
X320497Y-8007D01*
Y-7677D01*
G01Y-8007D02*
X320357Y-8227D01*
X320123Y-8410D01*
X319843Y-8483D01*
X319563Y-8410D01*
X319330Y-8227D01*
X319190Y-7897D01*
X319237Y-7567D01*
X319423Y-7237D01*
G01X321800Y26263D02*
X319000D01*
Y25383D01*
X319140Y25090D01*
X319467Y24870D01*
X319840Y24797D01*
X320213Y24870D01*
X320493Y25053D01*
X320633Y25383D01*
Y26263D01*
G01X319000Y23270D02*
Y22390D01*
G01Y22830D02*
X321800D01*
G01Y23270D02*
Y22390D01*
G01Y20130D02*
X319000D01*
X319560Y20570D01*
G01X321800D02*
Y19690D01*
G01X321380Y18237D02*
X321613Y18017D01*
X321753Y17760D01*
X321800Y17430D01*
X321707Y17100D01*
X321520Y16843D01*
X321193Y16660D01*
X320820Y16623D01*
X320447Y16697D01*
X320213Y16880D01*
X320027Y17137D01*
X319980Y17393D01*
X320027Y17650D01*
X320213Y17980D01*
X319000Y17870D01*
Y16880D01*
G01X320750Y125083D02*
X317950D01*
Y124203D01*
X318090Y123910D01*
X318417Y123690D01*
X318790Y123617D01*
X319163Y123690D01*
X319443Y123873D01*
X319583Y124203D01*
Y125083D01*
G01X319257Y121357D02*
X319117Y121210D01*
X318883Y121100D01*
X318557Y121027D01*
X318277Y121100D01*
X318090Y121247D01*
X317950Y121503D01*
Y122493D01*
X320750D01*
Y121283D01*
X320563Y121027D01*
X320283Y120880D01*
X319957Y120807D01*
X319630Y120880D01*
X319350Y121100D01*
X319257Y121357D01*
Y122493D01*
G01X320750Y118950D02*
X317950D01*
X318510Y119390D01*
G01X320750D02*
Y118510D01*
G01X318417Y116947D02*
X318137Y116727D01*
X317997Y116470D01*
X317950Y116177D01*
X318043Y115810D01*
X318277Y115553D01*
X318557Y115480D01*
X318837Y115517D01*
X319070Y115663D01*
X319537Y116397D01*
X319863Y116727D01*
X320330Y116947D01*
X320750Y117020D01*
Y115480D01*
G01X325560Y125083D02*
X322760D01*
Y124203D01*
X322900Y123910D01*
X323227Y123690D01*
X323600Y123617D01*
X323973Y123690D01*
X324253Y123873D01*
X324393Y124203D01*
Y125083D01*
G01X324067Y121357D02*
X323927Y121210D01*
X323693Y121100D01*
X323367Y121027D01*
X323087Y121100D01*
X322900Y121247D01*
X322760Y121503D01*
Y122493D01*
X325560D01*
Y121283D01*
X325373Y121027D01*
X325093Y120880D01*
X324767Y120807D01*
X324440Y120880D01*
X324160Y121100D01*
X324067Y121357D01*
Y122493D01*
G01X325560Y118950D02*
X322760D01*
X323320Y119390D01*
G01X325560D02*
Y118510D01*
G01Y116250D02*
X322760D01*
X323320Y116690D01*
G01X325560D02*
Y115810D01*
G01X330500Y125083D02*
X327700D01*
Y124203D01*
X327840Y123910D01*
X328167Y123690D01*
X328540Y123617D01*
X328913Y123690D01*
X329193Y123873D01*
X329333Y124203D01*
Y125083D01*
G01X329007Y121357D02*
X328867Y121210D01*
X328633Y121100D01*
X328307Y121027D01*
X328027Y121100D01*
X327840Y121247D01*
X327700Y121503D01*
Y122493D01*
X330500D01*
Y121283D01*
X330313Y121027D01*
X330033Y120880D01*
X329707Y120807D01*
X329380Y120880D01*
X329100Y121100D01*
X329007Y121357D01*
Y122493D01*
G01X330500Y118950D02*
X327700D01*
X328260Y119390D01*
G01X330500D02*
Y118510D01*
G01X327700Y116250D02*
X327793Y116543D01*
X328027Y116763D01*
X328307Y116910D01*
X328680Y117020D01*
X329100Y117057D01*
X329520Y117020D01*
X329893Y116910D01*
X330173Y116763D01*
X330407Y116543D01*
X330500Y116250D01*
X330407Y115957D01*
X330173Y115737D01*
X329893Y115590D01*
X329520Y115480D01*
X329100Y115443D01*
X328680Y115480D01*
X328307Y115590D01*
X328027Y115737D01*
X327793Y115957D01*
X327700Y116250D01*
G01X316320Y152453D02*
X313520D01*
Y151573D01*
X313660Y151280D01*
X313987Y151060D01*
X314360Y150987D01*
X314733Y151060D01*
X315013Y151243D01*
X315153Y151573D01*
Y152453D01*
G01X316320Y148287D02*
Y149753D01*
X313520D01*
Y148287D01*
G01X314873Y148873D02*
Y149753D01*
G01X316320Y146320D02*
X313520D01*
X314080Y146760D01*
G01X316320D02*
Y145880D01*
G01Y143620D02*
X313520D01*
X314080Y144060D01*
G01X316320D02*
Y143180D01*
G01X320620Y152483D02*
X317820D01*
Y151603D01*
X317960Y151310D01*
X318287Y151090D01*
X318660Y151017D01*
X319033Y151090D01*
X319313Y151273D01*
X319453Y151603D01*
Y152483D01*
G01X320620Y148317D02*
Y149783D01*
X317820D01*
Y148317D01*
G01X319173Y148903D02*
Y149783D01*
G01X320620Y146350D02*
X317820D01*
X318380Y146790D01*
G01X320620D02*
Y145910D01*
G01X317820Y143650D02*
X317913Y143943D01*
X318147Y144163D01*
X318427Y144310D01*
X318800Y144420D01*
X319220Y144457D01*
X319640Y144420D01*
X320013Y144310D01*
X320293Y144163D01*
X320527Y143943D01*
X320620Y143650D01*
X320527Y143357D01*
X320293Y143137D01*
X320013Y142990D01*
X319640Y142880D01*
X319220Y142843D01*
X318800Y142880D01*
X318427Y142990D01*
X318147Y143137D01*
X317913Y143357D01*
X317820Y143650D01*
G01X325630Y149633D02*
X322830D01*
Y148753D01*
X322970Y148460D01*
X323297Y148240D01*
X323670Y148167D01*
X324043Y148240D01*
X324323Y148423D01*
X324463Y148753D01*
Y149633D01*
G01X325630Y145467D02*
Y146933D01*
X322830D01*
Y145467D01*
G01X324183Y146053D02*
Y146933D01*
G01X325303Y144123D02*
X325537Y143867D01*
X325630Y143573D01*
X325537Y143280D01*
X325257Y143023D01*
X324837Y142840D01*
X324417Y142767D01*
X323903D01*
X323483Y142840D01*
X323110Y143023D01*
X322923Y143243D01*
X322830Y143500D01*
X322923Y143793D01*
X323110Y144013D01*
X323390Y144160D01*
X323763Y144233D01*
X324090Y144160D01*
X324417Y143977D01*
X324603Y143757D01*
X324650Y143500D01*
X324557Y143207D01*
X324323Y142987D01*
X323903Y142767D01*
G01X340930Y149803D02*
X338130D01*
Y148923D01*
X338270Y148630D01*
X338597Y148410D01*
X338970Y148337D01*
X339343Y148410D01*
X339623Y148593D01*
X339763Y148923D01*
Y149803D01*
G01X340930Y145637D02*
Y147103D01*
X338130D01*
Y145637D01*
G01X339483Y146223D02*
Y147103D01*
G01X339763Y144367D02*
X339437Y144110D01*
X339250Y143890D01*
X339157Y143597D01*
X339250Y143340D01*
X339437Y143157D01*
X339717Y143010D01*
X340043Y142973D01*
X340323Y143010D01*
X340603Y143157D01*
X340837Y143377D01*
X340930Y143633D01*
X340837Y143927D01*
X340557Y144183D01*
X340137Y144330D01*
X339670Y144367D01*
X339063Y144293D01*
X338737Y144183D01*
X338410Y144000D01*
X338177Y143743D01*
X338130Y143487D01*
X338223Y143230D01*
X338457Y143047D01*
G01X335610Y149743D02*
X332810D01*
Y148863D01*
X332950Y148570D01*
X333277Y148350D01*
X333650Y148277D01*
X334023Y148350D01*
X334303Y148533D01*
X334443Y148863D01*
Y149743D01*
G01X335610Y145577D02*
Y147043D01*
X332810D01*
Y145577D01*
G01X334163Y146163D02*
Y147043D01*
G01X335610Y143683D02*
X335003Y143610D01*
X334490Y143500D01*
X334023Y143353D01*
X333510Y143170D01*
X332810Y142877D01*
Y144343D01*
G01X330520Y149683D02*
X327720D01*
Y148803D01*
X327860Y148510D01*
X328187Y148290D01*
X328560Y148217D01*
X328933Y148290D01*
X329213Y148473D01*
X329353Y148803D01*
Y149683D01*
G01X330520Y145517D02*
Y146983D01*
X327720D01*
Y145517D01*
G01X329073Y146103D02*
Y146983D01*
G01X330520Y143550D02*
X330473Y143293D01*
X330333Y143000D01*
X330100Y142817D01*
X329773Y142743D01*
X329447Y142817D01*
X329167Y143037D01*
X329027Y143367D01*
Y143733D01*
X328933Y143953D01*
X328700Y144137D01*
X328373Y144210D01*
X328047Y144100D01*
X327813Y143843D01*
X327720Y143550D01*
X327813Y143257D01*
X328047Y143000D01*
X328373Y142890D01*
X328700Y142963D01*
X328933Y143147D01*
X329027Y143367D01*
Y143733D01*
X329167Y144063D01*
X329447Y144283D01*
X329773Y144357D01*
X330100Y144283D01*
X330333Y144100D01*
X330473Y143807D01*
X330520Y143550D01*
G01X335590Y125143D02*
X332790D01*
Y124263D01*
X332930Y123970D01*
X333257Y123750D01*
X333630Y123677D01*
X334003Y123750D01*
X334283Y123933D01*
X334423Y124263D01*
Y125143D01*
G01X335590Y122627D02*
X332790Y121710D01*
X335590Y120793D01*
G01X334610Y121123D02*
Y122297D01*
G01X335170Y119817D02*
X335403Y119597D01*
X335543Y119340D01*
X335590Y119010D01*
X335497Y118680D01*
X335310Y118423D01*
X334983Y118240D01*
X334610Y118203D01*
X334237Y118277D01*
X334003Y118460D01*
X333817Y118717D01*
X333770Y118973D01*
X333817Y119230D01*
X334003Y119560D01*
X332790Y119450D01*
Y118460D01*
G01X340910Y125203D02*
X338110D01*
Y124323D01*
X338250Y124030D01*
X338577Y123810D01*
X338950Y123737D01*
X339323Y123810D01*
X339603Y123993D01*
X339743Y124323D01*
Y125203D01*
G01X340910Y122687D02*
X338110Y121770D01*
X340910Y120853D01*
G01X339930Y121183D02*
Y122357D01*
G01X339743Y119767D02*
X339417Y119510D01*
X339230Y119290D01*
X339137Y118997D01*
X339230Y118740D01*
X339417Y118557D01*
X339697Y118410D01*
X340023Y118373D01*
X340303Y118410D01*
X340583Y118557D01*
X340817Y118777D01*
X340910Y119033D01*
X340817Y119327D01*
X340537Y119583D01*
X340117Y119730D01*
X339650Y119767D01*
X339043Y119693D01*
X338717Y119583D01*
X338390Y119400D01*
X338157Y119143D01*
X338110Y118887D01*
X338203Y118630D01*
X338437Y118447D01*
G01X315340Y166510D02*
Y169310D01*
X315780Y168750D01*
G01Y166510D02*
X314900D01*
G01X335880Y165380D02*
Y168180D01*
X336320Y167620D01*
G01Y165380D02*
X335440D01*
G01X333803Y165707D02*
X333547Y165473D01*
X333253Y165380D01*
X332960Y165473D01*
X332703Y165753D01*
X332520Y166173D01*
X332447Y166593D01*
Y167107D01*
X332520Y167527D01*
X332703Y167900D01*
X332923Y168087D01*
X333180Y168180D01*
X333473Y168087D01*
X333693Y167900D01*
X333840Y167620D01*
X333913Y167247D01*
X333840Y166920D01*
X333657Y166593D01*
X333437Y166407D01*
X333180Y166360D01*
X332887Y166453D01*
X332667Y166687D01*
X332447Y167107D01*
G01X315657Y192273D02*
X315437Y192553D01*
X315180Y192693D01*
X314887Y192740D01*
X314520Y192647D01*
X314263Y192413D01*
X314190Y192133D01*
X314227Y191853D01*
X314373Y191620D01*
X315107Y191153D01*
X315437Y190827D01*
X315657Y190360D01*
X315730Y189940D01*
X314190D01*
G01X337317Y191593D02*
X337097Y191873D01*
X336840Y192013D01*
X336547Y192060D01*
X336180Y191967D01*
X335923Y191733D01*
X335850Y191453D01*
X335887Y191173D01*
X336033Y190940D01*
X336767Y190473D01*
X337097Y190147D01*
X337317Y189680D01*
X337390Y189260D01*
X335850D01*
G01X333920Y192060D02*
X334213Y191967D01*
X334433Y191733D01*
X334580Y191453D01*
X334690Y191080D01*
X334727Y190660D01*
X334690Y190240D01*
X334580Y189867D01*
X334433Y189587D01*
X334213Y189353D01*
X333920Y189260D01*
X333627Y189353D01*
X333407Y189587D01*
X333260Y189867D01*
X333150Y190240D01*
X333113Y190660D01*
X333150Y191080D01*
X333260Y191453D01*
X333407Y191733D01*
X333627Y191967D01*
X333920Y192060D01*
G01X355587Y-31297D02*
X355367Y-31017D01*
X355110Y-30877D01*
X354817Y-30830D01*
X354450Y-30923D01*
X354193Y-31157D01*
X354120Y-31437D01*
X354157Y-31717D01*
X354303Y-31950D01*
X355037Y-32417D01*
X355367Y-32743D01*
X355587Y-33210D01*
X355660Y-33630D01*
X354120D01*
G01X354890Y-10010D02*
Y-7210D01*
X355330Y-7770D01*
G01Y-10010D02*
X354450D01*
G01X357520Y78133D02*
X357227Y77900D01*
X356897Y77760D01*
X356603D01*
X356310Y77900D01*
X356090Y78133D01*
X355980Y78460D01*
X356053Y78787D01*
X356237Y79067D01*
X356567Y79253D01*
X357007Y79347D01*
X357263Y79533D01*
X357373Y79860D01*
X357300Y80187D01*
X357117Y80420D01*
X356860Y80560D01*
X356603D01*
X356347Y80467D01*
X356127Y80233D01*
G01X354710Y77667D02*
X353390Y80560D01*
G01X352193Y77760D02*
Y80560D01*
X350507Y77760D01*
Y80560D01*
G01X358510Y125313D02*
X355710D01*
Y124433D01*
X355850Y124140D01*
X356177Y123920D01*
X356550Y123847D01*
X356923Y123920D01*
X357203Y124103D01*
X357343Y124433D01*
Y125313D01*
G01X358510Y122577D02*
X355710D01*
Y121183D01*
G01X357063Y121697D02*
Y122577D01*
G01X358510Y119180D02*
X355710D01*
X356270Y119620D01*
G01X358510D02*
Y118740D01*
G01X357950Y117287D02*
X358277Y117067D01*
X358463Y116773D01*
X358510Y116443D01*
X358463Y116150D01*
X358230Y115857D01*
X357950Y115673D01*
X357670Y115637D01*
X357343Y115710D01*
X357110Y115967D01*
X357017Y116223D01*
Y116553D01*
G01Y116223D02*
X356877Y116003D01*
X356643Y115820D01*
X356363Y115747D01*
X356083Y115820D01*
X355850Y116003D01*
X355710Y116333D01*
X355757Y116663D01*
X355943Y116993D01*
G01X353650Y125303D02*
X350850D01*
Y124423D01*
X350990Y124130D01*
X351317Y123910D01*
X351690Y123837D01*
X352063Y123910D01*
X352343Y124093D01*
X352483Y124423D01*
Y125303D01*
G01X353650Y122567D02*
X350850D01*
Y121173D01*
G01X352203Y121687D02*
Y122567D01*
G01X353650Y119170D02*
X350850D01*
X351410Y119610D01*
G01X353650D02*
Y118730D01*
G01X351317Y117167D02*
X351037Y116947D01*
X350897Y116690D01*
X350850Y116397D01*
X350943Y116030D01*
X351177Y115773D01*
X351457Y115700D01*
X351737Y115737D01*
X351970Y115883D01*
X352437Y116617D01*
X352763Y116947D01*
X353230Y117167D01*
X353650Y117240D01*
Y115700D01*
G01X370350Y150243D02*
X367550D01*
Y149363D01*
X367690Y149070D01*
X368017Y148850D01*
X368390Y148777D01*
X368763Y148850D01*
X369043Y149033D01*
X369183Y149363D01*
Y150243D01*
G01X370350Y146077D02*
Y147543D01*
X367550D01*
Y146077D01*
G01X368903Y146663D02*
Y147543D01*
G01X370350Y144110D02*
X367550D01*
X368110Y144550D01*
G01X370350D02*
Y143670D01*
G01X365440Y150183D02*
X362640D01*
Y149303D01*
X362780Y149010D01*
X363107Y148790D01*
X363480Y148717D01*
X363853Y148790D01*
X364133Y148973D01*
X364273Y149303D01*
Y150183D01*
G01X365440Y146017D02*
Y147483D01*
X362640D01*
Y146017D01*
G01X363993Y146603D02*
Y147483D01*
G01X362640Y144050D02*
X362733Y144343D01*
X362967Y144563D01*
X363247Y144710D01*
X363620Y144820D01*
X364040Y144857D01*
X364460Y144820D01*
X364833Y144710D01*
X365113Y144563D01*
X365347Y144343D01*
X365440Y144050D01*
X365347Y143757D01*
X365113Y143537D01*
X364833Y143390D01*
X364460Y143280D01*
X364040Y143243D01*
X363620Y143280D01*
X363247Y143390D01*
X362967Y143537D01*
X362733Y143757D01*
X362640Y144050D01*
G01X360350Y150183D02*
X357550D01*
Y149303D01*
X357690Y149010D01*
X358017Y148790D01*
X358390Y148717D01*
X358763Y148790D01*
X359043Y148973D01*
X359183Y149303D01*
Y150183D01*
G01X360350Y146017D02*
Y147483D01*
X357550D01*
Y146017D01*
G01X358903Y146603D02*
Y147483D01*
G01X360350Y143610D02*
X357550D01*
X359557Y144967D01*
Y143133D01*
G01X354970Y150183D02*
X352170D01*
Y149303D01*
X352310Y149010D01*
X352637Y148790D01*
X353010Y148717D01*
X353383Y148790D01*
X353663Y148973D01*
X353803Y149303D01*
Y150183D01*
G01X354970Y146017D02*
Y147483D01*
X352170D01*
Y146017D01*
G01X353523Y146603D02*
Y147483D01*
G01X354550Y144857D02*
X354783Y144637D01*
X354923Y144380D01*
X354970Y144050D01*
X354877Y143720D01*
X354690Y143463D01*
X354363Y143280D01*
X353990Y143243D01*
X353617Y143317D01*
X353383Y143500D01*
X353197Y143757D01*
X353150Y144013D01*
X353197Y144270D01*
X353383Y144600D01*
X352170Y144490D01*
Y143500D01*
G01X370280Y125163D02*
X367480D01*
Y124283D01*
X367620Y123990D01*
X367947Y123770D01*
X368320Y123697D01*
X368693Y123770D01*
X368973Y123953D01*
X369113Y124283D01*
Y125163D01*
G01X367713Y120923D02*
X367573Y121143D01*
X367480Y121400D01*
Y121693D01*
X367620Y122023D01*
X367853Y122280D01*
X368133Y122463D01*
X368600Y122610D01*
X369020Y122647D01*
X369440Y122573D01*
X369720Y122463D01*
X370000Y122243D01*
X370187Y121987D01*
X370280Y121730D01*
Y121473D01*
X370187Y121217D01*
X370047Y120997D01*
X369860Y120813D01*
G01X370280Y119103D02*
X369673Y119030D01*
X369160Y118920D01*
X368693Y118773D01*
X368180Y118590D01*
X367480Y118297D01*
Y119763D01*
G01X365560Y125083D02*
X362760D01*
Y124203D01*
X362900Y123910D01*
X363227Y123690D01*
X363600Y123617D01*
X363973Y123690D01*
X364253Y123873D01*
X364393Y124203D01*
Y125083D01*
G01X362993Y120843D02*
X362853Y121063D01*
X362760Y121320D01*
Y121613D01*
X362900Y121943D01*
X363133Y122200D01*
X363413Y122383D01*
X363880Y122530D01*
X364300Y122567D01*
X364720Y122493D01*
X365000Y122383D01*
X365280Y122163D01*
X365467Y121907D01*
X365560Y121650D01*
Y121393D01*
X365467Y121137D01*
X365327Y120917D01*
X365140Y120733D01*
G01X364393Y119647D02*
X364067Y119390D01*
X363880Y119170D01*
X363787Y118877D01*
X363880Y118620D01*
X364067Y118437D01*
X364347Y118290D01*
X364673Y118253D01*
X364953Y118290D01*
X365233Y118437D01*
X365467Y118657D01*
X365560Y118913D01*
X365467Y119207D01*
X365187Y119463D01*
X364767Y119610D01*
X364300Y119647D01*
X363693Y119573D01*
X363367Y119463D01*
X363040Y119280D01*
X362807Y119023D01*
X362760Y118767D01*
X362853Y118510D01*
X363087Y118327D01*
G01X374163Y166030D02*
X373980Y165750D01*
X373760Y165563D01*
X373503Y165470D01*
X373210Y165563D01*
X372990Y165750D01*
X372770Y166030D01*
X372697Y166403D01*
Y168270D01*
G01X370290Y165470D02*
Y168270D01*
X371647Y166263D01*
X369813D01*
G01X404333Y-31560D02*
X404150Y-31840D01*
X403930Y-32027D01*
X403673Y-32120D01*
X403380Y-32027D01*
X403160Y-31840D01*
X402940Y-31560D01*
X402867Y-31187D01*
Y-29320D01*
G01X400900Y-32120D02*
Y-29320D01*
X401340Y-29880D01*
G01Y-32120D02*
X400460D01*
G01X398897Y-29787D02*
X398677Y-29507D01*
X398420Y-29367D01*
X398127Y-29320D01*
X397760Y-29413D01*
X397503Y-29647D01*
X397430Y-29927D01*
X397467Y-30207D01*
X397613Y-30440D01*
X398347Y-30907D01*
X398677Y-31233D01*
X398897Y-31700D01*
X398970Y-32120D01*
X397430D01*
G01X400230Y-1257D02*
X397430D01*
Y-2137D01*
X397570Y-2430D01*
X397897Y-2650D01*
X398270Y-2723D01*
X398643Y-2650D01*
X398923Y-2467D01*
X399063Y-2137D01*
Y-1257D01*
G01X400230Y-3883D02*
X397430D01*
Y-4617D01*
X397570Y-4910D01*
X397757Y-5130D01*
X398037Y-5313D01*
X398363Y-5460D01*
X398830Y-5497D01*
X399297Y-5460D01*
X399623Y-5313D01*
X399903Y-5130D01*
X400090Y-4910D01*
X400230Y-4617D01*
Y-3883D01*
G01X399903Y-6767D02*
X400137Y-7023D01*
X400230Y-7317D01*
X400137Y-7610D01*
X399857Y-7867D01*
X399437Y-8050D01*
X399017Y-8123D01*
X398503D01*
X398083Y-8050D01*
X397710Y-7867D01*
X397523Y-7647D01*
X397430Y-7390D01*
X397523Y-7097D01*
X397710Y-6877D01*
X397990Y-6730D01*
X398363Y-6657D01*
X398690Y-6730D01*
X399017Y-6913D01*
X399203Y-7133D01*
X399250Y-7390D01*
X399157Y-7683D01*
X398923Y-7903D01*
X398503Y-8123D01*
G01X395770Y-1437D02*
X392970D01*
Y-2317D01*
X393110Y-2610D01*
X393437Y-2830D01*
X393810Y-2903D01*
X394183Y-2830D01*
X394463Y-2647D01*
X394603Y-2317D01*
Y-1437D01*
G01X395770Y-4063D02*
X392970D01*
Y-4797D01*
X393110Y-5090D01*
X393297Y-5310D01*
X393577Y-5493D01*
X393903Y-5640D01*
X394370Y-5677D01*
X394837Y-5640D01*
X395163Y-5493D01*
X395443Y-5310D01*
X395630Y-5090D01*
X395770Y-4797D01*
Y-4063D01*
G01Y-7570D02*
X392970D01*
X393530Y-7130D01*
G01X395770D02*
Y-8010D01*
G01X392970Y-10270D02*
X393063Y-9977D01*
X393297Y-9757D01*
X393577Y-9610D01*
X393950Y-9500D01*
X394370Y-9463D01*
X394790Y-9500D01*
X395163Y-9610D01*
X395443Y-9757D01*
X395677Y-9977D01*
X395770Y-10270D01*
X395677Y-10563D01*
X395443Y-10783D01*
X395163Y-10930D01*
X394790Y-11040D01*
X394370Y-11077D01*
X393950Y-11040D01*
X393577Y-10930D01*
X393297Y-10783D01*
X393063Y-10563D01*
X392970Y-10270D01*
G01X390640Y-1377D02*
X387840D01*
Y-2257D01*
X387980Y-2550D01*
X388307Y-2770D01*
X388680Y-2843D01*
X389053Y-2770D01*
X389333Y-2587D01*
X389473Y-2257D01*
Y-1377D01*
G01X390640Y-4003D02*
X387840D01*
Y-4737D01*
X387980Y-5030D01*
X388167Y-5250D01*
X388447Y-5433D01*
X388773Y-5580D01*
X389240Y-5617D01*
X389707Y-5580D01*
X390033Y-5433D01*
X390313Y-5250D01*
X390500Y-5030D01*
X390640Y-4737D01*
Y-4003D01*
G01Y-7510D02*
X387840D01*
X388400Y-7070D01*
G01X390640D02*
Y-7950D01*
G01X388307Y-9513D02*
X388027Y-9733D01*
X387887Y-9990D01*
X387840Y-10283D01*
X387933Y-10650D01*
X388167Y-10907D01*
X388447Y-10980D01*
X388727Y-10943D01*
X388960Y-10797D01*
X389427Y-10063D01*
X389753Y-9733D01*
X390220Y-9513D01*
X390640Y-9440D01*
Y-10980D01*
G01X391110Y26583D02*
X388310D01*
Y25703D01*
X388450Y25410D01*
X388777Y25190D01*
X389150Y25117D01*
X389523Y25190D01*
X389803Y25373D01*
X389943Y25703D01*
Y26583D01*
G01X391110Y23957D02*
X388310D01*
Y23223D01*
X388450Y22930D01*
X388637Y22710D01*
X388917Y22527D01*
X389243Y22380D01*
X389710Y22343D01*
X390177Y22380D01*
X390503Y22527D01*
X390783Y22710D01*
X390970Y22930D01*
X391110Y23223D01*
Y23957D01*
G01Y20450D02*
X388310D01*
X388870Y20890D01*
G01X391110D02*
Y20010D01*
G01X390690Y18557D02*
X390923Y18337D01*
X391063Y18080D01*
X391110Y17750D01*
X391017Y17420D01*
X390830Y17163D01*
X390503Y16980D01*
X390130Y16943D01*
X389757Y17017D01*
X389523Y17200D01*
X389337Y17457D01*
X389290Y17713D01*
X389337Y17970D01*
X389523Y18300D01*
X388310Y18190D01*
Y17200D01*
G01X396040Y26273D02*
X393240D01*
Y25393D01*
X393380Y25100D01*
X393707Y24880D01*
X394080Y24807D01*
X394453Y24880D01*
X394733Y25063D01*
X394873Y25393D01*
Y26273D01*
G01X396040Y23647D02*
X393240D01*
Y22913D01*
X393380Y22620D01*
X393567Y22400D01*
X393847Y22217D01*
X394173Y22070D01*
X394640Y22033D01*
X395107Y22070D01*
X395433Y22217D01*
X395713Y22400D01*
X395900Y22620D01*
X396040Y22913D01*
Y23647D01*
G01Y20140D02*
X393240D01*
X393800Y20580D01*
G01X396040D02*
Y19700D01*
G01Y17440D02*
X393240D01*
X393800Y17880D01*
G01X396040D02*
Y17000D01*
G01X392699Y46629D02*
Y43829D01*
G01X393542Y46629D02*
X391856D01*
G01X390732Y43829D02*
Y46629D01*
X389852D01*
X389559Y46489D01*
X389339Y46162D01*
X389266Y45789D01*
X389339Y45416D01*
X389522Y45136D01*
X389852Y44996D01*
X390732D01*
G01X388069Y43829D02*
Y46629D01*
G01X386529D02*
Y43829D01*
G01Y45229D02*
X388069D01*
G01X385406Y44389D02*
X385186Y44062D01*
X384892Y43876D01*
X384562Y43829D01*
X384269Y43876D01*
X383976Y44109D01*
X383792Y44389D01*
X383756Y44669D01*
X383829Y44996D01*
X384086Y45229D01*
X384342Y45322D01*
X384672D01*
G01X384342D02*
X384122Y45462D01*
X383939Y45696D01*
X383866Y45976D01*
X383939Y46256D01*
X384122Y46489D01*
X384452Y46629D01*
X384782Y46582D01*
X385112Y46396D01*
G01X380350Y150600D02*
X377550D01*
G01Y149060D02*
X380350D01*
G01X378950D02*
Y150600D01*
G01X377550Y148047D02*
X380350Y147130D01*
X377550Y146213D01*
G01X380350Y145347D02*
X377550Y144430D01*
X380350Y143513D01*
G01X379370Y143843D02*
Y145017D01*
G01X385510Y152883D02*
X382710D01*
Y152003D01*
X382850Y151710D01*
X383177Y151490D01*
X383550Y151417D01*
X383923Y151490D01*
X384203Y151673D01*
X384343Y152003D01*
Y152883D01*
G01X382943Y148643D02*
X382803Y148863D01*
X382710Y149120D01*
Y149413D01*
X382850Y149743D01*
X383083Y150000D01*
X383363Y150183D01*
X383830Y150330D01*
X384250Y150367D01*
X384670Y150293D01*
X384950Y150183D01*
X385230Y149963D01*
X385417Y149707D01*
X385510Y149450D01*
Y149193D01*
X385417Y148937D01*
X385277Y148717D01*
X385090Y148533D01*
G01X385510Y146750D02*
X382710D01*
X383270Y147190D01*
G01X385510D02*
Y146310D01*
G01Y144050D02*
X382710D01*
X383270Y144490D01*
G01X385510D02*
Y143610D01*
G01X390200Y153013D02*
X387400D01*
Y152133D01*
X387540Y151840D01*
X387867Y151620D01*
X388240Y151547D01*
X388613Y151620D01*
X388893Y151803D01*
X389033Y152133D01*
Y153013D01*
G01X387633Y148773D02*
X387493Y148993D01*
X387400Y149250D01*
Y149543D01*
X387540Y149873D01*
X387773Y150130D01*
X388053Y150313D01*
X388520Y150460D01*
X388940Y150497D01*
X389360Y150423D01*
X389640Y150313D01*
X389920Y150093D01*
X390107Y149837D01*
X390200Y149580D01*
Y149323D01*
X390107Y149067D01*
X389967Y148847D01*
X389780Y148663D01*
G01X390200Y146880D02*
X387400D01*
X387960Y147320D01*
G01X390200D02*
Y146440D01*
G01X387400Y144180D02*
X387493Y144473D01*
X387727Y144693D01*
X388007Y144840D01*
X388380Y144950D01*
X388800Y144987D01*
X389220Y144950D01*
X389593Y144840D01*
X389873Y144693D01*
X390107Y144473D01*
X390200Y144180D01*
X390107Y143887D01*
X389873Y143667D01*
X389593Y143520D01*
X389220Y143410D01*
X388800Y143373D01*
X388380Y143410D01*
X388007Y143520D01*
X387727Y143667D01*
X387493Y143887D01*
X387400Y144180D01*
G01X395310Y150163D02*
X392510D01*
Y149283D01*
X392650Y148990D01*
X392977Y148770D01*
X393350Y148697D01*
X393723Y148770D01*
X394003Y148953D01*
X394143Y149283D01*
Y150163D01*
G01X393910Y146510D02*
Y145777D01*
X394750D01*
X395030Y145997D01*
X395217Y146253D01*
X395310Y146620D01*
X395217Y146987D01*
X395030Y147243D01*
X394750Y147463D01*
X394423Y147610D01*
X394050Y147683D01*
X393723D01*
X393443Y147610D01*
X393117Y147463D01*
X392837Y147243D01*
X392650Y147023D01*
X392510Y146730D01*
Y146473D01*
X392603Y146180D01*
X392790Y145960D01*
G01X394890Y144837D02*
X395123Y144617D01*
X395263Y144360D01*
X395310Y144030D01*
X395217Y143700D01*
X395030Y143443D01*
X394703Y143260D01*
X394330Y143223D01*
X393957Y143297D01*
X393723Y143480D01*
X393537Y143737D01*
X393490Y143993D01*
X393537Y144250D01*
X393723Y144580D01*
X392510Y144470D01*
Y143480D01*
G01X400360Y150233D02*
X397560D01*
Y149353D01*
X397700Y149060D01*
X398027Y148840D01*
X398400Y148767D01*
X398773Y148840D01*
X399053Y149023D01*
X399193Y149353D01*
Y150233D01*
G01X398960Y146580D02*
Y145847D01*
X399800D01*
X400080Y146067D01*
X400267Y146323D01*
X400360Y146690D01*
X400267Y147057D01*
X400080Y147313D01*
X399800Y147533D01*
X399473Y147680D01*
X399100Y147753D01*
X398773D01*
X398493Y147680D01*
X398167Y147533D01*
X397887Y147313D01*
X397700Y147093D01*
X397560Y146800D01*
Y146543D01*
X397653Y146250D01*
X397840Y146030D01*
G01X400360Y143660D02*
X397560D01*
X399567Y145017D01*
Y143183D01*
G01X380340Y125023D02*
X377540D01*
Y124143D01*
X377680Y123850D01*
X378007Y123630D01*
X378380Y123557D01*
X378753Y123630D01*
X379033Y123813D01*
X379173Y124143D01*
Y125023D01*
G01X377540Y122030D02*
Y121150D01*
G01Y121590D02*
X380340D01*
G01Y122030D02*
Y121150D01*
G01X379780Y119697D02*
X380107Y119477D01*
X380293Y119183D01*
X380340Y118853D01*
X380293Y118560D01*
X380060Y118267D01*
X379780Y118083D01*
X379500Y118047D01*
X379173Y118120D01*
X378940Y118377D01*
X378847Y118633D01*
Y118963D01*
G01Y118633D02*
X378707Y118413D01*
X378473Y118230D01*
X378193Y118157D01*
X377913Y118230D01*
X377680Y118413D01*
X377540Y118743D01*
X377587Y119073D01*
X377773Y119403D01*
G01X376300Y124963D02*
X373500D01*
Y124083D01*
X373640Y123790D01*
X373967Y123570D01*
X374340Y123497D01*
X374713Y123570D01*
X374993Y123753D01*
X375133Y124083D01*
Y124963D01*
G01X373500Y121970D02*
Y121090D01*
G01Y121530D02*
X376300D01*
G01Y121970D02*
Y121090D01*
G01X373967Y119527D02*
X373687Y119307D01*
X373547Y119050D01*
X373500Y118757D01*
X373593Y118390D01*
X373827Y118133D01*
X374107Y118060D01*
X374387Y118097D01*
X374620Y118243D01*
X375087Y118977D01*
X375413Y119307D01*
X375880Y119527D01*
X376300Y119600D01*
Y118060D01*
G01X386070Y125113D02*
X383270D01*
Y124233D01*
X383410Y123940D01*
X383737Y123720D01*
X384110Y123647D01*
X384483Y123720D01*
X384763Y123903D01*
X384903Y124233D01*
Y125113D01*
G01X386070Y122450D02*
X383270D01*
G01Y120910D02*
X386070D01*
G01X384670D02*
Y122450D01*
G01X385510Y119787D02*
X385837Y119567D01*
X386023Y119273D01*
X386070Y118943D01*
X386023Y118650D01*
X385790Y118357D01*
X385510Y118173D01*
X385230Y118137D01*
X384903Y118210D01*
X384670Y118467D01*
X384577Y118723D01*
Y119053D01*
G01Y118723D02*
X384437Y118503D01*
X384203Y118320D01*
X383923Y118247D01*
X383643Y118320D01*
X383410Y118503D01*
X383270Y118833D01*
X383317Y119163D01*
X383503Y119493D01*
G01X390120Y125103D02*
X387320D01*
Y124223D01*
X387460Y123930D01*
X387787Y123710D01*
X388160Y123637D01*
X388533Y123710D01*
X388813Y123893D01*
X388953Y124223D01*
Y125103D01*
G01X390120Y122440D02*
X387320D01*
G01Y120900D02*
X390120D01*
G01X388720D02*
Y122440D01*
G01X390120Y118530D02*
X387320D01*
X389327Y119887D01*
Y118053D01*
G01X394280Y125113D02*
X391480D01*
Y124233D01*
X391620Y123940D01*
X391947Y123720D01*
X392320Y123647D01*
X392693Y123720D01*
X392973Y123903D01*
X393113Y124233D01*
Y125113D01*
G01X392880Y121460D02*
Y120727D01*
X393720D01*
X394000Y120947D01*
X394187Y121203D01*
X394280Y121570D01*
X394187Y121937D01*
X394000Y122193D01*
X393720Y122413D01*
X393393Y122560D01*
X393020Y122633D01*
X392693D01*
X392413Y122560D01*
X392087Y122413D01*
X391807Y122193D01*
X391620Y121973D01*
X391480Y121680D01*
Y121423D01*
X391573Y121130D01*
X391760Y120910D01*
G01X393720Y119787D02*
X394047Y119567D01*
X394233Y119273D01*
X394280Y118943D01*
X394233Y118650D01*
X394000Y118357D01*
X393720Y118173D01*
X393440Y118137D01*
X393113Y118210D01*
X392880Y118467D01*
X392787Y118723D01*
Y119053D01*
G01Y118723D02*
X392647Y118503D01*
X392413Y118320D01*
X392133Y118247D01*
X391853Y118320D01*
X391620Y118503D01*
X391480Y118833D01*
X391527Y119163D01*
X391713Y119493D01*
G01X373870Y149490D02*
Y148757D01*
X374710D01*
X374990Y148977D01*
X375177Y149233D01*
X375270Y149600D01*
X375177Y149967D01*
X374990Y150223D01*
X374710Y150443D01*
X374383Y150590D01*
X374010Y150663D01*
X373683D01*
X373403Y150590D01*
X373077Y150443D01*
X372797Y150223D01*
X372610Y150003D01*
X372470Y149710D01*
Y149453D01*
X372563Y149160D01*
X372750Y148940D01*
G01X375270Y147853D02*
X372470D01*
X375270Y146167D01*
X372470D01*
G01X375270Y145117D02*
X372470D01*
Y144383D01*
X372610Y144090D01*
X372797Y143870D01*
X373077Y143687D01*
X373403Y143540D01*
X373870Y143503D01*
X374337Y143540D01*
X374663Y143687D01*
X374943Y143870D01*
X375130Y144090D01*
X375270Y144383D01*
Y145117D01*
G01X414140Y-2380D02*
Y-3113D01*
X414980D01*
X415260Y-2893D01*
X415447Y-2637D01*
X415540Y-2270D01*
X415447Y-1903D01*
X415260Y-1647D01*
X414980Y-1427D01*
X414653Y-1280D01*
X414280Y-1207D01*
X413953D01*
X413673Y-1280D01*
X413347Y-1427D01*
X413067Y-1647D01*
X412880Y-1867D01*
X412740Y-2160D01*
Y-2417D01*
X412833Y-2710D01*
X413020Y-2930D01*
G01X415540Y-4017D02*
X412740D01*
X415540Y-5703D01*
X412740D01*
G01X415540Y-6753D02*
X412740D01*
Y-7487D01*
X412880Y-7780D01*
X413067Y-8000D01*
X413347Y-8183D01*
X413673Y-8330D01*
X414140Y-8367D01*
X414607Y-8330D01*
X414933Y-8183D01*
X415213Y-8000D01*
X415400Y-7780D01*
X415540Y-7487D01*
Y-6753D01*
G01X426160Y-1597D02*
X423360D01*
Y-2477D01*
X423500Y-2770D01*
X423827Y-2990D01*
X424200Y-3063D01*
X424573Y-2990D01*
X424853Y-2807D01*
X424993Y-2477D01*
Y-1597D01*
G01X426160Y-4223D02*
X423360D01*
Y-4957D01*
X423500Y-5250D01*
X423687Y-5470D01*
X423967Y-5653D01*
X424293Y-5800D01*
X424760Y-5837D01*
X425227Y-5800D01*
X425553Y-5653D01*
X425833Y-5470D01*
X426020Y-5250D01*
X426160Y-4957D01*
Y-4223D01*
G01X424993Y-7033D02*
X424667Y-7290D01*
X424480Y-7510D01*
X424387Y-7803D01*
X424480Y-8060D01*
X424667Y-8243D01*
X424947Y-8390D01*
X425273Y-8427D01*
X425553Y-8390D01*
X425833Y-8243D01*
X426067Y-8023D01*
X426160Y-7767D01*
X426067Y-7473D01*
X425787Y-7217D01*
X425367Y-7070D01*
X424900Y-7033D01*
X424293Y-7107D01*
X423967Y-7217D01*
X423640Y-7400D01*
X423407Y-7657D01*
X423360Y-7913D01*
X423453Y-8170D01*
X423687Y-8353D01*
G01X420810Y-1557D02*
X418010D01*
Y-2437D01*
X418150Y-2730D01*
X418477Y-2950D01*
X418850Y-3023D01*
X419223Y-2950D01*
X419503Y-2767D01*
X419643Y-2437D01*
Y-1557D01*
G01X420810Y-4183D02*
X418010D01*
Y-4917D01*
X418150Y-5210D01*
X418337Y-5430D01*
X418617Y-5613D01*
X418943Y-5760D01*
X419410Y-5797D01*
X419877Y-5760D01*
X420203Y-5613D01*
X420483Y-5430D01*
X420670Y-5210D01*
X420810Y-4917D01*
Y-4183D01*
G01Y-7617D02*
X420203Y-7690D01*
X419690Y-7800D01*
X419223Y-7947D01*
X418710Y-8130D01*
X418010Y-8423D01*
Y-6957D01*
G01X410410Y-1350D02*
X407610D01*
G01Y-2890D02*
X410410D01*
G01X409010D02*
Y-1350D01*
G01X407610Y-3903D02*
X410410Y-4820D01*
X407610Y-5737D01*
G01X410410Y-6603D02*
X407610Y-7520D01*
X410410Y-8437D01*
G01X409430Y-8107D02*
Y-6933D01*
G01X405360Y-1317D02*
X402560D01*
Y-2197D01*
X402700Y-2490D01*
X403027Y-2710D01*
X403400Y-2783D01*
X403773Y-2710D01*
X404053Y-2527D01*
X404193Y-2197D01*
Y-1317D01*
G01X405360Y-3943D02*
X402560D01*
Y-4677D01*
X402700Y-4970D01*
X402887Y-5190D01*
X403167Y-5373D01*
X403493Y-5520D01*
X403960Y-5557D01*
X404427Y-5520D01*
X404753Y-5373D01*
X405033Y-5190D01*
X405220Y-4970D01*
X405360Y-4677D01*
Y-3943D01*
G01Y-7450D02*
X405313Y-7707D01*
X405173Y-8000D01*
X404940Y-8183D01*
X404613Y-8257D01*
X404287Y-8183D01*
X404007Y-7963D01*
X403867Y-7633D01*
Y-7267D01*
X403773Y-7047D01*
X403540Y-6863D01*
X403213Y-6790D01*
X402887Y-6900D01*
X402653Y-7157D01*
X402560Y-7450D01*
X402653Y-7743D01*
X402887Y-8000D01*
X403213Y-8110D01*
X403540Y-8037D01*
X403773Y-7853D01*
X403867Y-7633D01*
Y-7267D01*
X404007Y-6937D01*
X404287Y-6717D01*
X404613Y-6643D01*
X404940Y-6717D01*
X405173Y-6900D01*
X405313Y-7193D01*
X405360Y-7450D01*
G01X401130Y26233D02*
X398330D01*
Y25353D01*
X398470Y25060D01*
X398797Y24840D01*
X399170Y24767D01*
X399543Y24840D01*
X399823Y25023D01*
X399963Y25353D01*
Y26233D01*
G01X401130Y23607D02*
X398330D01*
Y22873D01*
X398470Y22580D01*
X398657Y22360D01*
X398937Y22177D01*
X399263Y22030D01*
X399730Y21993D01*
X400197Y22030D01*
X400523Y22177D01*
X400803Y22360D01*
X400990Y22580D01*
X401130Y22873D01*
Y23607D01*
G01Y20100D02*
X398330D01*
X398890Y20540D01*
G01X401130D02*
Y19660D01*
G01X398797Y18097D02*
X398517Y17877D01*
X398377Y17620D01*
X398330Y17327D01*
X398423Y16960D01*
X398657Y16703D01*
X398937Y16630D01*
X399217Y16667D01*
X399450Y16813D01*
X399917Y17547D01*
X400243Y17877D01*
X400710Y18097D01*
X401130Y18170D01*
Y16630D01*
G01X406480Y23333D02*
X403680D01*
Y22453D01*
X403820Y22160D01*
X404147Y21940D01*
X404520Y21867D01*
X404893Y21940D01*
X405173Y22123D01*
X405313Y22453D01*
Y23333D01*
G01X406480Y20670D02*
X403680D01*
G01Y19130D02*
X406480D01*
G01X405080D02*
Y20670D01*
G01X406480Y17200D02*
X406433Y16943D01*
X406293Y16650D01*
X406060Y16467D01*
X405733Y16393D01*
X405407Y16467D01*
X405127Y16687D01*
X404987Y17017D01*
Y17383D01*
X404893Y17603D01*
X404660Y17787D01*
X404333Y17860D01*
X404007Y17750D01*
X403773Y17493D01*
X403680Y17200D01*
X403773Y16907D01*
X404007Y16650D01*
X404333Y16540D01*
X404660Y16613D01*
X404893Y16797D01*
X404987Y17017D01*
Y17383D01*
X405127Y17713D01*
X405407Y17933D01*
X405733Y18007D01*
X406060Y17933D01*
X406293Y17750D01*
X406433Y17457D01*
X406480Y17200D01*
G01X411530Y23213D02*
X408730D01*
Y22333D01*
X408870Y22040D01*
X409197Y21820D01*
X409570Y21747D01*
X409943Y21820D01*
X410223Y22003D01*
X410363Y22333D01*
Y23213D01*
G01X411530Y20550D02*
X408730D01*
G01Y19010D02*
X411530D01*
G01X410130D02*
Y20550D01*
G01X411530Y17153D02*
X410923Y17080D01*
X410410Y16970D01*
X409943Y16823D01*
X409430Y16640D01*
X408730Y16347D01*
Y17813D01*
G01X416380Y23353D02*
X413580D01*
Y22473D01*
X413720Y22180D01*
X414047Y21960D01*
X414420Y21887D01*
X414793Y21960D01*
X415073Y22143D01*
X415213Y22473D01*
Y23353D01*
G01X416380Y20690D02*
X413580D01*
G01Y19150D02*
X416380D01*
G01X414980D02*
Y20690D01*
G01X415213Y17917D02*
X414887Y17660D01*
X414700Y17440D01*
X414607Y17147D01*
X414700Y16890D01*
X414887Y16707D01*
X415167Y16560D01*
X415493Y16523D01*
X415773Y16560D01*
X416053Y16707D01*
X416287Y16927D01*
X416380Y17183D01*
X416287Y17477D01*
X416007Y17733D01*
X415587Y17880D01*
X415120Y17917D01*
X414513Y17843D01*
X414187Y17733D01*
X413860Y17550D01*
X413627Y17293D01*
X413580Y17037D01*
X413673Y16780D01*
X413907Y16597D01*
G01X421680Y22993D02*
X418880D01*
Y22113D01*
X419020Y21820D01*
X419347Y21600D01*
X419720Y21527D01*
X420093Y21600D01*
X420373Y21783D01*
X420513Y22113D01*
Y22993D01*
G01X421120Y20293D02*
X421400Y20110D01*
X421587Y19890D01*
X421680Y19633D01*
X421587Y19340D01*
X421400Y19120D01*
X421120Y18900D01*
X420747Y18827D01*
X418880D01*
G01X421120Y17667D02*
X421447Y17447D01*
X421633Y17153D01*
X421680Y16823D01*
X421633Y16530D01*
X421400Y16237D01*
X421120Y16053D01*
X420840Y16017D01*
X420513Y16090D01*
X420280Y16347D01*
X420187Y16603D01*
Y16933D01*
G01Y16603D02*
X420047Y16383D01*
X419813Y16200D01*
X419533Y16127D01*
X419253Y16200D01*
X419020Y16383D01*
X418880Y16713D01*
X418927Y17043D01*
X419113Y17373D01*
G01X426730Y23313D02*
X423930D01*
Y22433D01*
X424070Y22140D01*
X424397Y21920D01*
X424770Y21847D01*
X425143Y21920D01*
X425423Y22103D01*
X425563Y22433D01*
Y23313D01*
G01X426170Y20613D02*
X426450Y20430D01*
X426637Y20210D01*
X426730Y19953D01*
X426637Y19660D01*
X426450Y19440D01*
X426170Y19220D01*
X425797Y19147D01*
X423930D01*
G01X424397Y17877D02*
X424117Y17657D01*
X423977Y17400D01*
X423930Y17107D01*
X424023Y16740D01*
X424257Y16483D01*
X424537Y16410D01*
X424817Y16447D01*
X425050Y16593D01*
X425517Y17327D01*
X425843Y17657D01*
X426310Y17877D01*
X426730Y17950D01*
Y16410D01*
G01X401200Y125353D02*
X398400D01*
Y124473D01*
X398540Y124180D01*
X398867Y123960D01*
X399240Y123887D01*
X399613Y123960D01*
X399893Y124143D01*
X400033Y124473D01*
Y125353D01*
G01X399800Y121700D02*
Y120967D01*
X400640D01*
X400920Y121187D01*
X401107Y121443D01*
X401200Y121810D01*
X401107Y122177D01*
X400920Y122433D01*
X400640Y122653D01*
X400313Y122800D01*
X399940Y122873D01*
X399613D01*
X399333Y122800D01*
X399007Y122653D01*
X398727Y122433D01*
X398540Y122213D01*
X398400Y121920D01*
Y121663D01*
X398493Y121370D01*
X398680Y121150D01*
G01X398867Y119917D02*
X398587Y119697D01*
X398447Y119440D01*
X398400Y119147D01*
X398493Y118780D01*
X398727Y118523D01*
X399007Y118450D01*
X399287Y118487D01*
X399520Y118633D01*
X399987Y119367D01*
X400313Y119697D01*
X400780Y119917D01*
X401200Y119990D01*
Y118450D01*
G01X425150Y166410D02*
Y169210D01*
X425590Y168650D01*
G01Y166410D02*
X424710D01*
G01X426127Y191983D02*
X425907Y192263D01*
X425650Y192403D01*
X425357Y192450D01*
X424990Y192357D01*
X424733Y192123D01*
X424660Y191843D01*
X424697Y191563D01*
X424843Y191330D01*
X425577Y190863D01*
X425907Y190537D01*
X426127Y190070D01*
X426200Y189650D01*
X424660D01*
G01X447077Y-30917D02*
X446857Y-30637D01*
X446600Y-30497D01*
X446307Y-30450D01*
X445940Y-30543D01*
X445683Y-30777D01*
X445610Y-31057D01*
X445647Y-31337D01*
X445793Y-31570D01*
X446527Y-32037D01*
X446857Y-32363D01*
X447077Y-32830D01*
X447150Y-33250D01*
X445610D01*
G01X443680Y-30450D02*
X443973Y-30543D01*
X444193Y-30777D01*
X444340Y-31057D01*
X444450Y-31430D01*
X444487Y-31850D01*
X444450Y-32270D01*
X444340Y-32643D01*
X444193Y-32923D01*
X443973Y-33157D01*
X443680Y-33250D01*
X443387Y-33157D01*
X443167Y-32923D01*
X443020Y-32643D01*
X442910Y-32270D01*
X442873Y-31850D01*
X442910Y-31430D01*
X443020Y-31057D01*
X443167Y-30777D01*
X443387Y-30543D01*
X443680Y-30450D01*
G01X447320Y-10950D02*
Y-8150D01*
X447760Y-8710D01*
G01Y-10950D02*
X446880D01*
G01X445243Y-10623D02*
X444987Y-10857D01*
X444693Y-10950D01*
X444400Y-10857D01*
X444143Y-10577D01*
X443960Y-10157D01*
X443887Y-9737D01*
Y-9223D01*
X443960Y-8803D01*
X444143Y-8430D01*
X444363Y-8243D01*
X444620Y-8150D01*
X444913Y-8243D01*
X445133Y-8430D01*
X445280Y-8710D01*
X445353Y-9083D01*
X445280Y-9410D01*
X445097Y-9737D01*
X444877Y-9923D01*
X444620Y-9970D01*
X444327Y-9877D01*
X444107Y-9643D01*
X443887Y-9223D01*
G01X436340Y-1587D02*
X433540D01*
Y-2467D01*
X433680Y-2760D01*
X434007Y-2980D01*
X434380Y-3053D01*
X434753Y-2980D01*
X435033Y-2797D01*
X435173Y-2467D01*
Y-1587D01*
G01X436340Y-4213D02*
X433540D01*
Y-4947D01*
X433680Y-5240D01*
X433867Y-5460D01*
X434147Y-5643D01*
X434473Y-5790D01*
X434940Y-5827D01*
X435407Y-5790D01*
X435733Y-5643D01*
X436013Y-5460D01*
X436200Y-5240D01*
X436340Y-4947D01*
Y-4213D01*
G01Y-8160D02*
X433540D01*
X435547Y-6803D01*
Y-8637D01*
G01X431250Y-1537D02*
X428450D01*
Y-2417D01*
X428590Y-2710D01*
X428917Y-2930D01*
X429290Y-3003D01*
X429663Y-2930D01*
X429943Y-2747D01*
X430083Y-2417D01*
Y-1537D01*
G01X431250Y-4163D02*
X428450D01*
Y-4897D01*
X428590Y-5190D01*
X428777Y-5410D01*
X429057Y-5593D01*
X429383Y-5740D01*
X429850Y-5777D01*
X430317Y-5740D01*
X430643Y-5593D01*
X430923Y-5410D01*
X431110Y-5190D01*
X431250Y-4897D01*
Y-4163D01*
G01X430830Y-6863D02*
X431063Y-7083D01*
X431203Y-7340D01*
X431250Y-7670D01*
X431157Y-8000D01*
X430970Y-8257D01*
X430643Y-8440D01*
X430270Y-8477D01*
X429897Y-8403D01*
X429663Y-8220D01*
X429477Y-7963D01*
X429430Y-7707D01*
X429477Y-7450D01*
X429663Y-7120D01*
X428450Y-7230D01*
Y-8220D01*
G01X437210Y23423D02*
X434410D01*
Y22543D01*
X434550Y22250D01*
X434877Y22030D01*
X435250Y21957D01*
X435623Y22030D01*
X435903Y22213D01*
X436043Y22543D01*
Y23423D01*
G01X436650Y20723D02*
X436930Y20540D01*
X437117Y20320D01*
X437210Y20063D01*
X437117Y19770D01*
X436930Y19550D01*
X436650Y19330D01*
X436277Y19257D01*
X434410D01*
G01Y17290D02*
X434503Y17583D01*
X434737Y17803D01*
X435017Y17950D01*
X435390Y18060D01*
X435810Y18097D01*
X436230Y18060D01*
X436603Y17950D01*
X436883Y17803D01*
X437117Y17583D01*
X437210Y17290D01*
X437117Y16997D01*
X436883Y16777D01*
X436603Y16630D01*
X436230Y16520D01*
X435810Y16483D01*
X435390Y16520D01*
X435017Y16630D01*
X434737Y16777D01*
X434503Y16997D01*
X434410Y17290D01*
G01X431820Y23263D02*
X429020D01*
Y22383D01*
X429160Y22090D01*
X429487Y21870D01*
X429860Y21797D01*
X430233Y21870D01*
X430513Y22053D01*
X430653Y22383D01*
Y23263D01*
G01X431260Y20563D02*
X431540Y20380D01*
X431727Y20160D01*
X431820Y19903D01*
X431727Y19610D01*
X431540Y19390D01*
X431260Y19170D01*
X430887Y19097D01*
X429020D01*
G01X431820Y17130D02*
X429020D01*
X429580Y17570D01*
G01X431820D02*
Y16690D01*
G01X468562Y44168D02*
Y46968D01*
X469002Y46408D01*
G01Y44168D02*
X468122D01*
G01X465960Y51683D02*
Y54483D01*
X465044D01*
X464750Y54343D01*
X464567Y54156D01*
X464494Y53783D01*
X464567Y53410D01*
X464787Y53176D01*
X465044Y53036D01*
X465960D01*
G01X465044D02*
X464494Y51683D01*
G01X463444Y54483D02*
X462527Y51683D01*
X461610Y54483D01*
G01X459827Y51683D02*
Y54483D01*
X460267Y53923D01*
G01Y51683D02*
X459387D01*
G01X482159Y142783D02*
X481939Y143063D01*
X481682Y143203D01*
X481389Y143250D01*
X481022Y143157D01*
X480765Y142923D01*
X480692Y142643D01*
X480729Y142363D01*
X480875Y142130D01*
X481609Y141663D01*
X481939Y141337D01*
X482159Y140870D01*
X482232Y140450D01*
X480692D01*
G01X471860Y143978D02*
Y146778D01*
X470980D01*
X470687Y146638D01*
X470467Y146311D01*
X470394Y145938D01*
X470467Y145565D01*
X470650Y145285D01*
X470980Y145145D01*
X471860D01*
G01X469124Y146311D02*
X468904Y146591D01*
X468647Y146731D01*
X468354Y146778D01*
X467987Y146685D01*
X467730Y146451D01*
X467657Y146171D01*
X467694Y145891D01*
X467840Y145658D01*
X468574Y145191D01*
X468904Y144865D01*
X469124Y144398D01*
X469197Y143978D01*
X467657D01*
G01X480887Y148768D02*
Y151568D01*
X481327Y151008D01*
G01Y148768D02*
X480447D01*
G54D15*
G01X158670Y-20580D02*
X137020Y1710D01*
G01X160890Y-22130D02*
X135890D01*
G01X159170Y2060D02*
X138340Y-20410D01*
G01X155100Y-2160D02*
X141520D01*
G01X135890Y2870D02*
X160890D01*
G01X144020Y-15140D02*
X142850Y-1950D01*
G01X146350Y-17240D02*
G02I-1760J0D01*
G01X144980D02*
G02I-390J0D01*
G01X142850Y-1950D02*
Y-2000D01*
G01X142890Y-1130D02*
G02I-750J0D01*
G01X141520Y-2160D02*
X142850Y-2130D01*
G01X143020Y-3600D02*
X141390D01*
G01X141520D02*
Y-5500D01*
G01X141390D02*
X143140D01*
G01D02*
X143020Y-3600D01*
G01X143070Y-1100D02*
G02X145790Y-180I2490J-2881D01*
G01X143070Y-1100D01*
G01X135890Y-22130D02*
Y2870D01*
G01X160890D02*
Y-22130D01*
G01X153090Y-1430D02*
X151820Y-16380D01*
G01D02*
Y-17620D01*
G01D02*
X146500D01*
G01X149400Y-130D02*
G02X153090Y-1320I-178J-6869D01*
G01X149400Y-130D01*
G01X149920Y-4170D02*
X146460D01*
G01X146480Y-4360D02*
Y-5290D01*
G01X146470Y-5430D02*
X149930D01*
G01X149970Y-5290D02*
Y-4360D01*
G01X149310Y490D02*
X145850D01*
G01D02*
Y-470D01*
G01D02*
X149310D01*
G01D02*
Y490D01*
G01X150390Y-18130D02*
Y-18630D01*
G01X150890Y-130D02*
Y-1630D01*
M02*
